G04*
G04 #@! TF.GenerationSoftware,Altium Limited,Altium Designer,19.1.8 (144)*
G04*
G04 Layer_Physical_Order=2*
G04 Layer_Color=16711680*
%FSLAX25Y25*%
%MOIN*%
G70*
G01*
G75*
%ADD13C,0.01000*%
%ADD14C,0.00394*%
%ADD51C,0.03937*%
%ADD52C,0.01968*%
%ADD53C,0.02756*%
%ADD57C,0.05906*%
%ADD58R,0.05906X0.05906*%
%ADD59R,0.05906X0.05906*%
%ADD60C,0.05512*%
%ADD61C,0.31496*%
%ADD62C,0.04724*%
%ADD63C,0.19685*%
%ADD64C,0.05000*%
G36*
X273485Y1122D02*
X137D01*
X137Y262658D01*
X273485D01*
X273485Y1122D01*
D02*
G37*
%LPC*%
G36*
X219004Y250968D02*
Y247547D01*
X222425D01*
X222355Y248079D01*
X221957Y249041D01*
X221323Y249866D01*
X220497Y250500D01*
X219536Y250898D01*
X219004Y250968D01*
D02*
G37*
G36*
X218004D02*
X217472Y250898D01*
X216511Y250500D01*
X215685Y249866D01*
X215051Y249041D01*
X214653Y248079D01*
X214583Y247547D01*
X218004D01*
Y250968D01*
D02*
G37*
G36*
X205382Y249157D02*
Y245736D01*
X208803D01*
X208733Y246268D01*
X208335Y247230D01*
X207701Y248055D01*
X206875Y248689D01*
X205914Y249087D01*
X205382Y249157D01*
D02*
G37*
G36*
X195382D02*
Y245736D01*
X198803D01*
X198733Y246268D01*
X198335Y247230D01*
X197701Y248055D01*
X196875Y248689D01*
X195914Y249087D01*
X195382Y249157D01*
D02*
G37*
G36*
X204382D02*
X203850Y249087D01*
X202888Y248689D01*
X202063Y248055D01*
X201429Y247230D01*
X201031Y246268D01*
X200961Y245736D01*
X204382D01*
Y249157D01*
D02*
G37*
G36*
X194382D02*
X193850Y249087D01*
X192888Y248689D01*
X192063Y248055D01*
X191429Y247230D01*
X191031Y246268D01*
X190961Y245736D01*
X194382D01*
Y249157D01*
D02*
G37*
G36*
X109252Y245253D02*
X108443Y245146D01*
X107689Y244834D01*
X107041Y244337D01*
X106544Y243689D01*
X106361Y243248D01*
X105315D01*
X105315Y243248D01*
X104886Y243162D01*
X104522Y242919D01*
X104522Y242919D01*
X93208Y231605D01*
X92784Y231888D01*
X92977Y232354D01*
X93031Y232768D01*
X90067D01*
Y229803D01*
X90481Y229858D01*
X90947Y230051D01*
X91230Y229627D01*
X80797Y219194D01*
X80340Y219444D01*
X80233Y220258D01*
X79875Y221122D01*
X79305Y221865D01*
X78563Y222434D01*
X77699Y222792D01*
X76772Y222914D01*
X75844Y222792D01*
X74980Y222434D01*
X74238Y221865D01*
X73668Y221122D01*
X73310Y220258D01*
X73188Y219331D01*
X73310Y218403D01*
X73668Y217539D01*
X74238Y216797D01*
X74980Y216227D01*
X75844Y215869D01*
X76658Y215762D01*
X76909Y215306D01*
X61215Y199612D01*
X60972Y199248D01*
X60886Y198819D01*
X60886Y198819D01*
Y182381D01*
X60386Y182282D01*
X60144Y182868D01*
X59583Y183599D01*
X58852Y184160D01*
X58000Y184512D01*
X57587Y184567D01*
Y181102D01*
Y177638D01*
X58000Y177692D01*
X58852Y178045D01*
X59583Y178606D01*
X60144Y179337D01*
X60386Y179923D01*
X60886Y179823D01*
Y150591D01*
X60886Y150591D01*
X60972Y150161D01*
X61215Y149797D01*
X73588Y137424D01*
X73310Y136754D01*
X73188Y135827D01*
X73310Y134899D01*
X73668Y134035D01*
X74238Y133293D01*
X74980Y132723D01*
X75844Y132366D01*
X76772Y132243D01*
X77699Y132366D01*
X78563Y132723D01*
X79305Y133293D01*
X79875Y134035D01*
X80233Y134899D01*
X80355Y135827D01*
X80233Y136754D01*
X79875Y137619D01*
X79305Y138361D01*
X78563Y138930D01*
X77699Y139288D01*
X76772Y139410D01*
X75844Y139288D01*
X75174Y139011D01*
X63129Y151055D01*
Y198354D01*
X105780Y241004D01*
X106361D01*
X106544Y240563D01*
X107041Y239915D01*
X107689Y239418D01*
X108443Y239106D01*
X109252Y238999D01*
X110061Y239106D01*
X110815Y239418D01*
X111463Y239915D01*
X111960Y240563D01*
X112272Y241317D01*
X112379Y242126D01*
X112272Y242935D01*
X111960Y243689D01*
X111463Y244337D01*
X110815Y244834D01*
X110061Y245146D01*
X109252Y245253D01*
D02*
G37*
G36*
X222425Y246547D02*
X219004D01*
Y243126D01*
X219536Y243196D01*
X220497Y243595D01*
X221323Y244228D01*
X221957Y245054D01*
X222355Y246015D01*
X222425Y246547D01*
D02*
G37*
G36*
X218004D02*
X214583D01*
X214653Y246015D01*
X215051Y245054D01*
X215685Y244228D01*
X216511Y243595D01*
X217472Y243196D01*
X218004Y243126D01*
Y246547D01*
D02*
G37*
G36*
X208803Y244736D02*
X205382D01*
Y241315D01*
X205914Y241385D01*
X206875Y241783D01*
X207701Y242417D01*
X208335Y243243D01*
X208733Y244204D01*
X208803Y244736D01*
D02*
G37*
G36*
X204382D02*
X200961D01*
X201031Y244204D01*
X201429Y243243D01*
X202063Y242417D01*
X202888Y241783D01*
X203850Y241385D01*
X204382Y241315D01*
Y244736D01*
D02*
G37*
G36*
X155028Y237716D02*
Y234752D01*
X157992D01*
X157938Y235166D01*
X157585Y236017D01*
X157024Y236748D01*
X156293Y237309D01*
X155441Y237662D01*
X155028Y237716D01*
D02*
G37*
G36*
X154028D02*
X153614Y237662D01*
X152762Y237309D01*
X152031Y236748D01*
X151470Y236017D01*
X151118Y235166D01*
X151063Y234752D01*
X154028D01*
Y237716D01*
D02*
G37*
G36*
X90067Y236732D02*
Y233768D01*
X93031D01*
X92977Y234181D01*
X92624Y235033D01*
X92063Y235764D01*
X91332Y236325D01*
X90481Y236678D01*
X90067Y236732D01*
D02*
G37*
G36*
X89067D02*
X88653Y236678D01*
X87802Y236325D01*
X87071Y235764D01*
X86510Y235033D01*
X86157Y234181D01*
X86103Y233768D01*
X89067D01*
Y236732D01*
D02*
G37*
G36*
X218504Y240631D02*
X217577Y240509D01*
X216712Y240151D01*
X215970Y239581D01*
X215401Y238839D01*
X215043Y237975D01*
X214920Y237047D01*
X215043Y236120D01*
X215401Y235256D01*
X215970Y234513D01*
X216712Y233944D01*
X217577Y233586D01*
X218504Y233464D01*
X219431Y233586D01*
X220296Y233944D01*
X221038Y234513D01*
X221607Y235256D01*
X221965Y236120D01*
X222087Y237047D01*
X221965Y237975D01*
X221607Y238839D01*
X221038Y239581D01*
X220296Y240151D01*
X219431Y240509D01*
X218504Y240631D01*
D02*
G37*
G36*
X178150Y239347D02*
X177340Y239241D01*
X176586Y238928D01*
X175939Y238431D01*
X175442Y237784D01*
X175129Y237030D01*
X175023Y236221D01*
X175088Y235729D01*
X142252Y202893D01*
X140686D01*
X140503Y203335D01*
X140006Y203982D01*
X139358Y204479D01*
X138604Y204791D01*
X137795Y204898D01*
X136986Y204791D01*
X136232Y204479D01*
X135584Y203982D01*
X135087Y203335D01*
X134775Y202580D01*
X134668Y201771D01*
X134775Y200962D01*
X135087Y200208D01*
X135584Y199560D01*
X136232Y199063D01*
X136986Y198751D01*
X137795Y198644D01*
X138604Y198751D01*
X139358Y199063D01*
X140006Y199560D01*
X140503Y200208D01*
X140686Y200650D01*
X142716D01*
X142716Y200650D01*
X143145Y200735D01*
X143509Y200978D01*
X176279Y233748D01*
X176586Y233513D01*
X177340Y233200D01*
X178150Y233094D01*
X178959Y233200D01*
X179713Y233513D01*
X180361Y234010D01*
X180857Y234657D01*
X181170Y235411D01*
X181276Y236221D01*
X181170Y237030D01*
X180857Y237784D01*
X180361Y238431D01*
X179713Y238928D01*
X178959Y239241D01*
X178150Y239347D01*
D02*
G37*
G36*
X54954Y236018D02*
Y233054D01*
X57918D01*
X57864Y233468D01*
X57511Y234319D01*
X56950Y235050D01*
X56219Y235611D01*
X55367Y235964D01*
X54954Y236018D01*
D02*
G37*
G36*
X53954D02*
X53540Y235964D01*
X52689Y235611D01*
X51957Y235050D01*
X51397Y234319D01*
X51044Y233468D01*
X50989Y233054D01*
X53954D01*
Y236018D01*
D02*
G37*
G36*
X183071Y253127D02*
X182262Y253020D01*
X181508Y252708D01*
X180860Y252211D01*
X180363Y251563D01*
X180051Y250809D01*
X179944Y250000D01*
X180051Y249191D01*
X180363Y248437D01*
X180860Y247789D01*
X181508Y247292D01*
X182262Y246980D01*
X183071Y246873D01*
X183880Y246980D01*
X184322Y247163D01*
X192120Y239364D01*
X192120Y239364D01*
X192484Y239121D01*
X192913Y239036D01*
X192913Y239036D01*
X193465D01*
X193564Y238536D01*
X193090Y238339D01*
X192348Y237770D01*
X191779Y237028D01*
X191421Y236164D01*
X191298Y235236D01*
X191421Y234309D01*
X191779Y233444D01*
X192348Y232702D01*
X193090Y232133D01*
X193954Y231775D01*
X194882Y231653D01*
X195809Y231775D01*
X196674Y232133D01*
X197416Y232702D01*
X197985Y233444D01*
X198343Y234309D01*
X198465Y235236D01*
X198343Y236164D01*
X197985Y237028D01*
X197416Y237770D01*
X196674Y238339D01*
X196200Y238536D01*
X196299Y239036D01*
X199496D01*
X201698Y236834D01*
X201421Y236164D01*
X201298Y235236D01*
X201421Y234309D01*
X201779Y233444D01*
X202348Y232702D01*
X203090Y232133D01*
X203954Y231775D01*
X204882Y231653D01*
X205809Y231775D01*
X206674Y232133D01*
X207416Y232702D01*
X207985Y233444D01*
X208343Y234309D01*
X208465Y235236D01*
X208343Y236164D01*
X207985Y237028D01*
X207416Y237770D01*
X206674Y238339D01*
X205809Y238698D01*
X204882Y238820D01*
X203954Y238698D01*
X203284Y238420D01*
X200754Y240950D01*
X200390Y241194D01*
X199961Y241279D01*
X199961Y241279D01*
X196964D01*
X196864Y241779D01*
X196875Y241783D01*
X197701Y242417D01*
X198335Y243243D01*
X198733Y244204D01*
X198803Y244736D01*
X194882D01*
X190961D01*
X191011Y244353D01*
X190559Y244098D01*
X185908Y248749D01*
X186091Y249191D01*
X186198Y250000D01*
X186091Y250809D01*
X185779Y251563D01*
X185282Y252211D01*
X184634Y252708D01*
X183880Y253020D01*
X183071Y253127D01*
D02*
G37*
G36*
X113189Y238363D02*
X112380Y238256D01*
X111626Y237944D01*
X110978Y237447D01*
X110481Y236800D01*
X110169Y236046D01*
X110062Y235236D01*
X110169Y234427D01*
X110352Y233985D01*
X106928Y230562D01*
X102934D01*
X102727Y231062D01*
X103080Y231415D01*
X103522Y231232D01*
X104331Y231125D01*
X105140Y231232D01*
X105894Y231544D01*
X106542Y232041D01*
X107039Y232689D01*
X107351Y233443D01*
X107457Y234252D01*
X107351Y235061D01*
X107039Y235815D01*
X106542Y236463D01*
X105894Y236960D01*
X105140Y237272D01*
X104331Y237379D01*
X103522Y237272D01*
X102767Y236960D01*
X102120Y236463D01*
X101623Y235815D01*
X101311Y235061D01*
X101204Y234252D01*
X101311Y233443D01*
X101494Y233001D01*
X100913Y232421D01*
X100394D01*
X100394Y232421D01*
X99964Y232335D01*
X99601Y232092D01*
X99601Y232092D01*
X66136Y198628D01*
X65893Y198264D01*
X65808Y197835D01*
X65808Y197835D01*
Y165669D01*
X65808Y165669D01*
X65808Y165669D01*
Y165354D01*
X65893Y164925D01*
X66136Y164561D01*
X66500Y164318D01*
X66742Y164270D01*
X73588Y157424D01*
X73310Y156754D01*
X73188Y155827D01*
X73310Y154899D01*
X73668Y154035D01*
X74238Y153293D01*
X74980Y152724D01*
X75844Y152366D01*
X76772Y152243D01*
X77699Y152366D01*
X78563Y152724D01*
X79305Y153293D01*
X79875Y154035D01*
X80233Y154899D01*
X80355Y155827D01*
X80233Y156754D01*
X79875Y157618D01*
X79305Y158361D01*
X78563Y158930D01*
X77699Y159288D01*
X76772Y159410D01*
X75844Y159288D01*
X75174Y159011D01*
X68051Y166134D01*
Y197370D01*
X100516Y229836D01*
X100564Y229826D01*
X100729Y229284D01*
X92711Y221266D01*
X92468Y220902D01*
X92382Y220473D01*
X92382Y220472D01*
Y199284D01*
X84837Y191738D01*
X84594Y191374D01*
X84508Y190945D01*
X84508Y190945D01*
Y155150D01*
X78369Y149011D01*
X77699Y149288D01*
X76772Y149410D01*
X75844Y149288D01*
X74980Y148930D01*
X74238Y148361D01*
X73668Y147618D01*
X73310Y146754D01*
X73188Y145827D01*
X73310Y144899D01*
X73668Y144035D01*
X74238Y143293D01*
X74980Y142724D01*
X75844Y142366D01*
X76772Y142243D01*
X77699Y142366D01*
X78563Y142724D01*
X79305Y143293D01*
X79875Y144035D01*
X80233Y144899D01*
X80355Y145827D01*
X80233Y146754D01*
X79955Y147424D01*
X85977Y153446D01*
X86477Y153239D01*
Y132354D01*
X81071Y126948D01*
X80153D01*
X79875Y127619D01*
X79305Y128361D01*
X78563Y128930D01*
X77699Y129288D01*
X76772Y129410D01*
X75844Y129288D01*
X74980Y128930D01*
X74238Y128361D01*
X73668Y127619D01*
X73310Y126754D01*
X73188Y125827D01*
X73310Y124899D01*
X73668Y124035D01*
X74238Y123293D01*
X74980Y122723D01*
X75844Y122365D01*
X76772Y122243D01*
X77699Y122365D01*
X78563Y122723D01*
X79305Y123293D01*
X79875Y124035D01*
X80153Y124705D01*
X81535D01*
X81535Y124705D01*
X81965Y124791D01*
X82328Y125034D01*
X88392Y131097D01*
X88392Y131097D01*
X88635Y131461D01*
X88720Y131890D01*
X88720Y131890D01*
Y187528D01*
X108991Y207798D01*
X108991Y207798D01*
X109234Y208162D01*
X109319Y208592D01*
X109319Y208592D01*
Y221519D01*
X109761Y221702D01*
X110409Y222199D01*
X110906Y222846D01*
X111218Y223600D01*
X111325Y224410D01*
X111218Y225219D01*
X110906Y225973D01*
X110409Y226620D01*
X109761Y227117D01*
X109007Y227430D01*
X108198Y227536D01*
X107388Y227430D01*
X106634Y227117D01*
X105987Y226620D01*
X105490Y225973D01*
X105177Y225219D01*
X105071Y224410D01*
X105177Y223600D01*
X105490Y222846D01*
X105987Y222199D01*
X106634Y221702D01*
X107076Y221519D01*
Y209056D01*
X87252Y189231D01*
X86752Y189438D01*
Y190480D01*
X94297Y198026D01*
X94297Y198026D01*
X94540Y198390D01*
X94626Y198819D01*
X94626Y198819D01*
Y220008D01*
X102936Y228319D01*
X107393D01*
X107393Y228319D01*
X107822Y228404D01*
X108186Y228647D01*
X111938Y232399D01*
X112380Y232216D01*
X113189Y232109D01*
X113998Y232216D01*
X114752Y232528D01*
X115400Y233025D01*
X115897Y233673D01*
X116209Y234427D01*
X116316Y235236D01*
X116209Y236046D01*
X115897Y236800D01*
X115400Y237447D01*
X114752Y237944D01*
X113998Y238256D01*
X113189Y238363D01*
D02*
G37*
G36*
X157992Y233752D02*
X155028D01*
Y230788D01*
X155441Y230842D01*
X156293Y231195D01*
X157024Y231756D01*
X157585Y232487D01*
X157938Y233338D01*
X157992Y233752D01*
D02*
G37*
G36*
X154028D02*
X151063D01*
X151118Y233338D01*
X151470Y232487D01*
X152031Y231756D01*
X152762Y231195D01*
X153614Y230842D01*
X154028Y230788D01*
Y233752D01*
D02*
G37*
G36*
X89067Y232768D02*
X86103D01*
X86157Y232354D01*
X86510Y231503D01*
X87071Y230771D01*
X87802Y230210D01*
X88653Y229858D01*
X89067Y229803D01*
Y232768D01*
D02*
G37*
G36*
X57918Y232054D02*
X54954D01*
Y229090D01*
X55367Y229144D01*
X56219Y229497D01*
X56950Y230058D01*
X57511Y230789D01*
X57864Y231641D01*
X57918Y232054D01*
D02*
G37*
G36*
X53954D02*
X50989D01*
X51044Y231641D01*
X51397Y230789D01*
X51957Y230058D01*
X52689Y229497D01*
X53540Y229144D01*
X53954Y229090D01*
Y232054D01*
D02*
G37*
G36*
X80324Y232884D02*
X73219D01*
Y225778D01*
X80324D01*
Y232884D01*
D02*
G37*
G36*
X251969Y257525D02*
X249830Y257385D01*
X247728Y256967D01*
X245699Y256278D01*
X243777Y255330D01*
X241995Y254139D01*
X240384Y252726D01*
X238971Y251115D01*
X237780Y249333D01*
X236832Y247411D01*
X236144Y245382D01*
X235726Y243280D01*
X235585Y241142D01*
X235726Y239003D01*
X236144Y236901D01*
X236832Y234872D01*
X237780Y232950D01*
X238971Y231168D01*
X240384Y229557D01*
X241995Y228144D01*
X243777Y226954D01*
X245699Y226006D01*
X247728Y225317D01*
X249830Y224899D01*
X251969Y224759D01*
X254107Y224899D01*
X256209Y225317D01*
X258238Y226006D01*
X260160Y226954D01*
X261942Y228144D01*
X263553Y229557D01*
X264966Y231168D01*
X266157Y232950D01*
X267105Y234872D01*
X267793Y236901D01*
X268212Y239003D01*
X268352Y241142D01*
X268212Y243280D01*
X267793Y245382D01*
X267105Y247411D01*
X266157Y249333D01*
X264966Y251115D01*
X263553Y252726D01*
X261942Y254139D01*
X260160Y255330D01*
X258238Y256278D01*
X256209Y256967D01*
X254107Y257385D01*
X251969Y257525D01*
D02*
G37*
G36*
X21654D02*
X19515Y257385D01*
X17413Y256967D01*
X15384Y256278D01*
X13462Y255330D01*
X11680Y254139D01*
X10069Y252726D01*
X8656Y251115D01*
X7465Y249333D01*
X6517Y247411D01*
X5829Y245382D01*
X5411Y243280D01*
X5270Y241142D01*
X5411Y239003D01*
X5829Y236901D01*
X6517Y234872D01*
X7465Y232950D01*
X8656Y231168D01*
X10069Y229557D01*
X11680Y228144D01*
X13462Y226954D01*
X15384Y226006D01*
X17413Y225317D01*
X19515Y224899D01*
X21654Y224759D01*
X23792Y224899D01*
X25894Y225317D01*
X27923Y226006D01*
X29845Y226954D01*
X31627Y228144D01*
X33238Y229557D01*
X34651Y231168D01*
X35842Y232950D01*
X36790Y234872D01*
X37478Y236901D01*
X37896Y239003D01*
X38037Y241142D01*
X37896Y243280D01*
X37478Y245382D01*
X36790Y247411D01*
X35842Y249333D01*
X34651Y251115D01*
X33238Y252726D01*
X31627Y254139D01*
X29845Y255330D01*
X27923Y256278D01*
X25894Y256967D01*
X23792Y257385D01*
X21654Y257525D01*
D02*
G37*
G36*
X205709Y258011D02*
X205709Y258011D01*
X157480D01*
X157051Y257926D01*
X156687Y257683D01*
X156687Y257683D01*
X143236Y244232D01*
X139702D01*
X139519Y244674D01*
X139022Y245321D01*
X138374Y245818D01*
X137620Y246130D01*
X136811Y246237D01*
X136002Y246130D01*
X135248Y245818D01*
X134600Y245321D01*
X134103Y244674D01*
X133791Y243919D01*
X133684Y243110D01*
X133737Y242711D01*
X133592Y242504D01*
X133291Y242263D01*
X131828D01*
X131645Y242705D01*
X131148Y243353D01*
X130500Y243850D01*
X129746Y244162D01*
X128937Y244268D01*
X128128Y244162D01*
X127374Y243850D01*
X126726Y243353D01*
X126229Y242705D01*
X125917Y241951D01*
X125810Y241142D01*
X125917Y240333D01*
X126229Y239578D01*
X126726Y238931D01*
X127374Y238434D01*
X128128Y238122D01*
X128937Y238015D01*
X129112Y238038D01*
X129195Y237885D01*
X129263Y237554D01*
X128695Y237118D01*
X128198Y236470D01*
X127885Y235716D01*
X127779Y234907D01*
X127885Y234097D01*
X128198Y233343D01*
X128695Y232696D01*
X129342Y232199D01*
X130096Y231887D01*
X130905Y231780D01*
X131715Y231887D01*
X132469Y232199D01*
X133116Y232696D01*
X133613Y233343D01*
X133796Y233785D01*
X135692D01*
X144876Y224601D01*
X144876Y224601D01*
X145240Y224358D01*
X145669Y224272D01*
X145669Y224272D01*
X158465D01*
X158465Y224272D01*
X158894Y224358D01*
X159258Y224601D01*
X167132Y232475D01*
X167132Y232475D01*
X167375Y232839D01*
X167460Y233268D01*
Y233330D01*
X167902Y233513D01*
X168550Y234010D01*
X169046Y234657D01*
X169359Y235411D01*
X169465Y236221D01*
X169359Y237030D01*
X169046Y237784D01*
X168550Y238431D01*
X167902Y238928D01*
X167148Y239241D01*
X166339Y239347D01*
X165529Y239241D01*
X164775Y238928D01*
X164128Y238431D01*
X163631Y237784D01*
X163318Y237030D01*
X163212Y236221D01*
X163318Y235411D01*
X163631Y234657D01*
X164128Y234010D01*
X164501Y233723D01*
X164573Y233088D01*
X158000Y226515D01*
X156958D01*
X156751Y227015D01*
X162210Y232475D01*
X162210Y232475D01*
X162453Y232839D01*
X162539Y233268D01*
Y237724D01*
X165819Y241004D01*
X168369D01*
X168552Y240563D01*
X169049Y239915D01*
X169696Y239418D01*
X170451Y239106D01*
X171260Y238999D01*
X172069Y239106D01*
X172823Y239418D01*
X173471Y239915D01*
X173968Y240563D01*
X174280Y241317D01*
X174387Y242126D01*
X174280Y242935D01*
X173968Y243689D01*
X173471Y244337D01*
X172823Y244834D01*
X172069Y245146D01*
X171260Y245253D01*
X170451Y245146D01*
X169696Y244834D01*
X169049Y244337D01*
X168552Y243689D01*
X168369Y243248D01*
X165354D01*
X165354Y243248D01*
X164925Y243162D01*
X164561Y242919D01*
X164561Y242919D01*
X160624Y238982D01*
X160381Y238618D01*
X160296Y238189D01*
X160296Y238189D01*
Y233732D01*
X155047Y228484D01*
X147667D01*
X136599Y239553D01*
X136662Y239680D01*
X136867Y239991D01*
X137620Y240090D01*
X138374Y240402D01*
X139022Y240899D01*
X139519Y241547D01*
X139702Y241989D01*
X143701D01*
X143701Y241989D01*
X144130Y242074D01*
X144494Y242317D01*
X157945Y255768D01*
X205244D01*
X210493Y250520D01*
Y233937D01*
X210493Y233937D01*
X210578Y233508D01*
X210821Y233144D01*
X215320Y228645D01*
X215043Y227975D01*
X214920Y227047D01*
X215043Y226120D01*
X215401Y225255D01*
X215970Y224513D01*
X216712Y223944D01*
X217577Y223586D01*
X218504Y223464D01*
X219431Y223586D01*
X220296Y223944D01*
X221038Y224513D01*
X221607Y225255D01*
X221965Y226120D01*
X222087Y227047D01*
X221965Y227975D01*
X221607Y228839D01*
X221038Y229581D01*
X220296Y230151D01*
X219431Y230509D01*
X218504Y230631D01*
X217577Y230509D01*
X216906Y230231D01*
X212736Y234402D01*
Y250984D01*
X212736Y250984D01*
X212650Y251413D01*
X212407Y251777D01*
X212407Y251777D01*
X206502Y257683D01*
X206138Y257926D01*
X205709Y258011D01*
D02*
G37*
G36*
X159449Y254111D02*
X158640Y254005D01*
X157885Y253692D01*
X157238Y253195D01*
X156741Y252548D01*
X156429Y251794D01*
X156322Y250984D01*
X156429Y250175D01*
X156741Y249421D01*
X157238Y248773D01*
X157885Y248276D01*
X158640Y247964D01*
X159449Y247857D01*
X160258Y247964D01*
X161012Y248276D01*
X161660Y248773D01*
X162117Y249369D01*
X173544D01*
X184408Y238504D01*
Y226852D01*
X181929D01*
X181311Y226729D01*
X180787Y226378D01*
X164130Y209722D01*
X163386Y209820D01*
X162577Y209713D01*
X161822Y209401D01*
X161175Y208904D01*
X160678Y208256D01*
X160366Y207502D01*
X160259Y206693D01*
X160366Y205884D01*
X160678Y205130D01*
X161175Y204482D01*
X161822Y203985D01*
X162577Y203673D01*
X163386Y203566D01*
X164195Y203673D01*
X164949Y203985D01*
X165597Y204482D01*
X166094Y205130D01*
X166406Y205884D01*
X166513Y206693D01*
X166415Y207437D01*
X182598Y223621D01*
X191706D01*
X191779Y223445D01*
X192348Y222702D01*
X193090Y222133D01*
X193954Y221775D01*
X194882Y221653D01*
X195809Y221775D01*
X196674Y222133D01*
X197416Y222702D01*
X197985Y223445D01*
X198343Y224309D01*
X198465Y225236D01*
X198343Y226164D01*
X197985Y227028D01*
X197416Y227770D01*
X196674Y228340D01*
X195809Y228697D01*
X194882Y228820D01*
X193954Y228697D01*
X193090Y228340D01*
X192348Y227770D01*
X191779Y227028D01*
X191706Y226852D01*
X187639D01*
Y239173D01*
X187516Y239791D01*
X187166Y240315D01*
X175355Y252126D01*
X174831Y252477D01*
X174213Y252600D01*
X162117D01*
X161660Y253195D01*
X161012Y253692D01*
X160258Y254005D01*
X159449Y254111D01*
D02*
G37*
G36*
X56602Y220984D02*
Y218020D01*
X59567D01*
X59512Y218433D01*
X59160Y219285D01*
X58599Y220016D01*
X57867Y220577D01*
X57016Y220930D01*
X56602Y220984D01*
D02*
G37*
G36*
X55602D02*
X55189Y220930D01*
X54337Y220577D01*
X53606Y220016D01*
X53045Y219285D01*
X52692Y218433D01*
X52638Y218020D01*
X55602D01*
Y220984D01*
D02*
G37*
G36*
X59567Y217020D02*
X56602D01*
Y214055D01*
X57016Y214110D01*
X57867Y214462D01*
X58599Y215023D01*
X59160Y215755D01*
X59512Y216606D01*
X59567Y217020D01*
D02*
G37*
G36*
X55602D02*
X52638D01*
X52692Y216606D01*
X53045Y215755D01*
X53606Y215023D01*
X54337Y214462D01*
X55189Y214110D01*
X55602Y214055D01*
Y217020D01*
D02*
G37*
G36*
X208435Y228789D02*
X201329D01*
Y221684D01*
X205698D01*
X205866Y221661D01*
X206034Y221684D01*
X208435D01*
Y222235D01*
X210464D01*
X215006Y217693D01*
X214920Y217047D01*
X215043Y216120D01*
X215401Y215255D01*
X215970Y214513D01*
X216712Y213944D01*
X217577Y213586D01*
X218504Y213464D01*
X219431Y213586D01*
X220296Y213944D01*
X221038Y214513D01*
X221607Y215255D01*
X221965Y216120D01*
X222087Y217047D01*
X221965Y217975D01*
X221607Y218839D01*
X221038Y219581D01*
X220296Y220151D01*
X219431Y220509D01*
X218504Y220631D01*
X217858Y220546D01*
X212725Y225678D01*
X212071Y226115D01*
X211299Y226269D01*
X208435D01*
Y228789D01*
D02*
G37*
G36*
X266348Y220088D02*
X259243D01*
Y212983D01*
X266348D01*
Y220088D01*
D02*
G37*
G36*
X46387D02*
X39282D01*
Y212983D01*
X46387D01*
Y220088D01*
D02*
G37*
G36*
X252795Y220119D02*
X251868Y219997D01*
X251004Y219639D01*
X250261Y219069D01*
X249692Y218327D01*
X249334Y217463D01*
X249212Y216535D01*
X249334Y215608D01*
X249692Y214744D01*
X250261Y214002D01*
X251004Y213432D01*
X251868Y213074D01*
X252795Y212952D01*
X253723Y213074D01*
X254587Y213432D01*
X255329Y214002D01*
X255899Y214744D01*
X256257Y215608D01*
X256379Y216535D01*
X256257Y217463D01*
X255899Y218327D01*
X255329Y219069D01*
X254587Y219639D01*
X253723Y219997D01*
X252795Y220119D01*
D02*
G37*
G36*
X242795D02*
X241868Y219997D01*
X241004Y219639D01*
X240261Y219069D01*
X239692Y218327D01*
X239334Y217463D01*
X239212Y216535D01*
X239334Y215608D01*
X239692Y214744D01*
X240261Y214002D01*
X241004Y213432D01*
X241868Y213074D01*
X242795Y212952D01*
X243723Y213074D01*
X244587Y213432D01*
X245329Y214002D01*
X245899Y214744D01*
X246257Y215608D01*
X246379Y216535D01*
X246257Y217463D01*
X245899Y218327D01*
X245329Y219069D01*
X244587Y219639D01*
X243723Y219997D01*
X242795Y220119D01*
D02*
G37*
G36*
X232795D02*
X231868Y219997D01*
X231004Y219639D01*
X230261Y219069D01*
X229692Y218327D01*
X229334Y217463D01*
X229212Y216535D01*
X229334Y215608D01*
X229692Y214744D01*
X230261Y214002D01*
X231004Y213432D01*
X231868Y213074D01*
X232795Y212952D01*
X233723Y213074D01*
X234587Y213432D01*
X235329Y214002D01*
X235899Y214744D01*
X236257Y215608D01*
X236379Y216535D01*
X236257Y217463D01*
X235899Y218327D01*
X235329Y219069D01*
X234587Y219639D01*
X233723Y219997D01*
X232795Y220119D01*
D02*
G37*
G36*
X32835D02*
X31907Y219997D01*
X31043Y219639D01*
X30301Y219069D01*
X29731Y218327D01*
X29373Y217463D01*
X29251Y216535D01*
X29373Y215608D01*
X29731Y214744D01*
X30301Y214002D01*
X31043Y213432D01*
X31907Y213074D01*
X32835Y212952D01*
X33762Y213074D01*
X34626Y213432D01*
X35368Y214002D01*
X35938Y214744D01*
X36296Y215608D01*
X36418Y216535D01*
X36296Y217463D01*
X35938Y218327D01*
X35368Y219069D01*
X34626Y219639D01*
X33762Y219997D01*
X32835Y220119D01*
D02*
G37*
G36*
X22835D02*
X21907Y219997D01*
X21043Y219639D01*
X20301Y219069D01*
X19731Y218327D01*
X19373Y217463D01*
X19251Y216535D01*
X19373Y215608D01*
X19731Y214744D01*
X20301Y214002D01*
X21043Y213432D01*
X21907Y213074D01*
X22835Y212952D01*
X23762Y213074D01*
X24626Y213432D01*
X25368Y214002D01*
X25938Y214744D01*
X26296Y215608D01*
X26418Y216535D01*
X26296Y217463D01*
X25938Y218327D01*
X25368Y219069D01*
X24626Y219639D01*
X23762Y219997D01*
X22835Y220119D01*
D02*
G37*
G36*
X12835D02*
X11907Y219997D01*
X11043Y219639D01*
X10301Y219069D01*
X9731Y218327D01*
X9373Y217463D01*
X9251Y216535D01*
X9373Y215608D01*
X9731Y214744D01*
X10301Y214002D01*
X11043Y213432D01*
X11907Y213074D01*
X12835Y212952D01*
X13762Y213074D01*
X14626Y213432D01*
X15369Y214002D01*
X15938Y214744D01*
X16296Y215608D01*
X16418Y216535D01*
X16296Y217463D01*
X15938Y218327D01*
X15369Y219069D01*
X14626Y219639D01*
X13762Y219997D01*
X12835Y220119D01*
D02*
G37*
G36*
X183925Y204708D02*
Y201287D01*
X187346D01*
X187276Y201819D01*
X186878Y202781D01*
X186244Y203607D01*
X185419Y204240D01*
X184457Y204638D01*
X183925Y204708D01*
D02*
G37*
G36*
X182925D02*
X182393Y204638D01*
X181432Y204240D01*
X180606Y203607D01*
X179973Y202781D01*
X179574Y201819D01*
X179504Y201287D01*
X182925D01*
Y204708D01*
D02*
G37*
G36*
X263425Y204371D02*
X262498Y204249D01*
X261633Y203891D01*
X260891Y203321D01*
X260322Y202579D01*
X259964Y201715D01*
X259842Y200787D01*
X259964Y199860D01*
X260322Y198996D01*
X260891Y198254D01*
X261633Y197684D01*
X262498Y197326D01*
X263425Y197204D01*
X264353Y197326D01*
X265217Y197684D01*
X265959Y198254D01*
X266529Y198996D01*
X266886Y199860D01*
X267009Y200787D01*
X266886Y201715D01*
X266529Y202579D01*
X265959Y203321D01*
X265217Y203891D01*
X264353Y204249D01*
X263425Y204371D01*
D02*
G37*
G36*
X253425D02*
X252498Y204249D01*
X251634Y203891D01*
X250891Y203321D01*
X250322Y202579D01*
X249964Y201715D01*
X249842Y200787D01*
X249964Y199860D01*
X250322Y198996D01*
X250891Y198254D01*
X251634Y197684D01*
X252498Y197326D01*
X253425Y197204D01*
X254353Y197326D01*
X255217Y197684D01*
X255959Y198254D01*
X256529Y198996D01*
X256887Y199860D01*
X257009Y200787D01*
X256887Y201715D01*
X256529Y202579D01*
X255959Y203321D01*
X255217Y203891D01*
X254353Y204249D01*
X253425Y204371D01*
D02*
G37*
G36*
X243425D02*
X242498Y204249D01*
X241634Y203891D01*
X240891Y203321D01*
X240322Y202579D01*
X239964Y201715D01*
X239842Y200787D01*
X239964Y199860D01*
X240322Y198996D01*
X240891Y198254D01*
X241634Y197684D01*
X242498Y197326D01*
X243425Y197204D01*
X244353Y197326D01*
X245217Y197684D01*
X245959Y198254D01*
X246529Y198996D01*
X246886Y199860D01*
X247009Y200787D01*
X246886Y201715D01*
X246529Y202579D01*
X245959Y203321D01*
X245217Y203891D01*
X244353Y204249D01*
X243425Y204371D01*
D02*
G37*
G36*
X233425D02*
X232498Y204249D01*
X231633Y203891D01*
X230891Y203321D01*
X230322Y202579D01*
X229964Y201715D01*
X229842Y200787D01*
X229964Y199860D01*
X230322Y198996D01*
X230891Y198254D01*
X231633Y197684D01*
X232498Y197326D01*
X233425Y197204D01*
X234353Y197326D01*
X235217Y197684D01*
X235959Y198254D01*
X236529Y198996D01*
X236887Y199860D01*
X237009Y200787D01*
X236887Y201715D01*
X236529Y202579D01*
X235959Y203321D01*
X235217Y203891D01*
X234353Y204249D01*
X233425Y204371D01*
D02*
G37*
G36*
X223425D02*
X222498Y204249D01*
X221634Y203891D01*
X220891Y203321D01*
X220322Y202579D01*
X219964Y201715D01*
X219842Y200787D01*
X219964Y199860D01*
X220322Y198996D01*
X220891Y198254D01*
X221634Y197684D01*
X222498Y197326D01*
X223425Y197204D01*
X224353Y197326D01*
X225217Y197684D01*
X225959Y198254D01*
X226529Y198996D01*
X226887Y199860D01*
X227009Y200787D01*
X226887Y201715D01*
X226529Y202579D01*
X225959Y203321D01*
X225217Y203891D01*
X224353Y204249D01*
X223425Y204371D01*
D02*
G37*
G36*
X213425D02*
X212498Y204249D01*
X211633Y203891D01*
X210891Y203321D01*
X210322Y202579D01*
X209964Y201715D01*
X209842Y200787D01*
X209964Y199860D01*
X210322Y198996D01*
X210891Y198254D01*
X211633Y197684D01*
X212498Y197326D01*
X213425Y197204D01*
X214353Y197326D01*
X215217Y197684D01*
X215959Y198254D01*
X216529Y198996D01*
X216886Y199860D01*
X217009Y200787D01*
X216886Y201715D01*
X216529Y202579D01*
X215959Y203321D01*
X215217Y203891D01*
X214353Y204249D01*
X213425Y204371D01*
D02*
G37*
G36*
X203425D02*
X202498Y204249D01*
X201634Y203891D01*
X200891Y203321D01*
X200322Y202579D01*
X199964Y201715D01*
X199842Y200787D01*
X199964Y199860D01*
X200322Y198996D01*
X200891Y198254D01*
X201634Y197684D01*
X202498Y197326D01*
X203425Y197204D01*
X204353Y197326D01*
X205217Y197684D01*
X205959Y198254D01*
X206529Y198996D01*
X206887Y199860D01*
X207009Y200787D01*
X206887Y201715D01*
X206529Y202579D01*
X205959Y203321D01*
X205217Y203891D01*
X204353Y204249D01*
X203425Y204371D01*
D02*
G37*
G36*
X193425D02*
X192498Y204249D01*
X191633Y203891D01*
X190891Y203321D01*
X190322Y202579D01*
X189964Y201715D01*
X189842Y200787D01*
X189964Y199860D01*
X190322Y198996D01*
X190891Y198254D01*
X191633Y197684D01*
X192498Y197326D01*
X193425Y197204D01*
X194353Y197326D01*
X195217Y197684D01*
X195959Y198254D01*
X196529Y198996D01*
X196887Y199860D01*
X197009Y200787D01*
X196887Y201715D01*
X196529Y202579D01*
X195959Y203321D01*
X195217Y203891D01*
X194353Y204249D01*
X193425Y204371D01*
D02*
G37*
G36*
X187346Y200287D02*
X183925D01*
Y196866D01*
X184457Y196936D01*
X185419Y197335D01*
X186244Y197968D01*
X186878Y198794D01*
X187276Y199756D01*
X187346Y200287D01*
D02*
G37*
G36*
X182925D02*
X179504D01*
X179574Y199756D01*
X179973Y198794D01*
X180606Y197968D01*
X181432Y197335D01*
X182393Y196936D01*
X182925Y196866D01*
Y200287D01*
D02*
G37*
G36*
X77756Y201571D02*
X76983Y201469D01*
X76262Y201170D01*
X75643Y200695D01*
X75168Y200077D01*
X74870Y199356D01*
X74768Y198583D01*
X74870Y197809D01*
X75168Y197089D01*
X75643Y196470D01*
X76262Y195995D01*
X76983Y195697D01*
X77756Y195595D01*
X78529Y195697D01*
X79250Y195995D01*
X79869Y196470D01*
X80343Y197089D01*
X80642Y197809D01*
X80744Y198583D01*
X80642Y199356D01*
X80343Y200077D01*
X79869Y200695D01*
X79250Y201170D01*
X78529Y201469D01*
X77756Y201571D01*
D02*
G37*
G36*
X37902Y196378D02*
Y193413D01*
X40866D01*
X40811Y193827D01*
X40459Y194678D01*
X39898Y195410D01*
X39167Y195971D01*
X38315Y196323D01*
X37902Y196378D01*
D02*
G37*
G36*
X36902D02*
X36488Y196323D01*
X35636Y195971D01*
X34905Y195410D01*
X34344Y194678D01*
X33992Y193827D01*
X33937Y193413D01*
X36902D01*
Y196378D01*
D02*
G37*
G36*
X263925Y194708D02*
Y191287D01*
X267346D01*
X267276Y191819D01*
X266878Y192781D01*
X266244Y193606D01*
X265419Y194240D01*
X264457Y194638D01*
X263925Y194708D01*
D02*
G37*
G36*
X262925D02*
X262393Y194638D01*
X261432Y194240D01*
X260606Y193606D01*
X259973Y192781D01*
X259574Y191819D01*
X259504Y191287D01*
X262925D01*
Y194708D01*
D02*
G37*
G36*
X163886Y193425D02*
Y190461D01*
X166850D01*
X166796Y190874D01*
X166443Y191726D01*
X165882Y192457D01*
X165151Y193018D01*
X164299Y193370D01*
X163886Y193425D01*
D02*
G37*
G36*
X162886D02*
X162472Y193370D01*
X161621Y193018D01*
X160890Y192457D01*
X160329Y191726D01*
X159976Y190874D01*
X159922Y190461D01*
X162886D01*
Y193425D01*
D02*
G37*
G36*
X40866Y192413D02*
X37902D01*
Y189449D01*
X38315Y189504D01*
X39167Y189856D01*
X39898Y190417D01*
X40459Y191148D01*
X40811Y192000D01*
X40866Y192413D01*
D02*
G37*
G36*
X36902D02*
X33937D01*
X33992Y192000D01*
X34344Y191148D01*
X34905Y190417D01*
X35636Y189856D01*
X36488Y189504D01*
X36902Y189449D01*
Y192413D01*
D02*
G37*
G36*
X186978Y194340D02*
X179873D01*
Y187235D01*
X186978D01*
Y194340D01*
D02*
G37*
G36*
X253425Y194371D02*
X252498Y194249D01*
X251634Y193891D01*
X250891Y193321D01*
X250322Y192579D01*
X249964Y191715D01*
X249842Y190787D01*
X249964Y189860D01*
X250241Y189190D01*
X229496Y168444D01*
X223376D01*
X223168Y168944D01*
X241828Y187604D01*
X242498Y187326D01*
X243425Y187204D01*
X244353Y187326D01*
X245217Y187684D01*
X245959Y188253D01*
X246529Y188996D01*
X246886Y189860D01*
X247009Y190787D01*
X246886Y191715D01*
X246529Y192579D01*
X245959Y193321D01*
X245217Y193891D01*
X244353Y194249D01*
X243425Y194371D01*
X242498Y194249D01*
X241634Y193891D01*
X240891Y193321D01*
X240322Y192579D01*
X239964Y191715D01*
X239842Y190787D01*
X239964Y189860D01*
X240242Y189190D01*
X221465Y170413D01*
X215344D01*
X215137Y170913D01*
X231828Y187604D01*
X232498Y187326D01*
X233425Y187204D01*
X234353Y187326D01*
X235217Y187684D01*
X235959Y188253D01*
X236529Y188996D01*
X236887Y189860D01*
X237009Y190787D01*
X236887Y191715D01*
X236529Y192579D01*
X235959Y193321D01*
X235217Y193891D01*
X234353Y194249D01*
X233425Y194371D01*
X232498Y194249D01*
X231633Y193891D01*
X230891Y193321D01*
X230322Y192579D01*
X229964Y191715D01*
X229842Y190787D01*
X229964Y189860D01*
X230241Y189190D01*
X213583Y172531D01*
X166654D01*
X160242Y178943D01*
X159878Y179186D01*
X159449Y179271D01*
X159449Y179271D01*
X146592D01*
X146409Y179713D01*
X145912Y180361D01*
X145264Y180857D01*
X144510Y181170D01*
X143701Y181276D01*
X142892Y181170D01*
X142137Y180857D01*
X141490Y180361D01*
X140993Y179713D01*
X140681Y178959D01*
X140574Y178150D01*
X140681Y177340D01*
X140993Y176586D01*
X141490Y175939D01*
X142137Y175442D01*
X142892Y175129D01*
X143701Y175023D01*
X144510Y175129D01*
X145264Y175442D01*
X145912Y175939D01*
X146409Y176586D01*
X146592Y177028D01*
X147362D01*
X147531Y176528D01*
X147395Y176424D01*
X146898Y175776D01*
X146586Y175022D01*
X146479Y174213D01*
X146586Y173403D01*
X146898Y172649D01*
X147001Y172516D01*
X146624Y172185D01*
X144726Y174083D01*
X144362Y174326D01*
X143933Y174412D01*
X143933Y174412D01*
X137871D01*
X137688Y174854D01*
X137191Y175501D01*
X136543Y175998D01*
X135789Y176311D01*
X134980Y176417D01*
X134171Y176311D01*
X133416Y175998D01*
X132769Y175501D01*
X132272Y174854D01*
X131960Y174100D01*
X131853Y173290D01*
X131960Y172481D01*
X132272Y171727D01*
X132769Y171079D01*
X133416Y170582D01*
X134171Y170270D01*
X134980Y170164D01*
X135789Y170270D01*
X136543Y170582D01*
X137191Y171079D01*
X137688Y171727D01*
X137871Y172169D01*
X143469D01*
X146731Y168906D01*
X146540Y168444D01*
X142655D01*
X142472Y168886D01*
X141975Y169534D01*
X141327Y170031D01*
X140573Y170343D01*
X139764Y170450D01*
X138954Y170343D01*
X138200Y170031D01*
X137553Y169534D01*
X137056Y168886D01*
X136744Y168132D01*
X136637Y167323D01*
X136744Y166514D01*
X137056Y165760D01*
X137553Y165112D01*
X138200Y164615D01*
X138954Y164303D01*
X139764Y164196D01*
X140573Y164303D01*
X141327Y164615D01*
X141975Y165112D01*
X142472Y165760D01*
X142655Y166201D01*
X147173D01*
X162306Y151068D01*
Y144643D01*
X162306Y144643D01*
X162391Y144214D01*
X162635Y143850D01*
X164623Y141862D01*
X164623Y141862D01*
X164987Y141619D01*
X165416Y141533D01*
X168636D01*
X169041Y141303D01*
Y141303D01*
D01*
X169059Y141033D01*
X169037Y141030D01*
X168364Y140942D01*
X167500Y140584D01*
X166758Y140014D01*
X166188Y139272D01*
X165830Y138408D01*
X165708Y137480D01*
X165830Y136553D01*
X166188Y135689D01*
X166758Y134947D01*
X167500Y134377D01*
X168364Y134019D01*
X169291Y133897D01*
X170219Y134019D01*
X171083Y134377D01*
X171825Y134947D01*
X172395Y135689D01*
X172753Y136553D01*
X172875Y137480D01*
X172753Y138408D01*
X172395Y139272D01*
X171825Y140014D01*
X171083Y140584D01*
X170219Y140942D01*
X169545Y141030D01*
X169524Y141033D01*
X169542Y141303D01*
X169947Y141533D01*
X171841D01*
X175059Y138315D01*
Y110236D01*
X175059Y110236D01*
X175145Y109807D01*
X175388Y109443D01*
X179325Y105506D01*
X179325Y105506D01*
X179689Y105263D01*
X180118Y105178D01*
X215087D01*
X222361Y97904D01*
X222124Y97333D01*
X222009Y96457D01*
X222124Y95581D01*
X222462Y94764D01*
X223000Y94063D01*
X223701Y93525D01*
X224518Y93187D01*
X225394Y93072D01*
X226270Y93187D01*
X227086Y93525D01*
X227787Y94063D01*
X228325Y94764D01*
X228663Y95581D01*
X228779Y96457D01*
X228663Y97333D01*
X228325Y98149D01*
X227787Y98850D01*
X227086Y99388D01*
X226270Y99726D01*
X225394Y99842D01*
X224518Y99726D01*
X223947Y99490D01*
X216344Y107092D01*
X215980Y107335D01*
X215551Y107421D01*
X215551Y107421D01*
X180583D01*
X177303Y110701D01*
Y138779D01*
X177303Y138779D01*
X177217Y139209D01*
X176974Y139573D01*
X176974Y139573D01*
X173099Y143448D01*
X172735Y143691D01*
X172306Y143776D01*
X172306Y143776D01*
X170939D01*
X170840Y144276D01*
X171083Y144377D01*
X171825Y144947D01*
X172395Y145689D01*
X172753Y146553D01*
X172875Y147480D01*
X172753Y148408D01*
X172395Y149272D01*
X171825Y150014D01*
X171083Y150584D01*
X170219Y150942D01*
X170283Y151437D01*
X174732D01*
X178997Y147173D01*
Y116142D01*
X178997Y116142D01*
X179082Y115712D01*
X179325Y115349D01*
X185231Y109443D01*
X185231Y109443D01*
X185594Y109200D01*
X186024Y109115D01*
X219024D01*
X230235Y97904D01*
X229998Y97333D01*
X229883Y96457D01*
X229998Y95581D01*
X230336Y94764D01*
X230874Y94063D01*
X231575Y93525D01*
X232392Y93187D01*
X233268Y93072D01*
X234144Y93187D01*
X234960Y93525D01*
X235661Y94063D01*
X236199Y94764D01*
X236537Y95581D01*
X236653Y96457D01*
X236537Y97333D01*
X236199Y98149D01*
X235661Y98850D01*
X234960Y99388D01*
X234144Y99726D01*
X233268Y99842D01*
X232392Y99726D01*
X231821Y99490D01*
X220281Y111029D01*
X219917Y111272D01*
X219488Y111358D01*
X219488Y111358D01*
X186488D01*
X181240Y116606D01*
Y147638D01*
X181154Y148067D01*
X180911Y148431D01*
X180911Y148431D01*
X175990Y153352D01*
X175626Y153595D01*
X175197Y153681D01*
X175197Y153681D01*
X173242D01*
X172844Y153928D01*
X172844Y154181D01*
Y157369D01*
X176270Y160795D01*
X249378D01*
Y125732D01*
X249261Y125579D01*
X248948Y124825D01*
X248842Y124016D01*
X248948Y123206D01*
X249261Y122452D01*
X249758Y121805D01*
X250405Y121308D01*
X251159Y120995D01*
X251969Y120889D01*
X252778Y120995D01*
X253532Y121308D01*
X254179Y121805D01*
X254676Y122452D01*
X254989Y123206D01*
X255095Y124016D01*
X254989Y124825D01*
X254676Y125579D01*
X254559Y125732D01*
Y162313D01*
X257963Y165716D01*
X260095D01*
X260248Y165599D01*
X261002Y165287D01*
X261811Y165180D01*
X262620Y165287D01*
X263374Y165599D01*
X264022Y166096D01*
X264519Y166744D01*
X264831Y167498D01*
X264938Y168307D01*
X264831Y169116D01*
X264519Y169870D01*
X264022Y170518D01*
X263374Y171015D01*
X262620Y171327D01*
X261811Y171434D01*
X261002Y171327D01*
X260248Y171015D01*
X260095Y170898D01*
X256890D01*
X256219Y170809D01*
X255594Y170551D01*
X255058Y170139D01*
X250895Y165977D01*
X230826D01*
X230674Y166477D01*
X230754Y166530D01*
X251828Y187604D01*
X252498Y187326D01*
X253425Y187204D01*
X254353Y187326D01*
X255217Y187684D01*
X255959Y188253D01*
X256529Y188996D01*
X256887Y189860D01*
X257009Y190787D01*
X256887Y191715D01*
X256529Y192579D01*
X255959Y193321D01*
X255217Y193891D01*
X254353Y194249D01*
X253425Y194371D01*
D02*
G37*
G36*
X223425D02*
X222498Y194249D01*
X221634Y193891D01*
X220891Y193321D01*
X220322Y192579D01*
X219964Y191715D01*
X219842Y190787D01*
X219964Y189860D01*
X220241Y189190D01*
X208354Y177303D01*
X177103D01*
X176920Y177744D01*
X176424Y178392D01*
X175776Y178889D01*
X175022Y179201D01*
X174213Y179308D01*
X173403Y179201D01*
X172649Y178889D01*
X172002Y178392D01*
X171505Y177744D01*
X171192Y176990D01*
X171086Y176181D01*
X171192Y175372D01*
X171505Y174618D01*
X172002Y173970D01*
X172649Y173473D01*
X173403Y173161D01*
X174213Y173054D01*
X175022Y173161D01*
X175776Y173473D01*
X176424Y173970D01*
X176920Y174618D01*
X177103Y175059D01*
X208819D01*
X208819Y175059D01*
X209248Y175145D01*
X209612Y175388D01*
X221828Y187604D01*
X222498Y187326D01*
X223425Y187204D01*
X224353Y187326D01*
X225217Y187684D01*
X225959Y188253D01*
X226529Y188996D01*
X226887Y189860D01*
X227009Y190787D01*
X226887Y191715D01*
X226529Y192579D01*
X225959Y193321D01*
X225217Y193891D01*
X224353Y194249D01*
X223425Y194371D01*
D02*
G37*
G36*
X213425D02*
X212498Y194249D01*
X211633Y193891D01*
X210891Y193321D01*
X210322Y192579D01*
X209964Y191715D01*
X209842Y190787D01*
X209964Y189860D01*
X210242Y189190D01*
X204260Y183208D01*
X169291D01*
X169291Y183208D01*
X168862Y183123D01*
X168597Y182946D01*
X168132Y183138D01*
X167323Y183245D01*
X166514Y183138D01*
X165760Y182826D01*
X165112Y182329D01*
X164615Y181682D01*
X164303Y180927D01*
X164196Y180118D01*
X164303Y179309D01*
X164615Y178555D01*
X165112Y177907D01*
X165760Y177410D01*
X166514Y177098D01*
X167323Y176991D01*
X168132Y177098D01*
X168886Y177410D01*
X169534Y177907D01*
X170031Y178555D01*
X170343Y179309D01*
X170450Y180118D01*
X170404Y180465D01*
X170842Y180965D01*
X204724D01*
X204725Y180965D01*
X205154Y181050D01*
X205518Y181294D01*
X211828Y187604D01*
X212498Y187326D01*
X213425Y187204D01*
X214353Y187326D01*
X215217Y187684D01*
X215959Y188253D01*
X216529Y188996D01*
X216886Y189860D01*
X217009Y190787D01*
X216886Y191715D01*
X216529Y192579D01*
X215959Y193321D01*
X215217Y193891D01*
X214353Y194249D01*
X213425Y194371D01*
D02*
G37*
G36*
X203425D02*
X202498Y194249D01*
X201634Y193891D01*
X200891Y193321D01*
X200322Y192579D01*
X199964Y191715D01*
X199842Y190787D01*
X199964Y189860D01*
X200322Y188996D01*
X200891Y188253D01*
X201634Y187684D01*
X202498Y187326D01*
X203425Y187204D01*
X204353Y187326D01*
X205217Y187684D01*
X205959Y188253D01*
X206529Y188996D01*
X206887Y189860D01*
X207009Y190787D01*
X206887Y191715D01*
X206529Y192579D01*
X205959Y193321D01*
X205217Y193891D01*
X204353Y194249D01*
X203425Y194371D01*
D02*
G37*
G36*
X193425D02*
X192498Y194249D01*
X191633Y193891D01*
X190891Y193321D01*
X190322Y192579D01*
X189964Y191715D01*
X189842Y190787D01*
X189964Y189860D01*
X190322Y188996D01*
X190891Y188253D01*
X191633Y187684D01*
X192498Y187326D01*
X193425Y187204D01*
X194353Y187326D01*
X195217Y187684D01*
X195959Y188253D01*
X196529Y188996D01*
X196887Y189860D01*
X197009Y190787D01*
X196887Y191715D01*
X196529Y192579D01*
X195959Y193321D01*
X195217Y193891D01*
X194353Y194249D01*
X193425Y194371D01*
D02*
G37*
G36*
X267346Y190287D02*
X263925D01*
Y186866D01*
X264457Y186936D01*
X265419Y187335D01*
X266244Y187968D01*
X266878Y188794D01*
X267276Y189755D01*
X267346Y190287D01*
D02*
G37*
G36*
X262925D02*
X259504D01*
X259574Y189755D01*
X259973Y188794D01*
X260606Y187968D01*
X261432Y187335D01*
X262393Y186936D01*
X262925Y186866D01*
Y190287D01*
D02*
G37*
G36*
X166850Y189461D02*
X163886D01*
Y186496D01*
X164299Y186551D01*
X165151Y186903D01*
X165882Y187464D01*
X166443Y188196D01*
X166796Y189047D01*
X166850Y189461D01*
D02*
G37*
G36*
X162886D02*
X159922D01*
X159976Y189047D01*
X160329Y188196D01*
X160890Y187464D01*
X161621Y186903D01*
X162472Y186551D01*
X162886Y186496D01*
Y189461D01*
D02*
G37*
G36*
X98925Y184567D02*
Y181602D01*
X101890D01*
X101835Y182016D01*
X101482Y182868D01*
X100921Y183599D01*
X100190Y184160D01*
X99339Y184512D01*
X98925Y184567D01*
D02*
G37*
G36*
X97925D02*
X97512Y184512D01*
X96660Y184160D01*
X95929Y183599D01*
X95368Y182868D01*
X95015Y182016D01*
X94961Y181602D01*
X97925D01*
Y184567D01*
D02*
G37*
G36*
X56587D02*
X56173Y184512D01*
X55322Y184160D01*
X54590Y183599D01*
X54029Y182868D01*
X53677Y182016D01*
X53622Y181602D01*
X56587D01*
Y184567D01*
D02*
G37*
G36*
X101890Y180602D02*
X98925D01*
Y177638D01*
X99339Y177692D01*
X100190Y178045D01*
X100921Y178606D01*
X101482Y179337D01*
X101835Y180189D01*
X101890Y180602D01*
D02*
G37*
G36*
X97925D02*
X94961D01*
X95015Y180189D01*
X95368Y179337D01*
X95929Y178606D01*
X96660Y178045D01*
X97512Y177692D01*
X97925Y177638D01*
Y180602D01*
D02*
G37*
G36*
X56587D02*
X53622D01*
X53677Y180189D01*
X54029Y179337D01*
X54590Y178606D01*
X55322Y178045D01*
X56173Y177692D01*
X56587Y177638D01*
Y180602D01*
D02*
G37*
G36*
X77756Y182358D02*
X76983Y182256D01*
X76262Y181958D01*
X75643Y181483D01*
X75168Y180864D01*
X74870Y180143D01*
X74768Y179370D01*
X74870Y178597D01*
X75168Y177876D01*
X75643Y177257D01*
X76262Y176783D01*
X76983Y176484D01*
X77756Y176382D01*
X78529Y176484D01*
X79250Y176783D01*
X79869Y177257D01*
X80343Y177876D01*
X80642Y178597D01*
X80744Y179370D01*
X80642Y180143D01*
X80343Y180864D01*
X79869Y181483D01*
X79250Y181958D01*
X78529Y182256D01*
X77756Y182358D01*
D02*
G37*
G36*
X265764Y161748D02*
X262311D01*
Y158295D01*
X265764D01*
Y161748D01*
D02*
G37*
G36*
X261311D02*
X257858D01*
Y158295D01*
X261311D01*
Y161748D01*
D02*
G37*
G36*
X206693Y158492D02*
Y155527D01*
X209657D01*
X209603Y155941D01*
X209250Y156793D01*
X208689Y157524D01*
X207958Y158085D01*
X207107Y158438D01*
X206693Y158492D01*
D02*
G37*
G36*
X205693D02*
X205279Y158438D01*
X204428Y158085D01*
X203697Y157524D01*
X203136Y156793D01*
X202783Y155941D01*
X202729Y155527D01*
X205693D01*
Y158492D01*
D02*
G37*
G36*
X265764Y157295D02*
X262311D01*
Y153842D01*
X265764D01*
Y157295D01*
D02*
G37*
G36*
X261311D02*
X257858D01*
Y153842D01*
X261311D01*
Y157295D01*
D02*
G37*
G36*
X209657Y154527D02*
X206693D01*
Y151563D01*
X207107Y151618D01*
X207958Y151970D01*
X208689Y152531D01*
X209250Y153262D01*
X209603Y154114D01*
X209657Y154527D01*
D02*
G37*
G36*
X205693D02*
X202729D01*
X202783Y154114D01*
X203136Y153262D01*
X203697Y152531D01*
X204428Y151970D01*
X205279Y151618D01*
X205693Y151563D01*
Y154527D01*
D02*
G37*
G36*
X262311Y151716D02*
Y148295D01*
X265732D01*
X265662Y148827D01*
X265264Y149789D01*
X264630Y150614D01*
X263804Y151248D01*
X262843Y151646D01*
X262311Y151716D01*
D02*
G37*
G36*
X261311D02*
X260779Y151646D01*
X259818Y151248D01*
X258992Y150614D01*
X258358Y149789D01*
X257960Y148827D01*
X257890Y148295D01*
X261311D01*
Y151716D01*
D02*
G37*
G36*
X206693Y150618D02*
Y147653D01*
X209657D01*
X209603Y148067D01*
X209250Y148919D01*
X208689Y149650D01*
X207958Y150211D01*
X207107Y150563D01*
X206693Y150618D01*
D02*
G37*
G36*
X205693D02*
X205279Y150563D01*
X204428Y150211D01*
X203697Y149650D01*
X203136Y148919D01*
X202783Y148067D01*
X202729Y147653D01*
X205693D01*
Y150618D01*
D02*
G37*
G36*
X265732Y147295D02*
X262311D01*
Y143874D01*
X262843Y143944D01*
X263804Y144343D01*
X264630Y144976D01*
X265264Y145802D01*
X265662Y146763D01*
X265732Y147295D01*
D02*
G37*
G36*
X261311D02*
X257890D01*
X257960Y146763D01*
X258358Y145802D01*
X258992Y144976D01*
X259818Y144343D01*
X260779Y143944D01*
X261311Y143874D01*
Y147295D01*
D02*
G37*
G36*
X27559Y164687D02*
X25920Y164558D01*
X24322Y164175D01*
X22804Y163546D01*
X21402Y162687D01*
X20152Y161619D01*
X19085Y160370D01*
X18226Y158968D01*
X17597Y157449D01*
X17213Y155851D01*
X17084Y154213D01*
X17213Y152574D01*
X17597Y150976D01*
X18226Y149457D01*
X19085Y148056D01*
X20152Y146806D01*
X21402Y145738D01*
X22804Y144879D01*
X24322Y144251D01*
X25920Y143867D01*
X27559Y143738D01*
X29198Y143867D01*
X30796Y144251D01*
X32315Y144879D01*
X33716Y145738D01*
X34966Y146806D01*
X36033Y148056D01*
X36892Y149457D01*
X37521Y150976D01*
X37905Y152574D01*
X38034Y154213D01*
X37905Y155851D01*
X37521Y157449D01*
X36892Y158968D01*
X36033Y160370D01*
X34966Y161619D01*
X33716Y162687D01*
X32315Y163546D01*
X30796Y164175D01*
X29198Y164558D01*
X27559Y164687D01*
D02*
G37*
G36*
X209657Y146653D02*
X206693D01*
Y143689D01*
X207107Y143744D01*
X207958Y144096D01*
X208689Y144657D01*
X209250Y145388D01*
X209603Y146240D01*
X209657Y146653D01*
D02*
G37*
G36*
X205693D02*
X202729D01*
X202783Y146240D01*
X203136Y145388D01*
X203697Y144657D01*
X204428Y144096D01*
X205279Y143744D01*
X205693Y143689D01*
Y146653D01*
D02*
G37*
G36*
X206693Y142744D02*
Y139779D01*
X209657D01*
X209603Y140193D01*
X209250Y141045D01*
X208689Y141776D01*
X207958Y142337D01*
X207107Y142689D01*
X206693Y142744D01*
D02*
G37*
G36*
X205693D02*
X205279Y142689D01*
X204428Y142337D01*
X203697Y141776D01*
X203136Y141045D01*
X202783Y140193D01*
X202729Y139779D01*
X205693D01*
Y142744D01*
D02*
G37*
G36*
X209657Y138779D02*
X206693D01*
Y135815D01*
X207107Y135870D01*
X207958Y136222D01*
X208689Y136783D01*
X209250Y137514D01*
X209603Y138366D01*
X209657Y138779D01*
D02*
G37*
G36*
X205693D02*
X202729D01*
X202783Y138366D01*
X203136Y137514D01*
X203697Y136783D01*
X204428Y136222D01*
X205279Y135870D01*
X205693Y135815D01*
Y138779D01*
D02*
G37*
G36*
X261811Y141379D02*
X260884Y141257D01*
X260019Y140899D01*
X259277Y140329D01*
X258708Y139587D01*
X258350Y138723D01*
X258228Y137795D01*
X258350Y136868D01*
X258708Y136004D01*
X259277Y135261D01*
X260019Y134692D01*
X260884Y134334D01*
X261811Y134212D01*
X262738Y134334D01*
X263603Y134692D01*
X264345Y135261D01*
X264914Y136004D01*
X265272Y136868D01*
X265394Y137795D01*
X265272Y138723D01*
X264914Y139587D01*
X264345Y140329D01*
X263603Y140899D01*
X262738Y141257D01*
X261811Y141379D01*
D02*
G37*
G36*
X206693Y134870D02*
Y131905D01*
X209657D01*
X209603Y132319D01*
X209250Y133171D01*
X208689Y133902D01*
X207958Y134463D01*
X207107Y134815D01*
X206693Y134870D01*
D02*
G37*
G36*
X205693D02*
X205279Y134815D01*
X204428Y134463D01*
X203697Y133902D01*
X203136Y133171D01*
X202783Y132319D01*
X202729Y131905D01*
X205693D01*
Y134870D01*
D02*
G37*
G36*
X136811Y153717D02*
X136002Y153611D01*
X135248Y153298D01*
X134600Y152802D01*
X134103Y152154D01*
X133791Y151400D01*
X133684Y150591D01*
X133791Y149781D01*
X134103Y149027D01*
X134600Y148380D01*
X135248Y147883D01*
X135689Y147700D01*
Y136749D01*
X135248Y136566D01*
X134600Y136069D01*
X134103Y135422D01*
X133791Y134668D01*
X133684Y133858D01*
X133791Y133049D01*
X134103Y132295D01*
X134600Y131647D01*
X135248Y131150D01*
X136002Y130838D01*
X136811Y130731D01*
X137620Y130838D01*
X138374Y131150D01*
X139022Y131647D01*
X139519Y132295D01*
X139831Y133049D01*
X139938Y133858D01*
X139831Y134668D01*
X139519Y135422D01*
X139022Y136069D01*
X138374Y136566D01*
X137933Y136749D01*
Y147700D01*
X138374Y147883D01*
X139022Y148380D01*
X139519Y149027D01*
X139831Y149781D01*
X139938Y150591D01*
X139831Y151400D01*
X139519Y152154D01*
X139022Y152802D01*
X138374Y153298D01*
X137620Y153611D01*
X136811Y153717D01*
D02*
G37*
G36*
X98425Y173402D02*
X97616Y173296D01*
X96862Y172983D01*
X96214Y172486D01*
X95717Y171839D01*
X95405Y171085D01*
X95298Y170276D01*
X95405Y169466D01*
X95717Y168712D01*
X96214Y168065D01*
X96862Y167568D01*
X97304Y167385D01*
Y149606D01*
X97304Y149606D01*
X97389Y149177D01*
X97632Y148813D01*
X111336Y135109D01*
X111153Y134668D01*
X111047Y133858D01*
X111153Y133049D01*
X111465Y132295D01*
X111962Y131647D01*
X112610Y131150D01*
X113364Y130838D01*
X114173Y130731D01*
X114982Y130838D01*
X115737Y131150D01*
X116384Y131647D01*
X116881Y132295D01*
X117193Y133049D01*
X117300Y133858D01*
X117193Y134668D01*
X116881Y135422D01*
X116384Y136069D01*
X115737Y136566D01*
X114982Y136879D01*
X114173Y136985D01*
X113364Y136879D01*
X112922Y136696D01*
X99547Y150071D01*
Y154974D01*
X100047Y155033D01*
X100274Y154086D01*
X100903Y152567D01*
X101762Y151166D01*
X102829Y149916D01*
X104079Y148848D01*
X105481Y147990D01*
X106999Y147361D01*
X108598Y146977D01*
X110236Y146848D01*
X111875Y146977D01*
X113473Y147361D01*
X114992Y147990D01*
X116393Y148848D01*
X117643Y149916D01*
X118710Y151166D01*
X119569Y152567D01*
X120198Y154086D01*
X120536Y155490D01*
X121060Y155531D01*
X121308Y154932D01*
X121804Y154285D01*
X122452Y153788D01*
X122894Y153605D01*
Y136749D01*
X122452Y136566D01*
X121805Y136069D01*
X121308Y135422D01*
X120995Y134668D01*
X120889Y133858D01*
X120995Y133049D01*
X121308Y132295D01*
X121805Y131647D01*
X122452Y131150D01*
X123206Y130838D01*
X124016Y130731D01*
X124825Y130838D01*
X125579Y131150D01*
X126227Y131647D01*
X126690Y132251D01*
X126969Y132284D01*
X127247Y132251D01*
X127710Y131647D01*
X128358Y131150D01*
X129112Y130838D01*
X129921Y130731D01*
X130730Y130838D01*
X131485Y131150D01*
X132132Y131647D01*
X132629Y132295D01*
X132941Y133049D01*
X133048Y133858D01*
X132941Y134668D01*
X132629Y135422D01*
X132132Y136069D01*
X131485Y136566D01*
X131043Y136749D01*
Y148684D01*
X131485Y148867D01*
X132132Y149364D01*
X132629Y150011D01*
X132941Y150766D01*
X133048Y151575D01*
X132941Y152384D01*
X132629Y153138D01*
X132132Y153786D01*
X131485Y154283D01*
X130730Y154595D01*
X129921Y154701D01*
X129112Y154595D01*
X128358Y154283D01*
X127710Y153786D01*
X127213Y153138D01*
X126901Y152384D01*
X126795Y151575D01*
X126901Y150766D01*
X127213Y150011D01*
X127710Y149364D01*
X128358Y148867D01*
X128800Y148684D01*
Y136749D01*
X128358Y136566D01*
X127710Y136069D01*
X127247Y135465D01*
X126969Y135433D01*
X126690Y135465D01*
X126227Y136069D01*
X125579Y136566D01*
X125137Y136749D01*
Y153605D01*
X125579Y153788D01*
X126226Y154285D01*
X126723Y154932D01*
X127036Y155686D01*
X127142Y156496D01*
X127036Y157305D01*
X126723Y158059D01*
X126226Y158707D01*
X125579Y159204D01*
X124825Y159516D01*
X124015Y159623D01*
X123206Y159516D01*
X122452Y159204D01*
X121804Y158707D01*
X121308Y158059D01*
X121179Y157749D01*
X120671Y157829D01*
X120582Y158961D01*
X120198Y160560D01*
X119569Y162078D01*
X118710Y163480D01*
X117643Y164730D01*
X116393Y165797D01*
X114992Y166656D01*
X113473Y167285D01*
X111875Y167669D01*
X110236Y167798D01*
X108598Y167669D01*
X106999Y167285D01*
X105481Y166656D01*
X104079Y165797D01*
X102829Y164730D01*
X101762Y163480D01*
X100903Y162078D01*
X100274Y160560D01*
X100047Y159613D01*
X99547Y159672D01*
Y167385D01*
X99989Y167568D01*
X100636Y168065D01*
X101133Y168712D01*
X101445Y169466D01*
X101552Y170276D01*
X101445Y171085D01*
X101133Y171839D01*
X100636Y172486D01*
X99989Y172983D01*
X99234Y173296D01*
X98425Y173402D01*
D02*
G37*
G36*
X209657Y130905D02*
X206693D01*
Y127941D01*
X207107Y127996D01*
X207958Y128348D01*
X208689Y128909D01*
X209250Y129640D01*
X209603Y130492D01*
X209657Y130905D01*
D02*
G37*
G36*
X205693D02*
X202729D01*
X202783Y130492D01*
X203136Y129640D01*
X203697Y128909D01*
X204428Y128348D01*
X205279Y127996D01*
X205693Y127941D01*
Y130905D01*
D02*
G37*
G36*
X261811Y131379D02*
X260884Y131257D01*
X260019Y130899D01*
X259277Y130329D01*
X258708Y129587D01*
X258350Y128723D01*
X258228Y127795D01*
X258350Y126868D01*
X258708Y126004D01*
X259277Y125261D01*
X260019Y124692D01*
X260884Y124334D01*
X261811Y124212D01*
X262738Y124334D01*
X263603Y124692D01*
X264345Y125261D01*
X264914Y126004D01*
X265272Y126868D01*
X265394Y127795D01*
X265272Y128723D01*
X264914Y129587D01*
X264345Y130329D01*
X263603Y130899D01*
X262738Y131257D01*
X261811Y131379D01*
D02*
G37*
G36*
X169291Y131064D02*
X168364Y130942D01*
X167500Y130584D01*
X166758Y130014D01*
X166188Y129272D01*
X165830Y128408D01*
X165708Y127480D01*
X165830Y126553D01*
X166188Y125689D01*
X166758Y124946D01*
X167500Y124377D01*
X168364Y124019D01*
X169291Y123897D01*
X170219Y124019D01*
X171083Y124377D01*
X171825Y124946D01*
X172395Y125689D01*
X172753Y126553D01*
X172875Y127480D01*
X172753Y128408D01*
X172395Y129272D01*
X171825Y130014D01*
X171083Y130584D01*
X170219Y130942D01*
X169291Y131064D01*
D02*
G37*
G36*
X169791Y121401D02*
Y117980D01*
X173212D01*
X173142Y118512D01*
X172744Y119474D01*
X172110Y120299D01*
X171285Y120933D01*
X170323Y121331D01*
X169791Y121401D01*
D02*
G37*
G36*
X168791D02*
X168260Y121331D01*
X167298Y120933D01*
X166472Y120299D01*
X165839Y119474D01*
X165440Y118512D01*
X165370Y117980D01*
X168791D01*
Y121401D01*
D02*
G37*
G36*
X173212Y116980D02*
X169791D01*
Y113559D01*
X170323Y113629D01*
X171285Y114028D01*
X172110Y114661D01*
X172744Y115487D01*
X173142Y116448D01*
X173212Y116980D01*
D02*
G37*
G36*
X168791D02*
X165370D01*
X165440Y116448D01*
X165839Y115487D01*
X166472Y114661D01*
X167298Y114028D01*
X168260Y113629D01*
X168791Y113559D01*
Y116980D01*
D02*
G37*
G36*
X76772Y119410D02*
X75844Y119288D01*
X74980Y118930D01*
X74238Y118361D01*
X73668Y117619D01*
X73310Y116754D01*
X73188Y115827D01*
X73310Y114899D01*
X73668Y114035D01*
X74238Y113293D01*
X74980Y112724D01*
X75844Y112365D01*
X76772Y112243D01*
X77699Y112365D01*
X78563Y112724D01*
X79305Y113293D01*
X79875Y114035D01*
X80233Y114899D01*
X80355Y115827D01*
X80233Y116754D01*
X79875Y117619D01*
X79305Y118361D01*
X78563Y118930D01*
X77699Y119288D01*
X76772Y119410D01*
D02*
G37*
G36*
X110236Y128428D02*
X108598Y128299D01*
X106999Y127915D01*
X105481Y127286D01*
X104079Y126427D01*
X102829Y125360D01*
X101762Y124110D01*
X100903Y122708D01*
X100274Y121190D01*
X99890Y119591D01*
X99761Y117953D01*
X99890Y116314D01*
X100274Y114716D01*
X100903Y113197D01*
X101762Y111796D01*
X102829Y110546D01*
X104079Y109478D01*
X105481Y108620D01*
X106999Y107991D01*
X108598Y107607D01*
X110236Y107478D01*
X111875Y107607D01*
X113473Y107991D01*
X114992Y108620D01*
X116393Y109478D01*
X117643Y110546D01*
X118710Y111796D01*
X119569Y113197D01*
X120198Y114716D01*
X120582Y116314D01*
X120711Y117953D01*
X120582Y119591D01*
X120198Y121190D01*
X119569Y122708D01*
X118710Y124110D01*
X117643Y125360D01*
X116393Y126427D01*
X114992Y127286D01*
X113473Y127915D01*
X111875Y128299D01*
X110236Y128428D01*
D02*
G37*
G36*
X77272Y109748D02*
Y106327D01*
X80693D01*
X80623Y106859D01*
X80224Y107820D01*
X79591Y108646D01*
X78765Y109280D01*
X77803Y109678D01*
X77272Y109748D01*
D02*
G37*
G36*
X76272Y109748D02*
X75740Y109678D01*
X74778Y109280D01*
X73953Y108646D01*
X73319Y107820D01*
X72921Y106859D01*
X72851Y106327D01*
X76272D01*
Y109748D01*
D02*
G37*
G36*
Y105327D02*
X72851D01*
X72921Y104795D01*
X73319Y103833D01*
X73953Y103008D01*
X74778Y102374D01*
X75740Y101976D01*
X76272Y101906D01*
Y105327D01*
D02*
G37*
G36*
X80693D02*
X77272D01*
Y101906D01*
X77803Y101976D01*
X78765Y102374D01*
X79591Y103008D01*
X80224Y103833D01*
X80623Y104795D01*
X80693Y105327D01*
D02*
G37*
G36*
X263295Y102874D02*
Y99910D01*
X266260D01*
X266205Y100323D01*
X265852Y101174D01*
X265292Y101906D01*
X264560Y102467D01*
X263709Y102819D01*
X263295Y102874D01*
D02*
G37*
G36*
X262295D02*
X261882Y102819D01*
X261030Y102467D01*
X260299Y101906D01*
X259738Y101174D01*
X259385Y100323D01*
X259331Y99910D01*
X262295D01*
Y102874D01*
D02*
G37*
G36*
X266260Y98909D02*
X263295D01*
Y95945D01*
X263709Y95999D01*
X264560Y96352D01*
X265292Y96913D01*
X265852Y97644D01*
X266205Y98496D01*
X266260Y98909D01*
D02*
G37*
G36*
X262295D02*
X259331D01*
X259385Y98496D01*
X259738Y97644D01*
X260299Y96913D01*
X261030Y96352D01*
X261882Y95999D01*
X262295Y95945D01*
Y98909D01*
D02*
G37*
G36*
X241142Y99842D02*
X240266Y99726D01*
X239449Y99388D01*
X238748Y98850D01*
X238210Y98149D01*
X237872Y97333D01*
X237757Y96457D01*
X237872Y95581D01*
X238210Y94764D01*
X238748Y94063D01*
X239449Y93525D01*
X240266Y93187D01*
X241142Y93072D01*
X242018Y93187D01*
X242834Y93525D01*
X243535Y94063D01*
X244073Y94764D01*
X244411Y95581D01*
X244527Y96457D01*
X244411Y97333D01*
X244073Y98149D01*
X243535Y98850D01*
X242834Y99388D01*
X242018Y99726D01*
X241142Y99842D01*
D02*
G37*
G36*
X217520D02*
X216644Y99726D01*
X215827Y99388D01*
X215126Y98850D01*
X214588Y98149D01*
X214250Y97333D01*
X214135Y96457D01*
X214250Y95581D01*
X214588Y94764D01*
X215126Y94063D01*
X215827Y93525D01*
X216644Y93187D01*
X217520Y93072D01*
X218396Y93187D01*
X219212Y93525D01*
X219913Y94063D01*
X220451Y94764D01*
X220789Y95581D01*
X220904Y96457D01*
X220789Y97333D01*
X220451Y98149D01*
X219913Y98850D01*
X219212Y99388D01*
X218396Y99726D01*
X217520Y99842D01*
D02*
G37*
G36*
X171260Y106473D02*
X170451Y106367D01*
X169696Y106054D01*
X169049Y105557D01*
X168552Y104910D01*
X168240Y104156D01*
X168133Y103347D01*
X168240Y102537D01*
X168552Y101783D01*
X169049Y101136D01*
X169658Y100668D01*
X169663Y100515D01*
X169566Y100152D01*
X169295Y100116D01*
X168381Y99738D01*
X167597Y99135D01*
X166995Y98351D01*
X166616Y97437D01*
X166553Y96957D01*
X170276D01*
X173998D01*
X173935Y97437D01*
X173556Y98351D01*
X172954Y99135D01*
X172170Y99738D01*
X171991Y99812D01*
X172058Y100325D01*
X172069Y100326D01*
X172823Y100639D01*
X173471Y101136D01*
X173968Y101783D01*
X174151Y102225D01*
X202291D01*
X206613Y97904D01*
X206376Y97333D01*
X206261Y96457D01*
X206376Y95581D01*
X206714Y94764D01*
X207252Y94063D01*
X207953Y93525D01*
X208770Y93187D01*
X209646Y93072D01*
X210522Y93187D01*
X211338Y93525D01*
X212039Y94063D01*
X212577Y94764D01*
X212915Y95581D01*
X213031Y96457D01*
X212915Y97333D01*
X212577Y98149D01*
X212039Y98850D01*
X211338Y99388D01*
X210522Y99726D01*
X209646Y99842D01*
X208770Y99726D01*
X208199Y99490D01*
X203549Y104139D01*
X203185Y104383D01*
X202756Y104468D01*
X202756Y104468D01*
X174151D01*
X173968Y104910D01*
X173471Y105557D01*
X172823Y106054D01*
X172069Y106367D01*
X171260Y106473D01*
D02*
G37*
G36*
X201772Y99842D02*
X200896Y99726D01*
X200079Y99388D01*
X199378Y98850D01*
X198840Y98149D01*
X198502Y97333D01*
X198387Y96457D01*
X198502Y95581D01*
X198840Y94764D01*
X199378Y94063D01*
X200079Y93525D01*
X200896Y93187D01*
X201772Y93072D01*
X202648Y93187D01*
X203464Y93525D01*
X204165Y94063D01*
X204703Y94764D01*
X205041Y95581D01*
X205156Y96457D01*
X205041Y97333D01*
X204703Y98149D01*
X204165Y98850D01*
X203464Y99388D01*
X202648Y99726D01*
X201772Y99842D01*
D02*
G37*
G36*
X193898D02*
X193022Y99726D01*
X192205Y99388D01*
X191504Y98850D01*
X190966Y98149D01*
X190628Y97333D01*
X190513Y96457D01*
X190628Y95581D01*
X190966Y94764D01*
X191504Y94063D01*
X192205Y93525D01*
X193022Y93187D01*
X193898Y93072D01*
X194774Y93187D01*
X195590Y93525D01*
X196291Y94063D01*
X196829Y94764D01*
X197167Y95581D01*
X197283Y96457D01*
X197167Y97333D01*
X196829Y98149D01*
X196291Y98850D01*
X195590Y99388D01*
X194774Y99726D01*
X193898Y99842D01*
D02*
G37*
G36*
X186024D02*
X185148Y99726D01*
X184331Y99388D01*
X183630Y98850D01*
X183092Y98149D01*
X182754Y97333D01*
X182639Y96457D01*
X182754Y95581D01*
X183092Y94764D01*
X183630Y94063D01*
X184331Y93525D01*
X185148Y93187D01*
X186024Y93072D01*
X186900Y93187D01*
X187716Y93525D01*
X188417Y94063D01*
X188955Y94764D01*
X189293Y95581D01*
X189409Y96457D01*
X189293Y97333D01*
X188955Y98149D01*
X188417Y98850D01*
X187716Y99388D01*
X186900Y99726D01*
X186024Y99842D01*
D02*
G37*
G36*
X178150D02*
X177273Y99726D01*
X176457Y99388D01*
X175756Y98850D01*
X175218Y98149D01*
X174880Y97333D01*
X174765Y96457D01*
X174880Y95581D01*
X175218Y94764D01*
X175756Y94063D01*
X176457Y93525D01*
X177273Y93187D01*
X178150Y93072D01*
X179026Y93187D01*
X179842Y93525D01*
X180543Y94063D01*
X181081Y94764D01*
X181419Y95581D01*
X181535Y96457D01*
X181419Y97333D01*
X181081Y98149D01*
X180543Y98850D01*
X179842Y99388D01*
X179026Y99726D01*
X178150Y99842D01*
D02*
G37*
G36*
X137311Y95984D02*
Y93020D01*
X140275D01*
X140221Y93433D01*
X139868Y94285D01*
X139307Y95016D01*
X138576Y95577D01*
X137725Y95930D01*
X137311Y95984D01*
D02*
G37*
G36*
X136311D02*
X135897Y95930D01*
X135046Y95577D01*
X134315Y95016D01*
X133754Y94285D01*
X133401Y93433D01*
X133347Y93020D01*
X136311D01*
Y95984D01*
D02*
G37*
G36*
X173998Y95957D02*
X170776D01*
Y92734D01*
X171256Y92797D01*
X172170Y93176D01*
X172954Y93778D01*
X173556Y94563D01*
X173935Y95476D01*
X173998Y95957D01*
D02*
G37*
G36*
X169776D02*
X166553D01*
X166616Y95476D01*
X166995Y94563D01*
X167597Y93778D01*
X168381Y93176D01*
X169295Y92797D01*
X169776Y92734D01*
Y95957D01*
D02*
G37*
G36*
X140275Y92020D02*
X137311D01*
Y89055D01*
X137725Y89110D01*
X138576Y89463D01*
X139307Y90023D01*
X139868Y90755D01*
X140221Y91606D01*
X140275Y92020D01*
D02*
G37*
G36*
X136311D02*
X133347D01*
X133401Y91606D01*
X133754Y90755D01*
X134315Y90023D01*
X135046Y89463D01*
X135897Y89110D01*
X136311Y89055D01*
Y92020D01*
D02*
G37*
G36*
X27559Y107601D02*
X25920Y107472D01*
X24322Y107088D01*
X22804Y106459D01*
X21402Y105600D01*
X20152Y104533D01*
X19085Y103283D01*
X18226Y101881D01*
X17597Y100363D01*
X17213Y98765D01*
X17084Y97126D01*
X17213Y95487D01*
X17597Y93889D01*
X18226Y92370D01*
X19085Y90969D01*
X20152Y89719D01*
X21402Y88652D01*
X22804Y87793D01*
X24322Y87164D01*
X25920Y86780D01*
X27559Y86651D01*
X29198Y86780D01*
X30796Y87164D01*
X32315Y87793D01*
X33716Y88652D01*
X34966Y89719D01*
X36033Y90969D01*
X36892Y92370D01*
X37521Y93889D01*
X37905Y95487D01*
X38034Y97126D01*
X37905Y98765D01*
X37521Y100363D01*
X36892Y101881D01*
X36033Y103283D01*
X34966Y104533D01*
X33716Y105600D01*
X32315Y106459D01*
X30796Y107088D01*
X29198Y107472D01*
X27559Y107601D01*
D02*
G37*
G36*
X236221Y107457D02*
X235411Y107351D01*
X234657Y107039D01*
X234010Y106542D01*
X233513Y105894D01*
X233200Y105140D01*
X233094Y104331D01*
X233200Y103522D01*
X233513Y102767D01*
X234010Y102120D01*
X234657Y101623D01*
X235411Y101311D01*
X236221Y101204D01*
X237030Y101311D01*
X237784Y101623D01*
X238431Y102120D01*
X238928Y102767D01*
X239111Y103209D01*
X242646D01*
X247894Y97961D01*
Y92458D01*
X247452Y92275D01*
X246805Y91778D01*
X246308Y91130D01*
X245995Y90376D01*
X245889Y89567D01*
X245995Y88758D01*
X246308Y88004D01*
X246805Y87356D01*
X247452Y86859D01*
X248206Y86547D01*
X249016Y86440D01*
X249825Y86547D01*
X250579Y86859D01*
X251227Y87356D01*
X251724Y88004D01*
X252036Y88758D01*
X252143Y89567D01*
X252036Y90376D01*
X251724Y91130D01*
X251227Y91778D01*
X250579Y92275D01*
X250137Y92458D01*
Y98425D01*
X250137Y98425D01*
X250052Y98854D01*
X249809Y99218D01*
X249809Y99218D01*
X243903Y105124D01*
X243539Y105367D01*
X243110Y105452D01*
X243110Y105452D01*
X239111D01*
X238928Y105894D01*
X238431Y106542D01*
X237784Y107039D01*
X237030Y107351D01*
X236221Y107457D01*
D02*
G37*
G36*
X138295Y83189D02*
Y80224D01*
X141260D01*
X141205Y80638D01*
X140852Y81489D01*
X140292Y82221D01*
X139560Y82782D01*
X138709Y83134D01*
X138295Y83189D01*
D02*
G37*
G36*
X137295D02*
X136882Y83134D01*
X136030Y82782D01*
X135299Y82221D01*
X134738Y81489D01*
X134385Y80638D01*
X134331Y80224D01*
X137295D01*
Y83189D01*
D02*
G37*
G36*
X80324Y99379D02*
X73219D01*
Y92274D01*
X75165D01*
Y88898D01*
X75253Y88227D01*
X75512Y87602D01*
X75924Y87066D01*
X92904Y70086D01*
Y66644D01*
X100009D01*
Y70086D01*
X101152Y71228D01*
X141985D01*
X142137Y71111D01*
X142892Y70799D01*
X143701Y70692D01*
X144510Y70799D01*
X145264Y71111D01*
X145912Y71608D01*
X146409Y72255D01*
X146721Y73010D01*
X146827Y73819D01*
X146721Y74628D01*
X146409Y75382D01*
X145912Y76030D01*
X145264Y76527D01*
X144510Y76839D01*
X143701Y76946D01*
X142892Y76839D01*
X142137Y76527D01*
X141985Y76410D01*
X140046D01*
X139876Y76910D01*
X140292Y77228D01*
X140852Y77959D01*
X141205Y78811D01*
X141260Y79224D01*
X134331D01*
X134385Y78811D01*
X134738Y77959D01*
X135299Y77228D01*
X135714Y76910D01*
X135545Y76410D01*
X100079D01*
X99408Y76321D01*
X98783Y76063D01*
X98247Y75651D01*
X96457Y73861D01*
X80347Y89971D01*
Y94842D01*
X80324Y95011D01*
Y99379D01*
D02*
G37*
G36*
X96457Y63780D02*
X95529Y63658D01*
X94665Y63300D01*
X93923Y62731D01*
X93353Y61989D01*
X92995Y61124D01*
X92873Y60197D01*
X92995Y59269D01*
X93353Y58405D01*
X93923Y57663D01*
X94665Y57094D01*
X95529Y56735D01*
X96457Y56613D01*
X97384Y56735D01*
X98248Y57094D01*
X98990Y57663D01*
X99560Y58405D01*
X99918Y59269D01*
X100040Y60197D01*
X99918Y61124D01*
X99560Y61989D01*
X98990Y62731D01*
X98248Y63300D01*
X97384Y63658D01*
X96457Y63780D01*
D02*
G37*
G36*
X137311Y58583D02*
Y55618D01*
X140275D01*
X140221Y56032D01*
X139868Y56883D01*
X139307Y57614D01*
X138576Y58175D01*
X137725Y58528D01*
X137311Y58583D01*
D02*
G37*
G36*
X136311D02*
X135897Y58528D01*
X135046Y58175D01*
X134315Y57614D01*
X133754Y56883D01*
X133401Y56032D01*
X133347Y55618D01*
X136311D01*
Y58583D01*
D02*
G37*
G36*
X140275Y54618D02*
X137311D01*
Y51654D01*
X137725Y51708D01*
X138576Y52061D01*
X139307Y52622D01*
X139868Y53353D01*
X140221Y54204D01*
X140275Y54618D01*
D02*
G37*
G36*
X136311D02*
X133347D01*
X133401Y54204D01*
X133754Y53353D01*
X134315Y52622D01*
X135046Y52061D01*
X135897Y51708D01*
X136311Y51654D01*
Y54618D01*
D02*
G37*
G36*
X96457Y53780D02*
X95529Y53658D01*
X94665Y53300D01*
X93923Y52731D01*
X93353Y51989D01*
X92995Y51124D01*
X92873Y50197D01*
X92995Y49269D01*
X93353Y48405D01*
X93923Y47663D01*
X94665Y47093D01*
X95529Y46736D01*
X96457Y46613D01*
X97384Y46736D01*
X98248Y47093D01*
X98990Y47663D01*
X99560Y48405D01*
X99918Y49269D01*
X100040Y50197D01*
X99918Y51124D01*
X99560Y51989D01*
X98990Y52731D01*
X98248Y53300D01*
X97384Y53658D01*
X96457Y53780D01*
D02*
G37*
G36*
Y43780D02*
X95529Y43658D01*
X94665Y43300D01*
X93923Y42731D01*
X93353Y41989D01*
X92995Y41124D01*
X92873Y40197D01*
X92995Y39269D01*
X93353Y38405D01*
X93923Y37663D01*
X94665Y37093D01*
X95529Y36735D01*
X96457Y36613D01*
X97384Y36735D01*
X98248Y37093D01*
X98990Y37663D01*
X99560Y38405D01*
X99918Y39269D01*
X100040Y40197D01*
X99918Y41124D01*
X99560Y41989D01*
X98990Y42731D01*
X98248Y43300D01*
X97384Y43658D01*
X96457Y43780D01*
D02*
G37*
G36*
X218504Y39544D02*
X217695Y39437D01*
X216941Y39125D01*
X216293Y38628D01*
X215796Y37981D01*
X215484Y37227D01*
X215377Y36417D01*
X215484Y35608D01*
X215667Y35166D01*
X208853Y28352D01*
X208853Y28352D01*
X208610Y27988D01*
X208524Y27559D01*
Y13010D01*
X207953Y12774D01*
X207252Y12236D01*
X206714Y11535D01*
X206376Y10719D01*
X206261Y9843D01*
X206376Y8967D01*
X206714Y8150D01*
X207252Y7449D01*
X207953Y6911D01*
X208770Y6573D01*
X209646Y6458D01*
X210522Y6573D01*
X211338Y6911D01*
X212039Y7449D01*
X212577Y8150D01*
X212915Y8967D01*
X213031Y9843D01*
X212915Y10719D01*
X212577Y11535D01*
X212039Y12236D01*
X211338Y12774D01*
X210767Y13010D01*
Y27095D01*
X217253Y33580D01*
X217695Y33397D01*
X218504Y33291D01*
X219313Y33397D01*
X220067Y33709D01*
X220715Y34206D01*
X221212Y34854D01*
X221524Y35608D01*
X221631Y36417D01*
X221524Y37227D01*
X221212Y37981D01*
X220715Y38628D01*
X220067Y39125D01*
X219313Y39437D01*
X218504Y39544D01*
D02*
G37*
G36*
X96457Y33780D02*
X95529Y33658D01*
X94665Y33300D01*
X93923Y32731D01*
X93353Y31989D01*
X92995Y31124D01*
X92873Y30197D01*
X92995Y29269D01*
X93353Y28405D01*
X93923Y27663D01*
X94665Y27093D01*
X95529Y26735D01*
X96457Y26613D01*
X97384Y26735D01*
X98248Y27093D01*
X98990Y27663D01*
X99560Y28405D01*
X99918Y29269D01*
X100040Y30197D01*
X99918Y31124D01*
X99560Y31989D01*
X98990Y32731D01*
X98248Y33300D01*
X97384Y33658D01*
X96457Y33780D01*
D02*
G37*
G36*
X96957Y24118D02*
Y20697D01*
X100378D01*
X100308Y21229D01*
X99909Y22190D01*
X99276Y23016D01*
X98450Y23650D01*
X97489Y24048D01*
X96957Y24118D01*
D02*
G37*
G36*
X95957D02*
X95425Y24048D01*
X94463Y23650D01*
X93638Y23016D01*
X93004Y22190D01*
X92606Y21229D01*
X92536Y20697D01*
X95957D01*
Y24118D01*
D02*
G37*
G36*
Y19697D02*
X92536D01*
X92606Y19165D01*
X93004Y18203D01*
X93638Y17378D01*
X94463Y16744D01*
X95425Y16346D01*
X95957Y16276D01*
Y19697D01*
D02*
G37*
G36*
X100378D02*
X96957D01*
Y16276D01*
X97489Y16346D01*
X98450Y16744D01*
X99276Y17378D01*
X99909Y18203D01*
X100308Y19165D01*
X100378Y19697D01*
D02*
G37*
G36*
X241142Y13227D02*
X240266Y13112D01*
X239449Y12774D01*
X238748Y12236D01*
X238210Y11535D01*
X237872Y10719D01*
X237757Y9843D01*
X237872Y8967D01*
X238210Y8150D01*
X238748Y7449D01*
X239449Y6911D01*
X240266Y6573D01*
X241142Y6458D01*
X242018Y6573D01*
X242834Y6911D01*
X243535Y7449D01*
X244073Y8150D01*
X244411Y8967D01*
X244527Y9843D01*
X244411Y10719D01*
X244073Y11535D01*
X243535Y12236D01*
X242834Y12774D01*
X242018Y13112D01*
X241142Y13227D01*
D02*
G37*
G36*
X233268D02*
X232392Y13112D01*
X231575Y12774D01*
X230874Y12236D01*
X230336Y11535D01*
X229998Y10719D01*
X229883Y9843D01*
X229998Y8967D01*
X230336Y8150D01*
X230874Y7449D01*
X231575Y6911D01*
X232392Y6573D01*
X233268Y6458D01*
X234144Y6573D01*
X234960Y6911D01*
X235661Y7449D01*
X236199Y8150D01*
X236537Y8967D01*
X236653Y9843D01*
X236537Y10719D01*
X236199Y11535D01*
X235661Y12236D01*
X234960Y12774D01*
X234144Y13112D01*
X233268Y13227D01*
D02*
G37*
G36*
X225394D02*
X224518Y13112D01*
X223701Y12774D01*
X223000Y12236D01*
X222462Y11535D01*
X222124Y10719D01*
X222009Y9843D01*
X222124Y8967D01*
X222462Y8150D01*
X223000Y7449D01*
X223701Y6911D01*
X224518Y6573D01*
X225394Y6458D01*
X226270Y6573D01*
X227086Y6911D01*
X227787Y7449D01*
X228325Y8150D01*
X228663Y8967D01*
X228779Y9843D01*
X228663Y10719D01*
X228325Y11535D01*
X227787Y12236D01*
X227086Y12774D01*
X226270Y13112D01*
X225394Y13227D01*
D02*
G37*
G36*
X217520D02*
X216644Y13112D01*
X215827Y12774D01*
X215126Y12236D01*
X214588Y11535D01*
X214250Y10719D01*
X214135Y9843D01*
X214250Y8967D01*
X214588Y8150D01*
X215126Y7449D01*
X215827Y6911D01*
X216644Y6573D01*
X217520Y6458D01*
X218396Y6573D01*
X219212Y6911D01*
X219913Y7449D01*
X220451Y8150D01*
X220789Y8967D01*
X220904Y9843D01*
X220789Y10719D01*
X220451Y11535D01*
X219913Y12236D01*
X219212Y12774D01*
X218396Y13112D01*
X217520Y13227D01*
D02*
G37*
G36*
X201772Y28717D02*
X200962Y28611D01*
X200208Y28298D01*
X199561Y27801D01*
X199064Y27154D01*
X198751Y26400D01*
X198645Y25591D01*
X198751Y24781D01*
X199064Y24027D01*
X199561Y23380D01*
X200208Y22883D01*
X200650Y22700D01*
Y13010D01*
X200079Y12774D01*
X199378Y12236D01*
X198840Y11535D01*
X198502Y10719D01*
X198387Y9843D01*
X198502Y8967D01*
X198840Y8150D01*
X199378Y7449D01*
X200079Y6911D01*
X200896Y6573D01*
X201772Y6458D01*
X202648Y6573D01*
X203464Y6911D01*
X204165Y7449D01*
X204703Y8150D01*
X205041Y8967D01*
X205156Y9843D01*
X205041Y10719D01*
X204703Y11535D01*
X204165Y12236D01*
X203464Y12774D01*
X202893Y13010D01*
Y22700D01*
X203335Y22883D01*
X203983Y23380D01*
X204480Y24027D01*
X204792Y24781D01*
X204898Y25591D01*
X204792Y26400D01*
X204480Y27154D01*
X203983Y27801D01*
X203335Y28298D01*
X202581Y28611D01*
X201772Y28717D01*
D02*
G37*
G36*
X193898Y13227D02*
X193022Y13112D01*
X192205Y12774D01*
X191504Y12236D01*
X190966Y11535D01*
X190628Y10719D01*
X190513Y9843D01*
X190628Y8967D01*
X190966Y8150D01*
X191504Y7449D01*
X192205Y6911D01*
X193022Y6573D01*
X193898Y6458D01*
X194774Y6573D01*
X195590Y6911D01*
X196291Y7449D01*
X196829Y8150D01*
X197167Y8967D01*
X197283Y9843D01*
X197167Y10719D01*
X196829Y11535D01*
X196291Y12236D01*
X195590Y12774D01*
X194774Y13112D01*
X193898Y13227D01*
D02*
G37*
G36*
X186024D02*
X185148Y13112D01*
X184331Y12774D01*
X183630Y12236D01*
X183092Y11535D01*
X182754Y10719D01*
X182639Y9843D01*
X182754Y8967D01*
X183092Y8150D01*
X183630Y7449D01*
X184331Y6911D01*
X185148Y6573D01*
X186024Y6458D01*
X186900Y6573D01*
X187716Y6911D01*
X188417Y7449D01*
X188955Y8150D01*
X189293Y8967D01*
X189409Y9843D01*
X189293Y10719D01*
X188955Y11535D01*
X188417Y12236D01*
X187716Y12774D01*
X186900Y13112D01*
X186024Y13227D01*
D02*
G37*
G36*
X178150D02*
X177273Y13112D01*
X176457Y12774D01*
X175756Y12236D01*
X175218Y11535D01*
X174880Y10719D01*
X174765Y9843D01*
X174880Y8967D01*
X175218Y8150D01*
X175756Y7449D01*
X176457Y6911D01*
X177273Y6573D01*
X178150Y6458D01*
X179026Y6573D01*
X179842Y6911D01*
X180543Y7449D01*
X181081Y8150D01*
X181419Y8967D01*
X181535Y9843D01*
X181419Y10719D01*
X181081Y11535D01*
X180543Y12236D01*
X179842Y12774D01*
X179026Y13112D01*
X178150Y13227D01*
D02*
G37*
G36*
X170276D02*
X169399Y13112D01*
X168583Y12774D01*
X167882Y12236D01*
X167344Y11535D01*
X167006Y10719D01*
X166891Y9843D01*
X167006Y8967D01*
X167344Y8150D01*
X167882Y7449D01*
X168583Y6911D01*
X169399Y6573D01*
X170276Y6458D01*
X171152Y6573D01*
X171968Y6911D01*
X172669Y7449D01*
X173207Y8150D01*
X173545Y8967D01*
X173660Y9843D01*
X173545Y10719D01*
X173207Y11535D01*
X172669Y12236D01*
X171968Y12774D01*
X171152Y13112D01*
X170276Y13227D01*
D02*
G37*
G36*
X122047Y39021D02*
X119909Y38881D01*
X117807Y38463D01*
X115778Y37774D01*
X113856Y36826D01*
X112074Y35635D01*
X110463Y34222D01*
X109050Y32611D01*
X107859Y30829D01*
X106911Y28907D01*
X106222Y26878D01*
X105804Y24776D01*
X105664Y22638D01*
X105804Y20499D01*
X106222Y18397D01*
X106911Y16368D01*
X107859Y14446D01*
X109050Y12664D01*
X110463Y11053D01*
X112074Y9640D01*
X113856Y8450D01*
X115778Y7502D01*
X117807Y6813D01*
X119909Y6395D01*
X122047Y6255D01*
X124186Y6395D01*
X126287Y6813D01*
X128317Y7502D01*
X130239Y8450D01*
X132021Y9640D01*
X133632Y11053D01*
X135045Y12664D01*
X136235Y14446D01*
X137183Y16368D01*
X137872Y18397D01*
X138290Y20499D01*
X138430Y22638D01*
X138290Y24776D01*
X137872Y26878D01*
X137183Y28907D01*
X136235Y30829D01*
X135045Y32611D01*
X133632Y34222D01*
X132021Y35635D01*
X130239Y36826D01*
X128317Y37774D01*
X126287Y38463D01*
X124186Y38881D01*
X122047Y39021D01*
D02*
G37*
%LPD*%
G36*
X154421Y172591D02*
X154285Y172486D01*
X153788Y171839D01*
X153476Y171085D01*
X153369Y170276D01*
X153476Y169466D01*
X153788Y168712D01*
X154285Y168065D01*
X154933Y167568D01*
X155687Y167255D01*
X156496Y167149D01*
X157305Y167255D01*
X157747Y167438D01*
X158656Y166530D01*
X158656Y166530D01*
X159020Y166287D01*
X159449Y166201D01*
X173976D01*
X174075Y165701D01*
X173901Y165629D01*
X173365Y165218D01*
X169180Y161033D01*
X165739D01*
Y154181D01*
X165739Y153928D01*
X165341Y153681D01*
X165129D01*
X147579Y171230D01*
X147909Y171607D01*
X148043Y171505D01*
X148797Y171192D01*
X149606Y171086D01*
X150416Y171192D01*
X151170Y171505D01*
X151817Y172002D01*
X152314Y172649D01*
X152497Y173091D01*
X154252D01*
X154421Y172591D01*
D02*
G37*
D13*
X180118Y116142D02*
Y147638D01*
X175197Y152559D02*
X180118Y147638D01*
X164664Y152559D02*
X175197D01*
X143933Y173290D02*
X164664Y152559D01*
X176181Y110236D02*
Y138779D01*
X172306Y142655D02*
X176181Y138779D01*
X165416Y142655D02*
X172306D01*
X163427Y144643D02*
X165416Y142655D01*
X163427Y144643D02*
Y151533D01*
X147638Y167323D02*
X163427Y151533D01*
X139764Y167323D02*
X147638D01*
X134980Y173290D02*
X143933D01*
X136811Y133858D02*
Y150591D01*
X129921Y133858D02*
Y151575D01*
X124015Y133859D02*
Y156496D01*
Y133859D02*
X124016Y133858D01*
X98425Y149606D02*
Y170276D01*
Y149606D02*
X114173Y133858D01*
X87598Y187992D02*
X108198Y208592D01*
X87598Y131890D02*
Y187992D01*
X81535Y125827D02*
X87598Y131890D01*
X171260Y103347D02*
X202756D01*
X209646Y96457D01*
Y27559D02*
X209646D01*
X218504Y36417D01*
X209646Y9843D02*
Y27559D01*
X249016Y89567D02*
Y98425D01*
X192913Y240158D02*
X199961D01*
X183071Y250000D02*
X192913Y240158D01*
X201772Y9843D02*
Y25591D01*
X136156Y234907D02*
X145669Y225394D01*
X130905Y234907D02*
X136156D01*
X107393Y229440D02*
X113189Y235236D01*
X102472Y229440D02*
X107393D01*
X143701Y178150D02*
X159449D01*
X199961Y240158D02*
X204882Y235236D01*
X142716Y201771D02*
X177165Y236221D01*
X178150D01*
X105315Y242126D02*
X109252D01*
X62008Y198819D02*
X105315Y242126D01*
X62008Y150591D02*
Y198819D01*
X101378Y231299D02*
X104331Y234252D01*
X100394Y231299D02*
X101378D01*
X66929Y197835D02*
X100394Y231299D01*
X66929Y165669D02*
Y197835D01*
X137795Y201771D02*
X142716D01*
X219488Y110236D02*
X233268Y96457D01*
X186024Y110236D02*
X219488D01*
X180118Y116142D02*
X186024Y110236D01*
X211614Y233937D02*
Y250984D01*
X205709Y256890D02*
X211614Y250984D01*
X157480Y256890D02*
X205709D01*
X143701Y243110D02*
X157480Y256890D01*
X211614Y233937D02*
X218504Y227047D01*
X214047Y171409D02*
X233425Y190787D01*
X166189Y171409D02*
X214047D01*
X164370Y169291D02*
X221929D01*
X159449Y174213D02*
X164370Y169291D01*
X149606Y174213D02*
X159449D01*
X159449Y178150D02*
X166189Y171409D01*
X204725Y182087D02*
X213425Y190787D01*
X169291Y182087D02*
X204725D01*
X167323Y180118D02*
X169291Y182087D01*
X174213Y176181D02*
X208819D01*
X223425Y190787D01*
X229961Y167323D02*
X253425Y190787D01*
X159449Y167323D02*
X229961D01*
X156496Y170276D02*
X159449Y167323D01*
X221929Y169291D02*
X243425Y190787D01*
X180118Y106299D02*
X215551D01*
X225394Y96457D01*
X176181Y110236D02*
X180118Y106299D01*
X165354Y242126D02*
X171260D01*
X161417Y238189D02*
X165354Y242126D01*
X161417Y233268D02*
Y238189D01*
X155512Y227362D02*
X161417Y233268D01*
X166339D02*
Y236221D01*
X158465Y225394D02*
X166339Y233268D01*
X145669Y225394D02*
X158465D01*
X147203Y227362D02*
X155512D01*
X236221Y104331D02*
X243110D01*
X249016Y98425D01*
X133423Y241142D02*
X147203Y227362D01*
X128937Y241142D02*
X133423D01*
X136811Y243110D02*
X143701D01*
X108198Y208592D02*
Y224410D01*
X93504Y198819D02*
Y220473D01*
X85630Y190945D02*
X93504Y198819D01*
X85630Y154685D02*
Y190945D01*
X66929Y165354D02*
Y165669D01*
X62008Y150591D02*
X76772Y135827D01*
X93504Y220473D02*
X102472Y229440D01*
X66929Y165669D02*
X76772Y155827D01*
Y145827D02*
X85630Y154685D01*
X76772Y125827D02*
X81535D01*
X-984Y0D02*
X0D01*
X-984Y263779D02*
X-984Y0D01*
X-984Y263779D02*
X274606D01*
Y0D02*
Y263779D01*
X0Y0D02*
X274606D01*
D14*
X234846Y145489D02*
Y148113D01*
X234322Y148638D01*
X233272D01*
X232747Y148113D01*
Y145489D01*
X231698Y146014D02*
X231173Y145489D01*
X230124D01*
X229599Y146014D01*
Y146539D01*
X230124Y147064D01*
X230648D01*
X230124D01*
X229599Y147588D01*
Y148113D01*
X230124Y148638D01*
X231173D01*
X231698Y148113D01*
D51*
X175197Y163386D02*
X251969D01*
X169291Y157480D02*
X175197Y163386D01*
X251969Y124016D02*
Y163386D01*
X76772Y95827D02*
X77756Y94842D01*
Y88898D02*
Y94842D01*
Y88898D02*
X96457Y70197D01*
X89279Y233268D02*
X89567D01*
X76395Y105450D02*
X76772Y105827D01*
X100079Y73819D02*
X143701D01*
X96457Y70197D02*
X100079Y73819D01*
X256890Y168307D02*
X261811D01*
X251969Y163386D02*
X256890Y168307D01*
X263425Y200255D02*
Y200787D01*
X204882Y225236D02*
X205866Y224252D01*
D52*
X186024Y225236D02*
X194882D01*
X181929D02*
X186024D01*
X159449Y250984D02*
X174213D01*
X186024Y239173D01*
Y225236D02*
Y239173D01*
X163386Y206693D02*
X181929Y225236D01*
X163386Y189961D02*
X164370D01*
D53*
X211299Y224252D02*
X218504Y217047D01*
X205866Y224252D02*
X211299D01*
D57*
X183425Y200787D02*
D03*
X193425Y190787D02*
D03*
Y200787D02*
D03*
X203425Y190787D02*
D03*
Y200787D02*
D03*
X213425Y190787D02*
D03*
Y200787D02*
D03*
X223425Y190787D02*
D03*
Y200787D02*
D03*
X233425Y190787D02*
D03*
Y200787D02*
D03*
X243425Y190787D02*
D03*
Y200787D02*
D03*
X253425Y190787D02*
D03*
Y200787D02*
D03*
X263425Y190787D02*
D03*
Y200787D02*
D03*
X232795Y216535D02*
D03*
X242795D02*
D03*
X252795D02*
D03*
X12835D02*
D03*
X22835D02*
D03*
X32835D02*
D03*
X76772Y219331D02*
D03*
X218504Y217047D02*
D03*
Y227047D02*
D03*
Y237047D02*
D03*
Y247047D02*
D03*
X96457Y60197D02*
D03*
Y50197D02*
D03*
Y40197D02*
D03*
Y30197D02*
D03*
Y20197D02*
D03*
X76772Y155827D02*
D03*
Y145827D02*
D03*
Y135827D02*
D03*
Y125827D02*
D03*
Y105827D02*
D03*
Y115827D02*
D03*
X169291Y147480D02*
D03*
Y137480D02*
D03*
Y127480D02*
D03*
Y117480D02*
D03*
X194882Y245236D02*
D03*
X204882D02*
D03*
X194882Y235236D02*
D03*
X204882D02*
D03*
X194882Y225236D02*
D03*
X261811Y147795D02*
D03*
Y137795D02*
D03*
Y127795D02*
D03*
D58*
X183425Y190787D02*
D03*
X262795Y216535D02*
D03*
X42835D02*
D03*
D59*
X76772Y229331D02*
D03*
X96457Y70197D02*
D03*
X76772Y95827D02*
D03*
X169291Y157480D02*
D03*
X204882Y225236D02*
D03*
X261811Y157795D02*
D03*
D60*
X241142Y9843D02*
D03*
X233268D02*
D03*
X225394D02*
D03*
X217520D02*
D03*
X209646D02*
D03*
X201772D02*
D03*
X193898D02*
D03*
X186024D02*
D03*
X178150D02*
D03*
X170276D02*
D03*
Y96457D02*
D03*
X178150D02*
D03*
X186024D02*
D03*
X193898D02*
D03*
X201772D02*
D03*
X209646D02*
D03*
X217520D02*
D03*
X225394D02*
D03*
X233268D02*
D03*
X241142D02*
D03*
D61*
X122047Y22638D02*
D03*
X251969Y241142D02*
D03*
X21654D02*
D03*
D62*
X77756Y179370D02*
D03*
Y198583D02*
D03*
D63*
X27559Y154213D02*
D03*
Y97126D02*
D03*
X110236Y157323D02*
D03*
Y117953D02*
D03*
D64*
X206193Y139279D02*
D03*
Y147153D02*
D03*
Y155027D02*
D03*
Y131405D02*
D03*
X139764Y167323D02*
D03*
X134980Y173290D02*
D03*
X136811Y150591D02*
D03*
Y133858D02*
D03*
X129921D02*
D03*
X124016D02*
D03*
X98425Y170276D02*
D03*
X262795Y99410D02*
D03*
X171260Y103347D02*
D03*
X114173Y133858D02*
D03*
X124015Y156496D02*
D03*
X218504Y36417D02*
D03*
X249016Y89567D02*
D03*
X54454Y232554D02*
D03*
X137795Y79724D02*
D03*
X159449Y250984D02*
D03*
X183071Y250000D02*
D03*
X163386Y206693D02*
D03*
X136811Y92520D02*
D03*
X201772Y25591D02*
D03*
X143701Y73819D02*
D03*
X57087Y181102D02*
D03*
X56102Y217520D02*
D03*
X37402Y192913D02*
D03*
X136811Y55118D02*
D03*
X163386Y189961D02*
D03*
X130905Y234907D02*
D03*
X113189Y235236D02*
D03*
X143701Y178150D02*
D03*
X178150Y236221D02*
D03*
X137795Y201771D02*
D03*
X251969Y124016D02*
D03*
X129921Y151575D02*
D03*
X174213Y176181D02*
D03*
X167323Y180118D02*
D03*
X149606Y174213D02*
D03*
X156496Y170276D02*
D03*
X171260Y242126D02*
D03*
X166339Y236221D02*
D03*
X236221Y104331D02*
D03*
X261811Y168307D02*
D03*
X154528Y234252D02*
D03*
X136811Y243110D02*
D03*
X128937Y241142D02*
D03*
X98425Y181102D02*
D03*
X89567Y233268D02*
D03*
X104331Y234252D02*
D03*
X109252Y242126D02*
D03*
X108198Y224410D02*
D03*
M02*
