G04*
G04 #@! TF.GenerationSoftware,Altium Limited,Altium Designer,19.1.8 (144)*
G04*
G04 Layer_Color=8388736*
%FSLAX25Y25*%
%MOIN*%
G70*
G01*
G75*
%ADD13C,0.01000*%
%ADD14C,0.00394*%
%ADD29R,0.04343X0.03556*%
%ADD30R,0.03556X0.04343*%
G04:AMPARAMS|DCode=31|XSize=19.81mil|YSize=78.87mil|CornerRadius=0mil|HoleSize=0mil|Usage=FLASHONLY|Rotation=135.000|XOffset=0mil|YOffset=0mil|HoleType=Round|Shape=Round|*
%AMOVALD31*
21,1,0.05906,0.01981,0.00000,0.00000,225.0*
1,1,0.01981,0.02088,0.02088*
1,1,0.01981,-0.02088,-0.02088*
%
%ADD31OVALD31*%

G04:AMPARAMS|DCode=32|XSize=19.81mil|YSize=78.87mil|CornerRadius=0mil|HoleSize=0mil|Usage=FLASHONLY|Rotation=45.000|XOffset=0mil|YOffset=0mil|HoleType=Round|Shape=Round|*
%AMOVALD32*
21,1,0.05906,0.01981,0.00000,0.00000,135.0*
1,1,0.01981,0.02088,-0.02088*
1,1,0.01981,-0.02088,0.02088*
%
%ADD32OVALD32*%

%ADD33R,0.06312X0.04540*%
%ADD34R,0.05524X0.06312*%
G04:AMPARAMS|DCode=35|XSize=49.34mil|YSize=45.4mil|CornerRadius=0mil|HoleSize=0mil|Usage=FLASHONLY|Rotation=315.000|XOffset=0mil|YOffset=0mil|HoleType=Round|Shape=Rectangle|*
%AMROTATEDRECTD35*
4,1,4,-0.03350,0.00139,-0.00139,0.03350,0.03350,-0.00139,0.00139,-0.03350,-0.03350,0.00139,0.0*
%
%ADD35ROTATEDRECTD35*%

G04:AMPARAMS|DCode=36|XSize=49.34mil|YSize=29.65mil|CornerRadius=0mil|HoleSize=0mil|Usage=FLASHONLY|Rotation=315.000|XOffset=0mil|YOffset=0mil|HoleType=Round|Shape=Rectangle|*
%AMROTATEDRECTD36*
4,1,4,-0.02793,0.00696,-0.00696,0.02793,0.02793,-0.00696,0.00696,-0.02793,-0.02793,0.00696,0.0*
%
%ADD36ROTATEDRECTD36*%

G04:AMPARAMS|DCode=37|XSize=49.34mil|YSize=45.4mil|CornerRadius=0mil|HoleSize=0mil|Usage=FLASHONLY|Rotation=225.000|XOffset=0mil|YOffset=0mil|HoleType=Round|Shape=Rectangle|*
%AMROTATEDRECTD37*
4,1,4,0.00139,0.03350,0.03350,0.00139,-0.00139,-0.03350,-0.03350,-0.00139,0.00139,0.03350,0.0*
%
%ADD37ROTATEDRECTD37*%

%ADD38R,0.04934X0.04540*%
%ADD39R,0.06312X0.05524*%
%ADD40R,0.05131X0.05524*%
G04:AMPARAMS|DCode=41|XSize=133.98mil|YSize=76.9mil|CornerRadius=6.07mil|HoleSize=0mil|Usage=FLASHONLY|Rotation=270.000|XOffset=0mil|YOffset=0mil|HoleType=Round|Shape=RoundedRectangle|*
%AMROUNDEDRECTD41*
21,1,0.13398,0.06476,0,0,270.0*
21,1,0.12185,0.07690,0,0,270.0*
1,1,0.01213,-0.03238,-0.06093*
1,1,0.01213,-0.03238,0.06093*
1,1,0.01213,0.03238,0.06093*
1,1,0.01213,0.03238,-0.06093*
%
%ADD41ROUNDEDRECTD41*%
G04:AMPARAMS|DCode=42|XSize=43.43mil|YSize=76.9mil|CornerRadius=5.95mil|HoleSize=0mil|Usage=FLASHONLY|Rotation=270.000|XOffset=0mil|YOffset=0mil|HoleType=Round|Shape=RoundedRectangle|*
%AMROUNDEDRECTD42*
21,1,0.04343,0.06500,0,0,270.0*
21,1,0.03154,0.07690,0,0,270.0*
1,1,0.01190,-0.03250,-0.01577*
1,1,0.01190,-0.03250,0.01577*
1,1,0.01190,0.03250,0.01577*
1,1,0.01190,0.03250,-0.01577*
%
%ADD42ROUNDEDRECTD42*%
%ADD43C,0.06706*%
%ADD44R,0.06706X0.06706*%
%ADD45R,0.06706X0.06706*%
%ADD46C,0.06312*%
%ADD47C,0.32296*%
%ADD48C,0.05524*%
%ADD49C,0.20485*%
%ADD50C,0.05800*%
D13*
X-984Y0D02*
X0D01*
X-984Y263779D02*
X-984Y0D01*
X-984Y263779D02*
X274606D01*
Y0D02*
Y263779D01*
X0Y0D02*
X274606D01*
D14*
X234846Y145489D02*
Y148113D01*
X234322Y148638D01*
X233272D01*
X232747Y148113D01*
Y145489D01*
X231698Y146014D02*
X231173Y145489D01*
X230124D01*
X229599Y146014D01*
Y146539D01*
X230124Y147064D01*
X230648D01*
X230124D01*
X229599Y147588D01*
Y148113D01*
X230124Y148638D01*
X231173D01*
X231698Y148113D01*
D29*
X185039Y231299D02*
D03*
Y237205D02*
D03*
D30*
X165354Y256890D02*
D03*
X171260D02*
D03*
D31*
X114928Y202090D02*
D03*
X116320Y200698D02*
D03*
X117712Y199306D02*
D03*
X119104Y197914D02*
D03*
X120496Y196522D02*
D03*
X121888Y195130D02*
D03*
X123280Y193738D02*
D03*
X124671Y192346D02*
D03*
X126063Y190954D02*
D03*
X127455Y189562D02*
D03*
X128847Y188170D02*
D03*
X130239Y186778D02*
D03*
X152789Y209328D02*
D03*
X151397Y210720D02*
D03*
X150005Y212112D02*
D03*
X148613Y213504D02*
D03*
X147221Y214896D02*
D03*
X145829Y216287D02*
D03*
X144437Y217679D02*
D03*
X143045Y219071D02*
D03*
X141653Y220463D02*
D03*
X140261Y221855D02*
D03*
X138869Y223247D02*
D03*
X137477Y224639D02*
D03*
D32*
Y186778D02*
D03*
X138869Y188170D02*
D03*
X140261Y189562D02*
D03*
X141653Y190954D02*
D03*
X143045Y192346D02*
D03*
X144437Y193738D02*
D03*
X145829Y195130D02*
D03*
X147221Y196522D02*
D03*
X148613Y197914D02*
D03*
X150005Y199306D02*
D03*
X151397Y200698D02*
D03*
X152789Y202090D02*
D03*
X130239Y224639D02*
D03*
X128847Y223247D02*
D03*
X127455Y221855D02*
D03*
X126063Y220463D02*
D03*
X124671Y219071D02*
D03*
X123280Y217679D02*
D03*
X121888Y216287D02*
D03*
X120496Y214896D02*
D03*
X119104Y213504D02*
D03*
X117712Y212112D02*
D03*
X116320Y210720D02*
D03*
X114928Y209328D02*
D03*
D33*
X21654Y191240D02*
D03*
Y174902D02*
D03*
D34*
X55512Y155512D02*
D03*
X62598D02*
D03*
X55512Y145669D02*
D03*
X62598D02*
D03*
X61614Y241142D02*
D03*
X54528D02*
D03*
X61614Y209646D02*
D03*
X54528D02*
D03*
X54528Y198819D02*
D03*
X61614D02*
D03*
X54528Y188976D02*
D03*
X61614D02*
D03*
X142520Y250984D02*
D03*
X149606D02*
D03*
X246654Y178150D02*
D03*
X239567D02*
D03*
X262402Y115157D02*
D03*
X255315D02*
D03*
X262402Y106299D02*
D03*
X255315D02*
D03*
X128543Y92520D02*
D03*
X121457D02*
D03*
X128543Y73819D02*
D03*
X121457D02*
D03*
X128543Y55118D02*
D03*
X121457D02*
D03*
D35*
X163436Y199853D02*
D03*
X159399Y195816D02*
D03*
X101278Y212499D02*
D03*
X105315Y216535D02*
D03*
D36*
X98704Y223704D02*
D03*
X94110Y219110D02*
D03*
D37*
X113239Y177116D02*
D03*
X109202Y181152D02*
D03*
D38*
X142717Y238091D02*
D03*
Y232382D02*
D03*
D39*
X250000Y147244D02*
D03*
Y140157D02*
D03*
X250000Y158465D02*
D03*
Y165551D02*
D03*
X51181Y175787D02*
D03*
Y168701D02*
D03*
X37402Y182677D02*
D03*
Y175591D02*
D03*
D40*
X128150Y250984D02*
D03*
X119882D02*
D03*
X256693Y178150D02*
D03*
X264961D02*
D03*
X129134Y83661D02*
D03*
X120866D02*
D03*
X129134Y64961D02*
D03*
X120866D02*
D03*
X129134Y46260D02*
D03*
X120866D02*
D03*
D41*
X216043Y147638D02*
D03*
D42*
X240650Y156693D02*
D03*
Y147638D02*
D03*
Y138583D02*
D03*
D43*
X183425Y200787D02*
D03*
X193425Y190787D02*
D03*
Y200787D02*
D03*
X203425Y190787D02*
D03*
Y200787D02*
D03*
X213425Y190787D02*
D03*
Y200787D02*
D03*
X223425Y190787D02*
D03*
Y200787D02*
D03*
X233425Y190787D02*
D03*
Y200787D02*
D03*
X243425Y190787D02*
D03*
Y200787D02*
D03*
X253425Y190787D02*
D03*
Y200787D02*
D03*
X263425Y190787D02*
D03*
Y200787D02*
D03*
X232795Y216535D02*
D03*
X242795D02*
D03*
X252795D02*
D03*
X12835D02*
D03*
X22835D02*
D03*
X32835D02*
D03*
X76772Y219331D02*
D03*
X218504Y217047D02*
D03*
Y227047D02*
D03*
Y237047D02*
D03*
Y247047D02*
D03*
X96457Y60197D02*
D03*
Y50197D02*
D03*
Y40197D02*
D03*
Y30197D02*
D03*
Y20197D02*
D03*
X76772Y155827D02*
D03*
Y145827D02*
D03*
Y135827D02*
D03*
Y125827D02*
D03*
Y105827D02*
D03*
Y115827D02*
D03*
X169291Y147480D02*
D03*
Y137480D02*
D03*
Y127480D02*
D03*
Y117480D02*
D03*
X194882Y245236D02*
D03*
X204882D02*
D03*
X194882Y235236D02*
D03*
X204882D02*
D03*
X194882Y225236D02*
D03*
X261811Y147795D02*
D03*
Y137795D02*
D03*
Y127795D02*
D03*
D44*
X183425Y190787D02*
D03*
X262795Y216535D02*
D03*
X42835D02*
D03*
D45*
X76772Y229331D02*
D03*
X96457Y70197D02*
D03*
X76772Y95827D02*
D03*
X169291Y157480D02*
D03*
X204882Y225236D02*
D03*
X261811Y157795D02*
D03*
D46*
X241142Y9843D02*
D03*
X233268D02*
D03*
X225394D02*
D03*
X217520D02*
D03*
X209646D02*
D03*
X201772D02*
D03*
X193898D02*
D03*
X186024D02*
D03*
X178150D02*
D03*
X170276D02*
D03*
Y96457D02*
D03*
X178150D02*
D03*
X186024D02*
D03*
X193898D02*
D03*
X201772D02*
D03*
X209646D02*
D03*
X217520D02*
D03*
X225394D02*
D03*
X233268D02*
D03*
X241142D02*
D03*
D47*
X122047Y22638D02*
D03*
X251969Y241142D02*
D03*
X21654D02*
D03*
D48*
X77756Y179370D02*
D03*
Y198583D02*
D03*
D49*
X27559Y154213D02*
D03*
Y97126D02*
D03*
X110236Y157323D02*
D03*
Y117953D02*
D03*
D50*
X206193Y139279D02*
D03*
Y147153D02*
D03*
Y155027D02*
D03*
Y131405D02*
D03*
X139764Y167323D02*
D03*
X134980Y173290D02*
D03*
X136811Y150591D02*
D03*
Y133858D02*
D03*
X129921D02*
D03*
X124016D02*
D03*
X98425Y170276D02*
D03*
X262795Y99410D02*
D03*
X171260Y103347D02*
D03*
X114173Y133858D02*
D03*
X124015Y156496D02*
D03*
X218504Y36417D02*
D03*
X249016Y89567D02*
D03*
X54454Y232554D02*
D03*
X137795Y79724D02*
D03*
X159449Y250984D02*
D03*
X183071Y250000D02*
D03*
X163386Y206693D02*
D03*
X136811Y92520D02*
D03*
X201772Y25591D02*
D03*
X143701Y73819D02*
D03*
X57087Y181102D02*
D03*
X56102Y217520D02*
D03*
X37402Y192913D02*
D03*
X136811Y55118D02*
D03*
X163386Y189961D02*
D03*
X130905Y234907D02*
D03*
X113189Y235236D02*
D03*
X143701Y178150D02*
D03*
X178150Y236221D02*
D03*
X137795Y201771D02*
D03*
X251969Y124016D02*
D03*
X129921Y151575D02*
D03*
X174213Y176181D02*
D03*
X167323Y180118D02*
D03*
X149606Y174213D02*
D03*
X156496Y170276D02*
D03*
X171260Y242126D02*
D03*
X166339Y236221D02*
D03*
X236221Y104331D02*
D03*
X261811Y168307D02*
D03*
X154528Y234252D02*
D03*
X136811Y243110D02*
D03*
X128937Y241142D02*
D03*
X98425Y181102D02*
D03*
X89567Y233268D02*
D03*
X104331Y234252D02*
D03*
X109252Y242126D02*
D03*
X108198Y224410D02*
D03*
M02*
