G04*
G04 #@! TF.GenerationSoftware,Altium Limited,Altium Designer,19.1.8 (144)*
G04*
G04 Layer_Color=16711935*
%FSLAX25Y25*%
%MOIN*%
G70*
G01*
G75*
%ADD13C,0.01000*%
%ADD14C,0.00394*%
D13*
X-984Y0D02*
X0D01*
X-984Y263779D02*
X-984Y0D01*
X-984Y263779D02*
X274606D01*
Y0D02*
Y263779D01*
X0Y0D02*
X274606D01*
X-984D02*
X0D01*
X-984Y263779D02*
X-984Y0D01*
X-984Y263779D02*
X274606D01*
Y0D02*
Y263779D01*
X0Y0D02*
X274606D01*
D14*
X234846Y145489D02*
Y148113D01*
X234322Y148638D01*
X233272D01*
X232747Y148113D01*
Y145489D01*
X231698Y146014D02*
X231173Y145489D01*
X230124D01*
X229599Y146014D01*
Y146539D01*
X230124Y147064D01*
X230648D01*
X230124D01*
X229599Y147588D01*
Y148113D01*
X230124Y148638D01*
X231173D01*
X231698Y148113D01*
X234846Y145489D02*
Y148113D01*
X234322Y148638D01*
X233272D01*
X232747Y148113D01*
Y145489D01*
X231698Y146014D02*
X231173Y145489D01*
X230124D01*
X229599Y146014D01*
Y146539D01*
X230124Y147064D01*
X230648D01*
X230124D01*
X229599Y147588D01*
Y148113D01*
X230124Y148638D01*
X231173D01*
X231698Y148113D01*
M02*
