G04*
G04 #@! TF.GenerationSoftware,Altium Limited,Altium Designer,19.1.8 (144)*
G04*
G04 Layer_Color=255*
%FSLAX25Y25*%
%MOIN*%
G70*
G01*
G75*
%ADD13C,0.01000*%
%ADD14C,0.00394*%
%ADD15R,0.03543X0.02756*%
%ADD16R,0.02756X0.03543*%
G04:AMPARAMS|DCode=17|XSize=11.81mil|YSize=70.87mil|CornerRadius=0mil|HoleSize=0mil|Usage=FLASHONLY|Rotation=135.000|XOffset=0mil|YOffset=0mil|HoleType=Round|Shape=Round|*
%AMOVALD17*
21,1,0.05906,0.01181,0.00000,0.00000,225.0*
1,1,0.01181,0.02088,0.02088*
1,1,0.01181,-0.02088,-0.02088*
%
%ADD17OVALD17*%

G04:AMPARAMS|DCode=18|XSize=11.81mil|YSize=70.87mil|CornerRadius=0mil|HoleSize=0mil|Usage=FLASHONLY|Rotation=45.000|XOffset=0mil|YOffset=0mil|HoleType=Round|Shape=Round|*
%AMOVALD18*
21,1,0.05906,0.01181,0.00000,0.00000,135.0*
1,1,0.01181,0.02088,-0.02088*
1,1,0.01181,-0.02088,0.02088*
%
%ADD18OVALD18*%

%ADD19R,0.05512X0.03740*%
%ADD20R,0.04724X0.05512*%
G04:AMPARAMS|DCode=21|XSize=41.34mil|YSize=37.4mil|CornerRadius=0mil|HoleSize=0mil|Usage=FLASHONLY|Rotation=315.000|XOffset=0mil|YOffset=0mil|HoleType=Round|Shape=Rectangle|*
%AMROTATEDRECTD21*
4,1,4,-0.02784,0.00139,-0.00139,0.02784,0.02784,-0.00139,0.00139,-0.02784,-0.02784,0.00139,0.0*
%
%ADD21ROTATEDRECTD21*%

G04:AMPARAMS|DCode=22|XSize=41.34mil|YSize=21.65mil|CornerRadius=0mil|HoleSize=0mil|Usage=FLASHONLY|Rotation=315.000|XOffset=0mil|YOffset=0mil|HoleType=Round|Shape=Rectangle|*
%AMROTATEDRECTD22*
4,1,4,-0.02227,0.00696,-0.00696,0.02227,0.02227,-0.00696,0.00696,-0.02227,-0.02227,0.00696,0.0*
%
%ADD22ROTATEDRECTD22*%

G04:AMPARAMS|DCode=23|XSize=41.34mil|YSize=37.4mil|CornerRadius=0mil|HoleSize=0mil|Usage=FLASHONLY|Rotation=225.000|XOffset=0mil|YOffset=0mil|HoleType=Round|Shape=Rectangle|*
%AMROTATEDRECTD23*
4,1,4,0.00139,0.02784,0.02784,0.00139,-0.00139,-0.02784,-0.02784,-0.00139,0.00139,0.02784,0.0*
%
%ADD23ROTATEDRECTD23*%

%ADD24R,0.04134X0.03740*%
%ADD25R,0.05512X0.04724*%
%ADD26R,0.04331X0.04724*%
G04:AMPARAMS|DCode=27|XSize=125.98mil|YSize=68.9mil|CornerRadius=2.07mil|HoleSize=0mil|Usage=FLASHONLY|Rotation=270.000|XOffset=0mil|YOffset=0mil|HoleType=Round|Shape=RoundedRectangle|*
%AMROUNDEDRECTD27*
21,1,0.12598,0.06476,0,0,270.0*
21,1,0.12185,0.06890,0,0,270.0*
1,1,0.00413,-0.03238,-0.06093*
1,1,0.00413,-0.03238,0.06093*
1,1,0.00413,0.03238,0.06093*
1,1,0.00413,0.03238,-0.06093*
%
%ADD27ROUNDEDRECTD27*%
G04:AMPARAMS|DCode=28|XSize=35.43mil|YSize=68.9mil|CornerRadius=1.95mil|HoleSize=0mil|Usage=FLASHONLY|Rotation=270.000|XOffset=0mil|YOffset=0mil|HoleType=Round|Shape=RoundedRectangle|*
%AMROUNDEDRECTD28*
21,1,0.03543,0.06500,0,0,270.0*
21,1,0.03154,0.06890,0,0,270.0*
1,1,0.00390,-0.03250,-0.01577*
1,1,0.00390,-0.03250,0.01577*
1,1,0.00390,0.03250,0.01577*
1,1,0.00390,0.03250,-0.01577*
%
%ADD28ROUNDEDRECTD28*%
%ADD56C,0.05906*%
%ADD57R,0.05906X0.05906*%
%ADD58R,0.05906X0.05906*%
%ADD59C,0.05512*%
%ADD60C,0.31496*%
%ADD61C,0.04724*%
%ADD62C,0.19685*%
D13*
X-984Y0D02*
X0D01*
X-984Y263779D02*
X-984Y0D01*
X-984Y263779D02*
X274606D01*
Y0D02*
Y263779D01*
X0Y0D02*
X274606D01*
D14*
X234846Y145489D02*
Y148113D01*
X234322Y148638D01*
X233272D01*
X232747Y148113D01*
Y145489D01*
X231698Y146014D02*
X231173Y145489D01*
X230124D01*
X229599Y146014D01*
Y146539D01*
X230124Y147064D01*
X230648D01*
X230124D01*
X229599Y147588D01*
Y148113D01*
X230124Y148638D01*
X231173D01*
X231698Y148113D01*
D15*
X185039Y231299D02*
D03*
Y237205D02*
D03*
D16*
X165354Y256890D02*
D03*
X171260D02*
D03*
D17*
X114928Y202090D02*
D03*
X116320Y200698D02*
D03*
X117712Y199306D02*
D03*
X119104Y197914D02*
D03*
X120496Y196522D02*
D03*
X121888Y195130D02*
D03*
X123280Y193738D02*
D03*
X124671Y192346D02*
D03*
X126063Y190954D02*
D03*
X127455Y189562D02*
D03*
X128847Y188170D02*
D03*
X130239Y186778D02*
D03*
X152789Y209328D02*
D03*
X151397Y210720D02*
D03*
X150005Y212112D02*
D03*
X148613Y213504D02*
D03*
X147221Y214896D02*
D03*
X145829Y216287D02*
D03*
X144437Y217679D02*
D03*
X143045Y219071D02*
D03*
X141653Y220463D02*
D03*
X140261Y221855D02*
D03*
X138869Y223247D02*
D03*
X137477Y224639D02*
D03*
D18*
Y186778D02*
D03*
X138869Y188170D02*
D03*
X140261Y189562D02*
D03*
X141653Y190954D02*
D03*
X143045Y192346D02*
D03*
X144437Y193738D02*
D03*
X145829Y195130D02*
D03*
X147221Y196522D02*
D03*
X148613Y197914D02*
D03*
X150005Y199306D02*
D03*
X151397Y200698D02*
D03*
X152789Y202090D02*
D03*
X130239Y224639D02*
D03*
X128847Y223247D02*
D03*
X127455Y221855D02*
D03*
X126063Y220463D02*
D03*
X124671Y219071D02*
D03*
X123280Y217679D02*
D03*
X121888Y216287D02*
D03*
X120496Y214896D02*
D03*
X119104Y213504D02*
D03*
X117712Y212112D02*
D03*
X116320Y210720D02*
D03*
X114928Y209328D02*
D03*
D19*
X21654Y191240D02*
D03*
Y174902D02*
D03*
D20*
X55512Y155512D02*
D03*
X62598D02*
D03*
X55512Y145669D02*
D03*
X62598D02*
D03*
X61614Y241142D02*
D03*
X54528D02*
D03*
X61614Y209646D02*
D03*
X54528D02*
D03*
X54528Y198819D02*
D03*
X61614D02*
D03*
X54528Y188976D02*
D03*
X61614D02*
D03*
X142520Y250984D02*
D03*
X149606D02*
D03*
X246654Y178150D02*
D03*
X239567D02*
D03*
X262402Y115157D02*
D03*
X255315D02*
D03*
X262402Y106299D02*
D03*
X255315D02*
D03*
X128543Y92520D02*
D03*
X121457D02*
D03*
X128543Y73819D02*
D03*
X121457D02*
D03*
X128543Y55118D02*
D03*
X121457D02*
D03*
D21*
X163436Y199853D02*
D03*
X159399Y195816D02*
D03*
X101278Y212499D02*
D03*
X105315Y216535D02*
D03*
D22*
X98704Y223704D02*
D03*
X94110Y219110D02*
D03*
D23*
X113239Y177116D02*
D03*
X109202Y181152D02*
D03*
D24*
X142717Y238091D02*
D03*
Y232382D02*
D03*
D25*
X250000Y147244D02*
D03*
Y140157D02*
D03*
X250000Y158465D02*
D03*
Y165551D02*
D03*
X51181Y175787D02*
D03*
Y168701D02*
D03*
X37402Y182677D02*
D03*
Y175591D02*
D03*
D26*
X128150Y250984D02*
D03*
X119882D02*
D03*
X256693Y178150D02*
D03*
X264961D02*
D03*
X129134Y83661D02*
D03*
X120866D02*
D03*
X129134Y64961D02*
D03*
X120866D02*
D03*
X129134Y46260D02*
D03*
X120866D02*
D03*
D27*
X216043Y147638D02*
D03*
D28*
X240650Y156693D02*
D03*
Y147638D02*
D03*
Y138583D02*
D03*
D56*
X232795Y216535D02*
D03*
X242795D02*
D03*
X252795D02*
D03*
X12835D02*
D03*
X22835D02*
D03*
X32835D02*
D03*
X76772Y219331D02*
D03*
X263425Y200787D02*
D03*
Y190787D02*
D03*
X253425Y200787D02*
D03*
Y190787D02*
D03*
X243425Y200787D02*
D03*
Y190787D02*
D03*
X233425Y200787D02*
D03*
Y190787D02*
D03*
X223425Y200787D02*
D03*
Y190787D02*
D03*
X213425Y200787D02*
D03*
Y190787D02*
D03*
X203425Y200787D02*
D03*
Y190787D02*
D03*
X193425Y200787D02*
D03*
Y190787D02*
D03*
X183425Y200787D02*
D03*
X218504Y217047D02*
D03*
Y227047D02*
D03*
Y237047D02*
D03*
Y247047D02*
D03*
X96457Y60197D02*
D03*
Y50197D02*
D03*
Y40197D02*
D03*
Y30197D02*
D03*
Y20197D02*
D03*
X76772Y155827D02*
D03*
Y145827D02*
D03*
Y135827D02*
D03*
Y125827D02*
D03*
Y105827D02*
D03*
Y115827D02*
D03*
X169291Y147480D02*
D03*
Y137480D02*
D03*
Y127480D02*
D03*
Y117480D02*
D03*
X194882Y245236D02*
D03*
X204882D02*
D03*
X194882Y235236D02*
D03*
X204882D02*
D03*
X194882Y225236D02*
D03*
X261811Y147795D02*
D03*
Y137795D02*
D03*
Y127795D02*
D03*
D57*
X262795Y216535D02*
D03*
X42835D02*
D03*
X183425Y190787D02*
D03*
D58*
X76772Y229331D02*
D03*
X96457Y70197D02*
D03*
X76772Y95827D02*
D03*
X169291Y157480D02*
D03*
X204882Y225236D02*
D03*
X261811Y157795D02*
D03*
D59*
X241142Y9843D02*
D03*
X233268D02*
D03*
X225394D02*
D03*
X217520D02*
D03*
X209646D02*
D03*
X201772D02*
D03*
X193898D02*
D03*
X186024D02*
D03*
X178150D02*
D03*
X170276D02*
D03*
Y96457D02*
D03*
X178150D02*
D03*
X186024D02*
D03*
X193898D02*
D03*
X201772D02*
D03*
X209646D02*
D03*
X217520D02*
D03*
X225394D02*
D03*
X233268D02*
D03*
X241142D02*
D03*
D60*
X122047Y22638D02*
D03*
X251969Y241142D02*
D03*
X21654D02*
D03*
D61*
X77756Y179370D02*
D03*
Y198583D02*
D03*
D62*
X27559Y154213D02*
D03*
Y97126D02*
D03*
X110236Y157323D02*
D03*
Y117953D02*
D03*
M02*
