M48
;Layer_Color=9474304
;FILE_FORMAT=2:5
INCH,LZ
;TYPE=PLATED
T1F00S00C0.02756
T2F00S00C0.02800
T3F00S00C0.03150
T4F00S00C0.03543
T5F00S00C0.11811
T6F00S00C0.15748
%
T01
X0077756Y017937
Y0198583
T02
X0169291Y0050197
X0236221Y0104331
X0251969Y0124016
X0261811Y0168307
X0174213Y0176181
X0167323Y0180118
X0163386Y0189961
X0156496Y0170276
X0149606Y0174213
X0142717Y017815
X0133858Y0176181
X0129921Y0168307
X0118294Y0171444
X0104331Y0173228
X0098425Y0181102
X0105315Y0142717
X0129921Y0151575
X0138779
X0137795Y0201771
X0136811Y0098425
X0201772Y0058071
X003937Y0192913
X0054429Y0232579
X0089567Y0233268
X0104331Y0234252
X0115157
X0109252Y0242126
X0108198Y022441
X0128937Y0233268
Y0241142
X0136811Y024311
X0154528Y0234252
X0166339Y0236221
X017126Y0242126
X017815Y0236221
X0183071Y0251969
T03
X0170276Y0009843
X017815
X0186024
X0193898
X0201772
X0209646
X021752
X0225394
X0233268
X0241142
Y0096457
X0233268
X0225394
X021752
X0209646
X0201772
X0193898
X0186024
X017815
X0170276
T04
X0096457Y0020197
Y0030197
Y0040197
Y0050197
X0261811Y0127795
Y0137795
Y0147795
Y0157795
X0263425Y0190787
Y0200787
X0253425
Y0190787
X0243425
Y0200787
X0233425
Y0190787
X0223425
Y0200787
X0213425
Y0190787
X0203425
Y0200787
X0193425
Y0190787
X0183425
Y0200787
X0169291Y015748
Y014748
Y013748
Y012748
Y011748
X0076772Y0115827
Y0125827
Y0135827
Y0145827
Y0155827
Y0105827
Y0095827
X0096457Y0070197
Y0060197
X0042835Y0216535
X0032835
X0022835
X0012835
X0076772Y0219331
Y0229331
X0194882Y0225236
Y0235236
Y0245236
X0204882
Y0235236
Y0225236
X0218504Y0227047
Y0217047
X0232795Y0216535
X0242795
X0252795
X0262795
X0218504Y0237047
Y0247047
T05
X0110236Y0117953
Y0157323
X0027559Y0154213
Y0097126
T06
X0122047Y0022638
X0021654Y0241142
X0251969
M30
