G04*
G04 #@! TF.GenerationSoftware,Altium Limited,Altium Designer,19.1.8 (144)*
G04*
G04 Layer_Color=32896*
%FSLAX25Y25*%
%MOIN*%
G70*
G01*
G75*
%ADD13C,0.01000*%
%ADD14C,0.00394*%
D13*
X263764Y36250D02*
Y42248D01*
X260765D01*
X259765Y41248D01*
Y39249D01*
X260765Y38249D01*
X263764D01*
X257766Y40249D02*
Y36250D01*
Y38249D01*
X256766Y39249D01*
X255766Y40249D01*
X254767D01*
X250768Y36250D02*
X248769D01*
X247769Y37250D01*
Y39249D01*
X248769Y40249D01*
X250768D01*
X251768Y39249D01*
Y37250D01*
X250768Y36250D01*
X245770Y34251D02*
Y40249D01*
X242771D01*
X241771Y39249D01*
Y37250D01*
X242771Y36250D01*
X245770D01*
X239772Y40249D02*
Y37250D01*
X238772Y36250D01*
X235773D01*
Y40249D01*
X233773Y36250D02*
X231774D01*
X232774D01*
Y42248D01*
X233773D01*
X228775Y36250D02*
X225776D01*
X224776Y37250D01*
X225776Y38249D01*
X227775D01*
X228775Y39249D01*
X227775Y40249D01*
X224776D01*
X219778Y36250D02*
X221777D01*
X222777Y37250D01*
Y39249D01*
X221777Y40249D01*
X219778D01*
X218778Y39249D01*
Y38249D01*
X222777D01*
X259765Y30651D02*
X261764D01*
X260765D01*
Y25653D01*
X261764Y24653D01*
X262764D01*
X263764Y25653D01*
X256766Y24653D02*
X254767D01*
X253767Y25653D01*
Y27652D01*
X254767Y28652D01*
X256766D01*
X257766Y27652D01*
Y25653D01*
X256766Y24653D01*
X251768D02*
Y28652D01*
X248769D01*
X247769Y27652D01*
Y24653D01*
X244770Y28652D02*
X242771D01*
X241771Y27652D01*
Y24653D01*
X244770D01*
X245770Y25653D01*
X244770Y26652D01*
X241771D01*
X239772Y24653D02*
X236772D01*
X235773Y25653D01*
X236772Y26652D01*
X238772D01*
X239772Y27652D01*
X238772Y28652D01*
X235773D01*
X223777Y30651D02*
X225776D01*
X224776D01*
Y25653D01*
X225776Y24653D01*
X226776D01*
X227775Y25653D01*
X221777Y28652D02*
Y25653D01*
X220778Y24653D01*
X217779D01*
Y28652D01*
X214780Y24653D02*
Y29651D01*
Y27652D01*
X215779D01*
X213780D01*
X214780D01*
Y29651D01*
X213780Y30651D01*
X209781Y24653D02*
Y29651D01*
Y27652D01*
X210781D01*
X208782D01*
X209781D01*
Y29651D01*
X208782Y30651D01*
X205783Y24653D02*
X203783D01*
X204783D01*
Y28652D01*
X205783D01*
X200784Y24653D02*
Y28652D01*
X197785D01*
X196785Y27652D01*
Y24653D01*
X192787Y22654D02*
X191787D01*
X190787Y23653D01*
Y28652D01*
X193786D01*
X194786Y27652D01*
Y25653D01*
X193786Y24653D01*
X190787D01*
X185789D02*
X187788D01*
X188788Y25653D01*
Y27652D01*
X187788Y28652D01*
X185789D01*
X184789Y27652D01*
Y26652D01*
X188788D01*
X182790Y28652D02*
Y24653D01*
Y26652D01*
X181790Y27652D01*
X180791Y28652D01*
X179791D01*
X268654Y123031D02*
Y127030D01*
X266655Y125031D02*
X270654D01*
X268654Y135028D02*
Y139026D01*
X266655Y137027D02*
X270654D01*
X268654Y147024D02*
Y151023D01*
Y159020D02*
Y163019D01*
X212598Y236547D02*
X211943Y237204D01*
X210630D01*
X209975Y236547D01*
Y233924D01*
X210630Y233268D01*
X211943D01*
X212598Y233924D01*
Y236547D01*
X187992Y233268D02*
X186680D01*
X187336D01*
Y237204D01*
X187992Y236547D01*
Y225393D02*
X185368D01*
X186680Y226705D02*
Y224081D01*
X187992Y245078D02*
X185368D01*
X239173Y229329D02*
Y225394D01*
X237205D01*
X236549Y226050D01*
Y228674D01*
X237205Y229329D01*
X239173D01*
X232614Y228674D02*
X233270Y229329D01*
X234581D01*
X235238Y228674D01*
Y226050D01*
X234581Y225394D01*
X233270D01*
X232614Y226050D01*
X231302Y229329D02*
Y225394D01*
X228678D01*
X227366Y229329D02*
Y225394D01*
Y226706D01*
X224742Y229329D01*
X226710Y227362D01*
X224742Y225394D01*
X227362Y216535D02*
X224738D01*
X226050Y217847D02*
Y215223D01*
X228346Y247047D02*
X225723D01*
X235236Y239172D02*
Y235236D01*
X233268D01*
X232612Y235892D01*
Y238516D01*
X233268Y239172D01*
X235236D01*
X231300D02*
X229989D01*
X230644D01*
Y235236D01*
X231300D01*
X229989D01*
X226053Y239172D02*
X227365D01*
X228021Y238516D01*
Y235892D01*
X227365Y235236D01*
X226053D01*
X225397Y235892D01*
Y238516D01*
X226053Y239172D01*
X255907Y215551D02*
X258531D01*
X259842Y214239D01*
X258531Y212927D01*
X255907D01*
X256563Y208992D02*
X255907Y209648D01*
Y210960D01*
X256563Y211615D01*
X259187D01*
X259842Y210960D01*
Y209648D01*
X259187Y208992D01*
X256563Y205056D02*
X255907Y205712D01*
Y207024D01*
X256563Y207680D01*
X259187D01*
X259842Y207024D01*
Y205712D01*
X259187Y205056D01*
X241143Y212598D02*
X245079D01*
Y210631D01*
X244423Y209975D01*
X243767D01*
X243111Y210631D01*
Y212598D01*
Y210631D01*
X242455Y209975D01*
X241799D01*
X241143Y210631D01*
Y212598D01*
X241799Y208663D02*
X241143Y208007D01*
Y206695D01*
X241799Y206039D01*
X242455D01*
X243111Y206695D01*
Y207351D01*
Y206695D01*
X243767Y206039D01*
X244423D01*
X245079Y206695D01*
Y208007D01*
X244423Y208663D01*
X235236Y211614D02*
Y210302D01*
Y210958D01*
X231300D01*
X231956Y211614D01*
X231300Y205711D02*
Y208334D01*
X233268D01*
X232612Y207023D01*
Y206366D01*
X233268Y205711D01*
X234580D01*
X235236Y206366D01*
Y207678D01*
X234580Y208334D01*
X225394Y211614D02*
Y210302D01*
Y210958D01*
X221458D01*
X222114Y211614D01*
X225394Y205711D02*
Y208334D01*
X222770Y205711D01*
X222114D01*
X221458Y206366D01*
Y207678D01*
X222114Y208334D01*
X215551Y211614D02*
Y210302D01*
Y210958D01*
X211615D01*
X212271Y211614D01*
X215551Y208334D02*
Y207023D01*
Y207678D01*
X211615D01*
X212271Y208334D01*
X204724Y215551D02*
X202101D01*
X200789Y214239D01*
X202101Y212927D01*
X204724D01*
X202757D01*
Y215551D01*
X204724Y211615D02*
Y210303D01*
Y210960D01*
X200789D01*
X201445Y211615D01*
Y208336D02*
X200789Y207680D01*
Y206368D01*
X201445Y205712D01*
X204068D01*
X204724Y206368D01*
Y207680D01*
X204068Y208336D01*
X201445D01*
X194882Y215551D02*
X192258D01*
X190946Y214239D01*
X192258Y212927D01*
X194882D01*
X192914D01*
Y215551D01*
X194226Y211615D02*
X194882Y210960D01*
Y209648D01*
X194226Y208992D01*
X191602D01*
X190946Y209648D01*
Y210960D01*
X191602Y211615D01*
X192258D01*
X192914Y210960D01*
Y208992D01*
X181760Y212927D02*
X181104Y213583D01*
Y214895D01*
X181760Y215551D01*
X184383D01*
X185039Y214895D01*
Y213583D01*
X184383Y212927D01*
X183071D01*
Y214239D01*
X185039Y211615D02*
X181104D01*
X185039Y208992D01*
X181104D01*
Y207680D02*
X185039D01*
Y205712D01*
X184383Y205056D01*
X181760D01*
X181104Y205712D01*
Y207680D01*
X261484Y181431D02*
X260828Y182087D01*
Y183399D01*
X261484Y184055D01*
X264108D01*
X264764Y183399D01*
Y182087D01*
X264108Y181431D01*
X262796D01*
Y182743D01*
X264764Y180119D02*
X260828D01*
X264764Y177496D01*
X260828D01*
Y176184D02*
X264764D01*
Y174216D01*
X264108Y173560D01*
X261484D01*
X260828Y174216D01*
Y176184D01*
X254921Y184055D02*
X252297D01*
X250986Y182743D01*
X252297Y181431D01*
X254921D01*
X252953D01*
Y184055D01*
X250986Y180119D02*
Y177496D01*
X251642D01*
X254265Y180119D01*
X254921D01*
X245079Y184055D02*
X242455D01*
X241143Y182743D01*
X242455Y181431D01*
X245079D01*
X243111D01*
Y184055D01*
X241143Y177496D02*
Y180119D01*
X243111D01*
X242455Y178807D01*
Y178152D01*
X243111Y177496D01*
X244423D01*
X245079Y178152D01*
Y179463D01*
X244423Y180119D01*
X235236Y184055D02*
X232612D01*
X231300Y182743D01*
X232612Y181431D01*
X235236D01*
X233268D01*
Y184055D01*
X231300Y177496D02*
Y180119D01*
X233268D01*
X232612Y178807D01*
Y178152D01*
X233268Y177496D01*
X234580D01*
X235236Y178152D01*
Y179463D01*
X234580Y180119D01*
X221458Y184055D02*
X225394D01*
Y182087D01*
X224738Y181431D01*
X224082D01*
X223426Y182087D01*
Y184055D01*
Y182087D01*
X222770Y181431D01*
X222114D01*
X221458Y182087D01*
Y184055D01*
X225394Y180119D02*
Y178807D01*
Y179463D01*
X221458D01*
X222114Y180119D01*
X225394Y176840D02*
Y175528D01*
Y176184D01*
X221458D01*
X222114Y176840D01*
X211615Y184055D02*
X215551D01*
Y182087D01*
X214895Y181431D01*
X214239D01*
X213583Y182087D01*
Y184055D01*
Y182087D01*
X212927Y181431D01*
X212271D01*
X211615Y182087D01*
Y184055D01*
X215551Y180119D02*
Y178807D01*
Y179463D01*
X211615D01*
X212271Y180119D01*
Y176840D02*
X211615Y176184D01*
Y174872D01*
X212271Y174216D01*
X214895D01*
X215551Y174872D01*
Y176184D01*
X214895Y176840D01*
X212271D01*
X200789Y184055D02*
X204724D01*
Y182087D01*
X204068Y181431D01*
X203413D01*
X202757Y182087D01*
Y184055D01*
Y182087D01*
X202101Y181431D01*
X201445D01*
X200789Y182087D01*
Y184055D01*
X204724Y180119D02*
Y178807D01*
Y179463D01*
X200789D01*
X201445Y180119D01*
X204724Y174872D02*
X200789D01*
X202757Y176840D01*
Y174216D01*
X190946Y184055D02*
X194882D01*
Y182087D01*
X194226Y181431D01*
X193570D01*
X192914Y182087D01*
Y184055D01*
Y182087D01*
X192258Y181431D01*
X191602D01*
X190946Y182087D01*
Y184055D01*
X194882Y180119D02*
Y178807D01*
Y179463D01*
X190946D01*
X191602Y180119D01*
X190946Y174216D02*
Y176840D01*
X192914D01*
X192258Y175528D01*
Y174872D01*
X192914Y174216D01*
X194226D01*
X194882Y174872D01*
Y176184D01*
X194226Y176840D01*
X185039Y184055D02*
X182416D01*
X181104Y182743D01*
X182416Y181431D01*
X185039D01*
X183071D01*
Y184055D01*
X181760Y180119D02*
X181104Y179463D01*
Y178152D01*
X181760Y177496D01*
X182416D01*
X183071Y178152D01*
X183728Y177496D01*
X184383D01*
X185039Y178152D01*
Y179463D01*
X184383Y180119D01*
X183728D01*
X183071Y179463D01*
X182416Y180119D01*
X181760D01*
X183071Y179463D02*
Y178152D01*
X-984Y0D02*
X0D01*
X-984Y263779D02*
X-984Y0D01*
X-984Y263779D02*
X274606D01*
Y0D02*
Y263779D01*
X0Y0D02*
X274606D01*
D14*
X234846Y145489D02*
Y148113D01*
X234322Y148638D01*
X233272D01*
X232747Y148113D01*
Y145489D01*
X231698Y146014D02*
X231173Y145489D01*
X230124D01*
X229599Y146014D01*
Y146539D01*
X230124Y147064D01*
X230648D01*
X230124D01*
X229599Y147588D01*
Y148113D01*
X230124Y148638D01*
X231173D01*
X231698Y148113D01*
M02*
