G04*
G04 #@! TF.GenerationSoftware,Altium Limited,Altium Designer,19.1.8 (144)*
G04*
G04 Layer_Physical_Order=2*
G04 Layer_Color=16711680*
%FSLAX25Y25*%
%MOIN*%
G70*
G01*
G75*
%ADD13C,0.01000*%
%ADD14C,0.00394*%
%ADD51C,0.03937*%
%ADD53C,0.01968*%
%ADD56C,0.05906*%
%ADD57R,0.05906X0.05906*%
%ADD58R,0.05906X0.05906*%
%ADD59C,0.05512*%
%ADD60C,0.31496*%
%ADD61C,0.04724*%
%ADD62C,0.19685*%
%ADD63C,0.05000*%
D13*
X199961Y240158D02*
X204882Y235236D01*
X189961Y240158D02*
X199961D01*
X186024Y244094D02*
X189961Y240158D01*
X186024Y244094D02*
Y249016D01*
X183071Y251969D02*
X186024Y249016D01*
X142716Y201771D02*
X177165Y236221D01*
X178150D01*
X105315Y242126D02*
X109252D01*
X62008Y198819D02*
X105315Y242126D01*
X62008Y150591D02*
Y198819D01*
X101378Y231299D02*
X104331Y234252D01*
X100394Y231299D02*
X101378D01*
X66929Y197835D02*
X100394Y231299D01*
X66929Y165669D02*
Y197835D01*
X137795Y201771D02*
X142716D01*
X186024Y9843D02*
Y45276D01*
X181102Y50197D02*
X186024Y45276D01*
X169291Y50197D02*
X181102D01*
X201772Y9843D02*
Y58071D01*
X144685Y103347D02*
X202756D01*
X105315Y142717D02*
X144685Y103347D01*
X180118Y116142D02*
Y144648D01*
X171633Y153133D02*
X180118Y144648D01*
X151869Y165354D02*
X164090Y153133D01*
X139764Y165354D02*
X151869D01*
X164090Y153133D02*
X171633D01*
X176181Y110236D02*
Y146322D01*
X170970Y151533D02*
X176181Y146322D01*
X163427Y151533D02*
X170970D01*
X151575Y163386D02*
X163427Y151533D01*
X135827Y163386D02*
X151575D01*
X142874Y147480D02*
X169291D01*
X219488Y110236D02*
X233268Y96457D01*
X186024Y110236D02*
X219488D01*
X180118Y116142D02*
X186024Y110236D01*
X123031Y148622D02*
Y163386D01*
X118294Y168123D02*
X123031Y163386D01*
X118294Y168123D02*
Y171444D01*
X144016Y137480D02*
X169291D01*
X129921Y151575D02*
X144016Y137480D01*
X144173Y127480D02*
X169291D01*
X123031Y148622D02*
X144173Y127480D01*
X138779Y151575D02*
X142874Y147480D01*
X211614Y233937D02*
Y250984D01*
X205709Y256890D02*
X211614Y250984D01*
X157480Y256890D02*
X205709D01*
X143701Y243110D02*
X157480Y256890D01*
X211614Y233937D02*
X218504Y227047D01*
X214047Y171409D02*
X233425Y190787D01*
X166189Y171409D02*
X214047D01*
X130905Y168307D02*
X135827Y163386D01*
X133858Y171260D02*
X139764Y165354D01*
X164370Y169291D02*
X221929D01*
X159449Y174213D02*
X164370Y169291D01*
X149606Y174213D02*
X159449D01*
X159449Y178150D02*
X166189Y171409D01*
X142717Y178150D02*
X159449D01*
X204725Y182087D02*
X213425Y190787D01*
X169291Y182087D02*
X204725D01*
X167323Y180118D02*
X169291Y182087D01*
X174213Y176181D02*
X208819D01*
X223425Y190787D01*
X229961Y167323D02*
X253425Y190787D01*
X159449Y167323D02*
X229961D01*
X156496Y170276D02*
X159449Y167323D01*
X221929Y169291D02*
X243425Y190787D01*
X133858Y171260D02*
Y176181D01*
X129921Y168307D02*
X130905D01*
X180118Y106299D02*
X215551D01*
X225394Y96457D01*
X176181Y110236D02*
X180118Y106299D01*
X165354Y242126D02*
X171260D01*
X161417Y238189D02*
X165354Y242126D01*
X161417Y233268D02*
Y238189D01*
X155512Y227362D02*
X161417Y233268D01*
X166339D02*
Y236221D01*
X158465Y225394D02*
X166339Y233268D01*
X145669Y225394D02*
X158465D01*
X147203Y227362D02*
X155512D01*
X236221Y104331D02*
X243110D01*
X249016Y98425D01*
Y66929D02*
Y98425D01*
X209646Y27559D02*
X249016Y66929D01*
X202756Y103347D02*
X209646Y96457D01*
X133423Y241142D02*
X147203Y227362D01*
X128937Y241142D02*
X133423D01*
X137795Y233268D02*
X145669Y225394D01*
X128937Y233268D02*
X137795D01*
X136811Y243110D02*
X143701D01*
X108198Y208592D02*
Y224410D01*
X90551Y190945D02*
X108198Y208592D01*
X90551Y134843D02*
Y190945D01*
X93504Y198819D02*
Y220473D01*
X85630Y190945D02*
X93504Y198819D01*
X85630Y154685D02*
Y190945D01*
X66929Y165354D02*
Y165669D01*
X209646Y9843D02*
Y27559D01*
X62008Y150591D02*
X76772Y135827D01*
X102472Y229440D02*
X110346D01*
X93504Y220473D02*
X102472Y229440D01*
X110346D02*
X115157Y234252D01*
X66929Y165669D02*
X76772Y155827D01*
Y145827D02*
X85630Y154685D01*
X76772Y125827D02*
X81535D01*
X90551Y134843D01*
X-984Y0D02*
X0D01*
X-984Y263779D02*
X-984Y0D01*
X-984Y263779D02*
X274606D01*
Y0D02*
Y263779D01*
X0Y0D02*
X274606D01*
D14*
X234846Y145489D02*
Y148113D01*
X234322Y148638D01*
X233272D01*
X232747Y148113D01*
Y145489D01*
X231698Y146014D02*
X231173Y145489D01*
X230124D01*
X229599Y146014D01*
Y146539D01*
X230124Y147064D01*
X230648D01*
X230124D01*
X229599Y147588D01*
Y148113D01*
X230124Y148638D01*
X231173D01*
X231698Y148113D01*
D51*
X69033Y105450D02*
X76395D01*
X65945Y102362D02*
X69033Y105450D01*
X65945Y102362D02*
Y120079D01*
X42323Y143701D02*
X65945Y120079D01*
X69882Y238189D02*
X84358D01*
X64272Y232579D02*
X69882Y238189D01*
X54429Y232579D02*
X64272D01*
X84358Y238189D02*
X89279Y233268D01*
X89567D01*
X39370Y192913D02*
X42323Y189961D01*
Y143701D02*
Y189961D01*
X76395Y105450D02*
X76772Y105827D01*
X65945Y50709D02*
Y102024D01*
Y50709D02*
X96457Y20197D01*
X193898Y73819D02*
X231299D01*
X100079D02*
X193898D01*
Y70197D02*
Y73819D01*
X193898Y70197D02*
X193898Y70197D01*
X231299Y73819D02*
X241142Y83661D01*
X96457Y70197D02*
X100079Y73819D01*
X136811Y98425D02*
X137099D01*
X139067Y96457D01*
X170276D01*
X95472Y164370D02*
X104331Y173228D01*
X95472Y114528D02*
Y164370D01*
X76772Y95827D02*
X95472Y114528D01*
X246063Y157480D02*
X251969Y163386D01*
X169291Y157480D02*
X246063D01*
X193898Y9843D02*
Y70197D01*
X256890Y168307D02*
X261811D01*
X251969Y163386D02*
X256890Y168307D01*
X251969Y124016D02*
Y163386D01*
X241142Y83661D02*
Y96457D01*
X263425Y200255D02*
X269685Y193995D01*
Y176181D02*
Y193995D01*
X261811Y168307D02*
X269685Y176181D01*
X263425Y200255D02*
Y200787D01*
X253425D02*
X263425D01*
X245295Y208917D02*
X253425Y200787D01*
X226634Y208917D02*
X245295D01*
X218504Y217047D02*
X226634Y208917D01*
X211299Y224252D02*
X218504Y217047D01*
X205866Y224252D02*
X211299D01*
X204882Y225236D02*
X205866Y224252D01*
X194882Y225236D02*
X204882D01*
X76772Y89882D02*
X96457Y70197D01*
X76772Y89882D02*
Y95827D01*
D53*
X107283Y189961D02*
X163386D01*
X164370D01*
X175197Y200787D01*
X98425Y181102D02*
X107283Y189961D01*
X175197Y200787D02*
X183425D01*
D56*
X232795Y216535D02*
D03*
X242795D02*
D03*
X252795D02*
D03*
X12835D02*
D03*
X22835D02*
D03*
X32835D02*
D03*
X76772Y219331D02*
D03*
X263425Y200787D02*
D03*
Y190787D02*
D03*
X253425Y200787D02*
D03*
Y190787D02*
D03*
X243425Y200787D02*
D03*
Y190787D02*
D03*
X233425Y200787D02*
D03*
Y190787D02*
D03*
X223425Y200787D02*
D03*
Y190787D02*
D03*
X213425Y200787D02*
D03*
Y190787D02*
D03*
X203425Y200787D02*
D03*
Y190787D02*
D03*
X193425Y200787D02*
D03*
Y190787D02*
D03*
X183425Y200787D02*
D03*
X218504Y217047D02*
D03*
Y227047D02*
D03*
Y237047D02*
D03*
Y247047D02*
D03*
X96457Y60197D02*
D03*
Y50197D02*
D03*
Y40197D02*
D03*
Y30197D02*
D03*
Y20197D02*
D03*
X76772Y155827D02*
D03*
Y145827D02*
D03*
Y135827D02*
D03*
Y125827D02*
D03*
Y105827D02*
D03*
Y115827D02*
D03*
X169291Y147480D02*
D03*
Y137480D02*
D03*
Y127480D02*
D03*
Y117480D02*
D03*
X194882Y245236D02*
D03*
X204882D02*
D03*
X194882Y235236D02*
D03*
X204882D02*
D03*
X194882Y225236D02*
D03*
X261811Y147795D02*
D03*
Y137795D02*
D03*
Y127795D02*
D03*
D57*
X262795Y216535D02*
D03*
X42835D02*
D03*
X183425Y190787D02*
D03*
D58*
X76772Y229331D02*
D03*
X96457Y70197D02*
D03*
X76772Y95827D02*
D03*
X169291Y157480D02*
D03*
X204882Y225236D02*
D03*
X261811Y157795D02*
D03*
D59*
X241142Y9843D02*
D03*
X233268D02*
D03*
X225394D02*
D03*
X217520D02*
D03*
X209646D02*
D03*
X201772D02*
D03*
X193898D02*
D03*
X186024D02*
D03*
X178150D02*
D03*
X170276D02*
D03*
Y96457D02*
D03*
X178150D02*
D03*
X186024D02*
D03*
X193898D02*
D03*
X201772D02*
D03*
X209646D02*
D03*
X217520D02*
D03*
X225394D02*
D03*
X233268D02*
D03*
X241142D02*
D03*
D60*
X122047Y22638D02*
D03*
X251969Y241142D02*
D03*
X21654D02*
D03*
D61*
X77756Y179370D02*
D03*
Y198583D02*
D03*
D62*
X27559Y154213D02*
D03*
Y97126D02*
D03*
X110236Y157323D02*
D03*
Y117953D02*
D03*
D63*
X178150Y236221D02*
D03*
X163386Y189961D02*
D03*
X183071Y251969D02*
D03*
X137795Y201771D02*
D03*
X39370Y192913D02*
D03*
X169291Y50197D02*
D03*
X201772Y58071D02*
D03*
X136811Y98425D02*
D03*
X105315Y142717D02*
D03*
X251969Y124016D02*
D03*
X129921Y151575D02*
D03*
X138779D02*
D03*
X174213Y176181D02*
D03*
X167323Y180118D02*
D03*
X149606Y174213D02*
D03*
X142717Y178150D02*
D03*
X133858Y176181D02*
D03*
X129921Y168307D02*
D03*
X156496Y170276D02*
D03*
X171260Y242126D02*
D03*
X166339Y236221D02*
D03*
X236221Y104331D02*
D03*
X261811Y168307D02*
D03*
X154528Y234252D02*
D03*
X136811Y243110D02*
D03*
X128937Y241142D02*
D03*
Y233268D02*
D03*
X104331Y173228D02*
D03*
X98425Y181102D02*
D03*
X89567Y233268D02*
D03*
X54429Y232579D02*
D03*
X104331Y234252D02*
D03*
X109252Y242126D02*
D03*
X115157Y234252D02*
D03*
X108198Y224410D02*
D03*
X118294Y171444D02*
D03*
M02*
