G04*
G04 #@! TF.GenerationSoftware,Altium Limited,Altium Designer,19.1.8 (144)*
G04*
G04 Layer_Color=16711935*
%FSLAX25Y25*%
%MOIN*%
G70*
G01*
G75*
%ADD13C,0.01000*%
%ADD14C,0.00394*%
%ADD43C,0.06706*%
%ADD44R,0.06706X0.06706*%
%ADD45R,0.06706X0.06706*%
%ADD46C,0.06312*%
%ADD47C,0.32296*%
%ADD48C,0.05524*%
%ADD49C,0.20485*%
%ADD50C,0.05800*%
D13*
X-984Y0D02*
X0D01*
X-984Y263779D02*
X-984Y0D01*
X-984Y263779D02*
X274606D01*
Y0D02*
Y263779D01*
X0Y0D02*
X274606D01*
D14*
X234846Y145489D02*
Y148113D01*
X234322Y148638D01*
X233272D01*
X232747Y148113D01*
Y145489D01*
X231698Y146014D02*
X231173Y145489D01*
X230124D01*
X229599Y146014D01*
Y146539D01*
X230124Y147064D01*
X230648D01*
X230124D01*
X229599Y147588D01*
Y148113D01*
X230124Y148638D01*
X231173D01*
X231698Y148113D01*
D43*
X232795Y216535D02*
D03*
X242795D02*
D03*
X252795D02*
D03*
X12835D02*
D03*
X22835D02*
D03*
X32835D02*
D03*
X76772Y219331D02*
D03*
X263425Y200787D02*
D03*
Y190787D02*
D03*
X253425Y200787D02*
D03*
Y190787D02*
D03*
X243425Y200787D02*
D03*
Y190787D02*
D03*
X233425Y200787D02*
D03*
Y190787D02*
D03*
X223425Y200787D02*
D03*
Y190787D02*
D03*
X213425Y200787D02*
D03*
Y190787D02*
D03*
X203425Y200787D02*
D03*
Y190787D02*
D03*
X193425Y200787D02*
D03*
Y190787D02*
D03*
X183425Y200787D02*
D03*
X218504Y217047D02*
D03*
Y227047D02*
D03*
Y237047D02*
D03*
Y247047D02*
D03*
X96457Y60197D02*
D03*
Y50197D02*
D03*
Y40197D02*
D03*
Y30197D02*
D03*
Y20197D02*
D03*
X76772Y155827D02*
D03*
Y145827D02*
D03*
Y135827D02*
D03*
Y125827D02*
D03*
Y105827D02*
D03*
Y115827D02*
D03*
X169291Y147480D02*
D03*
Y137480D02*
D03*
Y127480D02*
D03*
Y117480D02*
D03*
X194882Y245236D02*
D03*
X204882D02*
D03*
X194882Y235236D02*
D03*
X204882D02*
D03*
X194882Y225236D02*
D03*
X261811Y147795D02*
D03*
Y137795D02*
D03*
Y127795D02*
D03*
D44*
X262795Y216535D02*
D03*
X42835D02*
D03*
X183425Y190787D02*
D03*
D45*
X76772Y229331D02*
D03*
X96457Y70197D02*
D03*
X76772Y95827D02*
D03*
X169291Y157480D02*
D03*
X204882Y225236D02*
D03*
X261811Y157795D02*
D03*
D46*
X241142Y9843D02*
D03*
X233268D02*
D03*
X225394D02*
D03*
X217520D02*
D03*
X209646D02*
D03*
X201772D02*
D03*
X193898D02*
D03*
X186024D02*
D03*
X178150D02*
D03*
X170276D02*
D03*
Y96457D02*
D03*
X178150D02*
D03*
X186024D02*
D03*
X193898D02*
D03*
X201772D02*
D03*
X209646D02*
D03*
X217520D02*
D03*
X225394D02*
D03*
X233268D02*
D03*
X241142D02*
D03*
D47*
X122047Y22638D02*
D03*
X251969Y241142D02*
D03*
X21654D02*
D03*
D48*
X77756Y179370D02*
D03*
Y198583D02*
D03*
D49*
X27559Y154213D02*
D03*
Y97126D02*
D03*
X110236Y157323D02*
D03*
Y117953D02*
D03*
D50*
X178150Y236221D02*
D03*
X163386Y189961D02*
D03*
X183071Y251969D02*
D03*
X137795Y201771D02*
D03*
X39370Y192913D02*
D03*
X169291Y50197D02*
D03*
X201772Y58071D02*
D03*
X136811Y98425D02*
D03*
X105315Y142717D02*
D03*
X251969Y124016D02*
D03*
X129921Y151575D02*
D03*
X138779D02*
D03*
X174213Y176181D02*
D03*
X167323Y180118D02*
D03*
X149606Y174213D02*
D03*
X142717Y178150D02*
D03*
X133858Y176181D02*
D03*
X129921Y168307D02*
D03*
X156496Y170276D02*
D03*
X171260Y242126D02*
D03*
X166339Y236221D02*
D03*
X236221Y104331D02*
D03*
X261811Y168307D02*
D03*
X154528Y234252D02*
D03*
X136811Y243110D02*
D03*
X128937Y241142D02*
D03*
Y233268D02*
D03*
X104331Y173228D02*
D03*
X98425Y181102D02*
D03*
X89567Y233268D02*
D03*
X54429Y232579D02*
D03*
X104331Y234252D02*
D03*
X109252Y242126D02*
D03*
X115157Y234252D02*
D03*
X108198Y224410D02*
D03*
X118294Y171444D02*
D03*
M02*
