G04*
G04 #@! TF.GenerationSoftware,Altium Limited,Altium Designer,20.0.10 (225)*
G04*
G04 Layer_Color=32768*
%FSLAX25Y25*%
%MOIN*%
G70*
G01*
G75*
%ADD36C,0.03937*%
%ADD118C,0.00394*%
%ADD120C,0.00197*%
D36*
Y316929D02*
Y635827D01*
X316929D01*
X0Y0D02*
Y318898D01*
Y0D02*
X635827D01*
Y318898D01*
X318898Y635827D02*
X318898Y0D01*
X318898Y635827D02*
X635827D01*
Y316929D02*
Y635827D01*
X0Y318898D02*
X635827D01*
D118*
X295276Y576772D02*
X299213D01*
X297244Y574803D02*
Y578740D01*
X300984Y569882D02*
Y583661D01*
X293504Y569882D02*
Y583661D01*
X300984D01*
X293504Y569882D02*
X300984D01*
X92520Y618110D02*
Y622047D01*
X90551Y620079D02*
X94488D01*
X108268Y602362D02*
Y606299D01*
X106299Y604331D02*
X110236D01*
X101378Y608071D02*
X115157D01*
X101378Y600591D02*
X115157D01*
X101378D02*
Y608071D01*
X115157Y600591D02*
Y608071D01*
X76772Y602362D02*
Y606299D01*
X74803Y604331D02*
X78740D01*
X69882Y600591D02*
X83661D01*
X69882Y608071D02*
X83661D01*
Y600591D02*
Y608071D01*
X69882Y600591D02*
Y608071D01*
X246063Y531496D02*
Y535433D01*
X244094Y533465D02*
X248031D01*
X259842Y576772D02*
X263779D01*
X261811Y574803D02*
Y578740D01*
X265551Y569882D02*
Y583661D01*
X258071Y569882D02*
Y583661D01*
X265551D01*
X258071Y569882D02*
X265551D01*
X216535Y529528D02*
X220473D01*
X218504Y527559D02*
Y531496D01*
X214764Y522638D02*
Y536417D01*
X222244Y522638D02*
Y536417D01*
X214764Y522638D02*
X222244D01*
X214764Y536417D02*
X222244D01*
X175197Y417323D02*
Y421260D01*
X173228Y419291D02*
X177165D01*
X135827Y417323D02*
Y421260D01*
X133858Y419291D02*
X137795D01*
X148721Y415945D02*
Y422638D01*
X162303Y415945D02*
Y422638D01*
X148721D02*
X162303D01*
X148721Y415945D02*
X162303D01*
X153543Y419291D02*
X157480D01*
X155512Y417323D02*
Y421260D01*
X281496Y389764D02*
Y393701D01*
X279528Y391732D02*
X283465D01*
X274606Y387992D02*
X288386D01*
X274606Y395472D02*
X288386D01*
Y387992D02*
Y395472D01*
X274606Y387992D02*
Y395472D01*
X261811Y413386D02*
Y417323D01*
X259842Y415354D02*
X263779D01*
X254921Y419095D02*
X268701D01*
X254921Y411614D02*
X268701D01*
X254921D02*
Y419095D01*
X268701Y411614D02*
Y419095D01*
X305118Y448819D02*
Y452756D01*
X303150Y450787D02*
X307087D01*
X298228Y447047D02*
X312008D01*
X298228Y454528D02*
X312008D01*
Y447047D02*
Y454528D01*
X298228Y447047D02*
Y454528D01*
X311910Y431693D02*
Y438386D01*
X298327Y431693D02*
Y438386D01*
Y431693D02*
X311910D01*
X298327Y438386D02*
X311910D01*
X303150Y435039D02*
X307087D01*
X305118Y433071D02*
Y437008D01*
X311910Y415945D02*
Y422638D01*
X298327Y415945D02*
Y422638D01*
Y415945D02*
X311910D01*
X298327Y422638D02*
X311910D01*
X303150Y419291D02*
X307087D01*
X305118Y417323D02*
Y421260D01*
X305118Y401575D02*
Y405512D01*
X303150Y403543D02*
X307087D01*
X298228Y399803D02*
X312008D01*
X298228Y407283D02*
X312008D01*
Y399803D02*
Y407283D01*
X298228Y399803D02*
Y407283D01*
X150183Y559632D02*
X152967Y562416D01*
X150183D02*
X152967Y559632D01*
X149348Y568540D02*
X159091Y558797D01*
X144058Y563251D02*
X153802Y553507D01*
X144058Y563251D02*
X149348Y568540D01*
X153802Y553507D02*
X159091Y558797D01*
X138372Y530920D02*
X141156Y528136D01*
X138372D02*
X141156Y530920D01*
X181679Y543884D02*
X184463Y546667D01*
X181679D02*
X184463Y543884D01*
X180844Y552792D02*
X190587Y543048D01*
X175554Y547503D02*
X185298Y537759D01*
X175554Y547503D02*
X180844Y552792D01*
X185298Y537759D02*
X190587Y543048D01*
X173805Y536010D02*
X176589Y538794D01*
X173805D02*
X176589Y536010D01*
X172970Y544918D02*
X182713Y535174D01*
X167680Y539629D02*
X177424Y529885D01*
X167680Y539629D02*
X172970Y544918D01*
X177424Y529885D02*
X182713Y535174D01*
X134435Y496639D02*
X137219Y499423D01*
X134435D02*
X137219Y496639D01*
X128310Y500259D02*
X138054Y490515D01*
X133600Y505548D02*
X143343Y495804D01*
X138054Y490515D02*
X143343Y495804D01*
X128310Y500259D02*
X133600Y505548D01*
X106876Y538794D02*
X109660Y536010D01*
X106876Y536010D02*
X109660Y538794D01*
X100751Y535174D02*
X110495Y544918D01*
X106041Y529885D02*
X115784Y539629D01*
X100751Y535174D02*
X106041Y529885D01*
X110495Y544918D02*
X115784Y539629D01*
X102362Y588583D02*
X106299D01*
X104331Y586614D02*
Y590551D01*
X108071Y581693D02*
Y595472D01*
X100591Y581693D02*
Y595472D01*
X108071D01*
X100591Y581693D02*
X108071D01*
X102362Y568898D02*
X106299D01*
X104331Y566929D02*
Y570866D01*
X100591Y562008D02*
Y575787D01*
X108071Y562008D02*
Y575787D01*
X100591Y562008D02*
X108071D01*
X100591Y575787D02*
X108071D01*
X62992Y561024D02*
X66929D01*
X64961Y559055D02*
Y562992D01*
X78740Y545276D02*
X82677D01*
X80709Y543307D02*
Y547244D01*
X76968Y538386D02*
Y552165D01*
X84449Y538386D02*
Y552165D01*
X76968Y538386D02*
X84449D01*
X76968Y552165D02*
X84449D01*
X78740Y584646D02*
X82677D01*
X80709Y582677D02*
Y586614D01*
X84449Y577756D02*
Y591535D01*
X76968Y577756D02*
Y591535D01*
X84449D01*
X76968Y577756D02*
X84449D01*
X37402Y562992D02*
Y566929D01*
X35433Y564961D02*
X39370D01*
X30512Y568701D02*
X44291D01*
X30512Y561221D02*
X44291D01*
X30512D02*
Y568701D01*
X44291Y561221D02*
Y568701D01*
X228346Y498032D02*
X232283D01*
X230315Y496063D02*
Y500000D01*
X234055Y491142D02*
Y504921D01*
X226575Y491142D02*
Y504921D01*
X234055D01*
X226575Y491142D02*
X234055D01*
X248031Y498032D02*
X251969D01*
X250000Y496063D02*
Y500000D01*
X253740Y491142D02*
Y504921D01*
X246260Y491142D02*
Y504921D01*
X253740D01*
X246260Y491142D02*
X253740D01*
X228346Y474409D02*
X232283D01*
X230315Y472441D02*
Y476378D01*
X234055Y467520D02*
Y481299D01*
X226575Y467520D02*
Y481299D01*
X234055D01*
X226575Y467520D02*
X234055D01*
X248031Y474409D02*
X251969D01*
X250000Y472441D02*
Y476378D01*
X253740Y467520D02*
Y481299D01*
X246260Y467520D02*
Y481299D01*
X253740D01*
X246260Y467520D02*
X253740D01*
X228346Y450787D02*
X232283D01*
X230315Y448819D02*
Y452756D01*
X234055Y443898D02*
Y457677D01*
X226575Y443898D02*
Y457677D01*
X234055D01*
X226575Y443898D02*
X234055D01*
X248031Y450787D02*
X251969D01*
X250000Y448819D02*
Y452756D01*
X253740Y443898D02*
Y457677D01*
X246260Y443898D02*
Y457677D01*
X253740D01*
X246260Y443898D02*
X253740D01*
X155512Y435546D02*
Y439483D01*
X153543Y437514D02*
X157480D01*
X148622Y441255D02*
X162402D01*
X148622Y433774D02*
X162402D01*
X148622D02*
Y441255D01*
X162402Y433774D02*
Y441255D01*
X114173Y415354D02*
X118110D01*
X116142Y413386D02*
Y417323D01*
X112402Y408465D02*
Y422244D01*
X119882Y408465D02*
Y422244D01*
X112402Y408465D02*
X119882D01*
X112402Y422244D02*
X119882D01*
X177165Y474409D02*
X181102D01*
X179134Y472441D02*
Y476378D01*
X182874Y467520D02*
Y481299D01*
X175394Y467520D02*
Y481299D01*
X182874D01*
X175394Y467520D02*
X182874D01*
X190945Y417323D02*
Y421260D01*
X188976Y419291D02*
X192913D01*
X184055Y415551D02*
X197835D01*
X184055Y423032D02*
X197835D01*
Y415551D02*
Y423032D01*
X184055Y415551D02*
Y423032D01*
X159449Y452756D02*
Y456693D01*
X157480Y454724D02*
X161417D01*
X152559Y458464D02*
X166339D01*
X152559Y450984D02*
X166339D01*
X152559D02*
Y458464D01*
X166339Y450984D02*
Y458464D01*
X388189Y605118D02*
X392126D01*
X390158Y603150D02*
Y607087D01*
X575984Y575984D02*
Y579921D01*
X574016Y577953D02*
X577953D01*
X569095Y574213D02*
X582874D01*
X569095Y581693D02*
X582874D01*
Y574213D02*
Y581693D01*
X569095Y574213D02*
Y581693D01*
X575984Y559449D02*
Y563386D01*
X574016Y561417D02*
X577953D01*
X569095Y557677D02*
X582874D01*
X569095Y565158D02*
X582874D01*
Y557677D02*
Y565158D01*
X569095Y557677D02*
Y565158D01*
X558268Y426772D02*
Y430709D01*
X556299Y428740D02*
X560236D01*
X531693Y434055D02*
X539173D01*
X531693Y420276D02*
X539173D01*
Y434055D01*
X531693Y420276D02*
Y434055D01*
X535433Y425197D02*
Y429134D01*
X533465Y427165D02*
X537402D01*
X569095Y565945D02*
Y573425D01*
X582874Y565945D02*
Y573425D01*
X569095D02*
X582874D01*
X569095Y565945D02*
X582874D01*
X574016Y569685D02*
X577953D01*
X575984Y567717D02*
Y571654D01*
X625197Y440158D02*
X629134D01*
X627165Y438189D02*
Y442126D01*
X630512Y433366D02*
Y446949D01*
X623819Y433366D02*
Y446949D01*
X630512D01*
X623819Y433366D02*
X630512D01*
X625197Y477559D02*
X629134D01*
X627165Y475591D02*
Y479528D01*
X630512Y470768D02*
Y484350D01*
X623819Y470768D02*
Y484350D01*
X630512D01*
X623819Y470768D02*
X630512D01*
X625197Y514961D02*
X629134D01*
X627165Y512992D02*
Y516929D01*
X630512Y508169D02*
Y521752D01*
X623819Y508169D02*
Y521752D01*
X630512D01*
X623819Y508169D02*
X630512D01*
X544882Y511811D02*
Y515748D01*
X542913Y513779D02*
X546850D01*
X617717Y578346D02*
Y582283D01*
X615748Y580315D02*
X619685D01*
X610827Y576575D02*
X624606D01*
X610827Y584055D02*
X624606D01*
Y576575D02*
Y584055D01*
X610827Y576575D02*
Y584055D01*
X623819Y547539D02*
X630512D01*
X623819Y561122D02*
X630512D01*
X623819Y547539D02*
Y561122D01*
X630512Y547539D02*
Y561122D01*
X627165Y552362D02*
Y556299D01*
X625197Y554331D02*
X629134D01*
X370472Y591339D02*
X374409D01*
X372441Y589370D02*
Y593307D01*
X376181Y584449D02*
Y598228D01*
X368701Y584449D02*
Y598228D01*
X376181D01*
X368701Y584449D02*
X376181D01*
X368701Y627756D02*
X376181D01*
X368701Y613976D02*
X376181D01*
Y627756D01*
X368701Y613976D02*
Y627756D01*
X372441Y618898D02*
Y622835D01*
X370472Y620866D02*
X374410D01*
X480315Y552756D02*
X484252D01*
X482283Y550787D02*
Y554724D01*
X486024Y545866D02*
Y559646D01*
X478543Y545866D02*
Y559646D01*
X486024D01*
X478543Y545866D02*
X486024D01*
X470472Y552756D02*
X474409D01*
X472441Y550787D02*
Y554724D01*
X476181Y545866D02*
Y559646D01*
X468701Y545866D02*
Y559646D01*
X476181D01*
X468701Y545866D02*
X476181D01*
X442520Y540551D02*
Y544488D01*
X440551Y542520D02*
X444488D01*
X435630Y546260D02*
X449409D01*
X435630Y538779D02*
X449409D01*
X435630D02*
Y546260D01*
X449409Y538779D02*
Y546260D01*
X442520Y530709D02*
Y534646D01*
X440551Y532677D02*
X444488D01*
X435630Y536417D02*
X449409D01*
X435630Y528937D02*
X449409D01*
X435630D02*
Y536417D01*
X449409Y528937D02*
Y536417D01*
X400970Y545093D02*
X403754Y542309D01*
X400970D02*
X403754Y545093D01*
X400135Y536184D02*
X409879Y545928D01*
X394846Y541474D02*
X404589Y551217D01*
X409879Y545928D01*
X394846Y541474D02*
X400135Y536184D01*
X379710Y524227D02*
X382494Y521443D01*
X379710Y521443D02*
X382494Y524227D01*
X373586Y520608D02*
X383330Y530351D01*
X378875Y515318D02*
X388619Y525062D01*
X373586Y520608D02*
X378875Y515318D01*
X383330Y530351D02*
X388619Y525062D01*
X402939Y521864D02*
X405723Y519080D01*
X402939D02*
X405723Y521864D01*
X427559Y401575D02*
X431496D01*
X429528Y399606D02*
Y403543D01*
X433268Y394685D02*
Y408465D01*
X425787Y394685D02*
Y408465D01*
X433268D01*
X425787Y394685D02*
X433268D01*
X400000Y401575D02*
X403937D01*
X401968Y399606D02*
Y403543D01*
X405709Y394685D02*
Y408465D01*
X398228Y394685D02*
Y408465D01*
X405709D01*
X398228Y394685D02*
X405709D01*
X390945Y401575D02*
X394882D01*
X392913Y399606D02*
Y403543D01*
X396654Y394685D02*
Y408465D01*
X389173Y394685D02*
Y408465D01*
X396654D01*
X389173Y394685D02*
X396654D01*
X374016Y348425D02*
X377953D01*
X375984Y346457D02*
Y350394D01*
X379724Y341535D02*
Y355315D01*
X372244Y341535D02*
Y355315D01*
X379724D01*
X372244Y341535D02*
X379724D01*
X449803Y349410D02*
X453740D01*
X451772Y347441D02*
Y351378D01*
X455512Y342520D02*
Y356299D01*
X448032Y342520D02*
Y356299D01*
X455512D01*
X448032Y342520D02*
X455512D01*
X474409Y383071D02*
X478346D01*
X476378Y381102D02*
Y385039D01*
X480118Y376181D02*
Y389961D01*
X472638Y376181D02*
Y389961D01*
X480118D01*
X472638Y376181D02*
X480118D01*
X508268Y383071D02*
X512205D01*
X510236Y381102D02*
Y385039D01*
X506496Y376181D02*
Y389961D01*
X513976Y376181D02*
Y389961D01*
X506496Y376181D02*
X513976D01*
X506496Y389961D02*
X513976D01*
X499213Y383071D02*
X503150D01*
X501181Y381102D02*
Y385039D01*
X497441Y376181D02*
Y389961D01*
X504921Y376181D02*
Y389961D01*
X497441Y376181D02*
X504921D01*
X497441Y389961D02*
X504921D01*
X533464Y383071D02*
X537402D01*
X535433Y381102D02*
Y385039D01*
X539173Y376181D02*
Y389961D01*
X531693Y376181D02*
Y389961D01*
X539173D01*
X531693Y376181D02*
X539173D01*
X450751Y449078D02*
X456041Y454367D01*
X460495Y439334D02*
X465784Y444623D01*
X456041Y454367D02*
X465784Y444623D01*
X450751Y449078D02*
X460495Y439334D01*
X456876Y448242D02*
X459660Y445458D01*
X456876D02*
X459660Y448242D01*
X615354Y402756D02*
X619291D01*
X617323Y400787D02*
Y404724D01*
X613583Y395866D02*
Y409646D01*
X621063Y395866D02*
Y409646D01*
X613583Y395866D02*
X621063D01*
X613583Y409646D02*
X621063D01*
X623819Y395965D02*
X630512D01*
X623819Y409547D02*
X630512D01*
X623819Y395965D02*
Y409547D01*
X630512Y395965D02*
Y409547D01*
X627165Y400787D02*
Y404724D01*
X625197Y402756D02*
X629134D01*
X600394Y391339D02*
Y395276D01*
X598425Y393307D02*
X602362D01*
X593504Y397047D02*
X607283D01*
X593504Y389567D02*
X607283D01*
X593504D02*
Y397047D01*
X607283Y389567D02*
Y397047D01*
X554331Y407874D02*
X558268D01*
X556299Y405905D02*
Y409842D01*
X560039Y400984D02*
Y414764D01*
X552559Y400984D02*
Y414764D01*
X560039D01*
X552559Y400984D02*
X560039D01*
X486972Y467458D02*
X492261Y462169D01*
X496715Y477202D02*
X502005Y471912D01*
X486972Y467458D02*
X496715Y477202D01*
X492261Y462169D02*
X502005Y471912D01*
X493096Y468293D02*
X495880Y471077D01*
X493096Y471077D02*
X495880Y468293D01*
X482148Y508231D02*
X487438Y513521D01*
X472405Y517975D02*
X477694Y523265D01*
X472405Y517975D02*
X482148Y508231D01*
X477694Y523265D02*
X487438Y513521D01*
X478529Y517140D02*
X481313Y514356D01*
X478529D02*
X481313Y517140D01*
X474274Y500357D02*
X479564Y505647D01*
X464531Y510101D02*
X469820Y515390D01*
X464531Y510101D02*
X474274Y500357D01*
X469820Y515390D02*
X479564Y505647D01*
X470655Y509266D02*
X473439Y506482D01*
X470655D02*
X473439Y509266D01*
X462781Y479738D02*
X465565Y476955D01*
X462781D02*
X465565Y479738D01*
X437660Y500430D02*
X442950Y495141D01*
X427917Y490686D02*
X433206Y485397D01*
X442950Y495141D01*
X427917Y490686D02*
X437660Y500430D01*
X434041Y491521D02*
X436825Y494305D01*
X434041D02*
X436825Y491521D01*
X368307Y534449D02*
X375787D01*
X368307Y548228D02*
X375787D01*
X368307Y534449D02*
Y548228D01*
X375787Y534449D02*
Y548228D01*
X372047Y539370D02*
Y543307D01*
X370079Y541339D02*
X374016D01*
X541535Y376181D02*
X549016D01*
X541535Y389961D02*
X549016D01*
X541535Y376181D02*
Y389961D01*
X549016Y376181D02*
Y389961D01*
X545276Y381102D02*
Y385039D01*
X543307Y383071D02*
X547244D01*
X470669Y148622D02*
X478150D01*
X470669Y134843D02*
X478150D01*
Y148622D01*
X470669Y134843D02*
Y148622D01*
X474409Y139764D02*
Y143701D01*
X472441Y141732D02*
X476378D01*
X470669Y127362D02*
X478150D01*
X470669Y113583D02*
X478150D01*
Y127362D01*
X470669Y113583D02*
Y127362D01*
X474409Y118504D02*
Y122441D01*
X472441Y120472D02*
X476378D01*
X443110Y241142D02*
X450591D01*
X443110Y254921D02*
X450591D01*
X443110Y241142D02*
Y254921D01*
X450591Y241142D02*
Y254921D01*
X446850Y246063D02*
Y250000D01*
X444882Y248031D02*
X448819D01*
X423425Y254921D02*
X430905D01*
X423425Y241142D02*
X430905D01*
Y254921D01*
X423425Y241142D02*
Y254921D01*
X427165Y246063D02*
Y250000D01*
X425197Y248031D02*
X429134D01*
X393898Y241142D02*
X401378D01*
X393898Y254921D02*
X401378D01*
X393898Y241142D02*
Y254921D01*
X401378Y241142D02*
Y254921D01*
X397638Y246063D02*
Y250000D01*
X395669Y248031D02*
X399606D01*
X374213Y254921D02*
X381693D01*
X374213Y241142D02*
X381693D01*
Y254921D01*
X374213Y241142D02*
Y254921D01*
X377953Y246063D02*
Y250000D01*
X375984Y248031D02*
X379921D01*
X517913Y105315D02*
X525394D01*
X517913Y91535D02*
X525394D01*
Y105315D01*
X517913Y91535D02*
Y105315D01*
X521654Y96457D02*
Y100394D01*
X519685Y98425D02*
X523622D01*
X498228Y105315D02*
X505709D01*
X498228Y91535D02*
X505709D01*
Y105315D01*
X498228Y91535D02*
Y105315D01*
X501968Y96457D02*
Y100394D01*
X500000Y98425D02*
X503937D01*
D120*
X201929Y453898D02*
X211457D01*
Y463425D01*
X201929D02*
X211457D01*
X201929Y453898D02*
Y463425D01*
Y473583D02*
Y483110D01*
X211457D01*
Y473583D02*
Y483110D01*
X201929Y473583D02*
X211457D01*
X201929Y493268D02*
X211457D01*
Y502795D01*
X201929D02*
X211457D01*
X201929Y493268D02*
Y502795D01*
X69744Y627362D02*
X115335D01*
Y612795D02*
Y627362D01*
X69744Y612795D02*
Y627362D01*
Y612795D02*
X115335D01*
X231496Y522638D02*
X260630D01*
X231496Y544291D02*
X260630D01*
Y522638D02*
Y544291D01*
X231496Y522638D02*
Y544291D01*
X169173Y416240D02*
Y422342D01*
X181220D01*
Y416240D02*
Y422342D01*
X169173Y416240D02*
X181220D01*
X130118Y422244D02*
X141535D01*
X130118Y416339D02*
X141535D01*
X130118D02*
Y422244D01*
X141535Y416339D02*
Y422244D01*
X166457Y468386D02*
Y488307D01*
X152441D02*
X166457D01*
X152441Y468386D02*
Y488307D01*
Y468386D02*
X166457D01*
X112482Y529528D02*
X139764Y556810D01*
Y502246D02*
X167046Y529528D01*
X139764Y556810D02*
X167046Y529528D01*
X112482D02*
X139764Y502246D01*
X55118Y531102D02*
Y590945D01*
Y531102D02*
X74803D01*
X55118Y590945D02*
X74803D01*
Y531102D02*
Y590945D01*
X47252Y398138D02*
Y559555D01*
X28551Y398138D02*
Y559555D01*
X47252D01*
X28551Y398138D02*
X47252D01*
X272646D02*
Y559555D01*
X291347Y398138D02*
Y559555D01*
X272646Y398138D02*
X291347D01*
X272646Y559555D02*
X291347D01*
X346949Y397638D02*
X365650D01*
X346949Y559055D02*
X365650D01*
X346949Y397638D02*
Y559055D01*
X365650Y397638D02*
Y559055D01*
X591043D02*
X609744D01*
X591043Y397638D02*
X609744D01*
Y559055D01*
X591043Y397638D02*
Y559055D01*
X397441Y582303D02*
Y627894D01*
X382874Y582303D02*
X397441D01*
X382874Y627894D02*
X397441D01*
X382874Y582303D02*
Y627894D01*
X543701Y417913D02*
X572835D01*
X543701Y439567D02*
X572835D01*
Y417913D02*
Y439567D01*
X543701Y417913D02*
Y439567D01*
X506988Y446083D02*
Y581476D01*
X582776D01*
Y446083D02*
Y581476D01*
X506988Y446083D02*
X582776D01*
X376214Y506275D02*
X418529Y548590D01*
X376214Y506275D02*
X390133Y492355D01*
X418529Y548590D02*
X432448Y534670D01*
X390133Y492355D02*
X432448Y534670D01*
X413386Y363189D02*
X417323D01*
X415354Y361221D02*
Y365158D01*
X465256Y324016D02*
X556398D01*
Y372244D01*
X465256D02*
X556398D01*
X465256Y324016D02*
Y372244D01*
X436891Y478346D02*
X464173Y505628D01*
Y451064D02*
X491455Y478346D01*
X464173Y505628D02*
X491455Y478346D01*
X436891D02*
X464173Y451064D01*
X366150Y79240D02*
Y240657D01*
X347449Y79240D02*
Y240657D01*
X366150D01*
X347449Y79240D02*
X366150D01*
X591543D02*
Y240657D01*
X610244Y79240D02*
Y240657D01*
X591543Y79240D02*
X610244D01*
X591543Y240657D02*
X610244D01*
X272685D02*
X291386D01*
X272685Y79240D02*
X291386D01*
Y240657D01*
X272685Y79240D02*
Y240657D01*
X28591Y79240D02*
X47291D01*
X28591Y240657D02*
X47291D01*
X28591Y79240D02*
Y240657D01*
X47291Y79240D02*
Y240657D01*
M02*
