G04*
G04 #@! TF.GenerationSoftware,Altium Limited,Altium Designer,20.0.10 (225)*
G04*
G04 Layer_Physical_Order=4*
G04 Layer_Color=16711680*
%FSLAX25Y25*%
%MOIN*%
G70*
G01*
G75*
%ADD27C,0.01968*%
%ADD28C,0.01000*%
%ADD36C,0.03937*%
%ADD38C,0.05906*%
%ADD43C,0.15748*%
%ADD45C,0.05906*%
%ADD46R,0.05906X0.05906*%
%ADD47R,0.06496X0.06496*%
%ADD48C,0.06496*%
%ADD49C,0.03937*%
%ADD50R,0.05906X0.05906*%
%ADD51C,0.05512*%
%ADD52C,0.05000*%
%ADD53C,0.31496*%
%ADD54C,0.13780*%
%ADD55C,0.06000*%
%ADD56C,0.12000*%
%ADD57C,0.06299*%
%ADD58C,0.08600*%
%ADD59C,0.11811*%
%ADD60R,0.15748X0.15748*%
%ADD61R,0.13780X0.14173*%
G36*
X41559Y167815D02*
X41878Y167773D01*
X42197Y167815D01*
X60027Y167815D01*
X61012Y166831D01*
Y154232D01*
X58945Y152165D01*
X40047D01*
X38386Y153826D01*
Y166929D01*
X39272Y167815D01*
X41559D01*
D02*
G37*
G36*
X282185Y118713D02*
Y117827D01*
X282121Y117674D01*
X281986Y116642D01*
X282121Y115610D01*
X282185Y115456D01*
Y109953D01*
X282121Y109800D01*
X281986Y108768D01*
X282121Y107736D01*
X282185Y107582D01*
Y105610D01*
X281299Y104724D01*
X279179D01*
X279130Y104745D01*
X278098Y104881D01*
X277066Y104745D01*
X277017Y104724D01*
X260543Y104724D01*
X259559Y105709D01*
Y118307D01*
X261626Y120374D01*
X280524D01*
X282185Y118713D01*
D02*
G37*
D27*
X377953Y114173D02*
X438976D01*
X454724Y129921D01*
X346457Y72835D02*
X364173D01*
X369579Y100894D02*
X372047Y98425D01*
X360736Y100894D02*
X369579D01*
X372047Y80709D02*
Y98425D01*
X364173Y72835D02*
X372047Y80709D01*
X375984Y78740D02*
Y102362D01*
X360736Y108768D02*
X369579D01*
X344488Y68659D02*
X365903D01*
X369579Y108768D02*
X375984Y102362D01*
X365903Y68659D02*
X375984Y78740D01*
X336375Y247793D02*
X344488Y255906D01*
X364173D01*
X336375Y76772D02*
Y247793D01*
X413386Y248031D02*
X417323Y244094D01*
X348425Y248031D02*
X413386D01*
X340551Y78740D02*
Y240158D01*
Y78740D02*
X346457Y72835D01*
X340551Y240158D02*
X348425Y248031D01*
X336375Y76772D02*
X344488Y68659D01*
X41878Y116642D02*
X103059D01*
X111811Y125394D01*
Y173622D02*
X136122Y197933D01*
X111811Y125394D02*
Y173622D01*
X136122Y197933D02*
X143012D01*
X148327Y203248D02*
X266831D01*
X143012Y197933D02*
X148327Y203248D01*
X266839Y203256D02*
X278098D01*
X266831Y203248D02*
X266839Y203256D01*
D28*
X41839Y427665D02*
X61024Y408480D01*
X41839Y419791D02*
X53150Y408480D01*
X44265Y341562D02*
X61024Y324803D01*
X44265Y390722D02*
X53150Y399606D01*
X44265Y341562D02*
Y390722D01*
X48303Y345398D02*
Y386885D01*
X53150Y399606D02*
Y408480D01*
X61024Y324803D02*
X202756D01*
X230315Y352362D01*
X253937D01*
X265748Y364173D01*
X297244D01*
X312992Y379921D01*
Y544690D01*
X288784Y568898D02*
X312992Y544690D01*
X61024Y399606D02*
Y408480D01*
X48303Y386885D02*
X61024Y399606D01*
X48303Y345398D02*
X64961Y328740D01*
X198819D01*
X226454Y356376D01*
Y415926D01*
X187321Y568898D02*
X206693D01*
X169310Y550887D02*
X187321Y568898D01*
X206693D02*
X234252Y596457D01*
Y623430D01*
X234838Y624016D01*
X250000D01*
X289370Y584646D01*
Y569483D02*
Y584646D01*
X288784Y568898D02*
X289370Y569483D01*
X281496Y568898D02*
X288784D01*
X269685Y557087D02*
X281496Y568898D01*
X269685Y546276D02*
Y557087D01*
Y546276D02*
X278059Y537902D01*
X118029Y352082D02*
X135120Y369172D01*
X118029Y346655D02*
Y352082D01*
X244324Y428632D02*
X274308Y458615D01*
X73847Y462172D02*
X107387Y428632D01*
X244324D01*
X261253Y496686D02*
Y513222D01*
X278059Y530028D01*
X199151Y470408D02*
Y481097D01*
X205644Y506502D02*
Y509070D01*
X198819Y481428D02*
X199151Y481097D01*
X198819Y481428D02*
Y482283D01*
X265189Y519128D02*
Y562275D01*
X190422Y514723D02*
X260783D01*
X265189Y519128D01*
Y562275D02*
X283622Y580709D01*
X277513Y458615D02*
X278059Y459161D01*
X274308Y458615D02*
X277513D01*
X84646Y462598D02*
Y481066D01*
X99546Y495967D02*
Y499839D01*
X84646Y481066D02*
X99546Y495967D01*
X102751Y488146D02*
X121063Y506458D01*
X182158D01*
X102356Y488146D02*
X102751D01*
X94308Y497842D02*
Y505534D01*
X79595Y483129D02*
X94308Y497842D01*
X94371Y512487D02*
X103897D01*
X73762Y491878D02*
X94371Y512487D01*
X115831Y549128D02*
X130336Y563633D01*
X112970Y549128D02*
X115831D01*
X155512Y494095D02*
X158832Y497415D01*
X194750D02*
X194763Y497402D01*
X158832Y497415D02*
X194750D01*
X182158Y506458D02*
X190422Y514723D01*
X194404Y474983D02*
Y476065D01*
X195768Y477429D01*
Y495314D01*
X194763Y496319D02*
X195768Y495314D01*
X194763Y496319D02*
Y497402D01*
X135120Y369172D02*
X151575D01*
X200883Y469043D02*
X206042D01*
X199151Y470775D02*
X200883Y469043D01*
X192412Y470775D02*
X199151D01*
X188172Y466535D02*
X192412Y470775D01*
X179134Y466535D02*
X188172D01*
X80709Y446850D02*
X102904Y424655D01*
X270199D01*
X270785Y425241D01*
Y444013D01*
X80709Y446850D02*
Y450787D01*
X53150Y478346D02*
X80709Y450787D01*
X270785Y444013D02*
X278059Y451287D01*
X198819Y499677D02*
X205644Y506502D01*
X238797Y476452D02*
X240583D01*
X238453Y476109D02*
X238797Y476452D01*
X198819Y482283D02*
X205021Y488486D01*
Y488662D01*
X124428Y436917D02*
X135827Y448316D01*
Y458661D01*
X115420Y437346D02*
X127953Y449878D01*
Y458661D01*
X178856Y572835D02*
X203192Y597171D01*
X171260Y572835D02*
X178856D01*
X179134Y564961D02*
X214567Y600394D01*
X175197Y564961D02*
X179134D01*
X204685Y598907D02*
Y600394D01*
X203192Y597414D02*
X204685Y598907D01*
X203192Y597171D02*
Y597414D01*
X214567Y600394D02*
X214567D01*
X256063Y594646D02*
Y608268D01*
X202756Y541339D02*
X256063Y594646D01*
X90579Y519713D02*
X106325D01*
X64961Y494095D02*
X90579Y519713D01*
X73847Y462172D02*
Y466523D01*
X161251Y360179D02*
Y378022D01*
X151575Y387698D02*
X161251Y378022D01*
X151575Y387698D02*
Y399684D01*
Y338660D02*
Y350503D01*
X161251Y360179D01*
X148622Y493997D02*
X156594Y501968D01*
X148622Y471457D02*
Y493997D01*
X156594Y501968D02*
X159449D01*
X41839Y498531D02*
X73847Y466523D01*
X159329Y463923D02*
X176521D01*
X179134Y466535D01*
X176226Y519943D02*
X185839Y529555D01*
X141611Y464688D02*
X158564D01*
X116142Y490158D02*
X141611Y464688D01*
X222441Y466535D02*
Y486221D01*
Y446850D02*
Y466535D01*
X185839Y529555D02*
X226996D01*
X112205Y548362D02*
X112970Y549128D01*
X158564Y464688D02*
X159329Y463923D01*
X198819Y482283D02*
Y499677D01*
X151575Y399684D02*
X163463D01*
X175197Y411417D01*
X381102Y393307D02*
X382677Y391732D01*
X381102Y393307D02*
Y396850D01*
X375197Y418504D02*
X377953Y421260D01*
X375197Y393307D02*
Y418504D01*
X378953Y389551D02*
X382283D01*
X375197Y393307D02*
X378953Y389551D01*
X374016Y432454D02*
Y433071D01*
X372047Y430485D02*
X374016Y432454D01*
X372047Y390158D02*
Y430485D01*
Y390158D02*
X374957Y387248D01*
X381102D01*
X360236Y442913D02*
X361564D01*
X362925Y441552D01*
X363172D01*
X368504Y436221D01*
Y379134D02*
Y436221D01*
Y379134D02*
X373622Y374016D01*
X607874Y562205D02*
X611417Y558661D01*
X593701Y562205D02*
X607874D01*
X589764Y558268D02*
X593701Y562205D01*
X589764Y549606D02*
Y558268D01*
X595518Y546214D02*
X596457Y545276D01*
X593156Y546214D02*
X595518D01*
X589764Y549606D02*
X593156Y546214D01*
X603103Y389551D02*
X611236Y397685D01*
Y398425D01*
X611417Y558661D02*
X611417Y398606D01*
X382283Y389551D02*
X603103Y389551D01*
X611236Y398425D02*
X611417Y398606D01*
X597043Y559842D02*
X607087D01*
X596457Y553150D02*
Y559257D01*
X597043Y559842D01*
X609449Y400000D02*
Y557480D01*
X607087Y559842D02*
X609449Y557480D01*
X382677Y391732D02*
X601181Y391732D01*
X609449Y400000D01*
X598512Y381976D02*
X613779Y397244D01*
X454482Y381976D02*
X598512D01*
X590236Y566064D02*
X611889D01*
X616535Y561417D01*
Y395669D02*
Y561417D01*
X613779Y397244D02*
Y560236D01*
X609842Y564173D02*
X613779Y560236D01*
X592126Y564173D02*
X609842D01*
X585827Y519291D02*
Y561655D01*
X591339Y513779D02*
X596457D01*
X585827Y519291D02*
X591339Y513779D01*
X587402Y524409D02*
Y559449D01*
X590158Y521654D02*
X596457D01*
X587402Y524409D02*
X590158Y521654D01*
X585827Y561655D02*
X590236Y566064D01*
X587402Y559449D02*
X592126Y564173D01*
X373622Y374016D02*
X594882Y374016D01*
X381102Y387248D02*
X449211Y387248D01*
X594882Y374016D02*
X616535Y395669D01*
X449211Y387248D02*
X454482Y381976D01*
X403543Y414567D02*
X414961D01*
X360236Y498032D02*
X378740D01*
X448425Y428346D01*
X500787D01*
X449425Y430496D02*
X498213D01*
X422441Y457480D02*
Y463386D01*
Y457480D02*
X449425Y430496D01*
X445866Y426181D02*
X502953D01*
X379409Y491613D02*
X380434D01*
X445866Y426181D01*
X500787Y428346D02*
X516142Y443701D01*
X502953Y426181D02*
X517323Y440551D01*
X516142Y443701D02*
X576772D01*
X591732Y458661D01*
X596457D01*
X577559Y440551D02*
X587795Y450787D01*
X596457D01*
X517323Y440551D02*
X577559D01*
X595941Y458146D02*
X596457Y458661D01*
X565748Y498032D02*
X596457D01*
X569685Y505905D02*
X596457D01*
X482677Y565748D02*
X483465Y564961D01*
X499213D01*
X504331Y548032D02*
Y559842D01*
X499213Y564961D02*
X504331Y559842D01*
X461417Y516535D02*
Y564567D01*
X471654Y574803D02*
X504331D01*
X461417Y564567D02*
X471654Y574803D01*
X504331Y527953D02*
Y548032D01*
X449606Y460236D02*
X481496D01*
X433071Y476772D02*
X449606Y460236D01*
X437177Y483858D02*
X446232Y474803D01*
X426378Y483858D02*
X437177D01*
X451575Y432283D02*
X496063D01*
X430315Y453543D02*
Y461417D01*
Y453543D02*
X451575Y432283D01*
X498213Y430496D02*
X565748Y498032D01*
X529134Y489764D02*
Y560630D01*
X489764Y442913D02*
X553780Y506929D01*
X502756Y447244D02*
X563779Y508268D01*
X489764Y442913D02*
X490529Y443679D01*
X553780Y506929D02*
Y608268D01*
X514567Y475197D02*
X529134Y489764D01*
X563779Y508268D02*
Y608268D01*
X496063Y432283D02*
X569685Y505905D01*
X496457Y475197D02*
X514567D01*
X520079Y488189D02*
Y607717D01*
X415354Y486811D02*
X448425Y453740D01*
X494488Y487402D02*
X510236Y503150D01*
Y607874D01*
X520079Y607717D02*
X520236Y607874D01*
X446232Y474803D02*
X460630D01*
X464961Y479134D01*
X472047D01*
X438976Y494095D02*
X453150Y479921D01*
Y479331D02*
Y479921D01*
X477165Y477953D02*
Y492126D01*
X469291Y472441D02*
X469939Y473088D01*
X472301D01*
X477165Y477953D01*
X449606Y519685D02*
X477165Y492126D01*
X442126Y503937D02*
X460630Y485433D01*
X442126Y503937D02*
Y527165D01*
X446063Y518110D02*
X468110Y496063D01*
Y485827D02*
Y496063D01*
X438976Y494095D02*
Y525591D01*
X446063Y596063D02*
X450000Y600000D01*
X446063Y518110D02*
Y596063D01*
X449606Y519685D02*
Y572047D01*
X459842Y599843D02*
X460000Y600000D01*
X459842Y582283D02*
Y599843D01*
X449606Y572047D02*
X459842Y582283D01*
X440000Y594331D02*
Y600000D01*
X433858Y588189D02*
X440000Y594331D01*
X433858Y535433D02*
X442126Y527165D01*
X433858Y535433D02*
Y588189D01*
X430214Y534353D02*
X438976Y525591D01*
X431693Y503937D02*
Y522638D01*
X431496Y522835D02*
X431693Y522638D01*
X430214Y534353D02*
Y599786D01*
X430000Y600000D02*
X430214Y599786D01*
X415354Y560630D02*
X420472Y565748D01*
X415354Y486811D02*
Y560630D01*
X481496Y460236D02*
X496457Y475197D01*
D36*
X360736Y187508D02*
X552650D01*
X360736Y179634D02*
X475878D01*
X515748Y139764D01*
X555118D01*
X360736Y132390D02*
X390264D01*
X417323Y159449D01*
X568898Y171260D02*
Y281496D01*
Y139764D02*
Y171260D01*
X552650Y187508D02*
X568898Y171260D01*
X576272Y132390D02*
X596957D01*
X568898Y139764D02*
X576272Y132390D01*
X578898Y147480D02*
X586114Y140264D01*
X596957D01*
X578898Y147480D02*
Y281496D01*
X360736Y226878D02*
Y234752D01*
X465382D02*
X533779Y303150D01*
X360736Y234752D02*
X465382D01*
X533779Y303150D02*
X543780D01*
X213681Y275886D02*
X218602Y280807D01*
X213681Y243504D02*
Y275886D01*
X218602Y280807D02*
X232776D01*
X240158Y288189D01*
X184646Y236024D02*
X206201D01*
X213681Y243504D01*
X240158Y288189D02*
Y301181D01*
X0Y316929D02*
Y635827D01*
X316929D01*
X0Y0D02*
Y318898D01*
Y0D02*
X635827D01*
Y318898D01*
X318898Y635827D02*
X318898Y0D01*
X318898Y635827D02*
X635827D01*
Y316929D02*
Y635827D01*
X0Y318898D02*
X635827D01*
D38*
X144362Y191575D02*
X144388D01*
X144939Y192126D01*
X227953D01*
D43*
X232480Y222638D02*
X245000Y235157D01*
X65453Y159941D02*
X128150Y222638D01*
X232480D01*
X215453Y132087D02*
X234941Y112598D01*
X144685Y132087D02*
X215453Y132087D01*
X234941Y112598D02*
X266929D01*
X54921Y159941D02*
X65453D01*
X245000Y235157D02*
Y250394D01*
D45*
X273622Y580709D02*
D03*
X133701Y608268D02*
D03*
X153701D02*
D03*
X163701D02*
D03*
X143701D02*
D03*
X255748Y431102D02*
D03*
X92520Y572835D02*
D03*
X246063Y608268D02*
D03*
X33965Y553650D02*
D03*
Y545776D02*
D03*
Y537902D02*
D03*
Y530028D02*
D03*
Y522154D02*
D03*
Y514280D02*
D03*
Y506405D02*
D03*
Y498531D02*
D03*
Y490658D02*
D03*
Y482784D02*
D03*
Y474909D02*
D03*
Y467035D02*
D03*
Y459161D02*
D03*
Y451287D02*
D03*
Y443413D02*
D03*
Y435539D02*
D03*
Y427665D02*
D03*
Y419791D02*
D03*
Y411917D02*
D03*
Y404043D02*
D03*
X41839Y545776D02*
D03*
Y537902D02*
D03*
Y530028D02*
D03*
Y522154D02*
D03*
Y514280D02*
D03*
Y506405D02*
D03*
Y498531D02*
D03*
Y490658D02*
D03*
Y482784D02*
D03*
Y474909D02*
D03*
Y467035D02*
D03*
Y459161D02*
D03*
Y451287D02*
D03*
Y443413D02*
D03*
Y435539D02*
D03*
Y427665D02*
D03*
Y419791D02*
D03*
Y411917D02*
D03*
Y404043D02*
D03*
X285933D02*
D03*
Y411917D02*
D03*
Y419791D02*
D03*
Y427665D02*
D03*
Y435539D02*
D03*
Y443413D02*
D03*
Y451287D02*
D03*
Y459161D02*
D03*
Y467035D02*
D03*
Y474909D02*
D03*
Y482784D02*
D03*
Y490658D02*
D03*
Y498531D02*
D03*
Y506405D02*
D03*
Y514280D02*
D03*
Y522154D02*
D03*
Y530028D02*
D03*
Y537902D02*
D03*
Y545776D02*
D03*
Y553650D02*
D03*
X278059Y411917D02*
D03*
Y419791D02*
D03*
Y427665D02*
D03*
Y435539D02*
D03*
Y443413D02*
D03*
Y451287D02*
D03*
Y459161D02*
D03*
Y467035D02*
D03*
Y474909D02*
D03*
Y482784D02*
D03*
Y490658D02*
D03*
Y498531D02*
D03*
Y506405D02*
D03*
Y514280D02*
D03*
Y522154D02*
D03*
Y530028D02*
D03*
Y537902D02*
D03*
Y545776D02*
D03*
Y553650D02*
D03*
X360236Y403543D02*
D03*
Y411417D02*
D03*
Y419291D02*
D03*
Y427165D02*
D03*
Y435039D02*
D03*
Y442913D02*
D03*
Y450787D02*
D03*
Y458661D02*
D03*
Y466535D02*
D03*
Y474409D02*
D03*
Y482283D02*
D03*
Y490158D02*
D03*
Y498032D02*
D03*
Y505905D02*
D03*
Y513779D02*
D03*
Y521654D02*
D03*
Y529528D02*
D03*
Y537402D02*
D03*
Y545276D02*
D03*
X352362Y403543D02*
D03*
Y411417D02*
D03*
Y419291D02*
D03*
Y427165D02*
D03*
Y435039D02*
D03*
Y442913D02*
D03*
Y450787D02*
D03*
Y458661D02*
D03*
Y466535D02*
D03*
Y474409D02*
D03*
Y482283D02*
D03*
Y490158D02*
D03*
Y498032D02*
D03*
Y505905D02*
D03*
Y513779D02*
D03*
Y521654D02*
D03*
Y529528D02*
D03*
Y537402D02*
D03*
Y545276D02*
D03*
Y553150D02*
D03*
X596457D02*
D03*
Y545276D02*
D03*
Y537402D02*
D03*
Y529528D02*
D03*
Y521654D02*
D03*
Y513779D02*
D03*
Y505905D02*
D03*
Y498032D02*
D03*
Y490158D02*
D03*
Y482283D02*
D03*
Y474409D02*
D03*
Y466535D02*
D03*
Y458661D02*
D03*
Y450787D02*
D03*
Y442913D02*
D03*
Y435039D02*
D03*
Y427165D02*
D03*
Y419291D02*
D03*
Y411417D02*
D03*
X604331Y553150D02*
D03*
Y545276D02*
D03*
Y537402D02*
D03*
Y529528D02*
D03*
Y521654D02*
D03*
Y513779D02*
D03*
Y505905D02*
D03*
Y498032D02*
D03*
Y490158D02*
D03*
Y482283D02*
D03*
Y474409D02*
D03*
Y466535D02*
D03*
Y458661D02*
D03*
Y450787D02*
D03*
Y442913D02*
D03*
Y435039D02*
D03*
Y427165D02*
D03*
Y419291D02*
D03*
Y411417D02*
D03*
Y403543D02*
D03*
X392677Y453543D02*
D03*
X460000Y600000D02*
D03*
X450000D02*
D03*
X440000D02*
D03*
X520236Y607874D02*
D03*
X510236D02*
D03*
X500236D02*
D03*
X490236D02*
D03*
X553780Y608268D02*
D03*
X482677Y565748D02*
D03*
X456299Y532677D02*
D03*
X569921Y404331D02*
D03*
X352862Y234752D02*
D03*
Y226878D02*
D03*
Y219004D02*
D03*
Y211130D02*
D03*
Y203256D02*
D03*
Y195382D02*
D03*
Y187508D02*
D03*
Y179634D02*
D03*
Y171760D02*
D03*
Y163886D02*
D03*
Y156012D02*
D03*
Y148138D02*
D03*
Y140264D02*
D03*
Y132390D02*
D03*
Y124516D02*
D03*
Y116642D02*
D03*
Y108768D02*
D03*
Y100894D02*
D03*
Y93020D02*
D03*
Y85146D02*
D03*
X360736Y226878D02*
D03*
Y219004D02*
D03*
Y211130D02*
D03*
Y203256D02*
D03*
Y195382D02*
D03*
Y187508D02*
D03*
Y179634D02*
D03*
Y171760D02*
D03*
Y163886D02*
D03*
Y156012D02*
D03*
Y148138D02*
D03*
Y140264D02*
D03*
Y132390D02*
D03*
Y124516D02*
D03*
Y116642D02*
D03*
Y108768D02*
D03*
Y100894D02*
D03*
Y93020D02*
D03*
Y85146D02*
D03*
X604831D02*
D03*
Y93020D02*
D03*
Y100894D02*
D03*
Y108768D02*
D03*
Y116642D02*
D03*
Y124516D02*
D03*
Y132390D02*
D03*
Y140264D02*
D03*
Y148138D02*
D03*
Y156012D02*
D03*
Y163886D02*
D03*
Y171760D02*
D03*
Y179634D02*
D03*
Y187508D02*
D03*
Y195382D02*
D03*
Y203256D02*
D03*
Y211130D02*
D03*
Y219004D02*
D03*
Y226878D02*
D03*
Y234752D02*
D03*
X596957Y93020D02*
D03*
Y100894D02*
D03*
Y108768D02*
D03*
Y116642D02*
D03*
Y124516D02*
D03*
Y132390D02*
D03*
Y140264D02*
D03*
Y148138D02*
D03*
Y156012D02*
D03*
Y163886D02*
D03*
Y171760D02*
D03*
Y179634D02*
D03*
Y187508D02*
D03*
Y195382D02*
D03*
Y203256D02*
D03*
Y211130D02*
D03*
Y219004D02*
D03*
Y226878D02*
D03*
Y234752D02*
D03*
X555118Y139764D02*
D03*
X278098Y234752D02*
D03*
Y226878D02*
D03*
Y219004D02*
D03*
Y211130D02*
D03*
Y203256D02*
D03*
Y195382D02*
D03*
Y187508D02*
D03*
Y179634D02*
D03*
Y171760D02*
D03*
Y163886D02*
D03*
Y156012D02*
D03*
Y148138D02*
D03*
Y140264D02*
D03*
Y132390D02*
D03*
Y124516D02*
D03*
Y116642D02*
D03*
Y108768D02*
D03*
Y100894D02*
D03*
Y93020D02*
D03*
X285972Y234752D02*
D03*
Y226878D02*
D03*
Y219004D02*
D03*
Y211130D02*
D03*
Y203256D02*
D03*
Y195382D02*
D03*
Y187508D02*
D03*
Y179634D02*
D03*
Y171760D02*
D03*
Y163886D02*
D03*
Y156012D02*
D03*
Y148138D02*
D03*
Y140264D02*
D03*
Y132390D02*
D03*
Y124516D02*
D03*
Y116642D02*
D03*
Y108768D02*
D03*
Y100894D02*
D03*
Y93020D02*
D03*
Y85146D02*
D03*
X41878D02*
D03*
Y93020D02*
D03*
Y100894D02*
D03*
Y108768D02*
D03*
Y116642D02*
D03*
Y124516D02*
D03*
Y132390D02*
D03*
Y140264D02*
D03*
Y148138D02*
D03*
Y156012D02*
D03*
Y163886D02*
D03*
Y171760D02*
D03*
Y179634D02*
D03*
Y187508D02*
D03*
Y195382D02*
D03*
Y203256D02*
D03*
Y211130D02*
D03*
Y219004D02*
D03*
Y226878D02*
D03*
X34004Y85146D02*
D03*
Y93020D02*
D03*
Y100894D02*
D03*
Y108768D02*
D03*
Y116642D02*
D03*
Y124516D02*
D03*
Y132390D02*
D03*
Y140264D02*
D03*
Y148138D02*
D03*
Y156012D02*
D03*
Y163886D02*
D03*
Y171760D02*
D03*
Y179634D02*
D03*
Y187508D02*
D03*
Y195382D02*
D03*
Y203256D02*
D03*
Y211130D02*
D03*
Y219004D02*
D03*
Y226878D02*
D03*
Y234752D02*
D03*
X173130Y254626D02*
D03*
X156299Y257874D02*
D03*
X58661Y238386D02*
D03*
X184646Y236024D02*
D03*
X83563Y258169D02*
D03*
X100098Y254626D02*
D03*
D46*
X283622Y580709D02*
D03*
X173701Y608268D02*
D03*
X265748Y431102D02*
D03*
X256063Y608268D02*
D03*
X382677Y453543D02*
D03*
X430000Y600000D02*
D03*
X530236Y607874D02*
D03*
X563779Y608268D02*
D03*
X472677Y565748D02*
D03*
X579921Y404331D02*
D03*
D47*
X194685Y600394D02*
D03*
X104528Y356299D02*
D03*
X476378Y361024D02*
D03*
X568898Y281496D02*
D03*
X407480Y37402D02*
D03*
X462598D02*
D03*
X521850D02*
D03*
X513779Y303150D02*
D03*
X377795Y281496D02*
D03*
X574961Y15748D02*
D03*
X426969Y280906D02*
D03*
X468347Y303150D02*
D03*
X145197Y303150D02*
D03*
X70866Y301181D02*
D03*
X110236D02*
D03*
X202598D02*
D03*
X240158D02*
D03*
D48*
X224410Y600394D02*
D03*
X204685D02*
D03*
X214567D02*
D03*
X74803Y356299D02*
D03*
X94528D02*
D03*
X84646D02*
D03*
X64803D02*
D03*
X54803D02*
D03*
X545276Y361024D02*
D03*
X535433D02*
D03*
X525591D02*
D03*
X515748D02*
D03*
X505905D02*
D03*
X496063D02*
D03*
X486221D02*
D03*
X578898Y281496D02*
D03*
X397480Y37402D02*
D03*
X387598D02*
D03*
X452598D02*
D03*
X442717D02*
D03*
X511850D02*
D03*
X501968D02*
D03*
X543780Y303150D02*
D03*
X533779D02*
D03*
X523779D02*
D03*
X387795Y281496D02*
D03*
X397677D02*
D03*
X544961Y15748D02*
D03*
X554961D02*
D03*
X564961D02*
D03*
X436969Y280906D02*
D03*
X446851D02*
D03*
X498347Y303150D02*
D03*
X488346D02*
D03*
X478346D02*
D03*
X155197Y303150D02*
D03*
X165197D02*
D03*
X175197D02*
D03*
X80866Y301181D02*
D03*
X120236D02*
D03*
X212598D02*
D03*
X250157D02*
D03*
D49*
X171063Y369664D02*
D03*
D50*
X92520Y582835D02*
D03*
X41839Y553650D02*
D03*
X278059Y404043D02*
D03*
X360236Y553150D02*
D03*
X596457Y403543D02*
D03*
X456299Y542677D02*
D03*
X360736Y234752D02*
D03*
X596957Y85146D02*
D03*
X278098D02*
D03*
X41878Y234752D02*
D03*
D51*
X234252Y332677D02*
D03*
X239252Y327677D02*
D03*
Y337677D02*
D03*
X229252D02*
D03*
Y327677D02*
D03*
D52*
X226454Y415926D02*
D03*
X189489Y561306D02*
D03*
X169310Y550887D02*
D03*
X118029Y346655D02*
D03*
X261253Y496686D02*
D03*
X205644Y509070D02*
D03*
X99546Y499839D02*
D03*
X102356Y488146D02*
D03*
X94308Y505534D02*
D03*
X103897Y512487D02*
D03*
X130336Y563633D02*
D03*
X188447Y492009D02*
D03*
X173507Y485818D02*
D03*
X206042Y469043D02*
D03*
X194404Y474983D02*
D03*
X194763Y497402D02*
D03*
X192723Y507527D02*
D03*
X53150Y478346D02*
D03*
X240357Y453793D02*
D03*
X240583Y476452D02*
D03*
X196723Y464954D02*
D03*
X205021Y488662D02*
D03*
X111132Y558427D02*
D03*
X240354Y499409D02*
D03*
X124428Y436917D02*
D03*
X115420Y437346D02*
D03*
X171260Y572835D02*
D03*
X175197Y564961D02*
D03*
X160005Y565941D02*
D03*
X49213Y604331D02*
D03*
X84646Y462598D02*
D03*
X79595Y483129D02*
D03*
X106325Y519713D02*
D03*
X73762Y491878D02*
D03*
X64961Y494095D02*
D03*
X155512D02*
D03*
X148622Y471457D02*
D03*
X159449Y501968D02*
D03*
X145600Y455909D02*
D03*
X135827Y458661D02*
D03*
X127953D02*
D03*
X192438Y550085D02*
D03*
X176226Y519943D02*
D03*
X141677Y570987D02*
D03*
X96991Y539274D02*
D03*
X131461Y488450D02*
D03*
X124644Y495727D02*
D03*
X116142Y490158D02*
D03*
X104331Y419291D02*
D03*
X207160Y391765D02*
D03*
X226996Y529555D02*
D03*
X202756Y541339D02*
D03*
X209643Y524344D02*
D03*
X209246Y533353D02*
D03*
X170856Y474588D02*
D03*
X215905Y452777D02*
D03*
X217034Y473504D02*
D03*
X216901Y492238D02*
D03*
X222441Y446850D02*
D03*
Y466535D02*
D03*
Y486221D02*
D03*
X112205Y548362D02*
D03*
X104163Y545525D02*
D03*
X93927Y604807D02*
D03*
X81175Y558577D02*
D03*
X159329Y463923D02*
D03*
X175197Y411417D02*
D03*
X294506Y414179D02*
D03*
X381102Y396850D02*
D03*
X377953Y421260D02*
D03*
X374016Y433071D02*
D03*
X451575Y379528D02*
D03*
X377559Y380071D02*
D03*
X414961Y414567D02*
D03*
X556299Y385764D02*
D03*
X505512Y396457D02*
D03*
X504331Y527953D02*
D03*
X500000Y479500D02*
D03*
X379409Y491613D02*
D03*
X477055Y540476D02*
D03*
X433071Y476772D02*
D03*
X426378Y483858D02*
D03*
X469291Y441732D02*
D03*
X422441Y463386D02*
D03*
X448425Y443701D02*
D03*
X430315Y461417D02*
D03*
X525591Y430709D02*
D03*
X527866Y452817D02*
D03*
X520079Y488189D02*
D03*
X448425Y453740D02*
D03*
X502756Y447244D02*
D03*
X494488Y487402D02*
D03*
X529134Y560630D02*
D03*
X453150Y479331D02*
D03*
X472047Y479134D02*
D03*
X460630Y485433D02*
D03*
X468110Y485827D02*
D03*
X469291Y472441D02*
D03*
X461417Y516535D02*
D03*
X470472Y524803D02*
D03*
X431496Y522835D02*
D03*
X420472Y565748D02*
D03*
X403543Y624016D02*
D03*
X504331Y574803D02*
D03*
X561417Y452362D02*
D03*
X396063Y342126D02*
D03*
X423622Y493701D02*
D03*
X422047Y504331D02*
D03*
X391929Y533268D02*
D03*
X537598Y414961D02*
D03*
X442126Y353150D02*
D03*
X476378Y396457D02*
D03*
X439764Y405118D02*
D03*
X415354Y338976D02*
D03*
X406299D02*
D03*
X382677Y405118D02*
D03*
X385039Y351969D02*
D03*
X377559Y364173D02*
D03*
X451575Y363386D02*
D03*
X433858Y342126D02*
D03*
X403543Y414567D02*
D03*
X485827Y523622D02*
D03*
X431693Y503937D02*
D03*
X498841Y463364D02*
D03*
X489764Y442913D02*
D03*
X440551Y554331D02*
D03*
X372105Y605781D02*
D03*
X519685Y179134D02*
D03*
X403543Y157480D02*
D03*
X454724Y129921D02*
D03*
X377953Y114173D02*
D03*
X474409Y155512D02*
D03*
X364173Y255906D02*
D03*
X417323Y244094D02*
D03*
Y159449D02*
D03*
X227953Y192126D02*
D03*
D53*
X293307Y344488D02*
D03*
Y612205D02*
D03*
X25591Y344488D02*
D03*
Y612205D02*
D03*
X344488D02*
D03*
Y344488D02*
D03*
X612205D02*
D03*
Y612205D02*
D03*
X344488Y293307D02*
D03*
X612205D02*
D03*
Y25591D02*
D03*
X344488D02*
D03*
X293307Y293307D02*
D03*
Y25591D02*
D03*
X25591D02*
D03*
Y293307D02*
D03*
D54*
X123228Y35433D02*
D03*
X151575D02*
D03*
X231102D02*
D03*
X202756D02*
D03*
D55*
X250000Y100394D02*
D03*
X143701Y88583D02*
D03*
Y98583D02*
D03*
Y108583D02*
D03*
Y118583D02*
D03*
Y128583D02*
D03*
X102362Y151575D02*
D03*
X144362Y191575D02*
D03*
Y181575D02*
D03*
Y171575D02*
D03*
Y161575D02*
D03*
Y151575D02*
D03*
D56*
X224700Y80394D02*
D03*
X205000D02*
D03*
X245000Y250394D02*
D03*
X224700D02*
D03*
D57*
X110827Y15433D02*
D03*
X163976D02*
D03*
X243504D02*
D03*
X190354D02*
D03*
D58*
X205000Y250394D02*
D03*
X245000Y80394D02*
D03*
X77201Y127583D02*
D03*
X140201Y74583D02*
D03*
X88362Y155575D02*
D03*
X140362Y207575D02*
D03*
D59*
X143701Y128583D02*
Y131102D01*
X144685Y132087D01*
D60*
X151575Y369172D02*
D03*
D61*
Y338660D02*
D03*
Y399684D02*
D03*
M02*
