M48
;Layer_Color=9474304
;FILE_FORMAT=2:5
INCH,TZ
;TYPE=PLATED
T1F00S00C0.02800
T2F00S00C0.03346
T3F00S00C0.03543
T4F00S00C0.03898
T5F00S00C0.04000
T6F00S00C0.04331
T7F00S00C0.06299
T8F00S00C0.08600
T9F00S00C0.10236
T10F00S00C0.11811
T11F00S00C0.16142
%
T01
X377953Y114173
X454724Y129921
X474409Y155512
X519685Y179134
X417323Y159449
X403543Y157480
X417323Y244094
X364173Y255906
X227953Y192126
X118029Y346655
X104331Y419291
X115420Y437346
X124428Y436917
X127953Y458661
X135827
X145600Y455909
X84646Y462598
X159329Y463923
X196723Y464954
X222441Y466535
Y446850
X215905Y452777
X240357Y453793
X226454Y415926
X207160Y391765
X175197Y411417
X294506Y414179
X377953Y421260
X374016Y433071
X382677Y405118
X381102Y396850
X377559Y380071
Y364173
X385039Y351969
X396063Y342126
X406299Y338976
X415354
X433858Y342126
X442126Y353150
X451575Y363386
Y379528
X439764Y405118
X414961Y414567
X403543
X422441Y463386
X430315Y461417
X448425Y453740
Y443701
X469291Y441732
X489764Y442913
X502756Y447244
X498841Y463364
X527866Y452817
X525591Y430709
X537598Y414961
X556299Y385764
X505512Y396457
X476378
X561417Y452362
X520079Y488189
X494488Y487402
X500000Y479500
X472047Y479134
X469291Y472441
X470472Y524803
X485827Y523622
X504331Y527953
X477055Y540476
X504331Y574803
X529134Y560630
X440551Y554331
X420472Y565748
X431496Y522835
X431693Y503937
X422047Y504331
X423622Y493701
X426378Y483858
X433071Y476772
X453150Y479331
X460630Y485433
X468110Y485827
X461417Y516535
X391929Y533268
X379409Y491613
X372105Y605781
X403543Y624016
X261253Y496686
X240354Y499409
X240583Y476452
X217034Y473504
X206042Y469043
X194404Y474983
X194763Y497402
X188447Y492009
X192723Y507527
X205644Y509070
X209643Y524344
X209246Y533353
X202756Y541339
X192438Y550085
X189489Y561306
X175197Y564961
X171260Y572835
X160005Y565941
X169310Y550887
X176226Y519943
X159449Y501968
X173507Y485818
X170856Y474588
X205021Y488662
X216901Y492238
X222441Y486221
X226996Y529555
X155512Y494095
X148622Y471457
X131461Y488450
X124644Y495727
X116142Y490158
X102356Y488146
X99546Y499839
X94308Y505534
X103897Y512487
X106325Y519713
X104163Y545525
X112205Y548362
X111132Y558427
X130336Y563633
X141677Y570987
X81175Y558577
X96991Y539274
X93927Y604807
X49213Y604331
X64961Y494095
X73762Y491878
X79595Y483129
X53150Y478346
T02
X229252Y327677
X234252Y332677
X239252Y327677
Y337677
X229252
T03
X555118Y139764
X184646Y236024
X173130Y254626
X156299Y257874
X100098Y254626
X83563Y258169
X58661Y238386
X255748Y431102
X265748
X382677Y453543
X392677
X569921Y404331
X579921
X563779Y608268
X553780
X530236Y607874
X520236
X510236
X500236
X490236
X482677Y565748
X472677
X456299Y542677
Y532677
X460000Y600000
X450000
X440000
X430000
X283622Y580709
X273622
X256063Y608268
X246063
X173701
X163701
X153701
X143701
X133701
X92520Y582835
Y572835
T04
X34004Y85146
X41878
Y93020
Y100894
Y108768
Y116642
Y124516
Y132390
Y140264
Y148138
Y156012
X34004
Y148138
Y140264
Y132390
Y124516
Y116642
Y108768
Y100894
Y93020
X278098
Y100894
Y108768
Y116642
Y124516
Y132390
Y140264
Y148138
Y156012
X285972
Y148138
Y140264
Y132390
Y124516
Y116642
Y108768
Y100894
Y93020
Y85146
X278098
X352862
Y93020
Y100894
Y108768
Y116642
Y124516
Y132390
Y140264
Y148138
Y156012
X360736
Y148138
Y140264
Y132390
Y124516
Y116642
Y108768
Y100894
Y93020
Y85146
X596957
X604831
Y93020
Y100894
Y108768
Y116642
Y124516
Y132390
Y140264
Y148138
Y156012
X596957
Y148138
Y140264
Y132390
Y124516
Y116642
Y108768
Y100894
Y93020
Y163886
Y171760
X604831
Y163886
Y179634
Y187508
Y195382
Y203256
Y211130
Y219004
Y226878
Y234752
X596957
Y226878
Y219004
Y211130
Y203256
Y195382
Y187508
Y179634
X360736
Y187508
X352862
Y179634
Y171760
Y163886
X360736
Y171760
Y195382
X352862
Y203256
Y211130
Y219004
Y226878
Y234752
X360736
Y226878
Y219004
Y211130
Y203256
X285972
Y211130
X278098
Y203256
Y195382
Y187508
Y179634
Y171760
Y163886
X285972
Y171760
Y179634
Y187508
Y195382
Y219004
Y226878
X278098
Y219004
Y234752
X285972
X41878
Y226878
Y219004
Y211130
Y203256
Y195382
Y187508
Y179634
Y171760
Y163886
X34004
Y171760
Y179634
Y187508
Y195382
Y203256
Y211130
Y219004
Y226878
Y234752
X33965Y404043
Y411917
Y419791
Y427665
Y435539
Y443413
Y451287
Y459161
Y467035
X41839
Y459161
Y451287
Y443413
Y435539
Y427665
Y419791
Y411917
Y404043
X278059
X285933
Y411917
Y419791
Y427665
Y435539
Y443413
Y451287
Y459161
Y467035
X278059
Y459161
Y451287
Y443413
Y435539
Y427665
Y419791
Y411917
X352362Y411417
Y419291
X360236
Y411417
Y403543
X352362
Y427165
Y435039
X360236
Y427165
Y442913
Y450787
Y458661
Y466535
X352362
Y458661
Y450787
Y442913
X596457
Y450787
Y458661
Y466535
X604331
Y458661
Y450787
Y442913
Y435039
Y427165
X596457
Y435039
Y419291
Y411417
Y403543
X604331
Y411417
Y419291
Y474409
X596457
Y482283
Y490158
Y498032
Y505905
Y513779
Y521654
Y529528
Y537402
Y545276
Y553150
X604331
Y545276
Y537402
Y529528
Y521654
Y513779
Y505905
Y498032
Y490158
Y482283
X360236
Y474409
X352362
Y482283
Y490158
Y498032
Y505905
X360236
Y498032
Y490158
Y513779
Y521654
Y529528
Y537402
Y545276
Y553150
X352362
Y545276
Y537402
Y529528
Y521654
Y513779
X285933Y514280
Y506405
Y498531
Y490658
Y482784
Y474909
X278059
Y482784
Y490658
Y498531
Y506405
Y514280
Y522154
Y530028
X285933
Y522154
Y537902
Y545776
Y553650
X278059
Y545776
Y537902
X41839
Y545776
X33965
Y537902
Y530028
Y522154
Y514280
Y506405
Y498531
Y490658
Y482784
Y474909
X41839
Y482784
Y490658
Y498531
Y506405
Y514280
Y522154
Y530028
Y553650
X33965
T05
X143701Y88583
Y98583
Y108583
Y118583
Y128583
X144362Y151575
X102362
X250000Y100394
X144362Y161575
Y171575
Y181575
Y191575
T06
X387598Y37402
X397480
X407480
X442717
X452598
X462598
X501968
X511850
X521850
X544961Y15748
X554961
X564961
X574961
X578898Y281496
X568898
X543780Y303150
X533779
X523779
X513779
X498347
X488346
X478346
X468347
X446851Y280906
X436969
X426969
X397677Y281496
X387795
X377795
X250157Y301181
X240158
X212598
X202598
X175197Y303150
X165197
X155197
X145197
X120236Y301181
X110236
X80866
X70866
X74803Y356299
X84646
X94528
X104528
X64803
X54803
X476378Y361024
X486221
X496063
X505905
X515748
X525591
X535433
X545276
X224410Y600394
X214567
X204685
X194685
T07
X110827Y15433
X163976
X190354
X243504
T08
X77201Y127583
X88362Y155575
X140201Y74583
X205000Y80394
X224700
X245000
Y250394
X224700
X205000
X140362Y207575
T09
X123228Y35433
X151575
X202756
X231102
T10
X171063Y369664
T11
X25591Y25591
X293307
X344488Y25591
X612205
Y293307
X344488
X293307Y293307
X25591
Y344488
X293307
X344488
X612205
Y612205
X344488
X293307
X25591
M30
