G04*
G04 #@! TF.GenerationSoftware,Altium Limited,Altium Designer,20.0.10 (225)*
G04*
G04 Layer_Color=65280*
%FSLAX25Y25*%
%MOIN*%
G70*
G01*
G75*
%ADD28C,0.01000*%
%ADD36C,0.03937*%
%ADD66C,0.00140*%
D28*
X159843Y396731D02*
X175197D01*
X159843Y337676D02*
X175197D01*
X159843Y329802D02*
Y337676D01*
X143307Y329802D02*
X159843D01*
X143307D02*
Y336889D01*
X121063D02*
X143307D01*
X121063D02*
Y397518D01*
X143307D01*
X159843Y396731D02*
Y408542D01*
X143307D02*
X159843D01*
X143307Y397518D02*
Y408542D01*
X115080Y379860D02*
X114081Y380859D01*
Y382859D01*
X115080Y383858D01*
X119079D01*
X120079Y382859D01*
Y380859D01*
X119079Y379860D01*
X120079Y377860D02*
X114081D01*
Y374861D01*
X115080Y373862D01*
X117080D01*
X118079Y374861D01*
Y377860D01*
Y375861D02*
X120079Y373862D01*
Y371862D02*
Y369863D01*
Y370863D01*
X114081D01*
X115080Y371862D01*
X120079Y362865D02*
Y366864D01*
X116080Y362865D01*
X115080D01*
X114081Y363865D01*
Y365864D01*
X115080Y366864D01*
X120079Y356867D02*
Y360866D01*
X116080Y356867D01*
X115080D01*
X114081Y357867D01*
Y359866D01*
X115080Y360866D01*
Y354868D02*
X114081Y353868D01*
Y351869D01*
X115080Y350869D01*
X119079D01*
X120079Y351869D01*
Y353868D01*
X119079Y354868D01*
X115080D01*
X136765Y333739D02*
Y329740D01*
X134765Y331739D02*
X138764D01*
X136765Y405589D02*
Y401590D01*
X134765Y403590D02*
X138764D01*
X116203Y390794D02*
Y384796D01*
X113204D01*
X112205Y385796D01*
Y386796D01*
X113204Y387795D01*
X116203D01*
X113204D01*
X112205Y388795D01*
Y389795D01*
X113204Y390794D01*
X116203D01*
X110205Y384796D02*
X108206D01*
X109206D01*
Y390794D01*
X110205Y389795D01*
D36*
X0Y316929D02*
Y635827D01*
X316929D01*
X0Y0D02*
Y318898D01*
Y0D02*
X635827D01*
Y318898D01*
X318898Y635827D02*
X318898Y0D01*
X318898Y635827D02*
X635827D01*
Y316929D02*
Y635827D01*
X0Y318898D02*
X635827D01*
D66*
X589027Y511689D02*
X590567D01*
X589027Y511549D02*
X590567D01*
X589027Y511409D02*
X590567D01*
X589027Y511269D02*
X590567D01*
X589027Y511129D02*
X590567D01*
X589027Y510989D02*
X590567D01*
X589027Y510849D02*
X590567D01*
X589027Y509169D02*
X590567D01*
X589027Y509029D02*
X590567D01*
X589027Y508889D02*
X590567D01*
X589027Y508749D02*
X590567D01*
X589027Y508609D02*
X590567D01*
X589027Y508469D02*
X590567D01*
X589027Y508329D02*
X590567D01*
X589027Y508189D02*
X590567D01*
X589027Y508049D02*
X590567D01*
X589027Y507909D02*
X590567D01*
X589027Y507769D02*
X590567D01*
X589027Y507629D02*
X590567D01*
X589027Y507489D02*
X590567D01*
X589027Y507349D02*
X590567D01*
X589027Y507209D02*
X590567D01*
X589027Y507069D02*
X590567D01*
X589167Y506929D02*
X590427D01*
X589307Y506789D02*
X590287D01*
X589587Y506649D02*
X590007D01*
X575307Y509169D02*
X577267D01*
X575587Y509029D02*
X577267D01*
X575587Y508889D02*
X577267D01*
X575727Y508749D02*
X577267D01*
X575727Y508609D02*
X577267D01*
X575727Y508469D02*
X577267D01*
X575727Y508329D02*
X577267D01*
X575727Y508189D02*
X577267D01*
X575727Y508049D02*
X577267D01*
X575727Y507909D02*
X577267D01*
X575727Y507769D02*
X577267D01*
X575727Y507629D02*
X577267D01*
X575727Y507489D02*
X577267D01*
X575727Y507349D02*
X577267D01*
X575727Y507209D02*
X577267D01*
X575727Y507069D02*
X577267D01*
X575867Y506929D02*
X577127D01*
X576007Y506789D02*
X576987D01*
X576287Y506649D02*
X576707D01*
X565367Y511689D02*
X567187D01*
X565367Y511549D02*
X567047D01*
X565367Y511409D02*
X566907D01*
X565367Y511269D02*
X566907D01*
X565367Y511129D02*
X566907D01*
X565367Y510989D02*
X567047D01*
X565367Y510849D02*
X567187D01*
X566907Y509029D02*
X570827D01*
X566767Y508889D02*
X570407D01*
X566487Y508749D02*
X569987D01*
X566347Y508609D02*
X569567D01*
X566207Y508469D02*
X569287D01*
X565927Y508329D02*
X569007D01*
X565787Y508189D02*
X568727D01*
X565647Y508049D02*
X568447D01*
X565507Y507909D02*
X568307D01*
X565367Y507769D02*
X568027D01*
X565367Y507629D02*
X567887D01*
X565367Y507489D02*
X567607D01*
X565367Y507349D02*
X567467D01*
X565367Y507209D02*
X567187D01*
X565367Y507069D02*
X567047D01*
X565507Y506929D02*
X566767D01*
X565647Y506789D02*
X566627D01*
X565927Y506649D02*
X566347D01*
X551787Y511689D02*
X554027D01*
X551647Y511549D02*
X553747D01*
X551647Y511409D02*
X553467D01*
X551647Y511269D02*
X553327D01*
X551507Y511129D02*
X553327D01*
X551507Y510989D02*
X553187D01*
X551507Y510849D02*
X553047D01*
X551507Y510709D02*
X553047D01*
X551367Y510569D02*
X553047D01*
X551367Y510429D02*
X553047D01*
X551367Y510289D02*
X552907D01*
X551367Y510149D02*
X552907D01*
X551367Y510009D02*
X552907D01*
X551367Y509869D02*
X552907D01*
X551367Y509729D02*
X552907D01*
X551367Y509589D02*
X553047D01*
X551367Y509449D02*
X553047D01*
X551507Y509309D02*
X553047D01*
X551507Y509169D02*
X553047D01*
X548007D02*
X549967D01*
X551507Y509029D02*
X553187D01*
X548287D02*
X549967D01*
X551507Y508889D02*
X553187D01*
X548287D02*
X549967D01*
X551647Y508749D02*
X553327D01*
X548427D02*
X549967D01*
X551647Y508609D02*
X553467D01*
X548427D02*
X549967D01*
X551647Y508469D02*
X553747D01*
X548427D02*
X549967D01*
X551787Y508329D02*
X554027D01*
X548427D02*
X549967D01*
X548427Y508189D02*
X549967D01*
X548427Y508049D02*
X549967D01*
X548427Y507909D02*
X549967D01*
X548427Y507769D02*
X549967D01*
X548427Y507629D02*
X549967D01*
X548427Y507489D02*
X549967D01*
X548427Y507349D02*
X549967D01*
X548427Y507209D02*
X549967D01*
X548427Y507069D02*
X549967D01*
X548567Y506929D02*
X549827D01*
X548707Y506789D02*
X549687D01*
X548987Y506649D02*
X549407D01*
X543807Y488029D02*
X544227D01*
X543667Y487889D02*
X544087D01*
X543667Y487749D02*
X544087D01*
X543527Y487609D02*
X544087D01*
X543387Y487469D02*
X543947D01*
X543387Y487329D02*
X543807D01*
X543247Y487189D02*
X543807D01*
X543247Y487049D02*
X543667D01*
X543107Y486909D02*
X543667D01*
X542967Y486769D02*
X543527D01*
X542967Y486629D02*
X543387D01*
X542827Y486489D02*
X543387D01*
X542687Y486349D02*
X543247D01*
X542547Y486209D02*
X543107D01*
X542407Y486069D02*
X542967D01*
X542267Y485929D02*
X542827D01*
X542127Y485789D02*
X542687D01*
X541987Y485649D02*
X542547D01*
X541707Y485509D02*
X542407D01*
X541567Y485369D02*
X542267D01*
X541287Y485229D02*
X542127D01*
X541007Y485089D02*
X541847D01*
X540727Y484949D02*
X541707D01*
X540167Y484809D02*
X541427D01*
X545067Y496009D02*
X545347D01*
X545067Y495869D02*
X545347D01*
X545067Y495729D02*
X545347D01*
X545067Y495589D02*
X545347D01*
X545067Y495449D02*
X545347D01*
X545067Y495309D02*
X545347D01*
X545067Y495169D02*
X545347D01*
X545067Y495029D02*
X545347D01*
X545067Y494889D02*
X545347D01*
X545067Y494749D02*
X545347D01*
X545067Y494609D02*
X545347D01*
X545067Y494469D02*
X545347D01*
X545067Y494329D02*
X545347D01*
X544927Y494189D02*
X545347D01*
X544927Y494049D02*
X545347D01*
X544927Y493909D02*
X545347D01*
X544927Y493769D02*
X545347D01*
X544927Y493629D02*
X545347D01*
X544927Y493489D02*
X545347D01*
X544927Y493349D02*
X545347D01*
X544927Y493209D02*
X545347D01*
X544927Y493069D02*
X545347D01*
X544927Y492929D02*
X545347D01*
X544927Y492789D02*
X545347D01*
X544927Y492649D02*
X545347D01*
X544927Y492509D02*
X545347D01*
X544927Y492369D02*
X545207D01*
X544787Y492229D02*
X545207D01*
X544787Y492089D02*
X545207D01*
X544787Y491949D02*
X545207D01*
X544787Y491809D02*
X545207D01*
X544787Y491669D02*
X545207D01*
X544787Y491529D02*
X545207D01*
X544787Y491389D02*
X545207D01*
X544647Y491249D02*
X545067D01*
X544647Y491109D02*
X545067D01*
X544647Y490969D02*
X545067D01*
X544647Y490829D02*
X545067D01*
X544647Y490689D02*
X545067D01*
X544507Y490549D02*
X544927D01*
X544507Y490409D02*
X544927D01*
X544507Y490269D02*
X544927D01*
X544507Y490129D02*
X544927D01*
X544367Y489989D02*
X544927D01*
X544367Y489849D02*
X544787D01*
X544367Y489709D02*
X544787D01*
X544367Y489569D02*
X544787D01*
X544227Y489429D02*
X544647D01*
X544227Y489289D02*
X544647D01*
X544227Y489149D02*
X544647D01*
X544087Y489009D02*
X544647D01*
X544087Y488869D02*
X544507D01*
X544087Y488729D02*
X544507D01*
X543947Y488589D02*
X544507D01*
X543947Y488449D02*
X544367D01*
X543807Y488309D02*
X544367D01*
X543947Y503989D02*
X544367D01*
X544087Y503849D02*
X544507D01*
X544087Y503709D02*
X544507D01*
X544087Y503569D02*
X544507D01*
X544087Y503429D02*
X544507D01*
X544087Y503289D02*
X544507D01*
X544227Y503149D02*
X544647D01*
X544227Y503009D02*
X544647D01*
X544227Y502869D02*
X544647D01*
X544227Y502729D02*
X544647D01*
X544227Y502589D02*
X544647D01*
X544367Y502449D02*
X544787D01*
X544367Y502309D02*
X544787D01*
X544367Y502169D02*
X544787D01*
X544367Y502029D02*
X544787D01*
X544367Y501889D02*
X544787D01*
X544367Y501749D02*
X544787D01*
X544507Y501609D02*
X544927D01*
X544507Y501469D02*
X544927D01*
X544507Y501329D02*
X544927D01*
X544507Y501189D02*
X544927D01*
X544507Y501049D02*
X544927D01*
X544507Y500909D02*
X544927D01*
X544647Y500769D02*
X544927D01*
X544647Y500629D02*
X545067D01*
X544647Y500489D02*
X545067D01*
X544647Y500349D02*
X545067D01*
X544647Y500209D02*
X545067D01*
X544647Y500069D02*
X545067D01*
X544647Y499929D02*
X545067D01*
X544647Y499789D02*
X545067D01*
X544787Y499649D02*
X545067D01*
X544787Y499509D02*
X545207D01*
X544787Y499369D02*
X545207D01*
X544787Y499229D02*
X545207D01*
X544787Y499089D02*
X545207D01*
X544787Y498949D02*
X545207D01*
X544787Y498809D02*
X545207D01*
X544787Y498669D02*
X545207D01*
X544787Y498529D02*
X545207D01*
X544927Y498389D02*
X545207D01*
X544927Y498249D02*
X545207D01*
X544927Y498109D02*
X545347D01*
X544927Y497969D02*
X545347D01*
X544927Y497829D02*
X545347D01*
X544927Y497689D02*
X545347D01*
X544927Y497549D02*
X545347D01*
X544927Y497409D02*
X545347D01*
X544927Y497269D02*
X545347D01*
X544927Y497129D02*
X545347D01*
X544927Y496989D02*
X545347D01*
X544927Y496849D02*
X545347D01*
X544927Y496709D02*
X545347D01*
X544927Y496569D02*
X545347D01*
X544927Y496429D02*
X545347D01*
X544927Y496289D02*
X545347D01*
X541987Y511689D02*
X542407D01*
X541987Y511549D02*
X542407D01*
X541987Y511409D02*
X542407D01*
X542127Y511269D02*
X542547D01*
X542127Y511129D02*
X542547D01*
X542127Y510989D02*
X542547D01*
X542267Y510849D02*
X542687D01*
Y509169D02*
X543107D01*
X541287D02*
X541427D01*
X542687Y509029D02*
X543247D01*
X541287D02*
X541427D01*
X542827Y508889D02*
X543247D01*
X542827Y508749D02*
X543247D01*
X542827Y508609D02*
X543247D01*
X542967Y508469D02*
X543387D01*
X542967Y508329D02*
X543387D01*
X542967Y508189D02*
X543387D01*
X542967Y508049D02*
X543527D01*
X543107Y507909D02*
X543527D01*
X543107Y507769D02*
X543527D01*
X543107Y507629D02*
X543527D01*
X543247Y507489D02*
X543667D01*
X543247Y507349D02*
X543667D01*
X543247Y507209D02*
X543667D01*
X543247Y507069D02*
X543667D01*
X543387Y506929D02*
X543807D01*
X543387Y506789D02*
X543807D01*
X543387Y506649D02*
X543807D01*
X543387Y506509D02*
X543807D01*
X543527Y506369D02*
X543947D01*
X543527Y506229D02*
X543947D01*
X543527Y506089D02*
X543947D01*
X543527Y505949D02*
X543947D01*
X543667Y505809D02*
X544087D01*
X543667Y505669D02*
X544087D01*
X543667Y505529D02*
X544087D01*
X543667Y505389D02*
X544087D01*
X543807Y505249D02*
X544227D01*
X543807Y505109D02*
X544227D01*
X543807Y504969D02*
X544227D01*
X543807Y504829D02*
X544227D01*
X543807Y504689D02*
X544227D01*
X543947Y504549D02*
X544367D01*
X543947Y504409D02*
X544367D01*
X543947Y504269D02*
X544367D01*
X539467Y518269D02*
X539887D01*
X539467Y518129D02*
X540027D01*
X539607Y517989D02*
X540027D01*
X539607Y517849D02*
X540027D01*
X539607Y517709D02*
X540167D01*
X539747Y517569D02*
X540167D01*
X539747Y517429D02*
X540307D01*
X539887Y517289D02*
X540307D01*
X539887Y517149D02*
X540307D01*
X540027Y517009D02*
X540447D01*
X540027Y516869D02*
X540447D01*
X540027Y516729D02*
X540587D01*
X540167Y516589D02*
X540587D01*
X540167Y516449D02*
X540587D01*
X540307Y516309D02*
X540727D01*
X540307Y516169D02*
X540727D01*
X540307Y516029D02*
X540867D01*
X540447Y515889D02*
X540867D01*
X540447Y515749D02*
X540867D01*
X540587Y515609D02*
X541007D01*
X540587Y515469D02*
X541007D01*
X540587Y515329D02*
X541147D01*
X540727Y515189D02*
X541147D01*
X540727Y515049D02*
X541147D01*
X540727Y514909D02*
X541287D01*
X540867Y514769D02*
X541287D01*
X540867Y514629D02*
X541287D01*
X541007Y514489D02*
X541427D01*
X541007Y514349D02*
X541427D01*
X541007Y514209D02*
X541567D01*
X541147Y514069D02*
X541567D01*
X541147Y513929D02*
X541567D01*
X541147Y513789D02*
X541707D01*
X541287Y513649D02*
X541707D01*
X541287Y513509D02*
X541707D01*
X541287Y513369D02*
X541847D01*
X531487Y487749D02*
X532187D01*
X531627Y487609D02*
X532327D01*
X531907Y487469D02*
X532607D01*
X532047Y487329D02*
X532747D01*
X532187Y487189D02*
X532887D01*
X532327Y487049D02*
X533167D01*
X532607Y486909D02*
X533307D01*
X532747Y486769D02*
X533587D01*
X533027Y486629D02*
X533727D01*
X533167Y486489D02*
X534007D01*
X533307Y486349D02*
X534147D01*
X533587Y486209D02*
X534427D01*
X533867Y486069D02*
X534707D01*
X534007Y485929D02*
X534847D01*
X534287Y485789D02*
X535127D01*
X534567Y485649D02*
X535407D01*
X534707Y485509D02*
X535687D01*
X534987Y485369D02*
X536107D01*
X535267Y485229D02*
X536387D01*
X535547Y485089D02*
X536807D01*
X535967Y484949D02*
X537227D01*
X536247Y484809D02*
X537787D01*
X536667Y484669D02*
X538767D01*
X535127Y511969D02*
X536667D01*
X535127Y511829D02*
X536667D01*
X535127Y511689D02*
X536667D01*
X535127Y511549D02*
X536667D01*
X535127Y511409D02*
X536667D01*
X535127Y511269D02*
X536667D01*
X535127Y511129D02*
X536667D01*
X535127Y510989D02*
X536667D01*
X535127Y510849D02*
X536667D01*
X535127Y510709D02*
X536667D01*
X535127Y510569D02*
X536667D01*
X535127Y510429D02*
X536667D01*
X535127Y510289D02*
X536667D01*
X535127Y510149D02*
X536667D01*
X535127Y510009D02*
X536667D01*
X535127Y509869D02*
X536667D01*
X535127Y509729D02*
X536667D01*
X534987Y509589D02*
X536667D01*
X534987Y509449D02*
X536667D01*
X534987Y509309D02*
X536667D01*
X534987Y509169D02*
X536667D01*
X534847Y509029D02*
X536527D01*
X534707Y508889D02*
X536527D01*
X534707Y508749D02*
X536527D01*
X534567Y508609D02*
X536387D01*
X534287Y508469D02*
X536387D01*
X534007Y508329D02*
X536387D01*
X538627Y519949D02*
X539187D01*
X538767Y519809D02*
X539187D01*
X535407Y513229D02*
X536387D01*
X535267Y513089D02*
X536527D01*
X535127Y512949D02*
X536667D01*
X535127Y512809D02*
X536667D01*
X535127Y512669D02*
X536667D01*
X535127Y512529D02*
X536667D01*
X535127Y512389D02*
X536667D01*
X535127Y512249D02*
X536667D01*
X534567Y527929D02*
X534987D01*
X534567Y527789D02*
X535127D01*
X534707Y527649D02*
X535267D01*
X534847Y527509D02*
X535267D01*
X534847Y527369D02*
X535407D01*
X534987Y527229D02*
X535407D01*
X534987Y527089D02*
X535547D01*
X535127Y526949D02*
X535547D01*
X535127Y526809D02*
X535687D01*
X535267Y526669D02*
X535827D01*
X535407Y526529D02*
X535827D01*
X535407Y526389D02*
X535967D01*
X535547Y526249D02*
X535967D01*
X535547Y526109D02*
X536107D01*
X535687Y525969D02*
X536107D01*
X535687Y525829D02*
X536247D01*
X535827Y525689D02*
X536247D01*
X535967Y525549D02*
X536387D01*
X535967Y525409D02*
X536527D01*
X536107Y525269D02*
X536527D01*
X536107Y525129D02*
X536667D01*
X536247Y524989D02*
X536667D01*
X536247Y524849D02*
X536807D01*
X536387Y524709D02*
X536807D01*
X536387Y524569D02*
X536947D01*
X536527Y524429D02*
X536947D01*
X536527Y524289D02*
X537087D01*
X536667Y524149D02*
X537087D01*
X536667Y524009D02*
X537227D01*
X536807Y523869D02*
X537227D01*
X536807Y523729D02*
X537367D01*
X536947Y523589D02*
X537367D01*
X536947Y523449D02*
X537507D01*
X537087Y523309D02*
X537507D01*
X537087Y523169D02*
X537647D01*
X537227Y523029D02*
X537647D01*
X537227Y522889D02*
X537787D01*
X537367Y522749D02*
X537787D01*
X537367Y522609D02*
X537927D01*
X537507Y522469D02*
X537927D01*
X537507Y522329D02*
X538067D01*
X537647Y522189D02*
X538067D01*
X537647Y522049D02*
X538207D01*
X537787Y521909D02*
X538207D01*
X537787Y521769D02*
X538347D01*
X537927Y521629D02*
X538347D01*
X537927Y521489D02*
X538487D01*
X538067Y521349D02*
X538487D01*
X538067Y521209D02*
X538627D01*
X538207Y521069D02*
X538627D01*
X538207Y520929D02*
X538767D01*
X538347Y520789D02*
X538767D01*
X538347Y520649D02*
X538907D01*
X538487Y520509D02*
X538907D01*
X538487Y520369D02*
X538907D01*
X538627Y520229D02*
X539047D01*
X531487Y532689D02*
X531907D01*
X531487Y532549D02*
X532047D01*
X531627Y532409D02*
X532187D01*
X531767Y532269D02*
X532327D01*
X531767Y532129D02*
X532327D01*
X531907Y531989D02*
X532467D01*
X532047Y531849D02*
X532607D01*
X532187Y531709D02*
X532607D01*
X532187Y531569D02*
X532747D01*
X532327Y531429D02*
X532887D01*
X532467Y531289D02*
X532887D01*
X532467Y531149D02*
X533027D01*
X532607Y531009D02*
X533167D01*
X532747Y530869D02*
X533167D01*
X532747Y530729D02*
X533307D01*
X532887Y530589D02*
X533447D01*
X533027Y530449D02*
X533447D01*
X533027Y530309D02*
X533587D01*
X533167Y530169D02*
X533727D01*
X533307Y530029D02*
X533727D01*
X533307Y529889D02*
X533867D01*
X533447Y529749D02*
X533867D01*
X533447Y529609D02*
X534007D01*
X533587Y529469D02*
X534147D01*
X533727Y529329D02*
X534147D01*
X533727Y529189D02*
X534287D01*
X533867Y529049D02*
X534427D01*
X534007Y528909D02*
X534427D01*
X534007Y528769D02*
X534567D01*
X534147Y528629D02*
X534567D01*
X534147Y528489D02*
X534707D01*
X534287Y528349D02*
X534847D01*
X534427Y528209D02*
X534847D01*
X524207Y496009D02*
X524767D01*
X524207Y495869D02*
X524767D01*
X524347Y495729D02*
X524907D01*
X524487Y495589D02*
X525047D01*
X524627Y495449D02*
X525047D01*
X524627Y495309D02*
X525187D01*
X524767Y495169D02*
X525327D01*
X524907Y495029D02*
X525467D01*
X525047Y494889D02*
X525467D01*
X525047Y494749D02*
X525607D01*
X525187Y494609D02*
X525747D01*
X525327Y494469D02*
X525887D01*
X525467Y494329D02*
X525887D01*
X525467Y494189D02*
X526027D01*
X525607Y494049D02*
X526167D01*
X525747Y493909D02*
X526307D01*
X525887Y493769D02*
X526447D01*
X525887Y493629D02*
X526447D01*
X526027Y493489D02*
X526587D01*
X526167Y493349D02*
X526727D01*
X526307Y493209D02*
X526867D01*
X526447Y493069D02*
X527007D01*
X526447Y492929D02*
X527007D01*
X526587Y492789D02*
X527147D01*
X526727Y492649D02*
X527287D01*
X526867Y492509D02*
X527427D01*
X527007Y492369D02*
X527567D01*
X527147Y492229D02*
X527707D01*
X527147Y492089D02*
X527847D01*
X527287Y491949D02*
X527847D01*
X527427Y491809D02*
X527987D01*
X527567Y491669D02*
X528127D01*
X527707Y491529D02*
X528267D01*
X527847Y491389D02*
X528407D01*
X527987Y491249D02*
X528547D01*
X527987Y491109D02*
X528687D01*
X528127Y490969D02*
X528827D01*
X528267Y490829D02*
X528967D01*
X528407Y490689D02*
X529107D01*
X528547Y490549D02*
X529247D01*
X528687Y490409D02*
X529387D01*
X528827Y490269D02*
X529387D01*
X528967Y490129D02*
X529527D01*
X529107Y489989D02*
X529667D01*
X529247Y489849D02*
X529807D01*
X529387Y489709D02*
X529947D01*
X529527Y489569D02*
X530227D01*
X529667Y489429D02*
X530367D01*
X529807Y489289D02*
X530507D01*
X529947Y489149D02*
X530647D01*
X530087Y489009D02*
X530787D01*
X530227Y488869D02*
X530927D01*
X530367Y488729D02*
X531067D01*
X530507Y488589D02*
X531207D01*
X523507Y496989D02*
X524067D01*
X523647Y496849D02*
X524067D01*
X523647Y496709D02*
X524207D01*
X523787Y496569D02*
X524347D01*
X523927Y496429D02*
X524347D01*
X523927Y496289D02*
X524487D01*
X524207Y511969D02*
X525887D01*
X524207Y511829D02*
X525887D01*
X524207Y511689D02*
X525887D01*
X524207Y511549D02*
X525887D01*
X524207Y511409D02*
X525887D01*
X524207Y511269D02*
X525887D01*
X524207Y511129D02*
X525887D01*
X524207Y510989D02*
X525887D01*
X524207Y510849D02*
X525887D01*
X524207Y510709D02*
X525887D01*
X524207Y510569D02*
X525887D01*
X524207Y510429D02*
X525887D01*
X524207Y510289D02*
X525887D01*
X524207Y510149D02*
X525887D01*
X524207Y510009D02*
X525887D01*
X524207Y509869D02*
X525887D01*
X524207Y509729D02*
X525887D01*
X524207Y509589D02*
X525887D01*
X524207Y509449D02*
X525887D01*
X524347Y509309D02*
X525887D01*
X524347Y509169D02*
X526027D01*
X524347Y509029D02*
X526027D01*
X524347Y508889D02*
X526167D01*
X524487Y508749D02*
X526307D01*
X524487Y508609D02*
X526447D01*
X524487Y508469D02*
X526587D01*
X524627Y508329D02*
X526867D01*
X524487Y513229D02*
X525467D01*
X524347Y513089D02*
X525607D01*
X524347Y512949D02*
X525747D01*
X524207Y512809D02*
X525747D01*
X524207Y512669D02*
X525887D01*
X524207Y512529D02*
X525887D01*
X524207Y512389D02*
X525887D01*
X524207Y512249D02*
X525887D01*
X528827Y536049D02*
X529387D01*
X528967Y535909D02*
X529527D01*
X529107Y535769D02*
X529667D01*
X529247Y535629D02*
X529807D01*
X529247Y535489D02*
X529807D01*
X529387Y535349D02*
X529947D01*
X529527Y535209D02*
X530087D01*
X529667Y535069D02*
X530227D01*
X529807Y534929D02*
X530367D01*
X529807Y534789D02*
X530367D01*
X529947Y534649D02*
X530507D01*
X530087Y534509D02*
X530647D01*
X530227Y534369D02*
X530787D01*
X530227Y534229D02*
X530787D01*
X530367Y534089D02*
X530927D01*
X530507Y533949D02*
X531067D01*
X530647Y533809D02*
X531207D01*
X530787Y533669D02*
X531207D01*
X523507Y541229D02*
X524207D01*
X523647Y541089D02*
X524487D01*
X523927Y540949D02*
X524627D01*
X524067Y540809D02*
X524767D01*
X524207Y540669D02*
X524907D01*
X524347Y540529D02*
X525047D01*
X524627Y540389D02*
X525327D01*
X524767Y540249D02*
X525467D01*
X524907Y540109D02*
X525607D01*
X525047Y539969D02*
X525747D01*
X525187Y539829D02*
X525887D01*
X525327Y539689D02*
X526027D01*
X525467Y539549D02*
X526167D01*
X525607Y539409D02*
X526307D01*
X525887Y539269D02*
X526447D01*
X526027Y539129D02*
X526587D01*
X526167Y538989D02*
X526727D01*
X526307Y538849D02*
X526867D01*
X526447Y538709D02*
X527007D01*
X526587Y538569D02*
X527147D01*
X526727Y538429D02*
X527287D01*
X526867Y538289D02*
X527427D01*
X527007Y538149D02*
X527567D01*
X527147Y538009D02*
X527707D01*
X527147Y537869D02*
X527847D01*
X527287Y537729D02*
X527987D01*
X527427Y537589D02*
X528127D01*
X527567Y537449D02*
X528267D01*
X527707Y537309D02*
X528267D01*
X527847Y537169D02*
X528407D01*
X527987Y537029D02*
X528547D01*
X528127Y536889D02*
X528687D01*
X528267Y536749D02*
X528827D01*
X528407Y536609D02*
X528967D01*
X528407Y536469D02*
X529107D01*
X528547Y536329D02*
X529247D01*
X517767Y503989D02*
X522667D01*
X517767Y503849D02*
X522807D01*
X517907Y503709D02*
X522807D01*
X517907Y503569D02*
X522947D01*
X517907Y503429D02*
X522947D01*
X517907Y503289D02*
X523087D01*
X517907Y503149D02*
X523087D01*
X518047Y503009D02*
X523227D01*
X518047Y502869D02*
X523227D01*
X518327Y501609D02*
X522947D01*
X518467Y501469D02*
X522667D01*
X518467Y501329D02*
X522247D01*
X518467Y501189D02*
X521967D01*
X518607Y501049D02*
X521547D01*
X518607Y500909D02*
X521267D01*
X518747Y500769D02*
X520847D01*
X518747Y500629D02*
X520567D01*
X518747Y500489D02*
X520147D01*
X518887Y500349D02*
X519867D01*
X518887Y500209D02*
X519447D01*
X518887Y500069D02*
X519027D01*
X521967Y499789D02*
X522247D01*
X521827Y499649D02*
X522247D01*
X521827Y499509D02*
X522387D01*
X521967Y499369D02*
X522527D01*
X521967Y499229D02*
X522527D01*
X522107Y499089D02*
X522667D01*
X522247Y498949D02*
X522667D01*
X522247Y498809D02*
X522807D01*
X522387Y498669D02*
X522947D01*
X522527Y498529D02*
X522947D01*
X522527Y498389D02*
X523087D01*
X522667Y498249D02*
X523227D01*
X522807Y498109D02*
X523227D01*
X515667Y511969D02*
X518047D01*
X515667Y511829D02*
X518047D01*
X515667Y511689D02*
X518187D01*
X515807Y511549D02*
X518187D01*
X515807Y511409D02*
X518187D01*
X515947Y511269D02*
X518327D01*
X515947Y511129D02*
X518327D01*
X515947Y510989D02*
X518467D01*
X516087Y510849D02*
X518467D01*
X516087Y510709D02*
X518467D01*
X516227Y510569D02*
X518607D01*
X516227Y510429D02*
X518607D01*
X516227Y510289D02*
X518747D01*
X516367Y510149D02*
X518747D01*
X516367Y510009D02*
X518747D01*
X516507Y509869D02*
X518887D01*
X516507Y509729D02*
X518887D01*
X516507Y509589D02*
X519027D01*
X516647Y509449D02*
X519027D01*
X516647Y509309D02*
X519027D01*
X516787Y509169D02*
X519167D01*
X516787Y509029D02*
X519167D01*
X516787Y508889D02*
X519307D01*
X516927Y508749D02*
X519307D01*
X516927Y508609D02*
X519447D01*
X517067Y508469D02*
X519447D01*
X517067Y508329D02*
X519447D01*
X517067Y508189D02*
X519587D01*
X517207Y508049D02*
X519587D01*
X517207Y507909D02*
X519727D01*
X517347Y507769D02*
X519727D01*
X517347Y507629D02*
X519727D01*
X517347Y507489D02*
X519867D01*
X517487Y507349D02*
X519867D01*
X517487Y507209D02*
X520007D01*
X517627Y507069D02*
X520007D01*
X517627Y506929D02*
X520007D01*
X517627Y506789D02*
X520567D01*
X517767Y506649D02*
X520847D01*
X517767Y506509D02*
X520987D01*
X517907Y506369D02*
X521127D01*
X517907Y506229D02*
X521267D01*
X517907Y506089D02*
X521407D01*
X517907Y505949D02*
X521547D01*
X517767Y505809D02*
X521547D01*
X517767Y505669D02*
X521687D01*
X517767Y505529D02*
X521827D01*
X517767Y505389D02*
X521967D01*
X517767Y505249D02*
X521967D01*
X517767Y505109D02*
X522107D01*
X517767Y504969D02*
X522107D01*
X517767Y504829D02*
X522247D01*
X517767Y504689D02*
X522387D01*
X517767Y504549D02*
X522387D01*
X517767Y504409D02*
X522527D01*
X517767Y504269D02*
X522527D01*
X515527Y512249D02*
X517907D01*
X518187Y543889D02*
X519727D01*
X518747Y543749D02*
X520147D01*
X519307Y543609D02*
X520427D01*
X519727Y543469D02*
X520707D01*
X520007Y543329D02*
X520987D01*
X520287Y543189D02*
X521267D01*
X520707Y543049D02*
X521547D01*
X520987Y542909D02*
X521827D01*
X521127Y542769D02*
X522107D01*
X521407Y542629D02*
X522247D01*
X521687Y542489D02*
X522527D01*
X521967Y542349D02*
X522667D01*
X522107Y542209D02*
X522947D01*
X522387Y542069D02*
X523087D01*
X516227Y544309D02*
X518047D01*
X509647Y501889D02*
X510627D01*
X509787Y501749D02*
X510627D01*
X509927Y501609D02*
X510767D01*
X509927Y501469D02*
X510767D01*
X509927Y501329D02*
X510767D01*
X509927Y501189D02*
X510767D01*
X509927Y501049D02*
X510767D01*
X509927Y500909D02*
X510767D01*
X509927Y500769D02*
X510767D01*
X509927Y500629D02*
X510767D01*
X509927Y500489D02*
X510767D01*
X509927Y500349D02*
X510767D01*
X509927Y500209D02*
X510767D01*
X509927Y500069D02*
X510767D01*
X509927Y499929D02*
X510767D01*
X510067Y499789D02*
X510767D01*
X510207Y499649D02*
X510627D01*
X510487Y511689D02*
X512307D01*
X510627Y511549D02*
X512307D01*
X510767Y511409D02*
X512307D01*
X510767Y511269D02*
X512307D01*
X510767Y511129D02*
X512307D01*
X510627Y510989D02*
X512307D01*
X510487Y510849D02*
X512307D01*
X512587Y519949D02*
X514687D01*
X512727Y519809D02*
X514687D01*
X512727Y519669D02*
X514687D01*
X512727Y519529D02*
X514827D01*
X512867Y519389D02*
X514827D01*
X512867Y519249D02*
X514967D01*
X512867Y519109D02*
X514967D01*
X513007Y518969D02*
X515107D01*
X513007Y518829D02*
X515107D01*
X513007Y518689D02*
X515247D01*
X513147Y518549D02*
X515247D01*
X511187Y527929D02*
X511607D01*
X511187Y527789D02*
X511607D01*
X511187Y527649D02*
X511607D01*
X511187Y527509D02*
X511607D01*
X511327Y527369D02*
X511747D01*
X511327Y527229D02*
X511747D01*
X511327Y527089D02*
X511747D01*
X511327Y526949D02*
X511747D01*
X511327Y526809D02*
X511747D01*
X511327Y526669D02*
X511747D01*
X511467Y526529D02*
X511747D01*
X511467Y526389D02*
X511887D01*
X511467Y526249D02*
X511887D01*
X511467Y526109D02*
X511887D01*
X511467Y525969D02*
X511887D01*
X511467Y525829D02*
X511887D01*
X511607Y524569D02*
X512027D01*
X511607Y524429D02*
X512167D01*
X511607Y524289D02*
X512307D01*
X511607Y524149D02*
X512307D01*
X511607Y524009D02*
X512447D01*
X511607Y523869D02*
X512587D01*
X511607Y523729D02*
X512587D01*
X511607Y523589D02*
X512727D01*
X511607Y523449D02*
X512867D01*
X511747Y523309D02*
X512867D01*
X511747Y523169D02*
X513007D01*
X511747Y523029D02*
X513007D01*
X511747Y522889D02*
X513147D01*
X511887Y522749D02*
X513287D01*
X511887Y522609D02*
X513287D01*
X511887Y522469D02*
X513427D01*
X511887Y522329D02*
X513427D01*
X512027Y522189D02*
X513567D01*
X512027Y522049D02*
X513567D01*
X512027Y521909D02*
X513707D01*
X512027Y521769D02*
X513707D01*
X512167Y521629D02*
X513847D01*
X512167Y521489D02*
X513847D01*
X512167Y521349D02*
X513987D01*
X512307Y521209D02*
X513987D01*
X512307Y521069D02*
X514127D01*
X512307Y520929D02*
X514127D01*
X512447Y520789D02*
X514267D01*
X512447Y520649D02*
X514267D01*
X512447Y520509D02*
X514407D01*
X512447Y520369D02*
X514407D01*
X512587Y520229D02*
X514547D01*
X510907Y536049D02*
X511327D01*
X510907Y535909D02*
X511327D01*
X510907Y535769D02*
X511327D01*
X510907Y535629D02*
X511187D01*
X510907Y535489D02*
X511187D01*
X510907Y535349D02*
X511187D01*
X510767Y535209D02*
X511187D01*
X510767Y535069D02*
X511187D01*
X510767Y534929D02*
X511187D01*
X510767Y534789D02*
X511187D01*
X510767Y534649D02*
X511187D01*
X510767Y534509D02*
X511187D01*
X510767Y534369D02*
X511187D01*
X510767Y534229D02*
X511187D01*
X510767Y534089D02*
X511187D01*
X510767Y533949D02*
X511187D01*
X510767Y533809D02*
X511187D01*
X510767Y533669D02*
X511187D01*
X510767Y533529D02*
X511187D01*
X510767Y533389D02*
X511187D01*
X510767Y533249D02*
X511187D01*
X510767Y533109D02*
X511187D01*
X510767Y532969D02*
X511187D01*
X510767Y532829D02*
X511187D01*
X510767Y532689D02*
X511187D01*
X510767Y532549D02*
X511187D01*
X510767Y532409D02*
X511187D01*
X510767Y532269D02*
X511187D01*
X510767Y532129D02*
X511187D01*
X510767Y531989D02*
X511187D01*
X510767Y531849D02*
X511187D01*
X510767Y531709D02*
X511187D01*
X510767Y531569D02*
X511187D01*
X510907Y531429D02*
X511187D01*
X510907Y531289D02*
X511187D01*
X510907Y531149D02*
X511187D01*
X510907Y531009D02*
X511327D01*
X510907Y530869D02*
X511327D01*
X510907Y530729D02*
X511327D01*
X510907Y530589D02*
X511327D01*
X510907Y530449D02*
X511327D01*
X510907Y530309D02*
X511327D01*
X510907Y530169D02*
X511327D01*
X510907Y530029D02*
X511327D01*
X510907Y529889D02*
X511327D01*
X510907Y529749D02*
X511327D01*
X511047Y529609D02*
X511327D01*
X511047Y529469D02*
X511467D01*
X511047Y529329D02*
X511467D01*
X511047Y529189D02*
X511467D01*
X511047Y529049D02*
X511467D01*
X511047Y528909D02*
X511467D01*
X511047Y528769D02*
X511467D01*
X511047Y528629D02*
X511467D01*
X511047Y528489D02*
X511467D01*
X511187Y528349D02*
X511607D01*
X511187Y528209D02*
X511607D01*
X514407Y543609D02*
X515247D01*
X514127Y543469D02*
X514967D01*
X513987Y543329D02*
X514687D01*
X513847Y543189D02*
X514547D01*
X513567Y543049D02*
X514267D01*
X513427Y542909D02*
X514127D01*
X513287Y542769D02*
X513987D01*
X513147Y542629D02*
X513847D01*
X513147Y542489D02*
X513707D01*
X513007Y542349D02*
X513567D01*
X512867Y542209D02*
X513427D01*
X512727Y542069D02*
X513287D01*
X512727Y541929D02*
X513147D01*
X512587Y541789D02*
X513147D01*
X512447Y541649D02*
X513007D01*
X512447Y541509D02*
X512867D01*
X512307Y541369D02*
X512867D01*
X512307Y541229D02*
X512727D01*
X512167Y541089D02*
X512727D01*
X512167Y540949D02*
X512587D01*
X512027Y540809D02*
X512587D01*
X512027Y540669D02*
X512447D01*
X511887Y540529D02*
X512447D01*
X511887Y540389D02*
X512307D01*
X511747Y540249D02*
X512307D01*
X511747Y540109D02*
X512167D01*
X511747Y539969D02*
X512167D01*
X511607Y539829D02*
X512167D01*
X511607Y539689D02*
X512027D01*
X511607Y539549D02*
X512027D01*
X511467Y539409D02*
X512027D01*
X511467Y539269D02*
X511887D01*
X511467Y539129D02*
X511887D01*
X511467Y538989D02*
X511887D01*
X511327Y538849D02*
X511747D01*
X511327Y538709D02*
X511747D01*
X511327Y538569D02*
X511747D01*
X511327Y538429D02*
X511747D01*
X511187Y538289D02*
X511607D01*
X511187Y538149D02*
X511607D01*
X511187Y538009D02*
X511607D01*
X511187Y537869D02*
X511607D01*
X511187Y537729D02*
X511607D01*
X511047Y537589D02*
X511467D01*
X511047Y537449D02*
X511467D01*
X511047Y537309D02*
X511467D01*
X511047Y537169D02*
X511467D01*
X511047Y537029D02*
X511467D01*
X511047Y536889D02*
X511467D01*
X510907Y536749D02*
X511327D01*
X510907Y536609D02*
X511327D01*
X510907Y536469D02*
X511327D01*
X510907Y536329D02*
X511327D01*
X505307Y501889D02*
X506287D01*
X501247D02*
X502227D01*
X505307Y501749D02*
X506147D01*
X501387D02*
X502227D01*
X505307Y501609D02*
X506147D01*
X501387D02*
X502227D01*
X505167Y501469D02*
X506007D01*
X501527D02*
X502367D01*
X505167Y501329D02*
X506007D01*
X501527D02*
X502367D01*
X505167Y501189D02*
X506007D01*
X501527D02*
X502367D01*
X505167Y501049D02*
X506007D01*
X501527D02*
X502367D01*
X505167Y500909D02*
X506007D01*
X501527D02*
X502367D01*
X505167Y500769D02*
X506007D01*
X501527D02*
X502367D01*
X505167Y500629D02*
X506007D01*
X501527D02*
X502367D01*
X505167Y500489D02*
X506007D01*
X501527D02*
X502367D01*
X505167Y500349D02*
X506007D01*
X501527D02*
X502367D01*
X505167Y500209D02*
X506007D01*
X501527D02*
X502367D01*
X505167Y500069D02*
X506007D01*
X501527D02*
X502367D01*
X505167Y499929D02*
X506007D01*
X501527D02*
X502367D01*
X505307Y499789D02*
X506007D01*
X501527D02*
X502227D01*
X505447Y499649D02*
X505727D01*
X501667D02*
X502087D01*
X499847Y509169D02*
X501667D01*
X499847Y509029D02*
X501527D01*
X499847Y508889D02*
X501387D01*
X499847Y508749D02*
X501387D01*
X499847Y508609D02*
X501387D01*
X499847Y508469D02*
X501387D01*
X499847Y508329D02*
X501527D01*
X494107Y502729D02*
X497747D01*
X492007D02*
X492427D01*
X493827Y502589D02*
X498027D01*
X491867D02*
X492567D01*
X493687Y502449D02*
X498167D01*
X491727D02*
X492567D01*
X493547Y502309D02*
X498307D01*
X491727D02*
X492567D01*
X493407Y502169D02*
X498447D01*
X491727D02*
X492567D01*
X493407Y502029D02*
X498587D01*
X491727D02*
X492567D01*
X497607Y501889D02*
X498587D01*
X493267D02*
X494247D01*
X491727D02*
X492567D01*
X497747Y501749D02*
X498587D01*
X493267D02*
X494107D01*
X491727D02*
X492567D01*
X497887Y501609D02*
X498727D01*
X493267D02*
X494107D01*
X491727D02*
X492567D01*
X497887Y501469D02*
X498727D01*
X493127D02*
X493967D01*
X491727D02*
X492567D01*
X497887Y501329D02*
X498727D01*
X493127D02*
X493967D01*
X491727D02*
X492567D01*
X497887Y501189D02*
X498727D01*
X493127D02*
X493967D01*
X491727D02*
X492567D01*
X497887Y501049D02*
X498727D01*
X493127D02*
X493967D01*
X491727D02*
X492567D01*
X497887Y500909D02*
X498727D01*
X493127D02*
X493967D01*
X491727D02*
X492567D01*
X497887Y500769D02*
X498727D01*
X493127D02*
X493967D01*
X491727D02*
X492567D01*
X497887Y500629D02*
X498727D01*
X493127D02*
X493967D01*
X491587D02*
X492427D01*
X497887Y500489D02*
X498727D01*
X493127D02*
X493967D01*
X497887Y500349D02*
X498727D01*
X493127D02*
X493967D01*
X497887Y500209D02*
X498727D01*
X493127D02*
X493967D01*
X497887Y500069D02*
X498727D01*
X493127D02*
X493967D01*
X497887Y499929D02*
X498727D01*
X493127D02*
X493967D01*
X498027Y499789D02*
X498727D01*
X493267D02*
X493967D01*
X498167Y499649D02*
X498587D01*
X493407D02*
X493687D01*
X496767Y509169D02*
X498307D01*
X496767Y509029D02*
X498307D01*
X496767Y508889D02*
X498307D01*
X496767Y508749D02*
X498307D01*
X496767Y508609D02*
X498307D01*
X496627Y508469D02*
X498307D01*
X496627Y508329D02*
X498307D01*
X486967Y502729D02*
X487387D01*
X486827Y502589D02*
X487527D01*
X486687Y502449D02*
X487527D01*
X486687Y502309D02*
X487527D01*
X486687Y502169D02*
X487527D01*
X486687Y502029D02*
X487527D01*
X486687Y501889D02*
X487527D01*
X486687Y501749D02*
X487527D01*
X486687Y501609D02*
X487527D01*
X486687Y501469D02*
X487527D01*
X486687Y501329D02*
X487527D01*
X486687Y501189D02*
X487527D01*
X486687Y501049D02*
X487527D01*
X486827Y500909D02*
X487527D01*
X486827Y500769D02*
X487667D01*
X486827Y500629D02*
X487667D01*
X486827Y500489D02*
X487947D01*
X543807Y488169D02*
X544227D01*
X543947Y504129D02*
X544367D01*
X545067Y496149D02*
X545347D01*
X538627Y520089D02*
X539047D01*
X535127Y512109D02*
X536667D01*
X534427Y528069D02*
X534987D01*
X524207Y512109D02*
X525887D01*
X524067Y496149D02*
X524627D01*
X528687Y536189D02*
X529247D01*
X515527Y512109D02*
X517907D01*
X517767Y504129D02*
X522667D01*
X515667Y544169D02*
X518747D01*
X512587Y520089D02*
X514547D01*
X510907Y536189D02*
X511327D01*
X511187Y528069D02*
X511607D01*
X578667Y511969D02*
X590567D01*
X578667Y511829D02*
X590567D01*
X578667Y511689D02*
X580487D01*
X578667Y511549D02*
X580347D01*
X578667Y511409D02*
X580207D01*
X578667Y511269D02*
X580207D01*
X578667Y511129D02*
X580207D01*
X578667Y510989D02*
X580347D01*
X578667Y510849D02*
X580487D01*
X578667Y510709D02*
X590567D01*
X578667Y510569D02*
X590567D01*
X578807Y510429D02*
X590567D01*
X578807Y510289D02*
X590567D01*
X578947Y510149D02*
X590567D01*
X579087Y510009D02*
X590567D01*
X579087Y509869D02*
X590567D01*
X579227Y509729D02*
X590567D01*
X579507Y509589D02*
X590567D01*
X579647Y509449D02*
X590567D01*
X580067Y509309D02*
X590567D01*
X579927Y513229D02*
X590287D01*
X579647Y513089D02*
X590427D01*
X579367Y512949D02*
X590567D01*
X579227Y512809D02*
X590567D01*
X579087Y512669D02*
X590567D01*
X578947Y512529D02*
X590567D01*
X578947Y512389D02*
X590567D01*
X578807Y512249D02*
X590567D01*
X539327Y484669D02*
X541147D01*
X537227Y484529D02*
X540727D01*
X537787Y484389D02*
X540167D01*
X551927Y511969D02*
X563267D01*
X538067D02*
X549687D01*
X551787Y511829D02*
X563407D01*
X538067D02*
X549547D01*
X561167Y511689D02*
X563407D01*
X538067D02*
X539887D01*
X561447Y511549D02*
X563547D01*
X538067D02*
X539747D01*
X561727Y511409D02*
X563547D01*
X538067D02*
X539607D01*
X561867Y511269D02*
X563687D01*
X538067D02*
X539607D01*
X562007Y511129D02*
X563687D01*
X538067D02*
X539607D01*
X562007Y510989D02*
X563687D01*
X538067D02*
X539747D01*
X562147Y510849D02*
X563687D01*
X538067D02*
X539887D01*
X562147Y510709D02*
X563827D01*
X538067D02*
X548707D01*
X562287Y510569D02*
X563827D01*
X538067D02*
X548987D01*
X562287Y510429D02*
X563827D01*
X538207D02*
X549267D01*
X562287Y510289D02*
X563827D01*
X538207D02*
X549407D01*
X562287Y510149D02*
X563827D01*
X538347D02*
X549547D01*
X562287Y510009D02*
X563827D01*
X538487D02*
X549687D01*
X562287Y509869D02*
X563827D01*
X538487D02*
X549687D01*
X562287Y509729D02*
X563827D01*
X538627D02*
X549827D01*
X562287Y509589D02*
X563827D01*
X538907D02*
X549827D01*
X562287Y509449D02*
X563827D01*
X539047D02*
X549967D01*
X562147Y509309D02*
X563827D01*
X539467D02*
X549967D01*
X562147Y509169D02*
X563827D01*
X562007Y509029D02*
X563687D01*
X562007Y508889D02*
X563687D01*
X561867Y508749D02*
X563687D01*
X561727Y508609D02*
X563547D01*
X561587Y508469D02*
X563547D01*
X561307Y508329D02*
X563547D01*
X551787Y508189D02*
X563407D01*
X551927Y508049D02*
X563267D01*
X551927Y507909D02*
X563267D01*
X552067Y507769D02*
X563127D01*
X552207Y507629D02*
X562987D01*
X552347Y507489D02*
X562987D01*
X552487Y507349D02*
X562847D01*
X552627Y507209D02*
X562567D01*
X552767Y507069D02*
X562427D01*
X553047Y506929D02*
X562287D01*
X553327Y506789D02*
X562007D01*
X553887Y506649D02*
X561447D01*
X538767Y519669D02*
X539327D01*
X538907Y519529D02*
X539327D01*
X538907Y519389D02*
X539467D01*
X539047Y519249D02*
X539467D01*
X539047Y519109D02*
X539607D01*
X539187Y518969D02*
X539607D01*
X539187Y518829D02*
X539607D01*
X539187Y518689D02*
X539747D01*
X539327Y518549D02*
X539747D01*
X539327Y518409D02*
X539887D01*
X553327Y513229D02*
X561867D01*
X539327D02*
X549687D01*
X553047Y513089D02*
X562147D01*
X539047D02*
X549827D01*
X552767Y512949D02*
X562427D01*
X538767D02*
X549967D01*
X552627Y512809D02*
X562567D01*
X538627D02*
X549967D01*
X552487Y512669D02*
X562707D01*
X538487D02*
X549967D01*
X552347Y512529D02*
X562847D01*
X538347D02*
X549967D01*
X552207Y512389D02*
X562987D01*
X538347D02*
X549967D01*
X552067Y512249D02*
X563127D01*
X538207D02*
X549967D01*
X531207Y488029D02*
X531907D01*
X531347Y487889D02*
X532047D01*
X530647Y488449D02*
X531347D01*
X530927Y488309D02*
X531487D01*
X518047Y502729D02*
X523367D01*
X506147D02*
X509787D01*
X518047Y502589D02*
X523367D01*
X505867D02*
X510067D01*
X518187Y502449D02*
X523507D01*
X505727D02*
X510207D01*
X518187Y502309D02*
X523507D01*
X505587D02*
X510347D01*
X518187Y502169D02*
X523507D01*
X505447D02*
X510487D01*
X518327Y502029D02*
X523647D01*
X505447D02*
X510627D01*
X518327Y501889D02*
X523647D01*
X518327Y501749D02*
X523367D01*
X522807Y497969D02*
X523367D01*
X522947Y497829D02*
X523507D01*
X523087Y497689D02*
X523507D01*
X523087Y497549D02*
X523647D01*
X523227Y497409D02*
X523787D01*
X523367Y497269D02*
X523787D01*
X523367Y497129D02*
X523927D01*
X525607Y507069D02*
X535267D01*
X525887Y506929D02*
X535127D01*
X526167Y506789D02*
X534847D01*
X526727Y506649D02*
X534287D01*
X513147Y518409D02*
X515387D01*
X513147Y518269D02*
X515387D01*
X513287Y518129D02*
X515527D01*
X513287Y517989D02*
X515527D01*
X513427Y517849D02*
X515527D01*
X513427Y517709D02*
X515667D01*
X513427Y517569D02*
X515667D01*
X513567Y517429D02*
X515807D01*
X513567Y517289D02*
X515807D01*
X513567Y517149D02*
X515947D01*
X513707Y517009D02*
X515947D01*
X513707Y516869D02*
X515947D01*
X513707Y516729D02*
X516087D01*
X513847Y516589D02*
X516087D01*
X513847Y516449D02*
X516227D01*
X513847Y516309D02*
X516227D01*
X513987Y516169D02*
X516367D01*
X513987Y516029D02*
X516367D01*
X514127Y515889D02*
X516367D01*
X514127Y515749D02*
X516507D01*
X514127Y515609D02*
X516507D01*
X514267Y515469D02*
X516647D01*
X514267Y515329D02*
X516647D01*
X514267Y515189D02*
X516787D01*
X514407Y515049D02*
X516787D01*
X514407Y514909D02*
X516787D01*
X514547Y514769D02*
X516927D01*
X514547Y514629D02*
X516927D01*
X514547Y514489D02*
X517067D01*
X514687Y514349D02*
X517067D01*
X514687Y514209D02*
X517067D01*
X514827Y514069D02*
X517207D01*
X514827Y513929D02*
X517207D01*
X514827Y513789D02*
X517347D01*
X514967Y513649D02*
X517347D01*
X514967Y513509D02*
X517347D01*
X515107Y513369D02*
X517487D01*
X515107Y513229D02*
X517487D01*
X515107Y513089D02*
X517627D01*
X515247Y512949D02*
X517627D01*
X515247Y512809D02*
X517627D01*
X515387Y512669D02*
X517767D01*
X515387Y512529D02*
X517767D01*
X515387Y512389D02*
X517907D01*
X530787Y533529D02*
X531347D01*
X530927Y533389D02*
X531487D01*
X531067Y533249D02*
X531627D01*
X531067Y533109D02*
X531627D01*
X531207Y532969D02*
X531767D01*
X531347Y532829D02*
X531907D01*
X515247Y544029D02*
X519307D01*
X514827Y543889D02*
X516227D01*
X514547Y543749D02*
X515667D01*
X522527Y541929D02*
X523367D01*
X522807Y541789D02*
X523507D01*
X522947Y541649D02*
X523647D01*
X523227Y541509D02*
X523927D01*
X523367Y541369D02*
X524067D01*
X491447Y500489D02*
X492427D01*
X486967Y500349D02*
X492287D01*
X486967Y500209D02*
X492287D01*
X487107Y500069D02*
X492147D01*
X487247Y499929D02*
X492007D01*
X487387Y499789D02*
X491867D01*
X487807Y499649D02*
X491587D01*
X486267Y511969D02*
X498027D01*
X486407Y511829D02*
X497887D01*
X486687Y510709D02*
X498027D01*
X486547Y510569D02*
X498167D01*
X486407Y510429D02*
X498307D01*
X486407Y510289D02*
X498307D01*
X486407Y510149D02*
X498307D01*
X486407Y510009D02*
X498307D01*
X486407Y509869D02*
X498307D01*
X486407Y509729D02*
X498307D01*
X486407Y509589D02*
X498307D01*
X486547Y509449D02*
X498307D01*
X486687Y509309D02*
X498307D01*
X486547Y508189D02*
X498307D01*
X486267Y508049D02*
X498307D01*
X486127Y507909D02*
X498167D01*
X486127Y507769D02*
X498167D01*
X485987Y507629D02*
X498027D01*
X485987Y507489D02*
X498027D01*
X485987Y507349D02*
X497887D01*
X485987Y507209D02*
X497747D01*
X486127Y507069D02*
X497607D01*
X486127Y506929D02*
X497467D01*
X486267Y506789D02*
X497187D01*
X486547Y506649D02*
X496627D01*
X486267Y513229D02*
X498027D01*
X486127Y513089D02*
X498167D01*
X486127Y512949D02*
X498307D01*
X485987Y512809D02*
X498307D01*
X485987Y512669D02*
X498307D01*
X485987Y512529D02*
X498307D01*
X485987Y512389D02*
X498307D01*
X485987Y512249D02*
X498307D01*
X578807Y512109D02*
X590567D01*
X552067D02*
X563267D01*
X538207D02*
X549827D01*
X531067Y488169D02*
X531767D01*
X486127Y512109D02*
X498167D01*
X499287Y502729D02*
X504607D01*
X499147Y502589D02*
X504747D01*
X499147Y502449D02*
X504747D01*
X499147Y502309D02*
X504747D01*
X499147Y502169D02*
X504747D01*
X499287Y502029D02*
X504607D01*
X565367Y511969D02*
X576987D01*
X500547D02*
X512167D01*
X565367Y511829D02*
X576847D01*
X500687D02*
X512307D01*
X565367Y510709D02*
X576007D01*
X501247D02*
X512307D01*
X565367Y510569D02*
X576287D01*
X500967D02*
X512167D01*
X565507Y510429D02*
X576567D01*
X500687D02*
X512167D01*
X565507Y510289D02*
X576707D01*
X500547D02*
X512027D01*
X565647Y510149D02*
X576847D01*
X500407D02*
X512027D01*
X565787Y510009D02*
X576987D01*
X500267D02*
X511887D01*
X565787Y509869D02*
X576987D01*
X500127D02*
X511747D01*
X565927Y509729D02*
X577127D01*
X499987D02*
X511607D01*
X566207Y509589D02*
X577127D01*
X499987D02*
X511467D01*
X566347Y509449D02*
X577267D01*
X499987D02*
X511327D01*
X566767Y509309D02*
X577267D01*
X499847D02*
X510907D01*
X567187Y509169D02*
X571667D01*
X524627Y508189D02*
X536247D01*
X499847D02*
X511327D01*
X524767Y508049D02*
X536107D01*
X499847D02*
X511607D01*
X524767Y507909D02*
X536107D01*
X499987D02*
X511747D01*
X524907Y507769D02*
X535967D01*
X499987D02*
X511887D01*
X525047Y507629D02*
X535827D01*
X500127D02*
X511887D01*
X525187Y507489D02*
X535827D01*
X500127D02*
X511887D01*
X525327Y507349D02*
X535687D01*
X500267D02*
X511887D01*
X525467Y507209D02*
X535407D01*
X500407D02*
X511887D01*
X500547Y507069D02*
X511747D01*
X500827Y506929D02*
X511747D01*
X500967Y506789D02*
X511607D01*
X501527Y506649D02*
X511327D01*
X566627Y513229D02*
X576987D01*
X500547D02*
X511047D01*
X566347Y513089D02*
X577127D01*
X500407D02*
X511327D01*
X566067Y512949D02*
X577267D01*
X500267D02*
X511467D01*
X565927Y512809D02*
X577267D01*
X500267D02*
X511747D01*
X565787Y512669D02*
X577267D01*
X500267D02*
X511887D01*
X565647Y512529D02*
X577267D01*
X500267D02*
X511887D01*
X565647Y512389D02*
X577267D01*
X500267D02*
X512027D01*
X565507Y512249D02*
X577267D01*
X500267D02*
X512167D01*
X565507Y512109D02*
X577127D01*
X500407D02*
X512167D01*
X176750Y196553D02*
X188510D01*
X241850D02*
X253470D01*
X176610Y196693D02*
X188510D01*
X241850D02*
X253610D01*
X176610Y196833D02*
X188370D01*
X241990D02*
X253610D01*
X176610Y196973D02*
X188230D01*
X241990D02*
X253610D01*
X176610Y197113D02*
X188230D01*
X242130D02*
X253610D01*
X176610Y197253D02*
X188090D01*
X242270D02*
X253610D01*
X176610Y197393D02*
X187810D01*
X242410D02*
X253610D01*
X176750Y197533D02*
X187670D01*
X242690D02*
X253470D01*
X176890Y197673D02*
X187390D01*
X242970D02*
X253330D01*
X177870Y191093D02*
X187670D01*
X177310Y191233D02*
X187950D01*
X177170Y191373D02*
X188090D01*
X176890Y191513D02*
X188090D01*
X176750Y191653D02*
X188230D01*
X201810D02*
X211750D01*
X176610Y191793D02*
X188230D01*
X201670D02*
X212030D01*
X176470Y191933D02*
X188230D01*
X201530D02*
X212170D01*
X176470Y192073D02*
X188230D01*
X201390D02*
X212170D01*
X176330Y192213D02*
X188230D01*
X201250D02*
X212310D01*
X176330Y192353D02*
X188090D01*
X201110D02*
X212450D01*
X176190Y192493D02*
X187950D01*
X201110D02*
X212450D01*
X176190Y192633D02*
X187670D01*
X200970D02*
X212590D01*
X243530Y193613D02*
X248010D01*
X176190Y193753D02*
X187250D01*
X243110D02*
X253610D01*
X176330Y193893D02*
X187670D01*
X242690D02*
X253610D01*
X176330Y194033D02*
X187810D01*
X242550D02*
X253470D01*
X176330Y194173D02*
X187950D01*
X242270D02*
X253470D01*
X176470Y194313D02*
X188090D01*
X242130D02*
X253330D01*
X176610Y194453D02*
X188230D01*
X242130D02*
X253330D01*
X176750Y194593D02*
X188370D01*
X241990D02*
X253190D01*
X176890Y194733D02*
X188370D01*
X241850D02*
X253050D01*
X177030Y194873D02*
X188510D01*
X241850D02*
X252910D01*
X177310Y195013D02*
X188510D01*
X241710D02*
X252630D01*
X177590Y195153D02*
X188650D01*
X241710D02*
X252350D01*
X177030Y196273D02*
X188650D01*
X241710D02*
X253190D01*
X176890Y196413D02*
X188510D01*
X241710D02*
X253330D01*
X175630Y186473D02*
X180950D01*
X175490Y186613D02*
X181090D01*
X175490Y186753D02*
X181090D01*
X175490Y186893D02*
X181090D01*
X175490Y187033D02*
X181090D01*
X175630Y187173D02*
X180950D01*
X162470Y196553D02*
X174510D01*
X207410Y172613D02*
X208110D01*
X214550Y196553D02*
X226170D01*
X228410D02*
X239610D01*
X255150D02*
X266910D01*
X162330Y196693D02*
X174650D01*
X162330Y196833D02*
X174650D01*
X162330Y196973D02*
X174650D01*
X162330Y197113D02*
X174650D01*
X162330Y197253D02*
X174650D01*
X162470Y197393D02*
X174650D01*
X162470Y197533D02*
X174510D01*
X162610Y197673D02*
X174370D01*
X162890Y191093D02*
X172970D01*
X162610Y191233D02*
X173530D01*
X162470Y191373D02*
X173810D01*
X162470Y191513D02*
X173950D01*
X162330Y191653D02*
X174090D01*
X162330Y191793D02*
X174230D01*
X162330Y191933D02*
X174370D01*
X162330Y192073D02*
X174370D01*
X162470Y192213D02*
X174510D01*
X162470Y192353D02*
X174510D01*
X162610Y192493D02*
X174650D01*
X162890Y192633D02*
X174650D01*
X163030Y193753D02*
X174650D01*
X162890Y193893D02*
X174650D01*
X162750Y194033D02*
X174650D01*
X162750Y194173D02*
X174650D01*
X162750Y194313D02*
X174650D01*
X162750Y194453D02*
X174650D01*
X162750Y194593D02*
X174650D01*
X162750Y194733D02*
X174650D01*
X162750Y194873D02*
X174650D01*
X162890Y195013D02*
X174510D01*
X163030Y195153D02*
X174370D01*
X162750Y196273D02*
X174230D01*
X162610Y196413D02*
X174370D01*
X164150Y184093D02*
X167930D01*
X163730Y184233D02*
X168210D01*
X163590Y184373D02*
X168350D01*
X163450Y184513D02*
X168490D01*
X163310Y184653D02*
X168630D01*
X163310Y184793D02*
X168630D01*
X167790Y184933D02*
X168770D01*
X199710Y225813D02*
X200410D01*
X199570Y225953D02*
X200270D01*
X199290Y226093D02*
X199990D01*
X199150Y226233D02*
X199850D01*
X198870Y226373D02*
X199710D01*
X190890Y228193D02*
X192010D01*
X191170Y228333D02*
X192570D01*
X191590Y228473D02*
X195650D01*
X207690Y217273D02*
X208250D01*
X207550Y217413D02*
X208110D01*
X207410Y217553D02*
X207970D01*
X207410Y217693D02*
X207970D01*
X207270Y217833D02*
X207830D01*
X207130Y217973D02*
X207690D01*
X191730Y196833D02*
X194250D01*
X191730Y196973D02*
X194110D01*
X191730Y197113D02*
X194110D01*
X191590Y197253D02*
X193970D01*
X191590Y197393D02*
X193970D01*
X191450Y197533D02*
X193970D01*
X191450Y197673D02*
X193830D01*
X191450Y197813D02*
X193830D01*
X191310Y197953D02*
X193690D01*
X191310Y198093D02*
X193690D01*
X191170Y198233D02*
X193690D01*
X191170Y198373D02*
X193550D01*
X191170Y198513D02*
X193550D01*
X191030Y198653D02*
X193410D01*
X191030Y198793D02*
X193410D01*
X190890Y198933D02*
X193410D01*
X190890Y199073D02*
X193270D01*
X190890Y199213D02*
X193270D01*
X190750Y199353D02*
X193130D01*
X190750Y199493D02*
X193130D01*
X190610Y199633D02*
X193130D01*
X190610Y199773D02*
X192990D01*
X190610Y199913D02*
X192990D01*
X190470Y200053D02*
X192850D01*
X190470Y200193D02*
X192850D01*
X190470Y200333D02*
X192710D01*
X190330Y200473D02*
X192710D01*
X190330Y200613D02*
X192710D01*
X190190Y200753D02*
X192570D01*
X190190Y200893D02*
X192570D01*
X190190Y201033D02*
X192430D01*
X190050Y201173D02*
X192430D01*
X190050Y201313D02*
X192290D01*
X190050Y201453D02*
X192290D01*
X189910Y201593D02*
X192290D01*
X189910Y201733D02*
X192150D01*
X189910Y201873D02*
X192150D01*
X189770Y202013D02*
X192010D01*
X189770Y202153D02*
X192010D01*
X189770Y202293D02*
X191870D01*
X189630Y202433D02*
X191870D01*
X189630Y202573D02*
X191870D01*
X189490Y202713D02*
X191730D01*
X189490Y202853D02*
X191730D01*
X203070Y191093D02*
X210630D01*
X202510Y191233D02*
X211190D01*
X202230Y191373D02*
X211470D01*
X201950Y191513D02*
X211610D01*
X199710Y181573D02*
X200270D01*
X199710Y181713D02*
X200130D01*
X199570Y181853D02*
X200130D01*
X199430Y181993D02*
X199990D01*
X199430Y182133D02*
X199850D01*
X199290Y182273D02*
X199850D01*
X199150Y182413D02*
X199710D01*
X194670Y186193D02*
X199710D01*
X194670Y186333D02*
X199990D01*
X181790Y186473D02*
X186970D01*
X194670D02*
X199990D01*
X181790Y186613D02*
X186830D01*
X194530D02*
X199850D01*
X181930Y186753D02*
X186690D01*
X194530D02*
X199850D01*
X182070Y186893D02*
X186550D01*
X194530D02*
X199850D01*
X182210Y187033D02*
X186410D01*
X194390D02*
X199710D01*
X182490Y187173D02*
X186130D01*
X194390D02*
X199710D01*
X207270Y172753D02*
X207830D01*
X206990Y172893D02*
X207690D01*
Y172333D02*
X208390D01*
X207550Y172473D02*
X208250D01*
X214550Y196693D02*
X226310D01*
X228410D02*
X239470D01*
X214690Y196833D02*
X226310D01*
X228550D02*
X239330D01*
X214690Y196973D02*
X226310D01*
X228690D02*
X239190D01*
X214830Y197113D02*
X226310D01*
X228830D02*
X239050D01*
X214970Y197253D02*
X226310D01*
X228970D02*
X238910D01*
X215110Y197393D02*
X226310D01*
X229110D02*
X238770D01*
X215390Y197533D02*
X226170D01*
X229390D02*
X238490D01*
X215670Y197673D02*
X226030D01*
X229670D02*
X238210D01*
X215670Y202853D02*
X216230D01*
X215670Y202993D02*
X216090D01*
X215530Y203133D02*
X216090D01*
X215530Y203273D02*
X215950D01*
X215530Y203413D02*
X215950D01*
X215390Y203553D02*
X215950D01*
X215390Y203693D02*
X215810D01*
X215250Y203833D02*
X215810D01*
X215250Y203973D02*
X215670D01*
X215110Y204113D02*
X215670D01*
X230230Y191093D02*
X237790D01*
X229670Y191233D02*
X238350D01*
X229390Y191373D02*
X238630D01*
X229110Y191513D02*
X238770D01*
X228970Y191653D02*
X238910D01*
X228830Y191793D02*
X239190D01*
X228690Y191933D02*
X239330D01*
X228550Y192073D02*
X239330D01*
X228410Y192213D02*
X239470D01*
X228270Y192353D02*
X239610D01*
X228270Y192493D02*
X239610D01*
X228130Y192633D02*
X239750D01*
X237650Y192773D02*
X239890D01*
X237930Y192913D02*
X239890D01*
X238070Y193053D02*
X239890D01*
X238210Y193193D02*
X240030D01*
X238350Y193333D02*
X240030D01*
X238350Y193473D02*
X240030D01*
X238490Y193613D02*
X240170D01*
X215810Y193753D02*
X226310D01*
X238490D02*
X240170D01*
X215390Y193893D02*
X226310D01*
X238630D02*
X240170D01*
X215250Y194033D02*
X226170D01*
X238630D02*
X240170D01*
X214970Y194173D02*
X226170D01*
X238630D02*
X240170D01*
X214830Y194313D02*
X226030D01*
X238630D02*
X240170D01*
X214830Y194453D02*
X226030D01*
X238630D02*
X240170D01*
X214690Y194593D02*
X225890D01*
X238630D02*
X240170D01*
X214550Y194733D02*
X225750D01*
X238630D02*
X240170D01*
X214550Y194873D02*
X225610D01*
X238630D02*
X240170D01*
X214410Y195013D02*
X225330D01*
X238630D02*
X240170D01*
X214410Y195153D02*
X225050D01*
X238490D02*
X240170D01*
X214410Y195293D02*
X216230D01*
X238490D02*
X240030D01*
X214410Y195433D02*
X216090D01*
X238350D02*
X240030D01*
X214410Y195573D02*
X215950D01*
X238350D02*
X240030D01*
X214410Y195713D02*
X215950D01*
X238210D02*
X240030D01*
X214410Y195853D02*
X215950D01*
X238070D02*
X239890D01*
X214410Y195993D02*
X216090D01*
X237790D02*
X239890D01*
X214410Y196133D02*
X216230D01*
X237510D02*
X239750D01*
X214410Y196273D02*
X225890D01*
X228130D02*
X239750D01*
X214410Y196413D02*
X226030D01*
X228270D02*
X239610D01*
X214130Y168833D02*
X216510D01*
X213570Y168973D02*
X217070D01*
X215670Y169113D02*
X217490D01*
X255150Y196693D02*
X266910D01*
X255290Y196833D02*
X266910D01*
X255290Y196973D02*
X266910D01*
X255430Y197113D02*
X266910D01*
X255570Y197253D02*
X266910D01*
X255710Y197393D02*
X266910D01*
X255990Y197533D02*
X266770D01*
X256270Y197673D02*
X266630D01*
X256410Y193753D02*
X266910D01*
X255990Y193893D02*
X266910D01*
X255850Y194033D02*
X266910D01*
X255570Y194173D02*
X266910D01*
X255430Y194313D02*
X266910D01*
X255430Y194453D02*
X266910D01*
X255290Y194593D02*
X266910D01*
X255150Y194733D02*
X266910D01*
X255150Y194873D02*
X266910D01*
X255010Y195013D02*
X266910D01*
X255010Y195153D02*
X266910D01*
X255010Y195293D02*
X256830D01*
X255010Y195433D02*
X256690D01*
X255010Y195573D02*
X256550D01*
X255010Y195713D02*
X256550D01*
X255010Y195853D02*
X256550D01*
X255010Y195993D02*
X256690D01*
X255010Y196133D02*
X256830D01*
X255010Y196273D02*
X266910D01*
X255010Y196413D02*
X266910D01*
X187530Y212513D02*
X187950D01*
X187250Y220633D02*
X187670D01*
X188930Y204533D02*
X190890D01*
X192010Y228613D02*
X195090D01*
X194110Y188573D02*
X199010D01*
X191870Y196553D02*
X194250D01*
X205030Y220633D02*
X205590D01*
X200410Y180593D02*
X200970D01*
X200550Y196553D02*
X202230D01*
X210770Y212513D02*
X211330D01*
X211470Y196553D02*
X213010D01*
X214970Y204533D02*
X215390D01*
X221410Y180593D02*
X221690D01*
X220290Y188573D02*
X220710D01*
X220150Y172613D02*
X220570D01*
X163170Y184933D02*
X164290D01*
X163170Y185073D02*
X164010D01*
X163170Y185213D02*
X164010D01*
X163170Y185353D02*
X163870D01*
X163030Y185493D02*
X163870D01*
X163030Y185633D02*
X163870D01*
X163030Y185773D02*
X163870D01*
X163030Y185913D02*
X163870D01*
X163030Y186053D02*
X163870D01*
X163030Y186193D02*
X163870D01*
X163030Y186333D02*
X163870D01*
X163030Y186473D02*
X163870D01*
X163030Y186613D02*
X163870D01*
X163030Y186753D02*
X163870D01*
X163030Y186893D02*
X163870D01*
X163170Y187033D02*
X163870D01*
X163310Y187173D02*
X163730D01*
X172970Y192773D02*
X174650D01*
X172970Y192913D02*
X174650D01*
X173110Y193053D02*
X174650D01*
X173110Y193193D02*
X174650D01*
X173110Y193333D02*
X174650D01*
X173110Y193473D02*
X174650D01*
X173110Y193613D02*
X174650D01*
X169750Y184093D02*
X170030D01*
X174510D02*
X174930D01*
X169610Y184233D02*
X170310D01*
X174370D02*
X175070D01*
X169470Y184373D02*
X170310D01*
X174230D02*
X175070D01*
X169470Y184513D02*
X170310D01*
X174230D02*
X175070D01*
X169470Y184653D02*
X170310D01*
X174230D02*
X175070D01*
X169470Y184793D02*
X170310D01*
X174230D02*
X175070D01*
X169470Y184933D02*
X170310D01*
X174230D02*
X175070D01*
X167930Y185073D02*
X168770D01*
X169470D02*
X170310D01*
X174230D02*
X175070D01*
X168070Y185213D02*
X168910D01*
X169470D02*
X170310D01*
X174230D02*
X175070D01*
X168070Y185353D02*
X168910D01*
X169470D02*
X170310D01*
X174230D02*
X175070D01*
X168070Y185493D02*
X168910D01*
X169470D02*
X170310D01*
X174230D02*
X175070D01*
X168070Y185633D02*
X168910D01*
X169470D02*
X170310D01*
X174230D02*
X175070D01*
X168070Y185773D02*
X168910D01*
X169470D02*
X170310D01*
X174230D02*
X175070D01*
X168070Y185913D02*
X168910D01*
X169470D02*
X170310D01*
X174230D02*
X175070D01*
X168070Y186053D02*
X168910D01*
X169610D02*
X170450D01*
X174230D02*
X175070D01*
X168070Y186193D02*
X168910D01*
X169610D02*
X170450D01*
X174090D02*
X174930D01*
X168070Y186333D02*
X168910D01*
X169610D02*
X170590D01*
X173950D02*
X174930D01*
X168070Y186473D02*
X168910D01*
X169750D02*
X174930D01*
X168070Y186613D02*
X168910D01*
X169750D02*
X174790D01*
X168070Y186753D02*
X168910D01*
X169890D02*
X174650D01*
X168070Y186893D02*
X168910D01*
X170030D02*
X174510D01*
X168210Y187033D02*
X168910D01*
X170170D02*
X174370D01*
X168350Y187173D02*
X168770D01*
X170450D02*
X174090D01*
X176190Y192773D02*
X177870D01*
X176190Y192913D02*
X177730D01*
X176190Y193053D02*
X177730D01*
X176190Y193193D02*
X177730D01*
X176190Y193333D02*
X177730D01*
X176190Y193473D02*
X177870D01*
X176190Y193613D02*
X178010D01*
Y184093D02*
X178430D01*
X181790D02*
X182070D01*
X177870Y184233D02*
X178570D01*
X181650D02*
X182350D01*
X177870Y184373D02*
X178710D01*
X181510D02*
X182350D01*
X177870Y184513D02*
X178710D01*
X181510D02*
X182350D01*
X177870Y184653D02*
X178710D01*
X181510D02*
X182350D01*
X177870Y184793D02*
X178710D01*
X181510D02*
X182350D01*
X177870Y184933D02*
X178710D01*
X181510D02*
X182350D01*
X177870Y185073D02*
X178710D01*
X181510D02*
X182350D01*
X177870Y185213D02*
X178710D01*
X181510D02*
X182350D01*
X177870Y185353D02*
X178710D01*
X181510D02*
X182350D01*
X177870Y185493D02*
X178710D01*
X181510D02*
X182350D01*
X177870Y185633D02*
X178710D01*
X181510D02*
X182350D01*
X177870Y185773D02*
X178710D01*
X181510D02*
X182350D01*
X177870Y185913D02*
X178710D01*
X181510D02*
X182350D01*
X177730Y186053D02*
X178570D01*
X181650D02*
X182490D01*
X177730Y186193D02*
X178570D01*
X181650D02*
X182490D01*
X177590Y186333D02*
X178570D01*
X181650D02*
X182630D01*
X187250Y220773D02*
X187670D01*
X187250Y220913D02*
X187670D01*
X187250Y221053D02*
X187670D01*
X187250Y221193D02*
X187670D01*
X187390Y221333D02*
X187810D01*
X187390Y221473D02*
X187810D01*
X187390Y221613D02*
X187810D01*
X187390Y221753D02*
X187810D01*
X187390Y221893D02*
X187810D01*
X187390Y222033D02*
X187810D01*
X187530Y222173D02*
X187950D01*
X187530Y222313D02*
X187950D01*
X187530Y222453D02*
X187950D01*
X187530Y222593D02*
X187950D01*
X187530Y222733D02*
X187950D01*
X187670Y222873D02*
X188090D01*
X187670Y223013D02*
X188090D01*
X187670Y223153D02*
X188090D01*
X187670Y223293D02*
X188090D01*
X187810Y223433D02*
X188230D01*
X187810Y223573D02*
X188230D01*
X187810Y223713D02*
X188230D01*
X187810Y223853D02*
X188370D01*
X187950Y223993D02*
X188370D01*
X187950Y224133D02*
X188370D01*
X187950Y224273D02*
X188510D01*
X188090Y224413D02*
X188510D01*
X188090Y224553D02*
X188510D01*
X188090Y224693D02*
X188650D01*
X188230Y224833D02*
X188650D01*
X188230Y224973D02*
X188790D01*
X188370Y225113D02*
X188790D01*
X188370Y225253D02*
X188930D01*
X188510Y225393D02*
X188930D01*
X188510Y225533D02*
X189070D01*
X188650Y225673D02*
X189070D01*
X188650Y225813D02*
X189210D01*
X188790Y225953D02*
X189210D01*
X188790Y226093D02*
X189350D01*
X188930Y226233D02*
X189490D01*
X189070Y226373D02*
X189490D01*
X189070Y226513D02*
X189630D01*
X189210Y226653D02*
X189770D01*
X189350Y226793D02*
X189910D01*
X189490Y226933D02*
X190050D01*
X189490Y227073D02*
X190190D01*
X189630Y227213D02*
X190330D01*
X189770Y227353D02*
X190470D01*
X189910Y227493D02*
X190610D01*
X190190Y227633D02*
X190890D01*
X190330Y227773D02*
X191030D01*
X190470Y227913D02*
X191310D01*
X190750Y228053D02*
X191590D01*
X187530Y212653D02*
X187950D01*
X187530Y212793D02*
X187950D01*
X187390Y212933D02*
X187810D01*
X187390Y213073D02*
X187810D01*
X187390Y213213D02*
X187810D01*
X187390Y213353D02*
X187810D01*
X187390Y213493D02*
X187810D01*
X187390Y213633D02*
X187810D01*
X187390Y213773D02*
X187810D01*
X187390Y213913D02*
X187810D01*
X187390Y214053D02*
X187670D01*
X187250Y214193D02*
X187670D01*
X187250Y214333D02*
X187670D01*
X187250Y214473D02*
X187670D01*
X187250Y214613D02*
X187670D01*
X187250Y214753D02*
X187670D01*
X187250Y214893D02*
X187670D01*
X187250Y215033D02*
X187670D01*
X187250Y215173D02*
X187670D01*
X187250Y215313D02*
X187670D01*
X187250Y215453D02*
X187670D01*
X187250Y215593D02*
X187530D01*
X187250Y215733D02*
X187530D01*
X187250Y215873D02*
X187530D01*
X187110Y216013D02*
X187530D01*
X187110Y216153D02*
X187530D01*
X187110Y216293D02*
X187530D01*
X187110Y216433D02*
X187530D01*
X187110Y216573D02*
X187530D01*
X187110Y216713D02*
X187530D01*
X187110Y216853D02*
X187530D01*
X187110Y216993D02*
X187530D01*
X187110Y217133D02*
X187530D01*
X187110Y217273D02*
X187530D01*
X187110Y217413D02*
X187530D01*
X187110Y217553D02*
X187530D01*
X187110Y217693D02*
X187530D01*
X187110Y217833D02*
X187530D01*
X187110Y217973D02*
X187530D01*
X187110Y218113D02*
X187530D01*
X187110Y218253D02*
X187530D01*
X187110Y218393D02*
X187530D01*
X187110Y218533D02*
X187530D01*
X187110Y218673D02*
X187530D01*
X187110Y218813D02*
X187530D01*
X187110Y218953D02*
X187530D01*
X187110Y219093D02*
X187530D01*
X187110Y219233D02*
X187530D01*
X187110Y219373D02*
X187530D01*
X187110Y219513D02*
X187530D01*
X187110Y219653D02*
X187530D01*
X187250Y219793D02*
X187530D01*
X187250Y219933D02*
X187530D01*
X187250Y220073D02*
X187530D01*
X187250Y220213D02*
X187670D01*
X187250Y220353D02*
X187670D01*
X187250Y220493D02*
X187670D01*
X188930Y204673D02*
X190890D01*
X188790Y204813D02*
X190750D01*
X188790Y204953D02*
X190750D01*
X188790Y205093D02*
X190610D01*
X188790Y205233D02*
X190610D01*
X188650Y205373D02*
X190470D01*
X188650Y205513D02*
X190470D01*
X188650Y205653D02*
X190330D01*
X188510Y205793D02*
X190330D01*
X188510Y205933D02*
X190190D01*
X188510Y206073D02*
X190190D01*
X188370Y206213D02*
X190050D01*
X188370Y206353D02*
X190050D01*
X188370Y206493D02*
X189910D01*
X188370Y206633D02*
X189910D01*
X188230Y206773D02*
X189770D01*
X188230Y206913D02*
X189770D01*
X188230Y207053D02*
X189630D01*
X188230Y207193D02*
X189630D01*
X188090Y207333D02*
X189490D01*
X188090Y207473D02*
X189350D01*
X188090Y207613D02*
X189350D01*
X188090Y207753D02*
X189210D01*
X187950Y207893D02*
X189210D01*
X187950Y208033D02*
X189070D01*
X187950Y208173D02*
X188930D01*
X187950Y208313D02*
X188930D01*
X187950Y208453D02*
X188790D01*
X187950Y208593D02*
X188650D01*
X187950Y208733D02*
X188650D01*
X187950Y208873D02*
X188510D01*
X187950Y209013D02*
X188370D01*
X187810Y210273D02*
X188230D01*
X187810Y210413D02*
X188230D01*
X187810Y210553D02*
X188230D01*
X187810Y210693D02*
X188230D01*
X187810Y210833D02*
X188230D01*
X187810Y210973D02*
X188090D01*
X187670Y211113D02*
X188090D01*
X187670Y211253D02*
X188090D01*
X187670Y211393D02*
X188090D01*
X187670Y211533D02*
X188090D01*
X187670Y211673D02*
X188090D01*
X187670Y211813D02*
X188090D01*
X187530Y211953D02*
X187950D01*
X187530Y212093D02*
X187950D01*
X187530Y212233D02*
X187950D01*
X187530Y212373D02*
X187950D01*
X189490Y202993D02*
X191590D01*
X189350Y203133D02*
X191590D01*
X189350Y203273D02*
X191450D01*
X189350Y203413D02*
X191450D01*
X189210Y203553D02*
X191310D01*
X189210Y203693D02*
X191310D01*
X189210Y203833D02*
X191170D01*
X189070Y203973D02*
X191170D01*
X189070Y204113D02*
X191030D01*
X189070Y204253D02*
X191030D01*
X188930Y204393D02*
X191030D01*
X186830Y195293D02*
X188650D01*
X186970Y195433D02*
X188650D01*
X187110Y195573D02*
X188650D01*
X187110Y195713D02*
X188650D01*
X187110Y195853D02*
X188650D01*
X186970Y195993D02*
X188650D01*
X186830Y196133D02*
X188650D01*
X186550Y184093D02*
X186970D01*
X186410Y184233D02*
X187110D01*
X186270Y184373D02*
X187110D01*
X186270Y184513D02*
X187110D01*
X186270Y184653D02*
X187110D01*
X186270Y184793D02*
X187110D01*
X186270Y184933D02*
X187110D01*
X186270Y185073D02*
X187110D01*
X186270Y185213D02*
X187110D01*
X186270Y185353D02*
X187110D01*
X186270Y185493D02*
X187110D01*
X186270Y185633D02*
X187110D01*
X186270Y185773D02*
X187110D01*
X186270Y185913D02*
X187110D01*
X186270Y186053D02*
X187110D01*
X186130Y186193D02*
X186970D01*
X185990Y186333D02*
X186970D01*
X192570Y228753D02*
X194390D01*
X198730Y226513D02*
X199430D01*
X198450Y226653D02*
X199290D01*
X198310Y226793D02*
X199010D01*
X198030Y226933D02*
X198870D01*
X197750Y227073D02*
X198590D01*
X197470Y227213D02*
X198450D01*
X197330Y227353D02*
X198170D01*
X197050Y227493D02*
X197890D01*
X196630Y227633D02*
X197610D01*
X196350Y227773D02*
X197330D01*
X196070Y227913D02*
X197050D01*
X195650Y228053D02*
X196770D01*
X195090Y228193D02*
X196490D01*
X194530Y228333D02*
X196070D01*
X191870Y196693D02*
X194250D01*
X194110Y188713D02*
X198870D01*
X194110Y188853D02*
X198870D01*
X194110Y188993D02*
X198730D01*
X194110Y189133D02*
X198730D01*
X194110Y189273D02*
X198590D01*
X194110Y189413D02*
X198450D01*
X194110Y189553D02*
X198450D01*
X194110Y189693D02*
X198310D01*
X194110Y189833D02*
X198310D01*
X194110Y189973D02*
X198170D01*
X194110Y190113D02*
X198030D01*
X194110Y190253D02*
X197890D01*
X194250Y190393D02*
X197890D01*
X194250Y190533D02*
X197750D01*
X194250Y190673D02*
X197610D01*
X194250Y190813D02*
X197470D01*
X194110Y190953D02*
X197330D01*
X194110Y191093D02*
X197190D01*
X193970Y191233D02*
X196910D01*
X193970Y191373D02*
X196350D01*
X193970Y191513D02*
X196350D01*
X193830Y191653D02*
X196350D01*
X193830Y191793D02*
X196210D01*
X193690Y191933D02*
X196210D01*
X193690Y192073D02*
X196070D01*
X193690Y192213D02*
X196070D01*
X193550Y192353D02*
X196070D01*
X193550Y192493D02*
X195930D01*
X193410Y192633D02*
X195930D01*
X193410Y192773D02*
X195790D01*
X193410Y192913D02*
X195790D01*
X193270Y193053D02*
X195790D01*
X193270Y193193D02*
X195650D01*
X193130Y193333D02*
X195650D01*
X193130Y193473D02*
X195510D01*
X193130Y193613D02*
X195510D01*
X192990Y193753D02*
X195370D01*
X192990Y193893D02*
X195370D01*
X192850Y194033D02*
X195370D01*
X192850Y194173D02*
X195230D01*
X192850Y194313D02*
X195230D01*
X192710Y194453D02*
X195090D01*
X192710Y194593D02*
X195090D01*
X192570Y194733D02*
X195090D01*
X192570Y194873D02*
X194950D01*
X192570Y195013D02*
X194950D01*
X192430Y195153D02*
X194810D01*
X192430Y195293D02*
X194810D01*
X192290Y195433D02*
X194810D01*
X192290Y195573D02*
X194670D01*
X192290Y195713D02*
X194670D01*
X192150Y195853D02*
X194530D01*
X192150Y195993D02*
X194530D01*
X192010Y196133D02*
X194530D01*
X192010Y196273D02*
X194390D01*
X192010Y196413D02*
X194390D01*
X199150Y182553D02*
X199570D01*
X199010Y182693D02*
X199570D01*
X198870Y182833D02*
X199430D01*
X198870Y182973D02*
X199290D01*
X198730Y183113D02*
X199290D01*
X198590Y183253D02*
X199150D01*
X198590Y183393D02*
X199010D01*
X198450Y183533D02*
X199010D01*
X198310Y183673D02*
X198870D01*
X198310Y183813D02*
X198870D01*
X198170Y183953D02*
X198730D01*
X198170Y184093D02*
X198590D01*
X198310Y184233D02*
X198590D01*
X195230Y184513D02*
X195370D01*
X195230Y184653D02*
X195790D01*
X195230Y184793D02*
X196210D01*
X195090Y184933D02*
X196490D01*
X195090Y185073D02*
X196910D01*
X195090Y185213D02*
X197190D01*
X194950Y185353D02*
X197610D01*
X194950Y185493D02*
X197890D01*
X194810Y185633D02*
X198310D01*
X194810Y185773D02*
X198590D01*
X194810Y185913D02*
X199010D01*
X194670Y186053D02*
X199290D01*
X194390Y187313D02*
X199570D01*
X194390Y187453D02*
X199570D01*
X194250Y187593D02*
X199430D01*
X194250Y187733D02*
X199430D01*
X194250Y187873D02*
X199290D01*
X194250Y188013D02*
X199290D01*
X194250Y188153D02*
X199150D01*
X194110Y188293D02*
X199150D01*
X194110Y188433D02*
X199010D01*
X204890Y220773D02*
X205590D01*
X204750Y220913D02*
X205450D01*
X204750Y221053D02*
X205310D01*
X204610Y221193D02*
X205170D01*
X204470Y221333D02*
X205030D01*
X204330Y221473D02*
X204890D01*
X204190Y221613D02*
X204750D01*
X204050Y221753D02*
X204610D01*
X203910Y221893D02*
X204610D01*
X203770Y222033D02*
X204470D01*
X203630Y222173D02*
X204330D01*
X203490Y222313D02*
X204190D01*
X203490Y222453D02*
X204050D01*
X203350Y222593D02*
X203910D01*
X203210Y222733D02*
X203770D01*
X203070Y222873D02*
X203630D01*
X202930Y223013D02*
X203490D01*
X202790Y223153D02*
X203350D01*
X202650Y223293D02*
X203210D01*
X202510Y223433D02*
X203070D01*
X202370Y223573D02*
X202930D01*
X202230Y223713D02*
X202790D01*
X201950Y223853D02*
X202650D01*
X201810Y223993D02*
X202510D01*
X201670Y224133D02*
X202370D01*
X201530Y224273D02*
X202230D01*
X201390Y224413D02*
X202090D01*
X201250Y224553D02*
X201950D01*
X201110Y224693D02*
X201810D01*
X200970Y224833D02*
X201670D01*
X200690Y224973D02*
X201390D01*
X200550Y225113D02*
X201250D01*
X200410Y225253D02*
X201110D01*
X200270Y225393D02*
X200970D01*
X199990Y225533D02*
X200830D01*
X199850Y225673D02*
X200550D01*
X207130Y218113D02*
X207550D01*
X206990Y218253D02*
X207550D01*
X206850Y218393D02*
X207410D01*
X206710Y218533D02*
X207270D01*
X206570Y218673D02*
X207130D01*
X206570Y218813D02*
X207130D01*
X206430Y218953D02*
X206990D01*
X206290Y219093D02*
X206850D01*
X206150Y219233D02*
X206710D01*
X206150Y219373D02*
X206710D01*
X206010Y219513D02*
X206570D01*
X205870Y219653D02*
X206430D01*
X205730Y219793D02*
X206290D01*
X205590Y219933D02*
X206150D01*
X205590Y220073D02*
X206150D01*
X205450Y220213D02*
X206010D01*
X205310Y220353D02*
X205870D01*
X205170Y220493D02*
X205730D01*
X200550Y196693D02*
X202230D01*
X200550Y196833D02*
X202230D01*
X200550Y196973D02*
X202230D01*
X200550Y197113D02*
X202230D01*
X200550Y197253D02*
X202090D01*
X200690Y197393D02*
X202090D01*
X200690Y197533D02*
X201950D01*
X200830Y197673D02*
X201810D01*
X200970Y192773D02*
X203210D01*
X200830Y192913D02*
X202930D01*
X200830Y193053D02*
X202790D01*
X200830Y193193D02*
X202650D01*
X200690Y193333D02*
X202510D01*
X200690Y193473D02*
X202370D01*
X200690Y193613D02*
X202370D01*
X200690Y193753D02*
X202230D01*
X200550Y193893D02*
X202230D01*
X200550Y194033D02*
X202230D01*
X200550Y194173D02*
X202230D01*
X200550Y194313D02*
X202230D01*
X200550Y194453D02*
X202230D01*
X200550Y194593D02*
X202230D01*
X200550Y194733D02*
X202230D01*
X200550Y194873D02*
X202230D01*
X200550Y195013D02*
X202230D01*
X200550Y195153D02*
X202230D01*
X200550Y195293D02*
X202230D01*
X200550Y195433D02*
X202230D01*
X200550Y195573D02*
X202230D01*
X200550Y195713D02*
X202230D01*
X200550Y195853D02*
X202230D01*
X200550Y195993D02*
X202230D01*
X200550Y196133D02*
X202230D01*
X200550Y196273D02*
X202230D01*
X200550Y196413D02*
X202230D01*
X200270Y180733D02*
X200830D01*
X200270Y180873D02*
X200690D01*
X200130Y181013D02*
X200690D01*
X199990Y181153D02*
X200550D01*
X199990Y181293D02*
X200410D01*
X199850Y181433D02*
X200410D01*
X206850Y173033D02*
X207550D01*
X206710Y173173D02*
X207410D01*
X206570Y173313D02*
X207270D01*
X206430Y173453D02*
X207130D01*
X206290Y173593D02*
X206990D01*
X206150Y173733D02*
X206850D01*
X206010Y173873D02*
X206710D01*
X205870Y174013D02*
X206570D01*
X205730Y174153D02*
X206290D01*
X205590Y174293D02*
X206150D01*
X205450Y174433D02*
X206010D01*
X205310Y174573D02*
X205870D01*
X205170Y174713D02*
X205730D01*
X205030Y174853D02*
X205730D01*
X204890Y174993D02*
X205590D01*
X204750Y175133D02*
X205450D01*
X204610Y175273D02*
X205310D01*
X204470Y175413D02*
X205170D01*
X204330Y175553D02*
X205030D01*
X204330Y175693D02*
X204890D01*
X204190Y175833D02*
X204750D01*
X204050Y175973D02*
X204610D01*
X203910Y176113D02*
X204470D01*
X203770Y176253D02*
X204330D01*
X203630Y176393D02*
X204190D01*
X203490Y176533D02*
X204190D01*
X203490Y176673D02*
X204050D01*
X203350Y176813D02*
X203910D01*
X203210Y176953D02*
X203770D01*
X203070Y177093D02*
X203630D01*
X202930Y177233D02*
X203490D01*
X202790Y177373D02*
X203350D01*
X202790Y177513D02*
X203350D01*
X202650Y177653D02*
X203210D01*
X202510Y177793D02*
X203070D01*
X202370Y177933D02*
X202930D01*
X202230Y178073D02*
X202790D01*
X202230Y178213D02*
X202790D01*
X202090Y178353D02*
X202650D01*
X201950Y178493D02*
X202510D01*
X201810Y178633D02*
X202370D01*
X201810Y178773D02*
X202230D01*
X201670Y178913D02*
X202230D01*
X201530Y179053D02*
X202090D01*
X201390Y179193D02*
X201950D01*
X201390Y179333D02*
X201810D01*
X201250Y179473D02*
X201810D01*
X201110Y179613D02*
X201670D01*
X200970Y179753D02*
X201530D01*
X200970Y179893D02*
X201390D01*
X200830Y180033D02*
X201390D01*
X200690Y180173D02*
X201250D01*
X200550Y180313D02*
X201110D01*
X200550Y180453D02*
X201110D01*
X210770Y212653D02*
X211190D01*
X210630Y212793D02*
X211190D01*
X210490Y212933D02*
X211050D01*
X210490Y213073D02*
X210910D01*
X210350Y213213D02*
X210910D01*
X210350Y213353D02*
X210770D01*
X210210Y213493D02*
X210770D01*
X210070Y213633D02*
X210630D01*
X210070Y213773D02*
X210490D01*
X209930Y213913D02*
X210490D01*
X209790Y214053D02*
X210350D01*
X209790Y214193D02*
X210210D01*
X209650Y214333D02*
X210210D01*
X209650Y214473D02*
X210070D01*
X209510Y214613D02*
X210070D01*
X209370Y214753D02*
X209930D01*
X209370Y214893D02*
X209790D01*
X209230Y215033D02*
X209790D01*
X209090Y215173D02*
X209650D01*
X209090Y215313D02*
X209510D01*
X208950Y215453D02*
X209510D01*
X208810Y215593D02*
X209370D01*
X208810Y215733D02*
X209230D01*
X208670Y215873D02*
X209230D01*
X208530Y216013D02*
X209090D01*
X208530Y216153D02*
X208950D01*
X208390Y216293D02*
X208950D01*
X208250Y216433D02*
X208810D01*
X208110Y216573D02*
X208670D01*
X208110Y216713D02*
X208670D01*
X207970Y216853D02*
X208530D01*
X207830Y216993D02*
X208390D01*
X207830Y217133D02*
X208250D01*
X214970Y204673D02*
X215390D01*
X214830Y204813D02*
X215250D01*
X214830Y204953D02*
X215250D01*
X214690Y205093D02*
X215250D01*
X214690Y205233D02*
X215110D01*
X214550Y205373D02*
X215110D01*
X214550Y205513D02*
X214970D01*
X214410Y205653D02*
X214970D01*
X214410Y205793D02*
X214830D01*
X214270Y205933D02*
X214830D01*
X214270Y206073D02*
X214690D01*
X214130Y206213D02*
X214690D01*
X214130Y206353D02*
X214550D01*
X213990Y206493D02*
X214550D01*
X213990Y206633D02*
X214410D01*
X213850Y206773D02*
X214410D01*
X213850Y206913D02*
X214270D01*
X213710Y207053D02*
X214270D01*
X213710Y207193D02*
X214130D01*
X213570Y207333D02*
X214130D01*
X213570Y207473D02*
X213990D01*
X213430Y207613D02*
X213990D01*
X213430Y207753D02*
X213850D01*
X213290Y207893D02*
X213850D01*
X213290Y208033D02*
X213710D01*
X213150Y208173D02*
X213710D01*
X213150Y208313D02*
X213570D01*
X213010Y208453D02*
X213570D01*
X213010Y208593D02*
X213430D01*
X212870Y208733D02*
X213430D01*
X212870Y208873D02*
X213290D01*
X212730Y209013D02*
X213290D01*
X212730Y209153D02*
X213150D01*
X212590Y209293D02*
X213150D01*
X212590Y209433D02*
X213010D01*
X212450Y209573D02*
X213010D01*
X212450Y209713D02*
X212870D01*
X212310Y209853D02*
X212870D01*
X212310Y209993D02*
X212730D01*
X212170Y210133D02*
X212590D01*
X212030Y210273D02*
X212590D01*
X212030Y210413D02*
X212450D01*
X211890Y210553D02*
X212450D01*
X211890Y210693D02*
X212310D01*
X211750Y210833D02*
X212310D01*
X211750Y210973D02*
X212170D01*
X211610Y211113D02*
X212170D01*
X211470Y211253D02*
X212030D01*
X211470Y211393D02*
X211890D01*
X211330Y211533D02*
X211890D01*
X211330Y211673D02*
X211750D01*
X211190Y211813D02*
X211750D01*
X211190Y211953D02*
X211610D01*
X211050Y212093D02*
X211610D01*
X210910Y212233D02*
X211470D01*
X210910Y212373D02*
X211330D01*
X211470Y196693D02*
X213010D01*
X211470Y196833D02*
X213010D01*
X211470Y196973D02*
X213010D01*
X211470Y197113D02*
X213010D01*
X211470Y197253D02*
X213010D01*
X211470Y197393D02*
X213010D01*
X211610Y197533D02*
X212870D01*
X211750Y197673D02*
X212730D01*
X215110Y204253D02*
X215530D01*
X214970Y204393D02*
X215530D01*
X210350Y192773D02*
X212730D01*
X210630Y192913D02*
X212730D01*
X210910Y193053D02*
X212730D01*
X211050Y193193D02*
X212870D01*
X211050Y193333D02*
X212870D01*
X211190Y193473D02*
X212870D01*
X211330Y193613D02*
X213010D01*
X211330Y193753D02*
X213010D01*
X211330Y193893D02*
X213010D01*
X211330Y194033D02*
X213010D01*
X211470Y194173D02*
X213010D01*
X211470Y194313D02*
X213010D01*
X211470Y194453D02*
X213010D01*
X211470Y194593D02*
X213010D01*
X211470Y194733D02*
X213010D01*
X211470Y194873D02*
X213010D01*
X211470Y195013D02*
X213010D01*
X211470Y195153D02*
X213010D01*
X211470Y195293D02*
X213010D01*
X211470Y195433D02*
X213010D01*
X211470Y195573D02*
X213010D01*
X211470Y195713D02*
X213010D01*
X211470Y195853D02*
X213010D01*
X211470Y195993D02*
X213010D01*
X211470Y196133D02*
X213010D01*
X211470Y196273D02*
X213010D01*
X211470Y196413D02*
X213010D01*
Y169113D02*
X215110D01*
X212590Y169253D02*
X214130D01*
X212310Y169393D02*
X213570D01*
X211890Y169533D02*
X213150D01*
X211610Y169673D02*
X212730D01*
X211330Y169813D02*
X212450D01*
X211050Y169953D02*
X212030D01*
X210910Y170093D02*
X211750D01*
X210630Y170233D02*
X211470D01*
X210350Y170373D02*
X211190D01*
X210210Y170513D02*
X211050D01*
X209930Y170653D02*
X210770D01*
X209650Y170793D02*
X210490D01*
X209510Y170933D02*
X210350D01*
X209370Y171073D02*
X210070D01*
X209090Y171213D02*
X209930D01*
X208950Y171353D02*
X209650D01*
X208670Y171493D02*
X209510D01*
X208530Y171633D02*
X209230D01*
X208390Y171773D02*
X209090D01*
X208250Y171913D02*
X208950D01*
X207970Y172053D02*
X208670D01*
X207830Y172193D02*
X208530D01*
X217630Y197813D02*
X218190D01*
X217630Y197953D02*
X218050D01*
X217630Y198093D02*
X218050D01*
X217490Y198233D02*
X218050D01*
X217490Y198373D02*
X217910D01*
X217490Y198513D02*
X217910D01*
X217350Y198653D02*
X217910D01*
X217350Y198793D02*
X217770D01*
X217350Y198933D02*
X217770D01*
X217210Y199073D02*
X217630D01*
X217210Y199213D02*
X217630D01*
X217070Y199353D02*
X217630D01*
X217070Y199493D02*
X217490D01*
X217070Y199633D02*
X217490D01*
X216930Y199773D02*
X217490D01*
X216930Y199913D02*
X217350D01*
X216930Y200053D02*
X217350D01*
X216790Y200193D02*
X217210D01*
X216790Y200333D02*
X217210D01*
X216650Y200473D02*
X217210D01*
X216650Y200613D02*
X217070D01*
X216650Y200753D02*
X217070D01*
X216510Y200893D02*
X216930D01*
X216510Y201033D02*
X216930D01*
X216370Y201173D02*
X216930D01*
X216370Y201313D02*
X216790D01*
X216370Y201453D02*
X216790D01*
X216230Y201593D02*
X216650D01*
X216230Y201733D02*
X216650D01*
X216090Y201873D02*
X216650D01*
X216090Y202013D02*
X216510D01*
X215950Y202153D02*
X216510D01*
X215950Y202293D02*
X216370D01*
X215950Y202433D02*
X216370D01*
X215810Y202573D02*
X216370D01*
X215810Y202713D02*
X216230D01*
X220290Y188713D02*
X220710D01*
X220290Y188853D02*
X220710D01*
X220290Y188993D02*
X220710D01*
X220150Y189133D02*
X220570D01*
X220150Y189273D02*
X220570D01*
X220150Y189413D02*
X220570D01*
X220150Y189553D02*
X220570D01*
X220150Y189693D02*
X220570D01*
X220010Y189833D02*
X220430D01*
X220010Y189973D02*
X220430D01*
X220010Y190113D02*
X220430D01*
X220010Y190253D02*
X220430D01*
X219870Y190393D02*
X220290D01*
X219870Y190533D02*
X220290D01*
X219870Y190673D02*
X220290D01*
X219870Y190813D02*
X220290D01*
X219730Y190953D02*
X220150D01*
X219730Y191093D02*
X220150D01*
X219730Y191233D02*
X220150D01*
X219730Y191373D02*
X220150D01*
X219590Y191513D02*
X220010D01*
X219590Y191653D02*
X220010D01*
X219590Y191793D02*
X220010D01*
X219590Y191933D02*
X220010D01*
X219450Y192073D02*
X219870D01*
X219450Y192213D02*
X219870D01*
X219450Y192353D02*
X219870D01*
X219310Y192493D02*
X219870D01*
X219310Y192633D02*
X219730D01*
X219310Y192773D02*
X219730D01*
X219310Y192913D02*
X219730D01*
X219170Y193053D02*
X219590D01*
X219170Y193193D02*
X219590D01*
X219170Y193333D02*
X219590D01*
X217630Y193473D02*
X217770D01*
X219030D02*
X219590D01*
X217630Y193613D02*
X217770D01*
X219030D02*
X219450D01*
X218610Y195293D02*
X219030D01*
X218470Y195433D02*
X218890D01*
X218470Y195573D02*
X218890D01*
X218470Y195713D02*
X218890D01*
X218330Y195853D02*
X218750D01*
X218330Y195993D02*
X218750D01*
X218330Y196133D02*
X218750D01*
X221270Y180733D02*
X221690D01*
X221270Y180873D02*
X221690D01*
X221270Y181013D02*
X221690D01*
X221270Y181153D02*
X221690D01*
X221270Y181293D02*
X221690D01*
X221270Y181433D02*
X221690D01*
X221270Y181573D02*
X221690D01*
X221270Y181713D02*
X221690D01*
X221270Y181853D02*
X221690D01*
X221270Y181993D02*
X221690D01*
X221270Y182133D02*
X221690D01*
X221270Y182273D02*
X221690D01*
X221270Y182413D02*
X221690D01*
X221270Y182553D02*
X221690D01*
X221270Y182693D02*
X221550D01*
X221270Y182833D02*
X221550D01*
X221130Y182973D02*
X221550D01*
X221130Y183113D02*
X221550D01*
X221130Y183253D02*
X221550D01*
X221130Y183393D02*
X221550D01*
X221130Y183533D02*
X221550D01*
X221130Y183673D02*
X221550D01*
X221130Y183813D02*
X221550D01*
X221130Y183953D02*
X221550D01*
X221130Y184093D02*
X221410D01*
X220990Y184233D02*
X221410D01*
X220990Y184373D02*
X221410D01*
X220990Y184513D02*
X221410D01*
X220990Y184653D02*
X221410D01*
X220990Y184793D02*
X221410D01*
X220990Y184933D02*
X221410D01*
X220990Y185073D02*
X221410D01*
X220990Y185213D02*
X221270D01*
X220850Y185353D02*
X221270D01*
X220850Y185493D02*
X221270D01*
X220850Y185633D02*
X221270D01*
X220850Y185773D02*
X221270D01*
X220850Y185913D02*
X221270D01*
X220850Y186053D02*
X221270D01*
X220710Y186193D02*
X221130D01*
X220710Y186333D02*
X221130D01*
X220710Y186473D02*
X221130D01*
X220710Y186613D02*
X221130D01*
X220710Y186753D02*
X221130D01*
X220710Y186893D02*
X221130D01*
X220570Y187033D02*
X220990D01*
X220570Y187173D02*
X220990D01*
X220570Y187313D02*
X220990D01*
X220570Y187453D02*
X220990D01*
X220570Y187593D02*
X220990D01*
X220430Y187733D02*
X220850D01*
X220430Y187873D02*
X220850D01*
X220430Y188013D02*
X220850D01*
X220430Y188153D02*
X220850D01*
X220430Y188293D02*
X220850D01*
X220290Y188433D02*
X220710D01*
X220150Y172753D02*
X220710D01*
X220290Y172893D02*
X220710D01*
X220290Y173033D02*
X220850D01*
X220430Y173173D02*
X220850D01*
X220430Y173313D02*
X220850D01*
X220430Y173453D02*
X220990D01*
X220570Y173593D02*
X220990D01*
X220570Y173733D02*
X220990D01*
X220570Y173873D02*
X220990D01*
X220710Y174013D02*
X221130D01*
X220710Y174153D02*
X221130D01*
X220710Y174293D02*
X221130D01*
X220710Y174433D02*
X221270D01*
X220850Y174573D02*
X221270D01*
X220850Y174713D02*
X221270D01*
X220850Y174853D02*
X221270D01*
X220850Y174993D02*
X221270D01*
X220990Y175133D02*
X221410D01*
X220990Y175273D02*
X221410D01*
X220990Y175413D02*
X221410D01*
X220990Y175553D02*
X221410D01*
X220990Y175693D02*
X221410D01*
X221130Y175833D02*
X221550D01*
X221130Y175973D02*
X221550D01*
X221130Y176113D02*
X221550D01*
X221130Y176253D02*
X221550D01*
X221130Y176393D02*
X221550D01*
X221130Y176533D02*
X221550D01*
X221130Y176673D02*
X221550D01*
X221270Y176813D02*
X221550D01*
X221270Y176953D02*
X221690D01*
X221270Y177093D02*
X221690D01*
X221270Y177233D02*
X221690D01*
X221270Y177373D02*
X221690D01*
X221270Y177513D02*
X221690D01*
X221270Y177653D02*
X221690D01*
X221270Y177793D02*
X221690D01*
X221270Y177933D02*
X221690D01*
X221270Y178073D02*
X221690D01*
X221270Y178213D02*
X221690D01*
X221270Y178353D02*
X221690D01*
X221270Y178493D02*
X221690D01*
X221270Y178633D02*
X221690D01*
X221410Y178773D02*
X221690D01*
X221410Y178913D02*
X221690D01*
X221410Y179053D02*
X221690D01*
X221410Y179193D02*
X221690D01*
X221410Y179333D02*
X221690D01*
X221410Y179473D02*
X221690D01*
X221410Y179613D02*
X221690D01*
X221410Y179753D02*
X221690D01*
X221410Y179893D02*
X221690D01*
X221410Y180033D02*
X221690D01*
X221410Y180173D02*
X221690D01*
X221410Y180313D02*
X221690D01*
X221410Y180453D02*
X221690D01*
X216510Y169253D02*
X217770D01*
X217070Y169393D02*
X218050D01*
X217350Y169533D02*
X218190D01*
X217630Y169673D02*
X218470D01*
X217910Y169813D02*
X218610D01*
X218050Y169953D02*
X218750D01*
X218330Y170093D02*
X218890D01*
X218470Y170233D02*
X219030D01*
X218610Y170373D02*
X219170D01*
X218750Y170513D02*
X219310D01*
X218890Y170653D02*
X219450D01*
X219030Y170793D02*
X219590D01*
X219170Y170933D02*
X219730D01*
X219310Y171073D02*
X219730D01*
X219310Y171213D02*
X219870D01*
X219450Y171353D02*
X220010D01*
X219590Y171493D02*
X220010D01*
X219590Y171633D02*
X220150D01*
X219730Y171773D02*
X220150D01*
X219730Y171913D02*
X220290D01*
X219870Y172053D02*
X220430D01*
X220010Y172193D02*
X220430D01*
X220010Y172333D02*
X220430D01*
X220150Y172473D02*
X220570D01*
X225330Y191093D02*
X225750D01*
X225050Y191233D02*
X226030D01*
X224910Y191373D02*
X226170D01*
X224770Y191513D02*
X226310D01*
X224770Y191653D02*
X226310D01*
X224770Y191793D02*
X226310D01*
X224770Y191933D02*
X226310D01*
X224770Y192073D02*
X226310D01*
X224770Y192213D02*
X226310D01*
X224770Y192353D02*
X226310D01*
X224770Y192493D02*
X226310D01*
X224770Y192633D02*
X226310D01*
X224770Y192773D02*
X226310D01*
X228130D02*
X230370D01*
X224770Y192913D02*
X226310D01*
X227990D02*
X230090D01*
X224770Y193053D02*
X226310D01*
X227990D02*
X229810D01*
X224770Y193193D02*
X226310D01*
X227990D02*
X229670D01*
X224630Y193333D02*
X226310D01*
X227850D02*
X229530D01*
X224630Y193473D02*
X226310D01*
X227850D02*
X229530D01*
X224350Y193613D02*
X226310D01*
X227850D02*
X229390D01*
X227850Y193753D02*
X229390D01*
X227710Y193893D02*
X229390D01*
X227710Y194033D02*
X229390D01*
X227710Y194173D02*
X229250D01*
X227710Y194313D02*
X229250D01*
X227710Y194453D02*
X229250D01*
X227710Y194593D02*
X229250D01*
X227710Y194733D02*
X229250D01*
X227710Y194873D02*
X229390D01*
X227710Y195013D02*
X229390D01*
X227850Y195153D02*
X229390D01*
X227850Y195293D02*
X229390D01*
X227850Y195433D02*
X229530D01*
X227850Y195573D02*
X229670D01*
X227990Y195713D02*
X229670D01*
X227990Y195853D02*
X229810D01*
X227990Y195993D02*
X230090D01*
X228130Y196133D02*
X230370D01*
X242270Y191093D02*
X242690D01*
X241990Y191233D02*
X242970D01*
X241850Y191373D02*
X243110D01*
X241710Y191513D02*
X243390D01*
X241710Y191653D02*
X243530D01*
X241710Y191793D02*
X243810D01*
X241710Y191933D02*
X243950D01*
X241710Y192073D02*
X244230D01*
X241710Y192213D02*
X244370D01*
X241850Y192353D02*
X244650D01*
X241990Y192493D02*
X244790D01*
X242130Y192633D02*
X245070D01*
X242270Y192773D02*
X245350D01*
X242550Y192913D02*
X245630D01*
X242690Y193053D02*
X245910D01*
X242830Y193193D02*
X246330D01*
X243110Y193333D02*
X246750D01*
X243250Y193473D02*
X247170D01*
X241710Y195293D02*
X243530D01*
X241710Y195433D02*
X243390D01*
X241710Y195573D02*
X243250D01*
X241710Y195713D02*
X243250D01*
X241710Y195853D02*
X243250D01*
X241710Y195993D02*
X243390D01*
X241710Y196133D02*
X243530D01*
X252630Y191093D02*
X253050D01*
X252350Y191233D02*
X253330D01*
X252210Y191373D02*
X253470D01*
X252070Y191513D02*
X253610D01*
X252070Y191653D02*
X253610D01*
X252070Y191793D02*
X253610D01*
X252070Y191933D02*
X253610D01*
X252070Y192073D02*
X253610D01*
X252070Y192213D02*
X253610D01*
X252070Y192353D02*
X253610D01*
X252070Y192493D02*
X253610D01*
X252070Y192633D02*
X253610D01*
X252070Y192773D02*
X253610D01*
X252070Y192913D02*
X253610D01*
X252070Y193053D02*
X253610D01*
X252070Y193193D02*
X253610D01*
X251930Y193333D02*
X253610D01*
X251930Y193473D02*
X253610D01*
X251650Y193613D02*
X253610D01*
X265930Y191093D02*
X266350D01*
X265650Y191233D02*
X266630D01*
X265510Y191373D02*
X266770D01*
X265370Y191513D02*
X266910D01*
X265370Y191653D02*
X266910D01*
X265370Y191793D02*
X266910D01*
X265370Y191933D02*
X266910D01*
X265370Y192073D02*
X266910D01*
X265370Y192213D02*
X266910D01*
X265370Y192353D02*
X266910D01*
X265370Y192493D02*
X266910D01*
X265370Y192633D02*
X266910D01*
X265370Y192773D02*
X266910D01*
X265370Y192913D02*
X266910D01*
X265370Y193053D02*
X266910D01*
X265370Y193193D02*
X266910D01*
X265370Y193333D02*
X266910D01*
X265370Y193473D02*
X266910D01*
X265370Y193613D02*
X266910D01*
X265370Y195293D02*
X266910D01*
X265370Y195433D02*
X266910D01*
X265370Y195573D02*
X266910D01*
X265370Y195713D02*
X266910D01*
X265370Y195853D02*
X266910D01*
X265370Y195993D02*
X266910D01*
X265370Y196133D02*
X266910D01*
M02*
