G04*
G04 #@! TF.GenerationSoftware,Altium Limited,Altium Designer,20.0.10 (225)*
G04*
G04 Layer_Color=8421504*
%FSLAX25Y25*%
%MOIN*%
G70*
G01*
G75*
%ADD10R,0.01496X0.01378*%
%ADD11R,0.05512X0.04724*%
%ADD12R,0.08583X0.06299*%
%ADD13R,0.08661X0.06299*%
%ADD14R,0.04724X0.05512*%
%ADD15O,0.05709X0.02362*%
%ADD16R,0.02480X0.03268*%
%ADD17R,0.02323X0.01772*%
%ADD18R,0.04331X0.04724*%
%ADD19R,0.03937X0.07874*%
%ADD20R,0.01378X0.02284*%
%ADD21R,0.02284X0.01378*%
G04:AMPARAMS|DCode=22|XSize=55.12mil|YSize=47.24mil|CornerRadius=0mil|HoleSize=0mil|Usage=FLASHONLY|Rotation=225.000|XOffset=0mil|YOffset=0mil|HoleType=Round|Shape=Rectangle|*
%AMROTATEDRECTD22*
4,1,4,0.00278,0.03619,0.03619,0.00278,-0.00278,-0.03619,-0.03619,-0.00278,0.00278,0.03619,0.0*
%
%ADD22ROTATEDRECTD22*%

G04:AMPARAMS|DCode=23|XSize=9.84mil|YSize=61.02mil|CornerRadius=0mil|HoleSize=0mil|Usage=FLASHONLY|Rotation=45.000|XOffset=0mil|YOffset=0mil|HoleType=Round|Shape=Round|*
%AMOVALD23*
21,1,0.05118,0.00984,0.00000,0.00000,135.0*
1,1,0.00984,0.01810,-0.01810*
1,1,0.00984,-0.01810,0.01810*
%
%ADD23OVALD23*%

G04:AMPARAMS|DCode=24|XSize=9.84mil|YSize=61.02mil|CornerRadius=0mil|HoleSize=0mil|Usage=FLASHONLY|Rotation=315.000|XOffset=0mil|YOffset=0mil|HoleType=Round|Shape=Round|*
%AMOVALD24*
21,1,0.05118,0.00984,0.00000,0.00000,45.0*
1,1,0.00984,-0.01810,-0.01810*
1,1,0.00984,0.01810,0.01810*
%
%ADD24OVALD24*%

G04:AMPARAMS|DCode=25|XSize=55.12mil|YSize=47.24mil|CornerRadius=0mil|HoleSize=0mil|Usage=FLASHONLY|Rotation=315.000|XOffset=0mil|YOffset=0mil|HoleType=Round|Shape=Rectangle|*
%AMROTATEDRECTD25*
4,1,4,-0.03619,0.00278,-0.00278,0.03619,0.03619,-0.00278,0.00278,-0.03619,-0.03619,0.00278,0.0*
%
%ADD25ROTATEDRECTD25*%

%ADD26R,0.07874X0.21654*%
%ADD29R,0.06299X0.08583*%
%ADD30R,0.06299X0.08661*%
%ADD31R,0.04724X0.04331*%
%ADD32R,0.18819X0.12402*%
G04:AMPARAMS|DCode=33|XSize=216.54mil|YSize=78.74mil|CornerRadius=0mil|HoleSize=0mil|Usage=FLASHONLY|Rotation=45.000|XOffset=0mil|YOffset=0mil|HoleType=Round|Shape=Rectangle|*
%AMROTATEDRECTD33*
4,1,4,-0.04872,-0.10440,-0.10440,-0.04872,0.04872,0.10440,0.10440,0.04872,-0.04872,-0.10440,0.0*
%
%ADD33ROTATEDRECTD33*%

%ADD34R,0.03150X0.05906*%
%ADD35R,0.05709X0.07874*%
%ADD36C,0.03937*%
%ADD39R,0.01614X0.03898*%
%ADD40R,0.01614X0.02992*%
%ADD41R,0.03898X0.06791*%
D10*
X209705Y460630D02*
D03*
Y458661D02*
D03*
Y456693D02*
D03*
X207677Y455650D02*
D03*
X205709D02*
D03*
X203681Y456693D02*
D03*
Y458661D02*
D03*
Y460630D02*
D03*
X205709Y461673D02*
D03*
X207677D02*
D03*
Y481358D02*
D03*
X205709D02*
D03*
X203681Y480315D02*
D03*
Y478346D02*
D03*
Y476378D02*
D03*
X205709Y475335D02*
D03*
X207677D02*
D03*
X209705Y476378D02*
D03*
Y478346D02*
D03*
Y480315D02*
D03*
Y500000D02*
D03*
Y498032D02*
D03*
Y496063D02*
D03*
X207677Y495020D02*
D03*
X205709D02*
D03*
X203681Y496063D02*
D03*
Y498032D02*
D03*
Y500000D02*
D03*
X205709Y501043D02*
D03*
X207677D02*
D03*
D11*
X297244Y580315D02*
D03*
Y573228D02*
D03*
X261811Y580315D02*
D03*
Y573228D02*
D03*
X218504Y525984D02*
D03*
Y533071D02*
D03*
X104331Y592126D02*
D03*
Y585039D02*
D03*
X104331Y565354D02*
D03*
Y572441D02*
D03*
X80709Y541732D02*
D03*
Y548819D02*
D03*
X80709Y588189D02*
D03*
Y581102D02*
D03*
X230315Y501575D02*
D03*
Y494488D02*
D03*
X250000Y501575D02*
D03*
Y494488D02*
D03*
X230315Y477953D02*
D03*
Y470866D02*
D03*
X250000Y477953D02*
D03*
Y470866D02*
D03*
X230315Y454331D02*
D03*
Y447244D02*
D03*
X250000Y454331D02*
D03*
Y447244D02*
D03*
X116142Y411811D02*
D03*
Y418898D02*
D03*
X179134Y477953D02*
D03*
Y470866D02*
D03*
X535433Y430709D02*
D03*
Y423622D02*
D03*
X372441Y594882D02*
D03*
Y587795D02*
D03*
X372441Y624409D02*
D03*
Y617323D02*
D03*
X482283Y556299D02*
D03*
Y549213D02*
D03*
X472441Y556299D02*
D03*
Y549213D02*
D03*
X429528Y405118D02*
D03*
Y398031D02*
D03*
X401968Y405118D02*
D03*
Y398031D02*
D03*
X392913Y405118D02*
D03*
Y398031D02*
D03*
X375984Y351969D02*
D03*
Y344882D02*
D03*
X451772Y352953D02*
D03*
Y345866D02*
D03*
X476378Y386614D02*
D03*
Y379528D02*
D03*
X510236Y379528D02*
D03*
Y386614D02*
D03*
X501181Y379528D02*
D03*
Y386614D02*
D03*
X535433Y386614D02*
D03*
Y379528D02*
D03*
X617323Y399213D02*
D03*
Y406299D02*
D03*
X556299Y411417D02*
D03*
Y404331D02*
D03*
X372047Y537795D02*
D03*
Y544882D02*
D03*
X545276Y379528D02*
D03*
Y386614D02*
D03*
X474409Y145276D02*
D03*
Y138189D02*
D03*
X474409Y124016D02*
D03*
Y116929D02*
D03*
X446850Y244488D02*
D03*
Y251575D02*
D03*
X427165Y251575D02*
D03*
Y244488D02*
D03*
X397638Y244488D02*
D03*
Y251575D02*
D03*
X377953Y251575D02*
D03*
Y244488D02*
D03*
X521654Y101969D02*
D03*
Y94882D02*
D03*
X501968Y101969D02*
D03*
Y94882D02*
D03*
D12*
X74429Y620079D02*
D03*
D13*
X110610D02*
D03*
D14*
X104724Y604331D02*
D03*
X111811D02*
D03*
X80315Y604331D02*
D03*
X73228D02*
D03*
X285039Y391732D02*
D03*
X277953D02*
D03*
X258268Y415354D02*
D03*
X265354D02*
D03*
X308661Y450787D02*
D03*
X301575D02*
D03*
X308661Y403543D02*
D03*
X301575D02*
D03*
X33858Y564961D02*
D03*
X40945D02*
D03*
X151969Y437514D02*
D03*
X159055D02*
D03*
X194488Y419291D02*
D03*
X187402D02*
D03*
X155905Y454724D02*
D03*
X162992D02*
D03*
X579528Y577953D02*
D03*
X572441D02*
D03*
X579528Y561417D02*
D03*
X572441D02*
D03*
X572441Y569685D02*
D03*
X579528D02*
D03*
X621260Y580315D02*
D03*
X614173D02*
D03*
X438976Y542520D02*
D03*
X446063D02*
D03*
X438976Y532677D02*
D03*
X446063D02*
D03*
X596850Y393307D02*
D03*
X603937D02*
D03*
D15*
X256791Y525965D02*
D03*
Y530965D02*
D03*
Y535965D02*
D03*
Y540965D02*
D03*
X235335Y525965D02*
D03*
Y530965D02*
D03*
Y535965D02*
D03*
Y540965D02*
D03*
X568996Y421240D02*
D03*
Y426240D02*
D03*
Y431240D02*
D03*
Y436240D02*
D03*
X547539Y421240D02*
D03*
Y426240D02*
D03*
Y431240D02*
D03*
Y436240D02*
D03*
D16*
X179587Y419291D02*
D03*
X170807D02*
D03*
D17*
X131673D02*
D03*
X139980D02*
D03*
D18*
X151378D02*
D03*
X159646D02*
D03*
X309252Y435039D02*
D03*
X300984D02*
D03*
X309252Y419291D02*
D03*
X300984D02*
D03*
D19*
X194882Y338660D02*
D03*
X188976D02*
D03*
X183071D02*
D03*
X177165D02*
D03*
X171260D02*
D03*
X165354D02*
D03*
X159449D02*
D03*
X153543D02*
D03*
X147638D02*
D03*
X141732D02*
D03*
Y401652D02*
D03*
X147638D02*
D03*
X153543D02*
D03*
X159449D02*
D03*
X165354D02*
D03*
X171260D02*
D03*
X177165D02*
D03*
X183071D02*
D03*
X188976D02*
D03*
X194882D02*
D03*
D20*
X159449Y470827D02*
D03*
Y485866D02*
D03*
D21*
X154882Y472441D02*
D03*
Y474409D02*
D03*
Y476378D02*
D03*
Y478346D02*
D03*
Y480315D02*
D03*
Y482283D02*
D03*
Y484252D02*
D03*
X164016D02*
D03*
Y482283D02*
D03*
Y480315D02*
D03*
Y478346D02*
D03*
Y476378D02*
D03*
Y474409D02*
D03*
Y472441D02*
D03*
D22*
X149069Y563529D02*
D03*
X154080Y558518D02*
D03*
X180565Y547781D02*
D03*
X185576Y542770D02*
D03*
X172691Y539907D02*
D03*
X177702Y534896D02*
D03*
X138332Y495526D02*
D03*
X133321Y500537D02*
D03*
X455762Y449356D02*
D03*
X460773Y444345D02*
D03*
X482427Y513242D02*
D03*
X477416Y518254D02*
D03*
X474553Y505369D02*
D03*
X469542Y510380D02*
D03*
D23*
X136214Y548388D02*
D03*
X134822Y546996D02*
D03*
X133430Y545605D02*
D03*
X132038Y544213D02*
D03*
X130647Y542821D02*
D03*
X129255Y541429D02*
D03*
X127863Y540037D02*
D03*
X126471Y538645D02*
D03*
X125079Y537253D02*
D03*
X123687Y535861D02*
D03*
X122295Y534469D02*
D03*
X120903Y533077D02*
D03*
X143313Y510667D02*
D03*
X144705Y512059D02*
D03*
X146097Y513451D02*
D03*
X147489Y514843D02*
D03*
X148881Y516234D02*
D03*
X150273Y517626D02*
D03*
X151665Y519018D02*
D03*
X153057Y520410D02*
D03*
X154449Y521802D02*
D03*
X155841Y523194D02*
D03*
X157233Y524586D02*
D03*
X158625Y525978D02*
D03*
X460624Y497207D02*
D03*
X459232Y495815D02*
D03*
X457840Y494423D02*
D03*
X456448Y493032D02*
D03*
X455056Y491640D02*
D03*
X453664Y490248D02*
D03*
X452272Y488856D02*
D03*
X450880Y487464D02*
D03*
X449488Y486072D02*
D03*
X448096Y484680D02*
D03*
X446704Y483288D02*
D03*
X445312Y481896D02*
D03*
X467723Y459486D02*
D03*
X469115Y460878D02*
D03*
X470507Y462269D02*
D03*
X471899Y463661D02*
D03*
X473290Y465053D02*
D03*
X474682Y466445D02*
D03*
X476074Y467837D02*
D03*
X477466Y469229D02*
D03*
X478858Y470621D02*
D03*
X480250Y472013D02*
D03*
X481642Y473405D02*
D03*
X483034Y474797D02*
D03*
D24*
X120903Y525978D02*
D03*
X122295Y524586D02*
D03*
X123687Y523194D02*
D03*
X125079Y521802D02*
D03*
X126471Y520410D02*
D03*
X127863Y519018D02*
D03*
X129255Y517626D02*
D03*
X130647Y516234D02*
D03*
X132038Y514843D02*
D03*
X133430Y513451D02*
D03*
X134822Y512059D02*
D03*
X136214Y510667D02*
D03*
X158625Y533077D02*
D03*
X157233Y534469D02*
D03*
X155841Y535861D02*
D03*
X154449Y537253D02*
D03*
X153057Y538645D02*
D03*
X151665Y540037D02*
D03*
X150273Y541429D02*
D03*
X148881Y542821D02*
D03*
X147489Y544213D02*
D03*
X146097Y545605D02*
D03*
X144705Y546996D02*
D03*
X143313Y548388D02*
D03*
X445312Y474797D02*
D03*
X446704Y473405D02*
D03*
X448096Y472013D02*
D03*
X449488Y470621D02*
D03*
X450880Y469229D02*
D03*
X452272Y467837D02*
D03*
X453664Y466445D02*
D03*
X455056Y465053D02*
D03*
X456448Y463661D02*
D03*
X457840Y462269D02*
D03*
X459232Y460878D02*
D03*
X460624Y459486D02*
D03*
X483034Y481896D02*
D03*
X481642Y483288D02*
D03*
X480250Y484680D02*
D03*
X478858Y486072D02*
D03*
X477466Y487464D02*
D03*
X476074Y488856D02*
D03*
X474682Y490248D02*
D03*
X473290Y491640D02*
D03*
X471899Y493032D02*
D03*
X470507Y494423D02*
D03*
X469115Y495815D02*
D03*
X467723Y497207D02*
D03*
D25*
X105762Y534896D02*
D03*
X110773Y539907D02*
D03*
X404868Y546206D02*
D03*
X399857Y541195D02*
D03*
X378597Y520329D02*
D03*
X383608Y525340D02*
D03*
X491983Y467180D02*
D03*
X496994Y472191D02*
D03*
X437939Y495419D02*
D03*
X432928Y490408D02*
D03*
D26*
X64961Y542323D02*
D03*
Y579724D02*
D03*
D29*
X390158Y623209D02*
D03*
D30*
Y587028D02*
D03*
D31*
X627165Y444291D02*
D03*
Y436024D02*
D03*
Y481693D02*
D03*
Y473425D02*
D03*
Y519095D02*
D03*
Y510827D02*
D03*
Y550197D02*
D03*
Y558464D02*
D03*
Y398622D02*
D03*
Y406890D02*
D03*
D32*
X544882Y574882D02*
D03*
Y452677D02*
D03*
D33*
X391107Y507249D02*
D03*
X417554Y533696D02*
D03*
D34*
X427953Y352559D02*
D03*
X423622D02*
D03*
X419291D02*
D03*
X414961D02*
D03*
X410630D02*
D03*
X406299D02*
D03*
X401968D02*
D03*
X397638D02*
D03*
D35*
X388287Y375000D02*
D03*
X442421D02*
D03*
X388287Y342323D02*
D03*
X442421D02*
D03*
D36*
X0Y316929D02*
Y635827D01*
X316929D01*
X0Y0D02*
Y318898D01*
Y0D02*
X635827D01*
Y318898D01*
X318898Y635827D02*
X318898Y0D01*
X318898Y635827D02*
X635827D01*
Y316929D02*
Y635827D01*
X0Y318898D02*
X635827D01*
D39*
X90591Y262067D02*
D03*
X93189D02*
D03*
X95787D02*
D03*
X98386D02*
D03*
X163425D02*
D03*
X166024D02*
D03*
X168622D02*
D03*
X171221D02*
D03*
D40*
X98386Y273819D02*
D03*
X95787D02*
D03*
X93189D02*
D03*
X90591D02*
D03*
X171221D02*
D03*
X168622D02*
D03*
X166024D02*
D03*
X163425D02*
D03*
D41*
X92097Y269911D02*
D03*
X96880D02*
D03*
X164931D02*
D03*
X169715D02*
D03*
M02*
