G04*
G04 #@! TF.GenerationSoftware,Altium Limited,Altium Designer,20.0.10 (225)*
G04*
G04 Layer_Color=65535*
%FSLAX25Y25*%
%MOIN*%
G70*
G01*
G75*
%ADD27C,0.01968*%
%ADD28C,0.01000*%
%ADD36C,0.03937*%
%ADD42C,0.01575*%
%ADD49C,0.03937*%
%ADD62C,0.00622*%
%ADD63C,0.00787*%
%ADD64C,0.00984*%
%ADD65C,0.02362*%
%ADD66C,0.00140*%
%ADD67C,0.00500*%
%ADD68C,0.00591*%
D27*
X230315Y378346D02*
Y399606D01*
X236614Y372047D02*
X257874D01*
X253937Y368110D02*
X257874Y372047D01*
X253937Y375984D02*
X257874Y372047D01*
X230315Y399606D02*
X234252Y395669D01*
X230315Y399606D02*
Y399606D01*
Y399606D02*
Y399606D01*
Y399606D02*
Y399606D01*
X226378Y395669D02*
X230315Y399606D01*
D28*
X233858Y589173D02*
Y634449D01*
X185039D02*
X233858D01*
X185039Y589173D02*
Y634449D01*
Y589173D02*
X233858D01*
X44857Y322244D02*
Y367520D01*
Y322244D02*
X114173D01*
Y367520D01*
X44857D02*
X114173D01*
X136811Y338660D02*
Y401652D01*
X199803Y338660D02*
Y401652D01*
X219110Y367533D02*
X223046D01*
Y366550D01*
X219110Y362614D01*
Y361630D01*
X223046D01*
X252969Y365171D02*
X256904Y359268D01*
Y365171D02*
X252969Y359268D01*
X218323Y398636D02*
Y397652D01*
X220291Y395684D01*
X222259Y397652D01*
Y398636D01*
X220291Y395684D02*
Y392732D01*
X15841Y512718D02*
X16841Y513718D01*
Y515717D01*
X15841Y516716D01*
X14841D01*
X13842Y515717D01*
Y513718D01*
X12842Y512718D01*
X11842D01*
X10842Y513718D01*
Y515717D01*
X11842Y516716D01*
X10842Y507719D02*
Y509719D01*
X11842Y510718D01*
X13842D01*
X14841Y509719D01*
Y507719D01*
X13842Y506720D01*
X12842D01*
Y510718D01*
X10842Y504720D02*
X14841D01*
Y501721D01*
X13842Y500722D01*
X10842D01*
Y498722D02*
Y495723D01*
X11842Y494724D01*
X12842Y495723D01*
Y497723D01*
X13842Y498722D01*
X14841Y497723D01*
Y494724D01*
X10842Y491725D02*
Y489725D01*
X11842Y488726D01*
X13842D01*
X14841Y489725D01*
Y491725D01*
X13842Y492724D01*
X11842D01*
X10842Y491725D01*
X14841Y486726D02*
X10842D01*
X12842D01*
X13842Y485727D01*
X14841Y484727D01*
Y483727D01*
X16841Y474730D02*
X10842D01*
Y471731D01*
X11842Y470731D01*
X12842D01*
X13842Y471731D01*
Y474730D01*
Y471731D01*
X14841Y470731D01*
X15841D01*
X16841Y471731D01*
Y474730D01*
X10842Y467732D02*
Y465733D01*
X11842Y464733D01*
X13842D01*
X14841Y465733D01*
Y467732D01*
X13842Y468732D01*
X11842D01*
X10842Y467732D01*
X14841Y461734D02*
Y459735D01*
X13842Y458735D01*
X10842D01*
Y461734D01*
X11842Y462734D01*
X12842Y461734D01*
Y458735D01*
X14841Y456736D02*
X10842D01*
X12842D01*
X13842Y455736D01*
X14841Y454737D01*
Y453737D01*
X16841Y446739D02*
X10842D01*
Y449738D01*
X11842Y450738D01*
X13842D01*
X14841Y449738D01*
Y446739D01*
X24621Y544276D02*
X20685Y542308D01*
X24621Y540340D01*
X20685Y538372D02*
X21669D01*
Y537388D01*
X20685D01*
Y538372D01*
Y533452D02*
Y531484D01*
Y532468D01*
X26589D01*
X25605Y533452D01*
X20685Y528533D02*
X21669D01*
Y527549D01*
X20685D01*
Y528533D01*
X25605Y523613D02*
X26589Y522629D01*
Y520661D01*
X25605Y519677D01*
X21669D01*
X20685Y520661D01*
Y522629D01*
X21669Y523613D01*
X25605D01*
X23637Y511806D02*
Y507870D01*
X20685Y499999D02*
Y498031D01*
Y499015D01*
X26589D01*
X25605Y499999D01*
X26589Y491143D02*
Y495079D01*
X23637D01*
X24621Y493111D01*
Y492127D01*
X23637Y491143D01*
X21669D01*
X20685Y492127D01*
Y494095D01*
X21669Y495079D01*
X20685Y489175D02*
X21669D01*
Y488191D01*
X20685D01*
Y489175D01*
X25605Y484256D02*
X26589Y483272D01*
Y481304D01*
X25605Y480320D01*
X21669D01*
X20685Y481304D01*
Y483272D01*
X21669Y484256D01*
X25605D01*
X20685Y478352D02*
Y476384D01*
Y477368D01*
X26589D01*
X25605Y478352D01*
X20685Y473432D02*
X21669D01*
Y472448D01*
X20685D01*
Y473432D01*
Y464577D02*
Y468513D01*
X24621Y464577D01*
X25605D01*
X26589Y465561D01*
Y467529D01*
X25605Y468513D01*
Y462609D02*
X26589Y461625D01*
Y459657D01*
X25605Y458673D01*
X21669D01*
X20685Y459657D01*
Y461625D01*
X21669Y462609D01*
X25605D01*
X26589Y440963D02*
Y444898D01*
X20685D01*
Y440963D01*
X23637Y444898D02*
Y442930D01*
X20685Y438995D02*
Y437027D01*
Y438011D01*
X24621D01*
Y438995D01*
Y434075D02*
X20685D01*
X22653D01*
X23637Y433091D01*
X24621Y432107D01*
Y431123D01*
X20685Y428171D02*
Y426203D01*
Y427187D01*
X24621D01*
Y428171D01*
X20685Y423252D02*
X24621D01*
Y420300D01*
X23637Y419316D01*
X20685D01*
X191125Y571354D02*
X195124D01*
X197123Y573353D01*
X195124Y575352D01*
X191125D01*
X192125Y581351D02*
X191125Y580351D01*
Y578351D01*
X192125Y577352D01*
X196123D01*
X197123Y578351D01*
Y580351D01*
X196123Y581351D01*
X192125Y587349D02*
X191125Y586349D01*
Y584349D01*
X192125Y583350D01*
X196123D01*
X197123Y584349D01*
Y586349D01*
X196123Y587349D01*
X203037Y575265D02*
X202037Y574265D01*
Y572266D01*
X203037Y571267D01*
X204037D01*
X205036Y572266D01*
Y574265D01*
X206036Y575265D01*
X207036D01*
X208035Y574265D01*
Y572266D01*
X207036Y571267D01*
X202037Y577264D02*
X208035D01*
Y580264D01*
X207036Y581263D01*
X203037D01*
X202037Y580264D01*
Y577264D01*
X208035Y583263D02*
X204037D01*
X202037Y585262D01*
X204037Y587261D01*
X208035D01*
X205036D01*
Y583263D01*
X212989Y575178D02*
X211989Y574178D01*
Y572179D01*
X212989Y571179D01*
X213989D01*
X214988Y572179D01*
Y574178D01*
X215988Y575178D01*
X216988D01*
X217988Y574178D01*
Y572179D01*
X216988Y571179D01*
X212989Y581176D02*
X211989Y580176D01*
Y578177D01*
X212989Y577177D01*
X216988D01*
X217988Y578177D01*
Y580176D01*
X216988Y581176D01*
X211989Y583175D02*
X217988D01*
Y587174D01*
X223028Y575352D02*
X222029Y574353D01*
Y572353D01*
X223028Y571354D01*
X227027D01*
X228027Y572353D01*
Y574353D01*
X227027Y575352D01*
X225028D01*
Y573353D01*
X228027Y577352D02*
X222029D01*
X228027Y581351D01*
X222029D01*
Y583350D02*
X228027D01*
Y586349D01*
X227027Y587349D01*
X223028D01*
X222029Y586349D01*
Y583350D01*
X243002Y593520D02*
Y597518D01*
Y595519D01*
X249000D01*
X243002Y599518D02*
X249000Y603516D01*
X243002D02*
X249000Y599518D01*
X259264Y593393D02*
X253266D01*
Y596392D01*
X254266Y597391D01*
X256265D01*
X257265Y596392D01*
Y593393D01*
Y595392D02*
X259264Y597391D01*
X253266Y599391D02*
X259264Y603389D01*
X253266D02*
X259264Y599391D01*
X53728Y373196D02*
X52728Y372197D01*
Y370197D01*
X53728Y369198D01*
X57726D01*
X58726Y370197D01*
Y372197D01*
X57726Y373196D01*
X55727D01*
Y371197D01*
X58726Y375196D02*
X52728D01*
X58726Y379194D01*
X52728D01*
Y381194D02*
X58726D01*
Y384193D01*
X57726Y385192D01*
X53728D01*
X52728Y384193D01*
Y381194D01*
X101270Y369110D02*
X105268D01*
X107268Y371110D01*
X105268Y373109D01*
X101270D01*
X102269Y379107D02*
X101270Y378107D01*
Y376108D01*
X102269Y375108D01*
X106268D01*
X107268Y376108D01*
Y378107D01*
X106268Y379107D01*
X102269Y385105D02*
X101270Y384105D01*
Y382106D01*
X102269Y381106D01*
X106268D01*
X107268Y382106D01*
Y384105D01*
X106268Y385105D01*
X97132Y369076D02*
X91134D01*
X93134Y371076D01*
X91134Y373075D01*
X97132D01*
X91134Y378073D02*
Y376074D01*
X92134Y375074D01*
X96133D01*
X97132Y376074D01*
Y378073D01*
X96133Y379073D01*
X92134D01*
X91134Y378073D01*
X92134Y385071D02*
X91134Y384071D01*
Y382072D01*
X92134Y381072D01*
X93134D01*
X94134Y382072D01*
Y384071D01*
X95133Y385071D01*
X96133D01*
X97132Y384071D01*
Y382072D01*
X96133Y381072D01*
X91134Y387070D02*
Y389070D01*
Y388070D01*
X97132D01*
Y387070D01*
Y389070D01*
X87637Y368809D02*
X81639D01*
X83638Y370808D01*
X81639Y372808D01*
X87637D01*
X81639Y374807D02*
Y376806D01*
Y375807D01*
X87637D01*
Y374807D01*
Y376806D01*
X82638Y383804D02*
X81639Y382804D01*
Y380805D01*
X82638Y379805D01*
X83638D01*
X84638Y380805D01*
Y382804D01*
X85637Y383804D01*
X86637D01*
X87637Y382804D01*
Y380805D01*
X86637Y379805D01*
X81639Y388802D02*
Y386803D01*
X82638Y385803D01*
X86637D01*
X87637Y386803D01*
Y388802D01*
X86637Y389802D01*
X82638D01*
X81639Y388802D01*
X72742Y373075D02*
X71742Y372075D01*
Y370076D01*
X72742Y369076D01*
X73741D01*
X74741Y370076D01*
Y372075D01*
X75740Y373075D01*
X76740D01*
X77740Y372075D01*
Y370076D01*
X76740Y369076D01*
X72742Y379073D02*
X71742Y378073D01*
Y376074D01*
X72742Y375074D01*
X76740D01*
X77740Y376074D01*
Y378073D01*
X76740Y379073D01*
X71742Y381072D02*
X77740D01*
X75740D01*
X71742Y385071D01*
X74741Y382072D01*
X77740Y385071D01*
X67709Y369076D02*
X61711D01*
X67709Y373075D01*
X61711D01*
X62711Y379073D02*
X61711Y378073D01*
Y376074D01*
X62711Y375074D01*
X63710D01*
X64710Y376074D01*
Y378073D01*
X65710Y379073D01*
X66710D01*
X67709Y378073D01*
Y376074D01*
X66710Y375074D01*
X62711Y385071D02*
X61711Y384071D01*
Y382072D01*
X62711Y381072D01*
X63710D01*
X64710Y382072D01*
Y384071D01*
X65710Y385071D01*
X66710D01*
X67709Y384071D01*
Y382072D01*
X66710Y381072D01*
X137583Y579740D02*
X131585D01*
X137583Y583739D01*
X131585D01*
X137583Y585738D02*
X131585D01*
Y588737D01*
X132584Y589737D01*
X134584D01*
X135583Y588737D01*
Y585738D01*
Y587738D02*
X137583Y589737D01*
X132584Y595735D02*
X131585Y594735D01*
Y592736D01*
X132584Y591736D01*
X133584D01*
X134584Y592736D01*
Y594735D01*
X135583Y595735D01*
X136583D01*
X137583Y594735D01*
Y592736D01*
X136583Y591736D01*
X131585Y597734D02*
Y601733D01*
Y599734D01*
X137583D01*
X142427Y583739D02*
X141427Y582739D01*
Y580740D01*
X142427Y579740D01*
X146425D01*
X147425Y580740D01*
Y582739D01*
X146425Y583739D01*
X144426D01*
Y581740D01*
X147425Y585738D02*
X141427D01*
X147425Y589737D01*
X141427D01*
Y591736D02*
X147425D01*
Y594735D01*
X146425Y595735D01*
X142427D01*
X141427Y594735D01*
Y591736D01*
X151663Y579740D02*
X157661D01*
Y582739D01*
X156662Y583739D01*
X152663D01*
X151663Y582739D01*
Y579740D01*
X152663Y589737D02*
X151663Y588737D01*
Y586738D01*
X152663Y585738D01*
X156662D01*
X157661Y586738D01*
Y588737D01*
X156662Y589737D01*
X151663Y591736D02*
X157661D01*
Y595735D01*
X151663Y597734D02*
X157661D01*
X155662D01*
X151663Y601733D01*
X154662Y598734D01*
X157661Y601733D01*
X161900Y579740D02*
X167898D01*
Y582739D01*
X166898Y583739D01*
X162899D01*
X161900Y582739D01*
Y579740D01*
Y585738D02*
Y587738D01*
Y586738D01*
X167898D01*
Y585738D01*
Y587738D01*
X161900Y593736D02*
Y591736D01*
X162899Y590737D01*
X166898D01*
X167898Y591736D01*
Y593736D01*
X166898Y594735D01*
X162899D01*
X161900Y593736D01*
X172742Y579740D02*
X171742Y580740D01*
Y582739D01*
X172742Y583739D01*
X173741D01*
X174741Y582739D01*
Y581740D01*
Y582739D01*
X175741Y583739D01*
X176741D01*
X177740Y582739D01*
Y580740D01*
X176741Y579740D01*
X177740Y585738D02*
X176741D01*
Y586738D01*
X177740D01*
Y585738D01*
X172742Y590737D02*
X171742Y591736D01*
Y593736D01*
X172742Y594735D01*
X173741D01*
X174741Y593736D01*
Y592736D01*
Y593736D01*
X175741Y594735D01*
X176741D01*
X177740Y593736D01*
Y591736D01*
X176741Y590737D01*
X232878Y587408D02*
X234878D01*
X233878D01*
Y581410D01*
X232878D01*
X234878D01*
X241875D02*
X237877D01*
X241875Y585409D01*
Y586408D01*
X240876Y587408D01*
X238876D01*
X237877Y586408D01*
X247873D02*
X246874Y587408D01*
X244874D01*
X243875Y586408D01*
Y582410D01*
X244874Y581410D01*
X246874D01*
X247873Y582410D01*
X120017Y624954D02*
Y630952D01*
X123016D01*
X124016Y629952D01*
Y627953D01*
X123016Y626953D01*
X120017D01*
X126015Y624954D02*
X128015D01*
X127015D01*
Y630952D01*
X126015Y629952D01*
X30465Y370110D02*
X29466Y371109D01*
X27466D01*
X26467Y370110D01*
Y369110D01*
X27466Y368110D01*
X29466D01*
X30465Y367111D01*
Y366111D01*
X29466Y365111D01*
X27466D01*
X26467Y366111D01*
X32465Y365111D02*
Y371109D01*
X35464D01*
X36464Y370110D01*
Y368110D01*
X35464Y367111D01*
X32465D01*
X38463Y371109D02*
X40462D01*
X39463D01*
Y365111D01*
X38463D01*
X40462D01*
X126891Y430164D02*
Y424166D01*
X129890D01*
X130890Y425166D01*
Y429165D01*
X129890Y430164D01*
X126891D01*
X136888Y424166D02*
X132889D01*
X136888Y428165D01*
Y429165D01*
X135889Y430164D01*
X133889D01*
X132889Y429165D01*
X144515Y430164D02*
Y424166D01*
X148514D01*
X154512Y430164D02*
X150513D01*
Y424166D01*
X154512D01*
X150513Y427165D02*
X152513D01*
X156511Y430164D02*
Y424166D01*
X159511D01*
X160510Y425166D01*
Y429165D01*
X159511Y430164D01*
X156511D01*
X162510Y429165D02*
X163509Y430164D01*
X165509D01*
X166508Y429165D01*
Y428165D01*
X165509Y427165D01*
X164509D01*
X165509D01*
X166508Y426166D01*
Y425166D01*
X165509Y424166D01*
X163509D01*
X162510Y425166D01*
X34565Y574928D02*
X33565Y575927D01*
X31566D01*
X30566Y574928D01*
Y570929D01*
X31566Y569930D01*
X33565D01*
X34565Y570929D01*
X40563Y569930D02*
X36564D01*
X40563Y573928D01*
Y574928D01*
X39563Y575927D01*
X37564D01*
X36564Y574928D01*
X42562Y575927D02*
X46561D01*
Y574928D01*
X42562Y570929D01*
Y569930D01*
X293245Y393732D02*
X292246Y394731D01*
X290246D01*
X289247Y393732D01*
Y389733D01*
X290246Y388733D01*
X292246D01*
X293245Y389733D01*
X299243Y388733D02*
X295245D01*
X299243Y392732D01*
Y393732D01*
X298244Y394731D01*
X296244D01*
X295245Y393732D01*
X305241Y394731D02*
X303242Y393732D01*
X301243Y391732D01*
Y389733D01*
X302242Y388733D01*
X304242D01*
X305241Y389733D01*
Y390733D01*
X304242Y391732D01*
X301243D01*
X71897Y530589D02*
X70897D01*
X68898Y528590D01*
X70897Y526590D01*
X71897D01*
X68898Y528590D02*
X65899D01*
Y520592D02*
Y524591D01*
X69897Y520592D01*
X70897D01*
X71897Y521592D01*
Y523591D01*
X70897Y524591D01*
X95519Y565022D02*
X94519D01*
X92520Y563023D01*
X94519Y561024D01*
X95519D01*
X92520Y563023D02*
X89521D01*
Y559024D02*
Y557025D01*
Y558025D01*
X95519D01*
X94519Y559024D01*
X212499Y504674D02*
Y499676D01*
X213499Y498676D01*
X215498D01*
X216498Y499676D01*
Y504674D01*
X222496D02*
X218497D01*
Y501675D01*
X220497Y502675D01*
X221496D01*
X222496Y501675D01*
Y499676D01*
X221496Y498676D01*
X219497D01*
X218497Y499676D01*
X159350Y495930D02*
Y490932D01*
X160349Y489932D01*
X162349D01*
X163348Y490932D01*
Y495930D01*
X169346D02*
X167347Y494931D01*
X165348Y492931D01*
Y490932D01*
X166347Y489932D01*
X168347D01*
X169346Y490932D01*
Y491931D01*
X168347Y492931D01*
X165348D01*
X241065Y552212D02*
Y547213D01*
X242064Y546214D01*
X244064D01*
X245063Y547213D01*
Y552212D01*
X251061Y546214D02*
X247063D01*
X251061Y550212D01*
Y551212D01*
X250062Y552212D01*
X248062D01*
X247063Y551212D01*
X212488Y483800D02*
Y478801D01*
X213488Y477802D01*
X215487D01*
X216487Y478801D01*
Y483800D01*
X221485Y477802D02*
Y483800D01*
X218486Y480801D01*
X222485D01*
X142763Y533526D02*
X137764D01*
X136765Y532527D01*
Y530527D01*
X137764Y529528D01*
X142763D01*
X136765Y527528D02*
Y525529D01*
Y526529D01*
X142763D01*
X141763Y527528D01*
X212445Y464065D02*
Y459067D01*
X213445Y458067D01*
X215444D01*
X216444Y459067D01*
Y464065D01*
X218443Y463066D02*
X219443Y464065D01*
X221442D01*
X222442Y463066D01*
Y462066D01*
X221442Y461066D01*
X220443D01*
X221442D01*
X222442Y460067D01*
Y459067D01*
X221442Y458067D01*
X219443D01*
X218443Y459067D01*
X61024Y622078D02*
X60024Y623078D01*
X58025D01*
X57025Y622078D01*
Y621078D01*
X58025Y620079D01*
X60024D01*
X61024Y619079D01*
Y618079D01*
X60024Y617080D01*
X58025D01*
X57025Y618079D01*
X63023Y617080D02*
X65022D01*
X64023D01*
Y623078D01*
X63023Y622078D01*
X253518Y563033D02*
Y569031D01*
X256518D01*
X257517Y568031D01*
Y566032D01*
X256518Y565032D01*
X253518D01*
X255518D02*
X257517Y563033D01*
X263515Y569031D02*
X259517D01*
Y566032D01*
X261516Y567031D01*
X262515D01*
X263515Y566032D01*
Y564032D01*
X262515Y563033D01*
X260516D01*
X259517Y564032D01*
X296420Y561986D02*
Y567984D01*
X299419D01*
X300419Y566985D01*
Y564985D01*
X299419Y563986D01*
X296420D01*
X298419D02*
X300419Y561986D01*
X305417D02*
Y567984D01*
X302418Y564985D01*
X306417D01*
X300120Y455662D02*
Y461660D01*
X303119D01*
X304118Y460661D01*
Y458661D01*
X303119Y457662D01*
X300120D01*
X302119D02*
X304118Y455662D01*
X306118Y460661D02*
X307118Y461660D01*
X309117D01*
X310117Y460661D01*
Y459661D01*
X309117Y458661D01*
X308117D01*
X309117D01*
X310117Y457662D01*
Y456662D01*
X309117Y455662D01*
X307118D01*
X306118Y456662D01*
X241065Y412355D02*
Y418353D01*
X244064D01*
X245063Y417354D01*
Y415354D01*
X244064Y414355D01*
X241065D01*
X243064D02*
X245063Y412355D01*
X247063Y417354D02*
X248062Y418353D01*
X250062D01*
X251061Y417354D01*
Y416354D01*
X250062Y415354D01*
X251061Y414355D01*
Y413355D01*
X250062Y412355D01*
X248062D01*
X247063Y413355D01*
Y414355D01*
X248062Y415354D01*
X247063Y416354D01*
Y417354D01*
X248062Y415354D02*
X250062D01*
X300120Y408418D02*
Y414416D01*
X303119D01*
X304118Y413417D01*
Y411417D01*
X303119Y410418D01*
X300120D01*
X302119D02*
X304118Y408418D01*
X310117D02*
X306118D01*
X310117Y412417D01*
Y413417D01*
X309117Y414416D01*
X307118D01*
X306118Y413417D01*
X111143Y424166D02*
Y430164D01*
X114142D01*
X115142Y429165D01*
Y427165D01*
X114142Y426166D01*
X111143D01*
X113143D02*
X115142Y424166D01*
X117141Y430164D02*
X121140D01*
Y429165D01*
X117141Y425166D01*
Y424166D01*
X116080Y601332D02*
Y607330D01*
X119079D01*
X120079Y606330D01*
Y604331D01*
X119079Y603331D01*
X116080D01*
X118079D02*
X120079Y601332D01*
X122078D02*
X124077D01*
X123078D01*
Y607330D01*
X122078Y606330D01*
X164225Y434429D02*
Y440426D01*
X167225D01*
X168224Y439427D01*
Y437428D01*
X167225Y436428D01*
X164225D01*
X166225D02*
X168224Y434429D01*
X174222Y440426D02*
X172223Y439427D01*
X170223Y437428D01*
Y435428D01*
X171223Y434429D01*
X173223D01*
X174222Y435428D01*
Y436428D01*
X173223Y437428D01*
X170223D01*
X278108Y588408D02*
Y594406D01*
X281107D01*
X282107Y593406D01*
Y591406D01*
X281107Y590407D01*
X278108D01*
X284106Y593406D02*
X285106Y594406D01*
X287105D01*
X288105Y593406D01*
Y592406D01*
X287105Y591406D01*
X286106D01*
X287105D01*
X288105Y590407D01*
Y589407D01*
X287105Y588408D01*
X285106D01*
X284106Y589407D01*
X260295Y630679D02*
Y625680D01*
X261295Y624681D01*
X263294D01*
X264294Y625680D01*
Y630679D01*
X266293Y624681D02*
Y628679D01*
X268292Y630679D01*
X270292Y628679D01*
Y624681D01*
Y627679D01*
X266293D01*
X272291Y624681D02*
Y630679D01*
X275290D01*
X276290Y629679D01*
Y627679D01*
X275290Y626680D01*
X272291D01*
X274290D02*
X276290Y624681D01*
X278289Y630679D02*
X282288D01*
X280288D01*
Y624681D01*
X256412Y443926D02*
X255412Y444926D01*
X253413D01*
X252413Y443926D01*
Y439927D01*
X253413Y438928D01*
X255412D01*
X256412Y439927D01*
X258411Y438928D02*
Y442927D01*
X260411Y444926D01*
X262410Y442927D01*
Y438928D01*
Y441927D01*
X258411D01*
X264409Y438928D02*
Y444926D01*
X268408Y438928D01*
Y444926D01*
X297121Y439914D02*
Y445912D01*
X300120D01*
X301119Y444913D01*
Y442913D01*
X300120Y441914D01*
X297121D01*
X303119Y445912D02*
Y439914D01*
X305118Y441914D01*
X307118Y439914D01*
Y445912D01*
X309117Y439914D02*
Y445912D01*
X312116D01*
X313116Y444913D01*
Y442913D01*
X312116Y441914D01*
X309117D01*
X311116D02*
X313116Y439914D01*
X293585Y430145D02*
Y424147D01*
X297584D01*
X303582Y430145D02*
X299583D01*
Y424147D01*
X303582D01*
X299583Y427146D02*
X301582D01*
X305581Y430145D02*
Y424147D01*
X308580D01*
X309580Y425147D01*
Y429146D01*
X308580Y430145D01*
X305581D01*
X311579Y424147D02*
X313578D01*
X312579D01*
Y430145D01*
X311579Y429146D01*
X231101Y349825D02*
X229101D01*
X230101D01*
Y344827D01*
X229101Y343827D01*
X228102D01*
X227102Y344827D01*
X233100Y343827D02*
X235099D01*
X234100D01*
Y349825D01*
X233100Y348826D01*
X171198Y430164D02*
Y424166D01*
X174197D01*
X175197Y425166D01*
Y429165D01*
X174197Y430164D01*
X171198D01*
X177196Y424166D02*
X179196D01*
X178196D01*
Y430164D01*
X177196Y429165D01*
X218942Y543338D02*
X217942Y544338D01*
X215943D01*
X214943Y543338D01*
Y539339D01*
X215943Y538340D01*
X217942D01*
X218942Y539339D01*
X220941Y538340D02*
X222941D01*
X221941D01*
Y544338D01*
X220941Y543338D01*
X229939Y544338D02*
X227939Y543338D01*
X225940Y541339D01*
Y539339D01*
X226940Y538340D01*
X228939D01*
X229939Y539339D01*
Y540339D01*
X228939Y541339D01*
X225940D01*
X82708Y533026D02*
X83708Y534026D01*
Y536025D01*
X82708Y537025D01*
X78709D01*
X77710Y536025D01*
Y534026D01*
X78709Y533026D01*
X77710Y531027D02*
Y529028D01*
Y530027D01*
X83708D01*
X82708Y531027D01*
Y526029D02*
X83708Y525029D01*
Y523030D01*
X82708Y522030D01*
X78709D01*
X77710Y523030D01*
Y525029D01*
X78709Y526029D01*
X82708D01*
X83241Y572470D02*
X84241Y573470D01*
Y575469D01*
X83241Y576469D01*
X79242D01*
X78242Y575469D01*
Y573470D01*
X79242Y572470D01*
Y570471D02*
X78242Y569471D01*
Y567472D01*
X79242Y566472D01*
X83241D01*
X84241Y567472D01*
Y569471D01*
X83241Y570471D01*
X82241D01*
X81242Y569471D01*
Y566472D01*
X251519Y511286D02*
X250519Y512286D01*
X248520D01*
X247520Y511286D01*
Y507288D01*
X248520Y506288D01*
X250519D01*
X251519Y507288D01*
X257517Y506288D02*
X253519D01*
X257517Y510287D01*
Y511286D01*
X256518Y512286D01*
X254518D01*
X253519Y511286D01*
X259517Y506288D02*
X261516D01*
X260516D01*
Y512286D01*
X259517Y511286D01*
X114204Y589582D02*
X115204Y590582D01*
Y592581D01*
X114204Y593581D01*
X110205D01*
X109206Y592581D01*
Y590582D01*
X110205Y589582D01*
X114204Y587583D02*
X115204Y586583D01*
Y584584D01*
X114204Y583584D01*
X113204D01*
X112205Y584584D01*
X111205Y583584D01*
X110205D01*
X109206Y584584D01*
Y586583D01*
X110205Y587583D01*
X111205D01*
X112205Y586583D01*
X113204Y587583D01*
X114204D01*
X112205Y586583D02*
Y584584D01*
X251147Y488005D02*
X250147Y489004D01*
X248148D01*
X247148Y488005D01*
Y484006D01*
X248148Y483006D01*
X250147D01*
X251147Y484006D01*
X253146Y483006D02*
X255145D01*
X254146D01*
Y489004D01*
X253146Y488005D01*
X258144Y484006D02*
X259144Y483006D01*
X261143D01*
X262143Y484006D01*
Y488005D01*
X261143Y489004D01*
X259144D01*
X258144Y488005D01*
Y487005D01*
X259144Y486005D01*
X262143D01*
X114204Y569897D02*
X115204Y570897D01*
Y572896D01*
X114204Y573896D01*
X110205D01*
X109206Y572896D01*
Y570897D01*
X110205Y569897D01*
X115204Y567898D02*
Y563899D01*
X114204D01*
X110205Y567898D01*
X109206D01*
X250438Y464598D02*
X249439Y465597D01*
X247439D01*
X246439Y464598D01*
Y460599D01*
X247439Y459599D01*
X249439D01*
X250438Y460599D01*
X252437Y459599D02*
X254437D01*
X253437D01*
Y465597D01*
X252437Y464598D01*
X257436Y465597D02*
X261435D01*
Y464598D01*
X257436Y460599D01*
Y459599D01*
X62512Y606309D02*
X61512Y607309D01*
X59513D01*
X58513Y606309D01*
Y602311D01*
X59513Y601311D01*
X61512D01*
X62512Y602311D01*
X68510Y607309D02*
X66511Y606309D01*
X64511Y604310D01*
Y602311D01*
X65511Y601311D01*
X67510D01*
X68510Y602311D01*
Y603310D01*
X67510Y604310D01*
X64511D01*
X230800Y511159D02*
X229800Y512159D01*
X227801D01*
X226801Y511159D01*
Y507161D01*
X227801Y506161D01*
X229800D01*
X230800Y507161D01*
X236798Y506161D02*
X232799D01*
X236798Y510159D01*
Y511159D01*
X235798Y512159D01*
X233799D01*
X232799Y511159D01*
X242796Y506161D02*
X238797D01*
X242796Y510159D01*
Y511159D01*
X241796Y512159D01*
X239797D01*
X238797Y511159D01*
X96561Y528023D02*
X95148D01*
X93734Y526609D01*
Y525195D01*
X96561Y522368D01*
X97975D01*
X99389Y523781D01*
Y525195D01*
X100096Y532971D02*
X97268Y530143D01*
X99389Y528023D01*
X100096Y530143D01*
X100803Y530850D01*
X102216D01*
X103630Y529436D01*
Y528023D01*
X102216Y526609D01*
X100803D01*
X230291Y488005D02*
X229292Y489004D01*
X227292D01*
X226292Y488005D01*
Y484006D01*
X227292Y483006D01*
X229292D01*
X230291Y484006D01*
X236289Y483006D02*
X232291D01*
X236289Y487005D01*
Y488005D01*
X235290Y489004D01*
X233290D01*
X232291Y488005D01*
X238288D02*
X239288Y489004D01*
X241288D01*
X242287Y488005D01*
Y484006D01*
X241288Y483006D01*
X239288D01*
X238288Y484006D01*
Y488005D01*
X161792Y553844D02*
Y555258D01*
X160378Y556671D01*
X158964D01*
X156137Y553844D01*
Y552430D01*
X157550Y551016D01*
X158964D01*
X161792Y546775D02*
X166033Y551016D01*
X161792D01*
X164619Y548189D01*
X230753Y464598D02*
X229753Y465597D01*
X227754D01*
X226754Y464598D01*
Y460599D01*
X227754Y459599D01*
X229753D01*
X230753Y460599D01*
X232752Y459599D02*
X234752D01*
X233752D01*
Y465597D01*
X232752Y464598D01*
X237751D02*
X238751Y465597D01*
X240750D01*
X241750Y464598D01*
Y463598D01*
X240750Y462598D01*
X241750Y461599D01*
Y460599D01*
X240750Y459599D01*
X238751D01*
X237751Y460599D01*
Y461599D01*
X238751Y462598D01*
X237751Y463598D01*
Y464598D01*
X238751Y462598D02*
X240750D01*
X145691Y491505D02*
Y492919D01*
X144278Y494333D01*
X142864D01*
X140036Y491505D01*
Y490091D01*
X141450Y488678D01*
X142864D01*
X147105Y490091D02*
X148519D01*
X149933Y488678D01*
Y487264D01*
X149226Y486557D01*
X147812D01*
X147105Y487264D01*
X147812Y486557D01*
Y485143D01*
X147105Y484436D01*
X145691D01*
X144278Y485850D01*
Y487264D01*
X171198Y456724D02*
X170199Y457723D01*
X168199D01*
X167199Y456724D01*
Y452725D01*
X168199Y451725D01*
X170199D01*
X171198Y452725D01*
X177196Y451725D02*
X173197D01*
X177196Y455724D01*
Y456724D01*
X176197Y457723D01*
X174197D01*
X173197Y456724D01*
X182195Y451725D02*
Y457723D01*
X179196Y454724D01*
X183194D01*
X193633Y537874D02*
Y539287D01*
X192219Y540701D01*
X190805D01*
X187978Y537874D01*
Y536460D01*
X189392Y535046D01*
X190805D01*
X194340Y530098D02*
X191512Y532926D01*
X197167D01*
X197874Y533632D01*
Y535046D01*
X196460Y536460D01*
X195047D01*
X189007Y478408D02*
X190007Y479408D01*
Y481407D01*
X189007Y482407D01*
X185009D01*
X184009Y481407D01*
Y479408D01*
X185009Y478408D01*
X184009Y472410D02*
Y476409D01*
X188007Y472410D01*
X189007D01*
X190007Y473410D01*
Y475409D01*
X189007Y476409D01*
Y470411D02*
X190007Y469411D01*
Y467412D01*
X189007Y466412D01*
X188007D01*
X187008Y467412D01*
Y468411D01*
Y467412D01*
X186008Y466412D01*
X185009D01*
X184009Y467412D01*
Y469411D01*
X185009Y470411D01*
X185491Y530137D02*
Y531551D01*
X184077Y532965D01*
X182664D01*
X179836Y530137D01*
Y528723D01*
X181250Y527310D01*
X182664D01*
X183370Y525189D02*
X184784Y523775D01*
X184077Y524482D01*
X188319Y528723D01*
X186905D01*
X190883Y429165D02*
X189883Y430164D01*
X187884D01*
X186884Y429165D01*
Y425166D01*
X187884Y424166D01*
X189883D01*
X190883Y425166D01*
X196881Y424166D02*
X192883D01*
X196881Y428165D01*
Y429165D01*
X195882Y430164D01*
X193882D01*
X192883Y429165D01*
X202879Y430164D02*
X198881D01*
Y427165D01*
X200880Y428165D01*
X201880D01*
X202879Y427165D01*
Y425166D01*
X201880Y424166D01*
X199880D01*
X198881Y425166D01*
X119017Y406542D02*
Y401544D01*
X120017Y400544D01*
X122016D01*
X123016Y401544D01*
Y406542D01*
X125015D02*
X129014D01*
Y405543D01*
X125015Y401544D01*
Y400544D01*
X341944Y541913D02*
X338008Y539946D01*
X341944Y537978D01*
X338008Y536010D02*
X338992D01*
Y535026D01*
X338008D01*
Y536010D01*
Y531090D02*
Y529122D01*
Y530106D01*
X343912D01*
X342928Y531090D01*
X338008Y526170D02*
X338992D01*
Y525186D01*
X338008D01*
Y526170D01*
X342928Y521251D02*
X343912Y520267D01*
Y518299D01*
X342928Y517315D01*
X338992D01*
X338008Y518299D01*
Y520267D01*
X338992Y521251D01*
X342928D01*
X340960Y509444D02*
Y505508D01*
X338008Y497636D02*
Y495669D01*
Y496652D01*
X343912D01*
X342928Y497636D01*
X343912Y488781D02*
Y492717D01*
X340960D01*
X341944Y490749D01*
Y489765D01*
X340960Y488781D01*
X338992D01*
X338008Y489765D01*
Y491733D01*
X338992Y492717D01*
X338008Y486813D02*
X338992D01*
Y485829D01*
X338008D01*
Y486813D01*
X342928Y481893D02*
X343912Y480909D01*
Y478942D01*
X342928Y477958D01*
X338992D01*
X338008Y478942D01*
Y480909D01*
X338992Y481893D01*
X342928D01*
X338008Y475990D02*
Y474022D01*
Y475006D01*
X343912D01*
X342928Y475990D01*
X338008Y471070D02*
X338992D01*
Y470086D01*
X338008D01*
Y471070D01*
Y462215D02*
Y466151D01*
X341944Y462215D01*
X342928D01*
X343912Y463199D01*
Y465167D01*
X342928Y466151D01*
Y460247D02*
X343912Y459263D01*
Y457295D01*
X342928Y456311D01*
X338992D01*
X338008Y457295D01*
Y459263D01*
X338992Y460247D01*
X342928D01*
X340960Y448440D02*
Y444504D01*
X343912Y432697D02*
Y434665D01*
Y433681D01*
X338992D01*
X338008Y434665D01*
Y435648D01*
X338992Y436632D01*
X338008Y429745D02*
Y427777D01*
X338992Y426793D01*
X340960D01*
X341944Y427777D01*
Y429745D01*
X340960Y430729D01*
X338992D01*
X338008Y429745D01*
Y424825D02*
X341944D01*
Y421874D01*
X340960Y420890D01*
X338008D01*
X341944Y417938D02*
Y415970D01*
X340960Y414986D01*
X338008D01*
Y417938D01*
X338992Y418922D01*
X339976Y417938D01*
Y414986D01*
X338008Y413018D02*
Y410066D01*
X338992Y409082D01*
X339976Y410066D01*
Y412034D01*
X340960Y413018D01*
X341944Y412034D01*
Y409082D01*
X327378Y502937D02*
X333282D01*
X331314Y500969D01*
X333282Y499001D01*
X327378D01*
X331314Y496049D02*
Y494082D01*
X330330Y493098D01*
X327378D01*
Y496049D01*
X328362Y497033D01*
X329346Y496049D01*
Y493098D01*
X327378Y491130D02*
Y489162D01*
Y490146D01*
X331314D01*
Y491130D01*
X327378Y486210D02*
X331314D01*
Y483258D01*
X330330Y482274D01*
X327378D01*
X333282Y474403D02*
X327378D01*
Y471451D01*
X328362Y470467D01*
X329346D01*
X330330Y471451D01*
Y474403D01*
Y471451D01*
X331314Y470467D01*
X332298D01*
X333282Y471451D01*
Y474403D01*
X327378Y467515D02*
Y465548D01*
X328362Y464564D01*
X330330D01*
X331314Y465548D01*
Y467515D01*
X330330Y468499D01*
X328362D01*
X327378Y467515D01*
X331314Y461612D02*
Y459644D01*
X330330Y458660D01*
X327378D01*
Y461612D01*
X328362Y462596D01*
X329346Y461612D01*
Y458660D01*
X331314Y456692D02*
X327378D01*
X329346D01*
X330330Y455708D01*
X331314Y454724D01*
Y453740D01*
X333282Y446853D02*
X327378D01*
Y449805D01*
X328362Y450788D01*
X330330D01*
X331314Y449805D01*
Y446853D01*
X462780Y575409D02*
X456781D01*
Y578408D01*
X457781Y579408D01*
X459781D01*
X460780Y578408D01*
Y575409D01*
Y577409D02*
X462780Y579408D01*
X456781Y581407D02*
Y585406D01*
Y583407D01*
X462780D01*
X457781Y591404D02*
X456781Y590405D01*
Y588405D01*
X457781Y587406D01*
X458781D01*
X459781Y588405D01*
Y590405D01*
X460780Y591404D01*
X461780D01*
X462780Y590405D01*
Y588405D01*
X461780Y587406D01*
X447939Y579408D02*
X446939Y578408D01*
Y576409D01*
X447939Y575410D01*
X451937D01*
X452937Y576409D01*
Y578408D01*
X451937Y579408D01*
X446939Y581407D02*
Y585406D01*
Y583407D01*
X452937D01*
X447939Y591404D02*
X446939Y590405D01*
Y588405D01*
X447939Y587406D01*
X448938D01*
X449938Y588405D01*
Y590405D01*
X450938Y591404D01*
X451937D01*
X452937Y590405D01*
Y588405D01*
X451937Y587406D01*
X443094Y575803D02*
X437096D01*
Y578802D01*
X438096Y579802D01*
X440095D01*
X441095Y578802D01*
Y575803D01*
Y577803D02*
X443094Y579802D01*
X437096Y581801D02*
X443094Y585800D01*
X437096D02*
X443094Y581801D01*
X426860Y575803D02*
Y579802D01*
Y577803D01*
X432858D01*
X426860Y581801D02*
X432858Y585800D01*
X426860D02*
X432858Y581801D01*
X463992Y578652D02*
Y572653D01*
X466991D01*
X467991Y573653D01*
Y574653D01*
X466991Y575653D01*
X463992D01*
X466991D01*
X467991Y576652D01*
Y577652D01*
X466991Y578652D01*
X463992D01*
X469990Y572653D02*
X471989D01*
X470990D01*
Y578652D01*
X469990Y577652D01*
X480987D02*
X481986Y578652D01*
X483986D01*
X484985Y577652D01*
Y573653D01*
X483986Y572653D01*
X481986D01*
X480987Y573653D01*
Y577652D01*
X528254Y578953D02*
X527254Y579952D01*
Y581952D01*
X528254Y582951D01*
X529253D01*
X530253Y581952D01*
Y580952D01*
Y581952D01*
X531253Y582951D01*
X532252D01*
X533252Y581952D01*
Y579952D01*
X532252Y578953D01*
X533252Y584951D02*
X532252D01*
Y585951D01*
X533252D01*
Y584951D01*
X528254Y589949D02*
X527254Y590949D01*
Y592948D01*
X528254Y593948D01*
X529253D01*
X530253Y592948D01*
Y591949D01*
Y592948D01*
X531253Y593948D01*
X532252D01*
X533252Y592948D01*
Y590949D01*
X532252Y589949D01*
X517411Y578953D02*
X523409D01*
Y581952D01*
X522410Y582951D01*
X518411D01*
X517411Y581952D01*
Y578953D01*
Y584951D02*
Y586950D01*
Y585951D01*
X523409D01*
Y584951D01*
Y586950D01*
X517411Y592948D02*
Y590949D01*
X518411Y589949D01*
X522410D01*
X523409Y590949D01*
Y592948D01*
X522410Y593948D01*
X518411D01*
X517411Y592948D01*
X507175Y578953D02*
X513173D01*
Y581952D01*
X512174Y582951D01*
X508175D01*
X507175Y581952D01*
Y578953D01*
X508175Y588949D02*
X507175Y587950D01*
Y585951D01*
X508175Y584951D01*
X512174D01*
X513173Y585951D01*
Y587950D01*
X512174Y588949D01*
X507175Y590949D02*
X513173D01*
Y594948D01*
X507175Y596947D02*
X513173D01*
X511174D01*
X507175Y600946D01*
X510174Y597947D01*
X513173Y600946D01*
X497939Y582951D02*
X496939Y581952D01*
Y579952D01*
X497939Y578953D01*
X501937D01*
X502937Y579952D01*
Y581952D01*
X501937Y582951D01*
X499938D01*
Y580952D01*
X502937Y584951D02*
X496939D01*
X502937Y588949D01*
X496939D01*
Y590949D02*
X502937D01*
Y593948D01*
X501937Y594948D01*
X497939D01*
X496939Y593948D01*
Y590949D01*
X493094Y578953D02*
X487096D01*
X493094Y582951D01*
X487096D01*
X493094Y584951D02*
X487096D01*
Y587950D01*
X488096Y588949D01*
X490095D01*
X491095Y587950D01*
Y584951D01*
Y586950D02*
X493094Y588949D01*
X488096Y594948D02*
X487096Y593948D01*
Y591949D01*
X488096Y590949D01*
X489096D01*
X490095Y591949D01*
Y593948D01*
X491095Y594948D01*
X492095D01*
X493094Y593948D01*
Y591949D01*
X492095Y590949D01*
X487096Y596947D02*
Y600946D01*
Y598946D01*
X493094D01*
X545094Y600699D02*
X549093D01*
X547094D01*
Y594701D01*
X551093Y600699D02*
X555091Y594701D01*
Y600699D02*
X551093Y594701D01*
X563089D02*
Y600699D01*
X566088D01*
X567087Y599699D01*
Y597700D01*
X566088Y596700D01*
X563089D01*
X565088D02*
X567087Y594701D01*
X569087Y600699D02*
X573085Y594701D01*
Y600699D02*
X569087Y594701D01*
X347866Y643364D02*
X351865Y639366D01*
X347866D02*
X351865Y643364D01*
X347866Y641365D02*
X351865D01*
X349866Y639366D02*
Y643364D01*
X378781Y467960D02*
Y461962D01*
X381780D01*
X382780Y462961D01*
Y463961D01*
X381780Y464961D01*
X378781D01*
X381780D01*
X382780Y465960D01*
Y466960D01*
X381780Y467960D01*
X378781D01*
X384779Y465960D02*
Y462961D01*
X385779Y461962D01*
X388778D01*
Y465960D01*
X390777D02*
X394776D01*
X390777Y461962D01*
X394776D01*
X396775Y465960D02*
X400774D01*
X396775Y461962D01*
X400774D01*
X405772D02*
X403773D01*
X402773Y462961D01*
Y464961D01*
X403773Y465960D01*
X405772D01*
X406772Y464961D01*
Y463961D01*
X402773D01*
X408771Y465960D02*
Y461962D01*
Y463961D01*
X409771Y464961D01*
X410771Y465960D01*
X411770D01*
X425631Y608410D02*
Y614408D01*
X428630D01*
X429629Y613409D01*
Y611409D01*
X428630Y610410D01*
X425631D01*
X435628Y614408D02*
X433628Y613409D01*
X431629Y611409D01*
Y609410D01*
X432628Y608410D01*
X434628D01*
X435628Y609410D01*
Y610410D01*
X434628Y611409D01*
X431629D01*
X589353Y568261D02*
Y574259D01*
X592352D01*
X593352Y573259D01*
Y571260D01*
X592352Y570260D01*
X589353D01*
X591352D02*
X593352Y568261D01*
X595351D02*
X597350D01*
X596351D01*
Y574259D01*
X595351Y573259D01*
X600349D02*
X601349Y574259D01*
X603348D01*
X604348Y573259D01*
Y572260D01*
X603348Y571260D01*
X604348Y570260D01*
Y569261D01*
X603348Y568261D01*
X601349D01*
X600349Y569261D01*
Y570260D01*
X601349Y571260D01*
X600349Y572260D01*
Y573259D01*
X601349Y571260D02*
X603348D01*
X589353Y587158D02*
Y593156D01*
X592352D01*
X593352Y592157D01*
Y590158D01*
X592352Y589158D01*
X589353D01*
X591352D02*
X593352Y587158D01*
X595351D02*
X597350D01*
X596351D01*
Y593156D01*
X595351Y592157D01*
X600349Y593156D02*
X604348D01*
Y592157D01*
X600349Y588158D01*
Y587158D01*
X589353Y577710D02*
Y583708D01*
X592352D01*
X593352Y582708D01*
Y580709D01*
X592352Y579709D01*
X589353D01*
X591352D02*
X593352Y577710D01*
X595351D02*
X597350D01*
X596351D01*
Y583708D01*
X595351Y582708D01*
X604348Y583708D02*
X602349Y582708D01*
X600349Y580709D01*
Y578709D01*
X601349Y577710D01*
X603348D01*
X604348Y578709D01*
Y579709D01*
X603348Y580709D01*
X600349D01*
X512081Y561267D02*
Y555269D01*
X515080D01*
X516080Y556268D01*
Y557268D01*
X515080Y558268D01*
X512081D01*
X515080D01*
X516080Y559267D01*
Y560267D01*
X515080Y561267D01*
X512081D01*
X518079D02*
X522078D01*
X520079D01*
Y555269D01*
X524078Y560267D02*
X525077Y561267D01*
X527076D01*
X528076Y560267D01*
Y556268D01*
X527076Y555269D01*
X525077D01*
X524078Y556268D01*
Y560267D01*
X459569Y375347D02*
Y381346D01*
X462568D01*
X463567Y380346D01*
Y378346D01*
X462568Y377347D01*
X459569D01*
X469565Y381346D02*
X465567D01*
Y378346D01*
X467566Y379346D01*
X468566D01*
X469565Y378346D01*
Y376347D01*
X468566Y375347D01*
X466566D01*
X465567Y376347D01*
X373096Y556464D02*
X372097Y557464D01*
X370097D01*
X369098Y556464D01*
Y552466D01*
X370097Y551466D01*
X372097D01*
X373096Y552466D01*
X375096Y551466D02*
X377095D01*
X376095D01*
Y557464D01*
X375096Y556464D01*
X380094Y557464D02*
X384093D01*
Y556464D01*
X380094Y552466D01*
Y551466D01*
X517367Y420110D02*
X516368Y421109D01*
X514368D01*
X513369Y420110D01*
Y416111D01*
X514368Y415111D01*
X516368D01*
X517367Y416111D01*
X519367Y415111D02*
X521366D01*
X520366D01*
Y421109D01*
X519367Y420110D01*
X528364Y421109D02*
X526364Y420110D01*
X524365Y418110D01*
Y416111D01*
X525365Y415111D01*
X527364D01*
X528364Y416111D01*
Y417110D01*
X527364Y418110D01*
X524365D01*
X413506Y554574D02*
Y553574D01*
X415505Y551575D01*
X417504Y553574D01*
Y554574D01*
X415505Y551575D02*
Y548576D01*
X423502D02*
X419504D01*
X423502Y552574D01*
Y553574D01*
X422503Y554574D01*
X420503D01*
X419504Y553574D01*
X464112Y540007D02*
Y539007D01*
X466111Y537008D01*
X468110Y539007D01*
Y540007D01*
X466111Y537008D02*
Y534009D01*
X470110D02*
X472109D01*
X471109D01*
Y540007D01*
X470110Y539007D01*
X570198Y449456D02*
Y444457D01*
X571198Y443458D01*
X573198D01*
X574197Y444457D01*
Y449456D01*
X580195Y443458D02*
X576196D01*
X580195Y447456D01*
Y448456D01*
X579196Y449456D01*
X577196D01*
X576196Y448456D01*
X451119Y509298D02*
Y504300D01*
X452119Y503300D01*
X454118D01*
X455118Y504300D01*
Y509298D01*
X457118Y503300D02*
X459117D01*
X458117D01*
Y509298D01*
X457118Y508299D01*
X379921Y579558D02*
X378922Y580558D01*
X376922D01*
X375923Y579558D01*
Y578559D01*
X376922Y577559D01*
X378922D01*
X379921Y576559D01*
Y575560D01*
X378922Y574560D01*
X376922D01*
X375923Y575560D01*
X381921Y574560D02*
X383920D01*
X382920D01*
Y580558D01*
X381921Y579558D01*
X455101Y387552D02*
Y393550D01*
X458100D01*
X459100Y392550D01*
Y390551D01*
X458100Y389551D01*
X455101D01*
X457100D02*
X459100Y387552D01*
X461099D02*
X463098D01*
X462099D01*
Y393550D01*
X461099Y392550D01*
X470096Y387552D02*
X466097D01*
X470096Y391551D01*
Y392550D01*
X469096Y393550D01*
X467097D01*
X466097Y392550D01*
X526179Y393064D02*
Y399062D01*
X529178D01*
X530178Y398062D01*
Y396063D01*
X529178Y395063D01*
X526179D01*
X528179D02*
X530178Y393064D01*
X532177D02*
X534177D01*
X533177D01*
Y399062D01*
X532177Y398062D01*
X537176Y393064D02*
X539175D01*
X538175D01*
Y399062D01*
X537176Y398062D01*
X542348Y393184D02*
Y399182D01*
X545347D01*
X546347Y398183D01*
Y396183D01*
X545347Y395184D01*
X542348D01*
X544347D02*
X546347Y393184D01*
X548346D02*
X550345D01*
X549346D01*
Y399182D01*
X548346Y398183D01*
X553344D02*
X554344Y399182D01*
X556344D01*
X557343Y398183D01*
Y394184D01*
X556344Y393184D01*
X554344D01*
X553344Y394184D01*
Y398183D01*
X423865Y396576D02*
X417867D01*
Y399575D01*
X418867Y400575D01*
X420866D01*
X421866Y399575D01*
Y396576D01*
Y398576D02*
X423865Y400575D01*
X422865Y402574D02*
X423865Y403574D01*
Y405574D01*
X422865Y406573D01*
X418867D01*
X417867Y405574D01*
Y403574D01*
X418867Y402574D01*
X419866D01*
X420866Y403574D01*
Y406573D01*
X413629Y396576D02*
X407631D01*
Y399575D01*
X408631Y400575D01*
X410630D01*
X411630Y399575D01*
Y396576D01*
Y398576D02*
X413629Y400575D01*
X408631Y402574D02*
X407631Y403574D01*
Y405574D01*
X408631Y406573D01*
X409630D01*
X410630Y405574D01*
X411630Y406573D01*
X412629D01*
X413629Y405574D01*
Y403574D01*
X412629Y402574D01*
X411630D01*
X410630Y403574D01*
X409630Y402574D01*
X408631D01*
X410630Y403574D02*
Y405574D01*
X385553Y411174D02*
Y417172D01*
X388552D01*
X389551Y416173D01*
Y414173D01*
X388552Y413173D01*
X385553D01*
X387552D02*
X389551Y411174D01*
X391551Y417172D02*
X395550D01*
Y416173D01*
X391551Y412174D01*
Y411174D01*
X540277Y404875D02*
Y410873D01*
X543276D01*
X544276Y409873D01*
Y407874D01*
X543276Y406874D01*
X540277D01*
X542277D02*
X544276Y404875D01*
X550274Y410873D02*
X548275Y409873D01*
X546275Y407874D01*
Y405875D01*
X547275Y404875D01*
X549274D01*
X550274Y405875D01*
Y406874D01*
X549274Y407874D01*
X546275D01*
X493944Y548151D02*
X487946D01*
Y551150D01*
X488945Y552150D01*
X490945D01*
X491945Y551150D01*
Y548151D01*
Y550151D02*
X493944Y552150D01*
X487946Y558148D02*
Y554149D01*
X490945D01*
X489945Y556149D01*
Y557148D01*
X490945Y558148D01*
X492944D01*
X493944Y557148D01*
Y555149D01*
X492944Y554149D01*
X465204Y549332D02*
X459206D01*
Y552331D01*
X460205Y553331D01*
X462205D01*
X463204Y552331D01*
Y549332D01*
Y551332D02*
X465204Y553331D01*
Y558329D02*
X459206D01*
X462205Y555330D01*
Y559329D01*
X630952Y381222D02*
X624954D01*
Y384221D01*
X625953Y385221D01*
X627953D01*
X628952Y384221D01*
Y381222D01*
Y383221D02*
X630952Y385221D01*
X625953Y387220D02*
X624954Y388220D01*
Y390219D01*
X625953Y391219D01*
X626953D01*
X627953Y390219D01*
Y389219D01*
Y390219D01*
X628952Y391219D01*
X629952D01*
X630952Y390219D01*
Y388220D01*
X629952Y387220D01*
X633314Y574923D02*
X627316D01*
Y577922D01*
X628316Y578922D01*
X630315D01*
X631315Y577922D01*
Y574923D01*
Y576922D02*
X633314Y578922D01*
Y584920D02*
Y580921D01*
X629315Y584920D01*
X628316D01*
X627316Y583920D01*
Y581921D01*
X628316Y580921D01*
X359599Y594944D02*
X365598D01*
Y591945D01*
X364598Y590945D01*
X362598D01*
X361599Y591945D01*
Y594944D01*
Y592944D02*
X359599Y590945D01*
Y588945D02*
Y586946D01*
Y587946D01*
X365598D01*
X364598Y588945D01*
X570592Y411568D02*
Y417566D01*
X573591D01*
X574591Y416566D01*
Y414567D01*
X573591Y413567D01*
X570592D01*
X579589Y411568D02*
Y417566D01*
X576590Y414567D01*
X580589D01*
X537521Y622591D02*
Y628590D01*
X540520D01*
X541520Y627590D01*
Y625591D01*
X540520Y624591D01*
X537521D01*
X547518Y622591D02*
X543519D01*
X547518Y626590D01*
Y627590D01*
X546518Y628590D01*
X544519D01*
X543519Y627590D01*
X477104Y622985D02*
Y628983D01*
X480103D01*
X481102Y627984D01*
Y625984D01*
X480103Y624985D01*
X477104D01*
X483102Y622985D02*
X485101D01*
X484101D01*
Y628983D01*
X483102Y627984D01*
X379315Y393550D02*
X377316D01*
X378316D01*
Y388552D01*
X377316Y387552D01*
X376316D01*
X375317Y388552D01*
X385313Y387552D02*
X381315D01*
X385313Y391551D01*
Y392550D01*
X384314Y393550D01*
X382314D01*
X381315Y392550D01*
X490127Y380359D02*
X489127Y379360D01*
Y377360D01*
X490127Y376361D01*
X494125D01*
X495125Y377360D01*
Y379360D01*
X494125Y380359D01*
X495125Y382359D02*
Y384358D01*
Y383358D01*
X489127D01*
X490127Y382359D01*
X489127Y391356D02*
Y387357D01*
X492126D01*
X491126Y389356D01*
Y390356D01*
X492126Y391356D01*
X494125D01*
X495125Y390356D01*
Y388357D01*
X494125Y387357D01*
X517292Y380359D02*
X516292Y379360D01*
Y377360D01*
X517292Y376361D01*
X521291D01*
X522290Y377360D01*
Y379360D01*
X521291Y380359D01*
X522290Y382359D02*
Y384358D01*
Y383358D01*
X516292D01*
X517292Y382359D01*
X522290Y390356D02*
X516292D01*
X519291Y387357D01*
Y391356D01*
X458237Y346107D02*
X457237Y345108D01*
Y343108D01*
X458237Y342109D01*
X462236D01*
X463235Y343108D01*
Y345108D01*
X462236Y346107D01*
X463235Y348107D02*
Y350106D01*
Y349107D01*
X457237D01*
X458237Y348107D01*
Y353105D02*
X457237Y354105D01*
Y356104D01*
X458237Y357104D01*
X459236D01*
X460236Y356104D01*
Y355104D01*
Y356104D01*
X461236Y357104D01*
X462236D01*
X463235Y356104D01*
Y354105D01*
X462236Y353105D01*
X371304Y337826D02*
X370305Y338826D01*
X368305D01*
X367306Y337826D01*
Y333827D01*
X368305Y332828D01*
X370305D01*
X371304Y333827D01*
X373304Y332828D02*
X375303D01*
X374303D01*
Y338826D01*
X373304Y337826D01*
X382301Y332828D02*
X378302D01*
X382301Y336826D01*
Y337826D01*
X381301Y338826D01*
X379302D01*
X378302Y337826D01*
X580572Y392944D02*
X579572Y393944D01*
X577573D01*
X576573Y392944D01*
Y388946D01*
X577573Y387946D01*
X579572D01*
X580572Y388946D01*
X582571Y387946D02*
X584570D01*
X583571D01*
Y393944D01*
X582571Y392944D01*
X587569Y387946D02*
X589569D01*
X588569D01*
Y393944D01*
X587569Y392944D01*
X370911Y512629D02*
X369911Y513629D01*
X367912D01*
X366912Y512629D01*
Y508631D01*
X367912Y507631D01*
X369911D01*
X370911Y508631D01*
X372910Y507631D02*
X374909D01*
X373910D01*
Y513629D01*
X372910Y512629D01*
X377908D02*
X378908Y513629D01*
X380907D01*
X381907Y512629D01*
Y508631D01*
X380907Y507631D01*
X378908D01*
X377908Y508631D01*
Y512629D01*
X393095Y553968D02*
X392095Y554967D01*
X390096D01*
X389096Y553968D01*
Y549969D01*
X390096Y548970D01*
X392095D01*
X393095Y549969D01*
X395094D02*
X396094Y548970D01*
X398093D01*
X399093Y549969D01*
Y553968D01*
X398093Y554967D01*
X396094D01*
X395094Y553968D01*
Y552968D01*
X396094Y551968D01*
X399093D01*
X450575Y555149D02*
X449576Y556149D01*
X447576D01*
X446576Y555149D01*
Y551150D01*
X447576Y550151D01*
X449576D01*
X450575Y551150D01*
X452574Y555149D02*
X453574Y556149D01*
X455574D01*
X456573Y555149D01*
Y554149D01*
X455574Y553150D01*
X456573Y552150D01*
Y551150D01*
X455574Y550151D01*
X453574D01*
X452574Y551150D01*
Y552150D01*
X453574Y553150D01*
X452574Y554149D01*
Y555149D01*
X453574Y553150D02*
X455574D01*
X441520Y526409D02*
X440520Y527409D01*
X438521D01*
X437521Y526409D01*
Y522410D01*
X438521Y521410D01*
X440520D01*
X441520Y522410D01*
X443519Y527409D02*
X447518D01*
Y526409D01*
X443519Y522410D01*
Y521410D01*
X365779Y624228D02*
X366779Y625228D01*
Y627227D01*
X365779Y628227D01*
X361780D01*
X360781Y627227D01*
Y625228D01*
X361780Y624228D01*
X366779Y618230D02*
X365779Y620229D01*
X363779Y622229D01*
X361780D01*
X360781Y621229D01*
Y619230D01*
X361780Y618230D01*
X362780D01*
X363779Y619230D01*
Y622229D01*
X423016Y485858D02*
X422016Y486857D01*
X420017D01*
X419017Y485858D01*
Y481859D01*
X420017Y480859D01*
X422016D01*
X423016Y481859D01*
X429014Y486857D02*
X425015D01*
Y483858D01*
X427015Y484858D01*
X428015D01*
X429014Y483858D01*
Y481859D01*
X428015Y480859D01*
X426015D01*
X425015Y481859D01*
X470654Y452787D02*
X469654Y453786D01*
X467655D01*
X466655Y452787D01*
Y448788D01*
X467655Y447788D01*
X469654D01*
X470654Y448788D01*
X475652Y447788D02*
Y453786D01*
X472653Y450787D01*
X476652D01*
X508449Y475621D02*
X507449Y476621D01*
X505450D01*
X504450Y475621D01*
Y471623D01*
X505450Y470623D01*
X507449D01*
X508449Y471623D01*
X510449Y475621D02*
X511448Y476621D01*
X513448D01*
X514447Y475621D01*
Y474622D01*
X513448Y473622D01*
X512448D01*
X513448D01*
X514447Y472622D01*
Y471623D01*
X513448Y470623D01*
X511448D01*
X510449Y471623D01*
X482859Y500424D02*
X481859Y501424D01*
X479860D01*
X478860Y500424D01*
Y496426D01*
X479860Y495426D01*
X481859D01*
X482859Y496426D01*
X488857Y495426D02*
X484858D01*
X488857Y499425D01*
Y500424D01*
X487857Y501424D01*
X485858D01*
X484858Y500424D01*
X490945Y508692D02*
X489945Y509692D01*
X487946D01*
X486946Y508692D01*
Y504694D01*
X487946Y503694D01*
X489945D01*
X490945Y504694D01*
X492944Y503694D02*
X494944D01*
X493944D01*
Y509692D01*
X492944Y508692D01*
X588386Y270276D02*
Y315551D01*
X559252Y270276D02*
X588386D01*
X559252D02*
Y315551D01*
X588386D01*
X378150Y48622D02*
X417126D01*
Y3347D02*
Y48622D01*
X378150Y3347D02*
X417126D01*
X378150D02*
Y48622D01*
X433268D02*
X472244D01*
Y3347D02*
Y48622D01*
X433268Y3347D02*
X472244D01*
X433268D02*
Y48622D01*
X492520D02*
X531496D01*
Y3347D02*
Y48622D01*
X492520Y3347D02*
X531496D01*
X492520D02*
Y48622D01*
X507874Y315354D02*
X549685D01*
Y290945D02*
Y315354D01*
X507874Y290945D02*
Y315354D01*
Y290945D02*
X549685D01*
X368150Y270276D02*
X407126D01*
X368150D02*
Y315551D01*
X407126D01*
Y270276D02*
Y315551D01*
X539055Y3543D02*
X580866D01*
X539055D02*
Y27953D01*
X580866Y3543D02*
Y27953D01*
X539055D02*
X580866D01*
X417323Y269685D02*
X456299D01*
X417323D02*
Y314961D01*
X456299D01*
Y269685D02*
Y314961D01*
X462441Y315354D02*
X504252D01*
Y290945D02*
Y315354D01*
X462441Y290945D02*
Y315354D01*
Y290945D02*
X504252D01*
X331707Y182071D02*
Y180103D01*
Y181087D01*
X325803D01*
Y182071D01*
Y180103D01*
X331707Y174199D02*
Y176167D01*
X330723Y177151D01*
X326787D01*
X325803Y176167D01*
Y174199D01*
X326787Y173215D01*
X330723D01*
X331707Y174199D01*
Y165344D02*
X325803D01*
Y162392D01*
X326787Y161408D01*
X327771D01*
X328755Y162392D01*
Y165344D01*
Y162392D01*
X329739Y161408D01*
X330723D01*
X331707Y162392D01*
Y165344D01*
X325803Y158457D02*
Y156489D01*
X326787Y155505D01*
X328755D01*
X329739Y156489D01*
Y158457D01*
X328755Y159440D01*
X326787D01*
X325803Y158457D01*
X329739Y152553D02*
Y150585D01*
X328755Y149601D01*
X325803D01*
Y152553D01*
X326787Y153537D01*
X327771Y152553D01*
Y149601D01*
X329739Y147633D02*
X325803D01*
X327771D01*
X328755Y146649D01*
X329739Y145665D01*
Y144681D01*
X331707Y137794D02*
X325803D01*
Y140746D01*
X326787Y141730D01*
X328755D01*
X329739Y140746D01*
Y137794D01*
X341549Y223409D02*
X337614Y221442D01*
X341549Y219474D01*
X337614Y217506D02*
X338597D01*
Y216522D01*
X337614D01*
Y217506D01*
Y212586D02*
Y210618D01*
Y211602D01*
X343517D01*
X342533Y212586D01*
X337614Y207666D02*
X338597D01*
Y206683D01*
X337614D01*
Y207666D01*
X342533Y202747D02*
X343517Y201763D01*
Y199795D01*
X342533Y198811D01*
X338597D01*
X337614Y199795D01*
Y201763D01*
X338597Y202747D01*
X342533D01*
X340565Y190940D02*
Y187004D01*
X337614Y179132D02*
Y177165D01*
Y178148D01*
X343517D01*
X342533Y179132D01*
X343517Y170277D02*
Y174213D01*
X340565D01*
X341549Y172245D01*
Y171261D01*
X340565Y170277D01*
X338597D01*
X337614Y171261D01*
Y173229D01*
X338597Y174213D01*
X337614Y168309D02*
X338597D01*
Y167325D01*
X337614D01*
Y168309D01*
X342533Y163390D02*
X343517Y162406D01*
Y160438D01*
X342533Y159454D01*
X338597D01*
X337614Y160438D01*
Y162406D01*
X338597Y163390D01*
X342533D01*
X337614Y157486D02*
Y155518D01*
Y156502D01*
X343517D01*
X342533Y157486D01*
X337614Y152566D02*
X338597D01*
Y151582D01*
X337614D01*
Y152566D01*
Y143711D02*
Y147647D01*
X341549Y143711D01*
X342533D01*
X343517Y144695D01*
Y146663D01*
X342533Y147647D01*
Y141743D02*
X343517Y140759D01*
Y138791D01*
X342533Y137807D01*
X338597D01*
X337614Y138791D01*
Y140759D01*
X338597Y141743D01*
X342533D01*
X340565Y129936D02*
Y126000D01*
X343517Y118129D02*
Y116161D01*
Y117145D01*
X337614D01*
Y118129D01*
Y116161D01*
Y113209D02*
X341549D01*
Y110257D01*
X340565Y109273D01*
X337614D01*
X335646Y105337D02*
Y104353D01*
X336630Y103370D01*
X341549D01*
Y106321D01*
X340565Y107305D01*
X338597D01*
X337614Y106321D01*
Y103370D01*
Y98450D02*
Y100418D01*
X338597Y101402D01*
X340565D01*
X341549Y100418D01*
Y98450D01*
X340565Y97466D01*
X339581D01*
Y101402D01*
X576429Y253624D02*
X575773Y252968D01*
Y251656D01*
X576429Y251000D01*
X579053D01*
X579709Y251656D01*
Y252968D01*
X579053Y253624D01*
X579709Y254936D02*
X577085D01*
X575773Y256248D01*
X577085Y257560D01*
X579709D01*
X577741D01*
Y254936D01*
X579709Y258872D02*
X575773D01*
X579709Y261495D01*
X575773D01*
Y262807D02*
X579709D01*
Y265431D01*
X566586Y253624D02*
X565930Y252968D01*
Y251656D01*
X566586Y251000D01*
X569210D01*
X569866Y251656D01*
Y252968D01*
X569210Y253624D01*
X569866Y254936D02*
X567242D01*
X565930Y256248D01*
X567242Y257560D01*
X569866D01*
X567898D01*
Y254936D01*
X569866Y258872D02*
X565930D01*
X569866Y261495D01*
X565930D01*
Y262807D02*
X569866D01*
X567898D01*
Y265431D01*
X565930D01*
X569866D01*
X513437Y275277D02*
X512781Y274621D01*
Y273309D01*
X513437Y272654D01*
X516060D01*
X516716Y273309D01*
Y274621D01*
X516060Y275277D01*
X514749D01*
Y273965D01*
X516716Y276589D02*
X512781D01*
X516716Y279213D01*
X512781D01*
Y280525D02*
X516716D01*
Y282493D01*
X516060Y283149D01*
X513437D01*
X512781Y282493D01*
Y280525D01*
X523279Y275277D02*
X522623Y274621D01*
Y273309D01*
X523279Y272654D01*
X525903D01*
X526559Y273309D01*
Y274621D01*
X525903Y275277D01*
X524591D01*
Y273965D01*
X526559Y276589D02*
X522623D01*
X526559Y279213D01*
X522623D01*
Y280525D02*
X526559D01*
Y282493D01*
X525903Y283149D01*
X523279D01*
X522623Y282493D01*
Y280525D01*
X533122Y272654D02*
X532466Y273309D01*
Y274621D01*
X533122Y275277D01*
X533778D01*
X534434Y274621D01*
Y273965D01*
Y274621D01*
X535090Y275277D01*
X535746D01*
X536402Y274621D01*
Y273309D01*
X535746Y272654D01*
X536402Y276589D02*
X535746D01*
Y277245D01*
X536402D01*
Y276589D01*
X533122Y279869D02*
X532466Y280525D01*
Y281837D01*
X533122Y282493D01*
X533778D01*
X534434Y281837D01*
Y281181D01*
Y281837D01*
X535090Y282493D01*
X535746D01*
X536402Y281837D01*
Y280525D01*
X535746Y279869D01*
X532466Y283805D02*
X535090D01*
X536402Y285117D01*
X535090Y286429D01*
X532466D01*
X542964Y272654D02*
X542308Y273309D01*
Y274621D01*
X542964Y275277D01*
X543620D01*
X544276Y274621D01*
Y273965D01*
Y274621D01*
X544932Y275277D01*
X545588D01*
X546244Y274621D01*
Y273309D01*
X545588Y272654D01*
X546244Y276589D02*
X545588D01*
Y277245D01*
X546244D01*
Y276589D01*
X542964Y279869D02*
X542308Y280525D01*
Y281837D01*
X542964Y282493D01*
X543620D01*
X544276Y281837D01*
Y281181D01*
Y281837D01*
X544932Y282493D01*
X545588D01*
X546244Y281837D01*
Y280525D01*
X545588Y279869D01*
X542308Y283805D02*
X544932D01*
X546244Y285117D01*
X544932Y286429D01*
X542308D01*
X500969Y279214D02*
Y276590D01*
X498345Y279214D01*
X497689D01*
X497033Y278558D01*
Y277246D01*
X497689Y276590D01*
X500969Y282494D02*
X497033D01*
X499001Y280526D01*
Y283150D01*
X497033Y284462D02*
X499657D01*
X500969Y285774D01*
X499657Y287086D01*
X497033D01*
X491126Y279214D02*
Y276590D01*
X488502Y279214D01*
X487846D01*
X487190Y278558D01*
Y277246D01*
X487846Y276590D01*
X491126Y282494D02*
X487190D01*
X489158Y280526D01*
Y283150D01*
X487190Y284462D02*
X489814D01*
X491126Y285774D01*
X489814Y287086D01*
X487190D01*
X478004Y279214D02*
X477348Y278558D01*
Y277246D01*
X478004Y276590D01*
X480627D01*
X481283Y277246D01*
Y278558D01*
X480627Y279214D01*
X479316D01*
Y277902D01*
X481283Y280526D02*
X477348D01*
X481283Y283150D01*
X477348D01*
Y284462D02*
X481283D01*
Y286430D01*
X480627Y287086D01*
X478004D01*
X477348Y286430D01*
Y284462D01*
X468161Y279214D02*
X467505Y278558D01*
Y277246D01*
X468161Y276590D01*
X470785D01*
X471441Y277246D01*
Y278558D01*
X470785Y279214D01*
X469473D01*
Y277902D01*
X471441Y280526D02*
X467505D01*
X471441Y283150D01*
X467505D01*
Y284462D02*
X471441D01*
Y286430D01*
X470785Y287086D01*
X468161D01*
X467505Y286430D01*
Y284462D01*
X437976Y259529D02*
Y256906D01*
X435353Y259529D01*
X434697D01*
X434041Y258873D01*
Y257561D01*
X434697Y256906D01*
X437976Y262809D02*
X434041D01*
X436009Y260841D01*
Y263465D01*
X434041Y264777D02*
X436664D01*
X437976Y266089D01*
X436664Y267401D01*
X434041D01*
X445290Y259529D02*
X444634Y258873D01*
Y257561D01*
X445290Y256906D01*
X445946D01*
X446602Y257561D01*
Y258873D01*
X447258Y259529D01*
X447914D01*
X448570Y258873D01*
Y257561D01*
X447914Y256906D01*
X444634Y260841D02*
Y262153D01*
Y261497D01*
X448570D01*
Y260841D01*
Y262153D01*
X445290Y266745D02*
X444634Y266089D01*
Y264777D01*
X445290Y264121D01*
X447914D01*
X448570Y264777D01*
Y266089D01*
X447914Y266745D01*
X446602D01*
Y265433D01*
X455693Y256906D02*
Y258217D01*
Y257561D01*
X451757D01*
X452413Y256906D01*
Y260185D02*
X451757Y260841D01*
Y262153D01*
X452413Y262809D01*
X455037D01*
X455693Y262153D01*
Y260841D01*
X455037Y260185D01*
X452413D01*
X451757Y264121D02*
X454381D01*
X455693Y265433D01*
X454381Y266745D01*
X451757D01*
X424854Y259529D02*
X424198Y258873D01*
Y257561D01*
X424854Y256906D01*
X427478D01*
X428134Y257561D01*
Y258873D01*
X427478Y259529D01*
X426166D01*
Y258217D01*
X428134Y260841D02*
X424198D01*
X428134Y263465D01*
X424198D01*
Y264777D02*
X428134D01*
Y266745D01*
X427478Y267401D01*
X424854D01*
X424198Y266745D01*
Y264777D01*
X375641Y259529D02*
X374986Y258873D01*
Y257561D01*
X375641Y256906D01*
X378265D01*
X378921Y257561D01*
Y258873D01*
X378265Y259529D01*
X376953D01*
Y258217D01*
X378921Y260841D02*
X374986D01*
X378921Y263465D01*
X374986D01*
Y264777D02*
X378921D01*
Y266745D01*
X378265Y267401D01*
X375641D01*
X374986Y266745D01*
Y264777D01*
X396078Y259529D02*
X395422Y258873D01*
Y257561D01*
X396078Y256906D01*
X396734D01*
X397390Y257561D01*
Y258873D01*
X398045Y259529D01*
X398702D01*
X399357Y258873D01*
Y257561D01*
X398702Y256906D01*
X395422Y260841D02*
Y262153D01*
Y261497D01*
X399357D01*
Y260841D01*
Y262153D01*
X396078Y266745D02*
X395422Y266089D01*
Y264777D01*
X396078Y264121D01*
X398702D01*
X399357Y264777D01*
Y266089D01*
X398702Y266745D01*
X397390D01*
Y265433D01*
X406480Y256906D02*
Y258217D01*
Y257561D01*
X402545D01*
X403200Y256906D01*
Y260185D02*
X402545Y260841D01*
Y262153D01*
X403200Y262809D01*
X405824D01*
X406480Y262153D01*
Y260841D01*
X405824Y260185D01*
X403200D01*
X402545Y264121D02*
X405168D01*
X406480Y265433D01*
X405168Y266745D01*
X402545D01*
X388764Y259529D02*
Y256906D01*
X386140Y259529D01*
X385484D01*
X384828Y258873D01*
Y257561D01*
X385484Y256906D01*
X388764Y262809D02*
X384828D01*
X386796Y260841D01*
Y263465D01*
X384828Y264777D02*
X387452D01*
X388764Y266089D01*
X387452Y267401D01*
X384828D01*
X544277Y35120D02*
Y32496D01*
X546245D01*
X545589Y33808D01*
Y34464D01*
X546245Y35120D01*
X547557D01*
X548213Y34464D01*
Y33152D01*
X547557Y32496D01*
X544277Y36432D02*
X546901D01*
X548213Y37744D01*
X546901Y39056D01*
X544277D01*
X554119Y35120D02*
Y32496D01*
X556087D01*
X555431Y33808D01*
Y34464D01*
X556087Y35120D01*
X557399D01*
X558055Y34464D01*
Y33152D01*
X557399Y32496D01*
X554119Y36432D02*
X556743D01*
X558055Y37744D01*
X556743Y39056D01*
X554119D01*
X564618Y35120D02*
X563962Y34464D01*
Y33152D01*
X564618Y32496D01*
X567242D01*
X567898Y33152D01*
Y34464D01*
X567242Y35120D01*
X565930D01*
Y33808D01*
X567898Y36432D02*
X563962D01*
X567898Y39056D01*
X563962D01*
Y40367D02*
X567898D01*
Y42335D01*
X567242Y42991D01*
X564618D01*
X563962Y42335D01*
Y40367D01*
X574460Y35120D02*
X573804Y34464D01*
Y33152D01*
X574460Y32496D01*
X577084D01*
X577740Y33152D01*
Y34464D01*
X577084Y35120D01*
X575772D01*
Y33808D01*
X577740Y36432D02*
X573804D01*
X577740Y39056D01*
X573804D01*
Y40367D02*
X577740D01*
Y42335D01*
X577084Y42991D01*
X574460D01*
X573804Y42335D01*
Y40367D01*
X480422Y12044D02*
X479110Y10732D01*
Y8108D01*
X480422Y6796D01*
X485670D01*
X486982Y8108D01*
Y10732D01*
X485670Y12044D01*
X483046D01*
Y9420D01*
X486982Y14668D02*
X479110D01*
Y18604D01*
X480422Y19916D01*
X483046D01*
X484358Y18604D01*
Y14668D01*
X479110Y22539D02*
Y25163D01*
Y23851D01*
X486982D01*
Y22539D01*
Y25163D01*
X479110Y33035D02*
Y30411D01*
X480422Y29099D01*
X485670D01*
X486982Y30411D01*
Y33035D01*
X485670Y34347D01*
X480422D01*
X479110Y33035D01*
X499657Y58742D02*
X499001Y58086D01*
Y56774D01*
X499657Y56118D01*
X502281D01*
X502937Y56774D01*
Y58086D01*
X502281Y58742D01*
X500969D01*
Y57430D01*
X502937Y60054D02*
X499001D01*
Y62022D01*
X499657Y62678D01*
X500969D01*
X501625Y62022D01*
Y60054D01*
X499001Y63990D02*
Y65302D01*
Y64645D01*
X502937D01*
Y63990D01*
Y65302D01*
X499001Y69237D02*
Y67925D01*
X499657Y67269D01*
X502281D01*
X502937Y67925D01*
Y69237D01*
X502281Y69893D01*
X499657D01*
X499001Y69237D01*
X508844Y56118D02*
X511468D01*
X512780Y57430D01*
X511468Y58742D01*
X508844D01*
X509500Y62678D02*
X508844Y62022D01*
Y60710D01*
X509500Y60054D01*
X512123D01*
X512780Y60710D01*
Y62022D01*
X512123Y62678D01*
X509500Y66613D02*
X508844Y65957D01*
Y64645D01*
X509500Y63990D01*
X512123D01*
X512780Y64645D01*
Y65957D01*
X512123Y66613D01*
X521311Y58742D02*
X520655Y58086D01*
Y56774D01*
X521311Y56118D01*
X523935D01*
X524590Y56774D01*
Y58086D01*
X523935Y58742D01*
X522623D01*
Y57430D01*
X524590Y60054D02*
X520655D01*
X524590Y62678D01*
X520655D01*
Y63990D02*
X524590D01*
Y65957D01*
X523935Y66613D01*
X521311D01*
X520655Y65957D01*
Y63990D01*
X440602Y58742D02*
X439946Y58086D01*
Y56774D01*
X440602Y56118D01*
X441258D01*
X441914Y56774D01*
Y58086D01*
X442570Y58742D01*
X443226D01*
X443882Y58086D01*
Y56774D01*
X443226Y56118D01*
X439946Y60054D02*
Y61366D01*
Y60710D01*
X443882D01*
Y60054D01*
Y61366D01*
X440602Y65957D02*
X439946Y65302D01*
Y63990D01*
X440602Y63334D01*
X443226D01*
X443882Y63990D01*
Y65302D01*
X443226Y65957D01*
X441914D01*
Y64645D01*
X443882Y67269D02*
X439946D01*
X443882Y69893D01*
X439946D01*
X443882Y71205D02*
X441258D01*
X439946Y72517D01*
X441258Y73829D01*
X443882D01*
X441914D01*
Y71205D01*
X439946Y75141D02*
X443882D01*
Y77765D01*
X449789Y58742D02*
Y56118D01*
X451756D01*
X451101Y57430D01*
Y58086D01*
X451756Y58742D01*
X453068D01*
X453724Y58086D01*
Y56774D01*
X453068Y56118D01*
X449789Y60054D02*
X452413D01*
X453724Y61366D01*
X452413Y62678D01*
X449789D01*
X462256Y58742D02*
X461600Y58086D01*
Y56774D01*
X462256Y56118D01*
X464879D01*
X465535Y56774D01*
Y58086D01*
X464879Y58742D01*
X463567D01*
Y57430D01*
X465535Y60054D02*
X461600D01*
X465535Y62678D01*
X461600D01*
Y63990D02*
X465535D01*
Y65957D01*
X464879Y66613D01*
X462256D01*
X461600Y65957D01*
Y63990D01*
X407137Y58742D02*
X406482Y58086D01*
Y56774D01*
X407137Y56118D01*
X409761D01*
X410417Y56774D01*
Y58086D01*
X409761Y58742D01*
X408449D01*
Y57430D01*
X410417Y60054D02*
X406482D01*
X410417Y62678D01*
X406482D01*
Y63990D02*
X410417D01*
Y65957D01*
X409761Y66613D01*
X407137D01*
X406482Y65957D01*
Y63990D01*
X394671Y58742D02*
Y56118D01*
X396638D01*
X395983Y57430D01*
Y58086D01*
X396638Y58742D01*
X397950D01*
X398606Y58086D01*
Y56774D01*
X397950Y56118D01*
X394671Y60054D02*
X397294D01*
X398606Y61366D01*
X397294Y62678D01*
X394671D01*
X385484Y58742D02*
X384828Y58086D01*
Y56774D01*
X385484Y56118D01*
X386140D01*
X386796Y56774D01*
Y58086D01*
X387452Y58742D01*
X388108D01*
X388764Y58086D01*
Y56774D01*
X388108Y56118D01*
X384828Y60054D02*
Y61366D01*
Y60710D01*
X388764D01*
Y60054D01*
Y61366D01*
X385484Y65957D02*
X384828Y65302D01*
Y63990D01*
X385484Y63334D01*
X388108D01*
X388764Y63990D01*
Y65302D01*
X388108Y65957D01*
X386796D01*
Y64645D01*
X388764Y67269D02*
X384828D01*
X388764Y69893D01*
X384828D01*
X388764Y71205D02*
X386140D01*
X384828Y72517D01*
X386140Y73829D01*
X388764D01*
X386796D01*
Y71205D01*
X384828Y75141D02*
X388764D01*
Y77765D01*
X423543Y12153D02*
X422231Y10841D01*
Y8217D01*
X423543Y6905D01*
X424855D01*
X426167Y8217D01*
Y10841D01*
X427479Y12153D01*
X428790D01*
X430102Y10841D01*
Y8217D01*
X428790Y6905D01*
X422231Y14777D02*
X427479D01*
X430102Y17401D01*
X427479Y20025D01*
X422231D01*
Y26584D02*
Y23960D01*
X423543Y22648D01*
X428790D01*
X430102Y23960D01*
Y26584D01*
X428790Y27896D01*
X423543D01*
X422231Y26584D01*
X430102Y30520D02*
Y33144D01*
Y31832D01*
X422231D01*
X423543Y30520D01*
X368425Y12153D02*
X367113Y10841D01*
Y8217D01*
X368425Y6905D01*
X369737D01*
X371048Y8217D01*
Y10841D01*
X372360Y12153D01*
X373672D01*
X374984Y10841D01*
Y8217D01*
X373672Y6905D01*
X367113Y14777D02*
X372360D01*
X374984Y17401D01*
X372360Y20025D01*
X367113D01*
Y26584D02*
Y23960D01*
X368425Y22648D01*
X373672D01*
X374984Y23960D01*
Y26584D01*
X373672Y27896D01*
X368425D01*
X367113Y26584D01*
X374984Y35768D02*
Y30520D01*
X369737Y35768D01*
X368425D01*
X367113Y34456D01*
Y31832D01*
X368425Y30520D01*
X467566Y136734D02*
X461568D01*
Y139733D01*
X462568Y140733D01*
X464567D01*
X465567Y139733D01*
Y136734D01*
Y138733D02*
X467566Y140733D01*
X462568Y142732D02*
X461568Y143732D01*
Y145731D01*
X462568Y146731D01*
X463567D01*
X464567Y145731D01*
X465567Y146731D01*
X466566D01*
X467566Y145731D01*
Y143732D01*
X466566Y142732D01*
X465567D01*
X464567Y143732D01*
X463567Y142732D01*
X462568D01*
X464567Y143732D02*
Y145731D01*
X467566Y117049D02*
X461568D01*
Y120048D01*
X462568Y121048D01*
X464567D01*
X465567Y120048D01*
Y117049D01*
Y119048D02*
X467566Y121048D01*
X461568Y123047D02*
Y127046D01*
X462568D01*
X466566Y123047D01*
X467566D01*
X534495Y93427D02*
X528497D01*
Y96426D01*
X529497Y97426D01*
X531496D01*
X532496Y96426D01*
Y93427D01*
Y95426D02*
X534495Y97426D01*
X528497Y103424D02*
X529497Y101424D01*
X531496Y99425D01*
X533495D01*
X534495Y100425D01*
Y102424D01*
X533495Y103424D01*
X532496D01*
X531496Y102424D01*
Y99425D01*
X495125Y93427D02*
X489127D01*
Y96426D01*
X490127Y97426D01*
X492126D01*
X493126Y96426D01*
Y93427D01*
Y95426D02*
X495125Y97426D01*
X489127Y103424D02*
Y99425D01*
X492126D01*
X491126Y101424D01*
Y102424D01*
X492126Y103424D01*
X494125D01*
X495125Y102424D01*
Y100425D01*
X494125Y99425D01*
X449849Y227285D02*
X443851D01*
Y230284D01*
X444851Y231284D01*
X446850D01*
X447850Y230284D01*
Y227285D01*
Y229284D02*
X449849Y231284D01*
Y236282D02*
X443851D01*
X446850Y233283D01*
Y237282D01*
X430164Y227285D02*
X424166D01*
Y230284D01*
X425166Y231284D01*
X427165D01*
X428165Y230284D01*
Y227285D01*
Y229284D02*
X430164Y231284D01*
X425166Y233283D02*
X424166Y234283D01*
Y236282D01*
X425166Y237282D01*
X426166D01*
X427165Y236282D01*
Y235282D01*
Y236282D01*
X428165Y237282D01*
X429165D01*
X430164Y236282D01*
Y234283D01*
X429165Y233283D01*
X400637Y227285D02*
X394639D01*
Y230284D01*
X395638Y231284D01*
X397638D01*
X398638Y230284D01*
Y227285D01*
Y229284D02*
X400637Y231284D01*
Y237282D02*
Y233283D01*
X396638Y237282D01*
X395638D01*
X394639Y236282D01*
Y234283D01*
X395638Y233283D01*
X380952Y228285D02*
X374954D01*
Y231284D01*
X375953Y232283D01*
X377953D01*
X378952Y231284D01*
Y228285D01*
Y230284D02*
X380952Y232283D01*
Y234283D02*
Y236282D01*
Y235282D01*
X374954D01*
X375953Y234283D01*
X120079Y48228D02*
X125984D01*
X148622D02*
X154528D01*
X122835Y45669D02*
Y51181D01*
X106890Y-24705D02*
Y43012D01*
Y43012D02*
X167913D01*
X106890Y-24902D02*
X167913D01*
Y-24705D02*
Y43012D01*
X247441Y-24705D02*
Y43012D01*
X186417Y-24902D02*
X247441D01*
X186417Y43012D02*
X247441D01*
X186417Y-24705D02*
Y43012D01*
X202362Y45669D02*
Y51181D01*
X228150Y48228D02*
X234055D01*
X199606D02*
X205512D01*
X255000Y70394D02*
Y260394D01*
X195000Y70394D02*
X255000D01*
X195000D02*
Y260394D01*
X255000D01*
X148701Y66083D02*
Y136083D01*
X68701D02*
X148701D01*
X68701Y66083D02*
Y136083D01*
Y66083D02*
X148701D01*
X149362Y146575D02*
Y216575D01*
X79362D02*
X149362D01*
X79362Y146575D02*
Y216575D01*
Y146575D02*
X149362D01*
X139291Y290945D02*
X181102D01*
X139291D02*
Y315354D01*
X181102Y290945D02*
Y315354D01*
X139291D02*
X181102D01*
X61221Y335236D02*
X90354D01*
X61221Y289961D02*
Y335236D01*
Y289961D02*
X90354D01*
Y335236D01*
X100591D02*
X129724D01*
X100591Y289961D02*
Y335236D01*
Y289961D02*
X129724D01*
Y335236D01*
X192953D02*
X222087D01*
X192953Y289961D02*
Y335236D01*
Y289961D02*
X222087D01*
Y335236D01*
X230512D02*
X259646D01*
X230512Y289961D02*
Y335236D01*
Y289961D02*
X259646D01*
Y335236D01*
X7890Y193882D02*
X13793D01*
Y190930D01*
X12809Y189946D01*
X10842D01*
X9858Y190930D01*
Y193882D01*
X13793Y187978D02*
X7890D01*
Y185027D01*
X8874Y184043D01*
X12809D01*
X13793Y185027D01*
Y187978D01*
Y182075D02*
X7890D01*
Y179123D01*
X8874Y178139D01*
X9858D01*
X10842Y179123D01*
Y182075D01*
Y179123D01*
X11825Y178139D01*
X12809D01*
X13793Y179123D01*
Y182075D01*
Y170267D02*
X7890D01*
Y167316D01*
X8874Y166332D01*
X9858D01*
X10842Y167316D01*
Y170267D01*
Y167316D01*
X11825Y166332D01*
X12809D01*
X13793Y167316D01*
Y170267D01*
X7890Y163380D02*
Y161412D01*
X8874Y160428D01*
X10842D01*
X11825Y161412D01*
Y163380D01*
X10842Y164364D01*
X8874D01*
X7890Y163380D01*
X11825Y157476D02*
Y155508D01*
X10842Y154525D01*
X7890D01*
Y157476D01*
X8874Y158460D01*
X9858Y157476D01*
Y154525D01*
X11825Y152557D02*
X7890D01*
X9858D01*
X10842Y151573D01*
X11825Y150589D01*
Y149605D01*
X13793Y142717D02*
X7890D01*
Y145669D01*
X8874Y146653D01*
X10842D01*
X11825Y145669D01*
Y142717D01*
X23636Y227346D02*
X19700Y225379D01*
X23636Y223411D01*
X19700Y221443D02*
X20684D01*
Y220459D01*
X19700D01*
Y221443D01*
Y216523D02*
Y214555D01*
Y215539D01*
X25604D01*
X24620Y216523D01*
X19700Y211603D02*
X20684D01*
Y210620D01*
X19700D01*
Y211603D01*
X24620Y206684D02*
X25604Y205700D01*
Y203732D01*
X24620Y202748D01*
X20684D01*
X19700Y203732D01*
Y205700D01*
X20684Y206684D01*
X24620D01*
X22652Y194877D02*
Y190941D01*
X19700Y183070D02*
Y181102D01*
Y182086D01*
X25604D01*
X24620Y183070D01*
X25604Y174214D02*
Y178150D01*
X22652D01*
X23636Y176182D01*
Y175198D01*
X22652Y174214D01*
X20684D01*
X19700Y175198D01*
Y177166D01*
X20684Y178150D01*
X19700Y172246D02*
X20684D01*
Y171262D01*
X19700D01*
Y172246D01*
X24620Y167326D02*
X25604Y166343D01*
Y164375D01*
X24620Y163391D01*
X20684D01*
X19700Y164375D01*
Y166343D01*
X20684Y167326D01*
X24620D01*
X19700Y161423D02*
Y159455D01*
Y160439D01*
X25604D01*
X24620Y161423D01*
X19700Y156503D02*
X20684D01*
Y155519D01*
X19700D01*
Y156503D01*
Y147648D02*
Y151584D01*
X23636Y147648D01*
X24620D01*
X25604Y148632D01*
Y150600D01*
X24620Y151584D01*
Y145680D02*
X25604Y144696D01*
Y142728D01*
X24620Y141744D01*
X20684D01*
X19700Y142728D01*
Y144696D01*
X20684Y145680D01*
X24620D01*
X22652Y133873D02*
Y129937D01*
X25604Y122066D02*
Y120098D01*
Y121082D01*
X19700D01*
Y122066D01*
Y120098D01*
Y117146D02*
X23636D01*
Y114194D01*
X22652Y113210D01*
X19700D01*
X17732Y109274D02*
Y108291D01*
X18716Y107307D01*
X23636D01*
Y110258D01*
X22652Y111242D01*
X20684D01*
X19700Y110258D01*
Y107307D01*
Y102387D02*
Y104355D01*
X20684Y105339D01*
X22652D01*
X23636Y104355D01*
Y102387D01*
X22652Y101403D01*
X21668D01*
Y105339D01*
X262811Y165339D02*
X263795Y164355D01*
Y162387D01*
X264779Y161403D01*
X260842Y184041D02*
Y187976D01*
X264778Y184041D01*
X265762D01*
X266746Y185025D01*
Y186993D01*
X265762Y187976D01*
X260842Y179121D02*
X266746D01*
X263794Y182073D01*
Y178137D01*
X266746Y176169D02*
X262810D01*
X260842Y174201D01*
X262810Y172233D01*
X266746D01*
X260842Y154523D02*
Y158458D01*
X264778Y154523D01*
X265762D01*
X266746Y155507D01*
Y157475D01*
X265762Y158458D01*
X260842Y152555D02*
X264778D01*
X266746Y150587D01*
X264778Y148619D01*
X260842D01*
X263794D01*
Y152555D01*
X160447Y114159D02*
Y118095D01*
X157495D01*
X158479Y116127D01*
Y115143D01*
X157495Y114159D01*
X155527D01*
X154543Y115143D01*
Y117111D01*
X155527Y118095D01*
X160447Y112191D02*
X156511D01*
X154543Y110223D01*
X156511Y108255D01*
X160447D01*
Y96448D02*
Y100384D01*
X157495D01*
X158479Y98416D01*
Y97432D01*
X157495Y96448D01*
X155527D01*
X154543Y97432D01*
Y99400D01*
X155527Y100384D01*
X154543Y94480D02*
X158479D01*
X160447Y92512D01*
X158479Y90544D01*
X154543D01*
X157495D01*
Y94480D01*
X160447Y204709D02*
X161431Y203725D01*
Y201757D01*
X160447Y200773D01*
X159463D01*
X158479Y201757D01*
Y202741D01*
Y201757D01*
X157495Y200773D01*
X156511D01*
X155528Y201757D01*
Y203725D01*
X156511Y204709D01*
X155528Y198805D02*
X156511D01*
Y197821D01*
X155528D01*
Y198805D01*
X160447Y193885D02*
X161431Y192902D01*
Y190934D01*
X160447Y189950D01*
X159463D01*
X158479Y190934D01*
Y191918D01*
Y190934D01*
X157495Y189950D01*
X156511D01*
X155528Y190934D01*
Y192902D01*
X156511Y193885D01*
X161431Y187982D02*
X157495D01*
X155528Y186014D01*
X157495Y184046D01*
X161431D01*
X155528Y172239D02*
Y176175D01*
X159463Y172239D01*
X160447D01*
X161431Y173223D01*
Y175191D01*
X160447Y176175D01*
X155528Y170271D02*
X156511D01*
Y169287D01*
X155528D01*
Y170271D01*
X161431Y161416D02*
X160447Y163383D01*
X158479Y165351D01*
X156511D01*
X155528Y164367D01*
Y162399D01*
X156511Y161416D01*
X157495D01*
X158479Y162399D01*
Y165351D01*
X155528Y159448D02*
X159463D01*
X161431Y157480D01*
X159463Y155512D01*
X155528D01*
X158479D01*
Y159448D01*
X86630Y17308D02*
X87286Y17964D01*
X88598D01*
X89254Y17308D01*
Y16652D01*
X88598Y15996D01*
X87942D01*
X88598D01*
X89254Y15340D01*
Y14684D01*
X88598Y14028D01*
X87286D01*
X86630Y14684D01*
X90566Y14028D02*
Y14684D01*
X91222D01*
Y14028D01*
X90566D01*
X93845Y17308D02*
X94501Y17964D01*
X95813D01*
X96469Y17308D01*
Y16652D01*
X95813Y15996D01*
X95157D01*
X95813D01*
X96469Y15340D01*
Y14684D01*
X95813Y14028D01*
X94501D01*
X93845Y14684D01*
X97781Y17964D02*
Y15340D01*
X99093Y14028D01*
X100405Y15340D01*
Y17964D01*
X86630Y10841D02*
Y6905D01*
X89254D01*
X90566D02*
X91878D01*
X91222D01*
Y9529D01*
X90566D01*
X93845Y6905D02*
Y9529D01*
X95813D01*
X96469Y8873D01*
Y6905D01*
X99749D02*
X98437D01*
X97781Y7562D01*
Y8873D01*
X98437Y9529D01*
X99749D01*
X100405Y8873D01*
Y8217D01*
X97781D01*
X253624Y15996D02*
X251000D01*
Y14028D01*
X252312Y14684D01*
X252968D01*
X253624Y14028D01*
Y12716D01*
X252968Y12060D01*
X251656D01*
X251000Y12716D01*
X261495Y12060D02*
X260839Y12716D01*
X260183Y12060D01*
X259527D01*
X258872Y12716D01*
Y13372D01*
X259527Y14028D01*
X258872Y14684D01*
Y15340D01*
X259527Y15996D01*
X260183D01*
X260839Y15340D01*
Y14684D01*
X260183Y14028D01*
X260839Y13372D01*
Y12716D01*
X261495Y14028D02*
X260839Y13372D01*
X259527Y14028D02*
X260183D01*
X269367Y12060D02*
X266743D01*
X269367Y14684D01*
Y15340D01*
X268711Y15996D01*
X267399D01*
X266743Y15340D01*
X272647Y12060D02*
Y15996D01*
X270679Y14028D01*
X273303D01*
X274614Y15996D02*
Y13372D01*
X275926Y12060D01*
X277238Y13372D01*
Y15996D01*
X251000Y8873D02*
Y4937D01*
X253624D01*
X254936D02*
X256248D01*
X255592D01*
Y7561D01*
X254936D01*
X258215Y4937D02*
Y7561D01*
X260183D01*
X260839Y6905D01*
Y4937D01*
X264119D02*
X262807D01*
X262151Y5593D01*
Y6905D01*
X262807Y7561D01*
X264119D01*
X264775Y6905D01*
Y6249D01*
X262151D01*
X242142Y57100D02*
Y49228D01*
X246077D01*
X247389Y50540D01*
Y51852D01*
X246077Y53164D01*
X242142D01*
X246077D01*
X247389Y54476D01*
Y55788D01*
X246077Y57100D01*
X242142D01*
X250013Y49228D02*
Y54476D01*
X252637Y57100D01*
X255261Y54476D01*
Y49228D01*
Y53164D01*
X250013D01*
X257885Y57100D02*
X263132D01*
X260508D01*
Y49228D01*
X278875D02*
X273628D01*
X278875Y54476D01*
Y55788D01*
X277563Y57100D01*
X274940D01*
X273628Y55788D01*
X78756Y57100D02*
Y49228D01*
X82692D01*
X84004Y50540D01*
Y51852D01*
X82692Y53164D01*
X78756D01*
X82692D01*
X84004Y54476D01*
Y55788D01*
X82692Y57100D01*
X78756D01*
X86627Y49228D02*
Y54476D01*
X89251Y57100D01*
X91875Y54476D01*
Y49228D01*
Y53164D01*
X86627D01*
X94499Y57100D02*
X99747D01*
X97123D01*
Y49228D01*
X110242D02*
X112866D01*
X111554D01*
Y57100D01*
X110242Y55788D01*
X102049Y284791D02*
X99425D01*
Y282823D01*
X100737Y283479D01*
X101393D01*
X102049Y282823D01*
Y281511D01*
X101393Y280855D01*
X100081D01*
X99425Y281511D01*
X103361Y284791D02*
Y282167D01*
X104673Y280855D01*
X105985Y282167D01*
Y284791D01*
X111232Y280855D02*
Y284791D01*
X113200D01*
X113856Y284135D01*
Y282823D01*
X113200Y282167D01*
X111232D01*
X115168Y283479D02*
Y281511D01*
X115824Y280855D01*
X117792D01*
Y280199D01*
X117136Y279543D01*
X116480D01*
X117792Y280855D02*
Y283479D01*
X119104D02*
Y280855D01*
Y282167D01*
X119760Y282823D01*
X120416Y283479D01*
X121072D01*
X123696Y280855D02*
X125007D01*
X125663Y281511D01*
Y282823D01*
X125007Y283479D01*
X123696D01*
X123040Y282823D01*
Y281511D01*
X123696Y280855D01*
X133535D02*
X130911D01*
X133535Y283479D01*
Y284135D01*
X132879Y284791D01*
X131567D01*
X130911Y284135D01*
X61695Y285775D02*
X59071D01*
Y283807D01*
X60383Y284463D01*
X61039D01*
X61695Y283807D01*
Y282495D01*
X61039Y281839D01*
X59727D01*
X59071Y282495D01*
X63007Y285775D02*
Y283151D01*
X64319Y281839D01*
X65630Y283151D01*
Y285775D01*
X70878Y281839D02*
Y285775D01*
X72846D01*
X73502Y285119D01*
Y283807D01*
X72846Y283151D01*
X70878D01*
X74814Y284463D02*
Y282495D01*
X75470Y281839D01*
X77438D01*
Y281184D01*
X76782Y280528D01*
X76126D01*
X77438Y281839D02*
Y284463D01*
X78750D02*
Y281839D01*
Y283151D01*
X79405Y283807D01*
X80062Y284463D01*
X80717D01*
X83341Y281839D02*
X84653D01*
X85309Y282495D01*
Y283807D01*
X84653Y284463D01*
X83341D01*
X82685Y283807D01*
Y282495D01*
X83341Y281839D01*
X90557D02*
X91869D01*
X91213D01*
Y285775D01*
X90557Y285119D01*
X167339Y289385D02*
X168650D01*
X167994D01*
Y285449D01*
X167339D01*
X168650D01*
X170618D02*
Y289385D01*
X173242Y285449D01*
Y289385D01*
X145684Y289385D02*
X144372D01*
X143717Y288729D01*
Y286105D01*
X144372Y285449D01*
X145684D01*
X146340Y286105D01*
Y288729D01*
X145684Y289385D01*
X147652D02*
Y286105D01*
X148308Y285449D01*
X149620D01*
X150276Y286105D01*
Y289385D01*
X151588D02*
X154212D01*
X152900D01*
Y285449D01*
X142732Y281838D02*
Y277903D01*
X144700D01*
X145356Y278558D01*
Y279214D01*
X144700Y279870D01*
X142732D01*
X144700D01*
X145356Y280526D01*
Y281182D01*
X144700Y281838D01*
X142732D01*
X146668Y277903D02*
Y280526D01*
X147980Y281838D01*
X149292Y280526D01*
Y277903D01*
Y279870D01*
X146668D01*
X150604Y281838D02*
X153228D01*
X151916D01*
Y277903D01*
X157163D02*
X154540D01*
X157163Y280526D01*
Y281182D01*
X156507Y281838D01*
X155195D01*
X154540Y281182D01*
X162411Y277903D02*
Y281838D01*
X164379D01*
X165035Y281182D01*
Y279870D01*
X164379Y279214D01*
X162411D01*
X166347Y280526D02*
Y278558D01*
X167003Y277903D01*
X168971D01*
Y277246D01*
X168315Y276590D01*
X167659D01*
X168971Y277903D02*
Y280526D01*
X170282D02*
Y277903D01*
Y279214D01*
X170938Y279870D01*
X171594Y280526D01*
X172250D01*
X174874Y277903D02*
X176186D01*
X176842Y278558D01*
Y279870D01*
X176186Y280526D01*
X174874D01*
X174218Y279870D01*
Y278558D01*
X174874Y277903D01*
X196537D02*
X193913D01*
X196537Y280526D01*
Y281182D01*
X195881Y281838D01*
X194569D01*
X193913Y281182D01*
X199817Y277903D02*
Y281838D01*
X197849Y279870D01*
X200473D01*
X201785Y281838D02*
Y279214D01*
X203097Y277903D01*
X204409Y279214D01*
Y281838D01*
X209656Y277903D02*
Y281838D01*
X211624D01*
X212280Y281182D01*
Y279870D01*
X211624Y279214D01*
X209656D01*
X213592Y280526D02*
Y278558D01*
X214248Y277903D01*
X216216D01*
Y277246D01*
X215560Y276590D01*
X214904D01*
X216216Y277903D02*
Y280526D01*
X217528D02*
Y277903D01*
Y279214D01*
X218184Y279870D01*
X218840Y280526D01*
X219496D01*
X222119Y277903D02*
X223431D01*
X224087Y278558D01*
Y279870D01*
X223431Y280526D01*
X222119D01*
X221464Y279870D01*
Y278558D01*
X222119Y277903D01*
X261999Y100728D02*
Y103394D01*
X258000D01*
Y100728D01*
X259999Y103394D02*
Y102061D01*
X258000Y99395D02*
X261999D01*
X258000Y96729D01*
X261999D01*
X225494Y235409D02*
X226160Y236075D01*
Y237408D01*
X225494Y238075D01*
X222828D01*
X222161Y237408D01*
Y236075D01*
X222828Y235409D01*
X224161D01*
Y236742D01*
X222161Y234076D02*
X226160D01*
X222161Y231410D01*
X226160D01*
Y230077D02*
X222161D01*
Y228078D01*
X222828Y227412D01*
X225494D01*
X226160Y228078D01*
Y230077D01*
X247322Y239551D02*
X244656D01*
X243323Y238218D01*
X244656Y236885D01*
X247322D01*
Y233553D02*
Y234886D01*
X246655Y235553D01*
X243989D01*
X243323Y234886D01*
Y233553D01*
X243989Y232887D01*
X246655D01*
X247322Y233553D01*
Y231554D02*
X243989D01*
X243323Y230887D01*
Y229554D01*
X243989Y228888D01*
X247322D01*
Y227555D02*
Y224889D01*
Y226222D01*
X243323D01*
X207482Y98500D02*
X208148Y99166D01*
Y100499D01*
X207482Y101165D01*
X204816D01*
X204150Y100499D01*
Y99166D01*
X204816Y98500D01*
X206149D01*
Y99832D01*
X204150Y97167D02*
X208148D01*
X204150Y94501D01*
X208148D01*
Y93168D02*
X204150D01*
Y91169D01*
X204816Y90502D01*
X207482D01*
X208148Y91169D01*
Y93168D01*
X227046Y105890D02*
X224380D01*
X223047Y104557D01*
X224380Y103224D01*
X227046D01*
Y101891D02*
Y100558D01*
Y101225D01*
X223047D01*
Y101891D01*
Y100558D01*
Y98559D02*
X227046D01*
X223047Y95893D01*
X227046D01*
X253951Y282466D02*
X254935Y283450D01*
Y285418D01*
X253951Y286402D01*
X250015D01*
X249031Y285418D01*
Y283450D01*
X250015Y282466D01*
X251983D01*
Y284434D01*
X249031Y280498D02*
X254935D01*
X249031Y276562D01*
X254935D01*
Y274594D02*
X249031D01*
Y271643D01*
X250015Y270659D01*
X253951D01*
X254935Y271643D01*
Y274594D01*
X243124Y280497D02*
Y284433D01*
X237221D01*
Y280497D01*
X240172Y284433D02*
Y282465D01*
X237221Y278530D02*
X243124D01*
X237221Y274594D01*
X243124D01*
X268685Y296276D02*
X264749D01*
X262781Y298243D01*
X264749Y300211D01*
X268685D01*
X265733D01*
Y296276D01*
X268685Y302179D02*
X262781D01*
Y305131D01*
X263765Y306115D01*
X265733D01*
X266717Y305131D01*
Y302179D01*
Y304147D02*
X268685Y306115D01*
Y308083D02*
X262781D01*
X264749Y310051D01*
X262781Y312018D01*
X268685D01*
X79861Y226034D02*
Y221036D01*
X80860Y220036D01*
X82860D01*
X83859Y221036D01*
Y226034D01*
X85859Y225035D02*
X86858Y226034D01*
X88858D01*
X89857Y225035D01*
Y224035D01*
X88858Y223035D01*
X87858D01*
X88858D01*
X89857Y222036D01*
Y221036D01*
X88858Y220036D01*
X86858D01*
X85859Y221036D01*
X69160Y145547D02*
Y140549D01*
X70160Y139549D01*
X72159D01*
X73159Y140549D01*
Y145547D01*
X79157Y139549D02*
X75158D01*
X79157Y143547D01*
Y144547D01*
X78157Y145547D01*
X76158D01*
X75158Y144547D01*
X181087Y265717D02*
Y269716D01*
X180087Y270716D01*
X178088D01*
X177088Y269716D01*
Y265717D01*
X178088Y264718D01*
X180087D01*
X179088Y266717D02*
X181087Y264718D01*
X180087D02*
X181087Y265717D01*
X187085Y264718D02*
X183086D01*
X187085Y268716D01*
Y269716D01*
X186085Y270716D01*
X184086D01*
X183086Y269716D01*
X108268Y265717D02*
Y269716D01*
X107268Y270716D01*
X105269D01*
X104269Y269716D01*
Y265717D01*
X105269Y264718D01*
X107268D01*
X106268Y266717D02*
X108268Y264718D01*
X107268D02*
X108268Y265717D01*
X110267Y264718D02*
X112266D01*
X111267D01*
Y270716D01*
X110267Y269716D01*
X139813Y318842D02*
Y324840D01*
X142812D01*
X143811Y323840D01*
Y321841D01*
X142812Y320841D01*
X139813D01*
X149809Y324840D02*
X145811D01*
Y321841D01*
X147810Y322840D01*
X148810D01*
X149809Y321841D01*
Y319841D01*
X148810Y318842D01*
X146810D01*
X145811Y319841D01*
D36*
X0Y316929D02*
Y635827D01*
X316929D01*
X0Y0D02*
Y318898D01*
Y0D02*
X635827D01*
Y318898D01*
X318898Y635827D02*
X318898Y0D01*
X318898Y635827D02*
X635827D01*
Y316929D02*
Y635827D01*
X0Y318898D02*
X635827D01*
D42*
X128543Y416732D02*
Y421850D01*
D49*
X200787Y406573D02*
D03*
D62*
X235883Y372047D02*
X235793Y373041D01*
X235528Y374004D01*
X235095Y374903D01*
X234508Y375711D01*
X233786Y376400D01*
X232953Y376950D01*
X232035Y377343D01*
X231062Y377565D01*
X230065Y377609D01*
X229076Y377475D01*
X228127Y377167D01*
X227248Y376694D01*
X226467Y376072D01*
X225811Y375320D01*
X225299Y374463D01*
X224948Y373529D01*
X224770Y372546D01*
Y371548D01*
X224948Y370566D01*
X225299Y369632D01*
X225811Y368775D01*
X226467Y368023D01*
X227248Y367401D01*
X228127Y366928D01*
X229076Y366619D01*
X230065Y366485D01*
X231062Y366530D01*
X232035Y366752D01*
X232953Y367144D01*
X233786Y367694D01*
X234508Y368384D01*
X235095Y369192D01*
X235528Y370091D01*
X235793Y371053D01*
X235883Y372047D01*
D63*
X208268Y464567D02*
X207480D01*
X208268D01*
Y484252D02*
X207480D01*
X208268D01*
Y503937D02*
X207480D01*
X208268D01*
X168110Y484760D02*
X167323D01*
X168110D01*
X294882Y576772D02*
X299606D01*
X268622Y575709D02*
X288622D01*
Y585709D01*
X268622D02*
X288622D01*
X268622Y575709D02*
Y585709D01*
X128701Y613268D02*
X178701D01*
X132034Y618268D02*
Y631601D01*
X133701Y633268D01*
X135368Y631601D01*
Y618268D02*
Y631601D01*
X142034Y618268D02*
Y631601D01*
X143701Y633268D01*
X145368Y631601D01*
Y618268D02*
Y631601D01*
X152034Y618268D02*
Y631601D01*
X153701Y633268D01*
X155367Y631601D01*
Y618268D02*
Y631601D01*
X162034Y618268D02*
Y631601D01*
X163701Y633268D01*
X165367Y631601D01*
Y618268D02*
Y631601D01*
X172034Y618268D02*
Y631601D01*
X173701Y633268D01*
X175367Y631601D01*
Y618268D02*
Y631601D01*
X178701Y613268D02*
Y618268D01*
X128701D02*
X178701D01*
X128701Y613268D02*
Y618268D01*
X80709Y613189D02*
X104331D01*
Y626968D01*
X80709Y613189D02*
Y626968D01*
X104331D01*
X108268Y601968D02*
Y606693D01*
X76772Y601968D02*
Y606693D01*
X250748Y426102D02*
X270748D01*
Y436102D01*
X250748D02*
X270748D01*
X250748Y426102D02*
Y436102D01*
X239764Y523622D02*
X252362D01*
X239764Y543307D02*
X252362D01*
Y523622D02*
Y543307D01*
X239764Y523622D02*
Y543307D01*
X259449Y576772D02*
X264173D01*
X216142Y529528D02*
X220866D01*
X173622Y416634D02*
X176772D01*
X173622Y421949D02*
X176772D01*
Y416634D02*
Y421949D01*
X173622Y416634D02*
Y421949D01*
X132480Y416732D02*
X139173D01*
X132480Y421850D02*
X139173D01*
X154921Y421260D02*
X156102D01*
X154921Y417323D02*
X156102D01*
X154921D02*
Y421260D01*
X281496Y389370D02*
Y394094D01*
X261811Y412992D02*
Y417717D01*
X305118Y448425D02*
Y453150D01*
X304528Y433071D02*
X305709D01*
X304528Y437008D02*
X305709D01*
Y433071D02*
Y437008D01*
X304528Y417323D02*
X305709D01*
X304528Y421260D02*
X305709D01*
Y417323D02*
Y421260D01*
X305118Y401181D02*
Y405905D01*
X149905Y559353D02*
X153245Y562694D01*
X123896Y529528D02*
X139764Y545396D01*
Y513659D02*
X155632Y529528D01*
X139764Y545396D02*
X155632Y529528D01*
X123896D02*
X139764Y513659D01*
X181401Y543605D02*
X184741Y546946D01*
X173527Y535731D02*
X176867Y539072D01*
X134156Y496361D02*
X137497Y499702D01*
X106597Y539072D02*
X109938Y535731D01*
X101969Y588583D02*
X106693D01*
X101969Y568898D02*
X106693D01*
X97520Y567835D02*
Y587835D01*
X87520D02*
X97520D01*
X87520Y567835D02*
Y587835D01*
Y567835D02*
X97520D01*
X70472Y538583D02*
X74410D01*
X55511D02*
X59449D01*
X55511Y583464D02*
X59449D01*
X70472D02*
X74410D01*
Y538582D02*
Y583464D01*
X55512Y538582D02*
Y583464D01*
X78347Y545276D02*
X83071D01*
X78347Y584646D02*
X83071D01*
X241063Y618268D02*
X261063D01*
X241063Y613268D02*
Y618268D01*
X261063Y613268D02*
Y618268D01*
X241063Y613268D02*
X261063D01*
X257730Y618268D02*
Y631601D01*
X256063Y633268D02*
X257730Y631601D01*
X254396D02*
X256063Y633268D01*
X254396Y618268D02*
Y631601D01*
X247730Y618268D02*
Y631601D01*
X246063Y633268D02*
X247730Y631601D01*
X244396D02*
X246063Y633268D01*
X244396Y618268D02*
Y631601D01*
X37402Y562598D02*
Y567323D01*
X227953Y498032D02*
X232677D01*
X247638D02*
X252362D01*
X227953Y474409D02*
X232677D01*
X247638D02*
X252362D01*
X227953Y450787D02*
X232677D01*
X247638D02*
X252362D01*
X155512Y435152D02*
Y439877D01*
X113779Y415354D02*
X118504D01*
X176772Y474409D02*
X181496D01*
X190945Y416929D02*
Y421654D01*
X159449Y452362D02*
Y457087D01*
X29437Y399024D02*
Y558669D01*
Y399024D02*
X46366D01*
X29437Y558669D02*
X46366D01*
Y399024D02*
Y558669D01*
X290461Y399024D02*
Y558669D01*
X273532D02*
X290461D01*
X273532Y399024D02*
X290461D01*
X273532D02*
Y558669D01*
X233189Y325787D02*
X235315D01*
X233189Y339567D02*
X235315D01*
X241142Y331614D02*
Y333740D01*
X227362Y331614D02*
Y333740D01*
X534392Y552489D02*
X533425Y552244D01*
X532464Y551977D01*
X531509Y551688D01*
X530561Y551379D01*
X529620Y551048D01*
X528687Y550696D01*
X527761Y550324D01*
X526844Y549930D01*
X525937Y549517D01*
X525038Y549083D01*
X524150Y548630D01*
X523272Y548156D01*
X522405Y547663D01*
X521549Y547151D01*
X520704Y546619D01*
X519872Y546069D01*
X519052Y545501D01*
X518246Y544914D01*
X517452Y544310D01*
X516672Y543687D01*
X515907Y543048D01*
X515156Y542391D01*
X514419Y541718D01*
X513698Y541029D01*
X512993Y540324D01*
X512303Y539603D01*
X511630Y538867D01*
X510974Y538116D01*
X510334Y537350D01*
X509712Y536571D01*
X509107Y535777D01*
X508520Y534971D01*
X507951Y534151D01*
X507401Y533319D01*
Y484949D02*
X507951Y484117D01*
X508520Y483297D01*
X509107Y482490D01*
X509712Y481697D01*
X510334Y480917D01*
X510974Y480152D01*
X511630Y479401D01*
X512303Y478665D01*
X512993Y477944D01*
X513698Y477239D01*
X514419Y476549D01*
X515156Y475876D01*
X515907Y475220D01*
X516673Y474580D01*
X517452Y473958D01*
X518246Y473353D01*
X519053Y472767D01*
X519872Y472198D01*
X520704Y471648D01*
X521549Y471117D01*
X522405Y470605D01*
X523272Y470112D01*
X524150Y469638D01*
X525038Y469184D01*
X525937Y468751D01*
X526844Y468337D01*
X527761Y467944D01*
X528687Y467571D01*
X529620Y467220D01*
X530561Y466889D01*
X531509Y466579D01*
X532464Y466291D01*
X533426Y466024D01*
X534392Y465778D01*
X582383Y533308D02*
X581833Y534141D01*
X581264Y534962D01*
X580677Y535769D01*
X580072Y536563D01*
X579449Y537344D01*
X578809Y538110D01*
X578153Y538862D01*
X577479Y539599D01*
X576789Y540321D01*
X576083Y541027D01*
X575362Y541717D01*
X574625Y542391D01*
X573874Y543048D01*
X573107Y543688D01*
X572327Y544311D01*
X571533Y544917D01*
X570726Y545504D01*
X569906Y546073D01*
X569073Y546624D01*
X568228Y547156D01*
X567371Y547669D01*
X566504Y548162D01*
X565625Y548636D01*
X564736Y549090D01*
X563837Y549525D01*
X562928Y549939D01*
X562011Y550332D01*
X561085Y550705D01*
X560150Y551057D01*
X559208Y551389D01*
X558259Y551698D01*
X557304Y551987D01*
X556342Y552254D01*
X555374Y552500D01*
X555374Y465768D02*
X556342Y466013D01*
X557304Y466281D01*
X558259Y466569D01*
X559208Y466879D01*
X560150Y467210D01*
X561085Y467562D01*
X562011Y467935D01*
X562928Y468329D01*
X563837Y468743D01*
X564736Y469177D01*
X565625Y469631D01*
X566503Y470106D01*
X567371Y470599D01*
X568228Y471112D01*
X569073Y471644D01*
X569906Y472194D01*
X570726Y472764D01*
X571533Y473351D01*
X572327Y473956D01*
X573107Y474579D01*
X573873Y475219D01*
X574625Y475877D01*
X575362Y476550D01*
X576083Y477241D01*
X576789Y477947D01*
X577479Y478668D01*
X578152Y479405D01*
X578809Y480157D01*
X579449Y480924D01*
X580072Y481704D01*
X580677Y482498D01*
X581263Y483306D01*
X581832Y484126D01*
X582383Y484959D01*
X364764Y398524D02*
Y558169D01*
X347835D02*
X364764D01*
X347835Y398524D02*
X364764D01*
X347835D02*
Y558169D01*
X591929Y398524D02*
Y558169D01*
Y398524D02*
X608858D01*
X591929Y558169D02*
X608858D01*
Y398524D02*
Y558169D01*
X383268Y593307D02*
Y616929D01*
Y593307D02*
X397047D01*
X383268Y616929D02*
X397047D01*
Y593307D02*
Y616929D01*
X575984Y575591D02*
Y580315D01*
Y559055D02*
Y563779D01*
X551968Y418898D02*
X564567D01*
X551968Y438583D02*
X564567D01*
Y418898D02*
Y438583D01*
X551968Y418898D02*
Y438583D01*
X397677Y448543D02*
Y458543D01*
X377677Y448543D02*
X397677D01*
X377677D02*
Y458543D01*
X397677D01*
X425000Y595000D02*
Y605000D01*
X465000D01*
X425000Y595000D02*
X465000D01*
Y605000D01*
X533071Y427165D02*
X537795D01*
X575984Y567323D02*
Y572047D01*
X625197Y439567D02*
X629134D01*
Y440748D01*
X625197Y439567D02*
Y440748D01*
Y476968D02*
X629134D01*
Y478150D01*
X625197Y476968D02*
Y478150D01*
Y514370D02*
X629134D01*
Y515551D01*
X625197Y514370D02*
Y515551D01*
X507401Y484949D02*
Y533319D01*
X582383Y484960D02*
Y533308D01*
X534390Y552500D02*
Y567106D01*
X555374Y552500D02*
Y567106D01*
X534390D02*
X555374D01*
X534390Y460453D02*
Y465768D01*
X555374Y460453D02*
Y465768D01*
X534390Y460453D02*
X555374D01*
X617717Y577953D02*
Y582677D01*
X625197Y553740D02*
Y554921D01*
X629134Y553740D02*
Y554921D01*
X625197Y553740D02*
X629134D01*
X485236Y612874D02*
Y617874D01*
X535236D01*
Y612874D02*
Y617874D01*
X531903D02*
Y631207D01*
X530236Y632874D02*
X531903Y631207D01*
X528570D02*
X530236Y632874D01*
X528570Y617874D02*
Y631207D01*
X521903Y617874D02*
Y631207D01*
X520236Y632874D02*
X521903Y631207D01*
X518570D02*
X520236Y632874D01*
X518570Y617874D02*
Y631207D01*
X511903Y617874D02*
Y631207D01*
X510236Y632874D02*
X511903Y631207D01*
X508570D02*
X510236Y632874D01*
X508570Y617874D02*
Y631207D01*
X501903Y617874D02*
Y631207D01*
X500236Y632874D02*
X501903Y631207D01*
X498570D02*
X500236Y632874D01*
X498570Y617874D02*
Y631207D01*
X491903Y617874D02*
Y631207D01*
X490236Y632874D02*
X491903Y631207D01*
X488570D02*
X490236Y632874D01*
X488570Y617874D02*
Y631207D01*
X485236Y612874D02*
X535236D01*
X548779Y618268D02*
X568780D01*
X548779Y613268D02*
Y618268D01*
X568780Y613268D02*
Y618268D01*
X548779Y613268D02*
X568780D01*
X565446Y618268D02*
Y631601D01*
X563779Y633268D02*
X565446Y631601D01*
X562113D02*
X563779Y633268D01*
X562113Y618268D02*
Y631601D01*
X555446Y618268D02*
Y631601D01*
X553780Y633268D02*
X555446Y631601D01*
X552113D02*
X553780Y633268D01*
X552113Y618268D02*
Y631601D01*
X370079Y591339D02*
X374803D01*
X370079Y620866D02*
X374803D01*
X467677Y570748D02*
X487677D01*
X467677Y560748D02*
Y570748D01*
Y560748D02*
X487677D01*
Y570748D01*
X479921Y552756D02*
X484646D01*
X470079D02*
X474803D01*
X461299Y527677D02*
Y547677D01*
X451299D02*
X461299D01*
X451299Y527677D02*
Y547677D01*
Y527677D02*
X461299D01*
X442520Y540158D02*
Y544882D01*
Y530315D02*
Y535039D01*
X400692Y545371D02*
X404033Y542030D01*
X379432Y524505D02*
X382773Y521164D01*
X392360Y500707D02*
X395144Y497923D01*
X381781Y511286D02*
X384565Y508502D01*
X413517Y543022D02*
X416301Y540238D01*
X424096Y532443D02*
X426880Y529659D01*
X395144Y497923D02*
X426880Y529659D01*
X381781Y511285D02*
X413518Y543021D01*
X427165Y401575D02*
X431890D01*
X399606D02*
X404331D01*
X390551D02*
X395276D01*
X388583Y390158D02*
X442126D01*
X431299Y336221D02*
X442126D01*
X431299D02*
Y342717D01*
X394291D02*
X431299D01*
X394291Y336221D02*
Y342717D01*
X388583Y336221D02*
X394291D01*
X388583D02*
Y337205D01*
Y347441D02*
Y369882D01*
Y380118D02*
Y390158D01*
X442126Y380118D02*
Y390158D01*
Y347441D02*
Y369882D01*
Y336221D02*
Y337205D01*
X373622Y348425D02*
X378346D01*
X449409Y349410D02*
X454134D01*
X466240Y325000D02*
Y371260D01*
X555413D01*
Y324803D02*
Y371260D01*
X466240Y325000D02*
X555413Y324803D01*
X474016Y383071D02*
X478740D01*
X507874D02*
X512598D01*
X498819D02*
X503543D01*
X533071D02*
X537795D01*
X456597Y445180D02*
X459938Y448521D01*
X614961Y402756D02*
X619685D01*
X625197Y402165D02*
Y403346D01*
X629134Y402165D02*
Y403346D01*
X625197Y402165D02*
X629134D01*
X600394Y390945D02*
Y395669D01*
X564921Y399331D02*
X584921D01*
Y409331D01*
X564921D02*
X584921D01*
X564921Y399331D02*
Y409331D01*
X553937Y407874D02*
X558661D01*
X492818Y471355D02*
X496159Y468015D01*
X478251Y514078D02*
X481592Y517418D01*
X470377Y506204D02*
X473718Y509544D01*
X448305Y478346D02*
X464173Y494215D01*
Y462478D02*
X480041Y478346D01*
X464173Y494215D02*
X480041Y478346D01*
X448305D02*
X464173Y462478D01*
X433763Y494584D02*
X437103Y491243D01*
X369685Y541339D02*
X374409D01*
X542913Y383071D02*
X547638D01*
X613780Y431105D02*
X618503D01*
Y434254D01*
X613780Y438977D02*
Y435828D01*
X618503D01*
Y438977D01*
X616142Y435828D02*
Y437402D01*
X613780Y440551D02*
X618503D01*
Y442912D01*
X617716Y443700D01*
X614567D01*
X613780Y442912D01*
Y440551D01*
X614567Y445274D02*
X613780Y446061D01*
Y447635D01*
X614567Y448422D01*
X615355D01*
X616142Y447635D01*
X616929Y448422D01*
X617716D01*
X618503Y447635D01*
Y446061D01*
X617716Y445274D01*
X616929D01*
X616142Y446061D01*
X615355Y445274D01*
X614567D01*
X616142Y446061D02*
Y447635D01*
X613780Y468113D02*
X618503D01*
Y471262D01*
X613780Y475984D02*
Y472836D01*
X618503D01*
Y475984D01*
X616142Y472836D02*
Y474410D01*
X613780Y477559D02*
X618503D01*
Y479920D01*
X617716Y480707D01*
X614567D01*
X613780Y479920D01*
Y477559D01*
Y482282D02*
Y485430D01*
X614567D01*
X617716Y482282D01*
X618503D01*
X613780Y505515D02*
X618503D01*
Y508663D01*
X613780Y513386D02*
Y510238D01*
X618503D01*
Y513386D01*
X616142Y510238D02*
Y511812D01*
X613780Y514960D02*
X618503D01*
Y517322D01*
X617716Y518109D01*
X614567D01*
X613780Y517322D01*
Y514960D01*
Y522832D02*
X614567Y521258D01*
X616142Y519683D01*
X617716D01*
X618503Y520470D01*
Y522045D01*
X617716Y522832D01*
X616929D01*
X616142Y522045D01*
Y519683D01*
X614174Y374412D02*
X618897D01*
Y377561D01*
X614174Y382284D02*
Y379135D01*
X618897D01*
Y382284D01*
X616535Y379135D02*
Y380709D01*
X614174Y383858D02*
X618897D01*
Y386219D01*
X618110Y387007D01*
X614961D01*
X614174Y386219D01*
Y383858D01*
X618897Y391729D02*
Y388581D01*
X615748Y391729D01*
X614961D01*
X614174Y390942D01*
Y389368D01*
X614961Y388581D01*
X613780Y546066D02*
X618503D01*
Y549214D01*
X613780Y553937D02*
Y550788D01*
X618503D01*
Y553937D01*
X616142Y550788D02*
Y552363D01*
X613780Y555511D02*
X618503D01*
Y557873D01*
X617716Y558660D01*
X614567D01*
X613780Y557873D01*
Y555511D01*
X618503Y560234D02*
Y561808D01*
Y561021D01*
X613780D01*
X614567Y560234D01*
X472047Y141732D02*
X476772D01*
X472047Y120472D02*
X476772D01*
X444488Y248031D02*
X449213D01*
X424803D02*
X429528D01*
X395276D02*
X400000D01*
X375591D02*
X380315D01*
X519291Y98425D02*
X524016D01*
X499606D02*
X504331D01*
X348335Y80126D02*
Y239772D01*
Y80126D02*
X365264D01*
X348335Y239772D02*
X365264D01*
Y80126D02*
Y239772D01*
X609358Y80126D02*
Y239772D01*
X592429D02*
X609358D01*
X592429Y80126D02*
X609358D01*
X592429D02*
Y239772D01*
X87992Y261221D02*
Y274213D01*
X100984Y261221D02*
Y274213D01*
X160827Y261221D02*
Y274213D01*
X173819Y261221D02*
Y274213D01*
X273571Y80126D02*
Y239772D01*
Y80126D02*
X290500D01*
X273571Y239772D02*
X290500D01*
Y80126D02*
Y239772D01*
X46406Y80126D02*
Y239772D01*
X29476D02*
X46406D01*
X29476Y80126D02*
X46406D01*
X29476D02*
Y239772D01*
D64*
X117598Y620079D02*
X116860Y620505D01*
Y619653D01*
X117598Y620079D01*
X235827Y544311D02*
X235089Y544737D01*
Y543885D01*
X235827Y544311D01*
X180079Y415492D02*
X179341Y415918D01*
Y415066D01*
X180079Y415492D01*
X138586Y550268D02*
X137847Y550694D01*
Y549841D01*
X138586Y550268D01*
X65453Y592717D02*
X64715Y593143D01*
Y592290D01*
X65453Y592717D01*
X390650Y580532D02*
X389911Y580958D01*
Y580105D01*
X390650Y580532D01*
X548032Y439587D02*
X547293Y440013D01*
Y439160D01*
X548032Y439587D01*
X545374Y583248D02*
X544636Y583674D01*
Y582822D01*
X545374Y583248D01*
X427233Y542883D02*
X426495Y543309D01*
Y542456D01*
X427233Y542883D01*
X462995Y499086D02*
X462257Y499513D01*
Y498660D01*
X462995Y499086D01*
D65*
X244882Y539370D02*
X244437Y540294D01*
X243438Y540522D01*
X242637Y539883D01*
Y538858D01*
X243438Y538219D01*
X244437Y538447D01*
X244882Y539370D01*
X140945Y539828D02*
X140500Y540751D01*
X139501Y540979D01*
X138700Y540340D01*
Y539316D01*
X139501Y538677D01*
X140500Y538904D01*
X140945Y539828D01*
X557087Y434646D02*
X556642Y435569D01*
X555643Y435797D01*
X554841Y435158D01*
Y434133D01*
X555643Y433494D01*
X556642Y433722D01*
X557087Y434646D01*
X465354Y488647D02*
X464910Y489570D01*
X463910Y489798D01*
X463109Y489159D01*
Y488134D01*
X463910Y487495D01*
X464910Y487723D01*
X465354Y488647D01*
D66*
X74252Y448267D02*
Y448827D01*
X106172Y441827D02*
Y442247D01*
X98192Y441267D02*
Y441687D01*
X90212Y442527D02*
Y442947D01*
X106172Y456807D02*
Y457367D01*
X98192Y463107D02*
Y463667D01*
X90212Y465067D02*
Y468847D01*
X82232Y444907D02*
Y445467D01*
X66272Y452747D02*
Y453167D01*
X58292Y458627D02*
Y459327D01*
X82232Y469267D02*
Y471787D01*
X74252Y472907D02*
Y474587D01*
X66272Y475287D02*
Y475707D01*
X58292Y475007D02*
Y475427D01*
X84052Y409627D02*
Y421247D01*
X84192Y409767D02*
Y421247D01*
X85312Y410607D02*
Y421247D01*
X85452Y410327D02*
Y421247D01*
X85592Y410047D02*
Y421107D01*
X85732Y409907D02*
Y421107D01*
X85872Y409767D02*
Y420967D01*
X86012Y409627D02*
Y420827D01*
X86152Y409627D02*
Y420827D01*
X86292Y409487D02*
Y420687D01*
X83072Y409347D02*
Y420547D01*
X83212Y409347D02*
Y420687D01*
X83352Y409347D02*
Y420827D01*
X83492Y409347D02*
Y420967D01*
X83632Y409347D02*
Y420967D01*
X83772Y409347D02*
Y421107D01*
X83912Y409487D02*
Y421107D01*
X88952Y451347D02*
Y461007D01*
X89092Y451487D02*
Y460727D01*
X89232Y451767D02*
Y460447D01*
X89372Y452327D02*
Y459887D01*
X84052Y474447D02*
Y486067D01*
X84192Y474307D02*
Y485927D01*
X85312Y474307D02*
Y485367D01*
X85452Y474447D02*
Y485647D01*
X85592Y474447D02*
Y485927D01*
X85732Y474587D02*
Y486067D01*
X85872Y474587D02*
Y486207D01*
X86012Y474727D02*
Y486347D01*
X86152Y474867D02*
Y486487D01*
X86292Y475007D02*
Y486627D01*
X86432Y475147D02*
Y486627D01*
X86572Y475287D02*
Y486627D01*
X86712Y475707D02*
Y486767D01*
X87832Y450367D02*
Y461987D01*
Y475287D02*
Y486767D01*
X87972Y450507D02*
Y461847D01*
Y475007D02*
Y486767D01*
X88112Y450507D02*
Y461847D01*
Y474867D02*
Y486627D01*
X88252Y450647D02*
Y461707D01*
Y474727D02*
Y486627D01*
X88392Y450787D02*
Y461567D01*
Y474727D02*
Y486487D01*
X88532Y450787D02*
Y461427D01*
Y474727D02*
Y486487D01*
X88672Y450927D02*
Y461287D01*
Y474727D02*
Y486347D01*
X88812Y451207D02*
Y461147D01*
Y474727D02*
Y486207D01*
X88952Y474867D02*
Y486067D01*
X89092Y474867D02*
Y485787D01*
X89232Y475007D02*
Y485647D01*
X89372Y475287D02*
Y485087D01*
X82792Y475567D02*
Y486067D01*
X82932Y475287D02*
Y486207D01*
X83072Y475147D02*
Y486347D01*
X83212Y474867D02*
Y486347D01*
X83352Y474727D02*
Y486347D01*
X83492Y474727D02*
Y486347D01*
X83632Y474587D02*
Y486347D01*
X83772Y474447D02*
Y486347D01*
X83912Y474447D02*
Y486207D01*
X111352Y447847D02*
Y449947D01*
X111492Y445887D02*
Y449387D01*
X111632Y446447D02*
Y448827D01*
X106452Y456387D02*
Y457087D01*
X106592Y456247D02*
Y456947D01*
X106732Y456107D02*
Y456807D01*
X106872Y455967D02*
Y456667D01*
X107012Y455827D02*
Y456527D01*
X92032Y463947D02*
Y468847D01*
X92172Y463807D02*
Y468847D01*
X92312Y463807D02*
Y468707D01*
X92452Y463667D02*
Y468707D01*
X92592Y463667D02*
Y468707D01*
X92732Y463527D02*
Y468707D01*
X92872Y463527D02*
Y468707D01*
X93012Y463387D02*
Y468567D01*
X93152Y463387D02*
Y468567D01*
X94412Y463667D02*
Y468287D01*
X94552Y463947D02*
Y468147D01*
X94692Y464367D02*
Y468147D01*
X96232Y464367D02*
Y464647D01*
X96372Y464367D02*
Y464787D01*
X96512Y464227D02*
Y464787D01*
X96652Y464087D02*
Y464647D01*
X96792Y464087D02*
Y464647D01*
X96932Y463947D02*
Y464507D01*
X90912D02*
Y468847D01*
X91052Y464507D02*
Y468847D01*
X91192Y464367D02*
Y468847D01*
X91332Y464227D02*
Y468847D01*
X91472Y464227D02*
Y468847D01*
X91612Y464087D02*
Y468847D01*
X91752Y464087D02*
Y468847D01*
X94132Y480327D02*
Y481307D01*
X94272Y480467D02*
Y481307D01*
X94412Y480467D02*
Y481307D01*
X94552Y480607D02*
Y481447D01*
X94692Y480607D02*
Y481447D01*
X94832Y480607D02*
Y481447D01*
X94972Y480607D02*
Y481447D01*
X95112Y480607D02*
Y481447D01*
X95252Y480607D02*
Y481447D01*
X95392Y480607D02*
Y481447D01*
X95532Y480607D02*
Y481447D01*
X95672Y480607D02*
Y481447D01*
X95812Y480607D02*
Y481447D01*
X95952Y480607D02*
Y481447D01*
X96092Y480607D02*
Y481447D01*
X96232Y480607D02*
Y481307D01*
X91892Y463947D02*
Y468847D01*
X93292Y463247D02*
Y468567D01*
X93432Y463247D02*
Y468567D01*
Y476547D02*
Y480747D01*
X93572Y463107D02*
Y468427D01*
Y476407D02*
Y480887D01*
X93712Y463107D02*
Y468427D01*
Y476267D02*
Y481027D01*
X93852Y463107D02*
Y468427D01*
Y476127D02*
Y481167D01*
X93992Y462967D02*
Y468287D01*
Y475987D02*
Y481167D01*
X94132Y462967D02*
Y468287D01*
X94272Y463247D02*
Y468287D01*
X93432Y488587D02*
Y492787D01*
X93572Y488447D02*
Y492927D01*
X93712Y488307D02*
Y493067D01*
X93852Y488167D02*
Y493207D01*
X93992Y488027D02*
Y493207D01*
X94132Y488027D02*
Y489007D01*
X94272Y488027D02*
Y488867D01*
X94412Y487887D02*
Y488727D01*
X94552Y487887D02*
Y488727D01*
X94692Y487887D02*
Y488727D01*
X94832Y487887D02*
Y488727D01*
X94972Y487887D02*
Y488727D01*
X95112Y487887D02*
Y488727D01*
X95252Y487887D02*
Y488727D01*
X95392Y487887D02*
Y488727D01*
X95532Y487887D02*
Y488727D01*
X95672Y487887D02*
Y488727D01*
X95812Y487887D02*
Y488727D01*
X95952Y487887D02*
Y488727D01*
X96092Y487887D02*
Y488727D01*
X96232Y487887D02*
Y488587D01*
X95672Y494327D02*
Y499647D01*
X95812Y494327D02*
Y499647D01*
X95952Y494467D02*
Y499507D01*
X96092Y494607D02*
Y499367D01*
X96232Y494747D02*
Y499227D01*
X96372Y495027D02*
Y498807D01*
X86992Y415787D02*
Y419707D01*
X87132Y416207D02*
Y419847D01*
X84052Y396047D02*
Y407947D01*
X84192Y396047D02*
Y407947D01*
X85312Y396047D02*
Y407947D01*
X85452Y396047D02*
Y407947D01*
X85592Y396047D02*
Y407807D01*
X85732Y396047D02*
Y407807D01*
X85872Y396047D02*
Y407667D01*
X86012Y396047D02*
Y407527D01*
X86152Y396047D02*
Y407527D01*
X86292Y396047D02*
Y407387D01*
X86432Y396047D02*
Y407107D01*
X86572Y396047D02*
Y406967D01*
X86712Y396047D02*
Y406547D01*
X82792Y396327D02*
Y406687D01*
X82932Y396187D02*
Y406967D01*
X83072Y396047D02*
Y407247D01*
X83212Y396047D02*
Y407387D01*
X83352Y396047D02*
Y407527D01*
X83492Y396047D02*
Y407667D01*
X83632Y396047D02*
Y407667D01*
X83772Y396047D02*
Y407807D01*
X83912Y396047D02*
Y407807D01*
X86432Y409487D02*
Y420407D01*
X86572Y409347D02*
Y420267D01*
X86712Y409347D02*
Y419847D01*
X86852Y414947D02*
Y419427D01*
X82792Y409627D02*
Y419987D01*
X82932Y409487D02*
Y420267D01*
X84332Y432587D02*
Y434827D01*
X87692Y432587D02*
Y434827D01*
X84052Y423347D02*
Y434687D01*
Y436927D02*
Y448547D01*
X84192Y423207D02*
Y434827D01*
Y437067D02*
Y448547D01*
X84332Y423207D02*
Y425447D01*
Y446727D02*
Y448547D01*
X84472Y423067D02*
Y425167D01*
Y446867D02*
Y448547D01*
X84612Y423067D02*
Y424887D01*
Y447007D02*
Y448547D01*
X84752Y422927D02*
Y424747D01*
Y447007D02*
Y448547D01*
X84892Y422927D02*
Y424607D01*
Y447007D02*
Y448547D01*
X85032Y422927D02*
Y424607D01*
Y446867D02*
Y448547D01*
X85172Y446727D02*
Y448547D01*
X85312Y437907D02*
Y448547D01*
X85452Y437627D02*
Y448547D01*
X85592Y437347D02*
Y448407D01*
X85732Y437207D02*
Y448407D01*
X85872Y437067D02*
Y448267D01*
X86012Y436927D02*
Y448127D01*
X86152Y436927D02*
Y448127D01*
X86292Y436787D02*
Y447987D01*
X86432Y436787D02*
Y447707D01*
X86572Y436647D02*
Y447567D01*
X86712Y436647D02*
Y447147D01*
X86992Y422927D02*
Y424607D01*
X87132Y422927D02*
Y424607D01*
X87272Y422927D02*
Y424747D01*
X87412Y423067D02*
Y424887D01*
X87552Y423067D02*
Y425027D01*
X87692Y423067D02*
Y425307D01*
X87832Y423207D02*
Y434827D01*
X87972Y423347D02*
Y434687D01*
X88112Y423347D02*
Y434687D01*
X88252Y423487D02*
Y434547D01*
X88392Y423627D02*
Y434407D01*
X88532Y423627D02*
Y434267D01*
X88672Y423767D02*
Y434127D01*
X88812Y424047D02*
Y433987D01*
X88952Y424187D02*
Y433847D01*
X89092Y424327D02*
Y433567D01*
X89232Y424607D02*
Y433287D01*
X89372Y425167D02*
Y432727D01*
X82792Y424747D02*
Y433287D01*
Y436927D02*
Y447287D01*
X82932Y424467D02*
Y433567D01*
Y436787D02*
Y447567D01*
X83072Y424187D02*
Y433847D01*
Y436647D02*
Y447847D01*
X83212Y424047D02*
Y433987D01*
Y436647D02*
Y447987D01*
X83352Y423907D02*
Y434127D01*
Y436647D02*
Y448127D01*
X83492Y423767D02*
Y434267D01*
Y436647D02*
Y448267D01*
X83632Y423627D02*
Y434407D01*
Y436647D02*
Y448267D01*
X83772Y423487D02*
Y434547D01*
Y436647D02*
Y448407D01*
X83912Y423347D02*
Y434547D01*
Y436787D02*
Y448407D01*
X86852Y488307D02*
Y489847D01*
X86992Y488307D02*
Y489847D01*
X87132Y488307D02*
Y489847D01*
X87272Y488307D02*
Y489847D01*
X87412Y488307D02*
Y489847D01*
X87552Y488307D02*
Y489987D01*
X87692Y488307D02*
Y489987D01*
X84052Y488587D02*
Y500347D01*
X84192Y488727D02*
Y500207D01*
X85312Y488587D02*
Y499927D01*
X85452Y488447D02*
Y500067D01*
X85592Y488307D02*
Y500207D01*
X85732Y488307D02*
Y500207D01*
X85872Y488307D02*
Y500207D01*
X86012Y488307D02*
Y500207D01*
X86152Y488307D02*
Y500207D01*
X86292Y488307D02*
Y500207D01*
X86432Y488307D02*
Y500207D01*
X86572Y488307D02*
Y500067D01*
X86712Y488307D02*
Y499927D01*
X87832Y488307D02*
Y500067D01*
X87972Y488307D02*
Y500347D01*
X88112Y488447D02*
Y500487D01*
X88252Y488447D02*
Y500487D01*
X88392Y488587D02*
Y500627D01*
X88532Y488587D02*
Y500627D01*
X88672Y488727D02*
Y500627D01*
X88812Y488867D02*
Y500627D01*
X88952Y489007D02*
Y500487D01*
X89092Y489147D02*
Y500487D01*
X89232Y489427D02*
Y500347D01*
X89372Y489987D02*
Y500067D01*
X82792Y488587D02*
Y500347D01*
X82932Y488447D02*
Y500487D01*
X83072Y488307D02*
Y500487D01*
X83212Y488307D02*
Y500627D01*
X83352Y488307D02*
Y500627D01*
X83492Y488307D02*
Y500627D01*
X83632Y488307D02*
Y500627D01*
X83772Y488307D02*
Y500627D01*
X83912Y488447D02*
Y500487D01*
X74392Y448267D02*
Y448687D01*
X74532Y448127D02*
Y448687D01*
X74672Y448127D02*
Y448547D01*
X74812Y447987D02*
Y448547D01*
X76072Y471927D02*
Y474027D01*
X76212Y471927D02*
Y473887D01*
X76352Y471927D02*
Y473887D01*
X76492Y471787D02*
Y473887D01*
X76632Y471787D02*
Y473747D01*
X76772Y471647D02*
Y473747D01*
X76912Y471647D02*
Y473747D01*
X77052Y471507D02*
Y473607D01*
X77192Y471507D02*
Y473607D01*
X77332Y471367D02*
Y473607D01*
X77472Y471367D02*
Y473467D01*
X74952Y472487D02*
Y474307D01*
X75092Y472487D02*
Y474307D01*
X75232Y472347D02*
Y474167D01*
X75372Y472347D02*
Y474167D01*
X75512Y472207D02*
Y474167D01*
X75652Y472207D02*
Y474167D01*
X75792Y472067D02*
Y474027D01*
X75932Y472067D02*
Y474027D01*
X77612Y471227D02*
Y473467D01*
X77752Y471227D02*
Y473467D01*
X77892Y471087D02*
Y473327D01*
X78032Y471087D02*
Y473327D01*
X78172Y471087D02*
Y473187D01*
X78312Y470947D02*
Y473187D01*
X78452Y470947D02*
Y473187D01*
X78592Y470807D02*
Y473047D01*
X78732Y470807D02*
Y473047D01*
X78872Y470667D02*
Y473047D01*
X79012Y470667D02*
Y472907D01*
X79152Y470667D02*
Y472907D01*
X79292Y470527D02*
Y472907D01*
X79432Y470527D02*
Y472767D01*
X79572Y470387D02*
Y472767D01*
X79712Y470387D02*
Y472767D01*
X79852Y470247D02*
Y472627D01*
X79992Y470247D02*
Y472627D01*
X80132Y470247D02*
Y472487D01*
X80272Y470107D02*
Y472487D01*
X80412Y470107D02*
Y472487D01*
X73692Y448547D02*
Y449107D01*
X73832Y448547D02*
Y448967D01*
X73972Y448407D02*
Y448967D01*
X74112Y448407D02*
Y448827D01*
X60812Y456527D02*
Y457087D01*
X60952Y456387D02*
Y456947D01*
X61092Y456247D02*
Y456807D01*
X61232Y456247D02*
Y456807D01*
X61372Y456107D02*
Y456667D01*
X61512Y455967D02*
Y456527D01*
X53252Y464507D02*
Y465487D01*
X53392Y464367D02*
Y465207D01*
X53532Y464087D02*
Y464927D01*
X53672Y463947D02*
Y464647D01*
X53812Y463667D02*
Y464507D01*
X52552Y471647D02*
Y472487D01*
X52692Y471927D02*
Y472627D01*
X52832Y472067D02*
Y472767D01*
X52972Y472347D02*
Y473047D01*
X53112Y472487D02*
Y473187D01*
X107992Y442387D02*
Y442807D01*
X108132Y442527D02*
Y442947D01*
X108272Y442527D02*
Y442947D01*
X108412Y442527D02*
Y443087D01*
X108552Y442667D02*
Y443227D01*
X108692Y442807D02*
Y443227D01*
X108832Y442807D02*
Y443367D01*
X108972Y442947D02*
Y443367D01*
X109112Y442947D02*
Y443507D01*
X109252Y443087D02*
Y443647D01*
X109392Y443227D02*
Y443647D01*
X109532Y443227D02*
Y443787D01*
X109672Y443367D02*
Y443927D01*
X109812Y443507D02*
Y444067D01*
X109952Y443647D02*
Y444207D01*
X110092Y443787D02*
Y444347D01*
X110232Y443927D02*
Y444487D01*
X110372Y444067D02*
Y444627D01*
X110512Y444207D02*
Y444907D01*
X110652Y444347D02*
Y445047D01*
X110792Y444487D02*
Y445327D01*
X110932Y444767D02*
Y445607D01*
X111072Y444907D02*
Y445887D01*
X111212Y445187D02*
Y446447D01*
X106312Y441827D02*
Y442247D01*
X106452Y441827D02*
Y442247D01*
X106592Y441967D02*
Y442387D01*
X106732Y441967D02*
Y442387D01*
X106872Y441967D02*
Y442387D01*
X107012Y441967D02*
Y442527D01*
X107152Y442107D02*
Y442527D01*
X107292Y442107D02*
Y442527D01*
X107432Y442107D02*
Y442667D01*
X107572Y442247D02*
Y442667D01*
X107712Y442247D02*
Y442807D01*
X107852Y442387D02*
Y442807D01*
X111352Y445467D02*
Y447287D01*
X108272Y454427D02*
Y455127D01*
X108412Y454287D02*
Y454987D01*
X108552Y454007D02*
Y454707D01*
X108692Y453867D02*
Y454567D01*
X108832Y453727D02*
Y454427D01*
X108972Y453447D02*
Y454287D01*
X109112Y453307D02*
Y454007D01*
X109252Y453027D02*
Y453867D01*
X109392Y452887D02*
Y453587D01*
X109532Y452607D02*
Y453447D01*
X109672Y452467D02*
Y453307D01*
X109812Y452187D02*
Y453027D01*
X109952Y451907D02*
Y452747D01*
X110092Y451767D02*
Y452607D01*
X110232Y451487D02*
Y452327D01*
X110372Y451207D02*
Y452047D01*
X110512Y450927D02*
Y451907D01*
X110652Y450507D02*
Y451627D01*
X110792Y450227D02*
Y451347D01*
X110932Y449807D02*
Y451067D01*
X111072Y449387D02*
Y450647D01*
X111212Y448827D02*
Y450367D01*
X107152Y455687D02*
Y456387D01*
X107292Y455547D02*
Y456247D01*
X107432Y455407D02*
Y456107D01*
X107992Y454707D02*
Y455407D01*
X108132Y454567D02*
Y455267D01*
X107572D02*
Y455967D01*
X107712Y455127D02*
Y455687D01*
X107852Y454847D02*
Y455547D01*
X106312Y456667D02*
Y457227D01*
X100012Y441267D02*
Y441547D01*
X100152Y441267D02*
Y441547D01*
X100292Y441267D02*
Y441547D01*
X100432Y441267D02*
Y441547D01*
X100572Y441267D02*
Y441547D01*
X100712Y441267D02*
Y441547D01*
X100852Y441267D02*
Y441547D01*
X100992Y441267D02*
Y441547D01*
X101132Y441267D02*
Y441547D01*
X101272Y441267D02*
Y441547D01*
X101412Y441267D02*
Y441547D01*
X101552Y441267D02*
Y441547D01*
X101692Y441267D02*
Y441547D01*
X101832Y441267D02*
Y441687D01*
X101972Y441267D02*
Y441687D01*
X102112Y441267D02*
Y441687D01*
X102252Y441267D02*
Y441687D01*
X102392Y441267D02*
Y441687D01*
X102532Y441267D02*
Y441687D01*
X102672Y441267D02*
Y441687D01*
X102812Y441267D02*
Y441687D01*
X102952Y441267D02*
Y441687D01*
X103092Y441267D02*
Y441687D01*
X103232Y441267D02*
Y441687D01*
X103372Y441267D02*
Y441687D01*
X103512Y441267D02*
Y441687D01*
X103652Y441407D02*
Y441687D01*
X103792Y441407D02*
Y441827D01*
X103932Y441407D02*
Y441827D01*
X104072Y441407D02*
Y441827D01*
X104212Y441407D02*
Y441827D01*
X104352Y441407D02*
Y441827D01*
X104492Y441407D02*
Y441827D01*
X104632Y441407D02*
Y441827D01*
X104772Y441547D02*
Y441967D01*
X104912Y441547D02*
Y441967D01*
X105052Y441547D02*
Y441967D01*
X105192Y441547D02*
Y441967D01*
X105332Y441547D02*
Y441967D01*
X105472Y441687D02*
Y442107D01*
X105612Y441687D02*
Y442107D01*
X105752Y441687D02*
Y442107D01*
X105892Y441687D02*
Y442107D01*
X106032Y441687D02*
Y442247D01*
X98332Y441267D02*
Y441687D01*
X98472Y441267D02*
Y441687D01*
X98612Y441267D02*
Y441687D01*
X98752Y441267D02*
Y441687D01*
X98892Y441267D02*
Y441687D01*
X99032Y441267D02*
Y441687D01*
X99172Y441267D02*
Y441687D01*
X99312Y441267D02*
Y441687D01*
X99452Y441267D02*
Y441687D01*
X99592Y441267D02*
Y441687D01*
X99732Y441267D02*
Y441687D01*
X99872Y441267D02*
Y441547D01*
X100012Y461847D02*
Y462407D01*
X100152Y461847D02*
Y462407D01*
X100292Y461707D02*
Y462267D01*
X100432Y461567D02*
Y462127D01*
X100572Y461567D02*
Y461987D01*
X100712Y461427D02*
Y461987D01*
X100852Y461287D02*
Y461847D01*
X100992Y461147D02*
Y461707D01*
X101132Y461147D02*
Y461567D01*
X101272Y461007D02*
Y461567D01*
X101412Y460867D02*
Y461427D01*
X101552Y460727D02*
Y461287D01*
X101692Y460727D02*
Y461147D01*
X101832Y460587D02*
Y461147D01*
X101972Y460447D02*
Y461007D01*
X102112Y460307D02*
Y460867D01*
X102252Y460167D02*
Y460727D01*
X102392Y460167D02*
Y460727D01*
X102532Y460027D02*
Y460587D01*
X102672Y459887D02*
Y460447D01*
X102812Y459747D02*
Y460307D01*
X102952Y459607D02*
Y460167D01*
X103092Y459607D02*
Y460167D01*
X103232Y459467D02*
Y460027D01*
X103372Y459327D02*
Y459887D01*
X103512Y459187D02*
Y459747D01*
X103652Y459047D02*
Y459607D01*
X103792Y458907D02*
Y459467D01*
X103932Y458767D02*
Y459467D01*
X104072Y458767D02*
Y459327D01*
X104212Y458627D02*
Y459187D01*
X104352Y458487D02*
Y459047D01*
X104492Y458347D02*
Y458907D01*
X104632Y458207D02*
Y458767D01*
X104772Y458067D02*
Y458627D01*
X104912Y457927D02*
Y458627D01*
X105052Y457787D02*
Y458487D01*
X105192Y457647D02*
Y458347D01*
X105332Y457507D02*
Y458207D01*
X105472Y457367D02*
Y458067D01*
X105612Y457227D02*
Y457927D01*
X105752Y457227D02*
Y457787D01*
X105892Y457087D02*
Y457647D01*
X106032Y456947D02*
Y457507D01*
X99032Y462547D02*
Y463107D01*
X99172Y462547D02*
Y462967D01*
X99312Y462407D02*
Y462967D01*
X99452Y462267D02*
Y462827D01*
X99592Y462267D02*
Y462687D01*
X99732Y462127D02*
Y462687D01*
X99872Y461987D02*
Y462547D01*
X98332Y463107D02*
Y463527D01*
X98472Y462967D02*
Y463527D01*
X98612Y462827D02*
Y463387D01*
X98752Y462827D02*
Y463247D01*
X98892Y462687D02*
Y463247D01*
X92032Y442247D02*
Y442667D01*
X92172Y442107D02*
Y442527D01*
X92312Y442107D02*
Y442527D01*
X92452Y442107D02*
Y442527D01*
X92592Y442107D02*
Y442527D01*
X92732Y442107D02*
Y442527D01*
X92872Y441967D02*
Y442387D01*
X93012Y441967D02*
Y442387D01*
X93152Y441967D02*
Y442387D01*
X93292Y441967D02*
Y442387D01*
X93432Y441967D02*
Y442387D01*
X93572Y441827D02*
Y442247D01*
X93712Y441827D02*
Y442247D01*
X93852Y441827D02*
Y442247D01*
X93992Y441827D02*
Y442247D01*
X94132Y441827D02*
Y442247D01*
X94272Y441827D02*
Y442247D01*
X94412Y441687D02*
Y442107D01*
X94552Y441687D02*
Y442107D01*
X94692Y441687D02*
Y442107D01*
X94832Y441687D02*
Y442107D01*
X94972Y441687D02*
Y442107D01*
X95112Y441687D02*
Y442107D01*
X95252Y441687D02*
Y441967D01*
X95392Y441547D02*
Y441967D01*
X95532Y441547D02*
Y441967D01*
X95672Y441547D02*
Y441967D01*
X95812Y441547D02*
Y441967D01*
X95952Y441547D02*
Y441967D01*
X96092Y441547D02*
Y441967D01*
X96232Y441547D02*
Y441967D01*
X96372Y441547D02*
Y441827D01*
X96512Y441407D02*
Y441827D01*
X96652Y441407D02*
Y441827D01*
X96792Y441407D02*
Y441827D01*
X96932Y441407D02*
Y441827D01*
X97072Y441407D02*
Y441827D01*
X97212Y441407D02*
Y441827D01*
X97352Y441407D02*
Y441827D01*
X97492Y441407D02*
Y441827D01*
X97632Y441407D02*
Y441687D01*
X97772Y441407D02*
Y441687D01*
X97912Y441267D02*
Y441687D01*
X98052Y441267D02*
Y441687D01*
X90352Y442527D02*
Y442947D01*
X90492Y442527D02*
Y442947D01*
X90632Y442527D02*
Y442947D01*
X90772Y442387D02*
Y442807D01*
X90912Y442387D02*
Y442807D01*
X91052Y442387D02*
Y442807D01*
X91192Y442387D02*
Y442807D01*
X91332Y442387D02*
Y442807D01*
X91472Y442247D02*
Y442667D01*
X91612Y442247D02*
Y442667D01*
X91752Y442247D02*
Y442667D01*
X91892Y442247D02*
Y442667D01*
X97072Y463947D02*
Y464367D01*
X97212Y463807D02*
Y464367D01*
X97352Y463667D02*
Y464227D01*
X97492Y463667D02*
Y464087D01*
X97632Y463527D02*
Y464087D01*
X97772Y463387D02*
Y463947D01*
X97912Y463387D02*
Y463807D01*
X98052Y463247D02*
Y463807D01*
X94832Y464647D02*
Y468147D01*
X94972Y465067D02*
Y468007D01*
X95112Y465347D02*
Y468007D01*
X95252Y465767D02*
Y467867D01*
X95392Y466047D02*
Y467867D01*
X95532Y466467D02*
Y467867D01*
X95672Y466747D02*
Y467727D01*
X95812Y467167D02*
Y467727D01*
X95952Y467587D02*
Y467727D01*
X90352Y464927D02*
Y468847D01*
X90492Y464787D02*
Y468847D01*
X90632Y464647D02*
Y468847D01*
X90772Y464647D02*
Y468847D01*
X94132Y475987D02*
Y476967D01*
X94272Y475987D02*
Y476827D01*
X94412Y475847D02*
Y476687D01*
X94552Y475847D02*
Y476687D01*
X94692Y475847D02*
Y476687D01*
X94832Y475847D02*
Y476687D01*
X94972Y475847D02*
Y476687D01*
X95112Y475847D02*
Y476687D01*
X95252Y475847D02*
Y476687D01*
X95392Y475847D02*
Y476687D01*
X95532Y475847D02*
Y476687D01*
X95672Y475847D02*
Y476687D01*
X95812Y475847D02*
Y476687D01*
X95952Y475847D02*
Y476687D01*
X96092Y475847D02*
Y476687D01*
X96232Y475847D02*
Y476547D01*
X96372Y475987D02*
Y476407D01*
X93292Y476827D02*
Y480467D01*
X94132Y484387D02*
Y485367D01*
X94272Y484387D02*
Y485227D01*
X94412Y484387D02*
Y485227D01*
X94552Y484247D02*
Y485087D01*
X94692Y484247D02*
Y485087D01*
X94832Y484247D02*
Y485087D01*
X94972Y484247D02*
Y485087D01*
X95112Y484247D02*
Y485087D01*
X95252Y484247D02*
Y485087D01*
X95392Y484247D02*
Y485087D01*
X95532Y484247D02*
Y485087D01*
X95672Y484247D02*
Y485087D01*
X95812Y484247D02*
Y485087D01*
X95952Y484247D02*
Y485087D01*
X96092Y484247D02*
Y485087D01*
X96232Y484387D02*
Y485087D01*
X96372Y480887D02*
Y481167D01*
Y484527D02*
Y484947D01*
Y488027D02*
Y488447D01*
X93292Y482007D02*
Y487327D01*
X93432Y481867D02*
Y487467D01*
X93572Y481867D02*
Y487467D01*
X93712Y481867D02*
Y487467D01*
X93852Y481867D02*
Y487467D01*
X93992Y482007D02*
Y487327D01*
X93292Y488867D02*
Y492507D01*
Y494187D02*
Y494607D01*
X93432Y494047D02*
Y494747D01*
X93572Y494047D02*
Y494887D01*
X93712Y494047D02*
Y494887D01*
X93852Y494047D02*
Y494887D01*
X93992Y494047D02*
Y494887D01*
X94132Y492367D02*
Y493347D01*
Y494047D02*
Y494887D01*
X94272Y492507D02*
Y493347D01*
Y494047D02*
Y494887D01*
X94412Y492507D02*
Y493347D01*
Y494047D02*
Y494887D01*
X94552Y492647D02*
Y493487D01*
Y494047D02*
Y494887D01*
X94692Y492647D02*
Y493487D01*
Y494047D02*
Y494887D01*
X94832Y492647D02*
Y493487D01*
Y494047D02*
Y494887D01*
X94972Y492647D02*
Y493487D01*
Y494047D02*
Y494887D01*
X95112Y492647D02*
Y493487D01*
Y494047D02*
Y494887D01*
X95252Y492647D02*
Y493487D01*
Y494047D02*
Y494887D01*
X95392Y492647D02*
Y493487D01*
Y494187D02*
Y495027D01*
X95532Y492647D02*
Y493487D01*
X95672Y492647D02*
Y493487D01*
X95812Y492647D02*
Y493487D01*
X95952Y492647D02*
Y493487D01*
X96092Y492647D02*
Y493487D01*
X96232Y492647D02*
Y493347D01*
X96372Y492927D02*
Y493207D01*
X95532Y494187D02*
Y495167D01*
X93292Y499227D02*
Y499647D01*
X93432Y499087D02*
Y499787D01*
X93572Y499087D02*
Y499927D01*
X93712Y499087D02*
Y499927D01*
X93852Y499087D02*
Y499927D01*
X93992Y499087D02*
Y499927D01*
X94132Y499087D02*
Y499927D01*
X94272Y499087D02*
Y499927D01*
X94412Y499087D02*
Y499927D01*
X94552Y499087D02*
Y499927D01*
X94692Y499087D02*
Y499927D01*
X94832Y499087D02*
Y499927D01*
X94972Y499087D02*
Y499927D01*
X95112Y499087D02*
Y499787D01*
X95252Y498947D02*
Y499787D01*
X95392Y498947D02*
Y499787D01*
X95532Y498667D02*
Y499787D01*
X84332Y396047D02*
Y397587D01*
X84472Y396047D02*
Y397587D01*
X84612Y396047D02*
Y397587D01*
X84752Y396047D02*
Y397587D01*
X84892Y396047D02*
Y397587D01*
X85032Y396047D02*
Y397587D01*
X85172Y396047D02*
Y397587D01*
X86852Y396047D02*
Y397587D01*
X86992Y396047D02*
Y397587D01*
X87132Y396047D02*
Y397587D01*
X87272Y396047D02*
Y397587D01*
X87412Y396047D02*
Y397587D01*
X87552Y396047D02*
Y397587D01*
X87692Y396047D02*
Y397587D01*
X87832Y396047D02*
Y397587D01*
X87972Y396047D02*
Y397587D01*
X88112Y396047D02*
Y397587D01*
X88252Y396047D02*
Y397587D01*
X88392Y396047D02*
Y397587D01*
X88532Y396047D02*
Y397587D01*
X88672Y396047D02*
Y397587D01*
X88812Y396047D02*
Y397587D01*
X88952Y396047D02*
Y397587D01*
X89092Y396187D02*
Y397447D01*
X89232Y396327D02*
Y397307D01*
X89372Y396607D02*
Y397027D01*
X84332Y406127D02*
Y407947D01*
X84472Y406267D02*
Y407947D01*
X84612Y406407D02*
Y407947D01*
X84752Y406407D02*
Y407947D01*
X84892Y406407D02*
Y407947D01*
X85032Y406267D02*
Y407947D01*
X85172Y406127D02*
Y407947D01*
X86852Y409347D02*
Y411307D01*
X86992Y409347D02*
Y411027D01*
X87132Y409347D02*
Y411027D01*
X87272Y409347D02*
Y410887D01*
X87412Y409347D02*
Y410887D01*
X87552Y409347D02*
Y410887D01*
X87692Y409347D02*
Y410887D01*
X87832Y409347D02*
Y410887D01*
X87972Y409347D02*
Y410887D01*
X88112Y409347D02*
Y410887D01*
X88252Y409347D02*
Y410887D01*
X88392Y409347D02*
Y410887D01*
X88532Y409347D02*
Y410887D01*
X88672Y409347D02*
Y410887D01*
X88812Y409347D02*
Y410887D01*
X88952Y409347D02*
Y410887D01*
X89092Y409487D02*
Y410747D01*
X89232Y409627D02*
Y410607D01*
X89372Y409907D02*
Y410327D01*
X84332Y419427D02*
Y421247D01*
X84472Y419567D02*
Y421247D01*
X84612Y419707D02*
Y421247D01*
X84752Y419707D02*
Y421247D01*
X84892Y419707D02*
Y421247D01*
X85032Y419567D02*
Y421247D01*
X85172Y419427D02*
Y421247D01*
X87272Y416627D02*
Y420127D01*
X87412Y417047D02*
Y420267D01*
X87552Y417327D02*
Y420407D01*
X87692Y417607D02*
Y420687D01*
X87832Y417887D02*
Y420827D01*
X87972Y418167D02*
Y420967D01*
X88112Y418307D02*
Y421107D01*
X88252Y418587D02*
Y421247D01*
X88392Y418727D02*
Y421247D01*
X88532Y419007D02*
Y421247D01*
X88672Y419147D02*
Y421247D01*
X88812Y419427D02*
Y421247D01*
X88952Y419567D02*
Y421247D01*
X89092Y419847D02*
Y421107D01*
X89232Y419987D02*
Y420967D01*
X89372Y420267D02*
Y420687D01*
X85172Y422927D02*
Y424467D01*
X85312Y422787D02*
Y424467D01*
X85452Y422787D02*
Y424327D01*
X85592Y422787D02*
Y424327D01*
X85732Y422787D02*
Y424327D01*
X85872Y422787D02*
Y424327D01*
X86012Y422787D02*
Y424327D01*
X86152Y422787D02*
Y424327D01*
X86292Y422787D02*
Y424327D01*
X86432Y422787D02*
Y424327D01*
X86572Y422787D02*
Y424327D01*
X86712Y422787D02*
Y424467D01*
X86852Y422787D02*
Y424467D01*
X84472Y432867D02*
Y434967D01*
X84612Y433147D02*
Y434967D01*
X84752Y433287D02*
Y434967D01*
X84892Y433287D02*
Y435107D01*
X85032Y433427D02*
Y435107D01*
X85172Y433567D02*
Y435107D01*
X85312Y433567D02*
Y435107D01*
X85452Y433567D02*
Y435247D01*
X85592Y433567D02*
Y435247D01*
X85732Y433707D02*
Y435247D01*
X85872Y433707D02*
Y435247D01*
X86012Y433707D02*
Y435247D01*
X86152Y433707D02*
Y435247D01*
X86292Y433707D02*
Y435247D01*
X86432Y433567D02*
Y435247D01*
X86572Y433567D02*
Y435247D01*
X86712Y433567D02*
Y435107D01*
X86852Y433567D02*
Y435107D01*
Y436647D02*
Y438607D01*
X86992Y433427D02*
Y435107D01*
Y436647D02*
Y438327D01*
X87132Y433427D02*
Y435107D01*
Y436647D02*
Y438327D01*
X87272Y433287D02*
Y434967D01*
Y436647D02*
Y438187D01*
X87412Y433147D02*
Y434967D01*
Y436647D02*
Y438187D01*
X87552Y432867D02*
Y434967D01*
Y436647D02*
Y438187D01*
X87692Y436647D02*
Y438187D01*
X87832Y436647D02*
Y438187D01*
X87972Y436647D02*
Y438187D01*
X88112Y436647D02*
Y438187D01*
X88252Y436647D02*
Y438187D01*
X88392Y436647D02*
Y438187D01*
X88532Y436647D02*
Y438187D01*
X88672Y436647D02*
Y438187D01*
X88812Y436647D02*
Y438187D01*
X88952Y436647D02*
Y438187D01*
X89092Y436787D02*
Y438047D01*
X89232Y436927D02*
Y437907D01*
X89372Y437207D02*
Y437627D01*
X84332Y444207D02*
Y444627D01*
X84472Y444207D02*
Y444627D01*
X84612Y444207D02*
Y444627D01*
X84752Y444067D02*
Y444487D01*
X84892Y444067D02*
Y444487D01*
X85032Y444067D02*
Y444487D01*
X85172Y443927D02*
Y444347D01*
X86852Y443507D02*
Y443927D01*
Y445187D02*
Y445327D01*
X86992Y443367D02*
Y443927D01*
Y445187D02*
Y445327D01*
X87132Y443367D02*
Y443787D01*
X87272Y443367D02*
Y443787D01*
X87412Y443367D02*
Y443787D01*
X87552Y443227D02*
Y443647D01*
X87692Y443227D02*
Y443647D01*
X87832Y443227D02*
Y443647D01*
X87972Y443087D02*
Y443647D01*
X88112Y443087D02*
Y443507D01*
X88252Y443087D02*
Y443507D01*
X88392Y443087D02*
Y443507D01*
X88532Y442947D02*
Y443367D01*
X88672Y442947D02*
Y443367D01*
X88812Y442947D02*
Y443367D01*
X88952Y442947D02*
Y443367D01*
X89092Y442807D02*
Y443227D01*
X89232Y442807D02*
Y443227D01*
X89372Y442807D02*
Y443227D01*
X89512Y442807D02*
Y443227D01*
X89652Y442667D02*
Y443087D01*
X89792Y442667D02*
Y443087D01*
X89932Y442667D02*
Y443087D01*
X90072Y442667D02*
Y443087D01*
X82372Y444907D02*
Y445327D01*
X82512Y444907D02*
Y445327D01*
X82652Y444767D02*
Y445327D01*
X84052Y449947D02*
Y451487D01*
X84192Y449947D02*
Y451487D01*
X84332Y449947D02*
Y451487D01*
X84472Y449947D02*
Y451487D01*
X84612Y449947D02*
Y451487D01*
X84752Y449947D02*
Y451487D01*
X84892Y449947D02*
Y451487D01*
X85032Y449947D02*
Y451487D01*
X85172Y449947D02*
Y451487D01*
X85312Y449947D02*
Y451487D01*
X85452Y449947D02*
Y451487D01*
X85592Y449947D02*
Y451487D01*
X85732Y449947D02*
Y451487D01*
X85872Y449947D02*
Y451487D01*
X86012Y449947D02*
Y451487D01*
X86152Y449947D02*
Y451487D01*
X86292Y449947D02*
Y451487D01*
X86432Y449947D02*
Y451627D01*
X86572Y449947D02*
Y451627D01*
X86712Y449947D02*
Y451627D01*
X86852Y449947D02*
Y451627D01*
X86992Y450087D02*
Y451767D01*
X87132Y450087D02*
Y451907D01*
X87272Y450087D02*
Y451907D01*
X87412Y450227D02*
Y452047D01*
X87552Y450227D02*
Y452327D01*
X87692Y450227D02*
Y452607D01*
X82792Y450227D02*
Y451207D01*
X82932Y450087D02*
Y451347D01*
X83072Y449947D02*
Y451487D01*
X83212Y449947D02*
Y451487D01*
X83352Y449947D02*
Y451487D01*
X83492Y449947D02*
Y451487D01*
X83632Y449947D02*
Y451487D01*
X83772Y449947D02*
Y451487D01*
X83912Y449947D02*
Y451487D01*
X84052Y460727D02*
Y462407D01*
X84192Y460727D02*
Y462407D01*
X84332Y460727D02*
Y462407D01*
X84472Y460727D02*
Y462407D01*
X84612Y460727D02*
Y462407D01*
X84752Y460727D02*
Y462407D01*
X84892Y460727D02*
Y462407D01*
X85032Y460727D02*
Y462407D01*
X85172Y460727D02*
Y462407D01*
X85312Y460727D02*
Y462407D01*
X85452Y460727D02*
Y462407D01*
X85592Y460727D02*
Y462407D01*
X85732Y460727D02*
Y462407D01*
X85872Y460727D02*
Y462407D01*
X86012Y460727D02*
Y462407D01*
X86152Y460727D02*
Y462407D01*
X86292Y460727D02*
Y462407D01*
X86432Y460727D02*
Y462407D01*
X86572Y460727D02*
Y462407D01*
X86712Y460727D02*
Y462267D01*
X86852Y460587D02*
Y462267D01*
X86992Y460587D02*
Y462267D01*
X87132Y460447D02*
Y462267D01*
X87272Y460307D02*
Y462127D01*
X87412Y460167D02*
Y462127D01*
X87552Y460027D02*
Y462127D01*
X87692Y459747D02*
Y461987D01*
X82792Y461147D02*
Y462127D01*
X82932Y461007D02*
Y462267D01*
X83072Y460867D02*
Y462267D01*
X83212Y460867D02*
Y462407D01*
X83352Y460727D02*
Y462407D01*
X83492Y460727D02*
Y462407D01*
X83632Y460727D02*
Y462407D01*
X83772Y460727D02*
Y462407D01*
X83912Y460727D02*
Y462407D01*
X84052Y468567D02*
Y470947D01*
X84192Y468567D02*
Y470947D01*
X84332Y468427D02*
Y470947D01*
X84472Y468427D02*
Y470807D01*
X84612Y468427D02*
Y470807D01*
X84752Y468287D02*
Y470667D01*
X84892Y468287D02*
Y470667D01*
X85032Y468147D02*
Y470667D01*
X85172Y468147D02*
Y470527D01*
X85312Y468147D02*
Y470527D01*
X85452Y468007D02*
Y470387D01*
X85592Y468007D02*
Y470387D01*
X85732Y467867D02*
Y470387D01*
X85872Y467867D02*
Y470247D01*
X86012Y467867D02*
Y470247D01*
X86152Y467727D02*
Y470107D01*
X86292Y467727D02*
Y470107D01*
X86432Y467587D02*
Y470107D01*
X86572Y467587D02*
Y469967D01*
X86712Y467587D02*
Y469967D01*
X86852Y467447D02*
Y469827D01*
X86992Y467447D02*
Y469827D01*
X87132Y467307D02*
Y469827D01*
X87272Y467307D02*
Y469687D01*
X87412Y467167D02*
Y469687D01*
X87552Y467167D02*
Y469547D01*
X87692Y467167D02*
Y469547D01*
X87832Y467027D02*
Y469547D01*
X87972Y467027D02*
Y469407D01*
X88112Y466887D02*
Y469407D01*
X88252Y466887D02*
Y469267D01*
X88392Y466887D02*
Y469267D01*
X88532Y466747D02*
Y469267D01*
X88672Y466747D02*
Y469127D01*
X88812Y466607D02*
Y469127D01*
X88952Y466607D02*
Y468987D01*
X89092Y466607D02*
Y468987D01*
X89232Y466047D02*
Y468987D01*
X89372Y465767D02*
Y468847D01*
X89512Y465627D02*
Y468847D01*
X89652Y465487D02*
Y468707D01*
X89792Y465347D02*
Y468707D01*
X89932Y465207D02*
Y468707D01*
X90072Y465067D02*
Y468707D01*
X83772D02*
Y471087D01*
X83912Y468707D02*
Y471087D01*
X82372Y469267D02*
Y471647D01*
X82512Y469267D02*
Y471647D01*
X82652Y469127D02*
Y471507D01*
X82792Y469127D02*
Y471507D01*
X82932Y468987D02*
Y471507D01*
X83072Y468987D02*
Y471367D01*
X83212Y468987D02*
Y471367D01*
X83352Y468847D02*
Y471227D01*
X83492Y468847D02*
Y471227D01*
X83632Y468707D02*
Y471227D01*
X84332Y474307D02*
Y476127D01*
X84472Y474307D02*
Y475987D01*
X84612Y474307D02*
Y475847D01*
X84752Y474307D02*
Y475847D01*
X84892Y474307D02*
Y475847D01*
X85032Y474307D02*
Y475987D01*
X85172Y474307D02*
Y476127D01*
X86852Y484947D02*
Y486767D01*
X86992Y485087D02*
Y486767D01*
X87132Y485227D02*
Y486767D01*
X87272Y485227D02*
Y486767D01*
X87412Y485227D02*
Y486767D01*
X87552Y485227D02*
Y486767D01*
X87692Y485087D02*
Y486767D01*
X77752Y446727D02*
Y447147D01*
X77892Y446587D02*
Y447147D01*
X78032Y446587D02*
Y447007D01*
X78172Y446587D02*
Y447007D01*
X78312Y446447D02*
Y447007D01*
X78452Y446447D02*
Y446867D01*
X78592Y446307D02*
Y446867D01*
X78732Y446307D02*
Y446727D01*
X78872Y446307D02*
Y446727D01*
X79012Y446167D02*
Y446587D01*
X79152Y446167D02*
Y446587D01*
X79292Y446027D02*
Y446587D01*
X79432Y446027D02*
Y446447D01*
X79572Y446027D02*
Y446447D01*
X79712Y445887D02*
Y446307D01*
X79852Y445887D02*
Y446307D01*
X79992Y445747D02*
Y446307D01*
X80132Y445747D02*
Y446167D01*
X80272Y445747D02*
Y446167D01*
X80412Y445607D02*
Y446027D01*
X80552Y445607D02*
Y446027D01*
X80692Y445467D02*
Y446027D01*
X80832Y445467D02*
Y445887D01*
X80972Y445467D02*
Y445887D01*
X81112Y445327D02*
Y445887D01*
X81252Y445327D02*
Y445747D01*
X81392Y445327D02*
Y445747D01*
X81532Y445187D02*
Y445607D01*
X81672Y445187D02*
Y445607D01*
X81812Y445047D02*
Y445607D01*
X81952Y445047D02*
Y445467D01*
X82092Y445047D02*
Y445467D01*
X76072Y447427D02*
Y447987D01*
X76212Y447427D02*
Y447847D01*
X74952Y447987D02*
Y448407D01*
X75092Y447847D02*
Y448407D01*
X75232Y447847D02*
Y448267D01*
X75372Y447707D02*
Y448267D01*
X75512Y447707D02*
Y448127D01*
X75652Y447707D02*
Y448127D01*
X75792Y447567D02*
Y447987D01*
X75932Y447567D02*
Y447987D01*
X76352Y447287D02*
Y447847D01*
X76492Y447287D02*
Y447707D01*
X76632Y447147D02*
Y447707D01*
X76772Y447147D02*
Y447567D01*
X76912Y447007D02*
Y447567D01*
X77052Y447007D02*
Y447427D01*
X77192Y447007D02*
Y447427D01*
X77332Y446867D02*
Y447427D01*
X77472Y446867D02*
Y447287D01*
X77612Y446727D02*
Y447287D01*
X80552Y469967D02*
Y472347D01*
X80692Y469967D02*
Y472347D01*
X80832Y469827D02*
Y472347D01*
X80972Y469827D02*
Y472207D01*
X81112Y469827D02*
Y472207D01*
X81252Y469687D02*
Y472067D01*
X81392Y469687D02*
Y472067D01*
X81532Y469547D02*
Y472067D01*
X81672Y469547D02*
Y471927D01*
X81812Y469547D02*
Y471927D01*
X81952Y469407D02*
Y471787D01*
X82092Y469407D02*
Y471787D01*
X74392Y472767D02*
Y474447D01*
X74532Y472767D02*
Y474447D01*
X74672Y472627D02*
Y474447D01*
X74812Y472627D02*
Y474307D01*
X68092Y451627D02*
Y452047D01*
X68232Y451487D02*
Y452047D01*
X68372Y451347D02*
Y451907D01*
X68512Y451347D02*
Y451767D01*
X68652Y451207D02*
Y451767D01*
X68792Y451207D02*
Y451627D01*
X68932Y451067D02*
Y451627D01*
X69072Y451067D02*
Y451487D01*
X69212Y450927D02*
Y451487D01*
X69352Y450787D02*
Y451347D01*
X69492Y450787D02*
Y451207D01*
X69632Y450647D02*
Y451207D01*
X69772Y450647D02*
Y451067D01*
X69912Y450507D02*
Y451067D01*
X70052Y450507D02*
Y450927D01*
X70192Y450367D02*
Y450927D01*
X70332Y450367D02*
Y450787D01*
X70472Y450227D02*
Y450647D01*
X70612Y450087D02*
Y450647D01*
X70752Y450087D02*
Y450507D01*
X70892Y449947D02*
Y450507D01*
X71032Y449947D02*
Y450367D01*
X71172Y449807D02*
Y450367D01*
X71312Y449807D02*
Y450227D01*
X71452Y449667D02*
Y450227D01*
X71592Y449667D02*
Y450087D01*
X71732Y449527D02*
Y450087D01*
X71872Y449527D02*
Y449947D01*
X72012Y449387D02*
Y449947D01*
X72152Y449387D02*
Y449807D01*
X72292Y449247D02*
Y449807D01*
X72432Y449247D02*
Y449667D01*
X72572Y449107D02*
Y449667D01*
X72712Y449107D02*
Y449527D01*
X72852Y448967D02*
Y449527D01*
X72992Y448967D02*
Y449387D01*
X73132Y448827D02*
Y449387D01*
X73272Y448827D02*
Y449247D01*
X73412Y448687D02*
Y449247D01*
X73552Y448687D02*
Y449107D01*
X66412Y452607D02*
Y453167D01*
X66552Y452467D02*
Y453027D01*
X66692Y452467D02*
Y452887D01*
X66832Y452327D02*
Y452887D01*
X66972Y452187D02*
Y452747D01*
X67112Y452187D02*
Y452607D01*
X67252Y452047D02*
Y452607D01*
X67392Y452047D02*
Y452467D01*
X67532Y451907D02*
Y452467D01*
X67672Y451767D02*
Y452327D01*
X67812Y451767D02*
Y452187D01*
X67952Y451627D02*
Y452187D01*
X68092Y475007D02*
Y475427D01*
X68232Y475007D02*
Y475427D01*
X68372Y475007D02*
Y475427D01*
X68512Y475007D02*
Y475427D01*
X68652Y474867D02*
Y475287D01*
X68792Y474867D02*
Y475287D01*
X68932Y474867D02*
Y475287D01*
X69072Y474867D02*
Y475287D01*
X69212Y474867D02*
Y475287D01*
X69352Y474867D02*
Y475287D01*
X69492Y474867D02*
Y475147D01*
X69632Y474727D02*
Y475147D01*
X69772Y474727D02*
Y475147D01*
X69912Y474727D02*
Y475147D01*
X70052Y474727D02*
Y475147D01*
X70192Y474727D02*
Y475147D01*
X71452Y474587D02*
Y475007D01*
X71592Y474447D02*
Y475007D01*
X71732Y474307D02*
Y475007D01*
X71872Y474307D02*
Y475007D01*
X72012Y474167D02*
Y475007D01*
X72152Y474027D02*
Y475007D01*
X72292Y474027D02*
Y475007D01*
X72432Y473887D02*
Y475007D01*
X72572Y473747D02*
Y475007D01*
X72712Y473747D02*
Y474867D01*
X72852Y473607D02*
Y474867D01*
X72992Y473607D02*
Y474867D01*
X73132Y473467D02*
Y474867D01*
X73272Y473327D02*
Y474727D01*
X73412Y473327D02*
Y474727D01*
X73552Y473187D02*
Y474727D01*
X73692Y473187D02*
Y474727D01*
X73832Y473047D02*
Y474587D01*
X73972Y473047D02*
Y474587D01*
X74112Y472907D02*
Y474587D01*
X66412Y475287D02*
Y475567D01*
X66552Y475147D02*
Y475567D01*
X66692Y475147D02*
Y475567D01*
X66832Y475147D02*
Y475567D01*
X66972Y475147D02*
Y475567D01*
X67112Y475147D02*
Y475567D01*
X67252Y475147D02*
Y475567D01*
X67392Y475147D02*
Y475567D01*
X67532Y475147D02*
Y475567D01*
X67672Y475007D02*
Y475427D01*
X67812Y475007D02*
Y475427D01*
X67952Y475007D02*
Y475427D01*
X63332Y454707D02*
Y455127D01*
X63472Y454567D02*
Y455127D01*
X63612Y454427D02*
Y454987D01*
X63752Y454287D02*
Y454847D01*
X63892Y454287D02*
Y454847D01*
X64032Y454147D02*
Y454707D01*
X64172Y454007D02*
Y454567D01*
X64312Y454007D02*
Y454427D01*
X64452Y453867D02*
Y454427D01*
X64592Y453727D02*
Y454287D01*
X64732Y453727D02*
Y454147D01*
X64872Y453587D02*
Y454147D01*
X65012Y453447D02*
Y454007D01*
X65152Y453447D02*
Y453867D01*
X65292Y453307D02*
Y453867D01*
X65432Y453167D02*
Y453727D01*
X65572Y453167D02*
Y453587D01*
X65712Y453027D02*
Y453587D01*
X65852Y452887D02*
Y453447D01*
X65992Y452887D02*
Y453307D01*
X66132Y452747D02*
Y453307D01*
X61652Y455827D02*
Y456387D01*
X61792Y455827D02*
Y456387D01*
X61932Y455687D02*
Y456247D01*
X62072Y455547D02*
Y456107D01*
X62212Y455407D02*
Y455967D01*
X62352Y455407D02*
Y455827D01*
X62492Y455267D02*
Y455827D01*
X62632Y455127D02*
Y455687D01*
X62772Y454987D02*
Y455547D01*
X62912Y454987D02*
Y455547D01*
X63052Y454847D02*
Y455407D01*
X63192Y454707D02*
Y455267D01*
X59972Y457227D02*
Y457787D01*
X60112Y457087D02*
Y457647D01*
X60252Y456947D02*
Y457507D01*
X60392Y456807D02*
Y457367D01*
X60532Y456807D02*
Y457367D01*
X60672Y456667D02*
Y457227D01*
X58432Y458487D02*
Y459187D01*
X58572Y458347D02*
Y459047D01*
X58712Y458347D02*
Y458907D01*
X58852Y458207D02*
Y458767D01*
X58992Y458067D02*
Y458627D01*
X59132Y457927D02*
Y458487D01*
X59272Y457787D02*
Y458347D01*
X59412Y457647D02*
Y458207D01*
X59552Y457507D02*
Y458207D01*
X59692Y457367D02*
Y458067D01*
X59832Y457367D02*
Y457927D01*
X59972Y475287D02*
Y475707D01*
X60112Y475287D02*
Y475707D01*
X60252Y475287D02*
Y475707D01*
X60392Y475427D02*
Y475707D01*
X60532Y475427D02*
Y475707D01*
X60672Y475427D02*
Y475707D01*
X60812Y475427D02*
Y475847D01*
X60952Y475427D02*
Y475847D01*
X61092Y475427D02*
Y475847D01*
X61232Y475427D02*
Y475847D01*
X61372Y475427D02*
Y475847D01*
X61512Y475427D02*
Y475847D01*
X61652Y475427D02*
Y475847D01*
X61792Y475427D02*
Y475847D01*
X61932Y475427D02*
Y475847D01*
X62072Y475427D02*
Y475847D01*
X62212Y475427D02*
Y475847D01*
X62352Y475427D02*
Y475847D01*
X62492Y475427D02*
Y475847D01*
X62632Y475427D02*
Y475847D01*
X62772Y475427D02*
Y475847D01*
X62912Y475427D02*
Y475847D01*
X63052Y475427D02*
Y475847D01*
X63192Y475427D02*
Y475847D01*
X63332Y475427D02*
Y475847D01*
X63472Y475427D02*
Y475847D01*
X63612Y475427D02*
Y475847D01*
X63752Y475427D02*
Y475847D01*
X63892Y475427D02*
Y475847D01*
X64032Y475427D02*
Y475847D01*
X64172Y475427D02*
Y475847D01*
X64312Y475427D02*
Y475847D01*
X64452Y475427D02*
Y475847D01*
X64592Y475427D02*
Y475707D01*
X64732Y475427D02*
Y475707D01*
X64872Y475427D02*
Y475707D01*
X65012Y475287D02*
Y475707D01*
X65152Y475287D02*
Y475707D01*
X65292Y475287D02*
Y475707D01*
X65432Y475287D02*
Y475707D01*
X65572Y475287D02*
Y475707D01*
X65712Y475287D02*
Y475707D01*
X65852Y475287D02*
Y475707D01*
X65992Y475287D02*
Y475707D01*
X66132Y475287D02*
Y475707D01*
X58432Y475147D02*
Y475567D01*
X58572Y475147D02*
Y475567D01*
X58712Y475147D02*
Y475567D01*
X58852Y475147D02*
Y475567D01*
X58992Y475147D02*
Y475567D01*
X59132Y475147D02*
Y475567D01*
X59272Y475287D02*
Y475707D01*
X59412Y475287D02*
Y475707D01*
X59552Y475287D02*
Y475707D01*
X59692Y475287D02*
Y475707D01*
X59832Y475287D02*
Y475707D01*
X54792Y462407D02*
Y463107D01*
X54932Y462127D02*
Y462967D01*
X55072Y461987D02*
Y462687D01*
X55212Y461847D02*
Y462547D01*
X55352Y461707D02*
Y462407D01*
X55492Y461567D02*
Y462267D01*
X55632Y461287D02*
Y461987D01*
X55772Y461147D02*
Y461847D01*
X55912Y461007D02*
Y461707D01*
X56052Y460867D02*
Y461567D01*
X56192Y460727D02*
Y461427D01*
X56332Y460587D02*
Y461287D01*
X56472Y460447D02*
Y461147D01*
X56612Y460307D02*
Y461007D01*
X56752Y460167D02*
Y460727D01*
X56892Y460027D02*
Y460587D01*
X57032Y459887D02*
Y460447D01*
X57172Y459747D02*
Y460307D01*
X57312Y459607D02*
Y460167D01*
X57452Y459467D02*
Y460027D01*
X57592Y459327D02*
Y459887D01*
X57732Y459187D02*
Y459747D01*
X57872Y459047D02*
Y459607D01*
X58012Y458907D02*
Y459467D01*
X58152Y458767D02*
Y459467D01*
X53952Y463527D02*
Y464227D01*
X54092Y463247D02*
Y464087D01*
X54232Y463107D02*
Y463807D01*
X54372Y462967D02*
Y463667D01*
X54512Y462687D02*
Y463387D01*
X54652Y462547D02*
Y463247D01*
X52132Y466887D02*
Y468427D01*
X52272Y466467D02*
Y467867D01*
X52412Y466187D02*
Y467307D01*
X52552Y465907D02*
Y466887D01*
X52692Y465627D02*
Y466607D01*
X52832Y465347D02*
Y466327D01*
X52972Y465067D02*
Y465907D01*
X53112Y464787D02*
Y465627D01*
X51712Y468567D02*
Y470387D01*
X52412Y471367D02*
Y472207D01*
X51852Y467867D02*
Y470947D01*
X51992Y467307D02*
Y471367D01*
X52132Y470387D02*
Y471787D01*
X52272Y470947D02*
Y472067D01*
X53252Y472627D02*
Y473327D01*
X53392Y472767D02*
Y473467D01*
X53532Y472907D02*
Y473467D01*
X53672Y473047D02*
Y473607D01*
X53812Y473187D02*
Y473747D01*
X53952Y473327D02*
Y473887D01*
X54092Y473467D02*
Y473887D01*
X54232Y473467D02*
Y474027D01*
X54372Y473607D02*
Y474167D01*
X54512Y473747D02*
Y474167D01*
X54652Y473747D02*
Y474307D01*
X54792Y473887D02*
Y474307D01*
X54932Y473887D02*
Y474447D01*
X55072Y474027D02*
Y474447D01*
X55212Y474027D02*
Y474587D01*
X55352Y474167D02*
Y474587D01*
X55492Y474167D02*
Y474727D01*
X55632Y474307D02*
Y474727D01*
X55772Y474307D02*
Y474867D01*
X55912Y474447D02*
Y474867D01*
X56052Y474447D02*
Y474867D01*
X56192Y474447D02*
Y475007D01*
X56332Y474587D02*
Y475007D01*
X56472Y474587D02*
Y475007D01*
X56612Y474587D02*
Y475147D01*
X56752Y474727D02*
Y475147D01*
X56892Y474727D02*
Y475147D01*
X57032Y474727D02*
Y475147D01*
X57172Y474867D02*
Y475287D01*
X57312Y474867D02*
Y475287D01*
X57452Y474867D02*
Y475287D01*
X57592Y474867D02*
Y475287D01*
X57732Y475007D02*
Y475427D01*
X57872Y475007D02*
Y475427D01*
X58012Y475007D02*
Y475427D01*
X58152Y475007D02*
Y475427D01*
X521581Y184846D02*
X523961D01*
X521021Y184986D02*
X524521D01*
X522981Y185126D02*
X525081D01*
X520601D02*
X522421D01*
X523961Y185266D02*
X525501D01*
X520321D02*
X521581D01*
X524521Y185406D02*
X525781D01*
X520041D02*
X521021D01*
X524941Y185546D02*
X526201D01*
X519901D02*
X520741D01*
X525361Y185686D02*
X526481D01*
X519621D02*
X520461D01*
X525641Y185826D02*
X526761D01*
X519481D02*
X520181D01*
X526061Y185966D02*
X527041D01*
X519341D02*
X520041D01*
X526341Y186106D02*
X527181D01*
X519201D02*
X519761D01*
X526621Y186246D02*
X527461D01*
X519061D02*
X519621D01*
X526901Y186386D02*
X527741D01*
X518921D02*
X519481D01*
X527041Y186526D02*
X527881D01*
X518781D02*
X519341D01*
X527321Y186666D02*
X528161D01*
X518641D02*
X519201D01*
X527601Y186806D02*
X528441D01*
X518501D02*
X519061D01*
X527741Y186946D02*
X528581D01*
X518361D02*
X518921D01*
X528021Y187086D02*
X528721D01*
X518361D02*
X518781D01*
X528161Y187226D02*
X529001D01*
X518221D02*
X518781D01*
X528441Y187366D02*
X529141D01*
X518081D02*
X518641D01*
X528581Y187506D02*
X529421D01*
X518081D02*
X518501D01*
X528861Y187646D02*
X529561D01*
X517941D02*
X518501D01*
X529001Y187786D02*
X529701D01*
X517941D02*
X518361D01*
X529141Y187926D02*
X529841D01*
X517801D02*
X518361D01*
X529421Y188066D02*
X530121D01*
X517661D02*
X518221D01*
X529561Y188206D02*
X530261D01*
X517661D02*
X518081D01*
X529701Y188346D02*
X530401D01*
X517661D02*
X518081D01*
X529841Y188486D02*
X530541D01*
X517521D02*
X517941D01*
X529981Y188626D02*
X530681D01*
X517521D02*
X517941D01*
X530261Y188766D02*
X530821D01*
X517381D02*
X517941D01*
X530401Y188906D02*
X531101D01*
X517381D02*
X517801D01*
X530541Y189046D02*
X531241D01*
X517241D02*
X517801D01*
X530681Y189186D02*
X531381D01*
X517241D02*
X517661D01*
X530821Y189326D02*
X531521D01*
X517241D02*
X517661D01*
X530961Y189466D02*
X531661D01*
X517101D02*
X517661D01*
X531101Y189606D02*
X531801D01*
X517101D02*
X517521D01*
X531241Y189746D02*
X531941D01*
X517101D02*
X517521D01*
X531381Y189886D02*
X532081D01*
X517101D02*
X517521D01*
X531521Y190026D02*
X532221D01*
X516961D02*
X517381D01*
X531801Y190166D02*
X532361D01*
X516961D02*
X517381D01*
X531941Y190306D02*
X532501D01*
X516961D02*
X517381D01*
X532081Y190446D02*
X532641D01*
X516821D02*
X517381D01*
X532221Y190586D02*
X532781D01*
X516821D02*
X517241D01*
X532361Y190726D02*
X532921D01*
X516821D02*
X517241D01*
X532361Y190866D02*
X533061D01*
X516821D02*
X517241D01*
X532501Y191006D02*
X533201D01*
X516821D02*
X517241D01*
X532641Y191146D02*
X533341D01*
X516681D02*
X517101D01*
X532781Y191286D02*
X533481D01*
X516681D02*
X517101D01*
X532921Y191426D02*
X533621D01*
X516681D02*
X517101D01*
X533061Y191566D02*
X533761D01*
X516681D02*
X517101D01*
X533201Y191706D02*
X533761D01*
X516681D02*
X517101D01*
X533341Y191846D02*
X533901D01*
X516541D02*
X516961D01*
X533481Y191986D02*
X534041D01*
X516541D02*
X516961D01*
X533621Y192126D02*
X534181D01*
X516541D02*
X516961D01*
X533761Y192266D02*
X534321D01*
X516541D02*
X516961D01*
X533901Y192406D02*
X534461D01*
X516541D02*
X516961D01*
X533901Y192546D02*
X534601D01*
X516541D02*
X516961D01*
X534041Y192686D02*
X534601D01*
X516541D02*
X516961D01*
X534181Y192826D02*
X534741D01*
X516541D02*
X516821D01*
X534321Y192966D02*
X534881D01*
X516401D02*
X516821D01*
X534461Y193106D02*
X535021D01*
X516401D02*
X516821D01*
X534601Y193246D02*
X535161D01*
X516401D02*
X516821D01*
X534741Y193386D02*
X535301D01*
X516401D02*
X516821D01*
X534741Y193526D02*
X535301D01*
X516401D02*
X516821D01*
X534881Y193666D02*
X535441D01*
X516401D02*
X516821D01*
X535021Y193806D02*
X535581D01*
X516401D02*
X516821D01*
X535161Y193946D02*
X535721D01*
X516401D02*
X516821D01*
X535301Y194086D02*
X535861D01*
X516401D02*
X516821D01*
X535301Y194226D02*
X535861D01*
X516401D02*
X516821D01*
X535441Y194366D02*
X536001D01*
X516401D02*
X516821D01*
X535581Y194506D02*
X536141D01*
X516401D02*
X516821D01*
X535721Y194646D02*
X536281D01*
X516401D02*
X516821D01*
X535861Y194786D02*
X536281D01*
X516401D02*
X516681D01*
X535861Y194926D02*
X536421D01*
X516401D02*
X516681D01*
X536001Y195066D02*
X536561D01*
X516401D02*
X516681D01*
X536141Y195206D02*
X536701D01*
X516401D02*
X516681D01*
X536281Y195346D02*
X536701D01*
X516401D02*
X516681D01*
X536281Y195486D02*
X536841D01*
X516401D02*
X516681D01*
X536421Y195626D02*
X536981D01*
X516401D02*
X516681D01*
X536561Y195766D02*
X537121D01*
X516401D02*
X516681D01*
X536701Y195906D02*
X537121D01*
X516401D02*
X516681D01*
X536701Y196046D02*
X537261D01*
X516401D02*
X516681D01*
X536841Y196186D02*
X537401D01*
X516401D02*
X516681D01*
X536981Y196326D02*
X537541D01*
X516401D02*
X516681D01*
X536981Y196466D02*
X537541D01*
X516401D02*
X516681D01*
X537121Y196606D02*
X537681D01*
X516401D02*
X516681D01*
X537261Y196746D02*
X537821D01*
X516401D02*
X516821D01*
X537401Y196886D02*
X537821D01*
X516401D02*
X516821D01*
X537401Y197026D02*
X537961D01*
X516401D02*
X516821D01*
X537541Y197166D02*
X538101D01*
X516401D02*
X516821D01*
X537681Y197306D02*
X538101D01*
X516401D02*
X516821D01*
X537681Y197446D02*
X538241D01*
X516401D02*
X516821D01*
X537821Y197586D02*
X538381D01*
X516401D02*
X516821D01*
X537961Y197726D02*
X538381D01*
X516401D02*
X516821D01*
X537961Y197866D02*
X538521D01*
X516401D02*
X516821D01*
X538101Y198006D02*
X538661D01*
X516401D02*
X516821D01*
X538241Y198146D02*
X538661D01*
X516401D02*
X516821D01*
X538241Y198286D02*
X538801D01*
X516401D02*
X516821D01*
X538381Y198426D02*
X538941D01*
X516401D02*
X516821D01*
X538521Y198566D02*
X538941D01*
X516401D02*
X516821D01*
X538521Y198706D02*
X539081D01*
X516541D02*
X516821D01*
X538661Y198846D02*
X539221D01*
X516541D02*
X516821D01*
X538801Y198986D02*
X539221D01*
X516541D02*
X516961D01*
X538801Y199126D02*
X539361D01*
X516541D02*
X516961D01*
X538941Y199266D02*
X539501D01*
X516541D02*
X516961D01*
X539081Y199406D02*
X539501D01*
X516541D02*
X516961D01*
X539081Y199546D02*
X539641D01*
X516541D02*
X516961D01*
X539221Y199686D02*
X539781D01*
X516541D02*
X516961D01*
X539221Y199826D02*
X539781D01*
X516541D02*
X516961D01*
X539361Y199966D02*
X539921D01*
X516541D02*
X516961D01*
X570161Y200106D02*
X573941D01*
X568061D02*
X568341D01*
X563161D02*
X563581D01*
X559661D02*
X560081D01*
X556021D02*
X556301D01*
X551121D02*
X551541D01*
X539501D02*
X539921D01*
X516681D02*
X516961D01*
X569881Y200246D02*
X574361D01*
X567781D02*
X568481D01*
X563021D02*
X563721D01*
X559521D02*
X560221D01*
X555741D02*
X556441D01*
X550981D02*
X551681D01*
X539501D02*
X539781D01*
X516681D02*
X517101D01*
X569741Y200386D02*
X574501D01*
X567781D02*
X568621D01*
X563021D02*
X563861D01*
X559381D02*
X560221D01*
X555741D02*
X556581D01*
X550981D02*
X551821D01*
X516681D02*
X517101D01*
X569601Y200526D02*
X574641D01*
X567781D02*
X568621D01*
X563021D02*
X563861D01*
X559381D02*
X560221D01*
X555741D02*
X556581D01*
X550981D02*
X551821D01*
X542721D02*
X542861D01*
X516681D02*
X517101D01*
X569461Y200666D02*
X574781D01*
X567781D02*
X568621D01*
X563021D02*
X563861D01*
X559381D02*
X560221D01*
X555741D02*
X556581D01*
X550981D02*
X551821D01*
X542301D02*
X542861D01*
X516681D02*
X517101D01*
X569461Y200806D02*
X574781D01*
X567781D02*
X568621D01*
X563021D02*
X563861D01*
X559381D02*
X560221D01*
X555741D02*
X556581D01*
X550981D02*
X551821D01*
X541881D02*
X542861D01*
X516681D02*
X517101D01*
X573801Y200946D02*
X574921D01*
X569321D02*
X570301D01*
X567781D02*
X568621D01*
X563021D02*
X563861D01*
X559381D02*
X560221D01*
X555741D02*
X556581D01*
X550981D02*
X551821D01*
X541601D02*
X543001D01*
X516681D02*
X517101D01*
X574081Y201086D02*
X574921D01*
X569321D02*
X570161D01*
X567781D02*
X568621D01*
X563021D02*
X563861D01*
X559381D02*
X560221D01*
X555741D02*
X556581D01*
X550981D02*
X551821D01*
X541181D02*
X543001D01*
X516681D02*
X517101D01*
X574081Y201226D02*
X574921D01*
X569181D02*
X570021D01*
X567781D02*
X568621D01*
X563021D02*
X563861D01*
X559381D02*
X560221D01*
X555741D02*
X556581D01*
X550981D02*
X551821D01*
X540901D02*
X543001D01*
X516821D02*
X517101D01*
X574221Y201366D02*
X574921D01*
X569181D02*
X570021D01*
X567781D02*
X568621D01*
X563021D02*
X563861D01*
X559381D02*
X560221D01*
X555741D02*
X556581D01*
X550981D02*
X551821D01*
X540481D02*
X543141D01*
X516821D02*
X517241D01*
X574221Y201506D02*
X575061D01*
X569181D02*
X570021D01*
X567781D02*
X568621D01*
X563021D02*
X563861D01*
X559381D02*
X560221D01*
X555741D02*
X556581D01*
X550981D02*
X551821D01*
X540201D02*
X543141D01*
X516821D02*
X517241D01*
X574221Y201646D02*
X575061D01*
X569181D02*
X570021D01*
X567781D02*
X568621D01*
X563021D02*
X563861D01*
X559381D02*
X560221D01*
X555741D02*
X556581D01*
X550981D02*
X551821D01*
X539781D02*
X543281D01*
X516821D02*
X517241D01*
X574221Y201786D02*
X575061D01*
X569181D02*
X570021D01*
X567781D02*
X568621D01*
X563021D02*
X563861D01*
X559381D02*
X560221D01*
X555741D02*
X556581D01*
X550981D02*
X551821D01*
X539501D02*
X543281D01*
X516821D02*
X517241D01*
X574221Y201926D02*
X575061D01*
X569181D02*
X570021D01*
X567781D02*
X568621D01*
X563021D02*
X563861D01*
X559381D02*
X560221D01*
X555741D02*
X556581D01*
X550981D02*
X551821D01*
X539081D02*
X543281D01*
X516821D02*
X517241D01*
X574221Y202066D02*
X575061D01*
X569181D02*
X570021D01*
X567641D02*
X568481D01*
X563021D02*
X563861D01*
X559521D02*
X560361D01*
X555601D02*
X556441D01*
X550981D02*
X551821D01*
X538801D02*
X543421D01*
X516821D02*
X517241D01*
X574221Y202206D02*
X575061D01*
X569181D02*
X570021D01*
X567641D02*
X568481D01*
X563161D02*
X564001D01*
X559521D02*
X560361D01*
X555601D02*
X556441D01*
X551121D02*
X551961D01*
X538381D02*
X543421D01*
X516961D02*
X517381D01*
X574221Y202346D02*
X575061D01*
X569181D02*
X570021D01*
X567501D02*
X568481D01*
X563161D02*
X564141D01*
X559521D02*
X560501D01*
X555461D02*
X556441D01*
X551121D02*
X552101D01*
X538101D02*
X543421D01*
X516961D02*
X517381D01*
X574221Y202486D02*
X575061D01*
X569181D02*
X570021D01*
X563161D02*
X568341D01*
X557141D02*
X562461D01*
X551121D02*
X556301D01*
X538101D02*
X543421D01*
X516961D02*
X517381D01*
X574221Y202626D02*
X575061D01*
X569181D02*
X570021D01*
X563301D02*
X568341D01*
X557001D02*
X562601D01*
X551261D02*
X556301D01*
X538241D02*
X543561D01*
X516961D02*
X517381D01*
X574221Y202766D02*
X575061D01*
X569181D02*
X570021D01*
X563441D02*
X568201D01*
X557001D02*
X562601D01*
X551401D02*
X556161D01*
X538241D02*
X543561D01*
X516961D02*
X517381D01*
X574221Y202906D02*
X575061D01*
X569181D02*
X570021D01*
X563581D02*
X568061D01*
X557001D02*
X562601D01*
X551541D02*
X556021D01*
X538241D02*
X543561D01*
X516961D02*
X517381D01*
X574221Y203046D02*
X574921D01*
X569181D02*
X569881D01*
X563721D02*
X567921D01*
X557001D02*
X562601D01*
X551681D02*
X555881D01*
X538381D02*
X543701D01*
X517101D02*
X517521D01*
X574361Y203186D02*
X574781D01*
X569321D02*
X569741D01*
X564001D02*
X567641D01*
X557141D02*
X562461D01*
X551961D02*
X555601D01*
X538381D02*
X543701D01*
X517101D02*
X517521D01*
X538521Y203326D02*
X543701D01*
X517101D02*
X517521D01*
X538521Y203466D02*
X543701D01*
X517101D02*
X517521D01*
X538661Y203606D02*
X543841D01*
X517101D02*
X517521D01*
X538661Y203746D02*
X543841D01*
X517241D02*
X517661D01*
X538801Y203886D02*
X543841D01*
X517241D02*
X517661D01*
X538801Y204026D02*
X543841D01*
X517241D02*
X517661D01*
X538941Y204166D02*
X543841D01*
X517241D02*
X517661D01*
X538941Y204306D02*
X543981D01*
X517241D02*
X517661D01*
X539081Y204446D02*
X543981D01*
X517381D02*
X517801D01*
X539081Y204586D02*
X543981D01*
X517381D02*
X517801D01*
X539221Y204726D02*
X543981D01*
X517381D02*
X517801D01*
X539221Y204866D02*
X543981D01*
X517381D02*
X517801D01*
X539361Y205006D02*
X543981D01*
X517381D02*
X517801D01*
X539361Y205146D02*
X543981D01*
X517521D02*
X517941D01*
X539501Y205286D02*
X543981D01*
X517521D02*
X517941D01*
X539641Y205426D02*
X543981D01*
X517521D02*
X517941D01*
X539641Y205566D02*
X543981D01*
X517521D02*
X517941D01*
X539781Y205706D02*
X543981D01*
X517521D02*
X517941D01*
X539781Y205846D02*
X543981D01*
X517661D02*
X518081D01*
X539921Y205986D02*
X543981D01*
X517661D02*
X518081D01*
X540061Y206126D02*
X543981D01*
X517661D02*
X518081D01*
X540201Y206266D02*
X543981D01*
X517661D02*
X518081D01*
X540201Y206406D02*
X543841D01*
X517801D02*
X518221D01*
X540341Y206546D02*
X543841D01*
X517801D02*
X518221D01*
X540481Y206686D02*
X543841D01*
X517801D02*
X518221D01*
X540621Y206826D02*
X543841D01*
X517801D02*
X518221D01*
X540761Y206966D02*
X543981D01*
X517941D02*
X518361D01*
X565121Y207106D02*
X575201D01*
X550421D02*
X560221D01*
X540901D02*
X543981D01*
X527461D02*
X535021D01*
X517941D02*
X518361D01*
X512341D02*
X512761D01*
X500301D02*
X507861D01*
X495401D02*
X495821D01*
X485041D02*
X485461D01*
X471741D02*
X472161D01*
X564561Y207246D02*
X575481D01*
X550141D02*
X560781D01*
X541181D02*
X544121D01*
X526901D02*
X535581D01*
X517941D02*
X518361D01*
X512061D02*
X513041D01*
X499741D02*
X508421D01*
X495121D02*
X496101D01*
X484761D02*
X485741D01*
X471461D02*
X472441D01*
X564281Y207386D02*
X575621D01*
X550001D02*
X560921D01*
X541741D02*
X544121D01*
X526621D02*
X535861D01*
X517941D02*
X518361D01*
X511921D02*
X513181D01*
X499461D02*
X508701D01*
X494981D02*
X496241D01*
X484621D02*
X485881D01*
X471321D02*
X472581D01*
X564141Y207526D02*
X575621D01*
X550001D02*
X561201D01*
X541741D02*
X544121D01*
X526481D02*
X536141D01*
X518081D02*
X518501D01*
X511781D02*
X513321D01*
X499321D02*
X508981D01*
X494701D02*
X496381D01*
X484481D02*
X486021D01*
X471181D02*
X472721D01*
X564001Y207666D02*
X575761D01*
X549861D02*
X561341D01*
X541741D02*
X544261D01*
X526341D02*
X536281D01*
X518081D02*
X518501D01*
X511781D02*
X513321D01*
X499181D02*
X509121D01*
X494561D02*
X496381D01*
X484481D02*
X486021D01*
X471181D02*
X472721D01*
X563861Y207806D02*
X575761D01*
X549861D02*
X561481D01*
X541881D02*
X544261D01*
X526061D02*
X536421D01*
X518081D02*
X518501D01*
X511781D02*
X513321D01*
X498901D02*
X509261D01*
X494281D02*
X496381D01*
X484481D02*
X486021D01*
X471181D02*
X472721D01*
X563721Y207946D02*
X575761D01*
X549861D02*
X561621D01*
X541881D02*
X544401D01*
X525921D02*
X536561D01*
X518081D02*
X518501D01*
X511781D02*
X513321D01*
X498761D02*
X509401D01*
X494141D02*
X496381D01*
X484481D02*
X486021D01*
X471181D02*
X472721D01*
X563721Y208086D02*
X575761D01*
X549861D02*
X561621D01*
X542021D02*
X544401D01*
X525921D02*
X536701D01*
X518221D02*
X518641D01*
X511781D02*
X513321D01*
X498761D02*
X509541D01*
X493861D02*
X496381D01*
X484481D02*
X486021D01*
X471181D02*
X472721D01*
X563581Y208226D02*
X575621D01*
X549861D02*
X561761D01*
X542021D02*
X544401D01*
X525781D02*
X536841D01*
X518221D02*
X518641D01*
X511781D02*
X513321D01*
X498621D02*
X509681D01*
X493721D02*
X496381D01*
X484481D02*
X486021D01*
X471181D02*
X472721D01*
X563581Y208366D02*
X575621D01*
X550001D02*
X561761D01*
X542021D02*
X544541D01*
X525641D02*
X536981D01*
X518221D02*
X518641D01*
X511781D02*
X513321D01*
X498481D02*
X509821D01*
X493441D02*
X496241D01*
X484481D02*
X486021D01*
X471181D02*
X472721D01*
X563441Y208506D02*
X575481D01*
X550141D02*
X561901D01*
X542161D02*
X544541D01*
X525641D02*
X536981D01*
X518221D02*
X518781D01*
X511781D02*
X513321D01*
X498481D02*
X509821D01*
X493301D02*
X496101D01*
X484481D02*
X486021D01*
X471181D02*
X472721D01*
X563441Y208646D02*
X575201D01*
X550421D02*
X561901D01*
X542161D02*
X544681D01*
X525501D02*
X537121D01*
X518361D02*
X518781D01*
X511781D02*
X513321D01*
X498341D02*
X509961D01*
X493021D02*
X495961D01*
X484481D02*
X486021D01*
X471181D02*
X472721D01*
X563441Y208786D02*
X565121D01*
X560221D02*
X561901D01*
X542301D02*
X544681D01*
X534881D02*
X537121D01*
X525361D02*
X527741D01*
X518361D02*
X518781D01*
X511781D02*
X513321D01*
X507721D02*
X509961D01*
X498201D02*
X500441D01*
X492741D02*
X495821D01*
X484481D02*
X486021D01*
X471181D02*
X472721D01*
X563441Y208926D02*
X565121D01*
X560361D02*
X561901D01*
X542301D02*
X544681D01*
X535161D02*
X537261D01*
X525361D02*
X527461D01*
X518361D02*
X518781D01*
X511781D02*
X513321D01*
X508001D02*
X510101D01*
X498201D02*
X500161D01*
X492461D02*
X495541D01*
X484481D02*
X486021D01*
X471181D02*
X472721D01*
X563441Y209066D02*
X564981D01*
X560361D02*
X561901D01*
X542301D02*
X544821D01*
X535301D02*
X537261D01*
X525361D02*
X527181D01*
X518501D02*
X518921D01*
X511781D02*
X513321D01*
X508281D02*
X510101D01*
X498201D02*
X500021D01*
X492181D02*
X495401D01*
X484481D02*
X486021D01*
X471181D02*
X472721D01*
X563441Y209206D02*
X564981D01*
X560361D02*
X561901D01*
X542441D02*
X544821D01*
X535441D02*
X537261D01*
X525221D02*
X527041D01*
X518501D02*
X518921D01*
X511781D02*
X513321D01*
X508421D02*
X510101D01*
X498061D02*
X499881D01*
X491761D02*
X495261D01*
X484481D02*
X486021D01*
X471181D02*
X472721D01*
X563441Y209346D02*
X564981D01*
X560361D02*
X561901D01*
X542441D02*
X544961D01*
X535581D02*
X537401D01*
X525221D02*
X527041D01*
X518501D02*
X518921D01*
X511781D02*
X513461D01*
X508561D02*
X510241D01*
X498061D02*
X499741D01*
X491341D02*
X494981D01*
X484481D02*
X486161D01*
X471181D02*
X472721D01*
X563441Y209486D02*
X564981D01*
X560221D02*
X561901D01*
X542581D02*
X544961D01*
X535721D02*
X537401D01*
X525221D02*
X526901D01*
X520321D02*
X520461D01*
X518501D02*
X519061D01*
X511781D02*
X513461D01*
X508561D02*
X510241D01*
X498061D02*
X499741D01*
X490921D02*
X494841D01*
X484481D02*
X486161D01*
X471181D02*
X472721D01*
X563441Y209626D02*
X564981D01*
X560081D02*
X561901D01*
X542581D02*
X544961D01*
X535721D02*
X537401D01*
X525081D02*
X526761D01*
X520321D02*
X520461D01*
X518641D02*
X519061D01*
X511781D02*
X513741D01*
X508701D02*
X510241D01*
X497921D02*
X499601D01*
X490081D02*
X494561D01*
X484481D02*
X486441D01*
X471181D02*
X472721D01*
X563441Y209766D02*
X575061D01*
X550841D02*
X561901D01*
X542721D02*
X545101D01*
X535861D02*
X537401D01*
X525081D02*
X526761D01*
X511781D02*
X522281D01*
X508701D02*
X510241D01*
X497921D02*
X499601D01*
X484481D02*
X494981D01*
X471181D02*
X481681D01*
X563441Y209906D02*
X575201D01*
X550421D02*
X561761D01*
X542721D02*
X545101D01*
X535861D02*
X537541D01*
X525081D02*
X526761D01*
X511781D02*
X522701D01*
X508701D02*
X510381D01*
X497921D02*
X499461D01*
X484481D02*
X495401D01*
X471181D02*
X482101D01*
X563441Y210046D02*
X575341D01*
X550281D02*
X561761D01*
X542721D02*
X545241D01*
X535861D02*
X537541D01*
X525081D02*
X526761D01*
X511921D02*
X522841D01*
X508701D02*
X510381D01*
X497921D02*
X499461D01*
X484621D02*
X495541D01*
X471181D02*
X482241D01*
X563441Y210186D02*
X575341D01*
X550141D02*
X561761D01*
X542861D02*
X545241D01*
X535861D02*
X537541D01*
X525081D02*
X526621D01*
X511921D02*
X523121D01*
X508841D02*
X510381D01*
X497921D02*
X499461D01*
X484621D02*
X495821D01*
X471181D02*
X482521D01*
X563441Y210326D02*
X575341D01*
X550001D02*
X561621D01*
X542861D02*
X545241D01*
X535861D02*
X537541D01*
X525081D02*
X526621D01*
X512061D02*
X523261D01*
X508841D02*
X510381D01*
X497921D02*
X499461D01*
X484761D02*
X495961D01*
X471181D02*
X482661D01*
X563441Y210466D02*
X575341D01*
X549861D02*
X561481D01*
X543001D02*
X545381D01*
X535861D02*
X537541D01*
X525081D02*
X526621D01*
X512061D02*
X523261D01*
X508841D02*
X510381D01*
X497921D02*
X499461D01*
X484761D02*
X495961D01*
X471181D02*
X482661D01*
X563441Y210606D02*
X575341D01*
X549721D02*
X561341D01*
X543001D02*
X545381D01*
X535861D02*
X537541D01*
X525081D02*
X526621D01*
X512201D02*
X523401D01*
X508841D02*
X510381D01*
X497921D02*
X499461D01*
X484901D02*
X496101D01*
X471181D02*
X482801D01*
X563441Y210746D02*
X575341D01*
X549721D02*
X561201D01*
X543001D02*
X545521D01*
X535861D02*
X537541D01*
X525081D02*
X526621D01*
X512341D02*
X523541D01*
X508841D02*
X510381D01*
X497921D02*
X499461D01*
X485041D02*
X496241D01*
X471181D02*
X482941D01*
X563441Y210886D02*
X575341D01*
X549581D02*
X561061D01*
X543141D02*
X545521D01*
X535861D02*
X537541D01*
X525081D02*
X526621D01*
X512481D02*
X523541D01*
X508701D02*
X510381D01*
X497921D02*
X499461D01*
X485181D02*
X496241D01*
X471181D02*
X482941D01*
X563581Y211026D02*
X575201D01*
X549581D02*
X560781D01*
X543141D02*
X545521D01*
X535861D02*
X537541D01*
X525081D02*
X526621D01*
X512761D02*
X523681D01*
X508701D02*
X510381D01*
X497921D02*
X499461D01*
X485461D02*
X496381D01*
X471181D02*
X483081D01*
X563721Y211166D02*
X575061D01*
X549441D02*
X560501D01*
X543281D02*
X545661D01*
X535861D02*
X537541D01*
X525081D02*
X526621D01*
X513041D02*
X523681D01*
X508701D02*
X510241D01*
X497921D02*
X499601D01*
X485741D02*
X496381D01*
X471181D02*
X483081D01*
X549441Y211306D02*
X551261D01*
X543281D02*
X545661D01*
X535861D02*
X537541D01*
X525081D02*
X526621D01*
X521861D02*
X523681D01*
X519061D02*
X519481D01*
X508701D02*
X510241D01*
X498061D02*
X499601D01*
X494561D02*
X496381D01*
X481261D02*
X483081D01*
X471181D02*
X472721D01*
X549441Y211446D02*
X551121D01*
X543281D02*
X545801D01*
X535861D02*
X537541D01*
X525081D02*
X526621D01*
X522001D02*
X523681D01*
X519201D02*
X519621D01*
X508561D02*
X510241D01*
X498061D02*
X499741D01*
X494701D02*
X496381D01*
X481401D02*
X483081D01*
X471181D02*
X472721D01*
X549441Y211586D02*
X550981D01*
X543421D02*
X545801D01*
X535861D02*
X537541D01*
X525081D02*
X526621D01*
X522141D02*
X523681D01*
X519201D02*
X519621D01*
X508421D02*
X510241D01*
X498061D02*
X499741D01*
X494841D02*
X496381D01*
X481541D02*
X483081D01*
X471181D02*
X472721D01*
X549441Y211726D02*
X550981D01*
X543421D02*
X545801D01*
X535861D02*
X537541D01*
X525081D02*
X526621D01*
X522141D02*
X523681D01*
X519201D02*
X519621D01*
X508421D02*
X510101D01*
X498061D02*
X499881D01*
X494841D02*
X496381D01*
X481541D02*
X483081D01*
X471181D02*
X472721D01*
X549441Y211866D02*
X550981D01*
X543561D02*
X545941D01*
X535861D02*
X537541D01*
X525081D02*
X526621D01*
X522141D02*
X523681D01*
X519341D02*
X519761D01*
X508281D02*
X510101D01*
X498201D02*
X500021D01*
X494841D02*
X496381D01*
X481541D02*
X483081D01*
X471181D02*
X472721D01*
X549441Y212006D02*
X551121D01*
X543561D02*
X545941D01*
X535861D02*
X537541D01*
X525081D02*
X526621D01*
X522001D02*
X523681D01*
X519341D02*
X519761D01*
X508001D02*
X510101D01*
X498201D02*
X500301D01*
X494701D02*
X496381D01*
X481401D02*
X483081D01*
X471181D02*
X472721D01*
X549441Y212146D02*
X551261D01*
X543561D02*
X546081D01*
X535861D02*
X537541D01*
X525081D02*
X526621D01*
X521861D02*
X523681D01*
X519341D02*
X519761D01*
X507721D02*
X509961D01*
X498341D02*
X500581D01*
X494561D02*
X496381D01*
X481261D02*
X483081D01*
X471181D02*
X472721D01*
X563861Y212286D02*
X575341D01*
X549441D02*
X561061D01*
X543701D02*
X546081D01*
X535861D02*
X537541D01*
X525081D02*
X526621D01*
X512201D02*
X523681D01*
X498341D02*
X509961D01*
X484901D02*
X496381D01*
X471181D02*
X483081D01*
X563721Y212426D02*
X575481D01*
X549581D02*
X561201D01*
X543701D02*
X546081D01*
X535861D02*
X537541D01*
X525081D02*
X526621D01*
X512061D02*
X523681D01*
X498481D02*
X509821D01*
X484761D02*
X496381D01*
X471181D02*
X483081D01*
X563581Y212566D02*
X575621D01*
X549581D02*
X561341D01*
X543841D02*
X546221D01*
X535861D02*
X537541D01*
X525081D02*
X526621D01*
X511921D02*
X523541D01*
X498481D02*
X509681D01*
X484621D02*
X496241D01*
X471181D02*
X482941D01*
X563441Y212706D02*
X575761D01*
X549581D02*
X561481D01*
X543841D02*
X546221D01*
X535861D02*
X537541D01*
X525081D02*
X526621D01*
X511781D02*
X523541D01*
X498621D02*
X509681D01*
X484481D02*
X496241D01*
X471181D02*
X482941D01*
X563441Y212846D02*
X575761D01*
X549721D02*
X561481D01*
X543841D02*
X546361D01*
X535861D02*
X537541D01*
X525081D02*
X526621D01*
X511781D02*
X523401D01*
X498761D02*
X509541D01*
X484481D02*
X496101D01*
X471181D02*
X482801D01*
X563441Y212986D02*
X575761D01*
X549861D02*
X561481D01*
X543981D02*
X546361D01*
X535861D02*
X537541D01*
X525081D02*
X526621D01*
X511781D02*
X523401D01*
X498901D02*
X509401D01*
X484481D02*
X496101D01*
X471181D02*
X482801D01*
X563441Y213126D02*
X575761D01*
X549861D02*
X561481D01*
X543981D02*
X546361D01*
X535861D02*
X537541D01*
X525081D02*
X526621D01*
X511781D02*
X523261D01*
X499041D02*
X509261D01*
X484481D02*
X495961D01*
X471181D02*
X482661D01*
X563441Y213266D02*
X575761D01*
X550001D02*
X561481D01*
X544121D02*
X546501D01*
X536001D02*
X537541D01*
X525081D02*
X526621D01*
X511781D02*
X523121D01*
X499181D02*
X509121D01*
X484481D02*
X495821D01*
X471181D02*
X482521D01*
X563441Y213406D02*
X575621D01*
X550281D02*
X561481D01*
X544121D02*
X546501D01*
X536001D02*
X537401D01*
X525081D02*
X526621D01*
X511781D02*
X522981D01*
X499321D02*
X508981D01*
X484481D02*
X495681D01*
X471181D02*
X482381D01*
X563581Y213546D02*
X575621D01*
X550421D02*
X561341D01*
X544121D02*
X546641D01*
X536141D02*
X537401D01*
X525221D02*
X526481D01*
X511921D02*
X522701D01*
X499601D02*
X508701D01*
X484621D02*
X495401D01*
X471321D02*
X482101D01*
X563721Y213686D02*
X575481D01*
X550701D02*
X561201D01*
X544261D02*
X546641D01*
X536281D02*
X537261D01*
X525361D02*
X526341D01*
X512061D02*
X522421D01*
X499881D02*
X508421D01*
X484761D02*
X495121D01*
X471461D02*
X481821D01*
X544261Y213826D02*
X546641D01*
X519901D02*
X520461D01*
X544401Y213966D02*
X546781D01*
X520041D02*
X520461D01*
X544401Y214106D02*
X546781D01*
X520041D02*
X520461D01*
X544401Y214246D02*
X546921D01*
X520041D02*
X520601D01*
X544541Y214386D02*
X546921D01*
X520181D02*
X520601D01*
X544541Y214526D02*
X546921D01*
X520181D02*
X520601D01*
X544681Y214666D02*
X547061D01*
X520181D02*
X520741D01*
X544681Y214806D02*
X547061D01*
X520321D02*
X520741D01*
X544681Y214946D02*
X547201D01*
X520321D02*
X520741D01*
X544821Y215086D02*
X547201D01*
X520461D02*
X520881D01*
X544821Y215226D02*
X547201D01*
X520461D02*
X520881D01*
X544961Y215366D02*
X547341D01*
X520461D02*
X521021D01*
X544961Y215506D02*
X547341D01*
X520601D02*
X521021D01*
X544961Y215646D02*
X547481D01*
X520601D02*
X521021D01*
X545101Y215786D02*
X547481D01*
X520601D02*
X521161D01*
X545101Y215926D02*
X547481D01*
X520741D02*
X521161D01*
X545241Y216066D02*
X547621D01*
X520741D02*
X521161D01*
X545241Y216206D02*
X547621D01*
X520881D02*
X521301D01*
X545381Y216346D02*
X547621D01*
X520881D02*
X521301D01*
X545381Y216486D02*
X547761D01*
X520881D02*
X521441D01*
X545381Y216626D02*
X547761D01*
X521021D02*
X521441D01*
X545521Y216766D02*
X547901D01*
X521021D02*
X521441D01*
X545521Y216906D02*
X547901D01*
X521161D02*
X521581D01*
X545661Y217046D02*
X547901D01*
X521161D02*
X521581D01*
X545661Y217186D02*
X548041D01*
X521161D02*
X521721D01*
X545801Y217326D02*
X548041D01*
X521301D02*
X521721D01*
X545801Y217466D02*
X548041D01*
X521301D02*
X521721D01*
X545801Y217606D02*
X548181D01*
X521441D02*
X521861D01*
X545941Y217746D02*
X548181D01*
X521441D02*
X521861D01*
X545941Y217886D02*
X548181D01*
X521441D02*
X522001D01*
X546081Y218026D02*
X548321D01*
X521581D02*
X522001D01*
X546081Y218166D02*
X548321D01*
X521581D02*
X522141D01*
X546221Y218306D02*
X548321D01*
X521721D02*
X522141D01*
X546221Y218446D02*
X548461D01*
X521721D02*
X522141D01*
X546221Y218586D02*
X548461D01*
X521721D02*
X522281D01*
X546361Y218726D02*
X548601D01*
X521861D02*
X522281D01*
X546361Y218866D02*
X548601D01*
X521861D02*
X522421D01*
X546501Y219006D02*
X548601D01*
X522001D02*
X522421D01*
X546501Y219146D02*
X548741D01*
X522001D02*
X522561D01*
X546641Y219286D02*
X548741D01*
X522141D02*
X522561D01*
X546641Y219426D02*
X548741D01*
X522141D02*
X522561D01*
X546781Y219566D02*
X548881D01*
X522141D02*
X522701D01*
X546781Y219706D02*
X548881D01*
X522281D02*
X522701D01*
X546921Y219846D02*
X548881D01*
X522281D02*
X522841D01*
X546921Y219986D02*
X549021D01*
X522421D02*
X522841D01*
X547061Y220126D02*
X549021D01*
X522421D02*
X522981D01*
X547061Y220266D02*
X549021D01*
X522561D02*
X522981D01*
X547061Y220406D02*
X549161D01*
X522561D02*
X523121D01*
X547201Y220546D02*
X549161D01*
X522701D02*
X523121D01*
X547201Y220686D02*
X549161D01*
X522701D02*
X523121D01*
X547341Y220826D02*
X549301D01*
X522841D02*
X523261D01*
X547341Y220966D02*
X549301D01*
X522841D02*
X523261D01*
X547481Y221106D02*
X549301D01*
X522841D02*
X523401D01*
X547481Y221246D02*
X549301D01*
X522981D02*
X523401D01*
X547621Y221386D02*
X549441D01*
X522981D02*
X523541D01*
X547621Y221526D02*
X549441D01*
X523121D02*
X523541D01*
X547761Y221666D02*
X549441D01*
X523121D02*
X523681D01*
X547761Y221806D02*
X549581D01*
X523261D02*
X523681D01*
X547901Y221946D02*
X549581D01*
X523261D02*
X523821D01*
X547901Y222086D02*
X549581D01*
X523401D02*
X523821D01*
X548041Y222226D02*
X549721D01*
X523401D02*
X523961D01*
X548041Y222366D02*
X549721D01*
X523541D02*
X523961D01*
X548181Y222506D02*
X549721D01*
X523541D02*
X524101D01*
X548181Y222646D02*
X549721D01*
X523681D02*
X524101D01*
X548321Y222786D02*
X549861D01*
X523681D02*
X524241D01*
X548321Y222926D02*
X549861D01*
X523821D02*
X524241D01*
X548461Y223066D02*
X549861D01*
X523821D02*
X524381D01*
X548461Y223206D02*
X549861D01*
X523961D02*
X524381D01*
X548601Y223346D02*
X550001D01*
X523961D02*
X524521D01*
X548741Y223486D02*
X550001D01*
X524101D02*
X524521D01*
X548741Y223626D02*
X550001D01*
X524101D02*
X524661D01*
X548881Y223766D02*
X550001D01*
X524241D02*
X524661D01*
X548881Y223906D02*
X550141D01*
X524241D02*
X524801D01*
X549021Y224046D02*
X550141D01*
X524381D02*
X524801D01*
X549161Y224186D02*
X550141D01*
X524381D02*
X524941D01*
X549161Y224326D02*
X550141D01*
X524521D02*
X524941D01*
X549301Y224466D02*
X550141D01*
X524521D02*
X525081D01*
X549441Y224606D02*
X550141D01*
X524661D02*
X525081D01*
X549441Y224746D02*
X550141D01*
X524661D02*
X525221D01*
X549581Y224886D02*
X550141D01*
X524801D02*
X525221D01*
X549721Y225026D02*
X550141D01*
X524801D02*
X525361D01*
X524941Y225166D02*
X525361D01*
X524941Y225306D02*
X525501D01*
X525081Y225446D02*
X525501D01*
X525081Y225586D02*
X525641D01*
X525221Y225726D02*
X525641D01*
X525221Y225866D02*
X525781D01*
X525361Y226006D02*
X525781D01*
X525501Y226146D02*
X525921D01*
X549861Y226286D02*
X550281D01*
X525501D02*
X526061D01*
X549861Y226426D02*
X550281D01*
X525641D02*
X526061D01*
X549861Y226566D02*
X550281D01*
X525641D02*
X526201D01*
X549861Y226706D02*
X550281D01*
X525781D02*
X526201D01*
X549861Y226846D02*
X550281D01*
X525781D02*
X526341D01*
X550001Y226986D02*
X550281D01*
X525921D02*
X526341D01*
X550001Y227126D02*
X550421D01*
X525921D02*
X526481D01*
X550001Y227266D02*
X550421D01*
X526061D02*
X526621D01*
X550001Y227406D02*
X550421D01*
X526201D02*
X526621D01*
X550001Y227546D02*
X550421D01*
X526201D02*
X526761D01*
X550001Y227686D02*
X550421D01*
X526341D02*
X526761D01*
X550001Y227826D02*
X550421D01*
X526341D02*
X526901D01*
X550141Y227966D02*
X550561D01*
X526481D02*
X526901D01*
X550141Y228106D02*
X550561D01*
X526481D02*
X527041D01*
X550141Y228246D02*
X550561D01*
X526621D02*
X527181D01*
X550141Y228386D02*
X550561D01*
X526761D02*
X527181D01*
X550141Y228526D02*
X550561D01*
X526761D02*
X527321D01*
X550141Y228666D02*
X550561D01*
X526901D02*
X527321D01*
X550141Y228806D02*
X550561D01*
X526901D02*
X527461D01*
X550281Y228946D02*
X550701D01*
X527041D02*
X527601D01*
X550281Y229086D02*
X550701D01*
X527181D02*
X527601D01*
X550281Y229226D02*
X550701D01*
X527181D02*
X527741D01*
X550281Y229366D02*
X550701D01*
X527321D02*
X527741D01*
X550281Y229506D02*
X550701D01*
X527321D02*
X527881D01*
X550281Y229646D02*
X550701D01*
X527461D02*
X528021D01*
X550281Y229786D02*
X550701D01*
X527601D02*
X528021D01*
X550281Y229926D02*
X550701D01*
X527601D02*
X528161D01*
X550421Y230066D02*
X550701D01*
X527741D02*
X528301D01*
X550421Y230206D02*
X550841D01*
X527881D02*
X528301D01*
X550421Y230346D02*
X550841D01*
X527881D02*
X528441D01*
X550421Y230486D02*
X550841D01*
X528021D02*
X528441D01*
X550421Y230626D02*
X550841D01*
X528021D02*
X528581D01*
X550421Y230766D02*
X550841D01*
X528161D02*
X528721D01*
X550421Y230906D02*
X550841D01*
X528301D02*
X528721D01*
X550421Y231046D02*
X550841D01*
X528301D02*
X528861D01*
X550421Y231186D02*
X550841D01*
X528441D02*
X529001D01*
X550421Y231326D02*
X550841D01*
X528581D02*
X529001D01*
X550421Y231466D02*
X550841D01*
X528581D02*
X529141D01*
X550561Y231606D02*
X550841D01*
X528721D02*
X529281D01*
X550561Y231746D02*
X550841D01*
X528861D02*
X529281D01*
X550561Y231886D02*
X550841D01*
X528861D02*
X529421D01*
X550561Y232026D02*
X550981D01*
X529001D02*
X529561D01*
X550561Y232166D02*
X550981D01*
X529141D02*
X529561D01*
X550561Y232306D02*
X550981D01*
X529141D02*
X529701D01*
X550561Y232446D02*
X550981D01*
X529281D02*
X529841D01*
X550561Y232586D02*
X550981D01*
X529421D02*
X529981D01*
X550561Y232726D02*
X550981D01*
X529421D02*
X529981D01*
X550561Y232866D02*
X550981D01*
X529561D02*
X530121D01*
X550561Y233006D02*
X550981D01*
X529701D02*
X530261D01*
X550561Y233146D02*
X550981D01*
X529841D02*
X530261D01*
X550561Y233286D02*
X550981D01*
X529841D02*
X530401D01*
X550561Y233426D02*
X550981D01*
X529981D02*
X530541D01*
X550561Y233566D02*
X550981D01*
X530121D02*
X530681D01*
X550561Y233706D02*
X550981D01*
X530121D02*
X530681D01*
X550561Y233846D02*
X550981D01*
X530261D02*
X530821D01*
X550561Y233986D02*
X550981D01*
X530401D02*
X530961D01*
X550561Y234126D02*
X550981D01*
X530541D02*
X530961D01*
X550561Y234266D02*
X550981D01*
X530541D02*
X531101D01*
X550561Y234406D02*
X550981D01*
X530681D02*
X531241D01*
X550561Y234546D02*
X550981D01*
X530821D02*
X531381D01*
X550561Y234686D02*
X550981D01*
X530961D02*
X531521D01*
X550561Y234826D02*
X550981D01*
X530961D02*
X531521D01*
X550561Y234966D02*
X550981D01*
X531101D02*
X531661D01*
X550561Y235106D02*
X550981D01*
X531241D02*
X531801D01*
X550561Y235246D02*
X550981D01*
X531381D02*
X531941D01*
X550561Y235386D02*
X550981D01*
X531381D02*
X531941D01*
X550561Y235526D02*
X550981D01*
X531521D02*
X532081D01*
X550561Y235666D02*
X550981D01*
X531661D02*
X532221D01*
X550561Y235806D02*
X550841D01*
X531801D02*
X532361D01*
X550561Y235946D02*
X550841D01*
X531941D02*
X532501D01*
X550561Y236086D02*
X550841D01*
X531941D02*
X532501D01*
X550421Y236226D02*
X550841D01*
X532081D02*
X532641D01*
X550421Y236366D02*
X550841D01*
X532221D02*
X532781D01*
X550421Y236506D02*
X550841D01*
X532361D02*
X532921D01*
X550421Y236646D02*
X550841D01*
X532501D02*
X533061D01*
X550421Y236786D02*
X550841D01*
X532501D02*
X533201D01*
X550421Y236926D02*
X550841D01*
X532641D02*
X533341D01*
X550421Y237066D02*
X550841D01*
X532781D02*
X533341D01*
X550421Y237206D02*
X550841D01*
X532921D02*
X533481D01*
X550281Y237346D02*
X550701D01*
X533061D02*
X533621D01*
X550281Y237486D02*
X550701D01*
X533201D02*
X533761D01*
X550281Y237626D02*
X550701D01*
X533341D02*
X533901D01*
X550281Y237766D02*
X550701D01*
X533481D02*
X534041D01*
X550281Y237906D02*
X550701D01*
X533481D02*
X534181D01*
X550281Y238046D02*
X550701D01*
X533621D02*
X534321D01*
X550141Y238186D02*
X550561D01*
X533761D02*
X534461D01*
X550141Y238326D02*
X550561D01*
X533901D02*
X534601D01*
X550141Y238466D02*
X550561D01*
X534041D02*
X534601D01*
X550141Y238606D02*
X550561D01*
X534181D02*
X534741D01*
X550141Y238746D02*
X550561D01*
X534321D02*
X534881D01*
X550001Y238886D02*
X550421D01*
X534461D02*
X535021D01*
X550001Y239026D02*
X550421D01*
X534601D02*
X535161D01*
X550001Y239166D02*
X550421D01*
X534741D02*
X535301D01*
X550001Y239306D02*
X550421D01*
X534881D02*
X535441D01*
X549861Y239446D02*
X550281D01*
X535021D02*
X535581D01*
X549861Y239586D02*
X550281D01*
X535161D02*
X535721D01*
X549861Y239726D02*
X550281D01*
X535301D02*
X535861D01*
X549721Y239866D02*
X550281D01*
X535441D02*
X536141D01*
X549721Y240006D02*
X550141D01*
X535581D02*
X536281D01*
X549721Y240146D02*
X550141D01*
X535721D02*
X536421D01*
X549581Y240286D02*
X550141D01*
X535861D02*
X536561D01*
X549581Y240426D02*
X550001D01*
X536001D02*
X536701D01*
X549581Y240566D02*
X550001D01*
X536141D02*
X536841D01*
X549441Y240706D02*
X550001D01*
X536281D02*
X536981D01*
X549441Y240846D02*
X549861D01*
X536421D02*
X537121D01*
X549301Y240986D02*
X549861D01*
X536701D02*
X537401D01*
X549301Y241126D02*
X549721D01*
X536841D02*
X537541D01*
X549161Y241266D02*
X549721D01*
X536981D02*
X537681D01*
X549161Y241406D02*
X549581D01*
X537121D02*
X537821D01*
X549021Y241546D02*
X549581D01*
X537261D02*
X538101D01*
X549021Y241686D02*
X549441D01*
X537541D02*
X538241D01*
X548881Y241826D02*
X549441D01*
X537681D02*
X538381D01*
X548881Y241966D02*
X549301D01*
X537821D02*
X538521D01*
X548741Y242106D02*
X549301D01*
X538101D02*
X538801D01*
X548601Y242246D02*
X549161D01*
X538241D02*
X538941D01*
X548601Y242386D02*
X549021D01*
X538381D02*
X539221D01*
X548461Y242526D02*
X549021D01*
X538661D02*
X539361D01*
X548321Y242666D02*
X548881D01*
X538801D02*
X539641D01*
X548181Y242806D02*
X548741D01*
X539081D02*
X539781D01*
X548041Y242946D02*
X548601D01*
X539221D02*
X540061D01*
X547901Y243086D02*
X548601D01*
X539501D02*
X540341D01*
X547761Y243226D02*
X548461D01*
X539641D02*
X540621D01*
X547621Y243366D02*
X548321D01*
X539921D02*
X540761D01*
X547481Y243506D02*
X548181D01*
X540201D02*
X541041D01*
X547201Y243646D02*
X547901D01*
X540481D02*
X541461D01*
X547061Y243786D02*
X547761D01*
X540761D02*
X541741D01*
X546781Y243926D02*
X547621D01*
X541041D02*
X542021D01*
X546501Y244066D02*
X547341D01*
X541321D02*
X542441D01*
X546081Y244206D02*
X547201D01*
X541601D02*
X543001D01*
X545521Y244346D02*
X546921D01*
X542021D02*
X543561D01*
X542441Y244486D02*
X546501D01*
X543001Y244626D02*
X546081D01*
X543701Y244766D02*
X545521D01*
D67*
X202638Y454606D02*
X204213D01*
X202638D02*
Y455315D01*
X209173Y454606D02*
X210748D01*
Y455315D01*
Y462008D02*
Y462716D01*
X209173D02*
X210748D01*
X202638D02*
X204213D01*
X202638Y462008D02*
Y462716D01*
Y481693D02*
Y482402D01*
X204213D01*
X209173D02*
X210748D01*
Y481693D02*
Y482402D01*
Y474291D02*
Y475000D01*
X209173Y474291D02*
X210748D01*
X202638D02*
Y475000D01*
Y474291D02*
X204213D01*
X202638Y493976D02*
X204213D01*
X202638D02*
Y494685D01*
X209173Y493976D02*
X210748D01*
Y494685D01*
Y501378D02*
Y502087D01*
X209173D02*
X210748D01*
X202638D02*
X204213D01*
X202638Y501378D02*
Y502087D01*
X165472Y486221D02*
Y487323D01*
X161417D02*
X165472D01*
X153425D02*
X157480D01*
X153425Y486221D02*
Y487323D01*
Y469370D02*
Y470472D01*
Y469370D02*
X157480D01*
X165472D02*
Y470472D01*
X161417Y469370D02*
X165472D01*
D68*
X557964Y582563D02*
Y579546D01*
X559473Y581054D02*
X556455D01*
M02*
