G04*
G04 #@! TF.GenerationSoftware,Altium Limited,Altium Designer,20.0.10 (225)*
G04*
G04 Layer_Color=8388736*
%FSLAX25Y25*%
%MOIN*%
G70*
G01*
G75*
%ADD36C,0.03937*%
%ADD69R,0.02296X0.02178*%
%ADD70R,0.06312X0.05524*%
%ADD71R,0.09383X0.07099*%
%ADD72R,0.09461X0.07099*%
%ADD73R,0.05524X0.06312*%
%ADD74O,0.06509X0.03162*%
%ADD75R,0.03280X0.04068*%
%ADD76R,0.03123X0.02572*%
%ADD77R,0.05131X0.05524*%
%ADD78R,0.04737X0.08674*%
%ADD79R,0.02178X0.03084*%
%ADD80R,0.03084X0.02178*%
G04:AMPARAMS|DCode=81|XSize=63.12mil|YSize=55.24mil|CornerRadius=0mil|HoleSize=0mil|Usage=FLASHONLY|Rotation=225.000|XOffset=0mil|YOffset=0mil|HoleType=Round|Shape=Rectangle|*
%AMROTATEDRECTD81*
4,1,4,0.00278,0.04185,0.04185,0.00278,-0.00278,-0.04185,-0.04185,-0.00278,0.00278,0.04185,0.0*
%
%ADD81ROTATEDRECTD81*%

G04:AMPARAMS|DCode=82|XSize=17.84mil|YSize=69.02mil|CornerRadius=0mil|HoleSize=0mil|Usage=FLASHONLY|Rotation=45.000|XOffset=0mil|YOffset=0mil|HoleType=Round|Shape=Round|*
%AMOVALD82*
21,1,0.05118,0.01784,0.00000,0.00000,135.0*
1,1,0.01784,0.01810,-0.01810*
1,1,0.01784,-0.01810,0.01810*
%
%ADD82OVALD82*%

G04:AMPARAMS|DCode=83|XSize=17.84mil|YSize=69.02mil|CornerRadius=0mil|HoleSize=0mil|Usage=FLASHONLY|Rotation=315.000|XOffset=0mil|YOffset=0mil|HoleType=Round|Shape=Round|*
%AMOVALD83*
21,1,0.05118,0.01784,0.00000,0.00000,45.0*
1,1,0.01784,-0.01810,-0.01810*
1,1,0.01784,0.01810,0.01810*
%
%ADD83OVALD83*%

G04:AMPARAMS|DCode=84|XSize=63.12mil|YSize=55.24mil|CornerRadius=0mil|HoleSize=0mil|Usage=FLASHONLY|Rotation=315.000|XOffset=0mil|YOffset=0mil|HoleType=Round|Shape=Rectangle|*
%AMROTATEDRECTD84*
4,1,4,-0.04185,0.00278,-0.00278,0.04185,0.04185,-0.00278,0.00278,-0.04185,-0.04185,0.00278,0.0*
%
%ADD84ROTATEDRECTD84*%

%ADD85R,0.08674X0.22453*%
%ADD86R,0.07099X0.09383*%
%ADD87R,0.07099X0.09461*%
%ADD88R,0.05524X0.05131*%
%ADD89R,0.19619X0.13202*%
G04:AMPARAMS|DCode=90|XSize=224.53mil|YSize=86.74mil|CornerRadius=0mil|HoleSize=0mil|Usage=FLASHONLY|Rotation=45.000|XOffset=0mil|YOffset=0mil|HoleType=Round|Shape=Rectangle|*
%AMROTATEDRECTD90*
4,1,4,-0.04872,-0.11005,-0.11005,-0.04872,0.04872,0.11005,0.11005,0.04872,-0.04872,-0.11005,0.0*
%
%ADD90ROTATEDRECTD90*%

%ADD91R,0.03950X0.06706*%
%ADD92R,0.06509X0.08674*%
%ADD93R,0.02414X0.04698*%
%ADD94R,0.02414X0.03792*%
%ADD95R,0.04698X0.07591*%
%ADD96C,0.06706*%
%ADD97R,0.06706X0.06706*%
%ADD98R,0.06890X0.06890*%
%ADD99C,0.06890*%
%ADD100C,0.04737*%
%ADD101R,0.06706X0.06706*%
%ADD102C,0.06312*%
%ADD103C,0.05800*%
%ADD104C,0.32296*%
%ADD105C,0.07296*%
%ADD106R,0.07296X0.07296*%
%ADD107C,0.31890*%
%ADD108C,0.14173*%
%ADD109C,0.06394*%
%ADD110C,0.12394*%
%ADD111C,0.07099*%
%ADD112C,0.09400*%
D36*
Y316929D02*
Y635827D01*
X316929D01*
X0Y0D02*
Y318898D01*
Y0D02*
X635827D01*
Y318898D01*
X318898Y635827D02*
X318898Y0D01*
X318898Y635827D02*
X635827D01*
Y316929D02*
Y635827D01*
X0Y318898D02*
X635827D01*
D69*
X209705Y460630D02*
D03*
Y458661D02*
D03*
Y456693D02*
D03*
X207677Y455650D02*
D03*
X205709D02*
D03*
X203681Y456693D02*
D03*
Y458661D02*
D03*
Y460630D02*
D03*
X205709Y461673D02*
D03*
X207677D02*
D03*
Y481358D02*
D03*
X205709D02*
D03*
X203681Y480315D02*
D03*
Y478346D02*
D03*
Y476378D02*
D03*
X205709Y475335D02*
D03*
X207677D02*
D03*
X209705Y476378D02*
D03*
Y478346D02*
D03*
Y480315D02*
D03*
Y500000D02*
D03*
Y498032D02*
D03*
Y496063D02*
D03*
X207677Y495020D02*
D03*
X205709D02*
D03*
X203681Y496063D02*
D03*
Y498032D02*
D03*
Y500000D02*
D03*
X205709Y501043D02*
D03*
X207677D02*
D03*
D70*
X297244Y580315D02*
D03*
Y573228D02*
D03*
X261811Y580315D02*
D03*
Y573228D02*
D03*
X218504Y525984D02*
D03*
Y533071D02*
D03*
X104331Y592126D02*
D03*
Y585039D02*
D03*
X104331Y565354D02*
D03*
Y572441D02*
D03*
X80709Y541732D02*
D03*
Y548819D02*
D03*
X80709Y588189D02*
D03*
Y581102D02*
D03*
X230315Y501575D02*
D03*
Y494488D02*
D03*
X250000Y501575D02*
D03*
Y494488D02*
D03*
X230315Y477953D02*
D03*
Y470866D02*
D03*
X250000Y477953D02*
D03*
Y470866D02*
D03*
X230315Y454331D02*
D03*
Y447244D02*
D03*
X250000Y454331D02*
D03*
Y447244D02*
D03*
X116142Y411811D02*
D03*
Y418898D02*
D03*
X179134Y477953D02*
D03*
Y470866D02*
D03*
X535433Y430709D02*
D03*
Y423622D02*
D03*
X372441Y594882D02*
D03*
Y587795D02*
D03*
X372441Y624409D02*
D03*
Y617323D02*
D03*
X482283Y556299D02*
D03*
Y549213D02*
D03*
X472441Y556299D02*
D03*
Y549213D02*
D03*
X429528Y405118D02*
D03*
Y398031D02*
D03*
X401968Y405118D02*
D03*
Y398031D02*
D03*
X392913Y405118D02*
D03*
Y398031D02*
D03*
X375984Y351969D02*
D03*
Y344882D02*
D03*
X451772Y352953D02*
D03*
Y345866D02*
D03*
X476378Y386614D02*
D03*
Y379528D02*
D03*
X510236Y379528D02*
D03*
Y386614D02*
D03*
X501181Y379528D02*
D03*
Y386614D02*
D03*
X535433Y386614D02*
D03*
Y379528D02*
D03*
X617323Y399213D02*
D03*
Y406299D02*
D03*
X556299Y411417D02*
D03*
Y404331D02*
D03*
X372047Y537795D02*
D03*
Y544882D02*
D03*
X545276Y379528D02*
D03*
Y386614D02*
D03*
X474409Y145276D02*
D03*
Y138189D02*
D03*
X474409Y124016D02*
D03*
Y116929D02*
D03*
X446850Y244488D02*
D03*
Y251575D02*
D03*
X427165Y251575D02*
D03*
Y244488D02*
D03*
X397638Y244488D02*
D03*
Y251575D02*
D03*
X377953Y251575D02*
D03*
Y244488D02*
D03*
X521654Y101969D02*
D03*
Y94882D02*
D03*
X501968Y101969D02*
D03*
Y94882D02*
D03*
D71*
X74429Y620079D02*
D03*
D72*
X110610D02*
D03*
D73*
X104724Y604331D02*
D03*
X111811D02*
D03*
X80315Y604331D02*
D03*
X73228D02*
D03*
X285039Y391732D02*
D03*
X277953D02*
D03*
X258268Y415354D02*
D03*
X265354D02*
D03*
X308661Y450787D02*
D03*
X301575D02*
D03*
X308661Y403543D02*
D03*
X301575D02*
D03*
X33858Y564961D02*
D03*
X40945D02*
D03*
X151969Y437514D02*
D03*
X159055D02*
D03*
X194488Y419291D02*
D03*
X187402D02*
D03*
X155905Y454724D02*
D03*
X162992D02*
D03*
X579528Y577953D02*
D03*
X572441D02*
D03*
X579528Y561417D02*
D03*
X572441D02*
D03*
X572441Y569685D02*
D03*
X579528D02*
D03*
X621260Y580315D02*
D03*
X614173D02*
D03*
X438976Y542520D02*
D03*
X446063D02*
D03*
X438976Y532677D02*
D03*
X446063D02*
D03*
X596850Y393307D02*
D03*
X603937D02*
D03*
D74*
X256791Y525965D02*
D03*
Y530965D02*
D03*
Y535965D02*
D03*
Y540965D02*
D03*
X235335Y525965D02*
D03*
Y530965D02*
D03*
Y535965D02*
D03*
Y540965D02*
D03*
X568996Y421240D02*
D03*
Y426240D02*
D03*
Y431240D02*
D03*
Y436240D02*
D03*
X547539Y421240D02*
D03*
Y426240D02*
D03*
Y431240D02*
D03*
Y436240D02*
D03*
D75*
X179587Y419291D02*
D03*
X170807D02*
D03*
D76*
X131673D02*
D03*
X139980D02*
D03*
D77*
X151378D02*
D03*
X159646D02*
D03*
X309252Y435039D02*
D03*
X300984D02*
D03*
X309252Y419291D02*
D03*
X300984D02*
D03*
D78*
X194882Y338660D02*
D03*
X188976D02*
D03*
X183071D02*
D03*
X177165D02*
D03*
X171260D02*
D03*
X165354D02*
D03*
X159449D02*
D03*
X153543D02*
D03*
X147638D02*
D03*
X141732D02*
D03*
Y401652D02*
D03*
X147638D02*
D03*
X153543D02*
D03*
X159449D02*
D03*
X165354D02*
D03*
X171260D02*
D03*
X177165D02*
D03*
X183071D02*
D03*
X188976D02*
D03*
X194882D02*
D03*
D79*
X159449Y470827D02*
D03*
Y485866D02*
D03*
D80*
X154882Y472441D02*
D03*
Y474409D02*
D03*
Y476378D02*
D03*
Y478346D02*
D03*
Y480315D02*
D03*
Y482283D02*
D03*
Y484252D02*
D03*
X164016D02*
D03*
Y482283D02*
D03*
Y480315D02*
D03*
Y478346D02*
D03*
Y476378D02*
D03*
Y474409D02*
D03*
Y472441D02*
D03*
D81*
X149069Y563529D02*
D03*
X154080Y558518D02*
D03*
X180565Y547781D02*
D03*
X185576Y542770D02*
D03*
X172691Y539907D02*
D03*
X177702Y534896D02*
D03*
X138332Y495526D02*
D03*
X133321Y500537D02*
D03*
X455762Y449356D02*
D03*
X460773Y444345D02*
D03*
X482427Y513242D02*
D03*
X477416Y518254D02*
D03*
X474553Y505369D02*
D03*
X469542Y510380D02*
D03*
D82*
X136214Y548388D02*
D03*
X134822Y546996D02*
D03*
X133430Y545605D02*
D03*
X132038Y544213D02*
D03*
X130647Y542821D02*
D03*
X129255Y541429D02*
D03*
X127863Y540037D02*
D03*
X126471Y538645D02*
D03*
X125079Y537253D02*
D03*
X123687Y535861D02*
D03*
X122295Y534469D02*
D03*
X120903Y533077D02*
D03*
X143313Y510667D02*
D03*
X144705Y512059D02*
D03*
X146097Y513451D02*
D03*
X147489Y514843D02*
D03*
X148881Y516234D02*
D03*
X150273Y517626D02*
D03*
X151665Y519018D02*
D03*
X153057Y520410D02*
D03*
X154449Y521802D02*
D03*
X155841Y523194D02*
D03*
X157233Y524586D02*
D03*
X158625Y525978D02*
D03*
X460624Y497207D02*
D03*
X459232Y495815D02*
D03*
X457840Y494423D02*
D03*
X456448Y493032D02*
D03*
X455056Y491640D02*
D03*
X453664Y490248D02*
D03*
X452272Y488856D02*
D03*
X450880Y487464D02*
D03*
X449488Y486072D02*
D03*
X448096Y484680D02*
D03*
X446704Y483288D02*
D03*
X445312Y481896D02*
D03*
X467723Y459486D02*
D03*
X469115Y460878D02*
D03*
X470507Y462269D02*
D03*
X471899Y463661D02*
D03*
X473290Y465053D02*
D03*
X474682Y466445D02*
D03*
X476074Y467837D02*
D03*
X477466Y469229D02*
D03*
X478858Y470621D02*
D03*
X480250Y472013D02*
D03*
X481642Y473405D02*
D03*
X483034Y474797D02*
D03*
D83*
X120903Y525978D02*
D03*
X122295Y524586D02*
D03*
X123687Y523194D02*
D03*
X125079Y521802D02*
D03*
X126471Y520410D02*
D03*
X127863Y519018D02*
D03*
X129255Y517626D02*
D03*
X130647Y516234D02*
D03*
X132038Y514843D02*
D03*
X133430Y513451D02*
D03*
X134822Y512059D02*
D03*
X136214Y510667D02*
D03*
X158625Y533077D02*
D03*
X157233Y534469D02*
D03*
X155841Y535861D02*
D03*
X154449Y537253D02*
D03*
X153057Y538645D02*
D03*
X151665Y540037D02*
D03*
X150273Y541429D02*
D03*
X148881Y542821D02*
D03*
X147489Y544213D02*
D03*
X146097Y545605D02*
D03*
X144705Y546996D02*
D03*
X143313Y548388D02*
D03*
X445312Y474797D02*
D03*
X446704Y473405D02*
D03*
X448096Y472013D02*
D03*
X449488Y470621D02*
D03*
X450880Y469229D02*
D03*
X452272Y467837D02*
D03*
X453664Y466445D02*
D03*
X455056Y465053D02*
D03*
X456448Y463661D02*
D03*
X457840Y462269D02*
D03*
X459232Y460878D02*
D03*
X460624Y459486D02*
D03*
X483034Y481896D02*
D03*
X481642Y483288D02*
D03*
X480250Y484680D02*
D03*
X478858Y486072D02*
D03*
X477466Y487464D02*
D03*
X476074Y488856D02*
D03*
X474682Y490248D02*
D03*
X473290Y491640D02*
D03*
X471899Y493032D02*
D03*
X470507Y494423D02*
D03*
X469115Y495815D02*
D03*
X467723Y497207D02*
D03*
D84*
X105762Y534896D02*
D03*
X110773Y539907D02*
D03*
X404868Y546206D02*
D03*
X399857Y541195D02*
D03*
X378597Y520329D02*
D03*
X383608Y525340D02*
D03*
X491983Y467180D02*
D03*
X496994Y472191D02*
D03*
X437939Y495419D02*
D03*
X432928Y490408D02*
D03*
D85*
X64961Y542323D02*
D03*
Y579724D02*
D03*
D86*
X390158Y623209D02*
D03*
D87*
Y587028D02*
D03*
D88*
X627165Y444291D02*
D03*
Y436024D02*
D03*
Y481693D02*
D03*
Y473425D02*
D03*
Y519095D02*
D03*
Y510827D02*
D03*
Y550197D02*
D03*
Y558464D02*
D03*
Y398622D02*
D03*
Y406890D02*
D03*
D89*
X544882Y574882D02*
D03*
Y452677D02*
D03*
D90*
X391107Y507249D02*
D03*
X417554Y533696D02*
D03*
D91*
X427953Y352559D02*
D03*
X423622D02*
D03*
X419291D02*
D03*
X414961D02*
D03*
X410630D02*
D03*
X406299D02*
D03*
X401968D02*
D03*
X397638D02*
D03*
D92*
X388287Y375000D02*
D03*
X442421D02*
D03*
X388287Y342323D02*
D03*
X442421D02*
D03*
D93*
X90591Y262067D02*
D03*
X93189D02*
D03*
X95787D02*
D03*
X98386D02*
D03*
X163425D02*
D03*
X166024D02*
D03*
X168622D02*
D03*
X171221D02*
D03*
D94*
X98386Y273819D02*
D03*
X95787D02*
D03*
X93189D02*
D03*
X90591D02*
D03*
X171221D02*
D03*
X168622D02*
D03*
X166024D02*
D03*
X163425D02*
D03*
D95*
X92097Y269911D02*
D03*
X96880D02*
D03*
X164931D02*
D03*
X169715D02*
D03*
D96*
X273622Y580709D02*
D03*
X133701Y608268D02*
D03*
X153701D02*
D03*
X163701D02*
D03*
X143701D02*
D03*
X255748Y431102D02*
D03*
X92520Y572835D02*
D03*
X246063Y608268D02*
D03*
X33965Y553650D02*
D03*
Y545776D02*
D03*
Y537902D02*
D03*
Y530028D02*
D03*
Y522154D02*
D03*
Y514280D02*
D03*
Y506405D02*
D03*
Y498531D02*
D03*
Y490658D02*
D03*
Y482784D02*
D03*
Y474909D02*
D03*
Y467035D02*
D03*
Y459161D02*
D03*
Y451287D02*
D03*
Y443413D02*
D03*
Y435539D02*
D03*
Y427665D02*
D03*
Y419791D02*
D03*
Y411917D02*
D03*
Y404043D02*
D03*
X41839Y545776D02*
D03*
Y537902D02*
D03*
Y530028D02*
D03*
Y522154D02*
D03*
Y514280D02*
D03*
Y506405D02*
D03*
Y498531D02*
D03*
Y490658D02*
D03*
Y482784D02*
D03*
Y474909D02*
D03*
Y467035D02*
D03*
Y459161D02*
D03*
Y451287D02*
D03*
Y443413D02*
D03*
Y435539D02*
D03*
Y427665D02*
D03*
Y419791D02*
D03*
Y411917D02*
D03*
Y404043D02*
D03*
X285933D02*
D03*
Y411917D02*
D03*
Y419791D02*
D03*
Y427665D02*
D03*
Y435539D02*
D03*
Y443413D02*
D03*
Y451287D02*
D03*
Y459161D02*
D03*
Y467035D02*
D03*
Y474909D02*
D03*
Y482784D02*
D03*
Y490658D02*
D03*
Y498531D02*
D03*
Y506405D02*
D03*
Y514280D02*
D03*
Y522154D02*
D03*
Y530028D02*
D03*
Y537902D02*
D03*
Y545776D02*
D03*
Y553650D02*
D03*
X278059Y411917D02*
D03*
Y419791D02*
D03*
Y427665D02*
D03*
Y435539D02*
D03*
Y443413D02*
D03*
Y451287D02*
D03*
Y459161D02*
D03*
Y467035D02*
D03*
Y474909D02*
D03*
Y482784D02*
D03*
Y490658D02*
D03*
Y498531D02*
D03*
Y506405D02*
D03*
Y514280D02*
D03*
Y522154D02*
D03*
Y530028D02*
D03*
Y537902D02*
D03*
Y545776D02*
D03*
Y553650D02*
D03*
X360236Y403543D02*
D03*
Y411417D02*
D03*
Y419291D02*
D03*
Y427165D02*
D03*
Y435039D02*
D03*
Y442913D02*
D03*
Y450787D02*
D03*
Y458661D02*
D03*
Y466535D02*
D03*
Y474409D02*
D03*
Y482283D02*
D03*
Y490158D02*
D03*
Y498032D02*
D03*
Y505905D02*
D03*
Y513779D02*
D03*
Y521654D02*
D03*
Y529528D02*
D03*
Y537402D02*
D03*
Y545276D02*
D03*
X352362Y403543D02*
D03*
Y411417D02*
D03*
Y419291D02*
D03*
Y427165D02*
D03*
Y435039D02*
D03*
Y442913D02*
D03*
Y450787D02*
D03*
Y458661D02*
D03*
Y466535D02*
D03*
Y474409D02*
D03*
Y482283D02*
D03*
Y490158D02*
D03*
Y498032D02*
D03*
Y505905D02*
D03*
Y513779D02*
D03*
Y521654D02*
D03*
Y529528D02*
D03*
Y537402D02*
D03*
Y545276D02*
D03*
Y553150D02*
D03*
X596457D02*
D03*
Y545276D02*
D03*
Y537402D02*
D03*
Y529528D02*
D03*
Y521654D02*
D03*
Y513779D02*
D03*
Y505905D02*
D03*
Y498032D02*
D03*
Y490158D02*
D03*
Y482283D02*
D03*
Y474409D02*
D03*
Y466535D02*
D03*
Y458661D02*
D03*
Y450787D02*
D03*
Y442913D02*
D03*
Y435039D02*
D03*
Y427165D02*
D03*
Y419291D02*
D03*
Y411417D02*
D03*
X604331Y553150D02*
D03*
Y545276D02*
D03*
Y537402D02*
D03*
Y529528D02*
D03*
Y521654D02*
D03*
Y513779D02*
D03*
Y505905D02*
D03*
Y498032D02*
D03*
Y490158D02*
D03*
Y482283D02*
D03*
Y474409D02*
D03*
Y466535D02*
D03*
Y458661D02*
D03*
Y450787D02*
D03*
Y442913D02*
D03*
Y435039D02*
D03*
Y427165D02*
D03*
Y419291D02*
D03*
Y411417D02*
D03*
Y403543D02*
D03*
X392677Y453543D02*
D03*
X460000Y600000D02*
D03*
X450000D02*
D03*
X440000D02*
D03*
X520236Y607874D02*
D03*
X510236D02*
D03*
X500236D02*
D03*
X490236D02*
D03*
X553780Y608268D02*
D03*
X482677Y565748D02*
D03*
X456299Y532677D02*
D03*
X569921Y404331D02*
D03*
X352862Y234752D02*
D03*
Y226878D02*
D03*
Y219004D02*
D03*
Y211130D02*
D03*
Y203256D02*
D03*
Y195382D02*
D03*
Y187508D02*
D03*
Y179634D02*
D03*
Y171760D02*
D03*
Y163886D02*
D03*
Y156012D02*
D03*
Y148138D02*
D03*
Y140264D02*
D03*
Y132390D02*
D03*
Y124516D02*
D03*
Y116642D02*
D03*
Y108768D02*
D03*
Y100894D02*
D03*
Y93020D02*
D03*
Y85146D02*
D03*
X360736Y226878D02*
D03*
Y219004D02*
D03*
Y211130D02*
D03*
Y203256D02*
D03*
Y195382D02*
D03*
Y187508D02*
D03*
Y179634D02*
D03*
Y171760D02*
D03*
Y163886D02*
D03*
Y156012D02*
D03*
Y148138D02*
D03*
Y140264D02*
D03*
Y132390D02*
D03*
Y124516D02*
D03*
Y116642D02*
D03*
Y108768D02*
D03*
Y100894D02*
D03*
Y93020D02*
D03*
Y85146D02*
D03*
X604831D02*
D03*
Y93020D02*
D03*
Y100894D02*
D03*
Y108768D02*
D03*
Y116642D02*
D03*
Y124516D02*
D03*
Y132390D02*
D03*
Y140264D02*
D03*
Y148138D02*
D03*
Y156012D02*
D03*
Y163886D02*
D03*
Y171760D02*
D03*
Y179634D02*
D03*
Y187508D02*
D03*
Y195382D02*
D03*
Y203256D02*
D03*
Y211130D02*
D03*
Y219004D02*
D03*
Y226878D02*
D03*
Y234752D02*
D03*
X596957Y93020D02*
D03*
Y100894D02*
D03*
Y108768D02*
D03*
Y116642D02*
D03*
Y124516D02*
D03*
Y132390D02*
D03*
Y140264D02*
D03*
Y148138D02*
D03*
Y156012D02*
D03*
Y163886D02*
D03*
Y171760D02*
D03*
Y179634D02*
D03*
Y187508D02*
D03*
Y195382D02*
D03*
Y203256D02*
D03*
Y211130D02*
D03*
Y219004D02*
D03*
Y226878D02*
D03*
Y234752D02*
D03*
X555118Y139764D02*
D03*
X278098Y234752D02*
D03*
Y226878D02*
D03*
Y219004D02*
D03*
Y211130D02*
D03*
Y203256D02*
D03*
Y195382D02*
D03*
Y187508D02*
D03*
Y179634D02*
D03*
Y171760D02*
D03*
Y163886D02*
D03*
Y156012D02*
D03*
Y148138D02*
D03*
Y140264D02*
D03*
Y132390D02*
D03*
Y124516D02*
D03*
Y116642D02*
D03*
Y108768D02*
D03*
Y100894D02*
D03*
Y93020D02*
D03*
X285972Y234752D02*
D03*
Y226878D02*
D03*
Y219004D02*
D03*
Y211130D02*
D03*
Y203256D02*
D03*
Y195382D02*
D03*
Y187508D02*
D03*
Y179634D02*
D03*
Y171760D02*
D03*
Y163886D02*
D03*
Y156012D02*
D03*
Y148138D02*
D03*
Y140264D02*
D03*
Y132390D02*
D03*
Y124516D02*
D03*
Y116642D02*
D03*
Y108768D02*
D03*
Y100894D02*
D03*
Y93020D02*
D03*
Y85146D02*
D03*
X41878D02*
D03*
Y93020D02*
D03*
Y100894D02*
D03*
Y108768D02*
D03*
Y116642D02*
D03*
Y124516D02*
D03*
Y132390D02*
D03*
Y140264D02*
D03*
Y148138D02*
D03*
Y156012D02*
D03*
Y163886D02*
D03*
Y171760D02*
D03*
Y179634D02*
D03*
Y187508D02*
D03*
Y195382D02*
D03*
Y203256D02*
D03*
Y211130D02*
D03*
Y219004D02*
D03*
Y226878D02*
D03*
X34004Y85146D02*
D03*
Y93020D02*
D03*
Y100894D02*
D03*
Y108768D02*
D03*
Y116642D02*
D03*
Y124516D02*
D03*
Y132390D02*
D03*
Y140264D02*
D03*
Y148138D02*
D03*
Y156012D02*
D03*
Y163886D02*
D03*
Y171760D02*
D03*
Y179634D02*
D03*
Y187508D02*
D03*
Y195382D02*
D03*
Y203256D02*
D03*
Y211130D02*
D03*
Y219004D02*
D03*
Y226878D02*
D03*
Y234752D02*
D03*
X173130Y254626D02*
D03*
X156299Y257874D02*
D03*
X58661Y238386D02*
D03*
X184646Y236024D02*
D03*
X83563Y258169D02*
D03*
X100098Y254626D02*
D03*
D97*
X283622Y580709D02*
D03*
X173701Y608268D02*
D03*
X265748Y431102D02*
D03*
X256063Y608268D02*
D03*
X382677Y453543D02*
D03*
X430000Y600000D02*
D03*
X530236Y607874D02*
D03*
X563779Y608268D02*
D03*
X472677Y565748D02*
D03*
X579921Y404331D02*
D03*
D98*
X194685Y600394D02*
D03*
X104528Y356299D02*
D03*
X568898Y281496D02*
D03*
X407480Y37402D02*
D03*
X462598D02*
D03*
X521850D02*
D03*
X513779Y303150D02*
D03*
X377795Y281496D02*
D03*
X574961Y15748D02*
D03*
X426969Y280906D02*
D03*
X468347Y303150D02*
D03*
X145197Y303150D02*
D03*
X70866Y301181D02*
D03*
X110236D02*
D03*
X202598D02*
D03*
X240158D02*
D03*
D99*
X224410Y600394D02*
D03*
X204685D02*
D03*
X214567D02*
D03*
X74803Y356299D02*
D03*
X94528D02*
D03*
X84646D02*
D03*
X64803D02*
D03*
X54803D02*
D03*
X578898Y281496D02*
D03*
X397480Y37402D02*
D03*
X387598D02*
D03*
X452598D02*
D03*
X442717D02*
D03*
X511850D02*
D03*
X501968D02*
D03*
X543780Y303150D02*
D03*
X533779D02*
D03*
X523779D02*
D03*
X387795Y281496D02*
D03*
X397677D02*
D03*
X544961Y15748D02*
D03*
X554961D02*
D03*
X564961D02*
D03*
X436969Y280906D02*
D03*
X446851D02*
D03*
X498347Y303150D02*
D03*
X488346D02*
D03*
X478346D02*
D03*
X155197Y303150D02*
D03*
X165197D02*
D03*
X175197D02*
D03*
X80866Y301181D02*
D03*
X120236D02*
D03*
X212598D02*
D03*
X250157D02*
D03*
D100*
X171063Y369664D02*
D03*
D101*
X92520Y582835D02*
D03*
X41839Y553650D02*
D03*
X278059Y404043D02*
D03*
X360236Y553150D02*
D03*
X596457Y403543D02*
D03*
X456299Y542677D02*
D03*
X360736Y234752D02*
D03*
X596957Y85146D02*
D03*
X278098D02*
D03*
X41878Y234752D02*
D03*
D102*
X234252Y332677D02*
D03*
X239252Y327677D02*
D03*
Y337677D02*
D03*
X229252D02*
D03*
Y327677D02*
D03*
D103*
X226454Y415926D02*
D03*
X189489Y561306D02*
D03*
X169310Y550887D02*
D03*
X118029Y346655D02*
D03*
X261253Y496686D02*
D03*
X205644Y509070D02*
D03*
X99546Y499839D02*
D03*
X102356Y488146D02*
D03*
X94308Y505534D02*
D03*
X103897Y512487D02*
D03*
X130336Y563633D02*
D03*
X188447Y492009D02*
D03*
X173507Y485818D02*
D03*
X206042Y469043D02*
D03*
X194404Y474983D02*
D03*
X194763Y497402D02*
D03*
X192723Y507527D02*
D03*
X53150Y478346D02*
D03*
X240357Y453793D02*
D03*
X240583Y476452D02*
D03*
X196723Y464954D02*
D03*
X205021Y488662D02*
D03*
X111132Y558427D02*
D03*
X240354Y499409D02*
D03*
X124428Y436917D02*
D03*
X115420Y437346D02*
D03*
X171260Y572835D02*
D03*
X175197Y564961D02*
D03*
X160005Y565941D02*
D03*
X49213Y604331D02*
D03*
X106325Y519713D02*
D03*
X73762Y491878D02*
D03*
X64961Y494095D02*
D03*
X155512D02*
D03*
X148622Y471457D02*
D03*
X159449Y501968D02*
D03*
X145600Y455909D02*
D03*
X135827Y458661D02*
D03*
X127953D02*
D03*
X192438Y550085D02*
D03*
X176226Y519943D02*
D03*
X141677Y570987D02*
D03*
X96991Y539274D02*
D03*
X131461Y488450D02*
D03*
X124644Y495727D02*
D03*
X116142Y490158D02*
D03*
X104331Y419291D02*
D03*
X207160Y391765D02*
D03*
X226996Y529555D02*
D03*
X202756Y541339D02*
D03*
X209643Y524344D02*
D03*
X209246Y533353D02*
D03*
X170856Y474588D02*
D03*
X215905Y452777D02*
D03*
X217034Y473504D02*
D03*
X216901Y492238D02*
D03*
X222441Y446850D02*
D03*
Y466535D02*
D03*
Y486221D02*
D03*
X112205Y548362D02*
D03*
X104163Y545525D02*
D03*
X93927Y604807D02*
D03*
X81175Y558577D02*
D03*
X159329Y463923D02*
D03*
X175197Y411417D02*
D03*
X294506Y414179D02*
D03*
X381102Y396850D02*
D03*
X377953Y421260D02*
D03*
X374016Y433071D02*
D03*
X451575Y379528D02*
D03*
X377559Y380071D02*
D03*
X414961Y414567D02*
D03*
X556299Y385764D02*
D03*
X505512Y396457D02*
D03*
X504331Y527953D02*
D03*
X500000Y479500D02*
D03*
X379409Y491613D02*
D03*
X477055Y540476D02*
D03*
X433071Y476772D02*
D03*
X426378Y483858D02*
D03*
X469291Y441732D02*
D03*
X422441Y463386D02*
D03*
X448425Y443701D02*
D03*
X430315Y461417D02*
D03*
X525591Y430709D02*
D03*
X527866Y452817D02*
D03*
X520079Y488189D02*
D03*
X448425Y453740D02*
D03*
X502756Y447244D02*
D03*
X494488Y487402D02*
D03*
X529134Y560630D02*
D03*
X453150Y479331D02*
D03*
X472047Y479134D02*
D03*
X460630Y485433D02*
D03*
X468110Y485827D02*
D03*
X469291Y472441D02*
D03*
X461417Y516535D02*
D03*
X470472Y524803D02*
D03*
X431496Y522835D02*
D03*
X420472Y565748D02*
D03*
X403543Y624016D02*
D03*
X504331Y574803D02*
D03*
X561417Y452362D02*
D03*
X396063Y342126D02*
D03*
X423622Y493701D02*
D03*
X422047Y504331D02*
D03*
X391929Y533268D02*
D03*
X537598Y414961D02*
D03*
X442126Y353150D02*
D03*
X476378Y396457D02*
D03*
X439764Y405118D02*
D03*
X415354Y338976D02*
D03*
X406299D02*
D03*
X382677Y405118D02*
D03*
X385039Y351969D02*
D03*
X377559Y364173D02*
D03*
X451575Y363386D02*
D03*
X433858Y342126D02*
D03*
X403543Y414567D02*
D03*
X485827Y523622D02*
D03*
X431693Y503937D02*
D03*
X498841Y463364D02*
D03*
X489764Y442913D02*
D03*
X440551Y554331D02*
D03*
X372105Y605781D02*
D03*
X519685Y179134D02*
D03*
X403543Y157480D02*
D03*
X454724Y129921D02*
D03*
X377953Y114173D02*
D03*
X474409Y155512D02*
D03*
X364173Y255906D02*
D03*
X417323Y244094D02*
D03*
Y159449D02*
D03*
X227953Y192126D02*
D03*
D104*
X293307Y344488D02*
D03*
Y612205D02*
D03*
X25591Y344488D02*
D03*
Y612205D02*
D03*
X344488D02*
D03*
Y344488D02*
D03*
X612205D02*
D03*
Y612205D02*
D03*
X293307Y293307D02*
D03*
Y25591D02*
D03*
X25591D02*
D03*
Y293307D02*
D03*
D105*
X545276Y361024D02*
D03*
X535433D02*
D03*
X525591D02*
D03*
X515748D02*
D03*
X505905D02*
D03*
X496063D02*
D03*
X486221D02*
D03*
D106*
X476378D02*
D03*
D107*
X344488Y293307D02*
D03*
X612205D02*
D03*
Y25591D02*
D03*
X344488D02*
D03*
D108*
X123228Y35433D02*
D03*
X151575D02*
D03*
X231102D02*
D03*
X202756D02*
D03*
D109*
X250000Y100394D02*
D03*
X143701Y88583D02*
D03*
Y98583D02*
D03*
Y108583D02*
D03*
Y118583D02*
D03*
Y128583D02*
D03*
X102362Y151575D02*
D03*
X144362Y191575D02*
D03*
Y181575D02*
D03*
Y171575D02*
D03*
Y161575D02*
D03*
Y151575D02*
D03*
D110*
X224700Y80394D02*
D03*
X205000D02*
D03*
X245000Y250394D02*
D03*
X224700D02*
D03*
D111*
X110827Y15433D02*
D03*
X163976D02*
D03*
X243504D02*
D03*
X190354D02*
D03*
D112*
X205000Y250394D02*
D03*
X245000Y80394D02*
D03*
X77201Y127583D02*
D03*
X140201Y74583D02*
D03*
X88362Y155575D02*
D03*
X140362Y207575D02*
D03*
M02*
