G04*
G04 #@! TF.GenerationSoftware,Altium Limited,Altium Designer,20.0.10 (225)*
G04*
G04 Layer_Color=16711935*
%FSLAX25Y25*%
%MOIN*%
G70*
G01*
G75*
%ADD36C,0.03937*%
%ADD96C,0.06706*%
%ADD97R,0.06706X0.06706*%
%ADD100C,0.04737*%
%ADD101R,0.06706X0.06706*%
%ADD102C,0.06312*%
%ADD103C,0.05800*%
%ADD104C,0.32296*%
%ADD105C,0.07296*%
%ADD106R,0.07296X0.07296*%
%ADD111C,0.07099*%
%ADD112C,0.09400*%
%ADD113R,0.16548X0.16548*%
%ADD114R,0.14580X0.14973*%
%ADD115C,0.14580*%
%ADD116C,0.06800*%
%ADD117C,0.12800*%
D36*
Y316929D02*
Y635827D01*
X316929D01*
X0Y0D02*
Y318898D01*
Y0D02*
X635827D01*
Y318898D01*
X318898Y635827D02*
X318898Y0D01*
X318898Y635827D02*
X635827D01*
Y316929D02*
Y635827D01*
X0Y318898D02*
X635827D01*
D96*
X273622Y580709D02*
D03*
X133701Y608268D02*
D03*
X153701D02*
D03*
X163701D02*
D03*
X143701D02*
D03*
X255748Y431102D02*
D03*
X92520Y572835D02*
D03*
X246063Y608268D02*
D03*
X33965Y553650D02*
D03*
Y545776D02*
D03*
Y537902D02*
D03*
Y530028D02*
D03*
Y522154D02*
D03*
Y514280D02*
D03*
Y506405D02*
D03*
Y498531D02*
D03*
Y490658D02*
D03*
Y482784D02*
D03*
Y474909D02*
D03*
Y467035D02*
D03*
Y459161D02*
D03*
Y451287D02*
D03*
Y443413D02*
D03*
Y435539D02*
D03*
Y427665D02*
D03*
Y419791D02*
D03*
Y411917D02*
D03*
Y404043D02*
D03*
X41839Y545776D02*
D03*
Y537902D02*
D03*
Y530028D02*
D03*
Y522154D02*
D03*
Y514280D02*
D03*
Y506405D02*
D03*
Y498531D02*
D03*
Y490658D02*
D03*
Y482784D02*
D03*
Y474909D02*
D03*
Y467035D02*
D03*
Y459161D02*
D03*
Y451287D02*
D03*
Y443413D02*
D03*
Y435539D02*
D03*
Y427665D02*
D03*
Y419791D02*
D03*
Y411917D02*
D03*
Y404043D02*
D03*
X285933D02*
D03*
Y411917D02*
D03*
Y419791D02*
D03*
Y427665D02*
D03*
Y435539D02*
D03*
Y443413D02*
D03*
Y451287D02*
D03*
Y459161D02*
D03*
Y467035D02*
D03*
Y474909D02*
D03*
Y482784D02*
D03*
Y490658D02*
D03*
Y498531D02*
D03*
Y506405D02*
D03*
Y514280D02*
D03*
Y522154D02*
D03*
Y530028D02*
D03*
Y537902D02*
D03*
Y545776D02*
D03*
Y553650D02*
D03*
X278059Y411917D02*
D03*
Y419791D02*
D03*
Y427665D02*
D03*
Y435539D02*
D03*
Y443413D02*
D03*
Y451287D02*
D03*
Y459161D02*
D03*
Y467035D02*
D03*
Y474909D02*
D03*
Y482784D02*
D03*
Y490658D02*
D03*
Y498531D02*
D03*
Y506405D02*
D03*
Y514280D02*
D03*
Y522154D02*
D03*
Y530028D02*
D03*
Y537902D02*
D03*
Y545776D02*
D03*
Y553650D02*
D03*
X360236Y403543D02*
D03*
Y411417D02*
D03*
Y419291D02*
D03*
Y427165D02*
D03*
Y435039D02*
D03*
Y442913D02*
D03*
Y450787D02*
D03*
Y458661D02*
D03*
Y466535D02*
D03*
Y474409D02*
D03*
Y482283D02*
D03*
Y490158D02*
D03*
Y498032D02*
D03*
Y505905D02*
D03*
Y513779D02*
D03*
Y521654D02*
D03*
Y529528D02*
D03*
Y537402D02*
D03*
Y545276D02*
D03*
X352362Y403543D02*
D03*
Y411417D02*
D03*
Y419291D02*
D03*
Y427165D02*
D03*
Y435039D02*
D03*
Y442913D02*
D03*
Y450787D02*
D03*
Y458661D02*
D03*
Y466535D02*
D03*
Y474409D02*
D03*
Y482283D02*
D03*
Y490158D02*
D03*
Y498032D02*
D03*
Y505905D02*
D03*
Y513779D02*
D03*
Y521654D02*
D03*
Y529528D02*
D03*
Y537402D02*
D03*
Y545276D02*
D03*
Y553150D02*
D03*
X596457D02*
D03*
Y545276D02*
D03*
Y537402D02*
D03*
Y529528D02*
D03*
Y521654D02*
D03*
Y513779D02*
D03*
Y505905D02*
D03*
Y498032D02*
D03*
Y490158D02*
D03*
Y482283D02*
D03*
Y474409D02*
D03*
Y466535D02*
D03*
Y458661D02*
D03*
Y450787D02*
D03*
Y442913D02*
D03*
Y435039D02*
D03*
Y427165D02*
D03*
Y419291D02*
D03*
Y411417D02*
D03*
X604331Y553150D02*
D03*
Y545276D02*
D03*
Y537402D02*
D03*
Y529528D02*
D03*
Y521654D02*
D03*
Y513779D02*
D03*
Y505905D02*
D03*
Y498032D02*
D03*
Y490158D02*
D03*
Y482283D02*
D03*
Y474409D02*
D03*
Y466535D02*
D03*
Y458661D02*
D03*
Y450787D02*
D03*
Y442913D02*
D03*
Y435039D02*
D03*
Y427165D02*
D03*
Y419291D02*
D03*
Y411417D02*
D03*
Y403543D02*
D03*
X392677Y453543D02*
D03*
X460000Y600000D02*
D03*
X450000D02*
D03*
X440000D02*
D03*
X520236Y607874D02*
D03*
X510236D02*
D03*
X500236D02*
D03*
X490236D02*
D03*
X553780Y608268D02*
D03*
X482677Y565748D02*
D03*
X456299Y532677D02*
D03*
X569921Y404331D02*
D03*
X352862Y234752D02*
D03*
Y226878D02*
D03*
Y219004D02*
D03*
Y211130D02*
D03*
Y203256D02*
D03*
Y195382D02*
D03*
Y187508D02*
D03*
Y179634D02*
D03*
Y171760D02*
D03*
Y163886D02*
D03*
Y156012D02*
D03*
Y148138D02*
D03*
Y140264D02*
D03*
Y132390D02*
D03*
Y124516D02*
D03*
Y116642D02*
D03*
Y108768D02*
D03*
Y100894D02*
D03*
Y93020D02*
D03*
Y85146D02*
D03*
X360736Y226878D02*
D03*
Y219004D02*
D03*
Y211130D02*
D03*
Y203256D02*
D03*
Y195382D02*
D03*
Y187508D02*
D03*
Y179634D02*
D03*
Y171760D02*
D03*
Y163886D02*
D03*
Y156012D02*
D03*
Y148138D02*
D03*
Y140264D02*
D03*
Y132390D02*
D03*
Y124516D02*
D03*
Y116642D02*
D03*
Y108768D02*
D03*
Y100894D02*
D03*
Y93020D02*
D03*
Y85146D02*
D03*
X604831D02*
D03*
Y93020D02*
D03*
Y100894D02*
D03*
Y108768D02*
D03*
Y116642D02*
D03*
Y124516D02*
D03*
Y132390D02*
D03*
Y140264D02*
D03*
Y148138D02*
D03*
Y156012D02*
D03*
Y163886D02*
D03*
Y171760D02*
D03*
Y179634D02*
D03*
Y187508D02*
D03*
Y195382D02*
D03*
Y203256D02*
D03*
Y211130D02*
D03*
Y219004D02*
D03*
Y226878D02*
D03*
Y234752D02*
D03*
X596957Y93020D02*
D03*
Y100894D02*
D03*
Y108768D02*
D03*
Y116642D02*
D03*
Y124516D02*
D03*
Y132390D02*
D03*
Y140264D02*
D03*
Y148138D02*
D03*
Y156012D02*
D03*
Y163886D02*
D03*
Y171760D02*
D03*
Y179634D02*
D03*
Y187508D02*
D03*
Y195382D02*
D03*
Y203256D02*
D03*
Y211130D02*
D03*
Y219004D02*
D03*
Y226878D02*
D03*
Y234752D02*
D03*
X555118Y139764D02*
D03*
X278098Y234752D02*
D03*
Y226878D02*
D03*
Y219004D02*
D03*
Y211130D02*
D03*
Y203256D02*
D03*
Y195382D02*
D03*
Y187508D02*
D03*
Y179634D02*
D03*
Y171760D02*
D03*
Y163886D02*
D03*
Y156012D02*
D03*
Y148138D02*
D03*
Y140264D02*
D03*
Y132390D02*
D03*
Y124516D02*
D03*
Y116642D02*
D03*
Y108768D02*
D03*
Y100894D02*
D03*
Y93020D02*
D03*
X285972Y234752D02*
D03*
Y226878D02*
D03*
Y219004D02*
D03*
Y211130D02*
D03*
Y203256D02*
D03*
Y195382D02*
D03*
Y187508D02*
D03*
Y179634D02*
D03*
Y171760D02*
D03*
Y163886D02*
D03*
Y156012D02*
D03*
Y148138D02*
D03*
Y140264D02*
D03*
Y132390D02*
D03*
Y124516D02*
D03*
Y116642D02*
D03*
Y108768D02*
D03*
Y100894D02*
D03*
Y93020D02*
D03*
Y85146D02*
D03*
X41878D02*
D03*
Y93020D02*
D03*
Y100894D02*
D03*
Y108768D02*
D03*
Y116642D02*
D03*
Y124516D02*
D03*
Y132390D02*
D03*
Y140264D02*
D03*
Y148138D02*
D03*
Y156012D02*
D03*
Y163886D02*
D03*
Y171760D02*
D03*
Y179634D02*
D03*
Y187508D02*
D03*
Y195382D02*
D03*
Y203256D02*
D03*
Y211130D02*
D03*
Y219004D02*
D03*
Y226878D02*
D03*
X34004Y85146D02*
D03*
Y93020D02*
D03*
Y100894D02*
D03*
Y108768D02*
D03*
Y116642D02*
D03*
Y124516D02*
D03*
Y132390D02*
D03*
Y140264D02*
D03*
Y148138D02*
D03*
Y156012D02*
D03*
Y163886D02*
D03*
Y171760D02*
D03*
Y179634D02*
D03*
Y187508D02*
D03*
Y195382D02*
D03*
Y203256D02*
D03*
Y211130D02*
D03*
Y219004D02*
D03*
Y226878D02*
D03*
Y234752D02*
D03*
X173130Y254626D02*
D03*
X156299Y257874D02*
D03*
X58661Y238386D02*
D03*
X184646Y236024D02*
D03*
X83563Y258169D02*
D03*
X100098Y254626D02*
D03*
D97*
X283622Y580709D02*
D03*
X173701Y608268D02*
D03*
X265748Y431102D02*
D03*
X256063Y608268D02*
D03*
X382677Y453543D02*
D03*
X430000Y600000D02*
D03*
X530236Y607874D02*
D03*
X563779Y608268D02*
D03*
X472677Y565748D02*
D03*
X579921Y404331D02*
D03*
D100*
X171063Y369664D02*
D03*
D101*
X92520Y582835D02*
D03*
X41839Y553650D02*
D03*
X278059Y404043D02*
D03*
X360236Y553150D02*
D03*
X596457Y403543D02*
D03*
X456299Y542677D02*
D03*
X360736Y234752D02*
D03*
X596957Y85146D02*
D03*
X278098D02*
D03*
X41878Y234752D02*
D03*
D102*
X234252Y332677D02*
D03*
X239252Y327677D02*
D03*
Y337677D02*
D03*
X229252D02*
D03*
Y327677D02*
D03*
D103*
X226454Y415926D02*
D03*
X189489Y561306D02*
D03*
X169310Y550887D02*
D03*
X118029Y346655D02*
D03*
X261253Y496686D02*
D03*
X205644Y509070D02*
D03*
X99546Y499839D02*
D03*
X102356Y488146D02*
D03*
X94308Y505534D02*
D03*
X103897Y512487D02*
D03*
X130336Y563633D02*
D03*
X188447Y492009D02*
D03*
X173507Y485818D02*
D03*
X206042Y469043D02*
D03*
X194404Y474983D02*
D03*
X194763Y497402D02*
D03*
X192723Y507527D02*
D03*
X53150Y478346D02*
D03*
X240357Y453793D02*
D03*
X240583Y476452D02*
D03*
X196723Y464954D02*
D03*
X205021Y488662D02*
D03*
X111132Y558427D02*
D03*
X240354Y499409D02*
D03*
X124428Y436917D02*
D03*
X115420Y437346D02*
D03*
X171260Y572835D02*
D03*
X175197Y564961D02*
D03*
X160005Y565941D02*
D03*
X49213Y604331D02*
D03*
X84646Y462598D02*
D03*
X79595Y483129D02*
D03*
X106325Y519713D02*
D03*
X73762Y491878D02*
D03*
X64961Y494095D02*
D03*
X155512D02*
D03*
X148622Y471457D02*
D03*
X159449Y501968D02*
D03*
X145600Y455909D02*
D03*
X135827Y458661D02*
D03*
X127953D02*
D03*
X192438Y550085D02*
D03*
X176226Y519943D02*
D03*
X141677Y570987D02*
D03*
X96991Y539274D02*
D03*
X131461Y488450D02*
D03*
X124644Y495727D02*
D03*
X116142Y490158D02*
D03*
X104331Y419291D02*
D03*
X207160Y391765D02*
D03*
X226996Y529555D02*
D03*
X202756Y541339D02*
D03*
X209643Y524344D02*
D03*
X209246Y533353D02*
D03*
X170856Y474588D02*
D03*
X215905Y452777D02*
D03*
X217034Y473504D02*
D03*
X216901Y492238D02*
D03*
X222441Y446850D02*
D03*
Y466535D02*
D03*
Y486221D02*
D03*
X112205Y548362D02*
D03*
X104163Y545525D02*
D03*
X93927Y604807D02*
D03*
X81175Y558577D02*
D03*
X159329Y463923D02*
D03*
X175197Y411417D02*
D03*
X294506Y414179D02*
D03*
X381102Y396850D02*
D03*
X377953Y421260D02*
D03*
X374016Y433071D02*
D03*
X451575Y379528D02*
D03*
X377559Y380071D02*
D03*
X414961Y414567D02*
D03*
X556299Y385764D02*
D03*
X505512Y396457D02*
D03*
X504331Y527953D02*
D03*
X500000Y479500D02*
D03*
X379409Y491613D02*
D03*
X477055Y540476D02*
D03*
X433071Y476772D02*
D03*
X426378Y483858D02*
D03*
X469291Y441732D02*
D03*
X422441Y463386D02*
D03*
X448425Y443701D02*
D03*
X430315Y461417D02*
D03*
X525591Y430709D02*
D03*
X527866Y452817D02*
D03*
X520079Y488189D02*
D03*
X448425Y453740D02*
D03*
X502756Y447244D02*
D03*
X494488Y487402D02*
D03*
X529134Y560630D02*
D03*
X453150Y479331D02*
D03*
X472047Y479134D02*
D03*
X460630Y485433D02*
D03*
X468110Y485827D02*
D03*
X469291Y472441D02*
D03*
X461417Y516535D02*
D03*
X470472Y524803D02*
D03*
X431496Y522835D02*
D03*
X420472Y565748D02*
D03*
X403543Y624016D02*
D03*
X504331Y574803D02*
D03*
X561417Y452362D02*
D03*
X396063Y342126D02*
D03*
X423622Y493701D02*
D03*
X422047Y504331D02*
D03*
X391929Y533268D02*
D03*
X537598Y414961D02*
D03*
X442126Y353150D02*
D03*
X476378Y396457D02*
D03*
X439764Y405118D02*
D03*
X415354Y338976D02*
D03*
X406299D02*
D03*
X382677Y405118D02*
D03*
X385039Y351969D02*
D03*
X377559Y364173D02*
D03*
X451575Y363386D02*
D03*
X433858Y342126D02*
D03*
X403543Y414567D02*
D03*
X485827Y523622D02*
D03*
X431693Y503937D02*
D03*
X498841Y463364D02*
D03*
X489764Y442913D02*
D03*
X440551Y554331D02*
D03*
X372105Y605781D02*
D03*
X519685Y179134D02*
D03*
X403543Y157480D02*
D03*
X454724Y129921D02*
D03*
X377953Y114173D02*
D03*
X474409Y155512D02*
D03*
X364173Y255906D02*
D03*
X417323Y244094D02*
D03*
Y159449D02*
D03*
D104*
X293307Y344488D02*
D03*
Y612205D02*
D03*
X25591Y344488D02*
D03*
Y612205D02*
D03*
X344488D02*
D03*
Y344488D02*
D03*
X612205D02*
D03*
Y612205D02*
D03*
X344488Y293307D02*
D03*
X612205D02*
D03*
Y25591D02*
D03*
X344488D02*
D03*
X293307Y293307D02*
D03*
Y25591D02*
D03*
X25591D02*
D03*
Y293307D02*
D03*
D105*
X224410Y600394D02*
D03*
X204685D02*
D03*
X214567D02*
D03*
X74803Y356299D02*
D03*
X94528D02*
D03*
X84646D02*
D03*
X64803D02*
D03*
X54803D02*
D03*
X545276Y361024D02*
D03*
X535433D02*
D03*
X525591D02*
D03*
X515748D02*
D03*
X505905D02*
D03*
X496063D02*
D03*
X486221D02*
D03*
X578898Y281496D02*
D03*
X397480Y37402D02*
D03*
X387598D02*
D03*
X452598D02*
D03*
X442717D02*
D03*
X511850D02*
D03*
X501968D02*
D03*
X543780Y303150D02*
D03*
X533779D02*
D03*
X523779D02*
D03*
X387795Y281496D02*
D03*
X397677D02*
D03*
X544961Y15748D02*
D03*
X554961D02*
D03*
X564961D02*
D03*
X436969Y280906D02*
D03*
X446851D02*
D03*
X498347Y303150D02*
D03*
X488346D02*
D03*
X478346D02*
D03*
X155197Y303150D02*
D03*
X165197D02*
D03*
X175197D02*
D03*
X80866Y301181D02*
D03*
X120236D02*
D03*
X212598D02*
D03*
X250157D02*
D03*
D106*
X194685Y600394D02*
D03*
X104528Y356299D02*
D03*
X476378Y361024D02*
D03*
X568898Y281496D02*
D03*
X407480Y37402D02*
D03*
X462598D02*
D03*
X521850D02*
D03*
X513779Y303150D02*
D03*
X377795Y281496D02*
D03*
X574961Y15748D02*
D03*
X426969Y280906D02*
D03*
X468347Y303150D02*
D03*
X145197Y303150D02*
D03*
X70866Y301181D02*
D03*
X110236D02*
D03*
X202598D02*
D03*
X240158D02*
D03*
D111*
X110827Y15433D02*
D03*
X163976D02*
D03*
X243504D02*
D03*
X190354D02*
D03*
D112*
X205000Y250394D02*
D03*
X245000Y80394D02*
D03*
X77201Y127583D02*
D03*
X140201Y74583D02*
D03*
X88362Y155575D02*
D03*
X140362Y207575D02*
D03*
D113*
X151575Y369172D02*
D03*
D114*
Y338660D02*
D03*
Y399684D02*
D03*
D115*
X123228Y35433D02*
D03*
X151575D02*
D03*
X231102D02*
D03*
X202756D02*
D03*
D116*
X250000Y100394D02*
D03*
X143701Y88583D02*
D03*
Y98583D02*
D03*
Y108583D02*
D03*
Y118583D02*
D03*
Y128583D02*
D03*
X102362Y151575D02*
D03*
X144362Y191575D02*
D03*
Y181575D02*
D03*
Y171575D02*
D03*
Y161575D02*
D03*
Y151575D02*
D03*
D117*
X224700Y80394D02*
D03*
X205000D02*
D03*
X245000Y250394D02*
D03*
X224700D02*
D03*
M02*
