G04*
G04 #@! TF.GenerationSoftware,Altium Limited,Altium Designer,20.0.10 (225)*
G04*
G04 Layer_Physical_Order=1*
G04 Layer_Color=255*
%FSLAX25Y25*%
%MOIN*%
G70*
G01*
G75*
%ADD10R,0.01496X0.01378*%
%ADD11R,0.05512X0.04724*%
%ADD12R,0.08583X0.06299*%
%ADD13R,0.08661X0.06299*%
%ADD14R,0.04724X0.05512*%
%ADD15O,0.05709X0.02362*%
%ADD16R,0.02480X0.03268*%
%ADD17R,0.02323X0.01772*%
%ADD18R,0.04331X0.04724*%
%ADD19R,0.03937X0.07874*%
%ADD20R,0.01378X0.02284*%
%ADD21R,0.02284X0.01378*%
G04:AMPARAMS|DCode=22|XSize=55.12mil|YSize=47.24mil|CornerRadius=0mil|HoleSize=0mil|Usage=FLASHONLY|Rotation=225.000|XOffset=0mil|YOffset=0mil|HoleType=Round|Shape=Rectangle|*
%AMROTATEDRECTD22*
4,1,4,0.00278,0.03619,0.03619,0.00278,-0.00278,-0.03619,-0.03619,-0.00278,0.00278,0.03619,0.0*
%
%ADD22ROTATEDRECTD22*%

G04:AMPARAMS|DCode=23|XSize=9.84mil|YSize=61.02mil|CornerRadius=0mil|HoleSize=0mil|Usage=FLASHONLY|Rotation=45.000|XOffset=0mil|YOffset=0mil|HoleType=Round|Shape=Round|*
%AMOVALD23*
21,1,0.05118,0.00984,0.00000,0.00000,135.0*
1,1,0.00984,0.01810,-0.01810*
1,1,0.00984,-0.01810,0.01810*
%
%ADD23OVALD23*%

G04:AMPARAMS|DCode=24|XSize=9.84mil|YSize=61.02mil|CornerRadius=0mil|HoleSize=0mil|Usage=FLASHONLY|Rotation=315.000|XOffset=0mil|YOffset=0mil|HoleType=Round|Shape=Round|*
%AMOVALD24*
21,1,0.05118,0.00984,0.00000,0.00000,45.0*
1,1,0.00984,-0.01810,-0.01810*
1,1,0.00984,0.01810,0.01810*
%
%ADD24OVALD24*%

G04:AMPARAMS|DCode=25|XSize=55.12mil|YSize=47.24mil|CornerRadius=0mil|HoleSize=0mil|Usage=FLASHONLY|Rotation=315.000|XOffset=0mil|YOffset=0mil|HoleType=Round|Shape=Rectangle|*
%AMROTATEDRECTD25*
4,1,4,-0.03619,0.00278,-0.00278,0.03619,0.03619,-0.00278,0.00278,-0.03619,-0.03619,0.00278,0.0*
%
%ADD25ROTATEDRECTD25*%

%ADD26R,0.07874X0.21654*%
%ADD27C,0.01968*%
%ADD28C,0.01000*%
%ADD29R,0.06299X0.08583*%
%ADD30R,0.06299X0.08661*%
%ADD31R,0.04724X0.04331*%
%ADD32R,0.18819X0.12402*%
G04:AMPARAMS|DCode=33|XSize=216.54mil|YSize=78.74mil|CornerRadius=0mil|HoleSize=0mil|Usage=FLASHONLY|Rotation=45.000|XOffset=0mil|YOffset=0mil|HoleType=Round|Shape=Rectangle|*
%AMROTATEDRECTD33*
4,1,4,-0.04872,-0.10440,-0.10440,-0.04872,0.04872,0.10440,0.10440,0.04872,-0.04872,-0.10440,0.0*
%
%ADD33ROTATEDRECTD33*%

%ADD34R,0.03150X0.05906*%
%ADD35R,0.05709X0.07874*%
%ADD36C,0.03937*%
%ADD37C,0.07874*%
%ADD38C,0.05906*%
%ADD39R,0.01614X0.03898*%
%ADD40R,0.01614X0.02992*%
%ADD41R,0.03898X0.06791*%
%ADD42C,0.01575*%
%ADD43C,0.15748*%
%ADD44C,0.09843*%
%ADD45C,0.05906*%
%ADD46R,0.05906X0.05906*%
%ADD47R,0.06496X0.06496*%
%ADD48C,0.06496*%
%ADD49C,0.03937*%
%ADD50R,0.05906X0.05906*%
%ADD51C,0.05512*%
%ADD52C,0.05000*%
%ADD53C,0.31496*%
%ADD54C,0.13780*%
%ADD55C,0.06000*%
%ADD56C,0.12000*%
%ADD57C,0.06299*%
%ADD58C,0.08600*%
G36*
X409317Y356649D02*
X408874Y356512D01*
Y356512D01*
X406799D01*
Y352559D01*
X405799D01*
Y356512D01*
X403724D01*
Y356512D01*
X403281Y356649D01*
Y387795D01*
X409317D01*
Y356649D01*
D02*
G37*
G36*
X457480Y336352D02*
X426922D01*
X420604Y342670D01*
Y348819D01*
X430315D01*
Y356299D01*
X429265D01*
Y361661D01*
X430456Y362851D01*
X430740Y363277D01*
X430840Y363779D01*
Y387795D01*
X457480D01*
Y336352D01*
D02*
G37*
G36*
X391601Y382677D02*
X391701Y382175D01*
X391985Y381749D01*
X396325Y377409D01*
Y356299D01*
X395276D01*
Y348819D01*
X400656D01*
Y333465D01*
X370472D01*
Y387795D01*
X391601D01*
Y382677D01*
D02*
G37*
G36*
X221654Y308268D02*
Y290945D01*
X222047Y290551D01*
X207874Y276378D01*
X186614D01*
X176476Y266240D01*
X167880D01*
Y274307D01*
X167831D01*
Y276315D01*
X167749D01*
Y277592D01*
X177953Y287795D01*
X201870Y287795D01*
X207087Y293012D01*
Y308268D01*
X207733Y308914D01*
X220986Y308919D01*
X221654Y308268D01*
D02*
G37*
G36*
X181094Y313080D02*
X182087Y312205D01*
Y296260D01*
X166730Y280903D01*
X166730Y266142D01*
X157874D01*
X157232Y267220D01*
X157123Y275948D01*
X161024Y288583D01*
X161034Y312513D01*
X161811Y313090D01*
X181094Y313080D01*
D02*
G37*
G36*
X126772Y306299D02*
Y280709D01*
X105905Y266142D01*
X95045D01*
Y274307D01*
X95000D01*
Y275870D01*
X95037Y275925D01*
X95114Y276315D01*
Y278822D01*
X114567Y291661D01*
X114567Y306693D01*
X115748Y307874D01*
X125197Y307874D01*
X126772Y306299D01*
D02*
G37*
G36*
X94095Y307087D02*
X94095Y276315D01*
X93980D01*
Y274307D01*
X93931D01*
Y266142D01*
X81890Y266142D01*
X75197Y272835D01*
X75197Y307087D01*
X77165Y309055D01*
X92126Y309055D01*
X94095Y307087D01*
D02*
G37*
G36*
X164216Y264013D02*
Y262144D01*
X164201Y262067D01*
Y255146D01*
X162008Y252953D01*
X154232D01*
X151181Y256004D01*
Y262303D01*
X153150Y264272D01*
X163861Y264365D01*
X164216Y264013D01*
D02*
G37*
G36*
X91382Y264011D02*
Y262144D01*
X91367Y262067D01*
Y254949D01*
X89370Y252953D01*
X81595D01*
X78543Y256004D01*
Y262303D01*
X80512Y264272D01*
X91027Y264363D01*
X91382Y264011D01*
D02*
G37*
G36*
X96579Y262934D02*
X96517Y262841D01*
X96363Y262067D01*
Y261988D01*
X96517Y261214D01*
X96579Y261121D01*
X96579Y259118D01*
X96949Y259055D01*
X96949Y259055D01*
X97053Y259055D01*
X102756Y259055D01*
X105020Y256791D01*
X105020Y252165D01*
X102953Y250098D01*
X96457Y250098D01*
X95011Y251544D01*
Y262067D01*
X94996Y262144D01*
Y264370D01*
X96579D01*
Y262934D01*
D02*
G37*
G36*
X169413Y259118D02*
X173028D01*
Y259154D01*
X176378D01*
X178248Y257283D01*
Y252067D01*
X176181Y250000D01*
X169291D01*
X167846Y251445D01*
Y262067D01*
X167831Y262144D01*
Y264272D01*
X169413D01*
Y259118D01*
D02*
G37*
G36*
X40835Y215158D02*
X40846Y215153D01*
X41878Y215017D01*
X42910Y215153D01*
X42921Y215158D01*
X59634Y215158D01*
X60618Y214173D01*
Y201575D01*
X58551Y199508D01*
X39653D01*
X37992Y201169D01*
Y214272D01*
X38878Y215158D01*
X40835D01*
D02*
G37*
%LPC*%
G36*
X452075Y382992D02*
Y380028D01*
X455039D01*
X454985Y380441D01*
X454632Y381293D01*
X454071Y382024D01*
X453340Y382585D01*
X452489Y382938D01*
X452075Y382992D01*
D02*
G37*
G36*
X451075D02*
X450661Y382938D01*
X449810Y382585D01*
X449079Y382024D01*
X448518Y381293D01*
X448165Y380441D01*
X448110Y380028D01*
X451075D01*
Y382992D01*
D02*
G37*
G36*
X455039Y379028D02*
X452075D01*
Y376063D01*
X452489Y376118D01*
X453340Y376470D01*
X454071Y377031D01*
X454632Y377763D01*
X454985Y378614D01*
X455039Y379028D01*
D02*
G37*
G36*
X451075D02*
X448110D01*
X448165Y378614D01*
X448518Y377763D01*
X449079Y377031D01*
X449810Y376470D01*
X450661Y376118D01*
X451075Y376063D01*
Y379028D01*
D02*
G37*
G36*
X446276Y379937D02*
X442921D01*
Y375500D01*
X446276D01*
Y379937D01*
D02*
G37*
G36*
X441921D02*
X438567D01*
Y375500D01*
X441921D01*
Y379937D01*
D02*
G37*
G36*
X446276Y374500D02*
X442921D01*
Y370063D01*
X446276D01*
Y374500D01*
D02*
G37*
G36*
X441921D02*
X438567D01*
Y370063D01*
X441921D01*
Y374500D01*
D02*
G37*
G36*
X452075Y366850D02*
Y363886D01*
X455039D01*
X454985Y364300D01*
X454632Y365151D01*
X454071Y365882D01*
X453340Y366443D01*
X452489Y366796D01*
X452075Y366850D01*
D02*
G37*
G36*
X451075D02*
X450661Y366796D01*
X449810Y366443D01*
X449079Y365882D01*
X448518Y365151D01*
X448165Y364300D01*
X448110Y363886D01*
X451075D01*
Y366850D01*
D02*
G37*
G36*
X455039Y362886D02*
X452075D01*
Y359922D01*
X452489Y359976D01*
X453340Y360329D01*
X454071Y360890D01*
X454632Y361621D01*
X454985Y362472D01*
X455039Y362886D01*
D02*
G37*
G36*
X451075D02*
X448110D01*
X448165Y362472D01*
X448518Y361621D01*
X449079Y360890D01*
X449810Y360329D01*
X450661Y359976D01*
X451075Y359922D01*
Y362886D01*
D02*
G37*
G36*
X442126Y356465D02*
X441268Y356352D01*
X440468Y356021D01*
X439781Y355494D01*
X439254Y354807D01*
X438923Y354008D01*
X438810Y353150D01*
X438923Y352291D01*
X439254Y351492D01*
X439781Y350805D01*
X440468Y350278D01*
X441268Y349947D01*
X442126Y349834D01*
X442984Y349947D01*
X443784Y350278D01*
X444471Y350805D01*
X444998Y351492D01*
X445141Y351837D01*
X448228D01*
Y349803D01*
X455315D01*
Y356102D01*
X448228D01*
Y354462D01*
X445141D01*
X444998Y354807D01*
X444471Y355494D01*
X443784Y356021D01*
X442984Y356352D01*
X442126Y356465D01*
D02*
G37*
G36*
X455527Y349228D02*
X452272D01*
Y346366D01*
X455527D01*
Y349228D01*
D02*
G37*
G36*
X451272D02*
X448016D01*
Y346366D01*
X451272D01*
Y349228D01*
D02*
G37*
G36*
X446276Y347260D02*
X442921D01*
Y342823D01*
X446276D01*
Y347260D01*
D02*
G37*
G36*
X441921D02*
X438567D01*
Y342823D01*
X441921D01*
Y347260D01*
D02*
G37*
G36*
X434358Y345590D02*
Y342626D01*
X437323D01*
X437268Y343040D01*
X436915Y343891D01*
X436354Y344622D01*
X435623Y345183D01*
X434772Y345536D01*
X434358Y345590D01*
D02*
G37*
G36*
X433358D02*
X432945Y345536D01*
X432093Y345183D01*
X431362Y344622D01*
X430801Y343891D01*
X430448Y343040D01*
X430394Y342626D01*
X433358D01*
Y345590D01*
D02*
G37*
G36*
X455527Y345366D02*
X452272D01*
Y342504D01*
X455527D01*
Y345366D01*
D02*
G37*
G36*
X451272D02*
X448016D01*
Y342504D01*
X451272D01*
Y345366D01*
D02*
G37*
G36*
X437323Y341626D02*
X434358D01*
Y338662D01*
X434772Y338716D01*
X435623Y339069D01*
X436354Y339630D01*
X436915Y340361D01*
X437268Y341212D01*
X437323Y341626D01*
D02*
G37*
G36*
X433358D02*
X430394D01*
X430448Y341212D01*
X430801Y340361D01*
X431362Y339630D01*
X432093Y339069D01*
X432945Y338716D01*
X433358Y338662D01*
Y341626D01*
D02*
G37*
G36*
X446276Y341823D02*
X442921D01*
Y337386D01*
X446276D01*
Y341823D01*
D02*
G37*
G36*
X441921D02*
X438567D01*
Y337386D01*
X441921D01*
Y341823D01*
D02*
G37*
G36*
X378059Y383535D02*
Y380571D01*
X381023D01*
X380969Y380984D01*
X380616Y381836D01*
X380055Y382567D01*
X379324Y383128D01*
X378473Y383481D01*
X378059Y383535D01*
D02*
G37*
G36*
X377059D02*
X376645Y383481D01*
X375794Y383128D01*
X375063Y382567D01*
X374502Y381836D01*
X374149Y380984D01*
X374095Y380571D01*
X377059D01*
Y383535D01*
D02*
G37*
G36*
X381023Y379571D02*
X378059D01*
Y376606D01*
X378473Y376661D01*
X379324Y377014D01*
X380055Y377575D01*
X380616Y378306D01*
X380969Y379157D01*
X381023Y379571D01*
D02*
G37*
G36*
X377059D02*
X374095D01*
X374149Y379157D01*
X374502Y378306D01*
X375063Y377575D01*
X375794Y377014D01*
X376645Y376661D01*
X377059Y376606D01*
Y379571D01*
D02*
G37*
G36*
X392142Y379937D02*
X388787D01*
Y375500D01*
X392142D01*
Y379937D01*
D02*
G37*
G36*
X387787D02*
X384433D01*
Y375500D01*
X387787D01*
Y379937D01*
D02*
G37*
G36*
X392142Y374500D02*
X388787D01*
Y370063D01*
X392142D01*
Y374500D01*
D02*
G37*
G36*
X387787D02*
X384433D01*
Y370063D01*
X387787D01*
Y374500D01*
D02*
G37*
G36*
X378059Y367638D02*
Y364673D01*
X381023D01*
X380969Y365087D01*
X380616Y365938D01*
X380055Y366670D01*
X379324Y367231D01*
X378473Y367583D01*
X378059Y367638D01*
D02*
G37*
G36*
X377059D02*
X376645Y367583D01*
X375794Y367231D01*
X375063Y366670D01*
X374502Y365938D01*
X374149Y365087D01*
X374095Y364673D01*
X377059D01*
Y367638D01*
D02*
G37*
G36*
X381023Y363673D02*
X378059D01*
Y360709D01*
X378473Y360763D01*
X379324Y361116D01*
X380055Y361677D01*
X380616Y362408D01*
X380969Y363260D01*
X381023Y363673D01*
D02*
G37*
G36*
X377059D02*
X374095D01*
X374149Y363260D01*
X374502Y362408D01*
X375063Y361677D01*
X375794Y361116D01*
X376645Y360763D01*
X377059Y360709D01*
Y363673D01*
D02*
G37*
G36*
X385039Y355284D02*
X384181Y355171D01*
X383382Y354840D01*
X382695Y354313D01*
X382168Y353626D01*
X382025Y353281D01*
X379527D01*
Y355118D01*
X372441D01*
Y348819D01*
X379527D01*
Y350656D01*
X382025D01*
X382168Y350311D01*
X382695Y349624D01*
X383382Y349097D01*
X384181Y348766D01*
X385039Y348653D01*
X385898Y348766D01*
X386697Y349097D01*
X387384Y349624D01*
X387911Y350311D01*
X388242Y351110D01*
X388355Y351969D01*
X388242Y352827D01*
X387911Y353626D01*
X387384Y354313D01*
X386697Y354840D01*
X385898Y355171D01*
X385039Y355284D01*
D02*
G37*
G36*
X379740Y348244D02*
X376484D01*
Y345382D01*
X379740D01*
Y348244D01*
D02*
G37*
G36*
X375484D02*
X372228D01*
Y345382D01*
X375484D01*
Y348244D01*
D02*
G37*
G36*
X387787Y347260D02*
X384433D01*
Y342823D01*
X387787D01*
Y347260D01*
D02*
G37*
G36*
X396563Y345590D02*
Y342626D01*
X399527D01*
X399473Y343040D01*
X399120Y343891D01*
X398559Y344622D01*
X397828Y345183D01*
X396977Y345536D01*
X396563Y345590D01*
D02*
G37*
G36*
X379740Y344382D02*
X376484D01*
Y341520D01*
X379740D01*
Y344382D01*
D02*
G37*
G36*
X375484D02*
X372228D01*
Y341520D01*
X375484D01*
Y344382D01*
D02*
G37*
G36*
X399527Y341626D02*
X396563D01*
Y338662D01*
X396977Y338716D01*
X397828Y339069D01*
X398559Y339630D01*
X399120Y340361D01*
X399473Y341212D01*
X399527Y341626D01*
D02*
G37*
G36*
X392142Y347260D02*
X388787D01*
Y342323D01*
Y337386D01*
X392142D01*
Y341266D01*
X392642Y341298D01*
X392653Y341212D01*
X393006Y340361D01*
X393567Y339630D01*
X394298Y339069D01*
X395149Y338716D01*
X395563Y338662D01*
Y342126D01*
Y345590D01*
X395149Y345536D01*
X394298Y345183D01*
X393567Y344622D01*
X393006Y343891D01*
X392653Y343040D01*
X392642Y342953D01*
X392142Y342986D01*
Y347260D01*
D02*
G37*
G36*
X387787Y341823D02*
X384433D01*
Y337386D01*
X387787D01*
Y341823D01*
D02*
G37*
%LPD*%
D10*
X209705Y460630D02*
D03*
Y458661D02*
D03*
Y456693D02*
D03*
X207677Y455650D02*
D03*
X205709D02*
D03*
X203681Y456693D02*
D03*
Y458661D02*
D03*
Y460630D02*
D03*
X205709Y461673D02*
D03*
X207677D02*
D03*
Y481358D02*
D03*
X205709D02*
D03*
X203681Y480315D02*
D03*
Y478346D02*
D03*
Y476378D02*
D03*
X205709Y475335D02*
D03*
X207677D02*
D03*
X209705Y476378D02*
D03*
Y478346D02*
D03*
Y480315D02*
D03*
Y500000D02*
D03*
Y498032D02*
D03*
Y496063D02*
D03*
X207677Y495020D02*
D03*
X205709D02*
D03*
X203681Y496063D02*
D03*
Y498032D02*
D03*
Y500000D02*
D03*
X205709Y501043D02*
D03*
X207677D02*
D03*
D11*
X297244Y580315D02*
D03*
Y573228D02*
D03*
X261811Y580315D02*
D03*
Y573228D02*
D03*
X218504Y525984D02*
D03*
Y533071D02*
D03*
X104331Y592126D02*
D03*
Y585039D02*
D03*
X104331Y565354D02*
D03*
Y572441D02*
D03*
X80709Y541732D02*
D03*
Y548819D02*
D03*
X80709Y588189D02*
D03*
Y581102D02*
D03*
X230315Y501575D02*
D03*
Y494488D02*
D03*
X250000Y501575D02*
D03*
Y494488D02*
D03*
X230315Y477953D02*
D03*
Y470866D02*
D03*
X250000Y477953D02*
D03*
Y470866D02*
D03*
X230315Y454331D02*
D03*
Y447244D02*
D03*
X250000Y454331D02*
D03*
Y447244D02*
D03*
X116142Y411811D02*
D03*
Y418898D02*
D03*
X179134Y477953D02*
D03*
Y470866D02*
D03*
X535433Y430709D02*
D03*
Y423622D02*
D03*
X372441Y594882D02*
D03*
Y587795D02*
D03*
X372441Y624409D02*
D03*
Y617323D02*
D03*
X482283Y556299D02*
D03*
Y549213D02*
D03*
X472441Y556299D02*
D03*
Y549213D02*
D03*
X429528Y405118D02*
D03*
Y398031D02*
D03*
X401968Y405118D02*
D03*
Y398031D02*
D03*
X392913Y405118D02*
D03*
Y398031D02*
D03*
X375984Y351969D02*
D03*
Y344882D02*
D03*
X451772Y352953D02*
D03*
Y345866D02*
D03*
X476378Y386614D02*
D03*
Y379528D02*
D03*
X510236Y379528D02*
D03*
Y386614D02*
D03*
X501181Y379528D02*
D03*
Y386614D02*
D03*
X535433Y386614D02*
D03*
Y379528D02*
D03*
X617323Y399213D02*
D03*
Y406299D02*
D03*
X556299Y411417D02*
D03*
Y404331D02*
D03*
X372047Y537795D02*
D03*
Y544882D02*
D03*
X545276Y379528D02*
D03*
Y386614D02*
D03*
X474409Y145276D02*
D03*
Y138189D02*
D03*
X474409Y124016D02*
D03*
Y116929D02*
D03*
X446850Y244488D02*
D03*
Y251575D02*
D03*
X427165Y251575D02*
D03*
Y244488D02*
D03*
X397638Y244488D02*
D03*
Y251575D02*
D03*
X377953Y251575D02*
D03*
Y244488D02*
D03*
X521654Y101969D02*
D03*
Y94882D02*
D03*
X501968Y101969D02*
D03*
Y94882D02*
D03*
D12*
X74429Y620079D02*
D03*
D13*
X110610D02*
D03*
D14*
X104724Y604331D02*
D03*
X111811D02*
D03*
X80315Y604331D02*
D03*
X73228D02*
D03*
X285039Y391732D02*
D03*
X277953D02*
D03*
X258268Y415354D02*
D03*
X265354D02*
D03*
X308661Y450787D02*
D03*
X301575D02*
D03*
X308661Y403543D02*
D03*
X301575D02*
D03*
X33858Y564961D02*
D03*
X40945D02*
D03*
X151969Y437514D02*
D03*
X159055D02*
D03*
X194488Y419291D02*
D03*
X187402D02*
D03*
X155905Y454724D02*
D03*
X162992D02*
D03*
X579528Y577953D02*
D03*
X572441D02*
D03*
X579528Y561417D02*
D03*
X572441D02*
D03*
X572441Y569685D02*
D03*
X579528D02*
D03*
X621260Y580315D02*
D03*
X614173D02*
D03*
X438976Y542520D02*
D03*
X446063D02*
D03*
X438976Y532677D02*
D03*
X446063D02*
D03*
X596850Y393307D02*
D03*
X603937D02*
D03*
D15*
X256791Y525965D02*
D03*
Y530965D02*
D03*
Y535965D02*
D03*
Y540965D02*
D03*
X235335Y525965D02*
D03*
Y530965D02*
D03*
Y535965D02*
D03*
Y540965D02*
D03*
X568996Y421240D02*
D03*
Y426240D02*
D03*
Y431240D02*
D03*
Y436240D02*
D03*
X547539Y421240D02*
D03*
Y426240D02*
D03*
Y431240D02*
D03*
Y436240D02*
D03*
D16*
X179587Y419291D02*
D03*
X170807D02*
D03*
D17*
X131673D02*
D03*
X139980D02*
D03*
D18*
X151378D02*
D03*
X159646D02*
D03*
X309252Y435039D02*
D03*
X300984D02*
D03*
X309252Y419291D02*
D03*
X300984D02*
D03*
D19*
X194882Y338660D02*
D03*
X188976D02*
D03*
X183071D02*
D03*
X177165D02*
D03*
X171260D02*
D03*
X165354D02*
D03*
X159449D02*
D03*
X153543D02*
D03*
X147638D02*
D03*
X141732D02*
D03*
Y401652D02*
D03*
X147638D02*
D03*
X153543D02*
D03*
X159449D02*
D03*
X165354D02*
D03*
X171260D02*
D03*
X177165D02*
D03*
X183071D02*
D03*
X188976D02*
D03*
X194882D02*
D03*
D20*
X159449Y470827D02*
D03*
Y485866D02*
D03*
D21*
X154882Y472441D02*
D03*
Y474409D02*
D03*
Y476378D02*
D03*
Y478346D02*
D03*
Y480315D02*
D03*
Y482283D02*
D03*
Y484252D02*
D03*
X164016D02*
D03*
Y482283D02*
D03*
Y480315D02*
D03*
Y478346D02*
D03*
Y476378D02*
D03*
Y474409D02*
D03*
Y472441D02*
D03*
D22*
X149069Y563529D02*
D03*
X154080Y558518D02*
D03*
X180565Y547781D02*
D03*
X185576Y542770D02*
D03*
X172691Y539907D02*
D03*
X177702Y534896D02*
D03*
X138332Y495526D02*
D03*
X133321Y500537D02*
D03*
X455762Y449356D02*
D03*
X460773Y444345D02*
D03*
X482427Y513242D02*
D03*
X477416Y518254D02*
D03*
X474553Y505369D02*
D03*
X469542Y510380D02*
D03*
D23*
X136214Y548388D02*
D03*
X134822Y546996D02*
D03*
X133430Y545605D02*
D03*
X132038Y544213D02*
D03*
X130647Y542821D02*
D03*
X129255Y541429D02*
D03*
X127863Y540037D02*
D03*
X126471Y538645D02*
D03*
X125079Y537253D02*
D03*
X123687Y535861D02*
D03*
X122295Y534469D02*
D03*
X120903Y533077D02*
D03*
X143313Y510667D02*
D03*
X144705Y512059D02*
D03*
X146097Y513451D02*
D03*
X147489Y514843D02*
D03*
X148881Y516234D02*
D03*
X150273Y517626D02*
D03*
X151665Y519018D02*
D03*
X153057Y520410D02*
D03*
X154449Y521802D02*
D03*
X155841Y523194D02*
D03*
X157233Y524586D02*
D03*
X158625Y525978D02*
D03*
X460624Y497207D02*
D03*
X459232Y495815D02*
D03*
X457840Y494423D02*
D03*
X456448Y493032D02*
D03*
X455056Y491640D02*
D03*
X453664Y490248D02*
D03*
X452272Y488856D02*
D03*
X450880Y487464D02*
D03*
X449488Y486072D02*
D03*
X448096Y484680D02*
D03*
X446704Y483288D02*
D03*
X445312Y481896D02*
D03*
X467723Y459486D02*
D03*
X469115Y460878D02*
D03*
X470507Y462269D02*
D03*
X471899Y463661D02*
D03*
X473290Y465053D02*
D03*
X474682Y466445D02*
D03*
X476074Y467837D02*
D03*
X477466Y469229D02*
D03*
X478858Y470621D02*
D03*
X480250Y472013D02*
D03*
X481642Y473405D02*
D03*
X483034Y474797D02*
D03*
D24*
X120903Y525978D02*
D03*
X122295Y524586D02*
D03*
X123687Y523194D02*
D03*
X125079Y521802D02*
D03*
X126471Y520410D02*
D03*
X127863Y519018D02*
D03*
X129255Y517626D02*
D03*
X130647Y516234D02*
D03*
X132038Y514843D02*
D03*
X133430Y513451D02*
D03*
X134822Y512059D02*
D03*
X136214Y510667D02*
D03*
X158625Y533077D02*
D03*
X157233Y534469D02*
D03*
X155841Y535861D02*
D03*
X154449Y537253D02*
D03*
X153057Y538645D02*
D03*
X151665Y540037D02*
D03*
X150273Y541429D02*
D03*
X148881Y542821D02*
D03*
X147489Y544213D02*
D03*
X146097Y545605D02*
D03*
X144705Y546996D02*
D03*
X143313Y548388D02*
D03*
X445312Y474797D02*
D03*
X446704Y473405D02*
D03*
X448096Y472013D02*
D03*
X449488Y470621D02*
D03*
X450880Y469229D02*
D03*
X452272Y467837D02*
D03*
X453664Y466445D02*
D03*
X455056Y465053D02*
D03*
X456448Y463661D02*
D03*
X457840Y462269D02*
D03*
X459232Y460878D02*
D03*
X460624Y459486D02*
D03*
X483034Y481896D02*
D03*
X481642Y483288D02*
D03*
X480250Y484680D02*
D03*
X478858Y486072D02*
D03*
X477466Y487464D02*
D03*
X476074Y488856D02*
D03*
X474682Y490248D02*
D03*
X473290Y491640D02*
D03*
X471899Y493032D02*
D03*
X470507Y494423D02*
D03*
X469115Y495815D02*
D03*
X467723Y497207D02*
D03*
D25*
X105762Y534896D02*
D03*
X110773Y539907D02*
D03*
X404868Y546206D02*
D03*
X399857Y541195D02*
D03*
X378597Y520329D02*
D03*
X383608Y525340D02*
D03*
X491983Y467180D02*
D03*
X496994Y472191D02*
D03*
X437939Y495419D02*
D03*
X432928Y490408D02*
D03*
D26*
X64961Y542323D02*
D03*
Y579724D02*
D03*
D27*
X223622Y332677D02*
X234252D01*
X220079Y329134D02*
X223622Y332677D01*
X141732Y331496D02*
X144095Y329134D01*
X220079D01*
X141732Y331496D02*
Y338660D01*
X519685Y165354D02*
Y179134D01*
X484252Y129921D02*
X519685Y165354D01*
X474409Y129921D02*
X484252D01*
X397638Y220472D02*
X405512Y212598D01*
X595891Y211130D02*
X596957D01*
X405512Y212598D02*
X594423D01*
X595891Y211130D01*
X397638Y220472D02*
Y244488D01*
X474409Y124016D02*
Y129921D01*
X454724D02*
X474409D01*
Y138189D01*
X377953Y94488D02*
Y114173D01*
X368610Y85146D02*
X377953Y94488D01*
X360736Y85146D02*
X368610D01*
X474409Y155512D02*
X474409Y155512D01*
Y145276D02*
Y155512D01*
X474409Y138189D02*
X474409Y138189D01*
X474409Y64961D02*
X501968Y37402D01*
X474409Y64961D02*
Y116929D01*
X364173Y251547D02*
X371232Y244488D01*
X364173Y251547D02*
Y255906D01*
X377953Y251575D02*
Y281339D01*
X377795Y281496D02*
X377953Y281339D01*
X371232Y244488D02*
X377953D01*
X426772Y244094D02*
X427165Y244488D01*
X417323Y244094D02*
X426772D01*
X446850Y221626D02*
Y244740D01*
X377953Y244488D02*
X397638D01*
X377953Y244488D02*
X377953Y244488D01*
X448003Y220472D02*
X594423D01*
X427165Y244488D02*
X446850D01*
X595891Y219004D02*
X596957D01*
X446850Y221626D02*
X448003Y220472D01*
X594423D02*
X595891Y219004D01*
X427165Y244488D02*
X427165Y244488D01*
X427165Y251575D02*
Y280709D01*
X426969Y280906D02*
X427165Y280709D01*
X446851Y251575D02*
Y280906D01*
X446850Y251575D02*
X446851Y251575D01*
X397677Y251614D02*
Y281496D01*
X397638Y251575D02*
X397677Y251614D01*
X124557Y242913D02*
X189173D01*
X96161D02*
X124557D01*
X105807Y261811D02*
X124557Y243061D01*
X98563Y261811D02*
X105807D01*
X98386Y261988D02*
Y262067D01*
Y261988D02*
X98563Y261811D01*
X302461Y74311D02*
Y243602D01*
X274803Y248721D02*
X297342D01*
X302461Y243602D01*
X55905Y92126D02*
X86024Y62008D01*
X290158D02*
X302461Y74311D01*
X86024Y62008D02*
X290158D01*
X41878Y93020D02*
X42631Y92266D01*
X44859D01*
X45000Y92126D01*
X55905D01*
X269291Y243209D02*
X274803Y248721D01*
X269291Y235685D02*
Y243209D01*
Y235685D02*
X278098Y226878D01*
X171457Y262008D02*
X183661D01*
X167177Y247835D02*
X191142D01*
X235720Y203256D01*
X278098D01*
X218791Y226878D02*
X278098D01*
X183661Y262008D02*
X218791Y226878D01*
X58661Y238386D02*
X63189Y242913D01*
X96161D01*
X189173D02*
X236705Y195382D01*
X278098D01*
X166024Y248988D02*
X167177Y247835D01*
X93189Y245886D02*
X96161Y242913D01*
D28*
X226454Y415431D02*
X261253Y450230D01*
X148881Y516234D02*
X155273Y509842D01*
X146097Y513451D02*
X154882Y504666D01*
Y494724D02*
Y504666D01*
X157233Y534469D02*
X159449Y536685D01*
X157233Y534469D02*
Y534469D01*
X159449Y536685D02*
Y541339D01*
X226454Y415431D02*
Y415926D01*
X261253Y450230D02*
Y496686D01*
X180565Y547781D02*
X189489Y556705D01*
Y561306D01*
X159449Y541339D02*
X168997Y550887D01*
X169310D01*
X88755Y465579D02*
X111420Y442913D01*
X88755Y508778D02*
X119348Y539371D01*
X88755Y465579D02*
Y508778D01*
X118029Y346655D02*
X121849D01*
X124016Y344488D01*
X269108Y470547D02*
X276466Y463189D01*
X269108Y470547D02*
Y535379D01*
X256791Y535965D02*
X268522D01*
X269108Y535379D01*
X155273Y509842D02*
X182202D01*
X184823Y512464D02*
X245493D01*
X182202Y509842D02*
X184823Y512464D01*
X245493D02*
X261253Y496703D01*
Y496686D02*
Y496703D01*
X205644Y501108D02*
X205709Y501043D01*
X205644Y501108D02*
Y509070D01*
X150273Y517626D02*
X154120Y513779D01*
X177634Y516217D02*
X202756Y541339D01*
X154466Y516217D02*
X177634D01*
X154120Y513779D02*
X183071D01*
X226378Y557087D01*
X266202Y471019D02*
Y523227D01*
X105899Y499839D02*
X126471Y520410D01*
X99546Y499839D02*
X105899D01*
X102751Y488146D02*
X118353Y503748D01*
X102356Y488146D02*
X102751D01*
X118353Y503748D02*
Y504144D01*
X130444Y516234D01*
X130647D01*
X108268Y491072D02*
X132038Y514843D01*
X108268Y458661D02*
Y491072D01*
Y458661D02*
X120079Y446850D01*
X108810Y505534D02*
X125079Y521802D01*
X94308Y505534D02*
X108810D01*
X103897Y512487D02*
X112979D01*
X108064Y572441D02*
X118413Y562091D01*
X104331Y572441D02*
X108064D01*
X118413Y557838D02*
Y562091D01*
X103937Y572835D02*
X104331Y572441D01*
X121674Y557361D02*
X133430Y545605D01*
X121674Y557361D02*
Y563366D01*
X104331Y580709D02*
X121674Y563366D01*
X118413Y557838D02*
X130235Y546017D01*
X111811Y582158D02*
X130336Y563633D01*
X111811Y582158D02*
Y600000D01*
X104331Y580709D02*
Y585039D01*
X143313Y548388D02*
X146652Y551727D01*
Y560756D01*
X149069Y563173D01*
Y563529D01*
X144705Y546996D02*
X154080Y556371D01*
Y558518D01*
X179134Y553586D02*
Y582835D01*
X163386Y537838D02*
Y537838D01*
X179134Y553586D01*
X230315Y447244D02*
X250000D01*
X191987Y492009D02*
X203681Y480315D01*
X188447Y492009D02*
X191987D01*
X159449Y501968D02*
X171390D01*
X190756Y482603D01*
X171390Y501968D02*
X199012D01*
X190756Y479508D02*
Y482603D01*
X173507Y483580D02*
X178740Y478346D01*
X173507Y483580D02*
Y485818D01*
X177633Y491658D02*
X187008Y482283D01*
X161980Y477287D02*
Y491073D01*
X162566Y491658D01*
X177633D01*
X177951Y493311D02*
X188402Y482861D01*
X154882Y494724D02*
X156277Y493329D01*
X158080D01*
X158098Y493311D01*
X177951D01*
X144595Y342683D02*
Y342967D01*
X143074Y344488D02*
X144595Y342967D01*
X124016Y344488D02*
X143074D01*
X145180Y342097D02*
X146169D01*
X144595Y342683D02*
X145180Y342097D01*
X146169D02*
X147638Y340629D01*
Y336692D02*
Y340629D01*
X124016Y344488D02*
Y369230D01*
X152618D01*
X183071Y399684D01*
X205709Y461673D02*
Y468710D01*
X206042Y469043D01*
X194404Y474983D02*
X202286D01*
X203681Y476378D01*
X190220Y463323D02*
Y478972D01*
Y463323D02*
X194882Y458661D01*
X190220Y478972D02*
X190756Y479508D01*
X199336D01*
X200308Y478535D02*
X203492D01*
X199336Y479508D02*
X200308Y478535D01*
X198716Y497402D02*
X200100Y496018D01*
X203636D02*
X203681Y496063D01*
X200100Y496018D02*
X203636D01*
X194763Y497402D02*
X198716D01*
X203492Y498220D02*
X203681Y498032D01*
X203044Y498220D02*
X203492D01*
X202847Y498417D02*
X203044Y498220D01*
X202563Y498417D02*
X202847D01*
X199012Y501968D02*
X202563Y498417D01*
X196154Y507527D02*
X203681Y500000D01*
X192723Y507527D02*
X196154D01*
X41839Y506405D02*
X53150Y495094D01*
Y478346D02*
Y495094D01*
X230315Y454331D02*
X239819D01*
X240357Y453793D01*
X249027D01*
X249245Y453576D01*
X242118Y462213D02*
X247744Y456587D01*
X249245Y453576D02*
X250000Y454331D01*
X247744Y456193D02*
Y456587D01*
Y456193D02*
X249606Y454331D01*
X208276Y462213D02*
X242118D01*
X249606Y454331D02*
X250000D01*
X242084Y477953D02*
X249606D01*
X240583Y476452D02*
X242084Y477953D01*
X240583Y476452D02*
X240583D01*
X236439Y477953D02*
X237940Y476452D01*
X240583D01*
X201047Y460630D02*
X203681D01*
X196723Y464954D02*
X201047Y460630D01*
X205021Y482046D02*
Y488662D01*
Y482046D02*
X205709Y481358D01*
X207291Y493437D02*
X214508Y486221D01*
X206559Y493437D02*
X207291D01*
X206035Y493961D02*
X206559Y493437D01*
X214508Y486221D02*
X222441D01*
X111132Y558427D02*
Y558946D01*
X106587Y563492D02*
X111132Y558946D01*
X104331Y565354D02*
X104724D01*
X249606Y501575D02*
X250000D01*
X243602D02*
X249606D01*
X241437Y499409D02*
X243602Y501575D01*
X240354Y499409D02*
X241437D01*
X245276Y505905D02*
X249606Y501575D01*
X212598Y505905D02*
X245276D01*
X230315Y501575D02*
X237107D01*
X239272Y499409D01*
X240354D01*
X209705Y500000D02*
X218124D01*
X219699Y501575D01*
X230315D01*
X225984Y494488D02*
X230315D01*
X220234D02*
X225984D01*
X217984Y492238D02*
X220234Y494488D01*
X216901Y492238D02*
X217984D01*
X230315Y494488D02*
X250000D01*
X207925Y501232D02*
X212598Y505905D01*
X222630Y497843D02*
X225984Y494488D01*
X159055Y437514D02*
X159142Y437601D01*
X165415D02*
X183071Y419945D01*
X159142Y437601D02*
X165415D01*
X170677Y474409D02*
Y474767D01*
X61024Y604331D02*
X73228D01*
X124428Y436917D02*
X137052D01*
X147638Y426331D01*
Y401652D02*
Y426331D01*
X115420Y437346D02*
X131673Y421093D01*
Y419291D02*
Y421093D01*
X169465Y571040D02*
X171260Y572835D01*
X169465Y560621D02*
Y571040D01*
X151665Y540037D02*
X175197Y563569D01*
Y564961D01*
X163147Y557087D02*
X166424Y560364D01*
X151575Y600394D02*
X166424Y585544D01*
Y560364D02*
Y585544D01*
X163147Y557087D02*
X163147D01*
X148881Y542821D02*
X163147Y557087D01*
X150273Y541429D02*
X169465Y560621D01*
X153701Y608268D02*
X179134Y582835D01*
X149307Y602661D02*
X151575Y600394D01*
X149307Y613874D02*
X151575Y616142D01*
X149307Y602661D02*
Y613874D01*
X151575Y616142D02*
X261811D01*
X151575Y600394D02*
Y600394D01*
X163543Y608110D02*
X202756Y568898D01*
Y553401D02*
Y568898D01*
X110610Y620079D02*
X121890D01*
X133701Y608268D02*
Y608268D01*
X121890Y620079D02*
X133701Y608268D01*
X110610Y604331D02*
Y620079D01*
X158625Y533077D02*
X163386Y537838D01*
X160005Y564443D02*
Y565941D01*
X238775Y614748D02*
X256942D01*
X171479Y519995D02*
X238189Y586705D01*
Y614162D01*
X238775Y614748D01*
X226378Y557087D02*
Y561024D01*
X246063Y580709D02*
Y608268D01*
X226378Y561024D02*
X246063Y580709D01*
X256942Y614748D02*
X269685Y602005D01*
X273622Y580709D02*
Y604331D01*
X261811Y616142D02*
X273622Y604331D01*
X236508Y567216D02*
X269685Y600394D01*
Y602005D01*
X73228Y604331D02*
X73228Y604331D01*
X49213Y604331D02*
X61024D01*
X72835Y592520D01*
X151652Y332677D02*
X187008D01*
X188140Y333809D02*
Y337823D01*
X147638Y336692D02*
X151652Y332677D01*
X187008D02*
X214567D01*
X188140Y337823D02*
X188976Y338660D01*
X187008Y332677D02*
X188140Y333809D01*
X219567Y337677D02*
X229252D01*
X214567Y332677D02*
X219567Y337677D01*
X84646Y462598D02*
X94528Y452716D01*
Y356299D02*
Y452716D01*
X111420Y442913D02*
X194882D01*
X79595Y377098D02*
X84646Y372047D01*
X79595Y377098D02*
Y483129D01*
X84646Y356299D02*
Y372047D01*
X116142Y496162D02*
X133430Y513451D01*
X116552Y518843D02*
X122295Y524586D01*
X106325Y519713D02*
X107195Y518843D01*
X116552D01*
X106325Y519713D02*
X106325D01*
X112979Y512487D02*
X123687Y523194D01*
X74803Y356299D02*
Y490837D01*
X73762Y491878D02*
X74803Y490837D01*
X64803Y356299D02*
X64961Y356457D01*
Y494095D01*
X120177Y539371D02*
X123687Y535861D01*
X119348Y539371D02*
X120177D01*
X113685Y539629D02*
X116468Y542411D01*
X117575Y542777D02*
X122338D01*
X118152Y541383D02*
X120937D01*
X101384Y539274D02*
X105762Y534896D01*
X117209Y542411D02*
X117575Y542777D01*
X111387Y534618D02*
X118152Y541383D01*
X105762Y534896D02*
X106041Y534618D01*
X116468Y542411D02*
X117209D01*
X106041Y534618D02*
X111387D01*
X255748Y431102D02*
X256405Y430445D01*
Y417216D02*
Y430445D01*
Y417216D02*
X258268Y415354D01*
X267748Y417610D02*
X272388Y422251D01*
Y445617D02*
X278059Y451287D01*
X272388Y422251D02*
Y445617D01*
X278059Y451287D02*
X281906Y455134D01*
X267216Y417610D02*
X267748D01*
X265748Y416142D02*
X267216Y417610D01*
X149606Y472441D02*
X154882D01*
X148622Y471457D02*
X149606Y472441D01*
X144287Y476189D02*
X154693D01*
X143701Y475603D02*
X144287Y476189D01*
X143701Y467323D02*
Y475603D01*
Y467323D02*
X155905Y455118D01*
X147489Y514843D02*
X159449Y502883D01*
Y501968D02*
Y502883D01*
X146509Y510255D02*
X148870Y507894D01*
X145737Y503933D02*
X148870Y507066D01*
X145737Y487189D02*
Y503933D01*
X148870Y507066D02*
Y507894D01*
X135827Y477278D02*
X145737Y487189D01*
X141893Y502816D02*
X143860Y500849D01*
X127953Y471390D02*
X143860Y487297D01*
Y500849D01*
X145600Y455909D02*
X149971D01*
X151156Y454724D01*
X155905D01*
X139764Y451373D02*
Y474409D01*
Y451373D02*
X144287Y446850D01*
X139764Y474409D02*
X147638Y482283D01*
X135827Y458661D02*
Y477278D01*
X127953Y458661D02*
Y471390D01*
X249606Y477953D02*
X250000D01*
X230315D02*
X236439D01*
X208276Y481898D02*
X246055D01*
X247744Y479815D02*
X249606Y477953D01*
X247744Y479815D02*
Y480209D01*
X246055Y481898D02*
X247744Y480209D01*
X207677Y501043D02*
X207866Y501232D01*
X207925D01*
X194882Y458661D02*
X203681D01*
X188402Y459820D02*
X191528Y456693D01*
X203681D01*
X188402Y459820D02*
Y482861D01*
X178740Y478346D02*
X179134Y477953D01*
X177272Y472728D02*
X179134Y470866D01*
X173798Y472728D02*
X177272D01*
X171938Y474588D02*
X173798Y472728D01*
X170856Y474588D02*
X171938D01*
X187008Y446850D02*
Y482283D01*
X192438Y549632D02*
Y550085D01*
X185576Y542770D02*
X192438Y549632D01*
X170744Y521389D02*
X202756Y553401D01*
X158470Y521389D02*
X170744D01*
X156247Y520004D02*
X157060D01*
X175144Y519943D02*
X176226D01*
X157069Y519995D02*
X171479D01*
X154449Y521802D02*
X156247Y520004D01*
X154080Y558518D02*
X160005Y564443D01*
X141677Y570921D02*
Y570987D01*
Y570921D02*
X149069Y563529D01*
X96991Y539274D02*
X101384D01*
X131461Y488450D02*
Y488655D01*
X138332Y495526D01*
X124644Y495727D02*
X128512D01*
X133321Y500537D01*
X116142Y490158D02*
Y496162D01*
X104331Y419291D02*
X115748D01*
X116142Y418898D01*
X197273Y401652D02*
X207160Y391765D01*
X194882Y401652D02*
X197273D01*
X218504Y458661D02*
X224388Y452777D01*
X229921Y447244D01*
X215905Y452777D02*
X224388D01*
X222441Y478346D02*
X228059Y472728D01*
X229921Y470866D01*
X218892Y472728D02*
X228059D01*
X218117Y473504D02*
X218892Y472728D01*
X217034Y473504D02*
X218117D01*
X154866Y518612D02*
X155668D01*
X173803Y518602D02*
X175144Y519943D01*
X157060Y520004D02*
X157069Y519995D01*
X155678Y518602D02*
X173803D01*
X155668Y518612D02*
X155678Y518602D01*
X151665Y519018D02*
X154466Y516217D01*
X158463Y521396D02*
X158470Y521389D01*
X155841Y523194D02*
X157639Y521396D01*
X159047Y522783D02*
X165589D01*
X157244Y524586D02*
X159047Y522783D01*
X165589D02*
X177702Y534896D01*
X157639Y521396D02*
X158463D01*
X157233Y524586D02*
X157244D01*
X177702Y534896D02*
X177702D01*
X235335Y540965D02*
X235879D01*
X236508Y541594D01*
Y567216D01*
X144287Y446850D02*
X187008D01*
X213775D01*
X222441D01*
X120079D02*
X144287D01*
X154882Y484252D02*
Y494724D01*
X203492Y478535D02*
X203681Y478346D01*
X183071Y414567D02*
Y419945D01*
X194882Y442913D02*
X206693Y431102D01*
X161980Y477287D02*
X162701Y476567D01*
X163827D01*
X164016Y476378D01*
X159449Y477850D02*
Y482283D01*
X156197Y474598D02*
X159449Y477850D01*
X157480Y484252D02*
X159449Y482283D01*
X154882Y484252D02*
X157480D01*
X206559Y454067D02*
X213775Y446850D01*
X147638Y482283D02*
X154882D01*
X141893Y502816D02*
Y509247D01*
X143313Y510667D02*
Y510667D01*
X138611Y495804D02*
Y505359D01*
X141893Y509247D02*
X143313Y510667D01*
X183071Y399684D02*
Y401652D01*
X226996Y529555D02*
X233925D01*
X235335Y530965D01*
X218504Y525965D02*
X218524D01*
X209643Y524344D02*
X216864D01*
X218504Y525984D01*
X218222Y533071D02*
X218504D01*
X209246Y533353D02*
X218222D01*
X218504Y533071D01*
X167287Y478158D02*
X170677Y474767D01*
X164205Y478158D02*
X167287D01*
X170374Y466535D02*
X174803D01*
X164469Y472441D02*
X170374Y466535D01*
X174803D02*
X179134Y470866D01*
X173228Y480315D02*
X175197Y478346D01*
X164016Y480315D02*
X173228D01*
X175197Y478346D02*
X178740D01*
X164016Y474409D02*
X170677D01*
X164016Y474409D02*
X164016Y474409D01*
X164016Y478346D02*
X164205Y478158D01*
X258465Y530965D02*
X266202Y523227D01*
X256791Y530965D02*
X258465D01*
X266202Y471019D02*
X278059Y459161D01*
X276466Y463189D02*
X279471D01*
X281906Y460755D01*
Y455134D02*
Y460755D01*
X265748Y446850D02*
X278059Y459161D01*
X213620Y452777D02*
X215905D01*
X209705Y456693D02*
X213620Y452777D01*
X212579Y473504D02*
X217034D01*
X209705Y476378D02*
X212579Y473504D01*
X213530Y492238D02*
X216901D01*
X209705Y496063D02*
X213530Y492238D01*
X205957Y454954D02*
Y455461D01*
Y454954D02*
X206035Y454875D01*
Y454590D02*
Y454875D01*
Y454590D02*
X206559Y454067D01*
X206559D01*
X205709Y455650D02*
X205768D01*
X205957Y455461D01*
X217198Y466535D02*
X222441D01*
X209981Y473752D02*
X217198Y466535D01*
X205709Y475335D02*
X205768D01*
X205957Y475146D01*
Y474354D02*
Y475146D01*
Y474354D02*
X206559Y473752D01*
X209981D01*
X205709Y495020D02*
X206035Y494693D01*
Y493961D02*
Y494693D01*
X112205Y548362D02*
X112848Y549005D01*
X116205D01*
X116412Y549213D02*
X118687D01*
X120318Y553150D02*
X130647Y542821D01*
X95063Y551756D02*
X118916D01*
X86945Y558724D02*
X92520Y553150D01*
X116205Y549005D02*
X116412Y549213D01*
X118916Y551756D02*
X129244Y541429D01*
X85039Y541732D02*
X95063Y551756D01*
X92520Y553150D02*
X120318D01*
X118687Y549213D02*
X127863Y540037D01*
X120937Y541383D02*
X125068Y537253D01*
X122338Y542777D02*
X126471Y538645D01*
X80709Y541732D02*
X85039D01*
X111052Y539629D02*
X113685D01*
X110773Y539907D02*
X111052Y539629D01*
X86945Y558724D02*
Y582346D01*
X104163Y545525D02*
X109782Y539907D01*
X206693Y399606D02*
Y431102D01*
Y399606D02*
X226378Y379921D01*
X289370D01*
X301575Y392126D02*
Y403543D01*
X289370Y379921D02*
X301575Y392126D01*
X209894Y497843D02*
X222630D01*
X209705Y458661D02*
X218504D01*
X209705Y478346D02*
X222441D01*
X209846Y460488D02*
X223764D01*
X207736Y461673D02*
X208276Y462213D01*
X207677Y461673D02*
X207736D01*
X209833Y480187D02*
X223764D01*
X207677Y481358D02*
X207736D01*
X208276Y481898D01*
X172691Y539907D02*
X172691D01*
X158699Y525915D02*
X172691Y539907D01*
X158688Y525915D02*
X158699D01*
X158625Y525978D02*
X158688Y525915D01*
X177702Y534896D02*
X185576Y542770D01*
X177702Y534896D02*
Y534896D01*
X172691Y539907D02*
X180565Y547781D01*
X172691Y539907D02*
Y539907D01*
X109782Y539907D02*
X110773D01*
X103937Y592520D02*
X104331Y592126D01*
X72835Y592520D02*
X103937D01*
X84646Y604331D02*
X92126Y596850D01*
X108661D01*
X111811Y600000D01*
X93927Y604807D02*
X94404Y604331D01*
X104724D01*
X80315Y604331D02*
X84646D01*
X111811Y600000D02*
Y604331D01*
X261811Y573228D02*
X262205D01*
X272456Y562977D01*
X276606D01*
X285933Y553650D01*
X296850Y573228D02*
X297244D01*
X294988Y571366D02*
X296850Y573228D01*
X294988Y570972D02*
Y571366D01*
X285933Y561917D02*
X294988Y570972D01*
X285933Y553650D02*
Y561917D01*
X218524Y525965D02*
X235335D01*
X218504Y533071D02*
X230768D01*
X33858Y564961D02*
X33965Y564854D01*
Y553650D02*
Y564854D01*
X80709Y548819D02*
X81175Y549285D01*
Y558577D01*
X80709Y559043D02*
X81175Y558577D01*
X80709Y559043D02*
Y581102D01*
X154882Y474409D02*
X155071Y474598D01*
X156197D01*
X134764Y509216D02*
X136214Y510667D01*
X134764Y509205D02*
Y509216D01*
Y509205D02*
X138611Y505359D01*
X138332Y495526D02*
X138611Y495804D01*
X133024Y510260D02*
X134822Y512059D01*
X133024Y509447D02*
Y510260D01*
X133019Y509442D02*
X133024Y509447D01*
X133019Y504030D02*
Y509442D01*
Y504030D02*
X133600Y503449D01*
Y500815D02*
Y503449D01*
X133321Y500537D02*
X133600Y500815D01*
X159329Y463923D02*
X159449Y464042D01*
Y470827D01*
X164016Y455748D02*
Y472441D01*
X265748Y431102D02*
Y446850D01*
X209705Y498032D02*
X209894Y497843D01*
X209705Y500000D02*
X209833Y499872D01*
X225998Y477953D02*
X230315D01*
X223764Y480187D02*
X225998Y477953D01*
X209705Y480315D02*
X209833Y480187D01*
X229921Y470866D02*
X230315D01*
X250000D01*
X229921Y447244D02*
X230315D01*
X209764Y456693D02*
X209953Y456504D01*
X209705Y456693D02*
X209764D01*
X209705Y460630D02*
X209846Y460488D01*
X223764D02*
X229921Y454331D01*
X230315D01*
X154693Y476189D02*
X154882Y476378D01*
X155905Y454724D02*
Y455118D01*
X162992Y454724D02*
X164016Y455748D01*
Y472441D02*
X164469D01*
X139980Y405373D02*
X141732Y403621D01*
X133542Y411811D02*
X139980Y405373D01*
X116142Y411811D02*
X133542D01*
X141732Y401652D02*
Y403621D01*
X139980Y405373D02*
Y419291D01*
X151378D02*
X151969Y419882D01*
Y437514D01*
X159646Y415235D02*
Y419291D01*
Y415235D02*
X171260Y403621D01*
Y401652D02*
Y403621D01*
X177165D02*
X179134Y405589D01*
X177165Y401652D02*
Y403621D01*
X179134Y405589D02*
Y418839D01*
X170807Y415807D02*
Y419291D01*
Y415807D02*
X175197Y411417D01*
X179134Y418839D02*
X179587Y419291D01*
X187402Y418898D02*
Y419291D01*
X183071Y414567D02*
X187402Y418898D01*
X183071Y401652D02*
Y414567D01*
X194488Y419291D02*
X194882Y418898D01*
Y401652D02*
Y418898D01*
X294506Y414179D02*
X295872D01*
X300984Y419291D01*
X301075Y451287D02*
X301575Y450787D01*
X285933Y451287D02*
X301075D01*
X309252Y435039D02*
Y450197D01*
X308661Y450787D02*
X309252Y450197D01*
X300984Y419291D02*
Y435039D01*
X308661Y403543D02*
Y418701D01*
X309252Y419291D01*
X285039Y391732D02*
X285933Y392626D01*
Y404043D01*
X277953Y391732D02*
Y403937D01*
X278059Y404043D01*
X218504Y525984D02*
X218524Y525965D01*
X230768Y533071D02*
X233661Y535965D01*
X235335D01*
X284016Y580315D02*
X297244D01*
X283622Y580709D02*
X284016Y580315D01*
X261811D02*
X262205Y580709D01*
X273622D01*
X125068Y537253D02*
X125079D01*
X81102Y588189D02*
X86945Y582346D01*
X80709Y588189D02*
X81102D01*
X129244Y541429D02*
X129255D01*
X40945Y554543D02*
Y564961D01*
Y554543D02*
X41839Y553650D01*
X74429Y605532D02*
Y620079D01*
X73228Y604331D02*
X74429Y605532D01*
X92520Y572835D02*
X103937D01*
X92520Y582835D02*
X94724Y585039D01*
X104331D01*
X64961Y542323D02*
X65551Y541732D01*
X80709D01*
X64961Y579724D02*
Y584752D01*
X68398Y588189D01*
X80709D01*
X360236Y403543D02*
X374410D01*
X381102Y396850D01*
X360236Y411417D02*
X368110D01*
X377953Y421260D01*
X360236Y435039D02*
X371430D01*
X373398Y433071D01*
X374016D01*
X478858Y486072D02*
X517983Y525197D01*
X576378D01*
X596457Y545276D01*
X477466Y487464D02*
X517955Y527953D01*
X564961D02*
X590158Y553150D01*
X517955Y527953D02*
X564961D01*
X590158Y553150D02*
X596457D01*
X517224Y521654D02*
X596457D01*
X480250Y484680D02*
X517224Y521654D01*
X512134Y513779D02*
X596457D01*
X481642Y483288D02*
X512134Y513779D01*
X352362Y419291D02*
X352362Y419291D01*
X414961Y414567D02*
Y436094D01*
X352165Y427362D02*
X352362Y427165D01*
X546126Y385764D02*
X556299D01*
X545276Y386614D02*
X546126Y385764D01*
X352165Y435236D02*
X352362Y435039D01*
X505512Y386811D02*
Y396457D01*
X550000Y550000D02*
X569165Y569165D01*
X571920D02*
X572441Y569685D01*
X569165Y569165D02*
X571920D01*
X569165Y560503D02*
X571527D01*
X532466Y548032D02*
X556693D01*
X571527Y560503D02*
X572441Y561417D01*
X556693Y548032D02*
X569165Y560503D01*
X517882Y550000D02*
X550000D01*
X518110Y552756D02*
X550000D01*
X564961Y567717D02*
Y575591D01*
X550000Y552756D02*
X564961Y567717D01*
X604724Y403543D02*
X605116D01*
X499098Y520231D02*
Y531216D01*
X474682Y490248D02*
X532466Y548032D01*
X473290Y491640D02*
X504331Y522680D01*
X497244Y521161D02*
Y531890D01*
X471899Y493032D02*
X499098Y520231D01*
X470507Y494423D02*
X497244Y521161D01*
X504331Y522680D02*
Y527953D01*
X497244Y531890D02*
X518110Y552756D01*
X499098Y531216D02*
X517882Y550000D01*
X567323Y577953D02*
X572441D01*
X564961Y575591D02*
X567323Y577953D01*
X586221Y564961D02*
X614173D01*
X582804Y561544D02*
X586221Y564961D01*
X577819Y561417D02*
X577946Y561544D01*
X582804D01*
X614173Y564961D02*
X616929Y562205D01*
X579528Y568110D02*
X579528Y568110D01*
X613779D02*
X618898Y562992D01*
X579528Y568110D02*
X613779D01*
X500000Y474803D02*
Y479500D01*
X616929Y550684D02*
Y562205D01*
X618898Y551244D02*
Y562992D01*
X579528Y574409D02*
X613386D01*
X620866Y551803D02*
Y566929D01*
X613386Y574409D02*
X620866Y566929D01*
X616929Y550684D02*
X618898Y548716D01*
Y551244D02*
X620866Y549275D01*
Y551803D02*
X622835Y549834D01*
X618898Y441339D02*
X624016Y436221D01*
X618898Y441339D02*
Y548716D01*
X620866Y476772D02*
X624016Y473622D01*
X620866Y476772D02*
Y549275D01*
X622835Y512205D02*
Y549834D01*
Y512205D02*
X624016Y511024D01*
X626968D02*
X627165Y510827D01*
X624016Y511024D02*
X626968D01*
X623228Y552448D02*
X623814Y551862D01*
X625500D01*
X623228Y562598D02*
X626378Y565748D01*
X623228Y552448D02*
Y562598D01*
X625500Y551862D02*
X627165Y550197D01*
X585433Y458661D02*
X596457D01*
X360891Y505250D02*
X365771D01*
X379409Y491613D01*
X586614Y447638D02*
X589764Y450787D01*
X596457D01*
X469115Y495826D02*
X471543Y498255D01*
Y503334D01*
X469115Y495815D02*
Y495826D01*
X474066Y505856D02*
Y505856D01*
X471543Y503334D02*
X474066Y505856D01*
Y505856D02*
X481940Y513730D01*
X525591Y431240D02*
X547539D01*
X389350Y624016D02*
X403543D01*
X435139Y497638D02*
X438772Y494005D01*
X423206Y464151D02*
X426750D01*
X444898Y482299D01*
X422441Y463386D02*
X423206Y464151D01*
X432698Y462183D02*
X445312Y474797D01*
X431080Y462183D02*
X432698D01*
X430315Y461417D02*
X431080Y462183D01*
X434053Y476772D02*
X444158Y486877D01*
X433071Y476772D02*
X434053D01*
X426378Y483858D02*
Y483858D01*
X396519Y453999D02*
X426378Y483858D01*
X392520Y453543D02*
X392975Y453999D01*
X396519D01*
X448819Y420472D02*
X465354D01*
X604331Y403543D02*
X604724D01*
X364689Y450665D02*
X378346Y437008D01*
X405905D01*
X430315Y461417D01*
X363143Y457723D02*
X380709Y440158D01*
X404331D02*
X422441Y458268D01*
X380709Y440158D02*
X404331D01*
X360236Y458661D02*
X361175Y457723D01*
X363143D01*
X422441Y458268D02*
Y463386D01*
X360236Y505905D02*
X360891Y505250D01*
X462098Y441732D02*
X469291D01*
X460773Y443057D02*
X462098Y441732D01*
X460773Y443057D02*
Y444345D01*
X463779Y447351D01*
X448425Y443701D02*
X448425D01*
X454080Y449356D01*
X455762D01*
X527866Y452817D02*
X528006Y452677D01*
X544882D01*
X520079Y479245D02*
Y488189D01*
X360236Y450787D02*
X360358Y450665D01*
X364689D01*
X448425Y453740D02*
Y458434D01*
X496667Y447244D02*
X502756D01*
X476074Y467837D02*
X496667Y447244D01*
X490781Y483694D02*
X494488Y487402D01*
X480250Y472013D02*
X492687Y459576D01*
X500410D01*
X520079Y479245D01*
X529134Y560630D02*
X552362D01*
X557480Y565748D02*
Y576315D01*
X552362Y560630D02*
X557480Y565748D01*
X444158Y486877D02*
X445888D01*
X453150Y473096D02*
X458645Y467600D01*
X453150Y473096D02*
Y479331D01*
X458645Y466126D02*
Y467600D01*
X458517Y465998D02*
X458645Y466126D01*
X458517Y465998D02*
X458645Y465870D01*
X472047Y484829D02*
X476074Y488856D01*
X472047Y479134D02*
Y484829D01*
X464567Y465436D02*
Y481102D01*
X468110Y484744D02*
Y485827D01*
X466872Y483506D02*
X468110Y484744D01*
X466872Y483408D02*
Y483506D01*
X464567Y481102D02*
X466872Y483408D01*
X464567Y465436D02*
X469115Y460889D01*
X458661Y479134D02*
X462432Y475363D01*
X457840Y462281D02*
X462432Y466873D01*
Y475363D01*
X458661Y479134D02*
Y482847D01*
X460630Y484816D02*
Y485433D01*
X458661Y482847D02*
X460630Y484816D01*
X476063Y488856D02*
X476074D01*
X469291Y471654D02*
Y472441D01*
X468309Y470672D02*
X469291Y471654D01*
X468309Y464478D02*
X470507Y462281D01*
X468309Y464478D02*
Y470672D01*
X470866Y524803D02*
X477903Y517766D01*
X470472Y524803D02*
X470866D01*
X461417Y500913D02*
Y516535D01*
X469115Y460878D02*
Y460889D01*
X477055Y540476D02*
X482283Y545705D01*
X470507Y462269D02*
Y462281D01*
X457840Y462269D02*
Y462281D01*
X431496Y522835D02*
Y545689D01*
X390158Y587028D02*
X431496Y545689D01*
X417554Y533696D02*
X425984Y525266D01*
Y520711D02*
Y525266D01*
Y520711D02*
X455056Y491640D01*
X456448Y463661D02*
Y463673D01*
X458645Y465870D01*
X420472Y565748D02*
X472677D01*
X372835Y617323D02*
X480787D01*
X372441D02*
X372835D01*
X389390Y587795D02*
X390158Y587028D01*
X379921Y587795D02*
X389390D01*
X372441D02*
X379921D01*
X372835Y617323D02*
X374697Y615461D01*
Y615067D02*
Y615461D01*
Y615067D02*
X379921Y609842D01*
Y587795D02*
Y609842D01*
X389350Y624016D02*
X390158Y623209D01*
X389279Y624087D02*
X389350Y624016D01*
X372835D02*
X389350D01*
X372441Y624409D02*
X372835Y624016D01*
X632283Y520866D02*
Y556299D01*
Y483465D02*
Y520866D01*
X627165Y519095D02*
X630512D01*
X632283Y520866D01*
Y446063D02*
Y483465D01*
X627165Y481693D02*
X630512D01*
X632283Y483465D01*
Y408661D02*
Y446063D01*
X627165Y444291D02*
X630512D01*
X632283Y446063D01*
X624016Y436221D02*
X626968D01*
X533760Y428740D02*
X534646Y429626D01*
X480787Y617323D02*
X490236Y607874D01*
X543228Y574803D02*
X544016Y574016D01*
X482283Y545705D02*
Y549213D01*
X472441Y545090D02*
X477055Y540476D01*
X472441Y545090D02*
Y549213D01*
X482677Y556693D02*
Y565748D01*
X482283Y556299D02*
X482677Y556693D01*
X472677Y556535D02*
Y565748D01*
X472441Y556299D02*
X472677Y556535D01*
X596457Y393307D02*
Y403543D01*
X596850Y387795D02*
Y393307D01*
Y387795D02*
X598032Y386614D01*
X623228D01*
X632283Y395669D01*
Y408661D01*
X607872Y406299D02*
X617323D01*
X605116Y403543D02*
X607872Y406299D01*
X617323Y399213D02*
X626575D01*
X627165Y398622D01*
X579921Y426240D02*
Y431496D01*
Y404331D02*
Y426240D01*
X568996D02*
X579921D01*
X586614Y438189D02*
Y447638D01*
X579921Y431496D02*
X586614Y438189D01*
X580315Y453543D02*
X585433Y458661D01*
X574547Y431240D02*
X580315Y437008D01*
Y453543D01*
X557480Y576315D02*
X566023Y584858D01*
X584764D02*
X584764Y584858D01*
X604512D01*
X566023Y584858D02*
X584764D01*
X504331Y574803D02*
X543228D01*
X544016Y574016D02*
X544882Y574882D01*
X497191Y471994D02*
X500000Y474803D01*
X483034Y481896D02*
X484832Y483694D01*
X490781D01*
X604512Y584858D02*
X609055Y580315D01*
X614173D01*
X621260D02*
X621654Y579921D01*
X624803D01*
X626378Y565748D02*
Y578346D01*
X624803Y579921D02*
X626378Y578346D01*
X626968Y436221D02*
X627165Y436024D01*
X626968Y473622D02*
X627165Y473425D01*
X624016Y473622D02*
X626968D01*
X470029Y509892D02*
X477903Y517766D01*
X467723Y507586D02*
X470029Y509892D01*
X491983Y467180D02*
Y467466D01*
Y466679D02*
Y467180D01*
X627165Y406890D02*
X630512D01*
X632283Y408661D01*
X630315Y558268D02*
X632283Y556299D01*
X627165Y558464D02*
X627362Y558268D01*
X630315D01*
X544882Y452677D02*
X545197Y452362D01*
X561417D01*
X494574Y454906D02*
X507693D01*
X526358Y436240D02*
X547539D01*
X507693Y454906D02*
X526358Y436240D01*
X515354Y420079D02*
Y444095D01*
X506693Y452756D02*
X515354Y444095D01*
X493940Y452756D02*
X506693D01*
X515354Y420079D02*
X527362Y408071D01*
X459173Y498658D02*
X460624Y497207D01*
X459173Y498658D02*
Y498669D01*
X461417Y500913D01*
X455643Y496632D02*
Y522178D01*
X462205Y528740D02*
Y540551D01*
X455643Y522178D02*
X462205Y528740D01*
X441535Y427756D02*
X448819Y420472D01*
X441535Y427756D02*
Y454317D01*
X410630Y434547D02*
X448096Y472013D01*
X410630Y352559D02*
Y434547D01*
X414961Y436094D02*
X449488Y470621D01*
X419291Y437640D02*
X450880Y469229D01*
X419291Y352559D02*
Y437640D01*
X423622Y439187D02*
X452272Y467837D01*
X423622Y352559D02*
Y439187D01*
X556299Y411417D02*
Y424803D01*
X505512Y386811D02*
X505709Y386614D01*
X459173Y458035D02*
X460624Y459486D01*
X459173Y458024D02*
Y458035D01*
X453937Y452756D02*
X455762Y450931D01*
X453937Y455583D02*
X459232Y460878D01*
X453937Y452756D02*
Y455583D01*
X455762Y449356D02*
Y450931D01*
X459173Y458024D02*
X463779Y453418D01*
Y447351D02*
Y453418D01*
X493987Y475197D02*
X496994Y472191D01*
X490158Y475197D02*
X493987D01*
X487959Y472999D02*
X490158Y475197D01*
X495298Y463364D02*
X498841D01*
X491983Y466679D02*
X495298Y463364D01*
X489849Y469600D02*
X491983Y467466D01*
X485447Y469600D02*
X489849D01*
X434438Y489949D02*
X435659D01*
X436632Y488976D01*
X429635Y493701D02*
X432928Y490408D01*
X423622Y493701D02*
X429635D01*
X436632Y488976D02*
X446584D01*
X449488Y486072D01*
X422047Y504331D02*
X428740Y497638D01*
X435139D01*
X438772Y494005D02*
X444339D01*
X391929Y533268D02*
X399857Y541195D01*
X384001Y525340D02*
X391929Y533268D01*
X604724Y394094D02*
Y403150D01*
X398356Y500000D02*
X406693D01*
X422441Y515748D01*
X391107Y507249D02*
X398356Y500000D01*
X422441Y515748D02*
X428164D01*
X453664Y490248D01*
X383608Y525340D02*
X384001D01*
X404868Y546206D02*
X405044D01*
X417554Y533696D01*
X378597Y519759D02*
Y520329D01*
Y519759D02*
X391107Y507249D01*
X450394Y499086D02*
Y522835D01*
X451575Y353150D02*
X451772Y352953D01*
X442126Y353150D02*
X451575D01*
X535433Y386614D02*
X545276D01*
X476378D02*
X476378Y386614D01*
Y396457D01*
X527559Y330315D02*
X535433Y338189D01*
X401968Y333465D02*
X405118Y330315D01*
X527559D01*
X496063Y342520D02*
Y361024D01*
X426378Y335039D02*
X488583D01*
X496063Y342520D01*
X515748Y339764D02*
Y361024D01*
X413779Y332677D02*
X508661D01*
X515748Y339764D01*
X535433Y338189D02*
Y361024D01*
Y379528D01*
X401968Y333465D02*
Y352559D01*
X419291Y342126D02*
X426378Y335039D01*
X419291Y342126D02*
Y352559D01*
X414961D02*
X415354Y352165D01*
Y338976D02*
Y352165D01*
X410630Y335827D02*
Y352559D01*
Y335827D02*
X413779Y332677D01*
X406299Y352559D02*
X406299Y352559D01*
X406299Y338976D02*
Y352559D01*
X486221Y361024D02*
Y399606D01*
X465354Y420472D02*
X486221Y399606D01*
X429528Y405118D02*
X439764D01*
X392913D02*
X401968D01*
X382677D02*
X392913D01*
X375984Y351969D02*
X375984Y351969D01*
X385039D01*
X505709Y386614D02*
X510236D01*
X501181D02*
X505709D01*
X476378Y361024D02*
Y379528D01*
X476378Y379528D02*
X476378Y379528D01*
X535433Y379528D02*
X535433Y379528D01*
X545276Y361024D02*
Y379528D01*
X545276Y379528D02*
X545276Y379528D01*
X505709D02*
X510236D01*
X501181D02*
X505709D01*
Y361221D02*
X505905Y361024D01*
X505709Y361221D02*
Y379528D01*
X429528Y398031D02*
X429528Y398031D01*
Y363779D02*
Y398031D01*
X427953Y352559D02*
Y362205D01*
X429528Y363779D01*
X403543Y414567D02*
X407480Y410630D01*
X405118Y398425D02*
X407480Y400787D01*
Y410630D01*
X401968Y398031D02*
X402362Y398425D01*
X405118D01*
X392913Y382677D02*
X397638Y377953D01*
X392913Y382677D02*
Y400681D01*
X401968Y352559D02*
Y398031D01*
X427953Y352559D02*
X428150Y352756D01*
X397638Y352559D02*
Y377953D01*
X441535Y454317D02*
X453664Y466445D01*
X448425Y458434D02*
X455045Y465053D01*
X534646Y417913D02*
Y423917D01*
Y417913D02*
X537598Y414961D01*
X541535Y408071D02*
X552362Y418898D01*
X527362Y408071D02*
X541535D01*
X481940Y513730D02*
Y513730D01*
X485827Y517617D01*
Y523622D01*
X437191Y503937D02*
X452272Y488856D01*
X431693Y503937D02*
X437191D01*
X438976Y542520D02*
Y551968D01*
Y532677D02*
Y542520D01*
X440551Y553543D02*
Y554331D01*
X438976Y551968D02*
X440551Y553543D01*
X446063Y532677D02*
X456299D01*
X446063Y532677D02*
X446063Y532677D01*
X446220Y542677D02*
X456299D01*
X446063Y542520D02*
X446220Y542677D01*
X456299D02*
X456457Y542520D01*
X460236D01*
X462205Y540551D01*
X455643Y496632D02*
X457840Y494434D01*
Y494423D02*
Y494434D01*
X450394Y499086D02*
X456448Y493032D01*
X455783Y532161D02*
X456299Y532677D01*
X455783Y528224D02*
Y532161D01*
X450394Y522835D02*
X455783Y528224D01*
X445888Y486877D02*
X448085Y484680D01*
X448096D01*
X372105Y605781D02*
X372441Y605445D01*
Y594882D02*
Y605445D01*
X455045Y465053D02*
X455056D01*
X547539Y426240D02*
X548957D01*
X552362Y422835D01*
Y418898D02*
Y422835D01*
X477466Y469229D02*
X493940Y452756D01*
X478858Y470621D02*
X494574Y454906D01*
X487795Y444882D02*
X489764Y442913D01*
X487795Y444882D02*
Y453333D01*
X474682Y466445D02*
X487795Y453333D01*
X444339Y494005D02*
X450880Y487464D01*
X603937Y395276D02*
Y395669D01*
X360236Y537402D02*
X371654D01*
X372047Y537795D01*
X360236Y545276D02*
X371654D01*
X372047Y544882D01*
X556299Y404331D02*
X569921D01*
X562736Y431240D02*
X568996D01*
X556299Y424803D02*
X562736Y431240D01*
X568996D02*
X574547D01*
X534646Y423917D02*
X539468D01*
X542146Y421240D02*
X547539D01*
X539468Y423917D02*
X542146Y421240D01*
X467723Y497207D02*
X469173Y498658D01*
Y498669D01*
X467723Y500119D02*
X469173Y498669D01*
X467723Y500119D02*
Y507586D01*
X470029Y509892D02*
Y509892D01*
X483034Y474797D02*
X484832Y472999D01*
X487959D01*
X481642Y473405D02*
X485447Y469600D01*
D29*
X390158Y623209D02*
D03*
D30*
Y587028D02*
D03*
D31*
X627165Y444291D02*
D03*
Y436024D02*
D03*
Y481693D02*
D03*
Y473425D02*
D03*
Y519095D02*
D03*
Y510827D02*
D03*
Y550197D02*
D03*
Y558464D02*
D03*
Y398622D02*
D03*
Y406890D02*
D03*
D32*
X544882Y574882D02*
D03*
Y452677D02*
D03*
D33*
X391107Y507249D02*
D03*
X417554Y533696D02*
D03*
D34*
X427953Y352559D02*
D03*
X423622D02*
D03*
X419291D02*
D03*
X414961D02*
D03*
X410630D02*
D03*
X406299D02*
D03*
X401968D02*
D03*
X397638D02*
D03*
D35*
X388287Y375000D02*
D03*
X442421D02*
D03*
X388287Y342323D02*
D03*
X442421D02*
D03*
D36*
X555118Y139764D02*
X555495Y140140D01*
X556887D01*
X557010Y140264D01*
X596580Y179257D02*
X596957Y179634D01*
X595188Y179257D02*
X596580D01*
X595065Y179134D02*
X595188Y179257D01*
X580709Y179134D02*
X595065D01*
X574803Y185039D02*
X580709Y179134D01*
X460130Y185039D02*
X574803D01*
X596424Y187508D02*
X596957D01*
X594955Y188976D02*
X596424Y187508D01*
X586614Y188976D02*
X594955D01*
X582677Y192913D02*
X586614Y188976D01*
X415354Y140264D02*
X460130Y185039D01*
X450787Y192913D02*
X582677D01*
X417323Y159449D02*
X450787Y192913D01*
X415354Y140264D02*
X432571D01*
X360736D02*
X415354D01*
X557010D02*
X596957D01*
X432571D02*
X442717Y130118D01*
Y37402D02*
Y130118D01*
X360736Y132390D02*
X361236Y131890D01*
X377953D01*
X387598Y37402D02*
Y122244D01*
X377953Y131890D02*
X387598Y122244D01*
X596957Y108768D02*
Y116642D01*
X506405D02*
X596957D01*
X501968Y112205D02*
X506405Y116642D01*
X501968Y101969D02*
Y112205D01*
X596457Y108268D02*
X596957Y108768D01*
Y85146D02*
Y93020D01*
X596457Y92520D02*
X596957Y93020D01*
X568898Y92520D02*
X596457D01*
X551181Y110236D02*
X568898Y92520D01*
X525591Y110236D02*
X551181D01*
X521654Y106299D02*
X525591Y110236D01*
X521654Y101969D02*
Y106299D01*
X501968Y82677D02*
Y94882D01*
X521654Y82677D02*
Y94882D01*
X511811Y72835D02*
X521654Y82677D01*
X511811Y37441D02*
X511850Y37402D01*
X511811Y37441D02*
Y72835D01*
X501968Y82677D02*
X511811Y72835D01*
X184646Y181496D02*
Y236024D01*
Y181496D02*
X185039Y181102D01*
X144362Y161575D02*
X144757Y161180D01*
X146216D01*
X146608Y160787D01*
X164724D01*
X143701Y88583D02*
X144096Y88977D01*
X146064D01*
X212598Y100394D02*
X250000D01*
X185039Y127953D02*
X212598Y100394D01*
X185039Y127953D02*
Y181102D01*
X146064Y88977D02*
X185039Y127953D01*
X164724Y160787D02*
X185039Y181102D01*
X0Y316929D02*
Y635827D01*
X316929D01*
X0Y0D02*
Y318898D01*
Y0D02*
X635827D01*
Y318898D01*
X318898Y635827D02*
X318898Y0D01*
X318898Y635827D02*
X635827D01*
Y316929D02*
Y635827D01*
X0Y318898D02*
X635827D01*
D37*
X362205Y206693D02*
X398931D01*
X403543Y202080D01*
Y157480D02*
Y202080D01*
D38*
X360736Y203256D02*
Y211130D01*
X73713Y226878D02*
X109016Y191575D01*
X144362D01*
X41878Y226878D02*
X73713D01*
X41878D02*
Y234752D01*
X227953Y136614D02*
Y192126D01*
Y136614D02*
X271547Y93020D01*
X278098D01*
Y85146D02*
Y93020D01*
D39*
X90591Y262067D02*
D03*
X93189D02*
D03*
X95787D02*
D03*
X98386D02*
D03*
X163425D02*
D03*
X166024D02*
D03*
X168622D02*
D03*
X171221D02*
D03*
D40*
X98386Y273819D02*
D03*
X95787D02*
D03*
X93189D02*
D03*
X90591D02*
D03*
X171221D02*
D03*
X168622D02*
D03*
X166024D02*
D03*
X163425D02*
D03*
D41*
X92097Y269911D02*
D03*
X96880D02*
D03*
X164931D02*
D03*
X169715D02*
D03*
D42*
X166024Y248988D02*
Y262067D01*
X93189Y245886D02*
Y262067D01*
D43*
X56004Y207382D02*
X68209D01*
X143701Y131890D01*
D44*
Y128583D02*
Y131890D01*
D45*
X273622Y580709D02*
D03*
X133701Y608268D02*
D03*
X153701D02*
D03*
X163701D02*
D03*
X143701D02*
D03*
X255748Y431102D02*
D03*
X92520Y572835D02*
D03*
X246063Y608268D02*
D03*
X33965Y553650D02*
D03*
Y545776D02*
D03*
Y537902D02*
D03*
Y530028D02*
D03*
Y522154D02*
D03*
Y514280D02*
D03*
Y506405D02*
D03*
Y498531D02*
D03*
Y490658D02*
D03*
Y482784D02*
D03*
Y474909D02*
D03*
Y467035D02*
D03*
Y459161D02*
D03*
Y451287D02*
D03*
Y443413D02*
D03*
Y435539D02*
D03*
Y427665D02*
D03*
Y419791D02*
D03*
Y411917D02*
D03*
Y404043D02*
D03*
X41839Y545776D02*
D03*
Y537902D02*
D03*
Y530028D02*
D03*
Y522154D02*
D03*
Y514280D02*
D03*
Y506405D02*
D03*
Y498531D02*
D03*
Y490658D02*
D03*
Y482784D02*
D03*
Y474909D02*
D03*
Y467035D02*
D03*
Y459161D02*
D03*
Y451287D02*
D03*
Y443413D02*
D03*
Y435539D02*
D03*
Y427665D02*
D03*
Y419791D02*
D03*
Y411917D02*
D03*
Y404043D02*
D03*
X285933D02*
D03*
Y411917D02*
D03*
Y419791D02*
D03*
Y427665D02*
D03*
Y435539D02*
D03*
Y443413D02*
D03*
Y451287D02*
D03*
Y459161D02*
D03*
Y467035D02*
D03*
Y474909D02*
D03*
Y482784D02*
D03*
Y490658D02*
D03*
Y498531D02*
D03*
Y506405D02*
D03*
Y514280D02*
D03*
Y522154D02*
D03*
Y530028D02*
D03*
Y537902D02*
D03*
Y545776D02*
D03*
Y553650D02*
D03*
X278059Y411917D02*
D03*
Y419791D02*
D03*
Y427665D02*
D03*
Y435539D02*
D03*
Y443413D02*
D03*
Y451287D02*
D03*
Y459161D02*
D03*
Y467035D02*
D03*
Y474909D02*
D03*
Y482784D02*
D03*
Y490658D02*
D03*
Y498531D02*
D03*
Y506405D02*
D03*
Y514280D02*
D03*
Y522154D02*
D03*
Y530028D02*
D03*
Y537902D02*
D03*
Y545776D02*
D03*
Y553650D02*
D03*
X360236Y403543D02*
D03*
Y411417D02*
D03*
Y419291D02*
D03*
Y427165D02*
D03*
Y435039D02*
D03*
Y442913D02*
D03*
Y450787D02*
D03*
Y458661D02*
D03*
Y466535D02*
D03*
Y474409D02*
D03*
Y482283D02*
D03*
Y490158D02*
D03*
Y498032D02*
D03*
Y505905D02*
D03*
Y513779D02*
D03*
Y521654D02*
D03*
Y529528D02*
D03*
Y537402D02*
D03*
Y545276D02*
D03*
X352362Y403543D02*
D03*
Y411417D02*
D03*
Y419291D02*
D03*
Y427165D02*
D03*
Y435039D02*
D03*
Y442913D02*
D03*
Y450787D02*
D03*
Y458661D02*
D03*
Y466535D02*
D03*
Y474409D02*
D03*
Y482283D02*
D03*
Y490158D02*
D03*
Y498032D02*
D03*
Y505905D02*
D03*
Y513779D02*
D03*
Y521654D02*
D03*
Y529528D02*
D03*
Y537402D02*
D03*
Y545276D02*
D03*
Y553150D02*
D03*
X596457D02*
D03*
Y545276D02*
D03*
Y537402D02*
D03*
Y529528D02*
D03*
Y521654D02*
D03*
Y513779D02*
D03*
Y505905D02*
D03*
Y498032D02*
D03*
Y490158D02*
D03*
Y482283D02*
D03*
Y474409D02*
D03*
Y466535D02*
D03*
Y458661D02*
D03*
Y450787D02*
D03*
Y442913D02*
D03*
Y435039D02*
D03*
Y427165D02*
D03*
Y419291D02*
D03*
Y411417D02*
D03*
X604331Y553150D02*
D03*
Y545276D02*
D03*
Y537402D02*
D03*
Y529528D02*
D03*
Y521654D02*
D03*
Y513779D02*
D03*
Y505905D02*
D03*
Y498032D02*
D03*
Y490158D02*
D03*
Y482283D02*
D03*
Y474409D02*
D03*
Y466535D02*
D03*
Y458661D02*
D03*
Y450787D02*
D03*
Y442913D02*
D03*
Y435039D02*
D03*
Y427165D02*
D03*
Y419291D02*
D03*
Y411417D02*
D03*
Y403543D02*
D03*
X392677Y453543D02*
D03*
X460000Y600000D02*
D03*
X450000D02*
D03*
X440000D02*
D03*
X520236Y607874D02*
D03*
X510236D02*
D03*
X500236D02*
D03*
X490236D02*
D03*
X553780Y608268D02*
D03*
X482677Y565748D02*
D03*
X456299Y532677D02*
D03*
X569921Y404331D02*
D03*
X352862Y234752D02*
D03*
Y226878D02*
D03*
Y219004D02*
D03*
Y211130D02*
D03*
Y203256D02*
D03*
Y195382D02*
D03*
Y187508D02*
D03*
Y179634D02*
D03*
Y171760D02*
D03*
Y163886D02*
D03*
Y156012D02*
D03*
Y148138D02*
D03*
Y140264D02*
D03*
Y132390D02*
D03*
Y124516D02*
D03*
Y116642D02*
D03*
Y108768D02*
D03*
Y100894D02*
D03*
Y93020D02*
D03*
Y85146D02*
D03*
X360736Y226878D02*
D03*
Y219004D02*
D03*
Y211130D02*
D03*
Y203256D02*
D03*
Y195382D02*
D03*
Y187508D02*
D03*
Y179634D02*
D03*
Y171760D02*
D03*
Y163886D02*
D03*
Y156012D02*
D03*
Y148138D02*
D03*
Y140264D02*
D03*
Y132390D02*
D03*
Y124516D02*
D03*
Y116642D02*
D03*
Y108768D02*
D03*
Y100894D02*
D03*
Y93020D02*
D03*
Y85146D02*
D03*
X604831D02*
D03*
Y93020D02*
D03*
Y100894D02*
D03*
Y108768D02*
D03*
Y116642D02*
D03*
Y124516D02*
D03*
Y132390D02*
D03*
Y140264D02*
D03*
Y148138D02*
D03*
Y156012D02*
D03*
Y163886D02*
D03*
Y171760D02*
D03*
Y179634D02*
D03*
Y187508D02*
D03*
Y195382D02*
D03*
Y203256D02*
D03*
Y211130D02*
D03*
Y219004D02*
D03*
Y226878D02*
D03*
Y234752D02*
D03*
X596957Y93020D02*
D03*
Y100894D02*
D03*
Y108768D02*
D03*
Y116642D02*
D03*
Y124516D02*
D03*
Y132390D02*
D03*
Y140264D02*
D03*
Y148138D02*
D03*
Y156012D02*
D03*
Y163886D02*
D03*
Y171760D02*
D03*
Y179634D02*
D03*
Y187508D02*
D03*
Y195382D02*
D03*
Y203256D02*
D03*
Y211130D02*
D03*
Y219004D02*
D03*
Y226878D02*
D03*
Y234752D02*
D03*
X555118Y139764D02*
D03*
X278098Y234752D02*
D03*
Y226878D02*
D03*
Y219004D02*
D03*
Y211130D02*
D03*
Y203256D02*
D03*
Y195382D02*
D03*
Y187508D02*
D03*
Y179634D02*
D03*
Y171760D02*
D03*
Y163886D02*
D03*
Y156012D02*
D03*
Y148138D02*
D03*
Y140264D02*
D03*
Y132390D02*
D03*
Y124516D02*
D03*
Y116642D02*
D03*
Y108768D02*
D03*
Y100894D02*
D03*
Y93020D02*
D03*
X285972Y234752D02*
D03*
Y226878D02*
D03*
Y219004D02*
D03*
Y211130D02*
D03*
Y203256D02*
D03*
Y195382D02*
D03*
Y187508D02*
D03*
Y179634D02*
D03*
Y171760D02*
D03*
Y163886D02*
D03*
Y156012D02*
D03*
Y148138D02*
D03*
Y140264D02*
D03*
Y132390D02*
D03*
Y124516D02*
D03*
Y116642D02*
D03*
Y108768D02*
D03*
Y100894D02*
D03*
Y93020D02*
D03*
Y85146D02*
D03*
X41878D02*
D03*
Y93020D02*
D03*
Y100894D02*
D03*
Y108768D02*
D03*
Y116642D02*
D03*
Y124516D02*
D03*
Y132390D02*
D03*
Y140264D02*
D03*
Y148138D02*
D03*
Y156012D02*
D03*
Y163886D02*
D03*
Y171760D02*
D03*
Y179634D02*
D03*
Y187508D02*
D03*
Y195382D02*
D03*
Y203256D02*
D03*
Y211130D02*
D03*
Y219004D02*
D03*
Y226878D02*
D03*
X34004Y85146D02*
D03*
Y93020D02*
D03*
Y100894D02*
D03*
Y108768D02*
D03*
Y116642D02*
D03*
Y124516D02*
D03*
Y132390D02*
D03*
Y140264D02*
D03*
Y148138D02*
D03*
Y156012D02*
D03*
Y163886D02*
D03*
Y171760D02*
D03*
Y179634D02*
D03*
Y187508D02*
D03*
Y195382D02*
D03*
Y203256D02*
D03*
Y211130D02*
D03*
Y219004D02*
D03*
Y226878D02*
D03*
Y234752D02*
D03*
X173130Y254626D02*
D03*
X156299Y257874D02*
D03*
X58661Y238386D02*
D03*
X184646Y236024D02*
D03*
X83563Y258169D02*
D03*
X100098Y254626D02*
D03*
D46*
X283622Y580709D02*
D03*
X173701Y608268D02*
D03*
X265748Y431102D02*
D03*
X256063Y608268D02*
D03*
X382677Y453543D02*
D03*
X430000Y600000D02*
D03*
X530236Y607874D02*
D03*
X563779Y608268D02*
D03*
X472677Y565748D02*
D03*
X579921Y404331D02*
D03*
D47*
X194685Y600394D02*
D03*
X104528Y356299D02*
D03*
X476378Y361024D02*
D03*
X568898Y281496D02*
D03*
X407480Y37402D02*
D03*
X462598D02*
D03*
X521850D02*
D03*
X513779Y303150D02*
D03*
X377795Y281496D02*
D03*
X574961Y15748D02*
D03*
X426969Y280906D02*
D03*
X468347Y303150D02*
D03*
X145197Y303150D02*
D03*
X70866Y301181D02*
D03*
X110236D02*
D03*
X202598D02*
D03*
X240158D02*
D03*
D48*
X224410Y600394D02*
D03*
X204685D02*
D03*
X214567D02*
D03*
X74803Y356299D02*
D03*
X94528D02*
D03*
X84646D02*
D03*
X64803D02*
D03*
X54803D02*
D03*
X545276Y361024D02*
D03*
X535433D02*
D03*
X525591D02*
D03*
X515748D02*
D03*
X505905D02*
D03*
X496063D02*
D03*
X486221D02*
D03*
X578898Y281496D02*
D03*
X397480Y37402D02*
D03*
X387598D02*
D03*
X452598D02*
D03*
X442717D02*
D03*
X511850D02*
D03*
X501968D02*
D03*
X543780Y303150D02*
D03*
X533779D02*
D03*
X523779D02*
D03*
X387795Y281496D02*
D03*
X397677D02*
D03*
X544961Y15748D02*
D03*
X554961D02*
D03*
X564961D02*
D03*
X436969Y280906D02*
D03*
X446851D02*
D03*
X498347Y303150D02*
D03*
X488346D02*
D03*
X478346D02*
D03*
X155197Y303150D02*
D03*
X165197D02*
D03*
X175197D02*
D03*
X80866Y301181D02*
D03*
X120236D02*
D03*
X212598D02*
D03*
X250157D02*
D03*
D49*
X171063Y369664D02*
D03*
D50*
X92520Y582835D02*
D03*
X41839Y553650D02*
D03*
X278059Y404043D02*
D03*
X360236Y553150D02*
D03*
X596457Y403543D02*
D03*
X456299Y542677D02*
D03*
X360736Y234752D02*
D03*
X596957Y85146D02*
D03*
X278098D02*
D03*
X41878Y234752D02*
D03*
D51*
X234252Y332677D02*
D03*
X239252Y327677D02*
D03*
Y337677D02*
D03*
X229252D02*
D03*
Y327677D02*
D03*
D52*
X226454Y415926D02*
D03*
X189489Y561306D02*
D03*
X169310Y550887D02*
D03*
X118029Y346655D02*
D03*
X261253Y496686D02*
D03*
X205644Y509070D02*
D03*
X99546Y499839D02*
D03*
X102356Y488146D02*
D03*
X94308Y505534D02*
D03*
X103897Y512487D02*
D03*
X130336Y563633D02*
D03*
X188447Y492009D02*
D03*
X173507Y485818D02*
D03*
X206042Y469043D02*
D03*
X194404Y474983D02*
D03*
X194763Y497402D02*
D03*
X192723Y507527D02*
D03*
X53150Y478346D02*
D03*
X240357Y453793D02*
D03*
X240583Y476452D02*
D03*
X196723Y464954D02*
D03*
X205021Y488662D02*
D03*
X111132Y558427D02*
D03*
X240354Y499409D02*
D03*
X124428Y436917D02*
D03*
X115420Y437346D02*
D03*
X171260Y572835D02*
D03*
X175197Y564961D02*
D03*
X160005Y565941D02*
D03*
X49213Y604331D02*
D03*
X84646Y462598D02*
D03*
X79595Y483129D02*
D03*
X106325Y519713D02*
D03*
X73762Y491878D02*
D03*
X64961Y494095D02*
D03*
X155512D02*
D03*
X148622Y471457D02*
D03*
X159449Y501968D02*
D03*
X145600Y455909D02*
D03*
X135827Y458661D02*
D03*
X127953D02*
D03*
X192438Y550085D02*
D03*
X176226Y519943D02*
D03*
X141677Y570987D02*
D03*
X96991Y539274D02*
D03*
X131461Y488450D02*
D03*
X124644Y495727D02*
D03*
X116142Y490158D02*
D03*
X104331Y419291D02*
D03*
X207160Y391765D02*
D03*
X226996Y529555D02*
D03*
X202756Y541339D02*
D03*
X209643Y524344D02*
D03*
X209246Y533353D02*
D03*
X170856Y474588D02*
D03*
X215905Y452777D02*
D03*
X217034Y473504D02*
D03*
X216901Y492238D02*
D03*
X222441Y446850D02*
D03*
Y466535D02*
D03*
Y486221D02*
D03*
X112205Y548362D02*
D03*
X104163Y545525D02*
D03*
X93927Y604807D02*
D03*
X81175Y558577D02*
D03*
X159329Y463923D02*
D03*
X175197Y411417D02*
D03*
X294506Y414179D02*
D03*
X381102Y396850D02*
D03*
X377953Y421260D02*
D03*
X374016Y433071D02*
D03*
X451575Y379528D02*
D03*
X377559Y380071D02*
D03*
X414961Y414567D02*
D03*
X556299Y385764D02*
D03*
X505512Y396457D02*
D03*
X504331Y527953D02*
D03*
X500000Y479500D02*
D03*
X379409Y491613D02*
D03*
X477055Y540476D02*
D03*
X433071Y476772D02*
D03*
X426378Y483858D02*
D03*
X469291Y441732D02*
D03*
X422441Y463386D02*
D03*
X448425Y443701D02*
D03*
X430315Y461417D02*
D03*
X525591Y430709D02*
D03*
X527866Y452817D02*
D03*
X520079Y488189D02*
D03*
X448425Y453740D02*
D03*
X502756Y447244D02*
D03*
X494488Y487402D02*
D03*
X529134Y560630D02*
D03*
X453150Y479331D02*
D03*
X472047Y479134D02*
D03*
X460630Y485433D02*
D03*
X468110Y485827D02*
D03*
X469291Y472441D02*
D03*
X461417Y516535D02*
D03*
X470472Y524803D02*
D03*
X431496Y522835D02*
D03*
X420472Y565748D02*
D03*
X403543Y624016D02*
D03*
X504331Y574803D02*
D03*
X561417Y452362D02*
D03*
X396063Y342126D02*
D03*
X423622Y493701D02*
D03*
X422047Y504331D02*
D03*
X391929Y533268D02*
D03*
X537598Y414961D02*
D03*
X442126Y353150D02*
D03*
X476378Y396457D02*
D03*
X439764Y405118D02*
D03*
X415354Y338976D02*
D03*
X406299D02*
D03*
X382677Y405118D02*
D03*
X385039Y351969D02*
D03*
X377559Y364173D02*
D03*
X451575Y363386D02*
D03*
X433858Y342126D02*
D03*
X403543Y414567D02*
D03*
X485827Y523622D02*
D03*
X431693Y503937D02*
D03*
X498841Y463364D02*
D03*
X489764Y442913D02*
D03*
X440551Y554331D02*
D03*
X372105Y605781D02*
D03*
X519685Y179134D02*
D03*
X403543Y157480D02*
D03*
X454724Y129921D02*
D03*
X377953Y114173D02*
D03*
X474409Y155512D02*
D03*
X364173Y255906D02*
D03*
X417323Y244094D02*
D03*
Y159449D02*
D03*
X227953Y192126D02*
D03*
D53*
X293307Y344488D02*
D03*
Y612205D02*
D03*
X25591Y344488D02*
D03*
Y612205D02*
D03*
X344488D02*
D03*
Y344488D02*
D03*
X612205D02*
D03*
Y612205D02*
D03*
X344488Y293307D02*
D03*
X612205D02*
D03*
Y25591D02*
D03*
X344488D02*
D03*
X293307Y293307D02*
D03*
Y25591D02*
D03*
X25591D02*
D03*
Y293307D02*
D03*
D54*
X123228Y35433D02*
D03*
X151575D02*
D03*
X231102D02*
D03*
X202756D02*
D03*
D55*
X250000Y100394D02*
D03*
X143701Y88583D02*
D03*
Y98583D02*
D03*
Y108583D02*
D03*
Y118583D02*
D03*
Y128583D02*
D03*
X102362Y151575D02*
D03*
X144362Y191575D02*
D03*
Y181575D02*
D03*
Y171575D02*
D03*
Y161575D02*
D03*
Y151575D02*
D03*
D56*
X224700Y80394D02*
D03*
X205000D02*
D03*
X245000Y250394D02*
D03*
X224700D02*
D03*
D57*
X110827Y15433D02*
D03*
X163976D02*
D03*
X243504D02*
D03*
X190354D02*
D03*
D58*
X205000Y250394D02*
D03*
X245000Y80394D02*
D03*
X77201Y127583D02*
D03*
X140201Y74583D02*
D03*
X88362Y155575D02*
D03*
X140362Y207575D02*
D03*
M02*
