M48
;Layer_Color=9474304
;FILE_FORMAT=2:5
INCH,TZ
;TYPE=PLATED
T1F00S00C0.06299
T2F00S00C0.10236
T3F00S00C0.16142
;TYPE=NON_PLATED
T4F00S00C0.12598
%
T01
X54803Y89173
Y142323
X136604Y13996
X212593Y13996
X288582Y13993
X288579Y299427
X212590Y299430
X136601Y299430
X54803Y229724
Y176575
T02
X74803Y101575
Y129921
Y188976
Y217323
T03
X78740Y23622
X346457
Y291339
X78740
T04
X136599Y47244
X212583Y47247
X288569Y47244
X288578Y266181
X212591Y266184
X136608Y266181
M30
