G04*
G04 #@! TF.GenerationSoftware,Altium Limited,Altium Designer,19.1.8 (144)*
G04*
G04 Layer_Color=12632256*
%FSLAX44Y44*%
%MOMM*%
G71*
G01*
G75*
%ADD44C,1.4000*%
%ADD45R,1.5000X1.5000*%
%ADD46C,1.5000*%
%ADD47R,1.5000X1.5000*%
%ADD48C,1.2000*%
%ADD49C,1.5240*%
D44*
X620000Y650000D02*
D03*
X600000D02*
D03*
X580000D02*
D03*
X560000D02*
D03*
X540000D02*
D03*
X520000D02*
D03*
X500000D02*
D03*
X480000D02*
D03*
X460000D02*
D03*
X440000D02*
D03*
Y430000D02*
D03*
X460000D02*
D03*
X480000D02*
D03*
X500000D02*
D03*
X520000D02*
D03*
X540000D02*
D03*
X560000D02*
D03*
X580000D02*
D03*
X600000D02*
D03*
X620000D02*
D03*
D45*
X35234Y616402D02*
D03*
X61300Y37500D02*
D03*
X44600Y244600D02*
D03*
D46*
X238434Y641802D02*
D03*
Y616402D02*
D03*
X213034Y641802D02*
D03*
Y616402D02*
D03*
X187634Y641802D02*
D03*
Y616402D02*
D03*
X162234Y641802D02*
D03*
Y616402D02*
D03*
X136834Y641802D02*
D03*
Y616402D02*
D03*
X111434Y641802D02*
D03*
Y616402D02*
D03*
X86034Y641802D02*
D03*
Y616402D02*
D03*
X60634Y641802D02*
D03*
Y616402D02*
D03*
X35234Y641802D02*
D03*
X27500Y420400D02*
D03*
Y395000D02*
D03*
Y369600D02*
D03*
X213700Y37500D02*
D03*
X188300D02*
D03*
X162900D02*
D03*
X137500D02*
D03*
X86700D02*
D03*
X112100D02*
D03*
X372500Y65400D02*
D03*
X44600Y270000D02*
D03*
X70000Y244600D02*
D03*
Y270000D02*
D03*
X95400Y244600D02*
D03*
Y270000D02*
D03*
X267500Y309600D02*
D03*
Y335000D02*
D03*
Y360400D02*
D03*
Y385800D02*
D03*
X675000Y234200D02*
D03*
Y259600D02*
D03*
Y285000D02*
D03*
X522500Y72100D02*
D03*
Y97500D02*
D03*
Y122900D02*
D03*
Y148300D02*
D03*
Y173700D02*
D03*
D47*
X27500Y344200D02*
D03*
X372500Y40000D02*
D03*
X267500Y284200D02*
D03*
X675000Y310400D02*
D03*
X522500Y46700D02*
D03*
D48*
X466899Y107500D02*
D03*
X418100D02*
D03*
D49*
X204600Y165000D02*
D03*
X69600D02*
D03*
X427500Y387500D02*
D03*
Y282500D02*
D03*
M02*
