G04*
G04 #@! TF.GenerationSoftware,Altium Limited,Altium Designer,19.1.8 (144)*
G04*
G04 Layer_Color=128*
%FSLAX44Y44*%
%MOMM*%
G71*
G01*
G75*
%ADD61C,0.0508*%
D61*
X616000Y650000D02*
X624000D01*
X620000Y646000D02*
Y654000D01*
X596000Y650000D02*
X604000D01*
X600000Y646000D02*
Y654000D01*
X576000Y650000D02*
X584000D01*
X580000Y646000D02*
Y654000D01*
X556000Y650000D02*
X564000D01*
X560000Y646000D02*
Y654000D01*
X536000Y650000D02*
X544000D01*
X540000Y646000D02*
Y654000D01*
X516000Y650000D02*
X524000D01*
X520000Y646000D02*
Y654000D01*
X496000Y650000D02*
X504000D01*
X500000Y646000D02*
Y654000D01*
X476000Y650000D02*
X484000D01*
X480000Y646000D02*
Y654000D01*
X456000Y650000D02*
X464000D01*
X460000Y646000D02*
Y654000D01*
X436000Y650000D02*
X444000D01*
X440000Y646000D02*
Y654000D01*
X436000Y430000D02*
X444000D01*
X440000Y426000D02*
Y434000D01*
X456000Y430000D02*
X464000D01*
X460000Y426000D02*
Y434000D01*
X476000Y430000D02*
X484000D01*
X480000Y426000D02*
Y434000D01*
X496000Y430000D02*
X504000D01*
X500000Y426000D02*
Y434000D01*
X516000Y430000D02*
X524000D01*
X520000Y426000D02*
Y434000D01*
X536000Y430000D02*
X544000D01*
X540000Y426000D02*
Y434000D01*
X556000Y430000D02*
X564000D01*
X560000Y426000D02*
Y434000D01*
X576000Y430000D02*
X584000D01*
X580000Y426000D02*
Y434000D01*
X596000Y430000D02*
X604000D01*
X600000Y426000D02*
Y434000D01*
X616000Y430000D02*
X624000D01*
X620000Y426000D02*
Y434000D01*
X30734Y616402D02*
X39734D01*
X35234Y611902D02*
Y620902D01*
X233934Y641802D02*
X242934D01*
X238434Y637302D02*
Y646302D01*
X233934Y616402D02*
X242934D01*
X238434Y611902D02*
Y620902D01*
X208534Y641802D02*
X217534D01*
X213034Y637302D02*
Y646302D01*
X208534Y616402D02*
X217534D01*
X213034Y611902D02*
Y620902D01*
X183134Y641802D02*
X192134D01*
X187634Y637302D02*
Y646302D01*
X183134Y616402D02*
X192134D01*
X187634Y611902D02*
Y620902D01*
X157734Y641802D02*
X166734D01*
X162234Y637302D02*
Y646302D01*
X157734Y616402D02*
X166734D01*
X162234Y611902D02*
Y620902D01*
X132334Y641802D02*
X141334D01*
X136834Y637302D02*
Y646302D01*
X132334Y616402D02*
X141334D01*
X136834Y611902D02*
Y620902D01*
X106934Y641802D02*
X115934D01*
X111434Y637302D02*
Y646302D01*
X106934Y616402D02*
X115934D01*
X111434Y611902D02*
Y620902D01*
X81534Y641802D02*
X90534D01*
X86034Y637302D02*
Y646302D01*
X81534Y616402D02*
X90534D01*
X86034Y611902D02*
Y620902D01*
X56134Y641802D02*
X65134D01*
X60634Y637302D02*
Y646302D01*
X56134Y616402D02*
X65134D01*
X60634Y611902D02*
Y620902D01*
X30734Y641802D02*
X39734D01*
X35234Y637302D02*
Y646302D01*
X23000Y420400D02*
X32000D01*
X27500Y415900D02*
Y424900D01*
X23000Y395000D02*
X32000D01*
X27500Y390500D02*
Y399500D01*
X23000Y369600D02*
X32000D01*
X27500Y365100D02*
Y374100D01*
X23000Y344200D02*
X32000D01*
X27500Y339700D02*
Y348700D01*
X209200Y37500D02*
X218200D01*
X213700Y33000D02*
Y42000D01*
X183800Y37500D02*
X192800D01*
X188300Y33000D02*
Y42000D01*
X158400Y37500D02*
X167400D01*
X162900Y33000D02*
Y42000D01*
X133000Y37500D02*
X142000D01*
X137500Y33000D02*
Y42000D01*
X82200Y37500D02*
X91200D01*
X86700Y33000D02*
Y42000D01*
X56800Y37500D02*
X65800D01*
X61300Y33000D02*
Y42000D01*
X107600Y37500D02*
X116600D01*
X112100Y33000D02*
Y42000D01*
X463400Y107500D02*
X470400D01*
X466899Y104000D02*
Y111000D01*
X414600Y107500D02*
X421600D01*
X418100Y104000D02*
Y111000D01*
X189600Y165000D02*
X219600D01*
X204600Y150000D02*
Y180000D01*
X54600Y165000D02*
X84600D01*
X69600Y150000D02*
Y180000D01*
X368000Y40000D02*
X377000D01*
X372500Y35500D02*
Y44500D01*
X368000Y65400D02*
X377000D01*
X372500Y60900D02*
Y69900D01*
X40100Y244600D02*
X49100D01*
X44600Y240100D02*
Y249100D01*
X40100Y270000D02*
X49100D01*
X44600Y265500D02*
Y274500D01*
X65500Y244600D02*
X74500D01*
X70000Y240100D02*
Y249100D01*
X65500Y270000D02*
X74500D01*
X70000Y265500D02*
Y274500D01*
X90900Y244600D02*
X99900D01*
X95400Y240100D02*
Y249100D01*
X90900Y270000D02*
X99900D01*
X95400Y265500D02*
Y274500D01*
X263000Y284200D02*
X272000D01*
X267500Y279700D02*
Y288700D01*
X263000Y309600D02*
X272000D01*
X267500Y305100D02*
Y314100D01*
X263000Y335000D02*
X272000D01*
X267500Y330500D02*
Y339500D01*
X263000Y360400D02*
X272000D01*
X267500Y355900D02*
Y364900D01*
X263000Y385800D02*
X272000D01*
X267500Y381300D02*
Y390300D01*
X670500Y234200D02*
X679500D01*
X675000Y229700D02*
Y238700D01*
X670500Y259600D02*
X679500D01*
X675000Y255100D02*
Y264100D01*
X670500Y285000D02*
X679500D01*
X675000Y280500D02*
Y289500D01*
X670500Y310400D02*
X679500D01*
X675000Y305900D02*
Y314900D01*
X412500Y387500D02*
X442500D01*
X427500Y372500D02*
Y402500D01*
X412500Y282500D02*
X442500D01*
X427500Y267500D02*
Y297500D01*
X518000Y46700D02*
X527000D01*
X522500Y42200D02*
Y51200D01*
X518000Y72100D02*
X527000D01*
X522500Y67600D02*
Y76600D01*
X518000Y97500D02*
X527000D01*
X522500Y93000D02*
Y102000D01*
X518000Y122900D02*
X527000D01*
X522500Y118400D02*
Y127400D01*
X518000Y148300D02*
X527000D01*
X522500Y143800D02*
Y152800D01*
X518000Y173700D02*
X527000D01*
X522500Y169200D02*
Y178200D01*
X604728Y346801D02*
X611840D01*
X608284Y343245D02*
Y350357D01*
X319090Y103553D02*
X326202D01*
X322646Y99997D02*
Y107109D01*
X298983Y16938D02*
X306095D01*
X302539Y13382D02*
Y20494D01*
X231279Y36500D02*
X238391D01*
X234835Y32944D02*
Y40056D01*
X179349Y144961D02*
X186461D01*
X182905Y141405D02*
Y148517D01*
X486427Y51244D02*
X493540D01*
X489983Y47688D02*
Y54800D01*
X71108Y412998D02*
X78219D01*
X74664Y409442D02*
Y416554D01*
X91452Y433703D02*
X98564D01*
X95008Y430147D02*
Y437259D01*
X71648Y449007D02*
X78760D01*
X75204Y445451D02*
Y452562D01*
X227919Y233030D02*
X235031D01*
X231475Y229474D02*
Y236586D01*
X213638Y262545D02*
X220750D01*
X217194Y258989D02*
Y266101D01*
X203006Y463912D02*
X210118D01*
X206562Y460356D02*
Y467468D01*
X213162Y491999D02*
X220274D01*
X216718Y488443D02*
Y495555D01*
X512394Y237782D02*
X519506D01*
X515950Y234226D02*
Y241338D01*
X376833Y612523D02*
X383945D01*
X380389Y608967D02*
Y616079D01*
X380858Y509658D02*
X387970D01*
X384413Y506102D02*
Y513214D01*
X381361Y459105D02*
X388473D01*
X384916Y455550D02*
Y462662D01*
X138009Y365318D02*
X145121D01*
X141565Y361762D02*
Y368874D01*
X141444Y382499D02*
X148556D01*
X145000Y378943D02*
Y386055D01*
X157954Y389987D02*
X165066D01*
X161510Y386431D02*
Y393543D01*
X83497Y318041D02*
X90609D01*
X87053Y314485D02*
Y321598D01*
X83455Y362364D02*
X90567D01*
X87011Y358808D02*
Y365920D01*
X175581Y379665D02*
X182693D01*
X179137Y376109D02*
Y383221D01*
X240568Y461293D02*
X247680D01*
X244124Y457737D02*
Y464849D01*
X257756Y472518D02*
X264868D01*
X261312Y468962D02*
Y476074D01*
X628944Y405000D02*
X636056D01*
X632500Y401444D02*
Y408556D01*
X551444Y375000D02*
X558556D01*
X555000Y371444D02*
Y378556D01*
X571444Y590000D02*
X578556D01*
X575000Y586444D02*
Y593556D01*
X531444Y317500D02*
X538556D01*
X535000Y313944D02*
Y321056D01*
X238944Y310000D02*
X246056D01*
X242500Y306444D02*
Y313556D01*
X153944Y265000D02*
X161056D01*
X157500Y261444D02*
Y268556D01*
X106444Y217500D02*
X113556D01*
X110000Y213944D02*
Y221056D01*
X443944Y570000D02*
X451056D01*
X447500Y566444D02*
Y573556D01*
X466444Y562500D02*
X473556D01*
X470000Y558944D02*
Y566056D01*
X336443Y319999D02*
X343555D01*
X339999Y316443D02*
Y323555D01*
X348944Y435000D02*
X356056D01*
X352500Y431444D02*
Y438556D01*
X356444Y320000D02*
X363556D01*
X360000Y316444D02*
Y323556D01*
X371444Y320000D02*
X378556D01*
X375000Y316444D02*
Y323556D01*
M02*
