G04*
G04 #@! TF.GenerationSoftware,Altium Limited,Altium Designer,19.1.8 (144)*
G04*
G04 Layer_Color=8388736*
%FSLAX44Y44*%
%MOMM*%
G71*
G01*
G75*
G04:AMPARAMS|DCode=26|XSize=0.5032mm|YSize=2.0032mm|CornerRadius=0mm|HoleSize=0mm|Usage=FLASHONLY|Rotation=135.000|XOffset=0mm|YOffset=0mm|HoleType=Round|Shape=Round|*
%AMOVALD26*
21,1,1.5000,0.5032,0.0000,0.0000,225.0*
1,1,0.5032,0.5303,0.5303*
1,1,0.5032,-0.5303,-0.5303*
%
%ADD26OVALD26*%

G04:AMPARAMS|DCode=27|XSize=0.5032mm|YSize=2.0032mm|CornerRadius=0mm|HoleSize=0mm|Usage=FLASHONLY|Rotation=225.000|XOffset=0mm|YOffset=0mm|HoleType=Round|Shape=Round|*
%AMOVALD27*
21,1,1.5000,0.5032,0.0000,0.0000,315.0*
1,1,0.5032,-0.5303,0.5303*
1,1,0.5032,0.5303,-0.5303*
%
%ADD27OVALD27*%

%ADD28R,1.4032X1.6032*%
%ADD29R,1.6032X1.4032*%
%ADD30R,1.6032X1.1532*%
G04:AMPARAMS|DCode=31|XSize=1.2532mm|YSize=1.1532mm|CornerRadius=0mm|HoleSize=0mm|Usage=FLASHONLY|Rotation=135.000|XOffset=0mm|YOffset=0mm|HoleType=Round|Shape=Rectangle|*
%AMROTATEDRECTD31*
4,1,4,0.8508,-0.0354,0.0354,-0.8508,-0.8508,0.0354,-0.0354,0.8508,0.8508,-0.0354,0.0*
%
%ADD31ROTATEDRECTD31*%

G04:AMPARAMS|DCode=32|XSize=1.2532mm|YSize=0.7532mm|CornerRadius=0mm|HoleSize=0mm|Usage=FLASHONLY|Rotation=135.000|XOffset=0mm|YOffset=0mm|HoleType=Round|Shape=Rectangle|*
%AMROTATEDRECTD32*
4,1,4,0.7094,-0.1768,0.1768,-0.7094,-0.7094,0.1768,-0.1768,0.7094,0.7094,-0.1768,0.0*
%
%ADD32ROTATEDRECTD32*%

G04:AMPARAMS|DCode=33|XSize=1.2532mm|YSize=1.1532mm|CornerRadius=0mm|HoleSize=0mm|Usage=FLASHONLY|Rotation=45.000|XOffset=0mm|YOffset=0mm|HoleType=Round|Shape=Rectangle|*
%AMROTATEDRECTD33*
4,1,4,-0.0354,-0.8508,-0.8508,-0.0354,0.0354,0.8508,0.8508,0.0354,-0.0354,-0.8508,0.0*
%
%ADD33ROTATEDRECTD33*%

G04:AMPARAMS|DCode=34|XSize=1.1032mm|YSize=1.9532mm|CornerRadius=0.1511mm|HoleSize=0mm|Usage=FLASHONLY|Rotation=270.000|XOffset=0mm|YOffset=0mm|HoleType=Round|Shape=RoundedRectangle|*
%AMROUNDEDRECTD34*
21,1,1.1032,1.6510,0,0,270.0*
21,1,0.8010,1.9532,0,0,270.0*
1,1,0.3022,-0.8255,-0.4005*
1,1,0.3022,-0.8255,0.4005*
1,1,0.3022,0.8255,0.4005*
1,1,0.3022,0.8255,-0.4005*
%
%ADD34ROUNDEDRECTD34*%
G04:AMPARAMS|DCode=35|XSize=3.4032mm|YSize=1.9532mm|CornerRadius=0.1541mm|HoleSize=0mm|Usage=FLASHONLY|Rotation=270.000|XOffset=0mm|YOffset=0mm|HoleType=Round|Shape=RoundedRectangle|*
%AMROUNDEDRECTD35*
21,1,3.4032,1.6450,0,0,270.0*
21,1,3.0950,1.9532,0,0,270.0*
1,1,0.3082,-0.8225,-1.5475*
1,1,0.3082,-0.8225,1.5475*
1,1,0.3082,0.8225,1.5475*
1,1,0.3082,0.8225,-1.5475*
%
%ADD35ROUNDEDRECTD35*%
%ADD36R,1.3032X1.4032*%
%ADD37C,1.6032*%
%ADD38R,1.7032X1.7032*%
%ADD39C,1.7032*%
%ADD40R,1.7032X1.7032*%
%ADD41C,1.4032*%
%ADD42C,1.7272*%
%ADD43C,1.4732*%
D26*
X148307Y324417D02*
D03*
X144772Y327952D02*
D03*
X141236Y331488D02*
D03*
X137701Y335023D02*
D03*
X134165Y338559D02*
D03*
X130630Y342095D02*
D03*
X127094Y345630D02*
D03*
X123559Y349165D02*
D03*
X120023Y352701D02*
D03*
X116488Y356237D02*
D03*
X112952Y359772D02*
D03*
X109416Y363308D02*
D03*
X166692Y420583D02*
D03*
X170227Y417048D02*
D03*
X173763Y413512D02*
D03*
X177299Y409977D02*
D03*
X180835Y406441D02*
D03*
X184370Y402906D02*
D03*
X187905Y399370D02*
D03*
X191441Y395835D02*
D03*
X194977Y392299D02*
D03*
X198512Y388764D02*
D03*
X202048Y385228D02*
D03*
X205583Y381693D02*
D03*
D27*
X109416D02*
D03*
X112952Y385228D02*
D03*
X116488Y388764D02*
D03*
X120023Y392299D02*
D03*
X123559Y395835D02*
D03*
X127094Y399370D02*
D03*
X130630Y402906D02*
D03*
X134165Y406441D02*
D03*
X137701Y409977D02*
D03*
X141236Y413512D02*
D03*
X144772Y417048D02*
D03*
X148307Y420583D02*
D03*
X205583Y363308D02*
D03*
X202048Y359772D02*
D03*
X198512Y356237D02*
D03*
X194976Y352701D02*
D03*
X191441Y349166D02*
D03*
X187905Y345630D02*
D03*
X184370Y342095D02*
D03*
X180834Y338559D02*
D03*
X177299Y335023D02*
D03*
X173763Y331488D02*
D03*
X170227Y327952D02*
D03*
X166692Y324417D02*
D03*
D28*
X86500Y297500D02*
D03*
X68500D02*
D03*
X68500Y217500D02*
D03*
X86500D02*
D03*
X501000Y375000D02*
D03*
X519000D02*
D03*
X501000Y397500D02*
D03*
X519000D02*
D03*
X331000Y37500D02*
D03*
X349000D02*
D03*
X331000Y65000D02*
D03*
X349000D02*
D03*
X622030Y225000D02*
D03*
X604030D02*
D03*
X289000Y62500D02*
D03*
X271000D02*
D03*
X289000Y87500D02*
D03*
X271000D02*
D03*
X338500Y462500D02*
D03*
X356500D02*
D03*
X338500Y510000D02*
D03*
X356500D02*
D03*
X338500Y612500D02*
D03*
X356500D02*
D03*
X622030Y322500D02*
D03*
X604030D02*
D03*
D29*
X600000Y394000D02*
D03*
Y376000D02*
D03*
X577500D02*
D03*
Y394000D02*
D03*
X417500Y69000D02*
D03*
Y51000D02*
D03*
X467500Y69000D02*
D03*
Y51000D02*
D03*
X214600Y81000D02*
D03*
Y99000D02*
D03*
X192100Y81000D02*
D03*
Y99000D02*
D03*
D30*
X515000Y259250D02*
D03*
Y300750D02*
D03*
D31*
X90126Y395126D02*
D03*
X79873Y384874D02*
D03*
X224873Y324874D02*
D03*
X235126Y335127D02*
D03*
X169874Y292374D02*
D03*
X180127Y302626D02*
D03*
D32*
X195833Y288334D02*
D03*
X184166Y276666D02*
D03*
D33*
X187627Y444874D02*
D03*
X177374Y455127D02*
D03*
D34*
X644280Y252000D02*
D03*
Y275000D02*
D03*
Y298000D02*
D03*
D35*
X581780Y275000D02*
D03*
D36*
X269500Y112500D02*
D03*
X290500D02*
D03*
X269500Y37500D02*
D03*
X290500D02*
D03*
X358000Y632500D02*
D03*
X337000D02*
D03*
X358000Y530000D02*
D03*
X337000D02*
D03*
X358000Y482500D02*
D03*
X337000D02*
D03*
D37*
X620000Y650000D02*
D03*
X600000D02*
D03*
X580000D02*
D03*
X560000D02*
D03*
X540000D02*
D03*
X520000D02*
D03*
X500000D02*
D03*
X480000D02*
D03*
X460000D02*
D03*
X440000D02*
D03*
Y430000D02*
D03*
X460000D02*
D03*
X480000D02*
D03*
X500000D02*
D03*
X520000D02*
D03*
X540000D02*
D03*
X560000D02*
D03*
X580000D02*
D03*
X600000D02*
D03*
X620000D02*
D03*
D38*
X35234Y616402D02*
D03*
X61300Y37500D02*
D03*
X44600Y244600D02*
D03*
D39*
X238434Y641802D02*
D03*
Y616402D02*
D03*
X213034Y641802D02*
D03*
Y616402D02*
D03*
X187634Y641802D02*
D03*
Y616402D02*
D03*
X162234Y641802D02*
D03*
Y616402D02*
D03*
X136834Y641802D02*
D03*
Y616402D02*
D03*
X111434Y641802D02*
D03*
Y616402D02*
D03*
X86034Y641802D02*
D03*
Y616402D02*
D03*
X60634Y641802D02*
D03*
Y616402D02*
D03*
X35234Y641802D02*
D03*
X27500Y420400D02*
D03*
Y395000D02*
D03*
Y369600D02*
D03*
X213700Y37500D02*
D03*
X188300D02*
D03*
X162900D02*
D03*
X137500D02*
D03*
X86700D02*
D03*
X112100D02*
D03*
X372500Y65400D02*
D03*
X44600Y270000D02*
D03*
X70000Y244600D02*
D03*
Y270000D02*
D03*
X95400Y244600D02*
D03*
Y270000D02*
D03*
X267500Y309600D02*
D03*
Y335000D02*
D03*
Y360400D02*
D03*
Y385800D02*
D03*
X675000Y234200D02*
D03*
Y259600D02*
D03*
Y285000D02*
D03*
X522500Y72100D02*
D03*
Y97500D02*
D03*
Y122900D02*
D03*
Y148300D02*
D03*
Y173700D02*
D03*
D40*
X27500Y344200D02*
D03*
X372500Y40000D02*
D03*
X267500Y284200D02*
D03*
X675000Y310400D02*
D03*
X522500Y46700D02*
D03*
D41*
X466899Y107500D02*
D03*
X418100D02*
D03*
D42*
X204600Y165000D02*
D03*
X69600D02*
D03*
X427500Y387500D02*
D03*
Y282500D02*
D03*
D43*
X381709Y320585D02*
D03*
X362634Y320016D02*
D03*
X608284Y346801D02*
D03*
X322646Y103553D02*
D03*
X302539Y16938D02*
D03*
X234835Y36500D02*
D03*
X182905Y144961D02*
D03*
X489983Y51244D02*
D03*
X74664Y412998D02*
D03*
X95008Y433703D02*
D03*
X75204Y449007D02*
D03*
X231475Y233030D02*
D03*
X217194Y262545D02*
D03*
X206562Y463912D02*
D03*
X216718Y491999D02*
D03*
X515950Y237782D02*
D03*
X380389Y612523D02*
D03*
X384413Y509658D02*
D03*
X384916Y459105D02*
D03*
X141565Y365318D02*
D03*
X145000Y382499D02*
D03*
X161510Y389987D02*
D03*
X87053Y318041D02*
D03*
X87011Y362364D02*
D03*
X179137Y379665D02*
D03*
X244124Y461293D02*
D03*
X261312Y472518D02*
D03*
X632500Y405000D02*
D03*
X555000Y375000D02*
D03*
X575000Y590000D02*
D03*
X535000Y317500D02*
D03*
X242500Y310000D02*
D03*
X157500Y265000D02*
D03*
X110000Y217500D02*
D03*
X447500Y570000D02*
D03*
X470000Y562500D02*
D03*
X339999Y319999D02*
D03*
X352500Y435000D02*
D03*
M02*
