M48
;Layer_Color=9474304
;FILE_FORMAT=4:4
METRIC,LZ
;TYPE=PLATED
T1F00S00C0.7000
T2F00S00C0.7112
T3F00S00C0.8000
T4F00S00C0.9000
T5F00S00C3.0000
%
T01
X004181Y001075
X00466899
T02
X00234835Y000365
X00302539Y00016938
X00322646Y00103553
X00489983Y00051244
X00555Y00375
X00608284Y00346801
X006325Y00405
X00535Y003175
X0051595Y00237782
X00381709Y00320585
X00362634Y00320016
X00339999Y00319999
X002425Y0031
X00217194Y00262545
X00231475Y0023303
X001575Y00265
X0016151Y00389987
X00145Y00382499
X00179137Y00379665
X00206562Y00463912
X00216718Y00491999
X00244124Y00461293
X00261312Y00472518
X003525Y00435
X00384916Y00459105
X00384413Y00509658
X00182905Y00144961
X0011Y002175
X00087053Y00318041
X00087011Y00362364
X00141565Y00365318
X00074664Y00412998
X00075204Y00449007
X00095008Y00433703
X00380389Y00612523
X004475Y0057
X0047Y005625
X00575Y0059
T03
X0054Y0043
X0056
X0058
X006
X0062
X0052
X005
X0048
X0046
X0044
Y0065
X0046
X0048
X005
X0052
X0054
X0056
X0058
X006
X0062
T04
X000613Y000375
X000867
X001121
X001375
X001629
X001883
X002137
X003725Y0004
Y000654
X005225Y000721
Y000467
Y000975
Y001229
X00675Y002342
Y002596
Y00285
Y003104
X005225Y001737
Y001483
X002675Y002842
Y003096
Y00335
Y003604
Y003858
X000275Y00395
Y004204
Y003696
Y003442
X000446Y0027
Y002446
X0007
Y0027
X000954
Y002446
X00086034Y00616402
X00111434
X00136834
Y00641802
X00111434
X00086034
X00060634
Y00616402
X00035234
Y00641802
X00162234
X00187634
X00213034
X00238434
Y00616402
X00213034
X00187634
X00162234
T05
X002046Y00165
X004275Y002825
Y003875
X000696Y00165
M30
