G04*
G04 #@! TF.GenerationSoftware,Altium Limited,Altium Designer,19.1.8 (144)*
G04*
G04 Layer_Color=65535*
%FSLAX44Y44*%
%MOMM*%
G71*
G01*
G75*
%ADD10C,0.6000*%
%ADD11C,0.2500*%
%ADD12C,0.2000*%
%ADD13C,0.2540*%
%ADD14C,0.2032*%
D10*
X160500Y347751D02*
G03*
X160500Y347751I-3000J0D01*
G01*
D11*
X162993Y319467D02*
G03*
X162993Y319467I-1250J0D01*
G01*
X645530Y242000D02*
G03*
X645530Y242000I-1250J0D01*
G01*
D12*
X409000Y130750D02*
G03*
X409000Y84250I0J-23250D01*
G01*
X476000D02*
G03*
X476000Y130750I0J23250D01*
G01*
X157500Y411391D02*
X196390Y372500D01*
X118609D02*
X157500Y333609D01*
X118609Y372500D02*
X157500Y411391D01*
Y333609D02*
X196390Y372500D01*
X697200Y494000D02*
Y586000D01*
X367800Y418100D02*
X631900D01*
X367800D02*
Y661900D01*
X631900D01*
X697200Y586000D01*
X631900Y418100D02*
X697200Y494000D01*
X77500Y291500D02*
Y303500D01*
X22534Y603702D02*
X251134D01*
X22534Y654502D02*
X251134D01*
X22534Y603702D02*
Y654502D01*
X251134Y603702D02*
Y654502D01*
X14800Y331500D02*
X40200D01*
X14800D02*
Y433100D01*
X40200Y331500D02*
Y433100D01*
X14800D02*
X40200D01*
X77500Y211500D02*
Y223500D01*
X594000Y385000D02*
X606000D01*
X571500D02*
X583500D01*
X510000Y369001D02*
Y381000D01*
Y391500D02*
Y403500D01*
X411500Y60000D02*
X423500D01*
X461500Y60000D02*
X473500D01*
X340000Y31500D02*
Y43500D01*
X340000Y59000D02*
Y71000D01*
X208600Y90000D02*
X220600D01*
X186100D02*
X198100D01*
X613030Y219000D02*
Y231000D01*
X48600Y50200D02*
X226400D01*
X48600Y24800D02*
Y50200D01*
Y24800D02*
X226400D01*
Y50200D01*
X409000Y84250D02*
X476000D01*
X409000Y130750D02*
X476000D01*
X526000Y304750D02*
X532000D01*
Y254750D02*
Y304750D01*
X526000Y254750D02*
X532000D01*
X499000Y304750D02*
X505000D01*
X499000Y254750D02*
Y304750D01*
Y254750D02*
X505000D01*
X359800Y78100D02*
X385200D01*
Y27300D02*
Y78100D01*
X359800Y27300D02*
X385200D01*
X359800D02*
Y78100D01*
X108100Y231900D02*
Y282700D01*
X31900Y231900D02*
Y282700D01*
X108100D01*
X31900Y231900D02*
X108100D01*
X59417D02*
X108100D01*
X254800Y398500D02*
X280200D01*
Y271500D02*
Y398500D01*
X254800Y271500D02*
Y398500D01*
Y271500D02*
X280200D01*
X280000Y56500D02*
Y68500D01*
Y81500D02*
Y93500D01*
X347500Y456500D02*
Y468500D01*
Y504000D02*
Y516000D01*
Y606500D02*
Y618500D01*
X613030Y316500D02*
Y328500D01*
X191945Y278434D02*
X194066Y280555D01*
X185934Y284445D02*
X188055Y286566D01*
X632530Y241500D02*
Y308500D01*
X593530Y241500D02*
Y308500D01*
Y241500D02*
X632530D01*
X593530Y308500D02*
X632530D01*
X662300Y323100D02*
X687700D01*
Y221500D02*
Y323100D01*
X662300Y221500D02*
Y323100D01*
Y221500D02*
X687700D01*
X509800Y186400D02*
X535200D01*
X509800Y34000D02*
X535200D01*
X509800D02*
Y186400D01*
X535200Y34000D02*
Y186400D01*
X281500Y107500D02*
Y117500D01*
X278500D02*
X281500D01*
X278500Y107500D02*
X281500D01*
X281500Y32500D02*
Y42500D01*
X278500D02*
X281500D01*
X278500Y32500D02*
X281500D01*
X346000Y627500D02*
Y637500D01*
Y627500D02*
X349000D01*
X346000Y637500D02*
X349000D01*
X346000Y525000D02*
Y535000D01*
Y525000D02*
X349000D01*
X346000Y535000D02*
X349000D01*
X346000Y477500D02*
Y487500D01*
Y477500D02*
X349000D01*
X346000Y487500D02*
X349000D01*
D13*
X234600Y10000D02*
Y190000D01*
X39600Y10000D02*
X234600D01*
X39600D02*
Y190000D01*
X234600D01*
X682500Y17900D02*
Y195400D01*
X680000Y197900D02*
X682500Y195400D01*
X502500Y197900D02*
X680000D01*
X502500Y17900D02*
Y197900D01*
Y17900D02*
X682500D01*
X242500Y255000D02*
X455000D01*
Y415000D01*
X242500D02*
X455000D01*
X242500Y255000D02*
Y415000D01*
X350000Y291843D02*
Y378157D01*
X306843Y335000D02*
X393157D01*
X546414Y534223D02*
X556571Y518988D01*
Y534223D02*
X546414Y518988D01*
X561649Y534223D02*
Y518988D01*
X569266D01*
X571805Y521527D01*
Y524066D01*
X569266Y526605D01*
X561649D01*
X569266D01*
X571805Y529144D01*
Y531684D01*
X569266Y534223D01*
X561649D01*
X584501Y518988D02*
X579423D01*
X576884Y521527D01*
Y526605D01*
X579423Y529144D01*
X584501D01*
X587041Y526605D01*
Y524066D01*
X576884D01*
X599737Y518988D02*
X594658D01*
X592119Y521527D01*
Y526605D01*
X594658Y529144D01*
X599737D01*
X602276Y526605D01*
Y524066D01*
X592119D01*
X101395Y288919D02*
Y304154D01*
X109012D01*
X111551Y301615D01*
Y296536D01*
X109012Y293997D01*
X101395D01*
X106473D02*
X111551Y288919D01*
X116630D02*
X121708D01*
X119169D01*
Y304154D01*
X116630Y301615D01*
X129326D02*
X131865Y304154D01*
X136943D01*
X139482Y301615D01*
Y291458D01*
X136943Y288919D01*
X131865D01*
X129326Y291458D01*
Y301615D01*
X27115Y208723D02*
Y223958D01*
X34733D01*
X37272Y221419D01*
Y216341D01*
X34733Y213802D01*
X27115D01*
X32194D02*
X37272Y208723D01*
X42350Y211262D02*
X44889Y208723D01*
X49968D01*
X52507Y211262D01*
Y221419D01*
X49968Y223958D01*
X44889D01*
X42350Y221419D01*
Y218880D01*
X44889Y216341D01*
X52507D01*
X199315Y426200D02*
X199384Y429790D01*
X195863Y433449D01*
X192273Y433519D01*
X190443Y431758D01*
X190374Y428168D01*
X193895Y424508D01*
X193825Y420918D01*
X191996Y419157D01*
X188405Y419227D01*
X184884Y422886D01*
X184954Y426477D01*
X204666Y424301D02*
X211708Y416982D01*
X208187Y420641D01*
X197208Y410078D01*
X204250Y402759D02*
X215229Y413322D01*
X215090Y406142D01*
X222271Y406003D01*
X211292Y395440D01*
X223962Y400583D02*
X227552Y400514D01*
X231073Y396854D01*
X231004Y393264D01*
X229174Y391503D01*
X225584Y391573D01*
X223824Y393402D01*
X225584Y391573D01*
X225515Y387982D01*
X223685Y386222D01*
X220095Y386291D01*
X216574Y389951D01*
X216643Y393541D01*
X232418Y373483D02*
X225376Y380802D01*
X239737Y380525D01*
X241567Y382285D01*
X241637Y385876D01*
X238115Y389535D01*
X234525Y389604D01*
X50358Y55169D02*
Y70404D01*
X55436Y65326D01*
X60514Y70404D01*
Y55169D01*
X65593D02*
Y70404D01*
X73210D01*
X75750Y67865D01*
Y62787D01*
X73210Y60248D01*
X65593D01*
X80828Y70404D02*
Y55169D01*
X90985D01*
X96063Y67865D02*
X98602Y70404D01*
X103681D01*
X106220Y67865D01*
Y65326D01*
X103681Y62787D01*
X101141D01*
X103681D01*
X106220Y60248D01*
Y57708D01*
X103681Y55169D01*
X98602D01*
X96063Y57708D01*
X111298Y55169D02*
X116376D01*
X113837D01*
Y70404D01*
X111298Y67865D01*
X123994Y55169D02*
X129072D01*
X126533D01*
Y70404D01*
X123994Y67865D01*
X146847Y70404D02*
X136690D01*
Y62787D01*
X141768Y65326D01*
X144307D01*
X146847Y62787D01*
Y57708D01*
X144307Y55169D01*
X139229D01*
X136690Y57708D01*
X151925Y55169D02*
Y65326D01*
X157003Y70404D01*
X162082Y65326D01*
Y55169D01*
Y62787D01*
X151925D01*
X177317Y55169D02*
X167160D01*
X177317Y65326D01*
Y67865D01*
X174778Y70404D01*
X169699D01*
X167160Y67865D01*
X31716Y439450D02*
X16481D01*
Y447067D01*
X19020Y449606D01*
X24099D01*
X26638Y447067D01*
Y439450D01*
X21560Y454685D02*
X31716D01*
X26638D01*
X24099Y457224D01*
X21560Y459763D01*
Y462302D01*
X31716Y472459D02*
Y477537D01*
X29177Y480076D01*
X24099D01*
X21560Y477537D01*
Y472459D01*
X24099Y469920D01*
X29177D01*
X31716Y472459D01*
X36795Y490233D02*
Y492772D01*
X34255Y495312D01*
X21560D01*
Y487694D01*
X24099Y485155D01*
X29177D01*
X31716Y487694D01*
Y495312D01*
X429082Y150402D02*
Y147863D01*
X434161Y142785D01*
X439239Y147863D01*
Y150402D01*
X434161Y142785D02*
Y135167D01*
X454474D02*
X444318D01*
X454474Y145324D01*
Y147863D01*
X451935Y150402D01*
X446857D01*
X444318Y147863D01*
X669336Y396722D02*
X684571D01*
Y389105D01*
X682032Y386566D01*
X676954D01*
X674415Y389105D01*
Y396722D01*
X669336Y378948D02*
Y373870D01*
X671876Y371330D01*
X676954D01*
X679493Y373870D01*
Y378948D01*
X676954Y381487D01*
X671876D01*
X669336Y378948D01*
X679493Y366252D02*
X671876D01*
X669336Y363713D01*
X671876Y361174D01*
X669336Y358635D01*
X671876Y356095D01*
X679493D01*
X669336Y343400D02*
Y348478D01*
X671876Y351017D01*
X676954D01*
X679493Y348478D01*
Y343400D01*
X676954Y340860D01*
X674415D01*
Y351017D01*
X679493Y335782D02*
X669336D01*
X674415D01*
X676954Y333243D01*
X679493Y330704D01*
Y328164D01*
X222230Y110000D02*
X206995D01*
Y117618D01*
X209534Y120157D01*
X214613D01*
X217152Y117618D01*
Y110000D01*
Y115078D02*
X222230Y120157D01*
X209534Y125235D02*
X206995Y127774D01*
Y132853D01*
X209534Y135392D01*
X212073D01*
X214613Y132853D01*
X217152Y135392D01*
X219691D01*
X222230Y132853D01*
Y127774D01*
X219691Y125235D01*
X217152D01*
X214613Y127774D01*
X212073Y125235D01*
X209534D01*
X214613Y127774D02*
Y132853D01*
X199600Y110000D02*
X184365D01*
Y117618D01*
X186904Y120157D01*
X191982D01*
X194522Y117618D01*
Y110000D01*
Y115078D02*
X199600Y120157D01*
X184365Y125235D02*
Y135392D01*
X186904D01*
X197061Y125235D01*
X199600D01*
X544804Y88056D02*
X542265Y85517D01*
Y80439D01*
X544804Y77900D01*
X547343D01*
X549883Y80439D01*
Y85517D01*
X552422Y88056D01*
X554961D01*
X557500Y85517D01*
Y80439D01*
X554961Y77900D01*
X542265Y93135D02*
X557500D01*
Y100752D01*
X554961Y103292D01*
X544804D01*
X542265Y100752D01*
Y93135D01*
X544804Y118527D02*
X542265Y115988D01*
Y110909D01*
X544804Y108370D01*
X554961D01*
X557500Y110909D01*
Y115988D01*
X554961Y118527D01*
X547343Y126144D02*
Y131222D01*
X549883Y133762D01*
X557500D01*
Y126144D01*
X554961Y123605D01*
X552422Y126144D01*
Y133762D01*
X547343Y138840D02*
X557500D01*
X552422D01*
X549883Y141379D01*
X547343Y143918D01*
Y146458D01*
X542265Y164232D02*
X557500D01*
Y156614D01*
X554961Y154075D01*
X549883D01*
X547343Y156614D01*
Y164232D01*
X7395Y302182D02*
Y286947D01*
X15013D01*
X17552Y289486D01*
Y292025D01*
X15013Y294564D01*
X7395D01*
X15013D01*
X17552Y297103D01*
Y299643D01*
X15013Y302182D01*
X7395D01*
X25169Y286947D02*
X30248D01*
X32787Y289486D01*
Y294564D01*
X30248Y297103D01*
X25169D01*
X22630Y294564D01*
Y289486D01*
X25169Y286947D01*
X40404D02*
X45483D01*
X48022Y289486D01*
Y294564D01*
X45483Y297103D01*
X40404D01*
X37865Y294564D01*
Y289486D01*
X40404Y286947D01*
X55639Y299643D02*
Y297103D01*
X53100D01*
X58179D01*
X55639D01*
Y289486D01*
X58179Y286947D01*
X287568Y310991D02*
X285028Y308452D01*
Y303373D01*
X287568Y300834D01*
X297724D01*
X300263Y303373D01*
Y308452D01*
X297724Y310991D01*
X292646D01*
Y305912D01*
X285028Y316069D02*
X287568D01*
X292646Y321148D01*
X287568Y326226D01*
X285028D01*
X292646Y321148D02*
X300263D01*
X292646Y331304D02*
Y341461D01*
X285028Y356696D02*
X287568Y351618D01*
X292646Y346539D01*
X297724D01*
X300263Y349079D01*
Y354157D01*
X297724Y356696D01*
X295185D01*
X292646Y354157D01*
Y346539D01*
X300263Y361774D02*
Y366853D01*
Y364314D01*
X285028D01*
X287568Y361774D01*
X104858Y417483D02*
X101267D01*
X97676Y413892D01*
Y410301D01*
X104858Y403119D01*
X108449D01*
X112039Y406710D01*
Y410301D01*
X117426Y412097D02*
X121017Y415688D01*
X119221Y413892D01*
X108449Y424665D01*
Y421074D01*
X131790Y426460D02*
X121017Y437233D01*
Y426460D01*
X128199Y433642D01*
X133538Y272015D02*
X129947D01*
X126356Y268424D01*
Y264833D01*
X133538Y257651D01*
X137129D01*
X140720Y261242D01*
Y264833D01*
X146106Y266628D02*
X149697Y270219D01*
X147902Y268424D01*
X137129Y279197D01*
Y275606D01*
X146106Y284583D02*
Y288174D01*
X149697Y291765D01*
X153288D01*
X155084Y289970D01*
Y286379D01*
X153288Y284583D01*
X155084Y286379D01*
X158674D01*
X160470Y284583D01*
Y280992D01*
X156879Y277401D01*
X153288D01*
X153168Y467980D02*
X149577D01*
X145986Y464389D01*
Y460798D01*
X153168Y453616D01*
X156759D01*
X160350Y457207D01*
Y460798D01*
X165736Y462593D02*
X169327Y466184D01*
X167532Y464389D01*
X156759Y475162D01*
Y471571D01*
X181895Y478753D02*
X174714Y471571D01*
Y485935D01*
X172918Y487730D01*
X169327D01*
X165736Y484139D01*
Y480548D01*
X207797Y342847D02*
X204206D01*
X200615Y339256D01*
Y335665D01*
X207797Y328483D01*
X211388D01*
X214979Y332074D01*
Y335665D01*
X220365Y337460D02*
X223956Y341051D01*
X222161Y339256D01*
X211388Y350028D01*
Y346437D01*
X229343D02*
X232934Y350028D01*
X231138Y348233D01*
X220365Y359006D01*
Y355415D01*
X190279Y267064D02*
X186688D01*
X183097Y263473D01*
Y259882D01*
X190279Y252700D01*
X193870D01*
X197461Y256291D01*
Y259882D01*
X202848Y261678D02*
X206439Y265269D01*
X204643Y263473D01*
X193870Y274246D01*
Y270655D01*
X202848Y279632D02*
Y283223D01*
X206439Y286814D01*
X210030D01*
X217211Y279632D01*
Y276042D01*
X213620Y272451D01*
X210030D01*
X202848Y279632D01*
X515157Y287696D02*
X512617Y290235D01*
X507539D01*
X505000Y287696D01*
Y285157D01*
X507539Y282617D01*
X512617D01*
X515157Y280078D01*
Y277539D01*
X512617Y275000D01*
X507539D01*
X505000Y277539D01*
X520235Y275000D02*
X525313D01*
X522774D01*
Y290235D01*
X520235Y287696D01*
X643767Y327388D02*
X641228Y329927D01*
X636150D01*
X633611Y327388D01*
Y317231D01*
X636150Y314692D01*
X641228D01*
X643767Y317231D01*
X648846D02*
X651385Y314692D01*
X656463D01*
X659002Y317231D01*
Y327388D01*
X656463Y329927D01*
X651385D01*
X648846Y327388D01*
Y324849D01*
X651385Y322309D01*
X659002D01*
X610687Y210196D02*
X608148Y212735D01*
X603069D01*
X600530Y210196D01*
Y200039D01*
X603069Y197500D01*
X608148D01*
X610687Y200039D01*
X615765Y210196D02*
X618304Y212735D01*
X623383D01*
X625922Y210196D01*
Y207657D01*
X623383Y205117D01*
X625922Y202578D01*
Y200039D01*
X623383Y197500D01*
X618304D01*
X615765Y200039D01*
Y202578D01*
X618304Y205117D01*
X615765Y207657D01*
Y210196D01*
X618304Y205117D02*
X623383D01*
X402564Y63781D02*
X400024D01*
X394946Y58703D01*
X400024Y53624D01*
X402564D01*
X394946Y58703D02*
X387329D01*
Y48546D02*
Y43468D01*
Y46007D01*
X402564D01*
X400024Y48546D01*
X302500Y455000D02*
Y470235D01*
X310117D01*
X312657Y467696D01*
Y462618D01*
X310117Y460078D01*
X302500D01*
X307578D02*
X312657Y455000D01*
X327892Y470235D02*
X322813Y467696D01*
X317735Y462618D01*
Y457539D01*
X320274Y455000D01*
X325353D01*
X327892Y457539D01*
Y460078D01*
X325353Y462618D01*
X317735D01*
X302500Y605000D02*
Y620235D01*
X310117D01*
X312657Y617696D01*
Y612618D01*
X310117Y610078D01*
X302500D01*
X307578D02*
X312657Y605000D01*
X327892Y620235D02*
X317735D01*
Y612618D01*
X322813Y615157D01*
X325353D01*
X327892Y612618D01*
Y607539D01*
X325353Y605000D01*
X320274D01*
X317735Y607539D01*
X302500Y502500D02*
Y517735D01*
X310117D01*
X312657Y515196D01*
Y510118D01*
X310117Y507578D01*
X302500D01*
X307578D02*
X312657Y502500D01*
X325353D02*
Y517735D01*
X317735Y510118D01*
X327892D01*
X584678Y338883D02*
X569443D01*
Y346501D01*
X571982Y349040D01*
X577060D01*
X579600Y346501D01*
Y338883D01*
Y343962D02*
X584678Y349040D01*
X571982Y354118D02*
X569443Y356657D01*
Y361736D01*
X571982Y364275D01*
X574521D01*
X577060Y361736D01*
Y359197D01*
Y361736D01*
X579600Y364275D01*
X582139D01*
X584678Y361736D01*
Y356657D01*
X582139Y354118D01*
X235255Y54663D02*
Y69898D01*
X242873D01*
X245412Y67359D01*
Y62281D01*
X242873Y59741D01*
X235255D01*
X240333D02*
X245412Y54663D01*
X260647D02*
X250490D01*
X260647Y64820D01*
Y67359D01*
X258108Y69898D01*
X253029D01*
X250490Y67359D01*
X237777Y79041D02*
Y94276D01*
X245394D01*
X247934Y91737D01*
Y86659D01*
X245394Y84120D01*
X237777D01*
X242855D02*
X247934Y79041D01*
X253012D02*
X258090D01*
X255551D01*
Y94276D01*
X253012Y91737D01*
X256271Y26185D02*
Y10950D01*
X266427D01*
X281663Y26185D02*
X271506D01*
Y10950D01*
X281663D01*
X271506Y18568D02*
X276584D01*
X286741Y26185D02*
Y10950D01*
X294358D01*
X296898Y13489D01*
Y23646D01*
X294358Y26185D01*
X286741D01*
X312133D02*
X301976D01*
Y18568D01*
X307054Y21107D01*
X309594D01*
X312133Y18568D01*
Y13489D01*
X309594Y10950D01*
X304515D01*
X301976Y13489D01*
X262996Y139670D02*
Y124435D01*
X273153D01*
X288388Y139670D02*
X278231D01*
Y124435D01*
X288388D01*
X278231Y132053D02*
X283309D01*
X293466Y139670D02*
Y124435D01*
X301083D01*
X303623Y126974D01*
Y137131D01*
X301083Y139670D01*
X293466D01*
X316318Y124435D02*
Y139670D01*
X308701Y132053D01*
X318858D01*
X272500Y490235D02*
Y475000D01*
X282657D01*
X297892Y490235D02*
X287735D01*
Y475000D01*
X297892D01*
X287735Y482618D02*
X292813D01*
X302970Y490235D02*
Y475000D01*
X310588D01*
X313127Y477539D01*
Y487696D01*
X310588Y490235D01*
X302970D01*
X318205Y487696D02*
X320744Y490235D01*
X325823D01*
X328362Y487696D01*
Y485157D01*
X325823Y482618D01*
X323284D01*
X325823D01*
X328362Y480078D01*
Y477539D01*
X325823Y475000D01*
X320744D01*
X318205Y477539D01*
X272500Y537735D02*
Y522500D01*
X282657D01*
X297892Y537735D02*
X287735D01*
Y522500D01*
X297892D01*
X287735Y530118D02*
X292813D01*
X302970Y537735D02*
Y522500D01*
X310588D01*
X313127Y525039D01*
Y535196D01*
X310588Y537735D01*
X302970D01*
X328362Y522500D02*
X318205D01*
X328362Y532657D01*
Y535196D01*
X325823Y537735D01*
X320744D01*
X318205Y535196D01*
X277500Y640235D02*
Y625000D01*
X287657D01*
X302892Y640235D02*
X292735D01*
Y625000D01*
X302892D01*
X292735Y632618D02*
X297813D01*
X307970Y640235D02*
Y625000D01*
X315588D01*
X318127Y627539D01*
Y637696D01*
X315588Y640235D01*
X307970D01*
X323205Y625000D02*
X328284D01*
X325744D01*
Y640235D01*
X323205Y637696D01*
X472778Y402436D02*
X470239Y404975D01*
X465160D01*
X462621Y402436D01*
Y392279D01*
X465160Y389740D01*
X470239D01*
X472778Y392279D01*
X477856Y404975D02*
X488013D01*
Y402436D01*
X477856Y392279D01*
Y389740D01*
X471129Y380169D02*
X468589Y382708D01*
X463511D01*
X460972Y380169D01*
Y370012D01*
X463511Y367473D01*
X468589D01*
X471129Y370012D01*
X486363Y382708D02*
X481285Y380169D01*
X476207Y375091D01*
Y370012D01*
X478746Y367473D01*
X483824D01*
X486363Y370012D01*
Y372551D01*
X483824Y375091D01*
X476207D01*
X462406Y24327D02*
X459866Y21788D01*
Y16710D01*
X462406Y14170D01*
X472562D01*
X475102Y16710D01*
Y21788D01*
X472562Y24327D01*
X459866Y39562D02*
Y29405D01*
X467484D01*
X464945Y34484D01*
Y37023D01*
X467484Y39562D01*
X472562D01*
X475102Y37023D01*
Y31945D01*
X472562Y29405D01*
X411897Y23878D02*
X409358Y21339D01*
Y16260D01*
X411897Y13721D01*
X422054D01*
X424593Y16260D01*
Y21339D01*
X422054Y23878D01*
X424593Y36574D02*
X409358D01*
X416975Y28956D01*
Y39113D01*
X595899Y349040D02*
X593359Y346501D01*
Y341422D01*
X595899Y338883D01*
X606055D01*
X608595Y341422D01*
Y346501D01*
X606055Y349040D01*
X595899Y354118D02*
X593359Y356657D01*
Y361736D01*
X595899Y364275D01*
X598438D01*
X600977Y361736D01*
Y359197D01*
Y361736D01*
X603516Y364275D01*
X606055D01*
X608595Y361736D01*
Y356657D01*
X606055Y354118D01*
X338446Y23723D02*
X335907Y26263D01*
X330829D01*
X328289Y23723D01*
Y13567D01*
X330829Y11027D01*
X335907D01*
X338446Y13567D01*
X353681Y11027D02*
X343525D01*
X353681Y21184D01*
Y23723D01*
X351142Y26263D01*
X346064D01*
X343525Y23723D01*
X339344Y91293D02*
X336805Y93832D01*
X331726D01*
X329187Y91293D01*
Y81136D01*
X331726Y78597D01*
X336805D01*
X339344Y81136D01*
X344422Y78597D02*
X349501D01*
X346962D01*
Y93832D01*
X344422Y91293D01*
D14*
X258754Y636722D02*
X262986D01*
X260870D01*
Y649418D01*
X258754Y647302D01*
X269334D02*
X271450Y649418D01*
X275682D01*
X277798Y647302D01*
Y645186D01*
X275682Y643070D01*
X277798Y640954D01*
Y638838D01*
X275682Y636722D01*
X271450D01*
X269334Y638838D01*
Y640954D01*
X271450Y643070D01*
X269334Y645186D01*
Y647302D01*
X271450Y643070D02*
X275682D01*
X258754Y611322D02*
X262986D01*
X260870D01*
Y624018D01*
X258754Y621902D01*
X269334Y624018D02*
X277798D01*
Y621902D01*
X269334Y613438D01*
Y611322D01*
X11339Y611672D02*
X15571D01*
X13455D01*
Y624368D01*
X11339Y622252D01*
X16516Y637309D02*
X8052D01*
X16516Y645773D01*
Y647889D01*
X14400Y650005D01*
X10168D01*
X8052Y647889D01*
X119104Y277616D02*
X114872Y275500D01*
X110640Y271268D01*
Y267036D01*
X112756Y264920D01*
X116988D01*
X119104Y267036D01*
Y269152D01*
X116988Y271268D01*
X110640D01*
X119104Y252216D02*
X110640D01*
Y245868D01*
X114872Y247984D01*
X116988D01*
X119104Y245868D01*
Y241636D01*
X116988Y239520D01*
X112756D01*
X110640Y241636D01*
X27664Y264920D02*
X19200D01*
X27664Y273384D01*
Y275500D01*
X25548Y277616D01*
X21316D01*
X19200Y275500D01*
X24280Y239520D02*
X28512D01*
X26396D01*
Y252216D01*
X24280Y250100D01*
M02*
