G04*
G04 #@! TF.GenerationSoftware,Altium Limited,Altium Designer,19.1.8 (144)*
G04*
G04 Layer_Color=32768*
%FSLAX44Y44*%
%MOMM*%
G71*
G01*
G75*
%ADD59C,0.1000*%
%ADD60C,0.0500*%
D59*
X153964Y368965D02*
X161035Y376036D01*
X153964D02*
X161035Y368965D01*
X77500Y292500D02*
Y302500D01*
X72500Y297500D02*
X82500D01*
X60000Y288000D02*
X95000D01*
X60000Y307000D02*
X95000D01*
Y288000D02*
Y307000D01*
X60000Y288000D02*
Y307000D01*
X77500Y212500D02*
Y222500D01*
X72500Y217500D02*
X82500D01*
X60000Y227000D02*
X95000D01*
X60000Y208000D02*
X95000D01*
X60000D02*
Y227000D01*
X95000Y208000D02*
Y227000D01*
X595000Y385000D02*
X605000D01*
X600000Y380000D02*
Y390000D01*
X609500Y367500D02*
Y402500D01*
X590500Y367500D02*
Y402500D01*
X609500D01*
X590500Y367500D02*
X609500D01*
X572500Y385000D02*
X582500D01*
X577500Y380000D02*
Y390000D01*
X568000Y367500D02*
Y402500D01*
X587000Y367500D02*
Y402500D01*
X568000Y367500D02*
X587000D01*
X568000Y402500D02*
X587000D01*
X510000Y370000D02*
Y380000D01*
X505000Y375000D02*
X515000D01*
X492500Y384500D02*
X527500D01*
X492500Y365500D02*
X527500D01*
X492500D02*
Y384500D01*
X527500Y365500D02*
Y384500D01*
X510000Y392500D02*
Y402500D01*
X505000Y397500D02*
X515000D01*
X492500Y407000D02*
X527500D01*
X492500Y388000D02*
X527500D01*
X492500D02*
Y407000D01*
X527500Y388000D02*
Y407000D01*
X412500Y60000D02*
X422500D01*
X417500Y55000D02*
Y65000D01*
X427000Y42500D02*
Y77500D01*
X408000Y42500D02*
Y77500D01*
X427000D01*
X408000Y42500D02*
X427000D01*
X462500Y60000D02*
X472500D01*
X467500Y55000D02*
Y65000D01*
X477000Y42500D02*
Y77500D01*
X458000Y42500D02*
Y77500D01*
X477000D01*
X458000Y42500D02*
X477000D01*
X340000Y32500D02*
Y42500D01*
X335000Y37500D02*
X345000D01*
X322500Y47000D02*
X357500D01*
X322500Y28000D02*
X357500D01*
X322500D02*
Y47000D01*
X357500Y28000D02*
Y47000D01*
X340000Y60000D02*
Y70000D01*
X335000Y65000D02*
X345000D01*
X322500Y74500D02*
X357500D01*
X322500Y55500D02*
X357500D01*
X322500D02*
Y74500D01*
X357500Y55500D02*
Y74500D01*
X205100Y72500D02*
X224100D01*
X205100Y107500D02*
X224100D01*
X205100Y72500D02*
Y107500D01*
X224100Y72500D02*
Y107500D01*
X214600Y85000D02*
Y95000D01*
X209600Y90000D02*
X219600D01*
X182600Y72500D02*
X201600D01*
X182600Y107500D02*
X201600D01*
X182600Y72500D02*
Y107500D01*
X201600Y72500D02*
Y107500D01*
X192100Y85000D02*
Y95000D01*
X187100Y90000D02*
X197100D01*
X613030Y220000D02*
Y230000D01*
X608030Y225000D02*
X618030D01*
X595530Y215500D02*
X630531D01*
X595530Y234500D02*
X630531D01*
Y215500D02*
Y234500D01*
X595530Y215500D02*
Y234500D01*
X442500Y102500D02*
Y112500D01*
X437500Y107500D02*
X447500D01*
X511000Y279750D02*
X519000D01*
X515000Y275750D02*
Y283750D01*
X280000Y57500D02*
Y67500D01*
X275000Y62500D02*
X285000D01*
X262500Y53000D02*
X297500D01*
X262500Y72000D02*
X297500D01*
Y53000D02*
Y72000D01*
X262500Y53000D02*
Y72000D01*
X280000Y82500D02*
Y92500D01*
X275000Y87500D02*
X285000D01*
X262500Y78000D02*
X297500D01*
X262500Y97000D02*
X297500D01*
Y78000D02*
Y97000D01*
X262500Y78000D02*
Y97000D01*
X347500Y457500D02*
Y467500D01*
X342500Y462500D02*
X352500D01*
X330000Y472000D02*
X365000D01*
X330000Y453000D02*
X365000D01*
X330000D02*
Y472000D01*
X365000Y453000D02*
Y472000D01*
X347500Y505000D02*
Y515000D01*
X342500Y510000D02*
X352500D01*
X330000Y519500D02*
X365000D01*
X330000Y500500D02*
X365000D01*
X330000D02*
Y519500D01*
X365000Y500500D02*
Y519500D01*
X347500Y607500D02*
Y617500D01*
X342500Y612500D02*
X352500D01*
X330000Y622000D02*
X365000D01*
X330000Y603000D02*
X365000D01*
X330000D02*
Y622000D01*
X365000Y603000D02*
Y622000D01*
X81818Y393182D02*
X88182Y386818D01*
X81818Y386818D02*
X88182Y393182D01*
X226818Y333182D02*
X233182Y326818D01*
X226818D02*
X233182Y333182D01*
X613030Y317500D02*
Y327500D01*
X608030Y322500D02*
X618030D01*
X595530Y313000D02*
X630530D01*
X595530Y332000D02*
X630530D01*
Y313000D02*
Y332000D01*
X595530Y313000D02*
Y332000D01*
X186464Y286035D02*
X193535Y278964D01*
X186464D02*
X193535Y286036D01*
X171818Y300682D02*
X178182Y294318D01*
X171818D02*
X178182Y300682D01*
X179318Y446818D02*
X185682Y453182D01*
X179318Y453182D02*
X185682Y446818D01*
X608030Y275000D02*
X618030D01*
X613030Y270000D02*
Y280000D01*
X280000Y107500D02*
Y117500D01*
X275000Y112500D02*
X285000D01*
X262750Y121000D02*
X297250D01*
X262750Y104000D02*
X297250D01*
X262750D02*
Y121000D01*
X297250Y104000D02*
Y121000D01*
X280000Y32500D02*
Y42500D01*
X275000Y37500D02*
X285000D01*
X262750Y46000D02*
X297250D01*
X262750Y29000D02*
X297250D01*
X262750D02*
Y46000D01*
X297250Y29000D02*
Y46000D01*
X347500Y627500D02*
Y637500D01*
X342500Y632500D02*
X352500D01*
X330250Y624000D02*
X364750D01*
X330250Y641000D02*
X364750D01*
Y624000D02*
Y641000D01*
X330250Y624000D02*
Y641000D01*
X347500Y525000D02*
Y535000D01*
X342500Y530000D02*
X352500D01*
X330250Y521500D02*
X364750D01*
X330250Y538500D02*
X364750D01*
Y521500D02*
Y538500D01*
X330250Y521500D02*
Y538500D01*
X347500Y477500D02*
Y487500D01*
X342500Y482500D02*
X352500D01*
X330250Y474000D02*
X364750D01*
X330250Y491000D02*
X364750D01*
Y474000D02*
Y491000D01*
X330250Y474000D02*
Y491000D01*
D60*
X157500Y446039D02*
X231039Y372500D01*
X83961D02*
X157500Y298961D01*
X83961Y372500D02*
X157500Y446039D01*
Y298961D02*
X231039Y372500D01*
X500251Y83257D02*
Y131745D01*
X384750Y83257D02*
X500251D01*
X384750D02*
Y131744D01*
X500251D01*
X80404Y370555D02*
X104446Y394596D01*
X65555Y385404D02*
X89596Y409445D01*
X104446Y394596D01*
X65555Y385404D02*
X80404Y370555D01*
X210555Y325404D02*
X234596Y349446D01*
X225404Y310554D02*
X249446Y334596D01*
X210555Y325404D02*
X225404Y310554D01*
X234596Y349446D02*
X249446Y334596D01*
X186111Y267298D02*
X205203Y286389D01*
X174797Y278611D02*
X193889Y297703D01*
X205203Y286389D01*
X174797Y278611D02*
X186111Y267298D01*
X155555Y292904D02*
X179596Y316945D01*
X170404Y278055D02*
X194446Y302096D01*
X155555Y292904D02*
X170404Y278055D01*
X179596Y316945D02*
X194446Y302096D01*
X163054Y454596D02*
X187096Y430554D01*
X177903Y469445D02*
X201945Y445404D01*
X187096Y430554D02*
X201945Y445404D01*
X163054Y454596D02*
X177903Y469445D01*
X655530Y239000D02*
Y311000D01*
X570530Y239000D02*
Y311000D01*
Y239000D02*
X655530D01*
X570530Y311000D02*
X655530D01*
M02*
