G04*
G04 #@! TF.GenerationSoftware,Altium Limited,Altium Designer,19.1.8 (144)*
G04*
G04 Layer_Color=2752767*
%FSLAX44Y44*%
%MOMM*%
G71*
G01*
G75*
%ADD61C,0.0508*%
%ADD62C,0.0677*%
D61*
X617968Y647968D02*
Y652032D01*
X622032D01*
Y647968D01*
X617968D01*
X597968D02*
Y652032D01*
X602032D01*
Y647968D01*
X597968D01*
X577968D02*
Y652032D01*
X582032D01*
Y647968D01*
X577968D01*
X557968D02*
Y652032D01*
X562032D01*
Y647968D01*
X557968D01*
X537968D02*
Y652032D01*
X542032D01*
Y647968D01*
X537968D01*
X517968D02*
Y652032D01*
X522032D01*
Y647968D01*
X517968D01*
X497968D02*
Y652032D01*
X502032D01*
Y647968D01*
X497968D01*
X477968D02*
Y652032D01*
X482032D01*
Y647968D01*
X477968D01*
X457968D02*
Y652032D01*
X462032D01*
Y647968D01*
X457968D01*
X437968D02*
Y652032D01*
X442032D01*
Y647968D01*
X437968D01*
Y427968D02*
Y432032D01*
X442032D01*
Y427968D01*
X437968D01*
X457968D02*
Y432032D01*
X462032D01*
Y427968D01*
X457968D01*
X477968D02*
Y432032D01*
X482032D01*
Y427968D01*
X477968D01*
X497968D02*
Y432032D01*
X502032D01*
Y427968D01*
X497968D01*
X517968D02*
Y432032D01*
X522032D01*
Y427968D01*
X517968D01*
X537968D02*
Y432032D01*
X542032D01*
Y427968D01*
X537968D01*
X557968D02*
Y432032D01*
X562032D01*
Y427968D01*
X557968D01*
X577968D02*
Y432032D01*
X582032D01*
Y427968D01*
X577968D01*
X597968D02*
Y432032D01*
X602032D01*
Y427968D01*
X597968D01*
X617968D02*
Y432032D01*
X622032D01*
Y427968D01*
X617968D01*
X466899Y105468D02*
X464868Y109532D01*
X468932D01*
X466899Y105468D01*
X418100D02*
X416068Y109532D01*
X420131D01*
X418100Y105468D01*
X204600Y162968D02*
X205616Y163984D01*
X206632D01*
X205616Y165000D01*
X206632Y166016D01*
X205616D01*
X204600Y167032D01*
X203584Y166016D01*
X202568D01*
X203584Y165000D01*
X202568Y163984D01*
X203584D01*
X204600Y162968D01*
X69600D02*
X70616Y163984D01*
X71632D01*
X70616Y165000D01*
X71632Y166016D01*
X70616D01*
X69600Y167032D01*
X68584Y166016D01*
X67568D01*
X68584Y165000D01*
X67568Y163984D01*
X68584D01*
X69600Y162968D01*
X427500Y385468D02*
X428516Y386484D01*
X429532D01*
X428516Y387500D01*
X429532Y388516D01*
X428516D01*
X427500Y389532D01*
X426484Y388516D01*
X425468D01*
X426484Y387500D01*
X425468Y386484D01*
X426484D01*
X427500Y385468D01*
Y280468D02*
X428516Y281484D01*
X429532D01*
X428516Y282500D01*
X429532Y283516D01*
X428516D01*
X427500Y284532D01*
X426484Y283516D01*
X425468D01*
X426484Y282500D01*
X425468Y281484D01*
X426484D01*
X427500Y280468D01*
X606252Y344769D02*
X607268Y346801D01*
X606252Y348833D01*
X608284Y347817D01*
X610316Y348833D01*
X609300Y346801D01*
X610316Y344769D01*
X608284Y345785D01*
X606252Y344769D01*
X320614Y101521D02*
X321630Y103553D01*
X320614Y105585D01*
X322646Y104569D01*
X324678Y105585D01*
X323662Y103553D01*
X324678Y101521D01*
X322646Y102537D01*
X320614Y101521D01*
X300507Y14906D02*
X301523Y16938D01*
X300507Y18970D01*
X302539Y17954D01*
X304571Y18970D01*
X303555Y16938D01*
X304571Y14906D01*
X302539Y15922D01*
X300507Y14906D01*
X232803Y34468D02*
X233819Y36500D01*
X232803Y38532D01*
X234835Y37516D01*
X236867Y38532D01*
X235851Y36500D01*
X236867Y34468D01*
X234835Y35484D01*
X232803Y34468D01*
X180873Y142929D02*
X181889Y144961D01*
X180873Y146993D01*
X182905Y145977D01*
X184937Y146993D01*
X183921Y144961D01*
X184937Y142929D01*
X182905Y143945D01*
X180873Y142929D01*
X487952Y49212D02*
X488968Y51244D01*
X487952Y53276D01*
X489983Y52260D01*
X492015Y53276D01*
X490999Y51244D01*
X492015Y49212D01*
X489983Y50228D01*
X487952Y49212D01*
X72632Y410966D02*
X73647Y412998D01*
X72632Y415030D01*
X74664Y414014D01*
X76695Y415030D01*
X75679Y412998D01*
X76695Y410966D01*
X74664Y411982D01*
X72632Y410966D01*
X92976Y431671D02*
X93992Y433703D01*
X92976Y435735D01*
X95008Y434719D01*
X97040Y435735D01*
X96024Y433703D01*
X97040Y431671D01*
X95008Y432687D01*
X92976Y431671D01*
X73172Y446974D02*
X74188Y449007D01*
X73172Y451039D01*
X75204Y450023D01*
X77236Y451039D01*
X76220Y449007D01*
X77236Y446974D01*
X75204Y447990D01*
X73172Y446974D01*
X229443Y230998D02*
X230459Y233030D01*
X229443Y235062D01*
X231475Y234046D01*
X233507Y235062D01*
X232491Y233030D01*
X233507Y230998D01*
X231475Y232014D01*
X229443Y230998D01*
X215162Y260513D02*
X216178Y262545D01*
X215162Y264577D01*
X217194Y263561D01*
X219226Y264577D01*
X218210Y262545D01*
X219226Y260513D01*
X217194Y261529D01*
X215162Y260513D01*
X204530Y461880D02*
X205546Y463912D01*
X204530Y465944D01*
X206562Y464928D01*
X208594Y465944D01*
X207578Y463912D01*
X208594Y461880D01*
X206562Y462896D01*
X204530Y461880D01*
X214686Y489967D02*
X215702Y491999D01*
X214686Y494031D01*
X216718Y493015D01*
X218750Y494031D01*
X217734Y491999D01*
X218750Y489967D01*
X216718Y490983D01*
X214686Y489967D01*
X513918Y235750D02*
X514934Y237782D01*
X513918Y239814D01*
X515950Y238798D01*
X517982Y239814D01*
X516966Y237782D01*
X517982Y235750D01*
X515950Y236766D01*
X513918Y235750D01*
X378357Y610491D02*
X379373Y612523D01*
X378357Y614555D01*
X380389Y613539D01*
X382421Y614555D01*
X381405Y612523D01*
X382421Y610491D01*
X380389Y611507D01*
X378357Y610491D01*
X382382Y507626D02*
X383397Y509658D01*
X382382Y511690D01*
X384413Y510674D01*
X386446Y511690D01*
X385429Y509658D01*
X386446Y507626D01*
X384413Y508642D01*
X382382Y507626D01*
X382884Y457074D02*
X383900Y459105D01*
X382884Y461138D01*
X384916Y460121D01*
X386949Y461138D01*
X385933Y459105D01*
X386949Y457074D01*
X384916Y458089D01*
X382884Y457074D01*
X139533Y363286D02*
X140549Y365318D01*
X139533Y367350D01*
X141565Y366334D01*
X143597Y367350D01*
X142581Y365318D01*
X143597Y363286D01*
X141565Y364302D01*
X139533Y363286D01*
X142968Y380467D02*
X143984Y382499D01*
X142968Y384531D01*
X145000Y383515D01*
X147032Y384531D01*
X146016Y382499D01*
X147032Y380467D01*
X145000Y381483D01*
X142968Y380467D01*
X159478Y387955D02*
X160494Y389987D01*
X159478Y392019D01*
X161510Y391003D01*
X163542Y392019D01*
X162526Y389987D01*
X163542Y387955D01*
X161510Y388971D01*
X159478Y387955D01*
X85021Y316010D02*
X86037Y318041D01*
X85021Y320074D01*
X87053Y319058D01*
X89085Y320074D01*
X88069Y318041D01*
X89085Y316010D01*
X87053Y317026D01*
X85021Y316010D01*
X84979Y360332D02*
X85995Y362364D01*
X84979Y364396D01*
X87011Y363380D01*
X89043Y364396D01*
X88027Y362364D01*
X89043Y360332D01*
X87011Y361348D01*
X84979Y360332D01*
X177105Y377633D02*
X178121Y379665D01*
X177105Y381697D01*
X179137Y380681D01*
X181169Y381697D01*
X180153Y379665D01*
X181169Y377633D01*
X179137Y378649D01*
X177105Y377633D01*
X242092Y459261D02*
X243108Y461293D01*
X242092Y463325D01*
X244124Y462309D01*
X246156Y463325D01*
X245140Y461293D01*
X246156Y459261D01*
X244124Y460277D01*
X242092Y459261D01*
X259280Y470486D02*
X260296Y472518D01*
X259280Y474550D01*
X261312Y473534D01*
X263344Y474550D01*
X262328Y472518D01*
X263344Y470486D01*
X261312Y471502D01*
X259280Y470486D01*
X630468Y402968D02*
X631484Y405000D01*
X630468Y407032D01*
X632500Y406016D01*
X634532Y407032D01*
X633516Y405000D01*
X634532Y402968D01*
X632500Y403984D01*
X630468Y402968D01*
X552968Y372968D02*
X553984Y375000D01*
X552968Y377032D01*
X555000Y376016D01*
X557032Y377032D01*
X556016Y375000D01*
X557032Y372968D01*
X555000Y373984D01*
X552968Y372968D01*
X572968Y587968D02*
X573984Y590000D01*
X572968Y592032D01*
X575000Y591016D01*
X577032Y592032D01*
X576016Y590000D01*
X577032Y587968D01*
X575000Y588984D01*
X572968Y587968D01*
X532968Y315468D02*
X533984Y317500D01*
X532968Y319532D01*
X535000Y318516D01*
X537032Y319532D01*
X536016Y317500D01*
X537032Y315468D01*
X535000Y316484D01*
X532968Y315468D01*
X240468Y307968D02*
X241484Y310000D01*
X240468Y312032D01*
X242500Y311016D01*
X244532Y312032D01*
X243516Y310000D01*
X244532Y307968D01*
X242500Y308984D01*
X240468Y307968D01*
X155468Y262968D02*
X156484Y265000D01*
X155468Y267032D01*
X157500Y266016D01*
X159532Y267032D01*
X158516Y265000D01*
X159532Y262968D01*
X157500Y263984D01*
X155468Y262968D01*
X107968Y215468D02*
X108984Y217500D01*
X107968Y219532D01*
X110000Y218516D01*
X112032Y219532D01*
X111016Y217500D01*
X112032Y215468D01*
X110000Y216484D01*
X107968Y215468D01*
X445468Y567968D02*
X446484Y570000D01*
X445468Y572032D01*
X447500Y571016D01*
X449532Y572032D01*
X448516Y570000D01*
X449532Y567968D01*
X447500Y568984D01*
X445468Y567968D01*
X467968Y560468D02*
X468984Y562500D01*
X467968Y564532D01*
X470000Y563516D01*
X472032Y564532D01*
X471016Y562500D01*
X472032Y560468D01*
X470000Y561484D01*
X467968Y560468D01*
X337967Y317967D02*
X338983Y319999D01*
X337967Y322031D01*
X339999Y321015D01*
X342031Y322031D01*
X341015Y319999D01*
X342031Y317967D01*
X339999Y318983D01*
X337967Y317967D01*
X350468Y432968D02*
X351484Y435000D01*
X350468Y437032D01*
X352500Y436016D01*
X354532Y437032D01*
X353516Y435000D01*
X354532Y432968D01*
X352500Y433984D01*
X350468Y432968D01*
X357968Y317968D02*
X358984Y320000D01*
X357968Y322032D01*
X360000Y321016D01*
X362032Y322032D01*
X361016Y320000D01*
X362032Y317968D01*
X360000Y318984D01*
X357968Y317968D01*
X372968D02*
X373984Y320000D01*
X372968Y322032D01*
X375000Y321016D01*
X377032Y322032D01*
X376016Y320000D01*
X377032Y317968D01*
X375000Y318984D01*
X372968Y317968D01*
D62*
X37266Y616402D02*
G03*
X37266Y616402I-2032J0D01*
G01*
X240466Y641802D02*
G03*
X240466Y641802I-2032J0D01*
G01*
Y616402D02*
G03*
X240466Y616402I-2032J0D01*
G01*
X215066Y641802D02*
G03*
X215066Y641802I-2032J0D01*
G01*
Y616402D02*
G03*
X215066Y616402I-2032J0D01*
G01*
X189666Y641802D02*
G03*
X189666Y641802I-2032J0D01*
G01*
Y616402D02*
G03*
X189666Y616402I-2032J0D01*
G01*
X164266Y641802D02*
G03*
X164266Y641802I-2032J0D01*
G01*
Y616402D02*
G03*
X164266Y616402I-2032J0D01*
G01*
X138866Y641802D02*
G03*
X138866Y641802I-2032J0D01*
G01*
Y616402D02*
G03*
X138866Y616402I-2032J0D01*
G01*
X113466Y641802D02*
G03*
X113466Y641802I-2032J0D01*
G01*
Y616402D02*
G03*
X113466Y616402I-2032J0D01*
G01*
X88066Y641802D02*
G03*
X88066Y641802I-2032J0D01*
G01*
Y616402D02*
G03*
X88066Y616402I-2032J0D01*
G01*
X62666Y641802D02*
G03*
X62666Y641802I-2032J0D01*
G01*
Y616402D02*
G03*
X62666Y616402I-2032J0D01*
G01*
X37266Y641802D02*
G03*
X37266Y641802I-2032J0D01*
G01*
X29532Y420400D02*
G03*
X29532Y420400I-2032J0D01*
G01*
Y395000D02*
G03*
X29532Y395000I-2032J0D01*
G01*
Y369600D02*
G03*
X29532Y369600I-2032J0D01*
G01*
Y344200D02*
G03*
X29532Y344200I-2032J0D01*
G01*
X215732Y37500D02*
G03*
X215732Y37500I-2032J0D01*
G01*
X190332D02*
G03*
X190332Y37500I-2032J0D01*
G01*
X164932D02*
G03*
X164932Y37500I-2032J0D01*
G01*
X139532D02*
G03*
X139532Y37500I-2032J0D01*
G01*
X88732D02*
G03*
X88732Y37500I-2032J0D01*
G01*
X63332D02*
G03*
X63332Y37500I-2032J0D01*
G01*
X114132D02*
G03*
X114132Y37500I-2032J0D01*
G01*
X374532Y40000D02*
G03*
X374532Y40000I-2032J0D01*
G01*
Y65400D02*
G03*
X374532Y65400I-2032J0D01*
G01*
X46632Y244600D02*
G03*
X46632Y244600I-2032J0D01*
G01*
Y270000D02*
G03*
X46632Y270000I-2032J0D01*
G01*
X72032Y244600D02*
G03*
X72032Y244600I-2032J0D01*
G01*
Y270000D02*
G03*
X72032Y270000I-2032J0D01*
G01*
X97432Y244600D02*
G03*
X97432Y244600I-2032J0D01*
G01*
Y270000D02*
G03*
X97432Y270000I-2032J0D01*
G01*
X269532Y284200D02*
G03*
X269532Y284200I-2032J0D01*
G01*
Y309600D02*
G03*
X269532Y309600I-2032J0D01*
G01*
Y335000D02*
G03*
X269532Y335000I-2032J0D01*
G01*
Y360400D02*
G03*
X269532Y360400I-2032J0D01*
G01*
Y385800D02*
G03*
X269532Y385800I-2032J0D01*
G01*
X677032Y234200D02*
G03*
X677032Y234200I-2032J0D01*
G01*
Y259600D02*
G03*
X677032Y259600I-2032J0D01*
G01*
Y285000D02*
G03*
X677032Y285000I-2032J0D01*
G01*
Y310400D02*
G03*
X677032Y310400I-2032J0D01*
G01*
X524532Y46700D02*
G03*
X524532Y46700I-2032J0D01*
G01*
Y72100D02*
G03*
X524532Y72100I-2032J0D01*
G01*
Y97500D02*
G03*
X524532Y97500I-2032J0D01*
G01*
Y122900D02*
G03*
X524532Y122900I-2032J0D01*
G01*
Y148300D02*
G03*
X524532Y148300I-2032J0D01*
G01*
Y173700D02*
G03*
X524532Y173700I-2032J0D01*
G01*
M02*
