G04*
G04 #@! TF.GenerationSoftware,Altium Limited,Altium Designer,19.1.8 (144)*
G04*
G04 Layer_Physical_Order=3*
G04 Layer_Color=128*
%FSLAX44Y44*%
%MOMM*%
G71*
G01*
G75*
%ADD42C,1.7272*%
%ADD51C,1.0160*%
%ADD52C,1.8160*%
G04:AMPARAMS|DCode=53|XSize=2.324mm|YSize=2.324mm|CornerRadius=0mm|HoleSize=0mm|Usage=FLASHONLY|Rotation=0.000|XOffset=0mm|YOffset=0mm|HoleType=Round|Shape=Relief|Width=0.254mm|Gap=0.254mm|Entries=4|*
%AMTHD53*
7,0,0,2.3240,1.8160,0.2540,45*
%
%ADD53THD53*%
%ADD54C,1.9160*%
G04:AMPARAMS|DCode=55|XSize=2.424mm|YSize=2.424mm|CornerRadius=0mm|HoleSize=0mm|Usage=FLASHONLY|Rotation=0.000|XOffset=0mm|YOffset=0mm|HoleType=Round|Shape=Relief|Width=0.254mm|Gap=0.254mm|Entries=4|*
%AMTHD55*
7,0,0,2.4240,1.9160,0.2540,45*
%
%ADD55THD55*%
%ADD56C,1.7160*%
%ADD57C,4.0160*%
G04:AMPARAMS|DCode=58|XSize=2.2352mm|YSize=2.2352mm|CornerRadius=0mm|HoleSize=0mm|Usage=FLASHONLY|Rotation=0.000|XOffset=0mm|YOffset=0mm|HoleType=Round|Shape=Relief|Width=0.254mm|Gap=0.254mm|Entries=4|*
%AMTHD58*
7,0,0,2.2352,1.7272,0.2540,45*
%
%ADD58THD58*%
D42*
X381709Y320585D02*
D03*
X362634Y320016D02*
D03*
X322646Y103553D02*
D03*
X302539Y16938D02*
D03*
X234835Y36500D02*
D03*
X489983Y51244D02*
D03*
X95008Y433703D02*
D03*
X75204Y449007D02*
D03*
X231475Y233030D02*
D03*
X206562Y463912D02*
D03*
X515950Y237782D02*
D03*
X380389Y612523D02*
D03*
X384413Y509658D02*
D03*
X384916Y459105D02*
D03*
X141565Y365318D02*
D03*
X145000Y382499D02*
D03*
X161510Y389987D02*
D03*
X87053Y318041D02*
D03*
X87011Y362364D02*
D03*
X179137Y379665D02*
D03*
X244124Y461293D02*
D03*
X261312Y472518D02*
D03*
X632500Y405000D02*
D03*
X555000Y375000D02*
D03*
X575000Y590000D02*
D03*
X535000Y317500D02*
D03*
X242500Y310000D02*
D03*
X157500Y265000D02*
D03*
X110000Y217500D02*
D03*
X447500Y570000D02*
D03*
X470000Y562500D02*
D03*
X339999Y319999D02*
D03*
X352500Y435000D02*
D03*
D51*
X0Y0D02*
Y670000D01*
X700000D01*
Y0D02*
Y670000D01*
X0Y0D02*
X700000D01*
D52*
X600000Y650000D02*
D03*
X580000D02*
D03*
X560000D02*
D03*
X540000D02*
D03*
X520000D02*
D03*
X500000D02*
D03*
X480000D02*
D03*
X460000D02*
D03*
X440000D02*
D03*
Y430000D02*
D03*
X460000D02*
D03*
X480000D02*
D03*
X520000D02*
D03*
X540000D02*
D03*
X560000D02*
D03*
X580000D02*
D03*
X600000D02*
D03*
X620000D02*
D03*
D53*
Y650000D02*
D03*
X500000Y430000D02*
D03*
D54*
X238434Y641802D02*
D03*
Y616402D02*
D03*
X213034Y641802D02*
D03*
Y616402D02*
D03*
X187634Y641802D02*
D03*
Y616402D02*
D03*
X162234Y641802D02*
D03*
Y616402D02*
D03*
X136834Y641802D02*
D03*
Y616402D02*
D03*
X111434Y641802D02*
D03*
Y616402D02*
D03*
X86034Y641802D02*
D03*
Y616402D02*
D03*
X60634Y641802D02*
D03*
X35234D02*
D03*
X27500Y420400D02*
D03*
Y395000D02*
D03*
Y369600D02*
D03*
X213700Y37500D02*
D03*
X188300D02*
D03*
X162900D02*
D03*
X137500D02*
D03*
X86700D02*
D03*
X112100D02*
D03*
X372500Y40000D02*
D03*
Y65400D02*
D03*
X70000Y244600D02*
D03*
Y270000D02*
D03*
X95400Y244600D02*
D03*
Y270000D02*
D03*
X267500Y309600D02*
D03*
Y335000D02*
D03*
Y360400D02*
D03*
Y385800D02*
D03*
X675000Y234200D02*
D03*
Y259600D02*
D03*
Y285000D02*
D03*
Y310400D02*
D03*
X522500Y72100D02*
D03*
Y97500D02*
D03*
Y122900D02*
D03*
Y148300D02*
D03*
Y173700D02*
D03*
D55*
X35234Y616402D02*
D03*
X60634D02*
D03*
X27500Y344200D02*
D03*
X61300Y37500D02*
D03*
X44600Y244600D02*
D03*
Y270000D02*
D03*
X267500Y284200D02*
D03*
X522500Y46700D02*
D03*
D56*
X466899Y107500D02*
D03*
X418100D02*
D03*
D57*
X204600Y165000D02*
D03*
X69600D02*
D03*
X427500Y387500D02*
D03*
Y282500D02*
D03*
D58*
X608284Y346801D02*
D03*
X182905Y144961D02*
D03*
X74664Y412998D02*
D03*
X217194Y262545D02*
D03*
X216718Y491999D02*
D03*
M02*
